<?xml version="1.0" encoding="utf-8"?>
<!-- Generator: Adobe Illustrator 28.1.0, SVG Export Plug-In . SVG Version: 6.00 Build 0)  -->
<!DOCTYPE svg PUBLIC "-//W3C//DTD SVG 1.1//EN" "http://www.w3.org/Graphics/SVG/1.1/DTD/svg11.dtd" [
	<!ENTITY ns_extend "http://ns.adobe.com/Extensibility/1.0/">
	<!ENTITY ns_ai "http://ns.adobe.com/AdobeIllustrator/10.0/">
	<!ENTITY ns_graphs "http://ns.adobe.com/Graphs/1.0/">
	<!ENTITY ns_vars "http://ns.adobe.com/Variables/1.0/">
	<!ENTITY ns_imrep "http://ns.adobe.com/ImageReplacement/1.0/">
	<!ENTITY ns_sfw "http://ns.adobe.com/SaveForWeb/1.0/">
	<!ENTITY ns_custom "http://ns.adobe.com/GenericCustomNamespace/1.0/">
	<!ENTITY ns_adobe_xpath "http://ns.adobe.com/XPath/1.0/">
]>
<svg version="1.1" id="Layer_1" xmlns:x="&ns_extend;" xmlns:i="&ns_ai;" xmlns:graph="&ns_graphs;"
	 xmlns="http://www.w3.org/2000/svg" xmlns:xlink="http://www.w3.org/1999/xlink" x="0px" y="0px" viewBox="0 0 223.6 139.6"
	 style="enable-background:new 0 0 223.6 139.6;" xml:space="preserve">
<style type="text/css">
	.st0{fill:#FFFFFF;}
</style>
<metadata>
	<sfw  xmlns="&ns_sfw;">
		<slices></slices>
		<sliceSourceBounds  bottomLeftOrigin="true" height="139.6" width="223.6" x="0" y="-177.9"></sliceSourceBounds>
	</sfw>
</metadata>
<path class="st0" d="M223.6,60.6l-3.4-4.6L185,8.4l-3-4.1L177.7,7l-26.5,16.3c-6.4-2.2-22.7-7.5-29.2-8.2c-0.8-0.1-1.8-0.1-2.9-0.1
	c-2.1,0-14.9,1-26,3.6c-3.7-1.4-7.2-2.6-10.6-3.4C65.4,10.7,47.3,1.9,47.1,1.9L43.3,0L0,50.4L3.9,54c1.8,1.7,9,9.9,17.3,19.4
	c1.8,2,3.7,4.2,5.7,6.5c-4.1,6.1-7.3,14.1-1.5,21c3.6,4.6,7.9,5.8,10.7,6.3c0.6,2.5,1.9,6.3,5.8,8.8c3,2.3,6.2,3.4,9.5,3.4
	c0.9,0,1.7-0.1,2.4-0.2c0.1,0.2,0.2,0.3,0.2,0.4c1.2,2.3,3,5.9,7.5,8.8c2.3,1.5,4.8,2.3,7.5,2.3c0.9,0,1.8-0.1,2.5-0.2
	c1.6,4.5,4.7,7.3,9.5,8.2c1.5,0.3,2.9,0.4,4.2,0.4c3.9,0,6.6-1.2,8.5-2.8c1.2,0.5,2,0.9,2.3,1c3.6,1.6,7.1,2.3,11,2.3
	c2.6,0,5.3-0.3,8.5-1c8.9-2,58.1-26.9,65-34.7c3.6-4,6-11.6,5.2-17.6l32.9-22.5L223.6,60.6z M172.5,96.6c-0.4,0.5-1.2,1.1-2.2,1.8
	l-34.8-32.1l-7.4,8.1l32.7,30.1c-3.1,1.8-6.7,3.8-10.4,5.8l-30.1-27.8l-7.4,8.1l27.2,25.1c-3.7,1.9-7.4,3.7-10.8,5.4l-23.9-22.2
	l-7.5,8l20.6,19.1c-2.3,1-4.1,1.6-5.1,1.9c-5.4,1.2-8.8,1.1-12.7-0.7l-0.3-0.1c0,0-0.4-0.2-1-0.4c0.7-7.5-4.9-16.3-8.9-18.9
	c-1.7-1.2-3.7-2.3-6.1-2.4c0-4.8-1.3-9.9-5.5-13.8l-0.1-0.1l-0.1-0.1c-2.2-1.9-4.5-2.9-6.8-2.9c-0.5,0-0.9,0-1.4,0.1
	c0.3-3.1,0.1-6.1-0.9-8.7c-1.2-3-3.3-5.2-6.1-6.4c-1.5-0.7-3.1-1-4.6-1c-2.6,0-4.8,0.9-6.5,2.3c0-0.1,0-0.2-0.1-0.3
	c-0.7-3.3-2.1-5.6-4.2-6.9l-0.1-0.1l-0.1-0.1c-1.1-0.7-2.9-1.5-5.1-1.5c-3.8,0-6.6,2.6-8.8,5.2c-1.5-1.7-2.9-3.3-4.3-4.9
	c-6.7-7.7-11.4-13-14.5-16.4l31.2-36.2c6.1,2.8,18.7,8.1,31.6,11.7c-0.5,0.5-0.9,1.1-1.2,1.7c-1,2-1,4.2,0,6.1
	c0.7,2,2.9,6.9,8.5,9.9l0.5,0.3c2.9,1.5,6.6,3.5,12.1,3.5c4.5,0,9.7-1.2,16.2-3.9c0.1,0,0.5-0.2,1.6-0.2c1,0,2.3,0.2,3.9,0.5
	c7.9,4.3,13.7,7.8,14.9,8.5c8.8,7,23.9,19.4,36.4,30c1.9,2.1,3.5,4,4.4,5.6C175.6,88.7,174.5,94.3,172.5,96.6z"/>
</svg>
