<?xml version="1.0" encoding="utf-8"?>
<!-- Generator: Adobe Illustrator 28.1.0, SVG Export Plug-In . SVG Version: 6.00 Build 0)  -->
<!DOCTYPE svg PUBLIC "-//W3C//DTD SVG 1.1//EN" "http://www.w3.org/Graphics/SVG/1.1/DTD/svg11.dtd" [
	<!ENTITY ns_extend "http://ns.adobe.com/Extensibility/1.0/">
	<!ENTITY ns_ai "http://ns.adobe.com/AdobeIllustrator/10.0/">
	<!ENTITY ns_graphs "http://ns.adobe.com/Graphs/1.0/">
	<!ENTITY ns_vars "http://ns.adobe.com/Variables/1.0/">
	<!ENTITY ns_imrep "http://ns.adobe.com/ImageReplacement/1.0/">
	<!ENTITY ns_sfw "http://ns.adobe.com/SaveForWeb/1.0/">
	<!ENTITY ns_custom "http://ns.adobe.com/GenericCustomNamespace/1.0/">
	<!ENTITY ns_adobe_xpath "http://ns.adobe.com/XPath/1.0/">
]>
<svg version="1.1" id="Layer_1" xmlns:x="&ns_extend;" xmlns:i="&ns_ai;" xmlns:graph="&ns_graphs;"
	 xmlns="http://www.w3.org/2000/svg" xmlns:xlink="http://www.w3.org/1999/xlink" x="0px" y="0px" viewBox="0 0 252 294.8"
	 style="enable-background:new 0 0 252 294.8;" xml:space="preserve">
<style type="text/css">
	.st0{fill:#FFFFFF;}
</style>
<metadata>
	<sfw  xmlns="&ns_sfw;">
		<slices></slices>
		<sliceSourceBounds  bottomLeftOrigin="true" height="294.8" width="252" x="22" y="-316"></sliceSourceBounds>
	</sfw>
</metadata>
<g>
	<path class="st0" d="M252,294.8H25.8V21.6H201l-0.9,47L252,69V294.8z M39.4,281.1h199V82.5l-52.1-0.4l0.9-46.9H39.4V281.1z"/>
</g>
<g>
	
		<rect x="214.9" y="15.8" transform="matrix(0.6745 -0.7383 0.7383 0.6745 34.9573 180.0799)" class="st0" width="13.6" height="69.2"/>
</g>
<g>
	<polygon class="st0" points="32.6,273.2 0,273.2 0,0 180,0 221.4,41 211.9,50.7 174.4,13.6 13.6,13.6 13.6,259.5 32.6,259.5 	"/>
</g>
<g>
	<rect x="66.8" y="99.8" class="st0" width="145.4" height="13.6"/>
</g>
<g>
	<rect x="66.8" y="133.9" class="st0" width="145.4" height="13.6"/>
</g>
<g>
	<rect x="66.8" y="167.9" class="st0" width="145.4" height="13.6"/>
</g>
<g>
	<rect x="66.8" y="202" class="st0" width="145.4" height="13.6"/>
</g>
<g>
	<rect x="66.8" y="236" class="st0" width="145.4" height="13.6"/>
</g>
</svg>
