<?xml version="1.0" encoding="utf-8"?>
<!-- Generator: Adobe Illustrator 28.1.0, SVG Export Plug-In . SVG Version: 6.00 Build 0)  -->
<!DOCTYPE svg PUBLIC "-//W3C//DTD SVG 1.1//EN" "http://www.w3.org/Graphics/SVG/1.1/DTD/svg11.dtd" [
	<!ENTITY ns_extend "http://ns.adobe.com/Extensibility/1.0/">
	<!ENTITY ns_ai "http://ns.adobe.com/AdobeIllustrator/10.0/">
	<!ENTITY ns_graphs "http://ns.adobe.com/Graphs/1.0/">
	<!ENTITY ns_vars "http://ns.adobe.com/Variables/1.0/">
	<!ENTITY ns_imrep "http://ns.adobe.com/ImageReplacement/1.0/">
	<!ENTITY ns_sfw "http://ns.adobe.com/SaveForWeb/1.0/">
	<!ENTITY ns_custom "http://ns.adobe.com/GenericCustomNamespace/1.0/">
	<!ENTITY ns_adobe_xpath "http://ns.adobe.com/XPath/1.0/">
]>
<svg version="1.1" id="Layer_1" xmlns:x="&ns_extend;" xmlns:i="&ns_ai;" xmlns:graph="&ns_graphs;"
	 xmlns="http://www.w3.org/2000/svg" xmlns:xlink="http://www.w3.org/1999/xlink" x="0px" y="0px" viewBox="0 0 195.7 195.7"
	 style="enable-background:new 0 0 195.7 195.7;" xml:space="preserve">
<style type="text/css">
	.st0{fill:#FFFFFF;}
</style>
<metadata>
	<sfw  xmlns="&ns_sfw;">
		<slices></slices>
		<sliceSourceBounds  bottomLeftOrigin="true" height="195.7" width="195.7" x="0" y="-196.7"></sliceSourceBounds>
	</sfw>
</metadata>
<g>
	<path class="st0" d="M87.3,87.6c11.4,0,20.7-9.3,20.7-20.7c0-11.4-9.3-20.7-20.7-20.7c-11.4,0-20.7,9.2-20.7,20.7
		C66.7,78.4,75.9,87.6,87.3,87.6z"/>
	<path class="st0" d="M114.4,96.8L114.4,96.8l-17.2,0l-9.9,17.1l-9.9-17.1H60.2v0c-7.9,0-14.3,6.4-14.3,14.3v16.3
		c10.4,10,24.4,16.2,40,16.2c17,0,32.2-7.4,42.8-19.1v-13.4C128.7,103.2,122.3,96.8,114.4,96.8z"/>
	<path class="st0" d="M191.4,170.4l-34.7-34.7c-0.2-0.2-0.3-0.3-0.5-0.4c9.9-14,15.7-31,15.7-49.4C171.8,38.5,133.3,0,85.9,0
		C38.5,0,0,38.5,0,85.9c0,47.4,38.5,85.9,85.9,85.9c18.4,0,35.4-5.8,49.4-15.7c0.1,0.2,0.2,0.3,0.4,0.5l34.7,34.7
		c2.9,2.9,6.7,4.3,10.5,4.3c3.8,0,7.6-1.4,10.5-4.3C197.2,185.6,197.2,176.2,191.4,170.4z M19.8,85.9c0-36.5,29.7-66.1,66.1-66.1
		c36.5,0,66.1,29.7,66.1,66.1c0,36.5-29.7,66.1-66.1,66.1C49.5,152.1,19.8,122.4,19.8,85.9z"/>
</g>
</svg>
