<?xml version="1.0" encoding="utf-8"?>
<!-- Generator: Adobe Illustrator 27.2.0, SVG Export Plug-In . SVG Version: 6.00 Build 0)  -->
<svg version="1.1" id="Layer_1" xmlns="http://www.w3.org/2000/svg" xmlns:xlink="http://www.w3.org/1999/xlink" x="0px" y="0px"
	 viewBox="0 0 330.6 51.3" style="enable-background:new 0 0 330.6 51.3;" xml:space="preserve">
<style type="text/css">
	.st0{fill:#0396B5;}
	.st1{fill:#046378;}
	.st2{fill:none;stroke:#58595B;stroke-width:0.25;stroke-miterlimit:10;}
	.st3{fill:#58595B;}
</style>
<g>
	<path class="st0" d="M11.8,11.7L21.4,0h2v25.2h-2V2.9l-9.6,11.8L2.1,2.9v22.4h-2V0h2L11.8,11.7z"/>
	<path class="st0" d="M40.9,22.3v1.5c-1.5,1.2-2.6,1.7-3.4,1.7c-0.4,0-0.7-0.1-0.8-0.4c-0.2-0.3-0.3-0.8-0.3-1.7
		c-1.7,1.4-3.5,2.1-5.2,2.1c-1.3,0-2.3-0.4-3.2-1.2c-0.9-0.8-1.3-1.8-1.3-3c0-1.8,0.8-3.2,2.5-4.3c1.7-1,4.1-1.6,7.2-1.8v-2.1
		c0-2.3-1.2-3.4-3.7-3.4c-1.6,0-3.3,0.7-5.1,2.1v-1.8c1.9-1.2,3.7-1.8,5.4-1.8c1.5,0,2.7,0.4,3.7,1.1c1,0.7,1.5,1.8,1.5,3.2V23
		c0,0.6,0.1,0.8,0.4,0.8C38.8,23.8,39.6,23.3,40.9,22.3z M36.3,22v-5.2c-2.3-0.1-4.2,0.3-5.7,1.2c-1.5,0.9-2.2,2-2.2,3.4
		c0,0.8,0.3,1.4,0.9,2c0.6,0.5,1.4,0.8,2.3,0.8C33.2,24.1,34.8,23.4,36.3,22z"/>
	<path class="st0" d="M51.6,9.7v1.9c-1.7-1.1-3.2-1.7-4.6-1.7c-1,0-1.8,0.3-2.5,0.8c-0.7,0.5-1,1.2-1,2c0,0.6,0.2,1.1,0.6,1.6
		s1.6,1.1,3.5,1.8s3.1,1.5,3.7,2.3c0.6,0.8,0.9,1.7,0.9,2.6c0,1.3-0.5,2.4-1.6,3.3c-1,0.9-2.3,1.3-3.9,1.3c-1.7,0-3.3-0.5-5-1.5
		v-1.7c2,1,3.7,1.5,5.2,1.5c1,0,1.9-0.3,2.5-0.8c0.7-0.5,1-1.2,1-2.1c0-0.6-0.2-1.1-0.6-1.6c-0.4-0.5-1.6-1.1-3.5-1.9
		c-1.9-0.7-3.1-1.5-3.7-2.2c-0.6-0.7-0.8-1.5-0.8-2.4c0-1.3,0.5-2.3,1.6-3.2c1-0.9,2.3-1.3,3.8-1.3C48.5,8.3,50,8.8,51.6,9.7z"/>
	<path class="st0" d="M63.8,9.7v1.9c-1.7-1.1-3.2-1.7-4.6-1.7c-1,0-1.8,0.3-2.5,0.8c-0.7,0.5-1,1.2-1,2c0,0.6,0.2,1.1,0.6,1.6
		s1.6,1.1,3.5,1.8s3.1,1.5,3.7,2.3c0.6,0.8,0.9,1.7,0.9,2.6c0,1.3-0.5,2.4-1.6,3.3c-1,0.9-2.3,1.3-3.9,1.3c-1.7,0-3.3-0.5-5-1.5
		v-1.7c2,1,3.7,1.5,5.2,1.5c1,0,1.9-0.3,2.5-0.8c0.7-0.5,1-1.2,1-2.1c0-0.6-0.2-1.1-0.6-1.6c-0.4-0.5-1.6-1.1-3.5-1.9
		c-1.9-0.7-3.1-1.5-3.7-2.2c-0.6-0.7-0.8-1.5-0.8-2.4c0-1.3,0.5-2.3,1.6-3.2c1-0.9,2.3-1.3,3.8-1.3C60.7,8.3,62.2,8.8,63.8,9.7z"/>
	<path class="st0" d="M80.1,22.3v1.5c-1.5,1.2-2.6,1.7-3.4,1.7c-0.4,0-0.7-0.1-0.8-0.4c-0.2-0.3-0.3-0.8-0.3-1.7
		c-1.7,1.4-3.5,2.1-5.2,2.1c-1.3,0-2.3-0.4-3.2-1.2c-0.9-0.8-1.3-1.8-1.3-3c0-1.8,0.8-3.2,2.5-4.3c1.7-1,4.1-1.6,7.2-1.8v-2.1
		c0-2.3-1.2-3.4-3.7-3.4c-1.6,0-3.3,0.7-5.1,2.1v-1.8c1.9-1.2,3.7-1.8,5.4-1.8c1.5,0,2.7,0.4,3.7,1.1c1,0.7,1.5,1.8,1.5,3.2V23
		c0,0.6,0.1,0.8,0.4,0.8C78.1,23.8,78.8,23.3,80.1,22.3z M75.5,22v-5.2c-2.3-0.1-4.2,0.3-5.7,1.2c-1.5,0.9-2.2,2-2.2,3.4
		c0,0.8,0.3,1.4,0.9,2c0.6,0.5,1.4,0.8,2.3,0.8C72.4,24.1,74,23.4,75.5,22z"/>
	<path class="st0" d="M93.4,9.1v2c-1.6-0.7-3-1-4.3-1c-1.9,0-3.4,0.6-4.5,1.9c-1.2,1.3-1.7,3-1.7,5c0,2.1,0.6,3.8,1.7,5
		c1.2,1.2,2.7,1.9,4.7,1.9c1.4,0,2.9-0.3,4.5-1v1.8c-1.7,0.6-3.2,0.8-4.6,0.8c-2.4,0-4.4-0.8-5.9-2.3c-1.5-1.5-2.2-3.6-2.2-6.1
		c0-2.6,0.8-4.7,2.3-6.4c1.5-1.7,3.4-2.5,5.8-2.5C90.3,8.3,91.7,8.6,93.4,9.1z"/>
	<path class="st0" d="M97.9,0v11.5H98c1.4-2.1,3.2-3.2,5.5-3.2c1.9,0,3.4,0.6,4.5,1.8c1.1,1.2,1.7,2.9,1.7,5v10.2h-1.8v-9.5
		c0-3.8-1.5-5.7-4.5-5.7c-2.2,0-4,1.2-5.4,3.6v11.7h-1.8V0H97.9z"/>
	<path class="st0" d="M125.1,25.2v-2.7H125c-0.8,1.1-1.6,1.9-2.4,2.4c-0.8,0.5-1.8,0.7-3.1,0.7c-1.8,0-3.3-0.6-4.4-1.7
		c-1.2-1.2-1.8-2.8-1.8-4.9V8.6h1.8v10.3c0,1.5,0.4,2.8,1.3,3.6c0.8,0.9,1.9,1.3,3.3,1.3c1.2,0,2.1-0.3,3-0.8
		c0.8-0.5,1.6-1.4,2.4-2.7V8.6h1.8v16.6H125.1z"/>
	<path class="st0" d="M139.7,9.7v1.9c-1.7-1.1-3.2-1.7-4.6-1.7c-1,0-1.8,0.3-2.5,0.8c-0.7,0.5-1,1.2-1,2c0,0.6,0.2,1.1,0.6,1.6
		s1.6,1.1,3.5,1.8s3.1,1.5,3.7,2.3c0.6,0.8,0.9,1.7,0.9,2.6c0,1.3-0.5,2.4-1.6,3.3c-1,0.9-2.3,1.3-3.9,1.3c-1.7,0-3.3-0.5-5-1.5
		v-1.7c2,1,3.7,1.5,5.2,1.5c1,0,1.9-0.3,2.5-0.8c0.7-0.5,1-1.2,1-2.1c0-0.6-0.2-1.1-0.6-1.6c-0.4-0.5-1.6-1.1-3.5-1.9
		c-1.9-0.7-3.1-1.5-3.7-2.2c-0.6-0.7-0.8-1.5-0.8-2.4c0-1.3,0.5-2.3,1.6-3.2c1-0.9,2.3-1.3,3.8-1.3C136.7,8.3,138.1,8.8,139.7,9.7z"
		/>
	<path class="st0" d="M156.9,16.3h-13.1c0,0.3-0.1,0.6-0.1,0.9c0,1.9,0.7,3.4,2,4.7c1.3,1.3,2.9,1.9,4.7,1.9c2.1,0,4.2-0.8,6.2-2.5
		v2c-1.9,1.5-4,2.2-6.4,2.2c-2.4,0-4.4-0.8-5.9-2.5c-1.6-1.7-2.3-3.8-2.3-6.3c0-2.4,0.7-4.4,2.2-6c1.4-1.6,3.3-2.4,5.5-2.4
		c2.1,0,3.8,0.7,5.2,2.2C156.2,11.9,156.9,13.8,156.9,16.3z M144.1,14.9h10.8c-0.6-3.2-2.4-4.9-5.3-4.9c-1.4,0-2.5,0.4-3.5,1.3
		C145.1,12.1,144.4,13.3,144.1,14.9z"/>
	<path class="st0" d="M162.8,3.1v5.5h4.7v1.4h-4.7v9.9c0,1.6,0.1,2.6,0.4,3.1c0.3,0.5,1,0.8,2.1,0.8c0.9,0,1.9-0.3,3-0.8v1.7
		c-1.2,0.6-2.3,0.8-3.4,0.8c-1.1,0-2-0.3-2.7-0.9s-1.1-1.5-1.1-2.6v-12h-4.5V8.6h4.5v-4l1.2-1.6H162.8z"/>
	<path class="st0" d="M173.1,3.1v5.5h4.7v1.4h-4.7v9.9c0,1.6,0.1,2.6,0.4,3.1c0.3,0.5,1,0.8,2.1,0.8c0.9,0,1.9-0.3,3-0.8v1.7
		c-1.2,0.6-2.3,0.8-3.4,0.8c-1.1,0-2-0.3-2.7-0.9s-1.1-1.5-1.1-2.6v-12h-4.5V8.6h4.5v-4l1.2-1.6H173.1z"/>
	<path class="st0" d="M189.2,9.7v1.9c-1.7-1.1-3.2-1.7-4.6-1.7c-1,0-1.8,0.3-2.5,0.8c-0.7,0.5-1,1.2-1,2c0,0.6,0.2,1.1,0.6,1.6
		c0.4,0.5,1.6,1.1,3.5,1.8s3.1,1.5,3.7,2.3c0.6,0.8,0.9,1.7,0.9,2.6c0,1.3-0.5,2.4-1.6,3.3c-1,0.9-2.3,1.3-3.9,1.3
		c-1.7,0-3.3-0.5-5-1.5v-1.7c2,1,3.7,1.5,5.2,1.5c1,0,1.9-0.3,2.5-0.8c0.7-0.5,1-1.2,1-2.1c0-0.6-0.2-1.1-0.6-1.6
		c-0.4-0.5-1.6-1.1-3.5-1.9s-3.1-1.5-3.7-2.2c-0.6-0.7-0.8-1.5-0.8-2.4c0-1.3,0.5-2.3,1.6-3.2c1-0.9,2.3-1.3,3.8-1.3
		C186.1,8.3,187.6,8.8,189.2,9.7z"/>
	<path class="st1" d="M202.1,0h3.6v22H217v3.3h-15V0z"/>
	<path class="st1" d="M220.5,1.6c0.5,0,1,0.2,1.4,0.6c0.4,0.4,0.6,0.8,0.6,1.4c0,0.5-0.2,1-0.6,1.4c-0.4,0.4-0.8,0.6-1.4,0.6
		c-0.5,0-1-0.2-1.3-0.6c-0.4-0.4-0.6-0.8-0.6-1.4c0-0.5,0.2-1,0.6-1.3C219.6,1.8,220,1.6,220.5,1.6z M218.9,8.6h3.3v16.6h-3.3V8.6z"
		/>
	<path class="st1" d="M225.9,0h3.3v9.8c1.4-1,2.9-1.6,4.6-1.6c2.1,0,3.8,0.8,5.2,2.4c1.3,1.6,2,3.6,2,6.1c0,2.7-0.8,4.8-2.4,6.4
		c-1.6,1.6-3.7,2.4-6.4,2.4c-1.1,0-2.2-0.1-3.4-0.3c-1.2-0.2-2.1-0.5-2.8-0.9V0z M229.2,13v9c1.1,0.3,2.3,0.5,3.5,0.5
		c1.5,0,2.6-0.5,3.6-1.6c0.9-1,1.4-2.4,1.4-4c0-1.6-0.4-3-1.3-4c-0.9-1-2-1.6-3.4-1.6C231.7,11.3,230.4,11.9,229.2,13z"/>
	<path class="st1" d="M247.1,8.6v3.8l0.2-0.3c1.6-2.6,3.2-3.8,4.8-3.8c1.2,0,2.5,0.6,3.9,1.9l-1.7,2.9c-1.1-1.1-2.2-1.6-3.2-1.6
		c-1.1,0-2,0.5-2.8,1.5c-0.8,1-1.2,2.2-1.2,3.6v8.7h-3.3V8.6H247.1z"/>
	<path class="st1" d="M267.8,15.2v7.1c0,0.6,0.2,0.8,0.6,0.8c0.4,0,1-0.3,1.9-0.9v2c-0.7,0.5-1.3,0.8-1.8,1
		c-0.5,0.2-0.9,0.3-1.4,0.3c-1.4,0-2.2-0.6-2.5-1.7c-1.4,1.1-2.9,1.6-4.5,1.6c-1.2,0-2.1-0.4-2.9-1.1c-0.8-0.8-1.2-1.7-1.2-2.9
		c0-1,0.4-2,1.1-2.8c0.8-0.8,1.8-1.5,3.2-2l4.2-1.4v-0.9c0-2-1-3-3-3c-1.8,0-3.5,0.9-5.2,2.8v-3.6c1.3-1.5,3.1-2.3,5.5-2.3
		c1.8,0,3.2,0.5,4.3,1.4c0.4,0.3,0.7,0.7,1,1.2c0.3,0.5,0.5,1,0.6,1.5C267.7,12.9,267.8,13.9,267.8,15.2z M264.5,22V17l-2.2,0.8
		c-1.1,0.4-1.9,0.9-2.4,1.3c-0.5,0.5-0.7,1-0.7,1.7c0,0.7,0.2,1.2,0.7,1.7s1,0.7,1.7,0.7C262.7,23.2,263.6,22.8,264.5,22z"/>
	<path class="st1" d="M275.7,8.6v3.8l0.2-0.3c1.6-2.6,3.2-3.8,4.8-3.8c1.2,0,2.5,0.6,3.9,1.9l-1.7,2.9c-1.1-1.1-2.2-1.6-3.2-1.6
		c-1.1,0-2,0.5-2.8,1.5c-0.8,1-1.2,2.2-1.2,3.6v8.7h-3.3V8.6H275.7z"/>
	<path class="st1" d="M287.6,1.6c0.5,0,1,0.2,1.4,0.6c0.4,0.4,0.6,0.8,0.6,1.4c0,0.5-0.2,1-0.6,1.4c-0.4,0.4-0.8,0.6-1.4,0.6
		c-0.5,0-1-0.2-1.3-0.6c-0.4-0.4-0.6-0.8-0.6-1.4c0-0.5,0.2-1,0.6-1.3C286.7,1.8,287.1,1.6,287.6,1.6z M286,8.6h3.3v16.6H286V8.6z"
		/>
	<path class="st1" d="M307.3,17.2h-11.7c0.1,1.6,0.6,2.9,1.6,3.8s2.2,1.4,3.8,1.4c2.2,0,4.2-0.7,6-2v3.2c-1,0.7-2,1.2-3,1.4
		c-1,0.3-2.2,0.4-3.5,0.4c-1.8,0-3.3-0.4-4.4-1.1c-1.1-0.8-2-1.8-2.7-3.1c-0.7-1.3-1-2.8-1-4.5c0-2.5,0.7-4.6,2.2-6.2
		c1.4-1.6,3.3-2.4,5.6-2.4c2.2,0,4,0.8,5.3,2.3c1.3,1.5,2,3.6,2,6.2V17.2z M295.6,15.2h8.4c-0.1-1.3-0.5-2.3-1.2-3
		c-0.7-0.7-1.6-1.1-2.8-1.1s-2.1,0.4-2.9,1.1C296.4,12.9,295.9,13.9,295.6,15.2z"/>
	<path class="st1" d="M309.1,24v-3.5c0.9,0.7,1.9,1.2,2.8,1.6c1,0.4,1.8,0.6,2.4,0.6c0.7,0,1.3-0.2,1.8-0.5c0.5-0.3,0.7-0.7,0.7-1.2
		c0-0.5-0.2-0.9-0.5-1.2c-0.3-0.3-1-0.8-2.1-1.4c-2.1-1.2-3.5-2.2-4.2-3c-0.7-0.8-1-1.7-1-2.7c0-1.3,0.5-2.3,1.5-3.1
		c1-0.8,2.3-1.2,3.8-1.2c1.6,0,3.3,0.5,5,1.4v3.3c-2-1.2-3.5-1.8-4.8-1.8c-0.6,0-1.2,0.1-1.5,0.4c-0.4,0.3-0.6,0.6-0.6,1.1
		c0,0.4,0.2,0.8,0.5,1.1c0.4,0.4,1,0.8,1.9,1.3l1.2,0.7c2.8,1.6,4.2,3.3,4.2,5.2c0,1.4-0.5,2.5-1.6,3.4c-1.1,0.9-2.4,1.3-4.1,1.3
		c-1,0-1.9-0.1-2.6-0.3C311.2,25,310.2,24.6,309.1,24z"/>
</g>
<line class="st2" x1="0" y1="34.2" x2="320.3" y2="34.2"/>
<g>
	<path class="st3" d="M7.4,48.9c0,0.7-0.2,1.3-0.7,1.7s-1.1,0.6-2,0.6H0v-8.1h3.9c0.5,0,1,0,1.3,0.1s0.7,0.2,0.9,0.4
		s0.4,0.4,0.5,0.6s0.2,0.5,0.2,0.8c0,0.3-0.1,0.6-0.2,0.8s-0.3,0.5-0.4,0.6s-0.3,0.3-0.5,0.3c0.6,0.2,1,0.5,1.3,0.8
		S7.4,48.4,7.4,48.9z M4.6,45.4c0-0.4-0.1-0.7-0.4-0.8S3.5,44.4,3,44.4H2.5v1.9H3c0.6,0,1-0.1,1.2-0.2S4.6,45.8,4.6,45.4z M5,48.8
		c0-0.7-0.5-1-1.5-1h-1v2.1h1C4.5,49.8,5,49.5,5,48.8z"/>
	<path class="st3" d="M20.7,47.1c0,0.8-0.2,1.5-0.5,2.1s-0.9,1.1-1.6,1.5s-1.5,0.6-2.5,0.6c-1,0-1.9-0.2-2.5-0.6s-1.2-0.9-1.5-1.5
		s-0.5-1.3-0.5-2c0-0.7,0.2-1.4,0.5-2s0.9-1.1,1.5-1.5s1.5-0.6,2.6-0.6c0.8,0,1.4,0.1,2,0.3s1.1,0.5,1.5,0.9s0.7,0.8,0.9,1.3
		S20.7,46.6,20.7,47.1z M18.2,47.1c0-0.3,0-0.6-0.1-0.8s-0.2-0.5-0.4-0.7s-0.4-0.3-0.7-0.4s-0.6-0.2-0.9-0.2c-0.7,0-1.2,0.2-1.5,0.6
		S14,46.5,14,47.1s0.2,1.1,0.6,1.5s0.9,0.6,1.5,0.6c0.4,0,0.8-0.1,1.1-0.3s0.6-0.4,0.7-0.7S18.2,47.5,18.2,47.1z"/>
	<path class="st3" d="M33.7,51.2h-2.5l-0.7-1.6H27l-0.7,1.6h-2.5l3.6-8.1h2.7L33.7,51.2z M30,48.1l-1.2-3l-1.2,3H30z"/>
	<path class="st3" d="M45.7,51.2H43l-0.6-1.4c-0.2-0.5-0.4-0.9-0.6-1.2s-0.4-0.4-0.5-0.5S40.8,48,40.5,48h-0.3v3.2h-2.4v-8.1H42
		c0.7,0,1.2,0.1,1.7,0.4s0.7,0.6,0.9,1s0.3,0.8,0.3,1.1c0,0.4-0.1,0.8-0.2,1s-0.3,0.5-0.5,0.6s-0.4,0.3-0.6,0.4
		c0.3,0.2,0.5,0.3,0.6,0.5s0.4,0.6,0.7,1.3L45.7,51.2z M42.3,45.6c0-0.4-0.1-0.6-0.4-0.8s-0.6-0.2-1.2-0.2h-0.5v2h0.5
		c0.6,0,1-0.1,1.2-0.2S42.3,46,42.3,45.6z"/>
	<path class="st3" d="M58.2,47.3c0,0.8-0.2,1.5-0.5,2s-0.7,0.9-1.1,1.2c-0.6,0.5-1.4,0.7-2.4,0.7h-4.4v-8.1h3.4c0.5,0,0.9,0,1.3,0.1
		s0.7,0.1,1,0.2s0.5,0.2,0.7,0.3s0.4,0.2,0.5,0.4c0.3,0.2,0.5,0.5,0.7,0.8s0.4,0.7,0.5,1.1S58.2,46.8,58.2,47.3z M55.7,47.2
		c0-0.7-0.1-1.2-0.4-1.5s-0.6-0.6-0.9-0.7s-0.7-0.2-1.1-0.2h-1v4.8h1c0.6,0,1.2-0.2,1.7-0.5S55.7,48.1,55.7,47.2z"/>
	<path class="st3" d="M78,47.1c0,0.8-0.2,1.5-0.5,2.1s-0.9,1.1-1.6,1.5s-1.5,0.6-2.5,0.6c-1,0-1.9-0.2-2.5-0.6s-1.2-0.9-1.5-1.5
		s-0.5-1.3-0.5-2c0-0.7,0.2-1.4,0.5-2s0.9-1.1,1.5-1.5s1.5-0.6,2.6-0.6c0.8,0,1.4,0.1,2,0.3s1.1,0.5,1.5,0.9s0.7,0.8,0.9,1.3
		S78,46.6,78,47.1z M75.5,47.1c0-0.3,0-0.6-0.1-0.8s-0.2-0.5-0.4-0.7s-0.4-0.3-0.7-0.4s-0.6-0.2-0.9-0.2c-0.7,0-1.2,0.2-1.5,0.6
		s-0.6,0.9-0.6,1.5s0.2,1.1,0.6,1.5s0.9,0.6,1.5,0.6c0.4,0,0.8-0.1,1.1-0.3s0.6-0.4,0.7-0.7S75.5,47.5,75.5,47.1z"/>
	<path class="st3" d="M88.4,47.9H85v3.3h-2.4v-8.1h5.8v1.6H85v1.6h3.4V47.9z"/>
	<path class="st3" d="M105.8,51.2h-6.2v-8.1h2.4v6.2h3.7V51.2z"/>
	<path class="st3" d="M112.8,51.2h-2.4v-8.1h2.4V51.2z"/>
	<path class="st3" d="M125.3,48.9c0,0.7-0.2,1.3-0.7,1.7s-1.1,0.6-2,0.6h-4.7v-8.1h3.9c0.5,0,1,0,1.3,0.1s0.7,0.2,0.9,0.4
		s0.4,0.4,0.5,0.6s0.2,0.5,0.2,0.8c0,0.3-0.1,0.6-0.2,0.8s-0.3,0.5-0.4,0.6s-0.3,0.3-0.5,0.3c0.6,0.2,1,0.5,1.3,0.8
		S125.3,48.4,125.3,48.9z M122.4,45.4c0-0.4-0.1-0.7-0.4-0.8s-0.7-0.2-1.2-0.2h-0.5v1.9h0.5c0.6,0,1-0.1,1.2-0.2
		S122.4,45.8,122.4,45.4z M122.8,48.8c0-0.7-0.5-1-1.5-1h-1v2.1h1C122.3,49.8,122.8,49.5,122.8,48.8z"/>
	<path class="st3" d="M137.7,51.2h-2.6l-0.6-1.4c-0.2-0.5-0.4-0.9-0.6-1.2s-0.4-0.4-0.5-0.5s-0.4-0.1-0.7-0.1h-0.3v3.2h-2.4v-8.1
		h4.2c0.7,0,1.2,0.1,1.7,0.4s0.7,0.6,0.9,1s0.3,0.8,0.3,1.1c0,0.4-0.1,0.8-0.2,1s-0.3,0.5-0.5,0.6s-0.4,0.3-0.6,0.4
		c0.3,0.2,0.5,0.3,0.6,0.5s0.4,0.6,0.7,1.3L137.7,51.2z M134.4,45.6c0-0.4-0.1-0.6-0.4-0.8s-0.6-0.2-1.2-0.2h-0.5v2h0.5
		c0.6,0,1-0.1,1.2-0.2S134.4,46,134.4,45.6z"/>
	<path class="st3" d="M150.8,51.2h-2.5l-0.7-1.6h-3.5l-0.7,1.6h-2.5l3.6-8.1h2.7L150.8,51.2z M147.1,48.1l-1.2-3l-1.2,3H147.1z"/>
	<path class="st3" d="M162.8,51.2h-2.6l-0.6-1.4c-0.2-0.5-0.4-0.9-0.6-1.2s-0.4-0.4-0.5-0.5s-0.4-0.1-0.7-0.1h-0.3v3.2h-2.4v-8.1
		h4.2c0.7,0,1.2,0.1,1.7,0.4s0.7,0.6,0.9,1s0.3,0.8,0.3,1.1c0,0.4-0.1,0.8-0.2,1s-0.3,0.5-0.5,0.6s-0.4,0.3-0.6,0.4
		c0.3,0.2,0.5,0.3,0.6,0.5s0.4,0.6,0.7,1.3L162.8,51.2z M159.4,45.6c0-0.4-0.1-0.6-0.4-0.8s-0.6-0.2-1.2-0.2h-0.5v2h0.5
		c0.6,0,1-0.1,1.2-0.2S159.4,46,159.4,45.6z"/>
	<path class="st3" d="M174.5,43.1l-3.2,4.4v3.7h-2.4v-3.7l-3.2-4.4h2.5l1.9,2.6l1.9-2.6H174.5z"/>
	<path class="st3" d="M192.5,50.6c-0.3,0.2-0.7,0.3-1,0.4s-0.7,0.2-1.1,0.2s-0.7,0.1-1.1,0.1c-0.7,0-1.3-0.1-1.9-0.3s-1-0.5-1.5-0.9
		s-0.7-0.8-0.9-1.3s-0.3-1.1-0.3-1.7c0-0.7,0.1-1.3,0.4-1.8s0.6-1,1-1.3s0.9-0.6,1.5-0.8s1.1-0.2,1.8-0.2c0.9,0,2,0.2,3.1,0.6v2.2
		c-0.4-0.2-0.8-0.5-1.2-0.6s-0.9-0.2-1.4-0.2c-0.5,0-0.9,0.1-1.3,0.3s-0.7,0.5-1,0.8s-0.4,0.8-0.4,1.2c0,0.4,0.1,0.8,0.3,1.1
		s0.5,0.6,0.9,0.8s0.8,0.3,1.3,0.3c0.4,0,0.8,0,1.1-0.1s0.6-0.2,0.9-0.3s0.5-0.3,0.7-0.4V50.6z"/>
	<path class="st3" d="M205.7,47.1c0,0.8-0.2,1.5-0.5,2.1s-0.9,1.1-1.6,1.5s-1.5,0.6-2.5,0.6c-1,0-1.9-0.2-2.5-0.6s-1.2-0.9-1.5-1.5
		s-0.5-1.3-0.5-2c0-0.7,0.2-1.4,0.5-2s0.9-1.1,1.5-1.5s1.5-0.6,2.6-0.6c0.8,0,1.4,0.1,2,0.3s1.1,0.5,1.5,0.9s0.7,0.8,0.9,1.3
		S205.7,46.6,205.7,47.1z M203.2,47.1c0-0.3,0-0.6-0.1-0.8s-0.2-0.5-0.4-0.7s-0.4-0.3-0.7-0.4s-0.6-0.2-0.9-0.2
		c-0.7,0-1.2,0.2-1.5,0.6s-0.6,0.9-0.6,1.5s0.2,1.1,0.6,1.5s0.9,0.6,1.5,0.6c0.4,0,0.8-0.1,1.1-0.3s0.6-0.4,0.7-0.7
		S203.2,47.5,203.2,47.1z"/>
	<path class="st3" d="M219.7,51.2h-2.4v-4.7l-2.2,2.7h-0.2l-2.2-2.7v4.7h-2.4v-8.1h2.2l2.5,3l2.5-3h2.2V51.2z"/>
	<path class="st3" d="M234.2,51.2h-2.4v-4.7l-2.2,2.7h-0.2l-2.2-2.7v4.7h-2.4v-8.1h2.2l2.5,3l2.5-3h2.2V51.2z"/>
	<path class="st3" d="M241.8,51.2h-2.4v-8.1h2.4V51.2z"/>
	<path class="st3" d="M252.5,48.8c0,0.5-0.1,0.9-0.4,1.3s-0.6,0.7-1.1,0.9s-1,0.3-1.6,0.3c-0.2,0-0.4,0-0.6,0s-0.6-0.1-1-0.2
		s-0.8-0.2-1.3-0.4v-2c0.4,0.3,0.8,0.5,1.2,0.6s0.8,0.3,1.3,0.3c0.4,0,0.7-0.1,0.8-0.2s0.2-0.3,0.2-0.4c0-0.2-0.1-0.4-0.3-0.6
		s-0.5-0.3-0.9-0.5c-0.4-0.2-0.8-0.4-1.2-0.6s-0.6-0.5-0.8-0.8s-0.3-0.7-0.3-1.2c0-0.4,0.1-0.8,0.3-1.2s0.5-0.6,1-0.8s1-0.3,1.6-0.3
		c0.5,0,0.9,0,1.3,0.1s0.7,0.2,1,0.3s0.4,0.2,0.5,0.3v1.9c-0.3-0.2-0.7-0.5-1.1-0.6s-0.8-0.3-1.3-0.3c-0.3,0-0.5,0.1-0.7,0.2
		s-0.2,0.3-0.2,0.4c0,0.2,0.1,0.3,0.2,0.4s0.4,0.3,0.7,0.4c0.6,0.3,1.1,0.6,1.5,0.8s0.7,0.5,0.9,0.8S252.5,48.4,252.5,48.8z"/>
	<path class="st3" d="M262.9,48.8c0,0.5-0.1,0.9-0.4,1.3s-0.6,0.7-1.1,0.9s-1,0.3-1.6,0.3c-0.2,0-0.4,0-0.6,0s-0.6-0.1-1-0.2
		s-0.8-0.2-1.3-0.4v-2c0.4,0.3,0.8,0.5,1.2,0.6s0.8,0.3,1.3,0.3c0.4,0,0.7-0.1,0.8-0.2s0.2-0.3,0.2-0.4c0-0.2-0.1-0.4-0.3-0.6
		s-0.5-0.3-0.9-0.5c-0.4-0.2-0.8-0.4-1.2-0.6s-0.6-0.5-0.8-0.8s-0.3-0.7-0.3-1.2c0-0.4,0.1-0.8,0.3-1.2s0.5-0.6,1-0.8s1-0.3,1.6-0.3
		c0.5,0,0.9,0,1.3,0.1s0.7,0.2,1,0.3s0.4,0.2,0.5,0.3v1.9c-0.3-0.2-0.7-0.5-1.1-0.6s-0.8-0.3-1.3-0.3c-0.3,0-0.5,0.1-0.7,0.2
		s-0.2,0.3-0.2,0.4c0,0.2,0.1,0.3,0.2,0.4s0.4,0.3,0.7,0.4c0.6,0.3,1.1,0.6,1.5,0.8s0.7,0.5,0.9,0.8S262.9,48.4,262.9,48.8z"/>
	<path class="st3" d="M270.1,51.2h-2.4v-8.1h2.4V51.2z"/>
	<path class="st3" d="M283.9,47.1c0,0.8-0.2,1.5-0.5,2.1s-0.9,1.1-1.6,1.5s-1.5,0.6-2.5,0.6c-1,0-1.9-0.2-2.5-0.6s-1.2-0.9-1.5-1.5
		s-0.5-1.3-0.5-2c0-0.7,0.2-1.4,0.5-2s0.9-1.1,1.5-1.5s1.5-0.6,2.6-0.6c0.8,0,1.4,0.1,2,0.3s1.1,0.5,1.5,0.9s0.7,0.8,0.9,1.3
		S283.9,46.6,283.9,47.1z M281.4,47.1c0-0.3,0-0.6-0.1-0.8s-0.2-0.5-0.4-0.7s-0.4-0.3-0.7-0.4s-0.6-0.2-0.9-0.2
		c-0.7,0-1.2,0.2-1.5,0.6s-0.6,0.9-0.6,1.5s0.2,1.1,0.6,1.5s0.9,0.6,1.5,0.6c0.4,0,0.8-0.1,1.1-0.3s0.6-0.4,0.7-0.7
		S281.4,47.5,281.4,47.1z"/>
	<path class="st3" d="M297.1,51.2h-2.2l-4.2-4.5v4.5h-2.4v-8.1h2.2l4.2,4.5v-4.5h2.4V51.2z"/>
	<path class="st3" d="M308.3,51.2h-6.1v-8.1h6v1.6h-3.6v1.5h3.4v1.6h-3.4v1.7h3.7V51.2z"/>
	<path class="st3" d="M320.8,51.2h-2.6l-0.6-1.4c-0.2-0.5-0.4-0.9-0.6-1.2s-0.4-0.4-0.5-0.5S316,48,315.7,48h-0.3v3.2h-2.4v-8.1h4.2
		c0.7,0,1.2,0.1,1.7,0.4s0.7,0.6,0.9,1s0.3,0.8,0.3,1.1c0,0.4-0.1,0.8-0.2,1s-0.3,0.5-0.5,0.6s-0.4,0.3-0.6,0.4
		c0.3,0.2,0.5,0.3,0.6,0.5s0.4,0.6,0.7,1.3L320.8,51.2z M317.5,45.6c0-0.4-0.1-0.6-0.4-0.8s-0.6-0.2-1.2-0.2h-0.5v2h0.5
		c0.6,0,1-0.1,1.2-0.2S317.5,46,317.5,45.6z"/>
	<path class="st3" d="M330.6,48.8c0,0.5-0.1,0.9-0.4,1.3s-0.6,0.7-1.1,0.9s-1,0.3-1.6,0.3c-0.2,0-0.4,0-0.6,0s-0.6-0.1-1-0.2
		s-0.8-0.2-1.3-0.4v-2c0.4,0.3,0.8,0.5,1.2,0.6s0.8,0.3,1.3,0.3c0.4,0,0.7-0.1,0.8-0.2s0.2-0.3,0.2-0.4c0-0.2-0.1-0.4-0.3-0.6
		s-0.5-0.3-0.9-0.5c-0.4-0.2-0.8-0.4-1.2-0.6s-0.6-0.5-0.8-0.8s-0.3-0.7-0.3-1.2c0-0.4,0.1-0.8,0.3-1.2s0.5-0.6,1-0.8s1-0.3,1.6-0.3
		c0.5,0,0.9,0,1.3,0.1s0.7,0.2,1,0.3s0.4,0.2,0.5,0.3v1.9c-0.3-0.2-0.7-0.5-1.1-0.6s-0.8-0.3-1.3-0.3c-0.3,0-0.5,0.1-0.7,0.2
		s-0.2,0.3-0.2,0.4c0,0.2,0.1,0.3,0.2,0.4s0.4,0.3,0.7,0.4c0.6,0.3,1.1,0.6,1.5,0.8s0.7,0.5,0.9,0.8S330.6,48.4,330.6,48.8z"/>
</g>
</svg>
