<svg xmlns="http://www.w3.org/2000/svg" width="506.22" height="509.624" viewBox="0 0 506.22 509.624"><path d="M337.958,53.019c104.2,19.35,187.011,104.125,203.535,208.462,1.42,8.965,2.582,17.97,3.867,26.957l.034,28.438c-1.322,9.51-2.492,19.043-3.976,28.528C526.079,443.473,449.343,526.746,352.8,550.039c-8.125,1.96-16.331,3.583-24.521,5.271a72.96,72.96,0,0,1-11.626,1.434l-21.261.907q-3.286.14-6.568,0c-6.312-.268-20.486-.99-36.026-2.568a252.3,252.3,0,0,1-122.35-53.773c-7.241-5.818-13.945-12.3-22.394-19.814,22.144-2.315,33.929-15.917,44.607-31.012,4.869-6.882,9.892-13.66,14.591-20.655,9.87-14.695,19.7-29.421,29.308-44.285,11.06-17.106,25.971-26.839,46.7-26.738,17.457.084,34.911.37,52.367.229,29.9-.244,59.882.573,89.7-1.243,31.327-1.908,52.737-21.129,59.375-51.4,2.222-10.13,2.35-20.886,2.167-31.334-.2-11.141-4.241-14.685-15.363-14.721-43.017-.138-86.038-.409-129.05.094-25.688.3-46.795,10.165-61.531,31.452-3.167,4.576-8.327,12.077-11.585,16.589-13.106,18.151-26,36.458-39.4,54.389-9.7,12.983-22.062,22.4-39.081,22.575-32.47.338-64.946.19-97.419.1-1.577,0-4.2-1-4.559-2.108-2.752-8.527-5.064-17.2-7.809-26.861,3.815,0,6.3.024,8.788,0,16.653-.185,33.309-.205,49.957-.619,20.594-.512,36.822-9.258,48.483-26.406,16.349-24.045,32.927-47.936,49.182-72.045,11.048-16.384,25.719-25.659,45.93-25.389,16.232.216,32.468.2,48.7.116,30.563-.158,61.191.712,91.669-1.008,27.549-1.555,48.338-15.134,58.325-42.17a89.667,89.667,0,0,0,5.09-39.174c-1.162-13.453-4.335-16.235-17.944-16.24-40.909-.016-81.818.055-122.727-.023-28.781-.055-51.658,10.387-68.129,35.017-15.338,22.939-32.01,44.993-48.286,67.3-11.611,15.912-27.064,23.565-47.188,23.23-33.933-.565-67.881-.1-101.824-.035l-1.925-2.493c1.8-6.651,3.882-13.241,5.3-19.972,1.043-4.957,3.149-6.693,8.493-6.672,17.064.068,34.157-.135,51.188-1.118,16.4-.946,29.968-8.177,39.764-21.628,11.165-15.331,22.32-30.675,33.127-46.258,7.938-11.446,16.782-21.616,30.26-26.672.174-.064.124-.726.278-1.813H101.909c1.64-2.055,2.432-3.223,3.394-4.228,31.256-32.654,68.311-55.995,111.729-68.814,9.26-2.734,18.71-4.825,28.14-6.982a151.834,151.834,0,0,1,20.17-3.265A265.132,265.132,0,0,1,324.438,50.4M184.049,485.781H190.2q88.518,0,177.036-.055a169.788,169.788,0,0,0,20.162-1.265c29.79-3.625,50.21-21.133,56.955-50.328,2.424-10.494,2.629-21.677,2.506-32.531-.124-10.887-4.118-14.555-14.8-14.6-43.413-.173-86.832-.4-130.241.143-28.472.353-50.538,12.845-65.031,37.873-3.374,5.827-7.056,11.49-10.829,17.07C214.617,458.861,203.435,475.822,184.049,485.781Z" transform="translate(-39.174 -48.098)" fill="#fff" opacity="0.193"/></svg>