<svg xmlns="http://www.w3.org/2000/svg" width="120" height="120" viewBox="0 0 120 120">
  <g>
    <path d="M56.64,88.13a4.38,4.38,0,0,1-6.19-6.19l2.08-2.08a4.38,4.38,0,0,1,6.19,6.19Z" fill="none" stroke="#136191" stroke-linejoin="round" stroke-width="2"/>
    <path d="M47.35,85a4.38,4.38,0,1,1-6.19-6.19l5.17-5.17a4.38,4.38,0,1,1,6.2,6.19Z" fill="none" stroke="#136191" stroke-linejoin="round" stroke-width="2"/>
    <path d="M41.16,78.84A4.38,4.38,0,0,1,35,72.65l5.17-5.17a4.38,4.38,0,0,1,6.19,6.19Z" fill="none" stroke="#136191" stroke-linejoin="round" stroke-width="2"/>
    <path d="M36.51,71.1a4.38,4.38,0,0,1-6.19-6.19L34,61.28a4.38,4.38,0,1,1,6.19,6.2Z" fill="none" stroke="#136191" stroke-linejoin="round" stroke-width="2"/>
    <path d="M64.64,77l8,8a4.38,4.38,0,0,0,6.19-6.19" fill="none" stroke="#136191" stroke-linecap="round" stroke-linejoin="round" stroke-width="2"/>
    <path d="M70.84,70.84l8,8A4.38,4.38,0,0,0,85,72.65L83.49,71.1" fill="none" stroke="#136191" stroke-linecap="round" stroke-linejoin="round" stroke-width="2"/>
    <path d="M59.71,84.48l3.65,3.65a4.38,4.38,0,0,0,6.19-6.19" fill="none" stroke="#136191" stroke-linecap="round" stroke-linejoin="round" stroke-width="2"/>
    <path d="M77,64.64l6.46,6.46a4.38,4.38,0,0,0,6.74-.67,4.49,4.49,0,0,0-.67-5.64" fill="none" stroke="#136191" stroke-linecap="round" stroke-linejoin="round" stroke-width="2"/>
    <polygon points="104.89 60 97.15 64.64 80.12 35.15 87.86 30.59 104.89 60" fill="none" stroke="#136191" stroke-linecap="round" stroke-linejoin="round" stroke-width="2"/>
    <polygon points="15.11 60 22.85 64.64 39.88 35.15 32.13 30.59 15.11 60" fill="none" stroke="#136191" stroke-linecap="round" stroke-linejoin="round" stroke-width="2"/>
    <path d="M80.87,36.45a24.57,24.57,0,0,1-3.84.33H60.75c-2.46,0-4.82,1-7.39,3.55l-2.84,2.83a4.64,4.64,0,0,0-1.36,3.28v12A1.55,1.55,0,0,0,50.71,60h1.55a6.19,6.19,0,0,0,6.19-6.19v-3.1h0a12,12,0,0,1,17,0L89.56,64.79l5.92-3" fill="none" stroke="#136191" stroke-linejoin="round" stroke-width="2"/>
    <line x1="24.52" y1="61.75" x2="30.44" y2="64.79" fill="none" stroke="#136191" stroke-linejoin="round" stroke-width="2"/>
    <path d="M59.23,36.92a8.71,8.71,0,0,0-1.53-.14H43a24.57,24.57,0,0,1-3.84-.33" fill="none" stroke="#136191" stroke-linejoin="round" stroke-width="2"/>
  </g>
</svg>
