<svg xmlns="http://www.w3.org/2000/svg" width="120" height="120" viewBox="0 0 120 120">
  <g>
    <path d="M46.2,78.6s6.34-.41,6.34-5.93-1.1-6.61-1.1-9.92,2.7-5.92,2.61-7.17a9.86,9.86,0,0,0-2.61-7s-4.36-3.15-4.09-.49c.29,3-.46,10.35-.46,10.35l-2.48,5.87a4.69,4.69,0,0,1-4.55,2.56c-6.33,2.52-9.37,3.49-9.37,3.49V90.45l9-3h8S59.68,83.56,59.9,73.77,60,36.1,60,36.1s-.86-3.55-4-3.55c-3.72,0-4.41,3.83-4.41,3.83l-.07,12.17" fill="none" stroke="#136191" stroke-linecap="round" stroke-miterlimit="10" stroke-width="2"/>
    <path d="M73.8,84.75s-6.34-.42-6.34-5.93,1.1-6.62,1.1-9.93S65.86,63,66,61.73a9.85,9.85,0,0,1,2.61-7s4.36-3.15,4.09-.49c-.29,3,.46,10.35.46,10.35l2.48,5.87A4.71,4.71,0,0,0,80.14,73c6.33,2.52,9.37,3.49,9.37,3.49V96.6l-9-3h-8S60.32,89.71,60.1,79.92,60,42.24,60,42.24s.63-3.54,4-3.54a4.22,4.22,0,0,1,4.41,3.83l.07,12.17" fill="none" stroke="#136191" stroke-linecap="round" stroke-miterlimit="10" stroke-width="2"/>
    <line x1="41.53" y1="29.44" x2="46.85" y2="34.17" fill="none" stroke="#136191" stroke-linecap="round" stroke-miterlimit="10" stroke-width="2"/>
    <line x1="46.75" y1="26.19" x2="49.72" y2="29.97" fill="none" stroke="#136191" stroke-linecap="round" stroke-miterlimit="10" stroke-width="2"/>
    <line x1="74.47" y1="26.65" x2="69.15" y2="31.38" fill="none" stroke="#136191" stroke-linecap="round" stroke-miterlimit="10" stroke-width="2"/>
    <line x1="69.25" y1="23.4" x2="66.29" y2="27.18" fill="none" stroke="#136191" stroke-linecap="round" stroke-miterlimit="10" stroke-width="2"/>
  </g>
</svg>
