<svg xmlns="http://www.w3.org/2000/svg">
	<symbol id="icons-Accountability" viewBox="0 0 120 120">
		<path d="M60 95.08S31.5 84.21 31.5 60V33.69s12.76-8.77 28.5-8.77 28.5 8.77 28.5 8.77V60C88.5 84.21 60 95.08 60 95.08z" />
		<path d="M54.32 64.26l-8.51-8.52-5.68 5.68 14.19 14.19 25.55-25.54-5.68-5.68-19.87 19.87z" />
	</symbol>

	<symbol id="icons-Compassion" viewBox="0 0 120 120">
		<path d="M28.13 59.89l-1.76-13.41a3.16 3.16 0 0 0-3.12-2.74 3.15 3.15 0 0 0-3.15 3.15v22.69a5.92 5.92 0 0 0 1.5 3.92l10.32 11.63" />
		<path d="M55.57 94V82.43a13.23 13.23 0 0 0-10.52-13 27.34 27.34 0 0 0-2.82-.4 6 6 0 0 1-3.68-1.7l-6.42-6.43a3.86 3.86 0 0 0-5.1-.4 3.7 3.7 0 0 0-.28 5.5L37 76.26m54.87-16.37l1.76-13.41a3.15 3.15 0 0 1 3.12-2.74 3.15 3.15 0 0 1 3.15 3.15v22.69a5.92 5.92 0 0 1-1.5 3.92L88.08 85.13" />
		<path d="M64.43 94V82.43a13.21 13.21 0 0 1 10.45-13 23.75 23.75 0 0 1 2.9-.42 6 6 0 0 0 3.67-1.7c1.79-1.8 4.71-4.71 6.43-6.43a3.84 3.84 0 0 1 5.09-.4 3.7 3.7 0 0 1 .28 5.52L83 76.26m-1.89-25.63a15 15 0 0 0 0-20.4 13.23 13.23 0 0 0-19.38 0A14.18 14.18 0 0 0 60 32.46a14.18 14.18 0 0 0-1.73-2.23 13.23 13.23 0 0 0-19.38 0 15 15 0 0 0 0 20.4L60 70.35z" />
	</symbol>

	<symbol id="icons-Excellence" viewBox="0 0 120 120">
		<circle cx="60" cy="73.99" r="25.64" />
		<path d="M60 82.79l9.36 5.18L67.58 77l7.57-7.76-10.46-1.6L60 57.67l-4.69 9.97-10.46 1.6L52.42 77l-1.78 10.97L60 82.79zM46.47 52.23L28.08 20.38m21.53 0l10.39 18m31.92-18L73.53 52.23m-19.74-3.09l16.6-28.76" />
	</symbol>

	<symbol id="icons-Integrity" viewBox="0 0 120 120">
		<path d="M56.64 88.13a4.38 4.38 0 0 1-6.19-6.19l2.08-2.08a4.38 4.38 0 0 1 6.19 6.19zM47.35 85a4.38 4.38 0 1 1-6.19-6.19l5.17-5.17a4.38 4.38 0 1 1 6.2 6.19z" />
		<path d="M41.16 78.84A4.38 4.38 0 0 1 35 72.65l5.17-5.17a4.38 4.38 0 0 1 6.19 6.19z" />
		<path d="M36.51 71.1a4.38 4.38 0 0 1-6.19-6.19L34 61.28a4.38 4.38 0 1 1 6.19 6.2zM64.64 77l8 8a4.38 4.38 0 0 0 6.19-6.19" />
		<path d="M70.84 70.84l8 8A4.38 4.38 0 0 0 85 72.65l-1.51-1.55M59.71 84.48l3.65 3.65a4.38 4.38 0 0 0 6.19-6.19" />
		<path d="M77 64.64l6.46 6.46a4.38 4.38 0 0 0 6.74-.67 4.49 4.49 0 0 0-.67-5.64M104.89 60l-7.74 4.64-17.03-29.49 7.74-4.56L104.89 60zm-89.78 0l7.74 4.64 17.03-29.49-7.75-4.56L15.11 60zm65.76-23.55a24.57 24.57 0 0 1-3.84.33H60.75c-2.46 0-4.82 1-7.39 3.55l-2.84 2.83a4.64 4.64 0 0 0-1.36 3.28v12A1.55 1.55 0 0 0 50.71 60h1.55a6.19 6.19 0 0 0 6.19-6.19v-3.1a12 12 0 0 1 17 0l14.11 14.08 5.92-3m-70.96-.04l5.92 3.04" />
		<path d="M59.23 36.92a8.71 8.71 0 0 0-1.53-.14H43a24.57 24.57 0 0 1-3.84-.33" />
	</symbol>

	<symbol id="icons-Respect" viewBox="0 0 120 120">
		<path d="M46.2 78.6s6.34-.41 6.34-5.93-1.1-6.61-1.1-9.92 2.7-5.92 2.61-7.17a9.86 9.86 0 0 0-2.61-7s-4.36-3.15-4.09-.49c.29 3-.46 10.35-.46 10.35l-2.48 5.87a4.69 4.69 0 0 1-4.55 2.56c-6.33 2.52-9.37 3.49-9.37 3.49v20.09l9-3h8s12.19-3.89 12.41-13.68.1-37.67.1-37.67-.86-3.55-4-3.55c-3.72 0-4.41 3.83-4.41 3.83l-.07 12.17m22.28 36.2s-6.34-.42-6.34-5.93 1.1-6.62 1.1-9.93S65.86 63 66 61.73a9.85 9.85 0 0 1 2.61-7s4.36-3.15 4.09-.49c-.29 3 .46 10.35.46 10.35l2.48 5.87a4.71 4.71 0 0 0 4.5 2.54c6.33 2.52 9.37 3.49 9.37 3.49V96.6l-9-3h-8S60.32 89.71 60.1 79.92 60 42.24 60 42.24s.63-3.54 4-3.54a4.22 4.22 0 0 1 4.41 3.83l.07 12.17M41.53 29.44l5.32 4.73m-.1-7.98l2.97 3.78m24.75-3.32l-5.32 4.73m.1-7.98l-2.96 3.78" />
	</symbol>
</svg>