<?xml version="1.0" encoding="utf-8"?>
<!-- Generator: Adobe Illustrator 21.0.2, SVG Export Plug-In . SVG Version: 6.00 Build 0)  -->
<svg version="1.1" id="Layer_1" xmlns="http://www.w3.org/2000/svg" xmlns:xlink="http://www.w3.org/1999/xlink" x="0px" y="0px"
	 viewBox="0 0 148.3 36" style="enable-background:new 0 0 148.3 36;" xml:space="preserve">
<style type="text/css">
	.st0{fill:#010101;}
	.st1{fill:#026A99;}
	.st2{fill:#FFFFFF;}
</style>
<g>
	<g>
		<g>
			<g>
				<g>
					<polygon class="st0" points="0,5.3 5.6,5.3 5.6,25.6 15.8,25.6 15.8,30.7 0,30.7 					"/>
					<g>
						<path class="st0" d="M18.3,13.5h5.3v17.2h-5.3V13.5z M21,4.9c1.7,0,3.1,1.4,3.1,3.1s-1.4,3.1-3.1,3.1S17.9,9.7,17.9,8
							S19.3,4.9,21,4.9"/>
					</g>
					<polygon class="st0" points="45.9,5.3 51.3,5.3 51.3,20.5 57.3,13.5 63.9,13.5 56.9,21.4 63.7,30.7 57,30.7 51.3,22.2 
						51.3,22.2 51.3,30.7 45.9,30.7 					"/>
					<path class="st0" d="M26.6,13.5h5.1v2.3h0.1c0.7-1.4,2.5-2.8,5.1-2.8c5.4,0,6.4,3.6,6.4,8.2v9.4H38v-8.4c0-2,0-4.6-2.8-4.6
						S32,19.8,32,22v8.5h-5.3v-17H26.6z"/>
					<path class="st0" d="M75.1,20.1c0-1.8-1.4-3.3-3.3-3.3c-2.3,0-3.6,1.6-3.8,3.3H75.1z M79.6,27.7c-1.7,2.2-4.5,3.4-7.3,3.4
						c-5.3,0-9.6-3.6-9.6-9.1s4.3-9.1,9.6-9.1c5,0,8.1,3.6,8.1,9.1v1.7H68.1c0.4,2,2,3.3,4,3.3c1.7,0,2.9-0.9,3.8-2.1L79.6,27.7z"/>
					<path class="st0" d="M91.6,17.6c-2.7,0-4.3,1.8-4.3,4.4s1.6,4.4,4.3,4.4c2.7,0,4.3-1.8,4.3-4.4C95.8,19.4,94.2,17.6,91.6,17.6
						 M100.7,30.7h-4.9v-2.3h-0.1c-0.8,1.2-2.9,2.7-5.3,2.7c-5.1,0-8.5-3.7-8.5-8.9c0-4.8,3-9.2,7.9-9.2c2.2,0,4.3,0.6,5.5,2.3h0.1
						v-10h5.3V30.7z"/>
				</g>
				<path class="st1" d="M139.4,0h-30.7c-1.5,0-2.7,1.2-2.7,2.6v30.8c0,1.4,1.2,2.6,2.7,2.6h30.7c1.5,0,2.7-1.2,2.7-2.6V2.6
					C142.1,1.2,140.9,0,139.4,0z"/>
				<path class="st2" d="M111.4,13.5h5.3v17.2h-5.3V13.5z M114.1,5c1.7,0,3.1,1.4,3.1,3.1s-1.4,3.1-3.1,3.1S111,9.8,111,8.1
					C111,6.3,112.4,5,114.1,5"/>
				<path class="st2" d="M120.1,13.5h5.1v2.3h0.1c0.7-1.4,2.5-2.8,5.1-2.8c5.4,0,6.4,3.6,6.4,8.2v9.4h-5.3v-8.4c0-2,0-4.6-2.8-4.6
					s-3.2,2.2-3.2,4.4v8.5h-5.3L120.1,13.5L120.1,13.5z"/>
			</g>
		</g>
	</g>
	<g>
		<polygon class="st0" points="143.6,28.5 144.3,28.5 144.3,30.7 144.7,30.7 144.7,28.5 145.4,28.5 145.4,28.1 143.6,28.1 		"/>
		<polygon class="st0" points="147.8,28.1 147.1,30 146.3,28.1 145.8,28.1 145.8,30.7 146.2,30.7 146.2,28.8 146.9,30.7 147.2,30.7 
			148,28.8 148,30.7 148.3,30.7 148.3,28.1 		"/>
	</g>
</g>
</svg>
