<?xml version="1.0" encoding="utf-8"?>
<!-- Generator: Adobe Illustrator 25.2.3, SVG Export Plug-In . SVG Version: 6.00 Build 0)  -->
<svg version="1.1" id="Layer_1" xmlns="http://www.w3.org/2000/svg" xmlns:xlink="http://www.w3.org/1999/xlink" x="0px" y="0px"
	 viewBox="0 0 12 12" style="enable-background:new 0 0 12 12;" xml:space="preserve">
<style type="text/css">
	.st0{fill:#97999B;}
</style>
<g transform="translate(-757.000000, -272.000000)">
	<g transform="translate(0.000000, 87.000000)">
		<path class="st0" d="M759.7,188.9v8.1h-2.6v-8.1H759.7z M759.9,186.4c0,0.4-0.1,0.7-0.4,1s-0.6,0.4-1.1,0.4l0,0
			c-0.4,0-0.8-0.1-1-0.4c-0.2-0.3-0.4-0.6-0.4-1s0.1-0.7,0.4-1c0.3-0.3,0.6-0.4,1.1-0.4s0.8,0.1,1,0.4S759.9,186,759.9,186.4z
			 M763.7,190.1c0.1-0.2,0.2-0.3,0.3-0.4s0.3-0.3,0.4-0.4c0.1-0.1,0.4-0.3,0.7-0.4c0.3-0.1,0.6-0.1,0.9-0.1c0.9,0,1.6,0.3,2.1,0.9
			s0.8,1.5,0.8,2.7v4.6h-2.6v-4.3c0-0.6-0.1-1-0.3-1.3c-0.2-0.3-0.5-0.5-1-0.5c-0.3,0-0.6,0.1-0.8,0.3c-0.2,0.2-0.4,0.4-0.5,0.7
			c-0.1,0.2-0.1,0.4-0.1,0.7v4.5H761c0-2.2,0-3.9,0-5.3s0-2.2,0-2.4V189h2.6v1.1H763.7z"/>
	</g>
</g>
</svg>
