<?xml version="1.0" encoding="utf-8"?>
<!-- Generator: Adobe Illustrator 25.2.3, SVG Export Plug-In . SVG Version: 6.00 Build 0)  -->
<svg version="1.1" id="Layer_1" xmlns="http://www.w3.org/2000/svg" xmlns:xlink="http://www.w3.org/1999/xlink" x="0px" y="0px"
	 viewBox="0 0 15 12" style="enable-background:new 0 0 15 12;" xml:space="preserve">
<style type="text/css">
	.st0{fill-rule:evenodd;clip-rule:evenodd;fill:#97999B;}
</style>
<path class="st0" d="M15,1.4c-0.6,0.2-1.2,0.4-1.8,0.5c0.6-0.4,1.1-1,1.4-1.7C14,0.6,13.3,0.8,12.6,1c-0.6-0.6-1.4-1-2.2-1
	C8.7,0,7.3,1.4,7.3,3c0,0.2,0,0.5,0.1,0.7C4.9,3.6,2.6,2.5,1,0.6C0.8,1,0.6,1.5,0.6,2.1c0,1,0.5,2,1.4,2.5c-0.5,0-1-0.1-1.4-0.4v0
	c0,1.5,1.1,2.7,2.5,3C2.8,7.3,2.5,7.3,2.3,7.3c-0.2,0-0.4,0-0.6,0c0.4,1.2,1.5,2.1,2.9,2.1c-1.1,0.8-2.4,1.3-3.8,1.3
	c-0.3,0-0.5,0-0.7,0C1.4,11.5,3,12,4.7,12c5.7,0,8.7-4.6,8.7-8.6c0-0.1,0-0.3,0-0.4C14.1,2.6,14.6,2,15,1.4z"/>
</svg>
