<?xml version="1.0" encoding="utf-8"?>
<!-- Generator: Adobe Illustrator 22.1.0, SVG Export Plug-In . SVG Version: 6.00 Build 0)  -->
<svg version="1.1" id="Layer_1" xmlns="http://www.w3.org/2000/svg" xmlns:xlink="http://www.w3.org/1999/xlink" x="0px" y="0px"
	 viewBox="0 0 409.3 295.8" style="enable-background:new 0 0 409.3 295.8;" xml:space="preserve">
<style type="text/css">
	.st0{fill:#67CFE3;}
	.st1{fill:#72BF48;}
	.st2{fill:#008AAB;}
	.st3{fill:#0075C9;}
</style>
<title>Artboard 1</title>
<path class="st0" d="M365.7,32.4C353.8,10.6,335.2-2.5,324.2,3c-8.5,4.3-10,18.4-4.7,34.7c6.1,0.5,12.1,1.5,17.9,3.3
	c23.8,6.9,39.9,22,36.1,33.7C377.3,65,374.6,48.6,365.7,32.4z"/>
<path class="st1" d="M325.9,52.4c-2.6-4.7-4.8-9.7-6.4-14.8c-16.3-1.1-29.4,3.2-32.2,11.9c-3.9,11.7,12.3,26.8,36.2,33.7
	c18.9,5.5,36.9,4.2,45.5-2.4c-0.5,0.3-0.9,0.6-1.4,0.9C356.4,87.3,337.8,74.2,325.9,52.4z"/>
<path class="st2" d="M337.4,40.9c-5.8-1.7-11.9-2.8-17.9-3.3c1.7,5.1,3.8,10.1,6.4,14.8c12,21.8,30.6,34.9,41.6,29.4
	c0.5-0.3,1-0.5,1.4-0.9c0.8-0.6,1.6-1.3,2.3-2.1c1-1.3,1.8-2.7,2.4-4.2C377.3,62.9,361.2,47.8,337.4,40.9z"/>
<path class="st3" d="M5.2,257.9h19.2v3.2H8.9v9.5h15.3v3.2H8.9v13.4H5.2V257.9z"/>
<path class="st3" d="M43.8,284c-1.7,2.3-4.3,3.7-7.2,3.7c-5.5,0-9.5-4.2-9.5-11.1s3.9-11.2,9.5-11.2c2.9,0,5.5,1.4,7.2,3.7V266h3.3
	v21.2h-3.3V284z M43.8,271.8c-1.5-2.1-3.8-3.4-6.4-3.4c-4.3,0-6.8,3.5-6.8,8.2s2.5,8.2,6.8,8.2c2.5,0,4.9-1.3,6.4-3.3V271.8z"/>
<path class="st3" d="M78.5,272.8c0-2.7-1.2-4.4-3.9-4.4c-2.3,0.2-4.4,1.4-5.6,3.2v15.6h-3.3v-14.4c0-2.7-1.1-4.4-3.9-4.4
	c-2.3,0.2-4.3,1.4-5.6,3.3v15.5h-3.3V266h3.3v3c1.7-2.1,4.2-3.5,6.9-3.6c3.3,0,5.1,1.8,5.7,4c1.6-2.4,4.2-3.9,7.1-4
	c3.9,0,5.9,2.1,5.9,6.4v15.4h-3.3L78.5,272.8z"/>
<path class="st3" d="M86.9,260.3c-0.1-1.2,0.8-2.3,2.1-2.4c1.2-0.1,2.3,0.8,2.4,2.1c0,0.1,0,0.2,0,0.3c-0.1,1.2-1.1,2.2-2.4,2.1
	C87.9,262.3,87,261.4,86.9,260.3z M87.5,266h3.3v21.2h-3.3V266z"/>
<path class="st3" d="M96.5,282.8v-24.9h3.3v24.2c0,1.6,0.7,2.7,2.2,2.7c0.8,0,1.6-0.3,2.2-0.9l1,2.5c-1.1,1-2.5,1.5-3.9,1.4
	C98.1,287.7,96.5,285.9,96.5,282.8z"/>
<path class="st3" d="M108.9,290.2c1.6,1.9,4,3,6.5,2.9c4,0,6.4-2.3,6.4-6.5v-2.9c-1.9,2.2-4.7,3.5-7.6,3.5c-4.4,0-6.8-2.2-6.8-6.8
	V266h3.3v13.5c0,3.8,1.9,4.9,4.8,4.9c2.5-0.1,4.8-1.2,6.3-3.2V266h3.3v20.7c0,6.3-4.5,9.2-9.7,9.2c-3,0.2-6-1-8.1-3.2L108.9,290.2z"
	/>
<path class="st3" d="M140,276.6c0-6.2,4.1-11.1,10.5-11.1s10.5,5,10.5,11.1s-4,11.2-10.5,11.2S140,282.7,140,276.6z M157.6,276.6
	c0-4.3-2.5-8.2-7-8.2s-7.1,3.9-7.1,8.2s2.6,8.2,7.1,8.2S157.6,280.9,157.6,276.6L157.6,276.6z"/>
<path class="st3" d="M166.5,268.9H163V266h3.5v-1.6c0-4.4,2.5-6.9,6.2-6.9c1.1-0.1,2.2,0.2,3.2,0.8l-0.8,2.5
	c-0.6-0.3-1.2-0.5-1.9-0.5c-2.2,0-3.4,1.5-3.4,4.2v1.6h4.3v2.9h-4.3v18.4h-3.3L166.5,268.9z"/>
<path class="st3" d="M186.5,272.6c0-9,6.6-15.2,15-15.2c4.5-0.1,8.7,2.1,11.3,5.8l-3.1,1.7c-1.9-2.7-4.9-4.3-8.2-4.3
	c-6.3,0-11.2,4.9-11.2,11.9s4.9,11.9,11.2,11.9c3.3,0,6.3-1.6,8.2-4.3l3.1,1.7c-2.5,3.7-6.8,5.9-11.3,5.8
	C193.2,287.7,186.5,281.6,186.5,272.6z"/>
<path class="st3" d="M215.2,276.6c0-6.2,4.1-11.1,10.5-11.1s10.5,5,10.5,11.1s-4,11.2-10.5,11.2S215.2,282.7,215.2,276.6z
	 M232.8,276.6c0-4.3-2.5-8.2-7-8.2s-7.1,3.9-7.1,8.2s2.6,8.2,7.1,8.2S232.8,280.9,232.8,276.6z"/>
<path class="st3" d="M265.6,272.8c0-2.7-1.2-4.4-3.9-4.4c-2.3,0.2-4.4,1.4-5.6,3.2v15.6h-3.3v-14.4c0-2.7-1.1-4.4-3.9-4.4
	c-2.3,0.2-4.3,1.4-5.6,3.3v15.5H240V266h3.3v3c1.6-2.2,4.2-3.5,6.9-3.6c3.2,0,5.1,1.8,5.7,4c1.6-2.4,4.2-3.9,7.1-4
	c3.9,0,5.9,2.1,5.9,6.4v15.4h-3.3L265.6,272.8z"/>
<path class="st3" d="M274.6,295.3V266h3.3v3.2c1.7-2.3,4.3-3.7,7.2-3.7c5.6,0,9.5,4.2,9.5,11.1s-3.9,11.2-9.5,11.2
	c-2.9,0-5.5-1.4-7.2-3.7v11.3L274.6,295.3z M284.3,268.4c-2.5,0-4.9,1.3-6.3,3.4v9.6c1.4,2.1,3.8,3.4,6.3,3.4c4.3,0,6.8-3.5,6.8-8.2
	S288.5,268.4,284.3,268.4z"/>
<path class="st3" d="M314.4,284c-1.7,2.3-4.3,3.7-7.2,3.7c-5.5,0-9.5-4.2-9.5-11.1s3.9-11.2,9.5-11.2c2.9,0,5.5,1.4,7.2,3.7V266h3.3
	v21.2h-3.3V284z M314.4,271.8c-1.5-2.1-3.8-3.4-6.4-3.4c-4.3,0-6.8,3.5-6.8,8.2s2.5,8.2,6.8,8.2c2.5,0,4.9-1.3,6.4-3.3V271.8z"/>
<path class="st3" d="M337.8,273.3c0-3.7-1.9-4.9-4.8-4.9c-2.5,0.1-4.8,1.3-6.3,3.3v15.5h-3.3V266h3.3v3c1.9-2.2,4.7-3.5,7.6-3.6
	c4.4,0,6.8,2.2,6.8,6.9v14.9h-3.3V273.3z"/>
<path class="st3" d="M346.2,260.3c-0.1-1.2,0.8-2.3,2.1-2.4c1.2-0.1,2.3,0.8,2.4,2.1c0,0.1,0,0.2,0,0.3c-0.1,1.2-1.1,2.2-2.4,2.1
	C347.2,262.3,346.3,261.4,346.2,260.3z M346.8,266h3.3v21.2h-3.3V266z"/>
<path class="st3" d="M365.5,265.4c6.4,0,10.2,5,10.2,11.4v0.8h-17.2c0.1,4.1,3.5,7.4,7.6,7.4c0,0,0,0,0,0c2.5,0,4.8-1,6.6-2.7
	l1.6,2.1c-2.3,2.2-5.3,3.4-8.5,3.3c-6.3,0-10.8-4.5-10.8-11.2C355,270.4,359.4,265.4,365.5,265.4z M358.5,275.2h14
	c0-3.2-2.2-7.1-7-7.1C360.9,268.2,358.7,272,358.5,275.2L358.5,275.2z"/>
<path class="st3" d="M380,282c1.8,1.9,4.4,3,7,3c3.3,0,5-1.5,5-3.5c0-2.3-2.6-3.1-5.5-3.8c-3.6-0.8-7.7-1.8-7.7-6.2
	c0-3.3,2.9-6.1,7.9-6.1c2.9-0.1,5.8,1,7.9,3.1l-1.5,2.3c-1.6-1.8-3.9-2.8-6.3-2.7c-2.9,0-4.7,1.3-4.7,3.2c0,2.1,2.4,2.7,5.2,3.4
	c3.7,0.8,8,1.9,8,6.6c0,3.6-2.9,6.4-8.4,6.4c-3.2,0.2-6.3-1.1-8.6-3.4L380,282z"/>
<path class="st3" d="M43.2,164.1v-7.5c-1.9,2.6-4.4,4.8-7.2,6.3c-3,1.6-6.3,2.5-9.7,2.4c-3.1,0-6.2-0.6-9-1.8
	c-2.7-1.2-5.1-3-7.1-5.2c-2.1-2.4-3.6-5.2-4.6-8.3c-2.2-7.2-2.2-14.8,0-22c1-3.1,2.6-5.9,4.6-8.3c1.9-2.3,4.4-4.1,7.1-5.3
	c2.8-1.3,5.9-1.9,9-1.9c3.3,0,6.6,0.8,9.5,2.3c3,1.6,5.5,3.8,7.5,6.5v-7.6H51v50.3L43.2,164.1z M28.2,158.4c3.1,0,6.1-0.8,8.8-2.4
	c2.5-1.3,4.6-3.3,6.2-5.7v-22.7c-1.6-2.4-3.7-4.4-6.2-5.7c-2.7-1.6-5.7-2.4-8.8-2.4c-2.4,0-4.7,0.5-6.9,1.5c-2,1-3.7,2.3-5.1,4.1
	c-1.4,1.8-2.5,4-3.2,6.2c-0.7,2.5-1.1,5.1-1.1,7.7c0,2.6,0.3,5.2,1.1,7.7c0.7,2.2,1.7,4.3,3.2,6.1c1.4,1.7,3.1,3.1,5.1,4.1
	C23.4,157.9,25.8,158.4,28.2,158.4z"/>
<path class="st3" d="M80.1,164.1l-21-50.3h8.5l16.7,41.3l16.8-41.3h8.4l-20.9,50.3H80.1z"/>
<path class="st3" d="M140.5,165.4c-3.5,0-7.1-0.6-10.4-1.9c-3.1-1.2-5.8-3.1-8.1-5.4c-2.3-2.4-4.1-5.2-5.3-8.3
	c-1.3-3.4-2-7.1-1.9-10.8c0-3.5,0.6-7,1.9-10.3c1.2-3.1,2.9-5.9,5.2-8.4c2.2-2.4,4.9-4.3,7.8-5.6c3.1-1.4,6.6-2.1,10-2.1
	c3.5-0.1,7,0.6,10.2,2.1c2.9,1.3,5.5,3.3,7.6,5.7c2.1,2.5,3.7,5.4,4.7,8.6c1.1,3.4,1.6,7,1.6,10.6v2h-40.7c0.1,2.3,0.7,4.6,1.6,6.7
	c0.9,2.1,2.1,3.9,3.7,5.5c1.6,1.6,3.5,2.9,5.5,3.8c2.3,1,4.8,1.4,7.3,1.4c2.9,0,5.8-0.6,8.5-1.7c2.7-1.1,5.1-2.7,7.1-4.8l3.8,5.1
	c-2.5,2.5-5.6,4.5-8.9,5.8C148.1,164.7,144.3,165.4,140.5,165.4z M156,135.7c0-2-0.4-3.9-1-5.7c-0.7-2-1.7-3.8-3-5.4
	c-1.4-1.7-3.2-3-5.1-4c-2.3-1.1-4.8-1.6-7.4-1.6c-2.4-0.1-4.9,0.5-7.1,1.5c-1.9,0.9-3.7,2.3-5.1,3.9c-2.6,3.2-4.1,7.1-4.3,11.2
	L156,135.7z"/>
<path class="st3" d="M212.8,164.1v-7.5c-1.9,2.6-4.4,4.8-7.2,6.3c-3,1.6-6.3,2.5-9.7,2.4c-3.1,0-6.2-0.6-9-1.8
	c-2.7-1.2-5.1-3-7.1-5.2c-2.1-2.4-3.7-5.2-4.6-8.3c-2.2-7.2-2.2-14.8,0-22c1-3.1,2.6-5.9,4.6-8.3c1.9-2.3,4.4-4.1,7.1-5.3
	c2.8-1.3,5.9-1.9,9-1.9c3.3,0,6.6,0.8,9.5,2.3c3,1.6,5.5,3.8,7.4,6.5v-7.6h7.8v50.3L212.8,164.1z M197.8,158.4
	c3.1,0,6.1-0.8,8.8-2.4c2.5-1.3,4.6-3.3,6.2-5.7v-22.7c-1.6-2.4-3.7-4.4-6.2-5.7c-2.7-1.6-5.7-2.4-8.8-2.4c-2.4,0-4.7,0.5-6.9,1.5
	c-2,0.9-3.7,2.3-5.1,4.1c-1.4,1.8-2.5,3.9-3.2,6.2c-0.7,2.5-1.1,5.1-1.1,7.8c0,2.6,0.3,5.2,1.1,7.7c0.7,2.2,1.7,4.3,3.2,6.1
	c1.4,1.7,3.1,3.1,5.1,4.1C193.1,157.9,195.4,158.4,197.8,158.4L197.8,158.4z"/>
<path class="st3" d="M270.3,164.1v-32.9c0-4.4-1-7.5-3.1-9.2c-2.4-1.8-5.3-2.6-8.2-2.5c-3.1,0-6,0.8-8.6,2.4
	c-2.4,1.4-4.6,3.2-6.3,5.4v36.8h-7.8v-50.3h7.8v7.3c1-1.1,2.1-2.2,3.2-3.1c1.3-1.1,2.7-2,4.2-2.8c1.6-0.8,3.3-1.5,5.1-1.9
	c1.8-0.5,3.6-0.7,5.5-0.7c5.2,0,9.2,1.3,11.9,4c2.7,2.7,4.1,6.8,4.1,12.3v35.3L270.3,164.1z"/>
<path class="st3" d="M327.8,164.1v-32.9c0-4.4-1-7.5-3.1-9.2c-2.4-1.8-5.3-2.6-8.2-2.5c-3.1,0-6,0.8-8.6,2.4
	c-2.4,1.4-4.5,3.2-6.2,5.4v36.8h-7.8v-50.3h7.8v7.3c1-1.1,2.1-2.2,3.2-3.1c1.3-1.1,2.7-2,4.2-2.8c2.1-1.1,4.4-1.9,6.7-2.3
	c0.8-0.2,1.6-0.3,2.4-0.3c6-0.3,10.4,1.1,13.4,4c2.7,2.7,4.1,6.7,4.1,12.2V164L327.8,164.1z"/>
<path class="st3" d="M387.7,164v-7.5c-1.9,2.6-4.4,4.8-7.2,6.3c-3,1.6-6.3,2.5-9.7,2.4c-3.1,0-6.2-0.6-9-1.8c-2.7-1.2-5.1-3-7.1-5.2
	c-2.1-2.4-3.6-5.2-4.6-8.2c-2.2-7.2-2.2-14.8,0-22c1-3.1,2.6-5.9,4.6-8.3c1.9-2.3,4.4-4.1,7.1-5.3c2.8-1.3,5.9-1.9,9-1.9
	c3.3,0,6.6,0.8,9.5,2.3c2.9,1.6,5.5,3.8,7.5,6.5v-7.6h7.8v50.3L387.7,164z M372.7,158.3c3.1,0,6.1-0.8,8.8-2.3
	c2.5-1.3,4.6-3.3,6.2-5.7v-22.7c-1.6-2.4-3.7-4.4-6.2-5.7c-2.7-1.6-5.7-2.4-8.8-2.4c-2.4,0-4.7,0.5-6.9,1.5c-2,1-3.7,2.3-5.1,4.1
	c-1.4,1.8-2.5,3.9-3.2,6.2c-0.7,2.5-1.1,5.1-1.1,7.8c0,2.6,0.3,5.2,1.1,7.7c0.7,2.2,1.7,4.3,3.2,6.1c1.4,1.7,3.1,3.1,5.1,4.1
	C368,157.8,370.3,158.3,372.7,158.3L372.7,158.3z"/>
<path class="st3" d="M157.9,218.4v-17.7c0-4.8-2.4-6.1-6.1-6.1c-3.1,0.1-6,1.7-7.9,4.2v19.6h-4.2v-37.1h4.2v14.1
	c2.4-2.8,5.9-4.5,9.6-4.6c5.6,0,8.6,2.7,8.6,8.6v19L157.9,218.4z"/>
<path class="st3" d="M167.8,204.9c0-7.8,5.6-14.1,13.2-14.1c8.1,0,12.9,6.3,12.9,14.4v1.1h-21.7c0.3,5,3.8,9.3,9.6,9.3
	c3.1,0,6.1-1.2,8.3-3.4l2,2.7c-2.9,2.8-6.7,4.3-10.7,4.2C173.6,219,167.8,213.3,167.8,204.9z M181,194.3c-5.7,0-8.6,4.8-8.8,8.9
	h17.6C189.8,199.2,187.1,194.3,181,194.3z"/>
<path class="st3" d="M220.1,218.3v-4c-2.1,2.9-5.5,4.6-9.1,4.7c-7,0-11.9-5.3-11.9-14.1s4.9-14.1,11.9-14.1c3.6,0,7,1.8,9.1,4.7
	v-4.1h4.2v26.8H220.1z M220.1,211v-12.1c-1.8-2.6-4.8-4.3-8-4.3c-5.4,0-8.7,4.4-8.7,10.4s3.2,10.3,8.7,10.3
	C215.3,215.2,218.3,213.6,220.1,211L220.1,211z"/>
<path class="st3" d="M232.9,212.7l-0.3-31.4h4.2v30.6c0,2,0.9,3.4,2.7,3.4c1.1,0,2.2-0.4,3.1-1.2l1.3,3.2c-1.4,1.1-3.2,1.7-5,1.7
	C234.9,219,232.9,216.7,232.9,212.7z"/>
<path class="st3" d="M248.7,212.7v-17.6h-4.4v-3.7h4.4v-7.3h4.2v7.3h5.5v3.7h-5.5v16.7c0,2,0.9,3.4,2.7,3.4c1.1,0,2.1-0.4,2.8-1.2
	l1.2,3.2c-1.4,1.2-3.1,1.8-4.9,1.7C250.7,219,248.7,216.7,248.7,212.7z"/>
<path class="st3" d="M282.6,218.3v-17.7c0-4.8-2.4-6.1-6.1-6.1c-3.1,0.1-6,1.7-7.9,4.2v19.6h-4.2v-37.1h4.2v14.1
	c2.4-2.8,5.9-4.5,9.6-4.6c5.6,0,8.6,2.7,8.6,8.6v18.9L282.6,218.3z"/>
<path class="st3" d="M293.2,204.9c0-8,5.4-14.1,13.4-14.1c3.9-0.2,7.5,1.5,9.8,4.7l-2.8,2.5c-1.5-2.2-4.1-3.5-6.8-3.4
	c-5.7,0-9.3,4.4-9.3,10.3s3.6,10.4,9.3,10.4c2.7,0.1,5.3-1.3,6.8-3.5l2.8,2.6c-2.3,3.1-6,4.9-9.8,4.7
	C298.5,219,293.2,212.8,293.2,204.9z"/>
<path class="st3" d="M341.7,218.3v-4c-2.1,2.9-5.5,4.6-9.1,4.7c-7,0-12-5.3-12-14.1s4.9-14.1,11.9-14.1c3.6,0,7,1.8,9.1,4.7v-4.1
	h4.2v26.8H341.7z M341.7,211v-12.1c-1.8-2.6-4.8-4.3-8-4.3c-5.5,0-8.7,4.4-8.7,10.4s3.2,10.3,8.7,10.3
	C336.9,215.2,339.9,213.6,341.7,211L341.7,211z"/>
<path class="st3" d="M353.9,218.3v-26.8h4.2v4.3c2.2-2.8,5.3-4.9,9-4.9v4.3c-0.5-0.1-1.1-0.1-1.6-0.1c-3,0.2-5.7,1.8-7.3,4.3v19
	L353.9,218.3z"/>
<path class="st3" d="M368.6,204.9c0-7.8,5.5-14.1,13.2-14.1c8.1,0,12.9,6.3,12.9,14.4v1.1h-21.7c0.3,5.1,3.8,9.3,9.6,9.3
	c3.1,0,6.1-1.2,8.3-3.4l2,2.7c-2.8,2.8-6.7,4.3-10.7,4.2C374.4,219,368.6,213.2,368.6,204.9z M381.8,194.2c-5.7,0-8.6,4.8-8.8,8.9
	h17.6C390.6,199.2,387.9,194.2,381.8,194.2L381.8,194.2z"/>
<path class="st3" d="M397.6,195.8c0-2.6,2.1-4.7,4.7-4.7c2.6,0,4.7,2.1,4.7,4.7c0,2.6-2.1,4.7-4.7,4.7c0,0,0,0,0,0
	C399.7,200.4,397.6,198.4,397.6,195.8C397.6,195.8,397.6,195.8,397.6,195.8z M398.3,195.8c0,2.2,1.7,3.9,3.9,3.9s3.9-1.7,3.9-3.9
	c0-2.2-1.7-3.9-3.9-3.9l0,0C400.1,191.9,398.3,193.6,398.3,195.8z M402.1,196.3h-0.9v2.1h-0.8v-5.3h2.2c0.9-0.1,1.7,0.6,1.8,1.5
	c0,0.1,0,0.1,0,0.2c0,0.8-0.6,1.5-1.4,1.6l1.4,2.1h-1L402.1,196.3z M401.2,193.8v1.9h1.4c0.5,0.1,1-0.3,1-0.8c0.1-0.5-0.3-1-0.8-1
	c-0.1,0-0.1,0-0.2,0H401.2z"/>
</svg>
