<?xml version="1.0" encoding="utf-8"?>
<!-- Generator: Adobe Illustrator 22.1.0, SVG Export Plug-In . SVG Version: 6.00 Build 0)  -->
<svg version="1.1" id="Layer_1" xmlns="http://www.w3.org/2000/svg" xmlns:xlink="http://www.w3.org/1999/xlink" x="0px" y="0px"
	 viewBox="0 0 343.2 323.3" style="enable-background:new 0 0 343.2 323.3;" xml:space="preserve">
<style type="text/css">
	.st0{fill:#FFFFFF;}
</style>
<g id="Layer_2_1_">
	<g id="Layer_1-2">
		<path class="st0" d="M336.6,274.8l-14.1-5.2c3.2-9.8,1.8-20.7-4.4-32.4c-16.9-32.1-65.9-63.6-124.6-80.4c-21.2-6.1-43-10-65-11.6
			l-5-0.4l-1.6-4.8c-21.4-65-13-117.9,21.4-134.8c22.3-11,51.9-5,83.3,16.7c30,20.8,58.6,53.8,80.6,92.9l-13.1,7.3
			c-20.9-37.2-47.9-68.4-76-87.9c-26.4-18.3-51.2-23.9-68.2-15.6c-26.1,12.8-32.1,57.5-15.3,111.9c21.3,1.9,42.4,5.8,63,11.7
			c59.9,17.1,108.9,48,130.2,81.7c-0.5-5.9-1.3-12.1-2.5-18.5c-4.9-26.7-15.7-55.6-31.3-83.3l13.1-7.3
			C340.3,174.1,351.9,236.8,336.6,274.8z"/>
		<path class="st0" d="M228.7,323.3c-27.6,0-57.4-4.4-87-12.8c-63.6-18.1-115-51.8-134-87.9c-8-15.2-9.8-30.5-5.2-44.1
			c5.9-17.5,21.7-31.2,45.7-39.6c22.2-7.8,50.3-10.8,81.4-8.6l5,0.3l1.6,4.8c6.1,18.1,13.9,35.7,23.3,52.3l0,0
			c20.9,37.2,47.9,68.4,76.1,87.9c26.4,18.2,51.3,23.9,68.2,15.5c1.4-0.7,2.9-1.6,4.3-2.6l8.8,12.1c-17,12.8-42.7,20.4-74.1,22.2
			C238.1,323.2,233.4,323.3,228.7,323.3z M110.7,144.7c-49.1,0-86,14.8-94,38.7c-3.3,9.8-1.9,20.6,4.3,32.3
			c16.9,32.1,65.9,63.7,124.8,80.5c33.1,9.4,66.4,13.5,96.1,11.8c7-0.4,13.6-1.1,20-2.1c-11.2-3.6-22.9-9.6-34.9-17.9
			c-30-20.7-58.7-53.7-80.6-92.9c-9-16-16.7-32.8-22.8-50.1C119.3,144.8,115,144.7,110.7,144.7z"/>
		<path class="st0" d="M286.2,310c-17.8,0-38.1-7.5-59.2-22c-30-20.8-58.7-53.7-80.7-92.9c-9.8-17.4-18.1-35.9-24.4-54.9l-3.6-10.7
			l11.2,0.8c23,1.7,45.9,5.7,68,12.1l-4.1,14.4c-17.5-5-35.4-8.5-53.4-10.5c5.4,14.2,11.9,28.1,19.4,41.4
			c20.9,37.2,47.9,68.4,76.1,87.9c26.4,18.2,51.3,23.9,68.2,15.5c1.4-0.7,2.9-1.6,4.2-2.5c2.6-1.9,5-4.1,7.2-6.5
			c3.2-3.9,5.8-8.2,7.6-12.8c3.2-9.7,1.6-20.5-4.5-32.1c-17-32-65.9-63.6-124.7-80.3l4.1-14.4c63.5,18.1,114.8,51.7,133.9,87.7
			c8,15.2,9.9,30.4,5.4,44l-0.1,0.4c-2.5,6.3-5.9,12.1-10.2,17.3l-0.2,0.2c-2.9,3.2-6.1,6.1-9.6,8.7l-0.2,0.1
			c-2,1.4-4.1,2.6-6.2,3.7C303,308.2,294.9,310,286.2,310z"/>
	</g>
</g>
</svg>
