<?xml version="1.0" encoding="UTF-8"?>
<svg id="Layer_1" xmlns="http://www.w3.org/2000/svg" version="1.1" viewBox="0 0 27 27">
  <!-- Generator: Adobe Illustrator 29.5.1, SVG Export Plug-In . SVG Version: 2.1.0 Build 141)  -->
  <defs>
    <style>
      .st0 {
        fill: #fff;
      }
    </style>
  </defs>
  <path class="st0" d="M19.7,16.5c3.2-5,1.7-11.6-3.3-14.7C11.4-1.4,4.8,0,1.7,5-1.5,10,0,16.6,5,19.8c3.5,2.2,8,2.2,11.5,0l.5-.3,7.6,7.6,2.4-2.4-7.6-7.6.4-.5ZM16.7,4.7c3.3,3.3,3.3,8.7,0,12-3.3,3.3-8.7,3.3-12,0s-3.3-8.7,0-12c1.6-1.6,3.7-2.5,6-2.5,2.2,0,4.4.9,6,2.5Z"/>
</svg>