<svg xmlns="http://www.w3.org/2000/svg" width="15.554" height="16.75" viewBox="0 0 15.554 16.75">
  <path id="Icon_ion-person" data-name="Icon ion-person" d="M14.017,3.468A3.848,3.848,0,0,0,11.152,2.25,3.858,3.858,0,0,0,8.28,3.461a3.957,3.957,0,0,0-1,3.02c.166,2.285,1.9,4.144,3.876,4.144s3.707-1.859,3.876-4.143A3.946,3.946,0,0,0,14.017,3.468ZM17.732,19H4.571a1.159,1.159,0,0,1-.9-.416A1.32,1.32,0,0,1,3.4,17.5a6.4,6.4,0,0,1,2.848-4.253,8.919,8.919,0,0,1,4.905-1.421,8.922,8.922,0,0,1,4.905,1.421A6.4,6.4,0,0,1,18.905,17.5a1.32,1.32,0,0,1-.268,1.088A1.159,1.159,0,0,1,17.732,19Z" transform="translate(-3.375 -2.25)" fill="#1b5c34"/>
</svg>
