<?xml version="1.0" encoding="utf-8"?>
<!-- Generator: Adobe Illustrator 26.2.1, SVG Export Plug-In . SVG Version: 6.00 Build 0)  -->
<svg version="1.1" id="Layer_1" xmlns="http://www.w3.org/2000/svg" xmlns:xlink="http://www.w3.org/1999/xlink" x="0px" y="0px"
	 viewBox="0 0 4332.8 2667.5" style="enable-background:new 0 0 4332.8 2667.5;" xml:space="preserve">
<style type="text/css">
	.st0{fill:#FFFFFF;}
</style>
<g>
	<g>
		<g>
			<g>
				<path class="st0" d="M2699.9,2294.2c-297.9-92.6-605.9-188.4-927.4-188.4c-83.5,0-165,6.5-244.8,19.6
					c144.5-316.6,463.9-536.7,834.7-536.7c486.5,0,884.5,378.9,915.1,857.7C3088,2414.8,2897.7,2355.7,2699.9,2294.2z"/>
			</g>
		</g>
	</g>
	<path class="st0" d="M3262.4,2667.5C2222.9,2532.5,1718,2082.4,939.8,2555C1759.6,2252.4,2101.1,2667.5,3262.4,2667.5z"/>
	<g>
		<path class="st0" d="M3223.2,1210.6c-86.1-179.9,59-423.7,259.8-444.6c-33.3,53.6-66.3,106.8-100.4,161.7
			c-9.2-12.6-16-22-19.5-26.9c-49.9,26.3-17.5,102-85.9,118.3c-10.8,2.6-9.4,56.8-12.4,78.7
			C3207.8,1120.5,3240,1174.5,3223.2,1210.6z"/>
		<path class="st0" d="M3465.9,749.2c-61.7,13-123,26-186.2,39.3c2.8-15.4,4.8-26.8,5.9-32.7c-53.5-17.9-85.8,57.9-144.8,19.8
			c-9.3-6-47.5,32.5-65.4,45.4c-55.9-25.5-72.6,35.2-110.3,48C3035.4,682.4,3311.8,618.6,3465.9,749.2z"/>
		<path class="st0" d="M4134,354c-41.3,3.6-77.2,6.8-91.4,8.1c-39.5,76.3-129,49.7-159.2,105.1c12.4,8.3,24,16.2,36.7,24.7
			c-70.2,39.8-134.1,76.1-205.4,116.6c55-248.5,346-423,540.9-304.6c-47.4,4.9-92.7,9.6-140.4,14.6
			C4122.7,332.8,4127.4,341.7,4134,354z"/>
		<path class="st0" d="M3103.4,1575.7c-5.1-6.8-8.7-11.7-14.6-19.7c-15.1,24.9-29.6,48.6-44.6,73.3
			c-14.1-137.8,157.5-252,308.2-217.4c-40.8,28.6-77.4,54.2-117.5,82.3c-1.4-9.2-2.6-17.6-4-26.6c-38.3,2.1-47.1,58.2-99.2,60
			C3127.3,1535.1,3116.2,1554,3103.4,1575.7z"/>
		<path class="st0" d="M3956.1,621c5.4,13,10.4,25.2,15.9,38.5c-75.7-5.5-144.7-10.4-221.8-16c172.8-165.9,491.8-150.5,582.6,44
			c-39.7-20.9-77.6-40.9-117.6-62c-1.5,15.3-2.5,24.7-3.8,37.8c-34.2-18.7-64-35-75.8-41.5C4064.9,660.9,4008.7,593.4,3956.1,621z"
			/>
		<path class="st0" d="M3819.4,131.9c-36.1,28.1-69.4,53.6-111.1,85.1c26.9,10.4,40.5,15.9,55.5,22
			c-32.8,60.8-65.7,116.2-100.1,169.9c3.1,4.3,6.1,8.7,9.1,13c21.1-4,42.3-7.9,64.8-11.8c-34.6,91.4-72.9,175.9-118.9,261.9
			c-66.4-362-16-725.2,246.9-665.5c-40.9,34.5-74.1,62-114.9,95.1C3782.4,115.1,3799.6,122.9,3819.4,131.9z"/>
		<path class="st0" d="M3388.6,600.1c-1.5-5.2-3-10.3-4.5-15.5c-60.6,1.5-120.9,4.7-182.2,9.9c6.8-13.7,13.2-27,19.4-40.4
			c-3-4.3-5.9-8.6-8.9-12.8c-33,21.6-66.2,43-109.9,70.7c5.5-30.9,7.7-45.3,11-69.2c-49.2,26-90.9,48-132.5,70
			c68.6-216.9,447.1-229.1,609.4,94.7c-81.5-26.4-164.3-48.3-249.3-65.6C3358,627.3,3373.4,613.8,3388.6,600.1z"/>
		<path class="st0" d="M3420.8,1010.7c-6.8,38.2-13.3,69.2-20.8,101.1c-7.2-7.6-12.8-13.5-21.5-22.4c-8.7,40.1-17.9,76.9-30.4,120.3
			c-40.3-211,84.5-424.5,252.4-442.8c-26.7,64.6-54.8,124.3-88.9,187.5c-4.5-24.1-8-41.1-11.7-58c-4.2-1.9-8.5-3.8-12.7-5.7
			c-11,51.7-23.7,102.5-41.5,160.7C3433.8,1031.3,3428.6,1023.1,3420.8,1010.7z"/>
		<path class="st0" d="M3414,1459.8c-23.6,56.3-49.4,110.2-78.4,163.6c-6.6-12.3-11.6-21.4-14.2-26c-39.1,25.2-18.8,98.3-73.9,110.7
			c-8.4,1.9-12.7,52.5-18.1,72.5c-46.9,16.3-29.7,68.4-49.4,99.6C3150,1711.3,3261.6,1502.8,3414,1459.8z"/>
		<path class="st0" d="M3410.6,1412.1c-48.2-14.1-95.2-27-152.8-41.2c16.3-9.5,27-15.9,37.7-22.4c-3.8-4.5-7.5-9.1-11.3-13.5
			c-34.6-0.8-69.1-1.5-104.2-2.1c0.7-9.4,1.3-18.2,2-30.7c-15.7,6.6-27.4,11.8-39.3,16c-11.9,4.2-24.2,7.3-36.3,10.8
			c-5.3-29.9-5.3-29-86.1-3.3C3128.5,1193.8,3361.2,1241.5,3410.6,1412.1z"/>
		<path class="st0" d="M3445.9,1390.2c-3.4-208.1,98.5-446.4,248.3-417c-25.2,21.2-49.7,41-75.6,61.2c8.9,10,14.3,16.3,21.8,25
			c-22.8,16.7-42.9,30.8-50.9,36.4c-2.1,78.3-62.8,81.3-67.7,136.1c9.4,3.7,18.2,7.2,27.8,11.1
			C3516,1295.7,3483.7,1341.6,3445.9,1390.2z"/>
		<path class="st0" d="M3478.1,1435c117.2-75.8,293.4,60.9,270,217.8c-48.5-57.8-103.3-117-164-174.5c1.6,20.9,2.3,33.1,3.1,47.3
			C3550.4,1492.9,3516.9,1465.1,3478.1,1435z"/>
		<path class="st0" d="M3067.8,2463.4L3067.8,2463.4c0.1,0,0.2,0,0.3,0.1c23.2,5.8,46.5,11.3,69.7,16.5
			c167.8,32,223.5-19.7,259.8-62.4c82.2-154.9,119.4-313.6,126.4-466.6c6.8-150.2-11.1-294.8-39.5-432.8
			c112.3,276.8,116.6,626.7-19.6,974.9c23.1-12.8,43.8-29.4,60.1-51.4c187.7-252,291-567,298.9-884.7c2.7-94.9-2.4-189.4-15.2-282
			c-10.1-1.5-20.2-3-30.6-4.6c2.3,9.7,3.8,15.6,5.8,23.8c-24.8-4.1-46.4-7.7-55-9.1c-34.8,38.9-83.4,9.7-109.6,37.8
			c6,6.8,11.7,13.1,17.9,20.1c-47.3,12.8-90.4,24.5-138.5,37.5c57.8-113.8,202.5-173.7,305.7-135.3c-27-173.1-80.9-339.1-160.5-488
			c155-202.8,558.7,81.5,557.3,566.8c-25.4-93.5-50.7-171.8-87.5-267.7c0.5,50,0.1,71.5-0.8,107.5c-26.9-78.6-50.8-140.1-85.7-219.1
			c1.1,45.8,0.9,67,0.8,86.3c-46.3-72.6-94.6-140-145.3-203.8c-2.6,3.5-5.3,7-7.9,10.5c8.8,29.9,17.1,60,26.1,96.2
			c-185.8-172.6-190.4-161.4-232.7-150.2c87.1,148.5,148.3,314,182.6,488.3c4.2,3.5,8.2,7.1,12,11.1c-3.4-0.5-6.8-1-10.2-1.5
			c77,403.6,9.9,853-214,1245.1c0,0,0,0.1-0.1,0.1c109.9-7.6,220.3-29.3,331.8-69.9c-1129.3,550.8-1762.5-516.1-3002.8-45
			C1731,1914.5,2400.6,2297.6,3067.8,2463.4z"/>
		<path class="st0" d="M3398.7,458.2l42.9,3.5L3338.2,348l35.6,2.4L3317,216l106.8,128.8l59.2,106.6l33-12.4l26.2,147.3
			C3532.1,540,3398.7,458.2,3398.7,458.2z"/>
	</g>
</g>
<g id="XMLID_718_">
	<path id="XMLID_721_" class="st0" d="M1969,1431.4l-35.7,32.7l252-42.1c0,0,120.3-34.7,195.2-154.2
		c51.9-82.8,74.3-213.5,78.2-324.3l-382.9-3l-9.6,0.5c0,0,48.4,155-4.3,301.1c-52.7,146.2-127.7,214.9-222.7,250.1
		C1839.3,1492.3,1912.6,1478.7,1969,1431.4z M2059.1,1333.7c72.8-121.5,72.9-249.8,72.9-249.8c68.8-9.7,61.2-78,61.2-78l152,1.6
		c-5.4,77.1,52.4,86.6,52.4,86.6c-6.6,32.7-19.4,84.1-30.3,110.1c-45.9,109.8-118.3,161.9-118.3,161.9
		c48.8-48.8,12.5-130.5-53.9-123.3C2128.6,1249.9,2059.1,1333.7,2059.1,1333.7z"/>
	<path id="XMLID_719_" class="st0" d="M1970.2,1388.5c0,0-22.2-11.6-30.8-18.3c0,0-54.2,23.2-104.2-16.6l-120.8,65.5
		c0,0,58.5,33.8,25.5,57.5c0,0,76.7,16,126.9-5.6c0,0-126.9,80.4-302.8-28.8l334-175.3c0,0,67.2,90.4,91.8,98L1970.2,1388.5z"/>
</g>
<path id="XMLID_746_" class="st0" d="M1532.6,562.8c-20.1,3.9-39.3,13.1-56,26.9L1226.4,817c107.4-68.1,246.7,5.1,338,137.7
	c91.3,132.7,103.4,283.2,103.4,283.2l6-5.4l248.8-224.7c-7.1-46.2-18.9-90.7-34.8-132.9c-18.5-44.2-41.9-91.8-71.6-136.6
	c-36.5-52.2-80.6-97.6-131.1-133.9c-7.5-4.7-15.1-9.2-23-13.3C1622.7,570.4,1577.3,554,1532.6,562.8z M1849.6,918.4
	c0,0-31.3,30.8-20.3,102.6l-94.6,90.6c0,0-14.4-60-57-30.9c0,0-42.8-115.8-116.3-195.5c1,0.9,47.7,39.5,110.7,24
	c67.1-16.5,102.9-126.1,69.4-195.4C1743,715.9,1837,848.7,1849.6,918.4z M1717.8,689.5l-16.5,15c11.6,15.8,18.5,33.9,8.5,57.5
	l-27.8-8.5c4-11.9-2-29.6-13.5-40.7c-13.8-13.3-31.2-21.3-44.9-9.1c-13.1,11.6-2.2,26.6,10,42c21.1,27,42.4,57.2,7.4,89.8
	c-27.3,25.5-62.4,21.1-85.7,2.1l-21,19.1l-22.1-21.4l20-18c-17.2-20.6-24.4-47.4-9.4-75.3l30.4,10.3c-8.6,16.2-1.8,38.5,12.4,52.2
	c15.4,14.9,36,22.9,51.8,8.4c13.3-12.2,4-30.3-9.6-47.5c-21-26.3-39.6-53.6-6.3-82.8c25.8-22.6,56.7-14.4,78.6,1.6l16.6-14.9
	L1717.8,689.5z M1664.8,641.5c0,0-95.5-18-162.8,44.3c-66.9,62-17,124.4-16.5,125.1c-70.8-57.9-150.1-52.2-150.1-52.2
	s16.8-14.8,15.8-24.3c-0.3-2.8-1.6-4.3-3.2-4.9l99.5-94.7c29.9-12.3,68.6-43.6,68.6-43.6C1620.3,597.5,1664.8,641.5,1664.8,641.5z"
	/>
<g id="XMLID_1064_">
	<path id="XMLID_1068_" class="st0" d="M903.2,1832.9c268.5-344.5,684.5-241.3,684.5-241.3l-252.5-555.3
		c0,0-417.4-102.5-676.2,228.5c-258.8,331-659.1,222-659.1,222l253.7,558.1C253.7,2044.8,667.8,2135,903.2,1832.9z M1119.6,1098.3
		c0,0,39.1,83.6,188.1,92.8l102.5,225.4c0,0-59.4-3.6-91.2,31.1c-31.8,34.7-9.2,70.6-9.2,70.6s-156.3,1-333.3,137
		c85.2-108.6,140.8-275.4,13.3-381.4c-57-47.4-134.1-58.8-203.3-36.4C786.4,1237.4,906.4,1129.1,1119.6,1098.3z M716.8,1298.8
		L735,1338c30.6-29.4,63.1-47.6,97.9-24.6l-25.5,68c-17.8-8.8-49.1,6.8-71.6,35.1c-26.8,33.7-46.3,75.1-31.8,106.6
		c13.7,29.8,41.7,3.7,71.3-25.7c52.2-51.4,110.6-104.3,149-22.7c29.7,63,7.2,144.9-33.4,199.2l21.7,46.7l-43.1,50.2l-20.3-44.1
		c-39.4,39.2-84.2,56.1-122.3,23.9l27.8-68.6c22.2,18.7,60.2,2.5,87.9-30.4c30.3-36.1,51.8-84.1,34.9-120.3
		c-14.3-30.5-47.3-7.7-80.6,24.9c-50.2,49.8-100.5,93.5-134.5,18.8c-26.7-58.6-2.4-131.6,31.7-184.8l-18-38.9L716.8,1298.8z
		 M462.4,1984c0,0-45.2-79.2-183.1-94.1l-102.3-225c0,0,60.9,3.4,87.1-30.6c26.3-34,8.4-67.8,8.4-67.8s219.9-17.7,354.7-160.4
		c-49.1,78.4-103,179.4-81.6,275c15.7,69.8,66.9,133.3,138.8,153.2c45.9,12.7,88.9,2.4,132.3-11.4
		C816.8,1822.9,699.7,1956.6,462.4,1984z"/>
	<path id="XMLID_1067_" class="st0" d="M409.5,2103.7c28.8,1.3,61.3,1.1,96.7-1.7c17.7-1.4,36.1-3.5,55-6.5
		c18.9-2.9,38.4-6.9,58.1-11.7c39.5-9.8,80.4-23.8,120.5-43.1c20.1-9.6,39.8-20.7,59-33c9.6-6.2,19.1-12.7,28.4-19.5
		c4.6-3.5,9.3-6.9,13.8-10.5c4.5-3.6,9.1-7.2,13.5-11c17.8-15,34.8-31.1,50.7-48.4l5.9-6.5c2-2.2,3.9-4.5,5.8-6.7l5.8-6.8
		c1.9-2.3,3.6-4.4,5.5-6.7l10.8-13.4c3.5-4.3,6.9-8.7,10.6-13c14.2-17.2,29.3-33.6,45.1-49.3c15.9-15.6,32.3-30.5,49.4-44.3
		c4.3-3.4,8.5-6.9,13-10.2c4.4-3.3,8.7-6.7,13.2-9.8c8.8-6.4,17.8-12.6,26.9-18.5c18.1-11.8,36.7-22.5,55.5-32.2
		c37.6-19.3,75.9-34.4,113.4-45.7c37.5-11.3,74-18.9,108.2-23.9c34.2-5,65.9-7.3,94.2-8.1c28.3-0.8,53-0.2,73.4,1.1
		c20.4,1.3,36.4,2.9,47.3,4.3c10.9,1.4,16.7,2.5,16.7,2.5s-1.4-0.4-4.2-1.2c-2.7-0.8-6.8-1.9-12.2-3.2c-10.7-2.5-26.6-6.1-47-9.1
		c-20.4-3.1-45.4-6.1-74.1-7.5c-28.8-1.4-61.4-1.3-96.8,1.7c-35.4,3-73.6,8.8-113,18.8c-39.5,10-80.2,24.2-120.2,43.4
		c-20,9.5-39.8,20.4-59.2,32.4c-9.7,6-19.3,12.3-28.7,18.8c-4.8,3.2-9.4,6.7-14,10.1c-4.7,3.4-9.2,7-13.8,10.5
		c-36.5,28.5-70.2,61.6-100.2,97.5c-1.9,2.2-3.7,4.5-5.5,6.8l-5.5,6.8l-10.6,13.3c-1.8,2.2-3.6,4.5-5.3,6.6l-5.3,6.2
		c-1.8,2.1-3.5,4.2-5.3,6.2l-5.6,6.1c-14.9,16.3-30.6,31.8-47.2,46.1c-4.1,3.6-8.3,7.1-12.6,10.5c-4.2,3.5-8.6,6.8-12.8,10.1
		c-8.6,6.6-17.4,12.9-26.3,19c-17.9,12.1-36.3,22.9-55,32.7c-37.4,19.4-75.8,34.3-113.4,45.3c-37.5,11.1-74.2,18.4-108.3,23.3
		c-34.2,4.8-66,7.2-94.2,8.1c-28.3,0.9-53,0.6-73.4-0.4c-20.4-1-36.4-2.3-47.4-3.5c-10.9-1.2-16.7-2-16.7-2s1.4,0.4,4.2,1.1
		c2.8,0.7,6.9,1.7,12.3,2.9c10.8,2.3,26.7,5.6,47.1,8.3C355.8,2099.7,380.7,2102.4,409.5,2103.7z"/>
	<path id="XMLID_1066_" class="st0" d="M437.2,2164.6c28.8,1.3,61.3,1.1,96.7-1.7c17.7-1.4,36.1-3.5,55-6.5
		c18.9-2.9,38.4-6.9,58.1-11.7c39.5-9.8,80.4-23.8,120.5-43.1c20.1-9.6,39.8-20.7,59-33c9.6-6.2,19.1-12.7,28.4-19.5
		c4.6-3.5,9.3-6.9,13.8-10.5c4.5-3.6,9.1-7.2,13.5-11c17.8-15,34.8-31.1,50.7-48.4l5.9-6.5c2-2.2,3.9-4.5,5.8-6.7l5.8-6.8
		c1.9-2.3,3.6-4.4,5.5-6.7l10.8-13.4c3.5-4.3,6.9-8.7,10.6-13c14.2-17.2,29.3-33.6,45.1-49.3c15.9-15.6,32.3-30.5,49.4-44.3
		c4.3-3.4,8.5-6.9,13-10.2c4.4-3.3,8.7-6.7,13.2-9.8c8.8-6.4,17.8-12.6,26.9-18.5c18.1-11.8,36.7-22.5,55.5-32.2
		c37.6-19.3,75.9-34.4,113.4-45.7c37.5-11.3,74-18.9,108.2-23.9c34.2-5,65.9-7.3,94.2-8.1c28.3-0.8,53-0.2,73.4,1.1
		c20.4,1.3,36.4,2.9,47.3,4.3c10.9,1.4,16.7,2.5,16.7,2.5s-1.4-0.4-4.2-1.2c-2.7-0.8-6.8-1.9-12.2-3.2c-10.7-2.5-26.6-6.1-47-9.1
		c-20.4-3.1-45.4-6.1-74.1-7.5c-28.8-1.4-61.4-1.3-96.8,1.7c-35.4,3-73.6,8.8-113,18.8c-39.5,10-80.2,24.2-120.2,43.4
		c-20,9.5-39.8,20.4-59.2,32.4c-9.7,6-19.3,12.3-28.7,18.8c-4.8,3.2-9.4,6.7-14,10.1c-4.7,3.4-9.2,7-13.8,10.5
		c-36.5,28.5-70.2,61.6-100.2,97.5c-1.9,2.2-3.7,4.5-5.5,6.8l-5.5,6.8l-10.6,13.3c-1.8,2.2-3.6,4.5-5.3,6.6l-5.3,6.2
		c-1.8,2.1-3.5,4.2-5.3,6.2l-5.6,6.1c-14.9,16.3-30.6,31.8-47.2,46.1c-4.1,3.6-8.3,7.1-12.6,10.5c-4.2,3.5-8.6,6.8-12.8,10.1
		c-8.6,6.6-17.4,12.9-26.3,19c-17.9,12.1-36.3,22.9-55,32.7c-37.4,19.4-75.8,34.3-113.4,45.3c-37.5,11.1-74.2,18.4-108.3,23.3
		c-34.2,4.8-66,7.2-94.2,8.1c-28.3,0.9-53,0.6-73.4-0.4c-20.4-1-36.4-2.3-47.4-3.5c-10.9-1.2-16.7-2-16.7-2s1.4,0.4,4.2,1.1
		c2.8,0.7,6.9,1.7,12.3,2.9c10.8,2.3,26.7,5.6,47.1,8.3C383.5,2160.6,408.4,2163.4,437.2,2164.6z"/>
	<path id="XMLID_1065_" class="st0" d="M1657,1752c-2.7-0.8-6.8-1.9-12.2-3.2c-10.7-2.5-26.6-6.1-47-9.1
		c-20.4-3.1-45.4-6.1-74.1-7.5c-28.8-1.4-61.4-1.3-96.8,1.7c-35.4,3-73.6,8.8-113,18.8c-39.5,10-80.2,24.2-120.2,43.4
		c-20,9.5-39.8,20.4-59.2,32.4c-9.7,6-19.3,12.3-28.7,18.8c-4.8,3.2-9.4,6.7-14,10.1c-4.7,3.4-9.2,7-13.8,10.5
		c-36.5,28.5-70.2,61.6-100.2,97.5c-1.9,2.2-3.7,4.5-5.5,6.8l-5.5,6.8l-10.6,13.3c-1.8,2.2-3.6,4.5-5.3,6.6l-5.3,6.2
		c-1.8,2.1-3.5,4.2-5.3,6.2l-5.6,6.1c-14.9,16.3-30.6,31.8-47.2,46.1c-4.1,3.6-8.3,7.1-12.6,10.5c-4.2,3.5-8.6,6.8-12.8,10.1
		c-8.6,6.6-17.4,12.9-26.3,19c-17.9,12.1-36.3,22.9-55,32.7c-37.4,19.4-75.8,34.3-113.4,45.3c-37.5,11.1-74.2,18.4-108.3,23.3
		c-34.2,4.8-66,7.2-94.2,8.1c-28.3,0.9-53,0.6-73.4-0.4c-20.4-1-36.4-2.3-47.4-3.5c-10.9-1.2-16.7-2-16.7-2s1.4,0.4,4.2,1.1
		c2.8,0.7,6.9,1.7,12.3,2.9c10.8,2.3,26.7,5.6,47.1,8.3c20.4,2.8,45.4,5.6,74.2,6.8c28.8,1.3,61.3,1.1,96.7-1.7
		c17.7-1.4,36.1-3.5,55-6.5c18.9-2.9,38.4-6.9,58.1-11.7c39.5-9.8,80.4-23.8,120.5-43.1c20.1-9.6,39.8-20.7,59-33
		c9.6-6.2,19.1-12.7,28.4-19.5c4.6-3.5,9.3-6.9,13.8-10.5c4.5-3.6,9.1-7.2,13.5-11c17.8-15,34.8-31.1,50.7-48.4l5.9-6.5
		c2-2.2,3.9-4.5,5.8-6.7l5.8-6.8c1.9-2.3,3.6-4.4,5.5-6.7l10.8-13.4c3.5-4.3,6.9-8.7,10.6-13c14.2-17.2,29.3-33.6,45.1-49.3
		c15.9-15.6,32.3-30.5,49.4-44.3c4.3-3.4,8.5-6.9,13-10.2c4.4-3.3,8.7-6.7,13.2-9.8c8.8-6.4,17.8-12.6,26.9-18.5
		c18.1-11.8,36.7-22.5,55.5-32.2c37.6-19.3,75.9-34.4,113.4-45.7c37.5-11.3,74-18.9,108.2-23.9c34.2-5,65.9-7.3,94.2-8.1
		c28.3-0.8,53-0.2,73.4,1.1c20.4,1.3,36.4,2.9,47.3,4.3c10.9,1.4,16.7,2.5,16.7,2.5S1659.7,1752.8,1657,1752z"/>
</g>
</svg>
