<?xml version="1.0" encoding="utf-8"?>
<!-- Generator: Adobe Illustrator 26.2.1, SVG Export Plug-In . SVG Version: 6.00 Build 0)  -->
<svg version="1.1" id="Layer_1" xmlns="http://www.w3.org/2000/svg" xmlns:xlink="http://www.w3.org/1999/xlink" x="0px" y="0px"
	 viewBox="0 0 3393 2667.5" style="enable-background:new 0 0 3393 2667.5;" xml:space="preserve">
<style type="text/css">
	.st0{fill:#FFFFFF;}
</style>
<g>
	<g>
		<g>
			<g>
				<path class="st0" d="M1632.9,2294.2c297.9-92.6,605.9-188.4,927.4-188.4c83.5,0,165,6.5,244.8,19.6
					c-144.5-316.6-463.9-536.7-834.7-536.7c-486.5,0-884.5,378.9-915.1,857.7C1244.8,2414.8,1435.1,2355.7,1632.9,2294.2z"/>
			</g>
		</g>
	</g>
	<path class="st0" d="M1070.4,2667.5c1039.5-135,1544.4-585.1,2322.6-112.5C2573.3,2252.4,2231.7,2667.5,1070.4,2667.5z"/>
	<g>
		<path class="st0" d="M2506.1,742.1c9.3,24.5,5.8,52.1-7.9,74.5l-35,57.2c-3.8,6.2-3,14.2,1.9,19.6c5.4,5.8,14.2,6.9,20.9,2.6
			l70.5-46c18.4-12,39.9-19,61.8-18.3c81.4,2.3,112.8,91.3,111.5,237.2c107.6-135.6,115.2-240-78.2-281.9
			c-9-22.8,5.9-40.5,33.9-55.4c-45.8-15.5-103.3,8.9-103.3,8.9c-33.4-179.1-148.9-191.4-318.8-107
			C2394.7,623.9,2475.2,660.5,2506.1,742.1z"/>
		<path class="st0" d="M2256.7,951.3c5.9,15.6,3.7,33.1-5,47.3l-22.2,36.3c-2.4,3.9-1.9,9,1.2,12.4c3.4,3.7,9,4.4,13.3,1.6
			l44.7-29.2c11.7-7.6,25.3-12,39.2-11.6c51.6,1.5,71.5,57.9,70.7,150.4c68.2-86,73.1-152.3-49.6-178.8
			c-5.7-14.5,3.7-25.7,21.5-35.1c-29-9.8-65.5,5.6-65.5,5.6c-21.2-113.6-94.4-121.4-202.2-67.9
			C2186,876.4,2237.1,899.6,2256.7,951.3z"/>
		<path class="st0" d="M1109.6,1210.6c86.1-179.9-59-423.7-259.8-444.6c33.3,53.6,66.3,106.8,100.4,161.7c9.2-12.6,16-22,19.5-26.9
			c49.9,26.3,17.5,102,85.9,118.3c10.8,2.6,9.4,56.8,12.4,78.7C1125,1120.5,1092.8,1174.5,1109.6,1210.6z"/>
		<path class="st0" d="M866.9,749.2c61.7,13,123,26,186.2,39.3c-2.8-15.4-4.8-26.8-5.9-32.7c53.5-17.9,85.8,57.9,144.8,19.8
			c9.3-6,47.5,32.5,65.4,45.4c55.9-25.5,72.6,35.2,110.3,48C1297.4,682.4,1021,618.6,866.9,749.2z"/>
		<path class="st0" d="M198.8,354c41.3,3.6,77.2,6.8,91.4,8.1c39.5,76.3,129,49.7,159.2,105.1c-12.4,8.3-24,16.2-36.7,24.7
			c70.2,39.8,134.1,76.1,205.4,116.6c-55-248.5-346-423-540.9-304.6c47.4,4.9,92.7,9.6,140.4,14.6
			C210.1,332.8,205.4,341.7,198.8,354z"/>
		<path class="st0" d="M1229.4,1575.7c5.1-6.8,8.7-11.7,14.6-19.7c15.1,24.9,29.6,48.6,44.6,73.3c14.1-137.8-157.5-252-308.2-217.4
			c40.8,28.6,77.4,54.2,117.5,82.3c1.4-9.2,2.6-17.6,4-26.6c38.3,2.1,47.1,58.2,99.2,60C1205.5,1535.1,1216.6,1554,1229.4,1575.7z"
			/>
		<path class="st0" d="M376.7,621c-5.4,13-10.4,25.2-15.9,38.5c75.7-5.5,144.7-10.4,221.8-16C409.8,477.6,90.8,493,0,687.5
			c39.7-20.9,77.6-40.9,117.6-62c1.5,15.3,2.5,24.7,3.8,37.8c34.2-18.7,64-35,75.8-41.5C267.9,660.9,324.1,593.4,376.7,621z"/>
		<path class="st0" d="M513.4,131.9c36.1,28.1,69.4,53.6,111.1,85.1c-26.9,10.4-40.5,15.9-55.5,22c32.8,60.8,65.7,116.2,100.1,169.9
			c-3.1,4.3-6.1,8.7-9.1,13c-21.1-4-42.3-7.9-64.8-11.8c34.6,91.4,72.9,175.9,118.9,261.9c66.4-362,16-725.2-246.9-665.5
			c40.9,34.5,74.1,62,114.9,95.1C550.4,115.1,533.2,122.9,513.4,131.9z"/>
		<path class="st0" d="M944.2,600.1c1.5-5.2,3-10.3,4.5-15.5c60.6,1.5,120.9,4.7,182.2,9.9c-6.8-13.7-13.2-27-19.4-40.4
			c3-4.3,5.9-8.6,8.9-12.8c33,21.6,66.2,43,109.9,70.7c-5.5-30.9-7.7-45.3-11-69.2c49.2,26,90.9,48,132.5,70
			c-68.6-216.9-447.1-229.1-609.4,94.7c81.5-26.4,164.3-48.3,249.3-65.6C974.8,627.3,959.5,613.8,944.2,600.1z"/>
		<path class="st0" d="M912,1010.7c6.8,38.2,13.3,69.2,20.8,101.1c7.2-7.6,12.8-13.5,21.5-22.4c8.7,40.1,17.9,76.9,30.4,120.3
			c40.3-211-84.5-424.5-252.4-442.8c26.7,64.6,54.8,124.3,88.9,187.5c4.5-24.1,8-41.1,11.7-58c4.2-1.9,8.5-3.8,12.7-5.7
			c11,51.7,23.7,102.5,41.5,160.7C899,1031.3,904.2,1023.1,912,1010.7z"/>
		<path class="st0" d="M918.8,1459.8c23.6,56.3,49.4,110.2,78.4,163.6c6.6-12.3,11.6-21.4,14.2-26c39.1,25.2,18.8,98.3,73.9,110.7
			c8.4,1.9,12.7,52.5,18.1,72.5c46.9,16.3,29.7,68.4,49.4,99.6C1182.8,1711.3,1071.2,1502.8,918.8,1459.8z"/>
		<path class="st0" d="M922.2,1412.1c48.2-14.1,95.2-27,152.8-41.2c-16.3-9.5-27-15.9-37.7-22.4c3.7-4.5,7.5-9.1,11.3-13.5
			c34.6-0.8,69.1-1.5,104.2-2.1c-0.7-9.4-1.3-18.2-2-30.7c15.7,6.6,27.4,11.8,39.3,16c11.9,4.2,24.2,7.3,36.3,10.8
			c5.3-29.9,5.3-29,86.1-3.3C1204.3,1193.8,971.6,1241.5,922.2,1412.1z"/>
		<path class="st0" d="M886.9,1390.2c3.4-208.1-98.5-446.4-248.3-417c25.2,21.2,49.7,41,75.6,61.2c-8.9,10-14.3,16.3-21.8,25
			c22.8,16.7,42.9,30.8,50.9,36.4c2.1,78.3,62.8,81.3,67.7,136.1c-9.4,3.7-18.2,7.2-27.8,11.1
			C816.8,1295.7,849.1,1341.6,886.9,1390.2z"/>
		<path class="st0" d="M854.7,1435c-117.2-75.8-293.4,60.9-270,217.8c48.5-57.8,103.3-117,164-174.5c-1.6,20.9-2.3,33.1-3.1,47.3
			C782.5,1492.9,815.9,1465.1,854.7,1435z"/>
		<path class="st0" d="M1265,2463.4L1265,2463.4c-0.1,0-0.2,0-0.3,0.1c-23.2,5.8-46.5,11.3-69.7,16.5
			c-167.8,32-223.5-19.7-259.8-62.4C853,2262.7,815.9,2103.9,808.9,1951c-6.8-150.2,11.1-294.8,39.5-432.8
			C736,1795,731.8,2144.8,868,2493.1c-23.1-12.8-43.8-29.4-60.1-51.4c-187.7-252-291-567-298.9-884.7c-2.7-94.9,2.4-189.4,15.2-282
			c10.1-1.5,20.2-3,30.6-4.6c-2.3,9.7-3.8,15.6-5.8,23.8c24.8-4.1,46.4-7.7,55-9.1c34.8,38.9,83.4,9.7,109.6,37.8
			c-6,6.8-11.7,13.1-17.9,20.1c47.3,12.8,90.4,24.5,138.5,37.5c-57.8-113.8-202.5-173.7-305.7-135.3c27-173.1,80.9-339.1,160.5-488
			C534,554.4,130.3,838.7,131.7,1324c25.4-93.5,50.7-171.8,87.5-267.7c-0.5,50-0.1,71.5,0.8,107.5c26.9-78.6,50.8-140.1,85.7-219.1
			c-1.1,45.8-0.9,67-0.8,86.3c46.3-72.6,94.6-140,145.3-203.8c2.6,3.5,5.3,7,7.9,10.5c-8.8,29.9-17.1,60-26.1,96.2
			c185.8-172.6,190.4-161.4,232.7-150.2c-87.1,148.5-148.3,314-182.6,488.3c-4.2,3.5-8.2,7.1-12,11.1c3.4-0.5,6.8-1,10.2-1.5
			c-77,403.6-9.9,853,214,1245.1c0,0,0,0.1,0.1,0.1c-109.9-7.6-220.3-29.3-331.8-69.9c1129.3,550.8,1762.5-516.1,3002.8-45
			C2601.9,1914.5,1932.2,2297.6,1265,2463.4z"/>
		<path class="st0" d="M934.1,458.2l-42.9,3.5L994.6,348l-35.6,2.4l56.8-134.3L909,344.8l-59.2,106.6l-33-12.4l-26.2,147.3
			C800.7,540,934.1,458.2,934.1,458.2z"/>
	</g>
</g>
</svg>
