<?xml version="1.0" encoding="UTF-8"?>
<svg id="uuid-6e0ff3df-588d-4c49-aa48-a67cc7e493d5" data-name="Layer 2" xmlns="http://www.w3.org/2000/svg" width="1069.28" height="1019.42" viewBox="0 0 1069.28 1019.42">
  <g id="uuid-95778efe-ecf2-4c67-8f02-eacefa1c1927" data-name="Layer 1">
    <g>
      <g id="uuid-db77dedf-f36c-4a92-be02-e33cc0c8d8e0" data-name="&amp;lt;Radial Repeat&amp;gt;">
        <path d="m296.94,994.46l-73.48,23.98c-11.96,3.9-24.46-4.33-25.58-16.87-3.59-40.12-10.47-118.74-12.13-152.13-.46-9,5.28-17.13,13.92-19.73,6.2-1.86,15.18-4.3,26.27-7.17.04.16.08.31.13.47,3.36,11.59,6.41,21.02,9.35,28.88.36.96.72,1.89,1.05,2.74.51,1.33,1.06,2.69,1.68,4.16l33.68,80.04,6.94,16.42,13.09,30.71c1.31,3.09,3.01,5.94,5.08,8.49Z" fill="#00a651"/>
        <path d="m781.46,807.3c-1.08,1.31-1.58,2.97-1.41,4.68.41,3.44,3.37,5.99,6.77,5.85l86.54-6.06,1.45-.1.89-.07c2.21-.1,4.42.16,6.52.73,2.96.79,5.74,2.22,8.17,4.22,4.41,3.65,7.16,8.75,7.76,14.37.6,5.59-1.01,11.03-4.53,15.32-2.92,3.55-6.88,5.98-11.34,6.97-.94.22-1.9.38-2.88.47l-5.98.42-81.75,5.68c-1.76.18-3.29,1-4.39,2.32-1.09,1.31-1.59,2.98-1.42,4.68.34,3.43,3.32,6,6.77,5.85l64.83-5.64.91-.06c5.63-.24,10.97,1.65,15.08,4.98,4.14,3.33,7.06,8.1,7.83,13.55.51,3.52.13,6.99-1.05,10.17-.74,1.99-1.8,3.88-3.17,5.59-1.05,1.34-2.25,2.52-3.58,3.52h0c-3.09,2.4-6.83,3.85-10.88,4.21l-33.29,2.96-17.72,1.52-86.5,7.31c-1.27.11-2.63.2-4.05.29-.92.06-1.87.1-2.84.15-8.39.36-18.35.29-29.18-.05-2.9-.09-5.85-.2-8.86-.33-1.94-.08-3.89-.18-5.85-.28-32.04-1.61-68.45-5.01-93.65-7.36-11.44-1.07-19.16-1.79-23.61-2.1-2.51-.17-5.02.15-7.4.93l-29.32,9.57c-.2-.64-.4-1.22-.62-1.8l-24.2-60.45-7-16.62c-2.39-5.68-4.76-11.37-7.13-17.06-2.61-6.27-5.23-12.55-7.86-18.8l-1.45-3.43c-2.46-5.86-5-11.92-7.77-17.89-.73-1.58-1.48-3.1-2.2-4.57-1-2.04-1.98-4.02-2.77-5.9.91-.69,2.11-1.57,3.74-2.65l1.11-.73c.56-.37,1.12-.73,1.66-1.08.44-.29.87-.56,1.28-.83,2.67-1.59,13.23-4.21,17.42-4.33,5.6-.16,10.42-2.44,13.62-6.21h0c20.72-4.45,35.41-7.43,40.36-8.11,25.74-3.53,51.48-10.5,73.22-25.17,15.54-10.48,29.14-23.52,42.2-36.89,4.23-4.34,8.01-8.21,11.31-11.13,8.68-8.55,24.49-15.25,31.29-14.35,2.55.33,3.83,1.73,3.01,4.49-1.65,5.59-3.02,19.68-1.37,25.84.29,1.1.6,2.28.94,3.5,1.65,6.04,3.86,13.06,7.39,15.56.74.53,1.53.86,2.41.93,6.49.55,12.93-.85,19.34-1.62,7.51-.91,15.07-1.48,22.62-2.12,12.91-1.1,25.82-2.09,38.73-3.18l17.72-1.49,63.86-4.25.87-.07c.38-.02.78-.02,1.18,0,.98,0,1.97.1,2.93.25l.72.16c1.8.31,3.54.87,5.21,1.63s3.24,1.76,4.69,2.95c.24.19.51.42.73.65.15.13.29.26.42.39h0c2.52,2.41,4.41,5.31,5.52,8.49.57,1.7.93,3.27,1.08,4.8.2,2.03.14,4.03-.2,5.91l-.13.54c-1.4,6.79-5.97,12.17-12.05,14.74-1.99.84-4.12,1.39-6.38,1.58l-2.48.18-93.22,6.78c-1.77.18-3.33,1-4.42,2.32-1.07,1.32-1.57,2.99-1.4,4.68.41,3.42,3.36,5.95,6.74,5.81.16,0,38.11-2.41,92.31-6.85,2.91-.24,5.85-.48,8.86-.73,2.61-.21,5.25-.43,7.93-.66l.87-.06c11.61-.49,21.71,8.52,22.52,20.11.8,11.34-7.72,21.02-19.42,22.02l-11.86.9-8.86.66h0s-87.49,6.61-87.49,6.61c-1.74.17-3.29,1-4.38,2.32Z" fill="#00a651"/>
      </g>
      <g id="uuid-b69e7693-1518-4bd9-9e76-c2d1235fafb4" data-name="&amp;lt;Radial Repeat&amp;gt;">
        <path d="m190.83,348.04c-.14.09-.27.18-.4.27-9.83,6.68-18.08,12.66-24.48,17.74-.83.66-1.65,1.31-2.42,1.95-1.09.89-2.2,1.82-3.4,2.86l-65.7,56.77-13.47,11.67-25.16,21.94c-2.53,2.2-4.72,4.7-6.52,7.45L3.76,406.22c-7.41-10.17-3.45-24.59,8.13-29.53,37.05-15.82,109.69-46.65,140.93-58.55,8.43-3.22,17.93-.27,23.07,7.14,3.68,5.32,8.78,13.11,14.93,22.77Z" fill="#0083ca"/>
        <path d="m507.13,935.18c-.2,1.81-.65,3.63-1.34,5.36-.11.3-.25.61-.41.9-.05.11-.09.2-.15.31-1.49,3.23-3.72,5.99-6.46,8.08-1.45,1.09-2.83,1.9-4.24,2.52-1.86.81-3.78,1.36-5.68,1.63l-.55.04c-6.89.75-13.42-1.92-17.74-6.92-1.41-1.62-2.59-3.49-3.47-5.56l-.94-2.31-35.26-86.57c-.71-1.63-1.98-2.86-3.57-3.48-1.58-.6-3.32-.56-4.88.12-3.13,1.44-4.62,5.04-3.45,8.2.07.16,14.08,35.51,35.04,85.69,1.13,2.69,2.27,5.42,3.43,8.19,1.02,2.42,2.05,4.87,3.09,7.35l.33.82c4.07,10.88-1.4,23.28-12.17,27.62-10.53,4.27-22.36-.85-26.94-11.65l-4.52-11.01-3.36-8.21-33.31-81.16c-.71-1.61-1.98-2.83-3.56-3.45-1.6-.63-3.33-.6-4.9.1-3.14,1.45-4.65,5.05-3.47,8.24l32.51,80.44.54,1.34.33.82c.78,2.08,1.22,4.25,1.33,6.43.16,3.06-.34,6.16-1.49,9.08-2.1,5.32-6.12,9.52-11.28,11.82-5.13,2.29-10.8,2.44-15.96.42-4.29-1.68-7.81-4.7-10.15-8.64-.49-.82-.94-1.69-1.31-2.6l-2.25-5.55-30.68-75.98c-.71-1.62-1.97-2.84-3.56-3.46-1.58-.63-3.32-.59-4.89.09-3.15,1.39-4.68,5.01-3.46,8.25l25.39,59.91.34.84c1.96,5.28,1.8,10.95-.08,15.88-1.89,4.97-5.52,9.22-10.48,11.64-3.2,1.57-6.63,2.29-10.04,2.14h0c-2.11-.1-4.21-.52-6.25-1.28-1.59-.6-3.07-1.37-4.43-2.31-3.23-2.2-5.79-5.32-7.37-9.06l-13.11-30.74-6.92-16.38-33.67-80.01c-.5-1.18-1.01-2.43-1.53-3.76-.33-.86-.67-1.75-1.01-2.66-2.93-7.85-5.95-17.35-8.97-27.76-.81-2.78-1.62-5.63-2.41-8.52-.51-1.86-1.03-3.74-1.54-5.64-8.39-30.96-16.4-66.65-21.96-91.35-2.51-11.2-4.22-18.76-5.31-23.1-.6-2.43-1.68-4.72-3.16-6.75l-18.16-24.93c.42-.31.86-.63,1.27-.95l.24-.18,50.01-41.71,13.67-11.79c4.89-4.24,9.8-8.44,14.71-12.66,4.92-4.22,9.84-8.44,14.75-12.69l2.98-2.57c4.75-4.1,9.67-8.35,14.44-12.77,1.29-1.19,2.51-2.38,3.7-3.54,1.62-1.57,3.18-3.09,4.73-4.43,1.15.79,2.69,1.94,4.78,3.6.93.74,1.81,1.46,2.66,2.16,2.33,2.02,8.1,11.28,9.51,15.25,1.87,5.26,5.52,9.14,10.12,11.02h0c10.63,18.32,18,31.37,20.18,35.88,11.3,23.39,25.88,45.71,46.57,61.85,14.76,11.54,31.38,20.45,48.12,28.73,5.43,2.68,10.3,5.09,14.08,7.32,10.83,5.62,22.09,18.58,23.33,25.33.47,2.52-.47,4.17-3.34,4.25-5.83.16-19.65,3.21-25,6.68-.95.62-1.98,1.28-3.04,1.98h0c-5.23,3.43-11.21,7.7-12.5,11.83-.28.87-.33,1.73-.14,2.59,1.48,6.34,4.78,12.02,7.5,17.88,3.19,6.88,6.07,13.88,9.01,20.86,5.04,11.94,9.96,23.91,15,35.85l6.89,16.38,23.79,59.43.32.79c.14.38.26.74.38,1.13.28.94.5,1.89.66,2.87l.08.73c.25,1.8.27,3.63.04,5.45Z" fill="#0083ca"/>
      </g>
      <g id="uuid-3d296a97-aa1d-4b48-b9f3-887a5d911ac0" data-name="&amp;lt;Radial Repeat&amp;gt;">
        <path d="m470.38,343.64c-.39,1.32-1,3.11-1.91,5.54-.29.76-1.27,3.31-1.27,3.31-1.2,2.83-8.22,11.19-11.55,13.76-4.34,3.34-6.91,8.03-7.32,12.97h0c-14.17,15.82-24.32,26.88-27.94,30.34-18.74,17.98-35.47,38.75-44.44,63.4-6.4,17.61-9.75,36.16-12.45,54.64-.87,6-1.66,11.37-2.6,15.65-2,12.02-10.84,26.73-16.88,30.01-2.26,1.22-4.12.85-5.09-1.86-1.94-5.5-9.11-17.7-14.06-21.71-.88-.72-1.83-1.49-2.82-2.28-4.88-3.91-10.8-8.29-15.11-8.25h0c-.91,0-1.76.21-2.5.66-5.59,3.37-9.96,8.29-14.7,12.67-5.56,5.15-11.33,10.05-17.06,15.02-9.8,8.48-19.66,16.87-29.46,25.35l-13.46,11.61-49.16,40.99-.65.56c-.31.24-.63.47-.95.7-.81.56-1.66,1.08-2.53,1.53l-.67.3c-1.63.79-3.38,1.38-5.18,1.72-1.8.38-3.64.5-5.51.39-.33-.02-.67-.06-.99-.11-.11,0-.22-.02-.33-.04-3.54-.43-6.85-1.69-9.69-3.64-1.47-1.05-2.67-2.11-3.69-3.25-1.36-1.53-2.47-3.18-3.32-4.9l-.2-.51c-2.85-6.33-2.32-13.36,1.09-19.03,1.12-1.84,2.53-3.54,4.23-5.01l1.91-1.62,71.43-60.27c1.34-1.18,2.11-2.78,2.2-4.47.09-1.7-.48-3.33-1.62-4.61-2.34-2.52-6.22-2.83-8.87-.74-.12.11-29.41,24.35-70.66,59.8-2.21,1.89-4.45,3.84-6.73,5.81-1.98,1.71-3.99,3.45-6.03,5.2l-.67.56c-9.11,7.23-22.58,5.86-30.04-3.04-7.32-8.7-6.1-21.55,2.76-29.23l9.06-7.69,6.78-5.75,66.89-56.76c1.32-1.18,2.09-2.76,2.19-4.46.11-1.71-.46-3.35-1.6-4.63-2.35-2.54-6.25-2.86-8.92-.75l-66.44,55.77-1.11.94-.69.56c-1.74,1.39-3.67,2.47-5.72,3.24-2.86,1.1-5.96,1.58-9.09,1.39-5.72-.35-10.95-2.87-14.73-7.06-3.77-4.17-5.66-9.52-5.33-15.06.27-4.59,2.06-8.87,5.09-12.31.62-.73,1.31-1.42,2.05-2.07l4.6-3.85,62.78-52.66c1.31-1.17,2.08-2.74,2.19-4.45.11-1.7-.47-3.35-1.6-4.62-2.29-2.57-6.21-2.9-8.92-.75l-49.12,42.67-.69.57c-4.42,3.51-9.83,5.1-15.11,4.85h0c-5.32-.27-10.48-2.41-14.31-6.37-2.47-2.56-4.21-5.59-5.12-8.87-.58-2.05-.83-4.19-.73-6.37.07-1.71.35-3.36.82-4.96h0c1.11-3.76,3.28-7.13,6.35-9.8l25.19-21.96,13.44-11.64,65.68-56.76c.97-.83,2.01-1.71,3.11-2.61.71-.59,1.45-1.18,2.21-1.78,6.57-5.22,14.67-11.03,23.63-17.11,2.39-1.62,4.85-3.27,7.36-4.94,1.61-1.07,3.24-2.14,4.89-3.22,26.87-17.53,58.33-36.18,80.1-49.09,9.88-5.85,16.54-9.81,20.33-12.19,2.13-1.33,3.97-3.06,5.44-5.1l18.1-24.99c.42.31.87.63,1.36.96l.19.12,55.23,34.76,15.33,9.28c5.53,3.33,11.04,6.7,16.55,10.06,5.54,3.38,11.1,6.77,16.66,10.13l3.4,2.06c5.36,3.25,10.91,6.61,16.59,9.77,1.51.84,3,1.62,4.43,2.38,2.02,1.07,3.98,2.1,5.74,3.16Z" fill="#ed1c24"/>
        <path d="m648.32,146.79c-3.93,5.15-9.77,12.41-17.05,21.24-.12-.1-.25-.2-.38-.29-9.35-7.27-17.59-13.27-24.47-17.83l-.82-.53c-.6-.4-1.2-.79-1.73-1.13-1.31-.84-2.56-1.62-3.79-2.37l-74.31-44.95-15.26-9.19-28.64-17.16c-2.86-1.72-5.92-3.03-9.09-3.89l45.35-62.59c7.37-10.19,22.32-10.88,30.6-1.39,26.5,30.34,78.26,89.91,99.25,115.94,5.65,7.02,5.78,16.98.33,24.15Z" fill="#ed1c24"/>
      </g>
      <g id="uuid-abd07157-00fa-44d0-93e4-f0ebec2abea2" data-name="&amp;lt;Radial Repeat&amp;gt;">
        <path d="m758.62,278.16c-.2.55-.37,1.12-.53,1.71l-.04.15-15.95,63.09-4.12,17.56c-1.47,6.3-2.97,12.6-4.47,18.89-1.5,6.31-3,12.62-4.47,18.94l-.93,3.98c-1.43,6.07-2.9,12.34-4.15,18.67-.33,1.7-.62,3.36-.9,4.96-.38,2.25-.76,4.43-1.22,6.43-.44,0-.93.02-1.49.02-1.61,0-3.3-.07-4.39-.11-.91-.05-1.8-.1-2.64-.15l-.89-.05c-3.08-.26-13.19-4.35-16.66-6.74-3.27-2.25-6.95-3.44-10.62-3.44-1.36,0-2.7.16-4,.48-19.4-8.59-33.05-14.82-37.46-17.19-22.89-12.26-47.81-21.77-74.03-22.67-18.73-.65-37.41,1.9-55.83,5.04-5.97,1.03-11.31,1.94-15.69,2.36-12.05,1.82-28.77-2.05-33.75-6.78-1.86-1.76-2.08-3.65.2-5.41,4.63-3.56,14.02-14.15,16.31-20.1.41-1.06.85-2.2,1.3-3.39,2.21-5.85,4.55-12.82,3.16-16.91-.29-.87-.75-1.61-1.4-2.17-4.92-4.27-10.95-6.92-16.58-10.07-6.62-3.68-13.06-7.66-19.55-11.58-11.1-6.7-22.13-13.49-33.22-20.18l-15.2-9.21-54.17-34.08-.73-.47c-.33-.22-.65-.45-.96-.69-.79-.59-1.54-1.23-2.24-1.93l-.48-.55c-1.28-1.31-2.37-2.78-3.27-4.38-.89-1.61-1.58-3.32-2.06-5.14-.08-.31-.16-.65-.2-.97-.04-.19-.07-.37-.11-.56-.65-3.42-.46-6.87.51-10.12.54-1.71,1.18-3.2,1.94-4.52,1.04-1.76,2.26-3.33,3.63-4.67l.42-.35c5.13-4.66,11.99-6.34,18.43-4.84,2.09.48,4.14,1.31,6.07,2.47l2.12,1.31,79.41,49.31c1.53.91,3.27,1.15,4.93.71,1.64-.43,3.02-1.48,3.88-2.96,1.67-3,.78-6.8-2.03-8.66-.14-.09-32.25-20.45-78.71-48.71-2.49-1.52-5.02-3.06-7.6-4.62-2.24-1.36-4.51-2.74-6.81-4.12l-.74-.47c-9.68-6.42-12.56-19.65-6.39-29.51,6.01-9.64,18.6-12.45,28.64-6.4l10.13,6.25,7.56,4.67,74.66,46.08c1.52.89,3.26,1.13,4.92.7,1.64-.42,3.04-1.48,3.89-2.96,1.69-3.02.78-6.83-2.05-8.7l-73.57-45.95-1.22-.78-.75-.47c-1.85-1.22-3.48-2.72-4.84-4.43-1.94-2.38-3.35-5.18-4.14-8.22-1.43-5.54-.65-11.29,2.17-16.18,2.81-4.88,7.31-8.34,12.67-9.72,4.46-1.16,9.08-.79,13.29,1.02.88.38,1.75.82,2.6,1.32l5.07,3.18,69.48,43.44c1.53.89,3.27,1.13,4.92.7s3.05-1.48,3.9-2.95c1.73-2.98.84-6.79-2.05-8.71l-55.75-33.54-.78-.48c-4.7-3.12-7.89-7.78-9.28-12.88-1.39-5.14-.95-10.71,1.63-15.59,1.67-3.14,4.02-5.73,6.86-7.62,1.76-1.17,3.72-2.07,5.83-2.65,1.63-.46,3.29-.71,4.96-.75,3.91-.12,7.79.9,11.28,3l28.67,17.18,15.23,9.18,74.28,44.93c1.09.66,2.25,1.38,3.44,2.16.78.49,1.57,1.01,2.38,1.54,6.99,4.64,15.02,10.53,23.58,17.19,2.29,1.77,4.62,3.61,6.97,5.49,1.5,1.2,3.02,2.41,4.55,3.65,24.99,20.12,52.45,44.29,71.46,61.01,8.62,7.58,14.44,12.7,17.87,15.56,1.94,1.61,4.15,2.83,6.53,3.61l29.35,9.5Z" fill="#ffc60b"/>
        <path d="m1066.5,402.94c-20.67,34.57-61.33,102.22-79.6,130.21-4.92,7.55-14.35,10.75-22.85,7.77-6.11-2.14-14.81-5.45-25.46-9.64.06-.16.11-.3.16-.46,4.09-11.37,7.16-20.77,9.41-28.84.26-.96.52-1.9.77-2.83l.03-.12c.38-1.48.73-2.9,1.05-4.25l19.79-84.55,4.04-17.37,7.45-32.52c.76-3.27,1.06-6.59.89-9.87l73.54,23.79c11.98,3.87,17.25,17.87,10.79,28.68Z" fill="#ffc60b"/>
      </g>
      <g id="uuid-aeed1903-64bb-430b-8d69-dd96c9d7a375" data-name="&amp;lt;Radial Repeat&amp;gt;">
        <path d="m873.6,998.69c.02,12.58-11.68,21.92-23.95,19.12-39.27-8.97-116.17-26.73-148.44-35.46-8.7-2.36-14.67-10.34-14.46-19.34.15-6.48.6-15.78,1.3-27.2.16,0,.32,0,.48.02,6.17.2,11.92.3,17.07.3,4.81,0,9.26-.09,13.26-.26,1.04-.05,2.04-.1,3-.16,1.46-.08,2.96-.19,4.46-.31l86.52-7.31,17.76-1.53,33.27-2.96c3.34-.29,6.57-1.04,9.64-2.2l.1,77.29Z" fill="#f7941d"/>
        <path d="m966.97,357.01l-7.47,32.57-4.03,17.32-19.78,84.53c-.29,1.24-.62,2.56-.97,3.94-.24.9-.49,1.8-.74,2.74-2.25,8.08-5.39,17.55-9.06,27.74-.99,2.72-2.02,5.5-3.07,8.32-.68,1.8-1.36,3.63-2.07,5.47-11.42,29.98-25.91,63.57-35.94,86.81-4.56,10.55-7.62,17.66-9.28,21.81-.94,2.33-1.42,4.81-1.41,7.32l.04,30.86c-.16,0-.31,0-.47,0-.45,0-.91,0-1.35.03h-.2s-1.02.08-1.02.08l-63.94,4.26-17.86,1.5c-6.22.53-12.44,1.03-18.66,1.54-6.7.54-13.39,1.09-20.09,1.66-1.45.12-2.9.24-4.35.37-6.12.51-12.44,1.04-18.76,1.8-1.72.21-3.39.45-5.01.69-2.26.32-4.44.64-6.48.81-.46-1.31-1.04-3.14-1.73-5.68-.25-.92-.49-1.81-.72-2.67l-.18-.68c-.69-3,.07-13.9,1.26-17.91,1.54-5.23.92-10.55-1.7-14.84,2.16-21.1,3.87-36.01,4.76-40.93,4.6-25.56,5.93-52.19-1.31-77.41-5.18-18.01-13.37-34.99-22.05-51.53-2.82-5.36-5.34-10.17-7.09-14.19-5.45-10.89-6.94-27.99-3.98-34.2,1.1-2.32,2.83-3.11,5.2-1.49,4.81,3.31,17.78,8.96,24.15,9.3,1.14.06,2.35.13,3.62.19,6.25.29,13.61.36,17.08-2.22.73-.54,1.3-1.2,1.63-2,2.53-6.01,3.18-12.55,4.43-18.89,1.46-7.42,3.25-14.79,4.97-22.17,2.94-12.62,5.99-25.21,8.94-37.82l4.06-17.3,15.68-62.06.21-.83c.11-.38.22-.75.35-1.13.32-.93.7-1.85,1.14-2.72l.38-.64c.85-1.62,1.91-3.11,3.16-4.45,1.24-1.35,2.67-2.54,4.25-3.55.26-.18.56-.34.85-.49.16-.1.33-.19.5-.28,3.06-1.65,6.41-2.55,9.79-2.62,1.8-.03,3.4.12,4.91.45,1.98.44,3.86,1.12,5.55,2.02l.47.29c6.02,3.44,9.73,9.43,10.3,16.03.19,2.13.04,4.34-.47,6.53l-.6,2.43-22.37,90.75c-.38,1.73-.07,3.47.86,4.91.91,1.42,2.34,2.42,4.01,2.78,3.39.67,6.7-1.36,7.61-4.61.04-.15,9.49-36.98,22.01-89.9.68-2.83,1.36-5.72,2.05-8.66.59-2.55,1.2-5.14,1.81-7.76l.21-.85c3.12-11.2,14.81-18.01,26.09-15.2,11.03,2.74,17.6,13.84,14.95,25.27l-2.81,11.55-2.11,8.64-20.75,85.23c-.38,1.73-.07,3.45.85,4.89.92,1.45,2.34,2.43,4.01,2.8,3.4.67,6.74-1.36,7.66-4.64l20.97-84.17.35-1.4.22-.87c.6-2.14,1.51-4.15,2.71-5.99,1.67-2.56,3.9-4.77,6.55-6.47,4.83-3.07,10.53-4.11,16.07-2.93,5.5,1.15,10.17,4.37,13.16,9.05,2.47,3.88,3.55,8.39,3.13,12.94-.09.96-.24,1.92-.46,2.88l-1.45,5.81-19.84,79.51c-.38,1.71-.07,3.45.85,4.87.91,1.45,2.34,2.44,4.01,2.8,3.36.74,6.73-1.29,7.64-4.63l14.67-63.39.22-.88c1.52-5.43,4.96-9.91,9.39-12.8,4.45-2.91,9.9-4.21,15.33-3.26,3.5.61,6.7,2.04,9.37,4.16,1.66,1.31,3.11,2.9,4.32,4.72.94,1.41,1.7,2.92,2.25,4.49,1.32,3.68,1.55,7.69.63,11.65Z" fill="#f7941d"/>
      </g>
    </g>
  </g>
</svg>