<?xml version="1.0" encoding="utf-8"?>
<!-- Generator: Adobe Illustrator 22.1.0, SVG Export Plug-In . SVG Version: 6.00 Build 0)  -->
<svg xmlns="http://www.w3.org/2000/svg" viewBox="0 0 23 23" width="23" height="23"><defs><style>.cls-1{fill:#6cccdf;}.cls-2{fill:#fff;}</style></defs><title>Glassdoor</title><g id="Layer_2" data-name="Layer 2"><g id="facebook"><circle class="cls-1" cx="11.5" cy="11.5" r="11.5"/><path id="icon" class="cls-2" d="M14.68,4.07A2.12,2.12,0,0,1,16.8,6.2H8.32v8.7a.07.07,0,0,1-.08.08h-2a.07.07,0,0,1-.08-.08V6.2h0A2.12,2.12,0,0,1,8.32,4.07h6.36Zm0,12.73H6.2a2.12,2.12,0,0,0,2.12,2.13h6.36A2.12,2.12,0,0,0,16.8,16.8h0V8.09A.07.07,0,0,0,16.72,8h-2a.07.07,0,0,0-.08.08V16.8Z"/></g></g></svg>