<?xml version="1.0" encoding="utf-8"?>
<!-- Generator: Adobe Illustrator 22.1.0, SVG Export Plug-In . SVG Version: 6.00 Build 0)  -->
<svg id="linkdin" xmlns="http://www.w3.org/2000/svg" width="23" height="23" viewBox="0 0 23 23">

												<defs>

													<style>

													.cls-1 {

														fill: #6cccdf;

													}



													.cls-2 {

														fill: #fff;

														fill-rule: evenodd;

													}

													</style>

												</defs>

												<circle id="Ellipse_1_copy" data-name="Ellipse 1 copy" class="cls-1" cx="11.5" cy="11.5" r="11.5"/>

												<path id="_" data-name="" class="cls-2" d="M1181.26,34.947v9.016h3.01V34.947h-3.01Zm2.73-3.9a1.648,1.648,0,0,0-1.21-.441,1.7,1.7,0,0,0-1.22.441,1.475,1.475,0,0,0-.47,1.114,1.5,1.5,0,0,0,.45,1.11,1.67,1.67,0,0,0,1.21.446h0.01a1.744,1.744,0,0,0,1.24-.446,1.47,1.47,0,0,0,.46-1.11A1.512,1.512,0,0,0,1183.99,31.048Zm10.13,4.722a3.237,3.237,0,0,0-2.5-1.033,3.664,3.664,0,0,0-1.05.141,2.428,2.428,0,0,0-.79.4,4.4,4.4,0,0,0-.51.473,3.619,3.619,0,0,0-.37.509h0.01v-1.31h-2.99l0.01,0.437c0.01,0.291.01,1.189,0.01,2.693s-0.01,3.466-.02,5.886h2.99V38.931a2.388,2.388,0,0,1,.1-0.737,1.943,1.943,0,0,1,.58-0.778,1.482,1.482,0,0,1,.96-0.314,1.288,1.288,0,0,1,1.15.541,2.6,2.6,0,0,1,.37,1.5v4.822h2.99V38.795A4.334,4.334,0,0,0,1194.12,35.77Z" transform="translate(-1176 -26)"/>

											</svg>