<svg height="71.15" viewBox="0 0 241.57 71.15" width="241.57" xmlns="http://www.w3.org/2000/svg"><path d="m1.41.17h1.42v4.13h4.72v-4.13h1.41v9.87h-1.41v-4.49h-4.72v4.49h-1.42z" fill="#749abb"/><path d="m19.41 0c2.99 0 4.75 2.18 4.75 5.11s-1.74 5.1-4.75 5.1-4.75-2.11-4.75-5.1 1.76-5.11 4.75-5.11m0 8.97c2.28 0 3.25-1.9 3.25-3.86s-1.08-3.87-3.25-3.86c-2.18-.01-3.25 1.85-3.25 3.86s.97 3.86 3.25 3.86" fill="#749abb"/><path d="m38.09 5.96c0 2.77-1.4 4.25-3.84 4.25s-3.83-1.48-3.83-4.25v-5.79h1.41v5.6c0 1.9.6 3.19 2.41 3.19s2.42-1.3 2.42-3.19v-5.6h1.41v5.79z" fill="#749abb"/><path d="m49.34 1.66c-.72-.28-1.12-.41-1.85-.41-.8 0-1.73.28-1.73 1.31 0 1.89 4.24 1.46 4.24 4.71 0 2.1-1.62 2.94-3.61 2.94-.69 0-1.37-.2-2.02-.41l.14-1.32c.48.2 1.33.48 2.05.48.81 0 1.94-.45 1.94-1.61 0-2.21-4.24-1.6-4.24-4.67 0-1.75 1.39-2.69 3.17-2.69.65 0 1.43.12 2.11.36l-.2 1.3z" fill="#749abb"/><path d="m58.5 1.42h-3.07v-1.25h7.55v1.25h-3.07v8.62h-1.41z" fill="#749abb"/><path d="m72.52 0c3 0 4.75 2.18 4.75 5.11s-1.74 5.1-4.75 5.1-4.75-2.11-4.75-5.1 1.75-5.11 4.75-5.11m0 8.97c2.28 0 3.25-1.89 3.25-3.86s-1.07-3.87-3.25-3.86c-2.18-.01-3.25 1.85-3.25 3.86s.97 3.86 3.25 3.86" fill="#749abb"/><path d="m83.5.17h1.92l4.36 7.95h.03v-7.95h1.41v9.87h-1.81l-4.47-8.11h-.03v8.11h-1.41z" fill="#749abb"/><g fill="#124b7f"><path d="m54.71 36.95c0-6.9 4.4-13.25 12.24-13.25s10.91 5.12 10.91 10.85v.61h-16.25v.61c0 6.9 2.22 11.91 7.96 11.91 3.89 0 5.73-1.39 7.79-5.01l1.06.72c-2 4.06-5.9 7.12-10.96 7.12-8.74 0-12.74-6.12-12.74-13.58m16.3-3.28c0-4.12-.5-8.63-4.29-8.63-3.06 0-4.95 3.33-5.12 8.73l9.4-.11z"/><path d="m84.93 42.73v-15.75h-5.06v-2.39h5.18v-8.34h6.17v8.34h7.4v2.39h-7.34v15.19c0 2.78.84 4.96 3.78 4.96 2.78 0 3.06-2.23 3.28-4.51h1.34c-.33 4.23-2.73 7.9-7.62 7.9s-7.12-2.84-7.12-7.79"/><path d="m100.46 48.43c1-.06 1.67-.17 2.45-.45 1.06-.33 1.44-1.22 1.44-2.45v-31.67c-.05-1.22-.61-2.61-1.5-3.22-.67-.45-2.73-.83-3.73-.89v-1.11l11.24-.61.33.39v19.58h.11c2.11-2.12 4.23-4.57 8.95-4.57 5.12 0 7.46 3.45 7.46 8.74v13.14c0 1.22.39 2.06 1.39 2.5.78.33 1.45.5 2.45.62v1.11h-13.85v-1.11c.83-.06 1.67-.17 2.33-.45.95-.33 1.22-1.22 1.22-2.45v-13.41c0-3.78-1.83-5.73-4-5.73-3.56 0-5.45 2.4-6.06 3.68v15.19c0 1.22.39 2 1.28 2.51.78.39 1.56.61 2.39.67v1.11h-13.91v-1.11z"/><path d="m178.89 48.43c1-.06 1.67-.17 2.45-.45 1-.33 1.45-1.34 1.45-2.45v-16.19c-.05-1.23-.55-2.17-1.45-2.78-.67-.45-2.28-1-3.28-1.06v-1.06l10.73-.67.39.39v21.03c0 1.17.5 2.12 1.51 2.56.83.39 1.67.55 2.45.67v1.11h-14.24v-1.11zm2.51-35.28c0-2.28 1.83-4.06 4.06-4.06s4.11 1.73 4.11 3.95-1.78 4.12-4.11 4.12-4.06-1.78-4.06-4.01"/><path d="m197.6 48.24-.78 1.67h-1.78l-.28-8.97h1.17c.83 3.01 4.17 8.24 8.68 8.24 3.45 0 4.78-1.89 4.78-4.57 0-2.89-2.45-4.06-6.45-5.29-3.62-1.11-7.46-3.23-7.46-8.18 0-4.18 3.39-7.51 9.01-7.51 3.01 0 5.23.89 6.23 1.45l.56-1.5h1.67l.39 8.12h-1.11c-.89-3.44-3.62-6.73-7.4-6.73-2.84 0-4.06 1.83-4.06 3.89 0 3.01 2.06 3.73 6.29 5.12 4.51 1.5 7.51 3.73 7.51 8.29 0 5.23-4.34 8.23-9.9 8.23-3.11 0-6.07-1.33-7.07-2.28"/><path d="m220.81 42.73v-15.75h-5.06v-2.39h5.17v-8.34h6.18v8.34h7.4v2.39h-7.35v15.19c0 2.78.83 4.96 3.78 4.96 2.78 0 3.06-2.23 3.28-4.51h1.34c-.34 4.23-2.73 7.9-7.62 7.9s-7.13-2.84-7.13-7.79"/><path d="m174.35 47.39c-.88-.61-1.32-1.48-1.43-2.64v-35.64l-.38-.39-12.11.6v1.05c1.49.11 3.85.6 4.79 1.26.88.55 1.37 1.98 1.43 3.14v10.56c-.82-.33-3.25-1.38-6.49-1.38-2.69 0-5.28.95-7.4 2.61-.31.25-.62.51-.91.79-.85.81-1.59 1.75-2.19 2.81-1.1 1.9-1.76 4.18-1.76 6.71 0 2.87.6 5.37 1.64 7.43-.19.62-.42 1.19-.67 1.71-.97 1.96-2.41 3.18-4.46 3.18-4.56 0-6.1-5.78-6.1-12.32 0-5.28 1.05-11.66 6.16-11.66.87 0 1.63.22 2.28.59.37.22.7.49 1 .81.04-.06.1-.14.17-.22.11-.12.22-.24.34-.36.56-.56 1.35-1.22 1.35-1.22-.32-.12-.66-.21-1-.31-.15-.05-.87-.24-.97-.26 0 0-.53-.11-.81-.14-.78-.11-1.57-.14-2.36-.14-8.03 0-13.26 5.45-13.26 13.31 0 8.25 5.94 13.26 12.92 13.26 3.36 0 6.1-.91 8.22-2.46.03-.02.15-.11.18-.13 1.49-1.13 2.66-2.58 3.48-4.25.98-1.98 1.49-4.26 1.49-6.69s-.54-4.71-1.54-6.62c.18-.5.37-.95.58-1.38 1.13-2.34 2.8-3.66 4.78-3.66 3.3 0 4.78 2.53 5.34 4.34v15.68c-1.32 1.49-2.59 2.53-4.95 2.53-1.49 0-2.48-.24-3.42-1.03-.74 1.13-1.66 2.12-2.77 2.94 1.18.44 2.44.68 3.77.68 3.41 0 6-2.14 7.21-3.41l.22.06v2.42l.39.38 10.5-.38v-1.1c-.99-.06-2.58-.61-3.24-1.05z"/><path d="m51.1 47.68c-.74-.35-1.16-.82-1.36-1.4 0-.09-.03-.17-.03-.27v-29.84h-2.42l-18.71 28.45v-28.45h-2.42l-18.72 28.45c-.44.64-1.42 2.68-4.25 3.42-.79.2-3.19.43-3.19.42v1.07h15.92v-1.07c-.9-.11-1.8-.2-2.69-.38-.8-.16-1.61-.37-2.37-.68-.6-.25-1.01-.55-1.12-1.23-.07-.44.07-.87.31-1.24 1.36-2.15 11.84-18.7 11.84-18.7v23.3h6.36l14.77-23.33v19.35c0 .89-.48 1.56-1.24 2.09-.07.04-.13.09-.21.13-.68.34-3.22.58-4.1.68v1.07h17.24v-1.07c-.88-.1-3.08-.49-3.61-.78z"/><path d="m62.92 63.4c-.57-.34-1.21-.51-1.88-.51-2.1 0-3.49 1.51-3.49 3.56s1.54 3.56 3.43 3.56c.65 0 1.52-.17 1.98-.44l.08 1.26c-.69.29-1.54.33-2.07.33-2.88 0-4.8-1.85-4.8-4.74s2.03-4.67 4.81-4.67c.7 0 1.39.1 2.05.39l-.1 1.26z"/><path d="m66.87 61.9h1.3v7.95h3.81v1.15h-5.11z"/><path d="m75.74 61.9h5.09v1.15h-3.79v2.66h3.45v1.15h-3.45v3h3.79v1.15h-5.09v-9.1z"/><path d="m88.08 61.9h1.37l3.84 9.1h-1.42l-.93-2.29h-4.46l-.93 2.29h-1.37l3.88-9.1zm.64 1.23-1.81 4.51h3.62z"/><path d="m96.81 61.9h2.23c1.8 0 3.53.29 3.53 2.46 0 1.11-.82 1.89-1.88 2.07v.03c.4.16.6.35.89.91l1.72 3.62h-1.49l-1.39-3.15c-.4-.89-.83-.89-1.52-.89h-.78v4.04h-1.3v-9.1zm1.3 3.91h1.11c1.24 0 1.97-.55 1.97-1.42 0-.82-.63-1.34-1.82-1.34h-1.25v2.76z"/><path d="m113.02 61.9h1.3v7.95h3.81v1.15h-5.11z"/><path d="m124.71 61.9h1.37l3.84 9.1h-1.42l-.92-2.29h-4.46l-.92 2.29h-1.37zm.64 1.23-1.81 4.51h3.62z"/><path d="m133.59 61.9h1.3v4l3.88-4h1.73l-4.27 4.3 4.61 4.8h-1.9l-4.05-4.46v4.46h-1.3z"/><path d="m144.56 61.9h5.1v1.15h-3.79v2.66h3.45v1.15h-3.45v3h3.79v1.15h-5.1v-9.1z"/><path d="m159.99 61.9h1.3v3.81h4.35v-3.81h1.3v9.1h-1.3v-4.14h-4.35v4.14h-1.3z"/><path d="m175.52 61.74c2.76 0 4.38 2.01 4.38 4.7s-1.6 4.7-4.38 4.7-4.38-1.94-4.38-4.7 1.62-4.7 4.38-4.7zm0 8.26c2.1 0 3-1.75 3-3.56s-.99-3.57-3-3.56c-2.01-.01-3 1.71-3 3.56s.9 3.56 3 3.56z"/><path d="m188.16 63.27c-.67-.26-1.03-.38-1.71-.38-.73 0-1.59.26-1.59 1.21 0 1.75 3.91 1.34 3.91 4.34 0 1.94-1.5 2.71-3.32 2.71-.64 0-1.26-.18-1.86-.38l.13-1.21c.44.18 1.23.44 1.89.44.74 0 1.79-.42 1.79-1.49 0-2.03-3.91-1.47-3.91-4.3 0-1.62 1.28-2.48 2.92-2.48.6 0 1.32.1 1.94.33l-.18 1.2z"/><path d="m192.75 61.9h2.38c1.86 0 3.41.65 3.41 2.72s-1.58 2.74-3.22 2.74h-1.28v3.64h-1.3v-9.1zm1.3 4.31h1.29c.81 0 1.82-.4 1.82-1.6s-1.2-1.56-2.01-1.56h-1.11v3.17z"/><path d="m202.35 61.9h1.3v9.1h-1.3z"/><path d="m210.07 63.04h-2.83v-1.15h6.96v1.15h-2.83v7.95h-1.3z"/><path d="m219.94 61.9h1.37l3.84 9.1h-1.42l-.93-2.29h-4.46l-.93 2.29h-1.37l3.88-9.1zm.64 1.23-1.81 4.51h3.62z"/><path d="m228.74 61.9h1.3v7.95h3.8v1.15h-5.11v-9.1z"/><path d="m238.74 17.69c-1.59 0-2.84-1.24-2.84-2.84s1.24-2.84 2.85-2.84 2.83 1.25 2.83 2.8-1.24 2.88-2.84 2.88zm0-5.42c-1.44 0-2.59 1.14-2.59 2.59s1.15 2.57 2.58 2.57 2.57-1.15 2.57-2.57-1.12-2.59-2.57-2.59zm.69 4.38-.73-1.58h-.59v1.58h-.43v-3.59h1.06c.79 0 1.12.35 1.12 1 0 .53-.25.86-.71.96l.76 1.63h-.47zm-1.32-1.95h.62c.5 0 .69-.18.69-.63s-.18-.61-.75-.61h-.57v1.24z"/></g></svg>