<svg height="71.12" viewBox="0 0 241.46 71.12" width="241.46" xmlns="http://www.w3.org/2000/svg"><path d="m1.41.17h1.42v4.13h4.72v-4.13h1.41v9.87h-1.41v-4.5h-4.72v4.5h-1.42z" fill="#7499bb"/><path d="m19.4 0c2.99 0 4.75 2.18 4.75 5.1s-1.74 5.1-4.75 5.1-4.75-2.11-4.75-5.1 1.76-5.1 4.75-5.1m0 8.96c2.27 0 3.25-1.89 3.25-3.86s-1.07-3.87-3.25-3.86c-2.18-.01-3.25 1.85-3.25 3.86s.97 3.86 3.25 3.86" fill="#7499bb"/><path d="m38.07 5.95c0 2.77-1.4 4.25-3.83 4.25s-3.82-1.48-3.82-4.25v-5.78h1.41v5.6c0 1.9.6 3.19 2.41 3.19s2.42-1.3 2.42-3.19v-5.6h1.41z" fill="#7499bb"/><path d="m49.32 1.65c-.72-.28-1.12-.41-1.85-.41-.79 0-1.73.28-1.73 1.31 0 1.89 4.24 1.46 4.24 4.71 0 2.1-1.62 2.94-3.6 2.94-.69 0-1.37-.2-2.02-.41l.14-1.32c.48.2 1.33.48 2.05.48.81 0 1.94-.45 1.94-1.61 0-2.2-4.24-1.6-4.24-4.67 0-1.75 1.38-2.69 3.17-2.69.65 0 1.43.12 2.11.36l-.2 1.3z" fill="#7499bb"/><path d="m58.47 1.42h-3.06v-1.25h7.54v1.25h-3.06v8.62h-1.42z" fill="#7499bb"/><path d="m72.48 0c3 0 4.75 2.18 4.75 5.1s-1.74 5.1-4.75 5.1-4.75-2.11-4.75-5.1 1.75-5.1 4.75-5.1m0 8.96c2.27 0 3.25-1.89 3.25-3.86s-1.07-3.87-3.25-3.86c-2.18-.01-3.25 1.85-3.25 3.86s.97 3.86 3.25 3.86" fill="#7499bb"/><path d="m83.46.17h1.92l4.36 7.95h.03v-7.95h1.41v9.87h-1.81l-4.47-8.11h-.02v8.11h-1.42z" fill="#7499bb"/><g fill="#124b7f"><path d="m54.68 36.93c0-6.9 4.39-13.24 12.24-13.24s10.9 5.12 10.9 10.85v.61h-16.24v.61c0 6.89 2.22 11.9 7.95 11.9 3.89 0 5.73-1.39 7.78-5.01l1.06.72c-2 4.06-5.9 7.12-10.96 7.12-8.73 0-12.73-6.12-12.73-13.57m16.3-3.28c0-4.12-.5-8.62-4.28-8.62-3.06 0-4.95 3.33-5.12 8.73z"/><path d="m84.89 42.71v-15.74h-5.06v-2.39h5.17v-8.34h6.17v8.34h7.4v2.39h-7.34v15.18c0 2.78.84 4.95 3.78 4.95 2.78 0 3.06-2.23 3.28-4.51h1.34c-.33 4.22-2.72 7.9-7.62 7.9s-7.12-2.83-7.12-7.79"/><path d="m100.41 48.4c1-.06 1.67-.17 2.45-.45 1.06-.33 1.44-1.22 1.44-2.45v-31.64c-.05-1.22-.61-2.61-1.5-3.22-.67-.45-2.72-.83-3.73-.89v-1.11l11.24-.61.33.39v19.57h.11c2.11-2.12 4.23-4.57 8.95-4.57 5.12 0 7.46 3.45 7.46 8.73v13.13c0 1.22.39 2.06 1.39 2.5.78.33 1.44.5 2.45.62v1.11h-13.85v-1.11c.83-.06 1.67-.17 2.33-.45.95-.33 1.22-1.22 1.22-2.45v-13.41c0-3.78-1.83-5.73-4-5.73-3.56 0-5.45 2.4-6.06 3.67v15.18c0 1.22.39 2 1.28 2.5.78.39 1.56.61 2.39.67v1.11h-13.9v-1.11z"/><path d="m178.8 48.4c1-.06 1.67-.17 2.45-.45 1-.33 1.44-1.34 1.44-2.45v-16.18c-.05-1.22-.55-2.17-1.44-2.78-.67-.45-2.28-1-3.28-1.06v-1.06l10.73-.67.39.39v21.02c0 1.17.5 2.11 1.5 2.56.83.39 1.67.55 2.45.67v1.11h-14.23v-1.11zm2.5-35.26c0-2.28 1.83-4.06 4.06-4.06s4.11 1.72 4.11 3.95-1.78 4.12-4.11 4.12-4.06-1.78-4.06-4.01"/><path d="m197.51 48.22-.78 1.67h-1.78l-.28-8.96h1.17c.83 3.01 4.17 8.23 8.68 8.23 3.45 0 4.78-1.89 4.78-4.56 0-2.89-2.45-4.06-6.45-5.28-3.61-1.11-7.45-3.23-7.45-8.17 0-4.18 3.39-7.51 9.01-7.51 3 0 5.23.89 6.23 1.44l.56-1.5h1.67l.39 8.12h-1.11c-.89-3.44-3.62-6.72-7.4-6.72-2.83 0-4.06 1.83-4.06 3.89 0 3 2.06 3.73 6.28 5.12 4.51 1.5 7.51 3.73 7.51 8.29 0 5.23-4.34 8.23-9.9 8.23-3.11 0-6.06-1.33-7.06-2.28"/><path d="m220.71 42.71v-15.74h-5.06v-2.39h5.17v-8.34h6.17v8.34h7.4v2.39h-7.34v15.18c0 2.78.83 4.95 3.78 4.95 2.78 0 3.06-2.23 3.28-4.51h1.34c-.34 4.22-2.73 7.9-7.62 7.9s-7.12-2.83-7.12-7.79"/><path d="m174.27 47.37c-.88-.61-1.32-1.48-1.43-2.64v-35.62l-.38-.39-12.1.6v1.04c1.49.11 3.85.6 4.79 1.26.88.55 1.37 1.98 1.43 3.14v10.55c-.82-.33-3.24-1.38-6.49-1.38-2.69 0-5.28.95-7.39 2.61-.31.25-.62.51-.91.79-.85.81-1.59 1.75-2.19 2.81-1.1 1.9-1.76 4.18-1.76 6.71 0 2.87.6 5.37 1.64 7.43-.19.62-.42 1.19-.67 1.71-.97 1.96-2.41 3.18-4.46 3.18-4.56 0-6.1-5.77-6.1-12.32 0-5.28 1.05-11.65 6.16-11.65.87 0 1.63.22 2.28.59.37.22.7.49 1 .81.04-.06.1-.14.17-.22.11-.12.22-.24.34-.36.56-.56 1.35-1.22 1.35-1.22-.32-.12-.66-.21-1-.31-.15-.05-.87-.24-.97-.26 0 0-.53-.11-.81-.14-.78-.11-1.57-.14-2.36-.14-8.03 0-13.25 5.44-13.25 13.3 0 8.25 5.94 13.25 12.92 13.25 3.35 0 6.1-.91 8.21-2.46.03-.02.15-.11.18-.13 1.49-1.13 2.66-2.58 3.48-4.25.98-1.98 1.49-4.25 1.49-6.69s-.54-4.7-1.54-6.61c.18-.5.37-.95.58-1.38 1.13-2.34 2.8-3.66 4.78-3.66 3.3 0 4.78 2.53 5.33 4.34v15.67c-1.32 1.49-2.58 2.53-4.95 2.53-1.49 0-2.47-.24-3.42-1.03-.74 1.13-1.66 2.12-2.77 2.94 1.18.44 2.44.68 3.77.68 3.41 0 5.99-2.14 7.2-3.41l.22.06v2.42l.39.38 10.5-.38v-1.1c-.99-.06-2.58-.61-3.24-1.05z"/><path d="m51.07 47.66c-.74-.35-1.16-.82-1.36-1.4 0-.09-.03-.17-.03-.27v-29.82h-2.42l-18.7 28.44v-28.44h-2.42l-18.7 28.43c-.44.64-1.42 2.68-4.25 3.42-.79.2-3.19.43-3.19.41v1.07h15.91v-1.07c-.9-.11-1.8-.2-2.68-.38-.8-.16-1.61-.37-2.36-.68-.6-.25-1-.55-1.12-1.23-.07-.44.07-.86.31-1.24 1.36-2.15 11.84-18.69 11.84-18.69v23.29h6.36l14.76-23.32v19.34c0 .89-.48 1.56-1.24 2.09-.07.04-.13.09-.21.13-.68.34-3.22.58-4.1.68v1.07h17.23v-1.07c-.88-.1-3.07-.49-3.61-.78z"/><path d="m73.98 61.87h2.46c1.89 0 3.19.61 3.19 2.29 0 1.25-.73 1.88-1.88 2.16v.03c1.24.1 2.11.91 2.11 2.19 0 1.96-1.62 2.42-3.47 2.42h-2.42v-9.1zm1.3 3.88h.72c1.26 0 2.33-.12 2.33-1.46 0-1.08-.93-1.36-1.68-1.36h-1.37v2.81zm0 4.14h.98c1.17 0 2.23-.25 2.23-1.47 0-1.41-1.24-1.6-2.36-1.6h-.85v3.08z"/><path d="m87.18 61.87h1.37l3.84 9.1h-1.42l-.93-2.29h-4.46l-.93 2.29h-1.37l3.88-9.1zm.64 1.22-1.81 4.51h3.62z"/><path d="m97.48 67.16-3.56-5.29h1.52l2.71 4.08 2.65-4.08h1.52l-3.54 5.29v3.8h-1.3z"/><path d="m107.72 63.01h-2.83v-1.15h6.96v1.15h-2.83v7.95h-1.3z"/><path d="m119.34 61.71c2.76 0 4.38 2.01 4.38 4.7s-1.6 4.7-4.38 4.7-4.38-1.94-4.38-4.7 1.62-4.7 4.38-4.7zm0 8.26c2.1 0 3-1.75 3-3.56s-.99-3.57-3-3.56c-2.01-.01-3 1.71-3 3.56s.9 3.56 3 3.56z"/><path d="m126.71 61.87h1.43l2.18 7.79h.03l1.94-7.79h1.85l1.97 7.79h.03l2.18-7.79h1.38l-2.8 9.1h-1.68l-1.98-7.95h-.03l-1.99 7.95h-1.75l-2.75-9.1z"/><path d="m143.13 61.87h1.77l4.01 7.32h.03v-7.32h1.3v9.1h-1.67l-4.12-7.48h-.03v7.48h-1.3v-9.1z"/><path d="m160.79 61.87h1.3v3.8h4.35v-3.8h1.3v9.1h-1.3v-4.14h-4.35v4.14h-1.3z"/><path d="m176.32 61.71c2.76 0 4.38 2.01 4.38 4.7s-1.6 4.7-4.38 4.7-4.38-1.94-4.38-4.7 1.62-4.7 4.38-4.7zm0 8.26c2.1 0 3-1.75 3-3.56s-.99-3.57-3-3.56c-2.01-.01-3 1.71-3 3.56s.9 3.56 3 3.56z"/><path d="m188.96 63.23c-.67-.26-1.03-.38-1.71-.38-.73 0-1.59.26-1.59 1.21 0 1.75 3.91 1.34 3.91 4.34 0 1.94-1.5 2.71-3.32 2.71-.64 0-1.26-.18-1.86-.38l.13-1.21c.44.18 1.23.44 1.89.44.74 0 1.79-.42 1.79-1.49 0-2.03-3.91-1.47-3.91-4.3 0-1.62 1.28-2.48 2.92-2.48.6 0 1.32.1 1.94.33l-.18 1.2z"/><path d="m193.54 61.87h2.38c1.86 0 3.41.65 3.41 2.72s-1.58 2.74-3.22 2.74h-1.28v3.64h-1.3v-9.1zm1.3 4.31h1.29c.81 0 1.82-.4 1.82-1.6s-1.2-1.56-2.01-1.56h-1.11v3.17z"/><path d="m203.14 61.87h1.3v9.1h-1.3z"/><path d="m210.85 63.01h-2.83v-1.15h6.96v1.15h-2.83v7.95h-1.3z"/><path d="m220.72 61.87h1.37l3.84 9.1h-1.42l-.93-2.29h-4.46l-.93 2.29h-1.37l3.88-9.1zm.64 1.22-1.81 4.51h3.62z"/><path d="m229.51 61.87h1.3v7.95h3.8v1.15h-5.11v-9.1z"/></g><path d="m238.63 17.68c-1.59 0-2.84-1.24-2.84-2.84s1.24-2.84 2.84-2.84 2.83 1.25 2.83 2.8-1.24 2.88-2.84 2.88zm0-5.42c-1.44 0-2.59 1.14-2.59 2.59s1.15 2.57 2.58 2.57 2.57-1.15 2.57-2.57-1.12-2.59-2.57-2.59zm.69 4.37-.73-1.58h-.59v1.58h-.43v-3.58h1.06c.79 0 1.12.35 1.12 1 0 .53-.25.86-.71.96l.76 1.63h-.47zm-1.32-1.95h.62c.5 0 .69-.18.69-.63s-.18-.61-.75-.61h-.57v1.24z" fill="#7499bb"/></svg>