<?xml version="1.0" encoding="utf-8"?>
<!-- Generator: Adobe Illustrator 22.1.0, SVG Export Plug-In . SVG Version: 6.00 Build 0)  -->
<svg version="1.1" id="Layer_1" xmlns="http://www.w3.org/2000/svg" xmlns:xlink="http://www.w3.org/1999/xlink" x="0px" y="0px"
	 viewBox="0 0 405.8 217.3" style="enable-background:new 0 0 405.8 217.3;" xml:space="preserve">
<style type="text/css">
	.st0{fill:#67CFE3;}
	.st1{fill:#72BF48;}
	.st2{fill:#008AAB;}
	.st3{fill:#0075C9;}
</style>
<title>Artboard 1 copy 2</title>
<path class="st0" d="M364.7,30.6C352.7,8.9,334.1-4.3,323.1,1.3c-8.5,4.3-10,18.4-4.7,34.7c6.1,0.5,12.1,1.5,17.9,3.3
	c23.8,6.9,40,22,36.1,33.7C376.2,63.3,373.6,46.9,364.7,30.6z"/>
<path class="st1" d="M324.8,50.7c-2.6-4.7-4.8-9.7-6.4-14.8c-16.3-1.1-29.4,3.2-32.2,11.9c-3.9,11.7,12.3,26.8,36.2,33.7
	c18.9,5.5,36.9,4.2,45.5-2.4c-0.5,0.3-0.9,0.6-1.4,0.9C355.4,85.6,336.8,72.4,324.8,50.7z"/>
<path class="st2" d="M336.3,39.2c-5.8-1.7-11.9-2.8-17.9-3.2c1.7,5.1,3.8,10.1,6.4,14.8c12,21.8,30.6,34.9,41.6,29.4
	c0.5-0.3,1-0.5,1.4-0.9c2.2-1.6,3.8-3.8,4.7-6.3C376.3,61.2,360.1,46.1,336.3,39.2z"/>
<path class="st3" d="M42.1,162.4v-7.5c-1.9,2.6-4.4,4.8-7.2,6.3c-3,1.6-6.3,2.5-9.7,2.4c-3.1,0-6.2-0.6-9-1.8
	c-2.7-1.2-5.2-3-7.1-5.2c-2.1-2.4-3.7-5.2-4.6-8.3c-2.2-7.2-2.2-14.8,0-22c1-3.1,2.6-5.9,4.6-8.3c1.9-2.3,4.4-4.1,7.1-5.3
	c2.8-1.3,5.9-1.9,9-1.9c3.3,0,6.6,0.8,9.5,2.3c3,1.6,5.5,3.8,7.5,6.5v-7.6h7.8v50.3L42.1,162.4z M27.1,156.7c3.1,0,6.1-0.8,8.8-2.4
	c2.5-1.3,4.6-3.3,6.2-5.7v-22.7c-1.6-2.4-3.7-4.4-6.2-5.7c-2.7-1.6-5.7-2.4-8.8-2.4c-2.4,0-4.7,0.5-6.9,1.5c-2,1-3.7,2.3-5.1,4.1
	c-1.4,1.8-2.5,4-3.2,6.2c-0.7,2.5-1.1,5.1-1.1,7.8c0,2.6,0.4,5.2,1.1,7.7c0.7,2.2,1.7,4.3,3.2,6.1c1.4,1.7,3.1,3.1,5.1,4.1
	C22.4,156.2,24.8,156.7,27.1,156.7z"/>
<path class="st3" d="M79,162.4l-21-50.3h8.5l16.7,41.2l16.8-41.3h8.4l-20.9,50.3H79z"/>
<path class="st3" d="M139.4,163.6c-3.5,0-7.1-0.6-10.4-1.9c-3.1-1.2-5.8-3.1-8.1-5.4c-2.3-2.4-4.1-5.2-5.3-8.3
	c-1.3-3.4-2-7.1-1.9-10.8c0-3.5,0.6-7,1.9-10.3c1.2-3.1,2.9-6,5.2-8.4c2.2-2.4,4.9-4.3,7.8-5.6c3.1-1.4,6.5-2.1,9.9-2.1
	c3.5-0.1,7,0.7,10.2,2.1c2.9,1.3,5.5,3.3,7.6,5.7c2.1,2.5,3.7,5.4,4.7,8.6c1.1,3.4,1.6,7,1.6,10.6v2H122c0.1,2.3,0.7,4.6,1.6,6.7
	c0.9,2.1,2.1,3.9,3.7,5.5c1.6,1.6,3.5,2.9,5.5,3.8c2.3,1,4.8,1.4,7.3,1.4c2.9,0,5.8-0.6,8.5-1.7c2.7-1.1,5.1-2.7,7.1-4.8l3.8,5.1
	c-2.5,2.5-5.6,4.4-8.9,5.8C147,163,143.2,163.7,139.4,163.6z M154.9,133.9c0-2-0.4-3.9-1-5.7c-0.7-2-1.7-3.8-3-5.4
	c-1.4-1.7-3.2-3-5.1-4c-2.3-1.1-4.8-1.6-7.4-1.6c-2.4-0.1-4.9,0.5-7.1,1.5c-1.9,1-3.6,2.3-5,4c-1.3,1.6-2.4,3.4-3.1,5.4
	c-0.7,1.9-1.1,3.8-1.2,5.8L154.9,133.9z"/>
<path class="st3" d="M211.7,162.3v-7.5c-1.9,2.6-4.4,4.8-7.2,6.3c-3,1.6-6.3,2.5-9.7,2.4c-3.1,0-6.2-0.6-9-1.8
	c-2.7-1.2-5.1-3-7.1-5.2c-2.1-2.4-3.7-5.2-4.6-8.3c-2.2-7.2-2.2-14.8,0-22c1-3.1,2.6-5.9,4.6-8.3c1.9-2.3,4.4-4.1,7.1-5.3
	c2.8-1.3,5.9-1.9,9-1.9c3.3,0,6.6,0.8,9.5,2.3c3,1.6,5.5,3.8,7.5,6.5V112h7.8v50.3L211.7,162.3z M196.7,156.6c3.1,0,6.1-0.8,8.8-2.4
	c2.5-1.3,4.6-3.3,6.2-5.7v-22.7c-1.6-2.4-3.7-4.4-6.2-5.7c-2.7-1.6-5.7-2.4-8.8-2.4c-2.4,0-4.7,0.5-6.9,1.5c-2,0.9-3.7,2.3-5.1,4.1
	c-1.4,1.8-2.5,3.9-3.2,6.2c-1.5,5.1-1.5,10.4,0,15.5c0.7,2.2,1.7,4.3,3.2,6.1c1.4,1.7,3.1,3.1,5.1,4.1
	C192,156.2,194.4,156.6,196.7,156.6L196.7,156.6z"/>
<path class="st3" d="M269.2,162.3v-32.9c0-4.4-1-7.5-3.1-9.2c-2.4-1.8-5.3-2.6-8.2-2.5c-3.1,0-6,0.8-8.6,2.4
	c-2.4,1.4-4.5,3.2-6.2,5.4v36.8h-7.8V112h7.8v7.3c1-1.1,2.1-2.2,3.2-3.1c1.3-1.1,2.7-2,4.2-2.8c1.6-0.8,3.3-1.5,5.1-2
	c1.8-0.5,3.6-0.7,5.5-0.7c5.2,0,9.2,1.3,11.9,4c2.7,2.7,4.1,6.8,4,12.3v35.3L269.2,162.3z"/>
<path class="st3" d="M326.8,162.3v-32.9c0-4.4-1-7.5-3.1-9.2c-2.4-1.8-5.3-2.6-8.2-2.5c-3.1,0-6,0.8-8.6,2.4
	c-2.4,1.4-4.5,3.2-6.2,5.4v36.8h-7.8V112h7.8v7.3c1-1.1,2.1-2.2,3.2-3.1c1.3-1.1,2.7-2,4.2-2.8c2.1-1.1,4.4-1.9,6.7-2.3
	c0.8-0.2,1.6-0.3,2.4-0.3c6-0.3,10.4,1.1,13.4,4c2.7,2.7,4.1,6.7,4.1,12.2v35.3H326.8z"/>
<path class="st3" d="M386.6,162.3v-7.5c-1.9,2.6-4.4,4.8-7.2,6.3c-3,1.6-6.3,2.5-9.7,2.4c-3.1,0-6.2-0.6-9-1.8
	c-2.7-1.2-5.1-3-7.1-5.2c-2.1-2.4-3.6-5.2-4.6-8.3c-1.2-3.6-1.7-7.3-1.7-11c0-3.7,0.5-7.4,1.7-10.9c1-3.1,2.6-5.9,4.6-8.3
	c1.9-2.3,4.4-4.1,7.1-5.3c2.8-1.3,5.9-1.9,9-1.9c3.3,0,6.6,0.8,9.5,2.3c3,1.6,5.5,3.8,7.5,6.5V112h7.8v50.3L386.6,162.3z
	 M371.6,156.6c3.1,0,6.1-0.8,8.8-2.4c2.5-1.3,4.6-3.3,6.2-5.7v-22.7c-1.6-2.4-3.7-4.4-6.2-5.7c-2.7-1.6-5.7-2.4-8.8-2.4
	c-2.4,0-4.7,0.5-6.9,1.5c-2,1-3.7,2.3-5.1,4.1c-1.4,1.8-2.5,3.9-3.2,6.2c-0.7,2.5-1.1,5.1-1.1,7.8c0,2.6,0.3,5.2,1.1,7.7
	c0.7,2.2,1.7,4.3,3.2,6.1c1.4,1.7,3.1,3.1,5.1,4.1C366.9,156.1,369.3,156.6,371.6,156.6z"/>
<path class="st3" d="M156.8,216.6v-17.7c0-4.8-2.4-6.1-6.1-6.1c-3.1,0.1-6,1.7-7.9,4.2v19.6h-4.2v-37.1h4.2v14.1
	c2.4-2.8,5.9-4.5,9.6-4.6c5.6,0,8.6,2.7,8.6,8.6v19L156.8,216.6z"/>
<path class="st3" d="M166.8,203.2c0-7.8,5.6-14.1,13.2-14.1c8.1,0,12.9,6.3,12.9,14.4v1h-21.7c0.3,5.1,3.8,9.3,9.6,9.3
	c3.1,0,6.1-1.2,8.3-3.4l2,2.7c-2.9,2.8-6.7,4.3-10.7,4.2C172.5,217.3,166.8,211.6,166.8,203.2z M179.9,192.5c-5.7,0-8.6,4.8-8.8,8.9
	h17.6C188.7,197.5,186.1,192.5,179.9,192.5L179.9,192.5z"/>
<path class="st3" d="M219.1,216.6v-4c-2.1,2.9-5.5,4.6-9.1,4.7c-7,0-11.9-5.3-11.9-14s4.9-14.2,11.9-14.2c3.6,0,7,1.8,9.1,4.7v-4.1
	h4.2v26.8H219.1z M219.1,209.3v-12.1c-1.8-2.6-4.8-4.3-8-4.3c-5.4,0-8.7,4.4-8.7,10.4s3.2,10.3,8.7,10.3
	C214.3,213.5,217.2,211.9,219.1,209.3z"/>
<path class="st3" d="M231.9,211l-0.3-31.5h4.2v30.6c0,2,0.9,3.4,2.7,3.4c1.1,0,2.2-0.4,3.1-1.2l1.3,3.2c-1.4,1.1-3.2,1.7-5,1.7
	C233.9,217.2,231.9,215,231.9,211z"/>
<path class="st3" d="M247.6,211v-17.6h-4.4v-3.7h4.4v-7.3h4.2v7.3h5.5v3.7h-5.4v16.7c0,2,0.9,3.4,2.7,3.4c1.1,0,2.1-0.4,2.8-1.2
	l1.2,3.2c-1.3,1.2-3.1,1.8-4.9,1.7C249.6,217.2,247.6,215,247.6,211z"/>
<path class="st3" d="M281.5,216.6v-17.7c0-4.8-2.4-6.1-6.1-6.1c-3.1,0.1-6,1.7-7.9,4.2v19.6h-4.2v-37.1h4.2v14.1
	c2.4-2.8,5.9-4.5,9.6-4.6c5.6,0,8.6,2.7,8.6,8.6v18.9L281.5,216.6z"/>
<path class="st3" d="M292.1,203.1c0-8,5.4-14.1,13.4-14.1c3.9-0.2,7.5,1.6,9.8,4.7l-2.8,2.5c-1.5-2.3-4.1-3.6-6.8-3.4
	c-5.7,0-9.3,4.4-9.3,10.3s3.6,10.4,9.3,10.4c2.7,0.1,5.3-1.3,6.8-3.5l2.8,2.6c-2.3,3.1-6,4.9-9.8,4.7
	C297.5,217.2,292.1,211.1,292.1,203.1z"/>
<path class="st3" d="M340.7,216.6v-4c-2.1,2.9-5.5,4.6-9.1,4.7c-7,0-12-5.3-12-14.1s4.9-14.1,11.9-14.1c3.6,0,7,1.8,9.1,4.7v-4.1
	h4.2v26.9L340.7,216.6z M340.7,209.2v-12.1c-1.8-2.6-4.8-4.3-8-4.3c-5.5,0-8.7,4.4-8.7,10.4s3.2,10.3,8.7,10.3
	C335.9,213.4,338.9,211.9,340.7,209.2z"/>
<path class="st3" d="M352.9,216.6v-26.8h4.2v4.3c2.2-2.8,5.3-4.9,9-4.9v4.3c-0.5-0.1-1.1-0.1-1.6-0.1c-3,0.2-5.7,1.8-7.3,4.3v19
	L352.9,216.6z"/>
<path class="st3" d="M367.6,203.1c0-7.8,5.5-14.1,13.2-14.1c8.1,0,12.9,6.3,12.9,14.4v1.1H372c0.3,5,3.8,9.3,9.6,9.3
	c3.1,0,6.1-1.2,8.3-3.4l2,2.7c-2.9,2.8-6.7,4.3-10.7,4.2C373.3,217.2,367.6,211.5,367.6,203.1z M380.8,192.5c-5.7,0-8.6,4.8-8.8,8.9
	h17.6C389.5,197.4,386.9,192.5,380.8,192.5L380.8,192.5z"/>
<path class="st3" d="M396.5,194c0-2.6,2.1-4.7,4.7-4.7c2.6,0,4.7,2.1,4.7,4.7c0,2.6-2.1,4.7-4.7,4.7c0,0,0,0,0,0
	C398.6,198.7,396.5,196.6,396.5,194C396.5,194,396.5,194,396.5,194z M397.3,194c0,2.2,1.7,3.9,3.9,3.9s3.9-1.7,3.9-3.9
	s-1.7-3.9-3.9-3.9c0,0,0,0,0,0C399,190.1,397.3,191.8,397.3,194z M401,194.6h-0.9v2.1h-0.8v-5.3h2.2c0.9-0.1,1.7,0.6,1.8,1.5
	c0,0,0,0.1,0,0.1c0,0.8-0.6,1.5-1.4,1.6l1.4,2.1h-1L401,194.6z M400.2,192v1.9h1.4c0.5,0.1,0.9-0.3,1-0.7c0-0.1,0-0.1,0-0.2
	c0.1-0.5-0.3-0.9-0.7-1c-0.1,0-0.2,0-0.3,0L400.2,192z"/>
</svg>
