<svg id="Layer_1" data-name="Layer 1" xmlns="http://www.w3.org/2000/svg" viewBox="0 0 242.27 71.32"><defs><style>.cls-1{fill:#749abb;}.cls-2{fill:#124b7f;}</style></defs><title>Methodist_Leading_Medicine_4C</title><polygon class="cls-1" points="1.42 0.17 2.84 0.17 2.84 4.32 7.58 4.32 7.58 0.17 9 0.17 9 10.08 7.58 10.08 7.58 5.57 2.84 5.57 2.84 10.08 1.42 10.08 1.42 0.17"/><path class="cls-1" d="M19.49,0c3,0,4.77,2.19,4.77,5.13s-1.75,5.13-4.77,5.13-4.77-2.12-4.77-5.13S16.48,0,19.49,0m0,9c2.28,0,3.26-1.9,3.26-3.88s-1.08-3.89-3.26-3.87-3.27,1.86-3.27,3.88S17.2,9,19.49,9"/><path class="cls-1" d="M38.24,6c0,2.78-1.41,4.27-3.85,4.27S30.55,8.76,30.55,6V.17H32V5.79C32,7.7,32.57,9,34.39,9s2.43-1.3,2.43-3.21V.17h1.42Z"/><path class="cls-1" d="M49.55,1.66a4.36,4.36,0,0,0-1.86-.41c-.8,0-1.74.29-1.74,1.32C46,4.47,50.21,4,50.21,7.3c0,2.11-1.63,3-3.62,3a6.69,6.69,0,0,1-2-.41l.14-1.32A6,6,0,0,0,46.76,9a1.77,1.77,0,0,0,1.95-1.62c0-2.21-4.26-1.61-4.26-4.69C44.45.94,45.84,0,47.63,0a6.58,6.58,0,0,1,2.12.36Z"/><polygon class="cls-1" points="58.74 1.42 55.66 1.42 55.66 0.17 63.24 0.17 63.24 1.42 60.16 1.42 60.16 10.08 58.74 10.08 58.74 1.42"/><path class="cls-1" d="M72.81,0c3,0,4.77,2.19,4.77,5.13s-1.75,5.13-4.77,5.13S68,8.14,68,5.13,69.8,0,72.81,0m0,9c2.29,0,3.26-1.9,3.26-3.88S75,1.24,72.81,1.25s-3.27,1.86-3.27,3.88S70.53,9,72.81,9"/><polygon class="cls-1" points="83.84 0.17 85.78 0.17 90.15 8.15 90.18 8.15 90.18 0.17 91.59 0.17 91.59 10.08 89.78 10.08 85.29 1.94 85.26 1.94 85.26 10.08 83.84 10.08 83.84 0.17"/><path class="cls-2" d="M67.63,62.14h1.3V70H72.7v1.14H67.63Z"/><path class="cls-2" d="M77.59,62.14h5.06v1.14H78.88v2.64h3.43v1.14H78.88v3h3.76v1.14H77.59Z"/><path class="cls-2" d="M91,62.14h1.36l3.81,9H94.76l-.92-2.28H89.42l-.92,2.28H87.14Zm.63,1.21-1.8,4.48h3.59Z"/><path class="cls-2" d="M100.83,62.14h2.66c2.68,0,4.81,1.65,4.81,4.44,0,3-1.84,4.59-4.81,4.59h-2.66ZM102.12,70h1.36c2.22,0,3.45-1.07,3.45-3.4a3.15,3.15,0,0,0-3.3-3.35h-1.51Z"/><path class="cls-2" d="M113.33,62.14h1.29v9h-1.29v-9Z"/><path class="cls-2" d="M120.47,62.14h1.76l4,7.27h0V62.14h1.3v9h-1.66l-4.09-7.42h0v7.42h-1.29Z"/><path class="cls-2" d="M140.1,63.74a4.17,4.17,0,0,0-2.49-.62,3.53,3.53,0,0,0-.07,7.06A5.15,5.15,0,0,0,139,70V67.28h-1.9V66.22h3.2v4.69a8.22,8.22,0,0,1-2.76.4,4.45,4.45,0,0,1-4.76-4.71A4.5,4.5,0,0,1,137.55,62a6.81,6.81,0,0,1,2.65.45Z"/><path class="cls-2" d="M153.24,62.14h2.13l2.83,7.5,2.78-7.5h2.13v9h-1.29V63.35h0l-3,7.81h-1.27l-3-7.81h0v7.81h-1.29Z"/><path class="cls-2" d="M168.92,62.14H174v1.14h-3.76v2.64h3.43v1.14h-3.43v3H174v1.14h-5.06Z"/><path class="cls-2" d="M179.4,62.14h2.66c2.68,0,4.81,1.65,4.81,4.44,0,3-1.84,4.59-4.81,4.59H179.4ZM180.69,70H182c2.22,0,3.45-1.07,3.45-3.4a3.15,3.15,0,0,0-3.3-3.35h-1.51Z"/><path class="cls-2" d="M192.24,62.14h1.29v9h-1.29v-9Z"/><path class="cls-2" d="M205,63.63a3.63,3.63,0,0,0-1.86-.5,3.53,3.53,0,0,0-.06,7.06,4.47,4.47,0,0,0,2-.44l.08,1.25a5.62,5.62,0,0,1-2.06.32,4.45,4.45,0,0,1-4.76-4.71A4.5,4.5,0,0,1,203.08,62a5,5,0,0,1,2,.39Z"/><path class="cls-2" d="M210.57,62.14h1.29v9h-1.29v-9Z"/><path class="cls-2" d="M217.57,62.14h1.76l4,7.27h0V62.14h1.29v9H223l-4.08-7.42h0v7.42h-1.29Z"/><path class="cls-2" d="M230.41,62.14h5.05v1.14h-3.76v2.64h3.43v1.14h-3.43v3h3.76v1.14h-5.05Z"/><path class="cls-2" d="M151.8,28.25"/><path class="cls-2" d="M54.93,37.1c0-6.93,4.41-13.3,12.29-13.3,8,0,11,5.14,11,10.9v.62H61.86v.62c0,6.93,2.23,12,8,12,3.91,0,5.75-1.4,7.82-5l1.06.73a12.23,12.23,0,0,1-11,7.15c-8.77,0-12.79-6.15-12.79-13.63m16.37-3.3c0-4.14-.5-8.66-4.3-8.66-3.07,0-5,3.35-5.14,8.77Z"/><path class="cls-2" d="M85.28,42.91V27.1H80.2V24.7h5.2V16.32h6.2V24.7H99v2.4H91.65V42.35c0,2.79.84,5,3.8,5,2.79,0,3.08-2.24,3.29-4.53h1.34c-.34,4.24-2.74,7.93-7.65,7.93s-7.15-2.85-7.15-7.82"/><path class="cls-2" d="M100.87,48.63a8.18,8.18,0,0,0,2.46-.45c1.06-.33,1.45-1.23,1.45-2.46V13.92a4.35,4.35,0,0,0-1.51-3.24,10.74,10.74,0,0,0-3.74-.89V8.67l11.29-.62.33.39V28.12h.11c2.12-2.13,4.25-4.59,9-4.59,5.14,0,7.49,3.46,7.49,8.77V45.5a2.42,2.42,0,0,0,1.4,2.51,8.06,8.06,0,0,0,2.46.62v1.12H117.69V48.63a7.76,7.76,0,0,0,2.34-.45c1-.33,1.23-1.23,1.23-2.46V32.25c0-3.8-1.84-5.75-4-5.75a6.7,6.7,0,0,0-6.09,3.69V45.44A2.57,2.57,0,0,0,112.44,48a6.3,6.3,0,0,0,2.4.67v1.12h-14Z"/><path class="cls-2" d="M179.62,48.63a8.18,8.18,0,0,0,2.46-.45,2.38,2.38,0,0,0,1.45-2.46V29.46a3.39,3.39,0,0,0-1.45-2.79,8.46,8.46,0,0,0-3.3-1.06V24.54l10.78-.67.39.39V45.38A2.63,2.63,0,0,0,191.46,48a8.72,8.72,0,0,0,2.46.67v1.12h-14.3Zm2.52-35.43a4.06,4.06,0,0,1,4.08-4.08,4,4,0,0,1,4.13,4,4.1,4.1,0,0,1-8.21.11"/><path class="cls-2" d="M198.42,48.44l-.78,1.68h-1.79l-.28-9h1.18c.84,3,4.19,8.27,8.71,8.27,3.46,0,4.8-1.89,4.8-4.58,0-2.9-2.46-4.08-6.48-5.31-3.63-1.12-7.49-3.24-7.49-8.21,0-4.19,3.41-7.54,9.05-7.54a13.33,13.33,0,0,1,6.26,1.45l.56-1.51h1.68l.39,8.15h-1.12c-.89-3.46-3.63-6.76-7.43-6.76A3.71,3.71,0,0,0,201.6,29c0,3,2.07,3.74,6.31,5.14,4.53,1.51,7.54,3.75,7.54,8.33,0,5.25-4.36,8.27-9.94,8.27a11.86,11.86,0,0,1-7.09-2.29"/><path class="cls-2" d="M221.72,42.91V27.1h-5.08V24.7h5.2V16.32H228V24.7h7.43v2.4h-7.38V42.35c0,2.79.83,5,3.8,5,2.8,0,3.07-2.24,3.3-4.53h1.34c-.34,4.24-2.74,7.93-7.66,7.93s-7.15-2.85-7.15-7.82"/><path class="cls-2" d="M175.07,47.58a3.38,3.38,0,0,1-1.44-2.65V9.15l-.38-.39-12.16.61v1a12.37,12.37,0,0,1,4.81,1.27,4.17,4.17,0,0,1,1.43,3.15v10.6a16.83,16.83,0,0,0-6.52-1.38,12,12,0,0,0-7.43,2.62c-.32.25-.62.52-.91.79a12.55,12.55,0,0,0-2.2,2.82A13.34,13.34,0,0,0,148.5,37a16.41,16.41,0,0,0,1.65,7.46,11.81,11.81,0,0,1-.68,1.72c-1,2-2.42,3.2-4.48,3.2-4.58,0-6.13-5.8-6.13-12.37,0-5.3,1.05-11.71,6.18-11.71a4.57,4.57,0,0,1,2.29.59,4.67,4.67,0,0,1,1,.81,1.84,1.84,0,0,1,.17-.23l.34-.36c.57-.57,1.36-1.22,1.36-1.22-.32-.12-.67-.21-1-.31-.15-.05-.87-.24-1-.26l-.81-.14a16.83,16.83,0,0,0-2.37-.14c-8.07,0-13.31,5.47-13.31,13.36,0,8.29,6,13.31,13,13.31A13.73,13.73,0,0,0,153,48.26l.18-.13a11.94,11.94,0,0,0,3.5-4.27,15.12,15.12,0,0,0,1.5-6.72,14.19,14.19,0,0,0-1.55-6.64,12.7,12.7,0,0,1,.58-1.39c1.14-2.35,2.81-3.68,4.8-3.68,3.32,0,4.8,2.54,5.36,4.36V45.54c-1.33,1.49-2.6,2.54-5,2.54a4.82,4.82,0,0,1-3.43-1,11.71,11.71,0,0,1-2.78,3,10.87,10.87,0,0,0,3.78.68,10.41,10.41,0,0,0,7.23-3.43l.22.06v2.43l.39.39,10.54-.38V48.63A8.38,8.38,0,0,1,175.07,47.58Z"/><path class="cls-2" d="M51.31,47.88a2.43,2.43,0,0,1-1.36-1.41c0-.09,0-.17,0-.27v-30H47.48L28.69,44.81V16.24H26.26L7.48,44.81a6.88,6.88,0,0,1-4.27,3.44A29.82,29.82,0,0,1,0,48.66v1.08H16V48.66c-.9-.11-1.81-.2-2.7-.38a12.53,12.53,0,0,1-2.38-.69,1.54,1.54,0,0,1-1.12-1.23,1.78,1.78,0,0,1,.31-1.25L22,26.35V49.74h6.39L43.21,26.31V45.75A2.54,2.54,0,0,1,42,47.85l-.21.13a21.17,21.17,0,0,1-4.12.69v1.08H54.93V48.66A17.31,17.31,0,0,1,51.31,47.88Z"/><path class="cls-2" d="M239.43,17.65a2.85,2.85,0,1,1,2.85-2.89A2.81,2.81,0,0,1,239.43,17.65Zm0-5.44a2.59,2.59,0,1,0,2.58,2.6A2.55,2.55,0,0,0,239.43,12.21Zm.7,4.39L239.39,15h-.59V16.6h-.43V13h1.06c.79,0,1.12.35,1.12,1a.87.87,0,0,1-.71,1l.76,1.63Zm-1.33-2h.62c.5,0,.7-.18.7-.63s-.18-.62-.75-.62h-.57Z"/></svg>