<?xml version="1.0" encoding="UTF-8"?>
<svg id="uuid-ca377ecd-7bc5-4b33-9ad7-6bc930d68b53" data-name="Layer 2" xmlns="http://www.w3.org/2000/svg" width="242.15" height="71.17" viewBox="0 0 242.15 71.17">
  <g id="uuid-76c7a321-4641-4ac8-ab3f-7e38fa6c366a" data-name="Layer 1">
    <g>
      <g>
        <polygon points="1.42 .17 2.84 .17 2.84 4.31 7.57 4.31 7.57 .17 8.98 .17 8.98 10.06 7.57 10.06 7.57 5.56 2.84 5.56 2.84 10.06 1.42 10.06 1.42 .17" fill="#fff" stroke-width="0"/>
        <path d="M19.46,0c3,0,4.76,2.19,4.76,5.12s-1.74,5.12-4.76,5.12-4.76-2.11-4.76-5.12,1.76-5.12,4.76-5.12M19.46,8.99c2.28,0,3.26-1.9,3.26-3.87s-1.08-3.88-3.26-3.87c-2.18-.01-3.26,1.86-3.26,3.87s.98,3.87,3.26,3.87" fill="#fff" stroke-width="0"/>
        <path d="M38.18,5.97c0,2.78-1.4,4.26-3.84,4.26s-3.84-1.49-3.84-4.26V.17h1.41v5.61c0,1.9.6,3.2,2.42,3.2s2.43-1.3,2.43-3.2V.17h1.42v5.8Z" fill="#fff" stroke-width="0"/>
        <path d="M49.46,1.66c-.72-.28-1.12-.41-1.85-.41-.8,0-1.73.28-1.73,1.32,0,1.9,4.25,1.46,4.25,4.72,0,2.11-1.63,2.95-3.61,2.95-.69,0-1.37-.2-2.03-.41l.14-1.32c.49.2,1.33.48,2.05.48.81,0,1.94-.45,1.94-1.61,0-2.21-4.25-1.6-4.25-4.68,0-1.76,1.39-2.69,3.18-2.69.65,0,1.44.12,2.11.36l-.2,1.3Z" fill="#fff" stroke-width="0"/>
        <polygon points="58.64 1.42 55.56 1.42 55.56 .17 63.13 .17 63.13 1.42 60.06 1.42 60.06 10.06 58.64 10.06 58.64 1.42" fill="#fff" stroke-width="0"/>
        <path d="M72.69,0c3,0,4.76,2.19,4.76,5.12s-1.74,5.12-4.76,5.12-4.76-2.11-4.76-5.12,1.76-5.12,4.76-5.12M72.69,8.99c2.28,0,3.26-1.9,3.26-3.87s-1.08-3.88-3.26-3.87c-2.18-.01-3.26,1.85-3.26,3.87s.98,3.87,3.26,3.87" fill="#fff" stroke-width="0"/>
        <polygon points="83.7 .17 85.63 .17 89.99 8.14 90.02 8.14 90.02 .17 91.44 .17 91.44 10.06 89.62 10.06 85.14 1.93 85.12 1.93 85.12 10.06 83.7 10.06 83.7 .17" fill="#fff" stroke-width="0"/>
      </g>
      <path d="M54.84,37.03c0-6.92,4.41-13.28,12.27-13.28s10.93,5.13,10.93,10.88v.61h-16.28v.61c0,6.91,2.23,11.94,7.98,11.94,3.9,0,5.74-1.39,7.81-5.02l1.06.73c-2.01,4.07-5.91,7.14-10.99,7.14-8.76,0-12.77-6.14-12.77-13.61M71.18,33.74c0-4.13-.5-8.65-4.3-8.65-3.07,0-4.97,3.34-5.13,8.75l9.43-.11Z" fill="#fff" stroke-width="0"/>
      <path d="M85.13,42.84v-15.78h-5.07v-2.4h5.19v-8.36h6.19v8.36h7.42v2.4h-7.36v15.23c0,2.79.84,4.97,3.79,4.97,2.79,0,3.07-2.23,3.29-4.52h1.34c-.33,4.24-2.73,7.92-7.64,7.92s-7.14-2.84-7.14-7.81" fill="#fff" stroke-width="0"/>
      <path d="M100.7,48.54c1-.06,1.68-.17,2.46-.45,1.06-.33,1.45-1.23,1.45-2.46V13.9c-.05-1.22-.61-2.62-1.51-3.23-.67-.45-2.73-.84-3.74-.89v-1.12l11.27-.62.33.39v19.64h.11c2.12-2.12,4.24-4.58,8.98-4.58,5.14,0,7.48,3.46,7.48,8.76v13.17c0,1.23.39,2.06,1.39,2.51.78.34,1.45.5,2.45.62v1.11h-13.89v-1.11c.83-.06,1.67-.17,2.34-.45.95-.33,1.23-1.23,1.23-2.46v-13.44c0-3.79-1.84-5.74-4.01-5.74-3.57,0-5.46,2.4-6.08,3.68v15.23c0,1.22.39,2.01,1.28,2.51.78.39,1.56.61,2.4.67v1.11h-13.94v-1.11Z" fill="#fff" stroke-width="0"/>
      <path d="M179.31,48.54c1-.06,1.67-.17,2.45-.45,1-.33,1.45-1.34,1.45-2.46v-16.23c-.05-1.23-.55-2.17-1.45-2.79-.67-.45-2.28-1-3.29-1.06v-1.06l10.76-.67.39.39v21.08c0,1.17.51,2.12,1.51,2.57.84.39,1.67.55,2.45.67v1.11h-14.28v-1.11ZM181.82,13.18c0-2.29,1.84-4.07,4.07-4.07s4.12,1.73,4.12,3.96-1.79,4.13-4.12,4.13-4.07-1.78-4.07-4.02" fill="#fff" stroke-width="0"/>
      <path d="M198.07,48.36l-.78,1.68h-1.78l-.28-8.99h1.17c.83,3.01,4.18,8.26,8.7,8.26,3.45,0,4.8-1.89,4.8-4.58,0-2.9-2.45-4.07-6.47-5.3-3.62-1.11-7.47-3.24-7.47-8.2,0-4.19,3.4-7.53,9.04-7.53,3.01,0,5.25.89,6.25,1.45l.56-1.51h1.67l.39,8.14h-1.11c-.89-3.45-3.63-6.74-7.42-6.74-2.84,0-4.07,1.84-4.07,3.9,0,3.01,2.07,3.74,6.3,5.13,4.52,1.51,7.53,3.74,7.53,8.31,0,5.24-4.35,8.25-9.93,8.25-3.12,0-6.08-1.34-7.08-2.28" fill="#fff" stroke-width="0"/>
      <path d="M221.33,42.84v-15.78h-5.07v-2.4h5.19v-8.36h6.19v8.36h7.42v2.4h-7.36v15.23c0,2.79.83,4.97,3.79,4.97,2.79,0,3.07-2.23,3.29-4.52h1.34c-.34,4.24-2.73,7.92-7.64,7.92s-7.14-2.84-7.14-7.81" fill="#fff" stroke-width="0"/>
      <path d="M174.77,47.5c-.89-.61-1.32-1.49-1.43-2.65V9.13l-.38-.39-12.13.61v1.05c1.49.11,3.86.61,4.8,1.27.88.55,1.38,1.99,1.43,3.15v10.58c-.82-.33-3.25-1.38-6.51-1.38-2.69,0-5.3.95-7.41,2.62-.32.25-.62.51-.91.79-.85.82-1.59,1.76-2.2,2.82-1.1,1.91-1.77,4.19-1.77,6.73,0,2.87.6,5.39,1.65,7.45-.19.62-.42,1.19-.67,1.72-.97,1.97-2.42,3.19-4.47,3.19-4.57,0-6.12-5.79-6.12-12.35,0-5.29,1.05-11.69,6.17-11.69.88,0,1.63.22,2.29.59.37.22.7.49,1.01.81.04-.06.1-.14.17-.22.11-.12.22-.24.34-.36.56-.56,1.35-1.22,1.35-1.22-.32-.12-.67-.21-1-.31-.15-.05-.87-.24-.98-.26,0,0-.54-.11-.81-.14-.78-.11-1.57-.14-2.36-.14-8.05,0-13.29,5.46-13.29,13.34,0,8.27,5.96,13.29,12.96,13.29,3.36,0,6.11-.92,8.24-2.46.03-.02.15-.11.18-.13,1.49-1.13,2.66-2.59,3.49-4.26.98-1.98,1.49-4.27,1.49-6.71s-.54-4.72-1.55-6.63c.18-.5.37-.96.58-1.39,1.13-2.35,2.8-3.67,4.79-3.67,3.31,0,4.8,2.53,5.35,4.35v15.71c-1.33,1.49-2.59,2.54-4.96,2.54-1.49,0-2.48-.24-3.43-1.04-.75,1.13-1.67,2.13-2.77,2.95,1.18.44,2.45.68,3.78.68,3.42,0,6.01-2.15,7.22-3.42l.22.06v2.43l.39.39,10.53-.38v-1.1c-.99-.06-2.59-.61-3.25-1.05Z" fill="#fff" stroke-width="0"/>
      <path d="M51.22,47.8c-.74-.35-1.16-.82-1.36-1.4,0-.09-.03-.17-.03-.27v-29.91h-2.42l-18.76,28.52v-28.52h-2.42L7.46,44.73c-.45.64-1.43,2.68-4.26,3.43-.79.21-3.2.43-3.2.42v1.08h15.96v-1.08c-.9-.11-1.8-.2-2.69-.38-.8-.16-1.61-.37-2.37-.68-.6-.25-1.01-.55-1.12-1.23-.07-.44.07-.87.31-1.24,1.36-2.16,11.87-18.74,11.87-18.74v23.35h6.38l14.8-23.39v19.4c0,.89-.48,1.56-1.25,2.1-.07.04-.14.09-.21.13-.68.34-3.23.59-4.11.68v1.08h17.28v-1.08c-.88-.1-3.08-.49-3.62-.78Z" fill="#fff" stroke-width="0"/>
      <path d="M239.31,17.73c-1.6,0-2.84-1.25-2.84-2.84s1.25-2.84,2.85-2.84,2.84,1.25,2.84,2.8-1.25,2.88-2.84,2.88ZM239.31,12.3c-1.45,0-2.6,1.14-2.6,2.6s1.15,2.58,2.59,2.58,2.58-1.15,2.58-2.58-1.12-2.6-2.57-2.6ZM240.01,16.68l-.74-1.58h-.59v1.58h-.43v-3.59h1.06c.79,0,1.12.35,1.12,1.01,0,.53-.25.86-.71.96l.76,1.63h-.47ZM238.68,14.73h.62c.5,0,.69-.18.69-.63s-.18-.61-.75-.61h-.57v1.25Z" fill="#fff" stroke-width="0"/>
      <g>
        <path d="M92.48,63.55c-.56-.33-1.19-.5-1.84-.5-2.06,0-3.43,1.49-3.43,3.5s1.51,3.5,3.37,3.5c.64,0,1.5-.17,1.95-.44l.08,1.24c-.68.28-1.51.32-2.04.32-2.83,0-4.71-1.82-4.71-4.66s2-4.58,4.72-4.58c.69,0,1.37.1,2.01.38l-.1,1.24Z" fill="#fff" stroke-width="0"/>
        <path d="M99.13,67.27l-3.5-5.2h1.5l2.66,4.01,2.6-4.01h1.5l-3.48,5.2v3.74h-1.28v-3.74Z" fill="#fff" stroke-width="0"/>
        <path d="M107.6,62.08h2.34c1.83,0,3.35.64,3.35,2.68s-1.55,2.69-3.16,2.69h-1.25v3.57h-1.28v-8.94ZM108.88,66.31h1.27c.79,0,1.79-.4,1.79-1.58s-1.18-1.54-1.97-1.54h-1.09v3.11Z" fill="#fff" stroke-width="0"/>
        <path d="M117.23,62.08h2.19c1.77,0,3.47.28,3.47,2.42,0,1.09-.81,1.86-1.84,2.04v.03c.4.15.59.35.87.9l1.69,3.56h-1.46l-1.37-3.1c-.4-.87-.82-.87-1.5-.87h-.77v3.97h-1.28v-8.94ZM118.51,65.92h1.09c1.22,0,1.93-.54,1.93-1.39,0-.81-.61-1.32-1.79-1.32h-1.23v2.71Z" fill="#fff" stroke-width="0"/>
        <path d="M127.7,62.08h5.01v1.13h-3.73v2.61h3.39v1.13h-3.39v2.94h3.73v1.13h-5.01v-8.94Z" fill="#fff" stroke-width="0"/>
        <path d="M141.32,63.42c-.65-.26-1.01-.37-1.68-.37-.72,0-1.56.26-1.56,1.19,0,1.72,3.84,1.32,3.84,4.26,0,1.91-1.47,2.66-3.26,2.66-.63,0-1.24-.18-1.83-.37l.13-1.19c.44.18,1.2.44,1.86.44.73,0,1.75-.41,1.75-1.46,0-2-3.84-1.45-3.84-4.22,0-1.59,1.25-2.43,2.87-2.43.59,0,1.29.1,1.91.32l-.18,1.18Z" fill="#fff" stroke-width="0"/>
        <path d="M150.23,63.42c-.65-.26-1.01-.37-1.68-.37-.72,0-1.56.26-1.56,1.19,0,1.72,3.84,1.32,3.84,4.26,0,1.91-1.47,2.66-3.26,2.66-.63,0-1.24-.18-1.83-.37l.13-1.19c.44.18,1.2.44,1.86.44.73,0,1.75-.41,1.75-1.46,0-2-3.84-1.45-3.84-4.22,0-1.59,1.25-2.43,2.87-2.43.59,0,1.29.1,1.91.32l-.18,1.18Z" fill="#fff" stroke-width="0"/>
        <path d="M161.21,62.08h1.28v3.74h4.28v-3.74h1.28v8.94h-1.28v-4.07h-4.28v4.07h-1.28v-8.94Z" fill="#fff" stroke-width="0"/>
        <path d="M176.74,61.92c2.71,0,4.3,1.97,4.3,4.62s-1.57,4.62-4.3,4.62-4.3-1.91-4.3-4.62,1.59-4.62,4.3-4.62ZM176.74,70.04c2.06,0,2.94-1.72,2.94-3.5s-.97-3.51-2.94-3.5c-1.97-.01-2.95,1.68-2.95,3.5s.88,3.5,2.95,3.5Z" fill="#fff" stroke-width="0"/>
        <path d="M189.42,63.42c-.65-.26-1.01-.37-1.68-.37-.72,0-1.56.26-1.56,1.19,0,1.72,3.84,1.32,3.84,4.26,0,1.91-1.47,2.66-3.26,2.66-.63,0-1.24-.18-1.83-.37l.13-1.19c.44.18,1.2.44,1.86.44.73,0,1.75-.41,1.75-1.46,0-2-3.84-1.45-3.84-4.22,0-1.59,1.25-2.43,2.87-2.43.59,0,1.29.1,1.91.32l-.18,1.18Z" fill="#fff" stroke-width="0"/>
        <path d="M194.19,62.08h2.34c1.83,0,3.35.64,3.35,2.68s-1.55,2.69-3.16,2.69h-1.25v3.57h-1.28v-8.94ZM195.48,66.31h1.27c.79,0,1.79-.4,1.79-1.58s-1.18-1.54-1.97-1.54h-1.09v3.11Z" fill="#fff" stroke-width="0"/>
        <path d="M203.9,62.08h1.28v8.94h-1.28v-8.94Z" fill="#fff" stroke-width="0"/>
        <path d="M211.74,63.2h-2.78v-1.13h6.84v1.13h-2.78v7.81h-1.28v-7.81Z" fill="#fff" stroke-width="0"/>
        <path d="M221.72,62.08h1.34l3.78,8.94h-1.4l-.91-2.25h-4.38l-.91,2.25h-1.34l3.82-8.94ZM222.34,63.28l-1.78,4.43h3.56l-1.78-4.43Z" fill="#fff" stroke-width="0"/>
        <path d="M230.62,62.08h1.28v7.81h3.74v1.13h-5.02v-8.94Z" fill="#fff" stroke-width="0"/>
      </g>
    </g>
  </g>
</svg>