<svg xmlns="http://www.w3.org/2000/svg">

	<symbol id="search-icon" data-name="search-icon" viewBox="0 0 100.98 100.98">
		<path d="M100.99 96l-29.5-29.46a40.55 40.55 0 1 0-5 4.95L95.99 101zM40.5 74a33.5 33.5 0 1 1 33.49-33.5A33.54 33.54 0 0 1 40.5 74z"/>
	</symbol>
	
	<symbol id="facebook" data-name="Layer 1" viewBox="0 0 50 50">
		<path d="M24.58 1.24a23.42 23.42 0 0 0-3.66 46.56V31.43H15v-6.77h5.94V19.5c0-5.87 3.5-9.11 8.85-9.11a35.81 35.81 0 0 1 5.24.46v5.76h-2.97c-2.91 0-3.82 1.81-3.82 3.66v4.39h6.5l-1 6.77h-5.5V47.8a23.42 23.42 0 0 0-3.66-46.56z"/>
	</symbol>
<symbol id="facebook-new" data-name="Layer 1" viewBox="0 0 320 512">
<path d="m279.14 288 14.22-92.66h-88.91v-60.13c0-25.35 12.42-50.06 52.24-50.06h40.42v-78.89s-36.68-6.26-71.75-6.26c-73.22 0-121.08 44.38-121.08 124.72v70.62h-81.39v92.66h81.39v224h100.17v-224z"/>
</symbol>
	<symbol id="instagram" data-name="Layer 1" viewBox="0 0 50 50">
		<path d="M25 7c5.87 0 6.57 0 8.89.13a12.2 12.2 0 0 1 4.11.72 6.81 6.81 0 0 1 2.5 1.65 6.81 6.81 0 0 1 1.65 2.5 12.2 12.2 0 0 1 .76 4.08c.1 2.32.13 3 .13 8.89s0 6.57-.13 8.89a12.2 12.2 0 0 1-.76 4.14A7.33 7.33 0 0 1 38 42.15a12.2 12.2 0 0 1-4.08.76c-2.32.1-3 .13-8.89.13s-6.57 0-8.89-.13a12.2 12.2 0 0 1-4.14-.76 6.81 6.81 0 0 1-2.5-1.65A6.81 6.81 0 0 1 7.85 38a12.2 12.2 0 0 1-.76-4.08C7 31.57 7 30.87 7 25s0-6.57.13-8.89A12.2 12.2 0 0 1 7.85 12 6.81 6.81 0 0 1 9.5 9.5 6.81 6.81 0 0 1 12 7.85a12.2 12.2 0 0 1 4.08-.76C18.43 7 19.13 7 25 7m0-4c-6 0-6.72 0-9.07.13a16.35 16.35 0 0 0-5.34 1 11.26 11.26 0 0 0-6.44 6.44 16.35 16.35 0 0 0-1 5.34C3 18.28 3 19 3 25s0 6.72.13 9.07a16.35 16.35 0 0 0 1 5.34 11.26 11.26 0 0 0 6.44 6.44 16.35 16.35 0 0 0 5.34 1C18.28 47 19 47 25 47s6.72 0 9.07-.13a16.35 16.35 0 0 0 5.34-1 11.26 11.26 0 0 0 6.44-6.44 16.35 16.35 0 0 0 1-5.34C47 31.72 47 31 47 25s0-6.72-.13-9.07a16.35 16.35 0 0 0-1-5.34 11.26 11.26 0 0 0-6.44-6.44 16.35 16.35 0 0 0-5.34-1C31.72 3 31 3 25 3z"/>
		<path d="M25 13.7A11.3 11.3 0 1 0 36.3 25 11.3 11.3 0 0 0 25 13.7zm0 18.63A7.33 7.33 0 1 1 32.33 25 7.33 7.33 0 0 1 25 32.33z"/>
		<circle cx="36.74" cy="13.26" r="2.64"/>
	</symbol>
	
	<symbol id="linkedin" data-name="Layer 1" viewBox="0 0 50 50">
		<path d="M26.69 22.8v-.07l-.05.07z"/>
		<path d="M44.05 2.5H6a3.26 3.26 0 0 0-3.36 3.22v38.56A3.27 3.27 0 0 0 6 47.5h38.1a3.27 3.27 0 0 0 3.31-3.22V5.72a3.26 3.26 0 0 0-3.36-3.22zM16.2 40.17H9.44V19.85h6.76zm-3.38-23.09h-.05a3.52 3.52 0 1 1 .09-7 3.53 3.53 0 1 1 0 7zm27.73 23.09H33.8V29.3c0-2.73-1-4.6-3.43-4.6a3.7 3.7 0 0 0-3.46 2.47 4.62 4.62 0 0 0-.22 1.65v11.35h-6.76s.09-18.41 0-20.32h6.76v2.88a6.7 6.7 0 0 1 6.09-3.36c4.44 0 7.77 2.91 7.77 9.15z"/>
	</symbol>

	<symbol id="twitter" data-name="Layer 1" viewBox="0 0 50 50">
		<path data-name="Logo" d="M43.29 15.62v1.22c0 12.47-9.5 26.85-26.85 26.85A26.71 26.71 0 0 1 2 39.45a21.23 21.23 0 0 0 2.25.14A19 19 0 0 0 16 35.54 9.46 9.46 0 0 1 7.15 29a9.3 9.3 0 0 0 4.26-.16 9.44 9.44 0 0 1-7.57-9.25v-.12a9.31 9.31 0 0 0 4.28 1.18A9.46 9.46 0 0 1 5.2 8a26.77 26.77 0 0 0 19.45 9.86 9.45 9.45 0 0 1 16.09-8.6 19.21 19.21 0 0 0 6-2.29 9.52 9.52 0 0 1-4.15 5.22A19.22 19.22 0 0 0 48 10.73a19.21 19.21 0 0 1-4.71 4.89z"/>
	</symbol>

	<symbol id="youtube" data-name="Layer 1" viewBox="0 0 50 50">
		<path d="M47.28 13.8a5.82 5.82 0 0 0-4.11-4.11c-3.63-1-18.17-1-18.17-1s-14.54 0-18.17 1a5.82 5.82 0 0 0-4.11 4.11c-1 3.63-1 11.2-1 11.2s0 7.57 1 11.2a5.82 5.82 0 0 0 4.11 4.11c3.63 1 18.17 1 18.17 1s14.54 0 18.17-1a5.82 5.82 0 0 0 4.11-4.11c1-3.63 1-11.2 1-11.2s-.02-7.57-1-11.2zM20.35 32V18l12.08 7z"/>
	</symbol>
	
	<symbol id="phone" data-name="Layer 1" viewBox="0 0 101 101">
		<path d="M16.09 29.4c2.11 8.15 7.5 19.48 22.85 33.68 2.27 2.46 4.46 4.65 6.58 6.6.81.74 1.61 1.45 2.39 2.12 1.15.9 2.37 1.87 3.67 2.89 1.3 1.01 2.67 2.04 4.1 3.05 7.67 6.81 19.88 11.12 27.65 2.39.85-.97 1.48-2.05 1.78-3.23.3-1.19.26-2.48-.23-3.87-2.63-6.94-11.2-14.79-19.07-9.65-1.23 1.2-2.48 2.69-3.38 3.7-1.81 2.01-5.56-1.12-5.56-1.12-6.5-5.33-9.72-8.32-11.09-9.66-1.42-1.44-4.56-4.81-10.19-11.61 0 0-3.3-3.92-1.29-5.73 2.01-1.81 5.98-4.95 5.47-6.71-.52-1.76-8.98-18.58-18.16-15.99 0 0-7.69 4.8-5.52 13.16z"/>
	</symbol>


	<symbol id="email"  viewBox="0 0 101 101">
		<path d="M12 72.02V28.98a4.84 4.84 0 0 1 4.83-4.83h67.34c2.66 0 4.83 2.16 4.83 4.83v43.04a4.84 4.84 0 0 1-4.83 4.83H16.83A4.84 4.84 0 0 1 12 72.02zm72.79-43.04c0-.34-.28-.62-.62-.62H16.83c-.34 0-.62.28-.62.62v43.04c0 .34.28.62.62.62h67.34c.34 0 .62-.28.62-.62V28.98z"/>
		<path d="M50.09 58.73c-.51 0-1.02-.17-1.44-.5l-28.4-22.64c-1-.8-1.16-2.25-.37-3.25.8-1 2.25-1.16 3.25-.37l26.98 21.51 27.63-21.45c1.01-.79 2.46-.6 3.25.41s.6 2.46-.41 3.25L51.52 58.26c-.42.33-.92.49-1.42.49z"/>
	</symbol>

	<symbol id="tiktok" viewBox="0 0 100 100">
	  <path d="m69.13,1.04c1.62,13.89,9.37,22.18,22.85,23.06v15.63c-7.81.76-14.66-1.79-22.62-6.61v29.23c0,37.13-40.48,48.73-56.75,22.12-10.46-17.13-4.05-47.18,29.49-48.38v16.48c-2.56.41-5.29,1.06-7.78,1.91-7.46,2.53-11.69,7.26-10.52,15.6,2.26,15.98,31.58,20.71,29.14-10.52V1.07h16.19v-.03Z" fill-rule="evenodd"/>
	</symbol>
	
</svg>
