<svg xmlns="http://www.w3.org/2000/svg" xmlns:xlink="http://www.w3.org/1999/xlink" width="872.778" height="480.24" viewBox="0 0 872.778 480.24"><defs><clipPath id="a"><rect width="872.778" height="480.24" transform="translate(0 19)" fill="#174c7f"/></clipPath></defs><g transform="translate(0 -19)" clip-path="url(#a)"><path d="M815.137,502.641c-11.789-5.64-18.43-13.06-21.671-22.338-.127-1.43-.508-2.764-.508-4.322V0H754.366l-298.5,453.865V0H417.292L118.777,453.865C111.707,464,96.057,496.588,50.92,508.472,38.369,511.729,0,515.3,0,515.113V532.24H253.966V515.113c-14.315-1.732-28.693-3.162-42.849-5.99-12.806-2.574-25.69-5.831-37.765-10.883-9.533-4-16.031-8.722-17.826-19.59-1.176-7.07,1.192-13.806,4.973-19.8,21.687-34.318,188.921-298.293,188.921-298.293V532.24H450.91L686.494,160.069V468.784c0,14.124-7.674,24.9-19.86,33.428-1.112.683-2.129,1.366-3.384,2.018-10.883,5.45-51.429,9.326-65.426,10.883V532.24H872.778V515.113c-14.029-1.557-49.045-7.785-57.641-12.472" fill="#174c7f"/></g></svg>