<?xml version="1.0" encoding="UTF-8"?>
<svg id="Layer_1" data-name="Layer 1" xmlns="http://www.w3.org/2000/svg" viewBox="0 0 16 16">
  <path d="m13.26,11.28c-.16-.08-.26-.18-.3-.31,0-.02,0-.04,0-.06v-6.61h-.54l-4.14,6.3v-6.3h-.54l-4.15,6.3c-.1.14-.32.59-.94.76-.17.05-.71.09-.71.09v.24h3.53v-.24c-.2-.02-.4-.04-.6-.08-.18-.04-.36-.08-.52-.15-.13-.06-.22-.12-.25-.27-.02-.1.02-.19.07-.28.3-.48,2.62-4.14,2.62-4.14v5.16h1.41l3.27-5.17v4.29c0,.2-.11.35-.28.46-.02,0-.03.02-.05.03-.15.08-.71.13-.91.15v.24h3.82v-.24c-.2-.02-.68-.11-.8-.17"/>
</svg>