<?xml version="1.0" encoding="UTF-8"?>
<svg id="Layer_1" xmlns="http://www.w3.org/2000/svg" version="1.1" viewBox="0 0 512 512">
  <!-- Generator: Adobe Illustrator 29.6.1, SVG Export Plug-In . SVG Version: 2.1.1 Build 9)  -->
  <defs>
    <style>
      .st0 {
        fill: #231f20;
      }
    </style>
  </defs>
  <path class="st0" d="M317.9,422.7c-21.5,42.9-45.2,57.3-61.9,57.3s-17.3-3.2-27.3-11l-6.9,18.6c-2.9,7.8-7.7,14.7-13.9,19.9,15.6,3,31.6,4.5,48.1,4.5,141.4,0,256-114.6,256-256S397.4,0,256,0,0,114.6,0,256s1.5,32.5,4.5,48.1c5.3-6.2,12.1-11,19.9-13.9l9.6-3.5c-1.4-10-2.1-20.2-2.1-30.6,0-22.2,3.2-43.7,9.3-64h90.8c-2.5,19.2-3.9,39.3-4,60l32.2-11.9c.5-16.7,1.9-32.8,4.1-48.1h183.4c2.8,20.2,4.3,41.7,4.3,64s-1.5,43.8-4.3,64h-64.1l-11.8,32h70.2c-5.9,27-14.2,50.9-24.1,70.7h0ZM194.1,89.3c21.5-42.9,45.2-57.3,61.9-57.3s40.4,14.4,61.9,57.3c9.9,19.8,18.2,43.7,24.1,70.7h-172c5.9-27,14.2-50.9,24.1-70.7ZM384,256c0-22.1-1.4-43.5-4-64h90.8c6,20.3,9.3,41.8,9.3,64s-3.2,43.7-9.3,64h-90.8c2.6-20.5,4-41.9,4-64ZM374.7,160c-9.6-47.6-26.2-88-47.2-116.3,57.8,19.5,105,61.8,130.9,116.3h-83.7ZM53.6,160c25.9-54.5,73.1-96.9,130.9-116.3-21,28.3-37.5,68.8-47.2,116.3H53.6ZM374.7,352h83.8c-25.9,54.5-73.1,96.9-130.9,116.3,21-28.3,37.6-68.8,47.2-116.3h-.1ZM271,261.5c2.2-5.9.7-12.4-3.7-16.8s-11-5.9-16.8-3.7l-215,79.2c-6.2,2.3-10.3,8.1-10.5,14.7s3.8,12.6,9.9,15.1l74,30.5L4.7,484.7c-6.2,6.2-6.2,16.4,0,22.6,6.2,6.2,16.4,6.2,22.6,0l104.2-104.2,30.5,74c2.5,6.1,8.5,10,15.1,9.9s12.4-4.3,14.7-10.5l79.2-215h0ZM143.3,360l-58.2-24,143.9-53-53,143.9-24-58.2c-1.6-3.9-4.8-7.1-8.7-8.7h0Z"/>
</svg>