<?xml version="1.0" encoding="UTF-8"?>
<svg id="Layer_1" xmlns="http://www.w3.org/2000/svg" version="1.1" viewBox="0 0 135.2 127.3">
  <!-- Generator: Adobe Illustrator 29.8.1, SVG Export Plug-In . SVG Version: 2.1.1 Build 2)  -->
  <defs>
    <style>
      .st0, .st1, .st2, .st3, .st4, .st5, .st6, .st7, .st8, .st9, .st10 {
        fill: none;
      }

      .st11 {
        fill: #008573;
      }

      .st12, .st13, .st14 {
        fill: #038573;
      }

      .st13 {
        stroke-width: 1.5px;
      }

      .st13, .st1, .st14, .st2, .st3, .st4, .st5, .st6, .st7, .st8, .st9, .st10 {
        stroke: #038573;
      }

      .st13, .st14 {
        stroke-miterlimit: 10;
      }

      .st1, .st2, .st3, .st4, .st5, .st6, .st7, .st8, .st9, .st10 {
        stroke-linejoin: round;
      }

      .st1, .st7 {
        stroke-width: 3.5px;
      }

      .st14 {
        stroke-width: 2.1px;
      }

      .st2 {
        stroke-width: 3.3px;
      }

      .st2, .st3, .st4, .st5, .st6, .st7, .st8, .st9, .st10 {
        stroke-linecap: round;
      }

      .st15, .st3 {
        display: none;
      }

      .st3, .st5 {
        stroke-width: 4.1px;
      }

      .st4 {
        stroke-width: 4px;
      }

      .st6 {
        stroke-width: 3.9px;
      }

      .st8 {
        stroke-width: 3.8px;
      }

      .st9 {
        stroke-width: 3.8px;
      }

      .st10 {
        stroke-width: 3.7px;
      }
    </style>
  </defs>
  <g id="Layer_6">
    <rect class="st0" y=".2" width="134.9" height="126.9"/>
  </g>
  <g id="calendar" class="st15">
    <g>
      <path class="st12" d="M123.1,12.7h-18.5v-2.3c0-5.1-4.2-9.2-9.3-9.2s-9.1,4.1-9.2,9.2v2.3h-36.9v-2.3c0-5.1-4.2-9.2-9.3-9.2s-9.1,4.1-9.2,9.2v2.3H12.1c-5.1,0-9.2,4.1-9.3,9.3v94.9c0,5.1,4.1,9.2,9.3,9.3h111c5.1,0,9.2-4.1,9.3-9.3V21.9c0-5.1-4.1-9.2-9.3-9.3h0ZM127.7,116.8c0,2.6-2.1,4.6-4.6,4.6H12.1c-2.6,0-4.6-2.1-4.6-4.6V39.4h120.3v77.4h-.1ZM127.7,34.8H7.4v-12.9c0-2.6,2.1-4.6,4.6-4.6h27.8c1.3,0,2.3-1,2.3-2.3s-1-2.3-2.3-2.3h-4.5v-2.3c0-2.6,2.1-4.6,4.6-4.6s4.6,2.1,4.6,4.6v9.3c0,2.6-2.1,4.6-4.6,4.6s-2.3,1-2.3,2.3,1,2.3,2.3,2.3c5.1,0,9.2-4.1,9.3-9.3v-2.3h46.1c1.3,0,2.3-1.1,2.3-2.4s-1-2.2-2.3-2.3h-4.6v-2.3c0-2.6,2.1-4.6,4.6-4.6s4.6,2.1,4.6,4.6v9.3c0,2.6-2.1,4.6-4.6,4.6s-2.3,1-2.3,2.3,1,2.3,2.3,2.3c5.1,0,9.2-4.1,9.3-9.3v-2.3h18.5c2.6,0,4.6,2.1,4.6,4.6v12.9h0Z"/>
      <path class="st12" d="M76.9,23.7h-18.5c-1.3,0-2.3,1.1-2.3,2.4s1,2.3,2.3,2.3h18.5c1.3,0,2.3-1.1,2.3-2.4s-1-2.2-2.3-2.3Z"/>
      <path class="st12" d="M24.8,94.6c-1.3,0-2.3,1.1-2.3,2.3s1,2.3,2.3,2.3h19.7c1.3,0,2.3-1,2.3-2.3h0v-32.9c0-1.3-1-2.3-2.3-2.3h-19.7c-1.3,0-2.3,1-2.3,2.3s1,2.3,2.3,2.3h17.4v11.8h-17.4c-1.3,0-2.3,1-2.3,2.3s1,2.3,2.3,2.3h17.4v11.8h-17.4,0Z"/>
      <path class="st12" d="M57.7,99.2h19.8c1.3,0,2.3-1,2.3-2.3h0v-16.5c0-1.3-1-2.3-2.3-2.3h-17.4v-11.8h17.4c1.3,0,2.3-1,2.3-2.3s-1-2.3-2.3-2.3h-19.8c-1.3,0-2.3,1-2.3,2.3h0v32.9c0,1.3,1,2.3,2.3,2.3h0ZM60,82.8h15.1v11.8h-15.1v-11.8Z"/>
      <path class="st12" d="M90.6,94.6c-1.3,0-2.3,1.1-2.3,2.3s1,2.3,2.3,2.3h19.7c1.3,0,2.3-1,2.3-2.3h0v-16.5c0-1.3-1-2.3-2.3-2.3h-17.4v-11.8h17.4c1.3,0,2.3-1.1,2.3-2.4s-1-2.2-2.3-2.3h-19.7c-1.3,0-2.3,1-2.3,2.3h0v16.5c0,1.3,1,2.3,2.3,2.3h17.4v11.8h-17.4Z"/>
    </g>
  </g>
  <g id="globe" class="st15">
    <g>
      <path class="st4" d="M61.9,18.4h-3.7c-28.8.7-52,24.3-52,53.3s23.2,52.6,52,53.3h2.8c24.5-.6,44.9-17.8,50.5-40.8h0"/>
      <path class="st4" d="M61.8,18.5c-.3,0-.6-.1-.9-.2h-2.8c-14.1,1.4-25.3,24.7-25.3,53.3s11.2,51.8,25.3,53.3h2.8c12.4-1.3,22.7-19.7,24.8-43.6"/>
      <line class="st4" x1="59.6" y1="18.3" x2="59.6" y2="125"/>
      <line class="st4" x1="78.9" y1="71.6" x2="6.2" y2="71.6"/>
      <polyline class="st4" points="105.8 98.3 82.7 98.3 59.6 98.3 36.5 98.3 13.4 98.3"/>
      <polyline class="st4" points="13.4 45 36.5 45 59.6 45 61.9 45"/>
      <circle class="st4" cx="99.6" cy="31.6" r="13.3"/>
      <path class="st4" d="M123.5,48.6h0l-24,33.7-23.9-33.7h0c-3.4-4.7-5.4-10.6-5.4-17,0-16.2,13.1-29.3,29.3-29.3s29.3,13.1,29.3,29.3-2,12.2-5.4,17h0Z"/>
    </g>
  </g>
  <g id="money" class="st15">
    <g>
      <path class="st10" d="M132.7,76.9l-15.4-57.3c-.7-2.6-3.4-4.2-6.1-3.5L14.1,42.1h102.1c2.7,0,5,2.2,5,4.9v38.1l8-2.1c2.6-.7,4.2-3.4,3.5-6.1Z"/>
      <rect class="st10" x="2.3" y="42.1" width="118.9" height="69.2" rx="4.9" ry="4.9"/>
      <g>
        <ellipse class="st10" cx="61.7" cy="76.7" rx="22.3" ry="22.2"/>
        <path class="st10" d="M68.3,81.6c0-2.5-2.2-4.6-5.2-5.2l-2.6-.6c-2.6-.4-4.5-2.3-4.5-4.5s2.6-4.6,5.7-4.6,5.7,2,5.7,4.6,0,0,0,0,0,0,0,0c0-2.6-2.6-4.7-5.9-4.8v-3.2s0,0,0,0,0,0,0,0v3.2c-3.2,0-5.9,2.2-5.9,4.8s2,4.2,4.7,4.7l2.6.6c2.9.5,5,2.6,5,4.9s-2.8,5-6.3,5-6.3-2.3-6.3-5,0,0,0,0,0,0,0,0c0,2.9,2.9,5.2,6.4,5.3v3.2s0,0,0,0,0,0,0,0v-3.2c3.6,0,6.4-2.4,6.4-5.3h.2Z"/>
      </g>
      <g>
        <path class="st10" d="M22.1,42.1H7.2c-2.7,0-5,2.2-5,4.9v14.8c10.9,0,19.8-8.9,19.8-19.8h.1Z"/>
        <path class="st10" d="M121.2,61.9v-14.8c0-2.7-2.2-4.9-5-4.9h-14.9c0,10.9,8.9,19.8,19.8,19.8h.1Z"/>
        <path class="st10" d="M2.3,91.5v14.8c0,2.7,2.2,4.9,5,4.9h14.9c0-10.9-8.9-19.8-19.8-19.8h-.1Z"/>
        <path class="st10" d="M121.2,106.4v-14.8c-10.9,0-19.8,8.9-19.8,19.8h14.9c2.7,0,5-2.2,5-4.9h0Z"/>
      </g>
    </g>
  </g>
  <g id="employee" class="st15">
    <g>
      <path class="st14" d="M89.6,31.3h.2c.5,0,.9-.3.9-.8s-.3-1-.8-1.1c-6.3-1.1-13.3-6.1-13.8-12.4,0-.4-.3-.8-.7-.8s-.8,0-1,.4h0c-2.2,3.8-4.6,7.9-7,9.1-4.1,2-11.8,1.7-16.9,1.4h-2.4c-.5,0-1,.4-1,.9s.4,1,.9,1h2.4c5.6.2,13.3.6,17.8-1.6,2.5-1.2,4.6-4.4,6.6-7.8,1.9,6,8.8,10.5,14.9,11.6h0Z"/>
      <path class="st14" d="M113.9,86.8c-9.5-3.5-19.3-5.9-28.9-8.6l-1.5-14.4c5.5-5.3,9.3-13.9,11.1-25.7,1.2-7.7,2.4-26.4-13.1-33.6-7.9-3.7-18.7-3.8-26.7-.2-16,7-14.8,26-13.6,33.8,1.4,8.7,4.4,19.1,10.8,25.7l-1.5,14.3c-.2,0-24.5,7-29,8.6-8.9,3.3-18.1,25.2-17.4,34.5,0,.5.5.9.9.9s0,0,0,0c.5,0,.9-.5.9-1-.7-9.2,8.7-29.9,16.1-32.6,3.5-1.3,14.6-4.9,22.7-7-4.3,4.4-5.2,11-5.4,12.8-8,.6-14.4,9.2-14.4,19.7v10.3c0,.5.4.9.9.9h6.9c.5,0,.9-.4.9-.9s-.4-.9-.9-.9h-6v-9.3c0-9.8,6-17.8,13.4-17.8s13.4,8,13.4,17.8v9.3h-6c-.5,0-.9.4-.9.9s.4.9.9.9h6.9c.5,0,.9-.4.9-.9h0v-10.3c0-10.5-6.3-19-14.3-19.7.5-5.3,3.3-13,9.3-14.2,1,3.6,5.2,16.6,16.8,19.8h.5c11.6-3.2,15.8-16,16.8-19.7,2.4.9,10.7,5.6,9.7,26-4.9.4-8.8,4.5-8.8,9.6s4.3,9.6,9.6,9.6,9.6-4.3,9.6-9.6-3.7-9-8.5-9.5c.7-14.2-3-21.3-6.4-24.8,8.2,2.2,19.6,5.9,23.2,7.2,7.4,2.7,16.8,23.4,16.1,32.6,0,.5.4,1,.9,1h0c.5,0,.9-.4.9-.9.7-9.3-8.5-31.2-17.4-34.5h.6ZM103,115.7c0,4.2-3.5,7.7-7.7,7.7s-7.7-3.5-7.7-7.7,3.5-7.7,7.7-7.7,7.7,3.5,7.7,7.7ZM67.7,98c-11.2-3.3-15-17.3-15.4-19l1.4-13.6c1.7,1.4,3.6,2.5,5.7,3.4.5.2,1,0,1.2-.5s0-1-.5-1.2c-10.9-4.2-15.3-18.2-17-29.2-1.2-7.4-2.3-25.3,12.5-31.8,7.6-3.4,17.7-3.3,25.2.2,14.3,6.7,13.1,24.3,12,31.6-1.8,11.5-5.4,19.8-10.8,24.8-2.8,2-5.1,3.9-8.5,4.8-1.2.3-.6,2.1.5,1.8,2.9-.8,5.5-2.1,7.8-4l1.4,13.7c-.5,2.1-4.3,15.7-15.4,18.9h-.1Z"/>
    </g>
  </g>
  <g id="award" class="st15">
    <g>
      <path class="st5" d="M99.4,88.6l-7.7-.4c-1.9,0-3.7.9-4.6,2.6l-3.5,6.8c-1.3,2.6-4.6,3.4-7,1.9l-6.5-4.1c-.5-.3-1.1-.5-1.7-.6l16.6,28.7c.9,1.6,3.1,1.6,4.1,0l7.7-11.6c.4-.6,1.1-1,1.9-1.1l13.9-.8c1.8,0,2.9-2.1,2-3.7l-11.3-19.6c-.9,1.1-2.3,1.8-3.9,1.7h0Z"/>
      <path class="st5" d="M58.5,99.6c-2.4,1.6-5.7.7-7-1.9l-3.5-6.8c-.9-1.7-2.7-2.7-4.6-2.6l-7.7.4c-1.6,0-3-.6-3.9-1.7l-11.3,19.6c-.9,1.6.2,3.5,2,3.7l13.9.8c.8,0,1.5.4,1.9,1.1l7.7,11.6c1,1.5,3.2,1.4,4.1,0l16.6-28.7c-.6,0-1.2.3-1.7.6l-6.5,4.1h0Z"/>
      <path class="st5" d="M70.2,7.8l6.5-4.1c2.4-1.6,5.7-.7,7,1.9l3.5,6.8c.9,1.7,2.7,2.7,4.6,2.6l7.7-.4c2.9-.1,5.3,2.2,5.1,5.1l-.4,7.7c0,1.9.9,3.7,2.6,4.6l6.8,3.5c2.6,1.3,3.4,4.6,1.9,7l-4.1,6.5c-1,1.6-1,3.7,0,5.3l4.1,6.5c1.6,2.4.7,5.7-1.9,7l-6.8,3.5c-1.7.9-2.7,2.7-2.6,4.6l.4,7.7c0,2.9-2.2,5.3-5.1,5.1l-7.7-.4c-1.9,0-3.7.9-4.6,2.6l-3.5,6.8c-1.3,2.6-4.6,3.4-7,1.9l-6.5-4.1c-1.6-1-3.7-1-5.3,0l-6.5,4.1c-2.4,1.6-5.7.7-7-1.9l-3.5-6.8c-.9-1.7-2.7-2.7-4.6-2.6l-7.7.4c-2.9,0-5.3-2.2-5.1-5.1l.4-7.7c0-1.9-.9-3.7-2.6-4.6l-6.8-3.5c-2.6-1.3-3.4-4.6-1.9-7l4.1-6.5c1-1.6,1-3.7,0-5.3l-4.1-6.5c-1.6-2.4-.7-5.7,1.9-7l6.8-3.5c1.7-.9,2.7-2.7,2.6-4.6l-.4-7.7c-.1-2.9,2.2-5.3,5.1-5.1l7.7.4c1.9,0,3.7-.9,4.6-2.6l3.5-6.8c1.3-2.6,4.6-3.4,7-1.9l6.5,4.1c1.6,1,3.7,1,5.3,0Z"/>
      <circle class="st5" cx="67.6" cy="51.6" r="29.2"/>
      <path class="st3" d="M66.3,62.9l-4.6,2.4c-2.1,1.1-4.5-.7-4.1-3l.9-5.2c.2-.9,0-1.9-.8-2.5l-3.8-3.7c-1.7-1.6-.8-4.5,1.6-4.8l5.2-.8c.9,0,1.7-.7,2.1-1.5l2.3-4.7c1-2.1,4-2.1,5.1,0l2.3,4.7c.4.8,1.2,1.4,2.1,1.5l5.2.8c2.3.3,3.3,3.2,1.6,4.8l-3.8,3.7c-.7.7-1,1.6-.8,2.5l.9,5.2c.4,2.3-2,4.1-4.1,3l-4.6-2.4c-.8-.4-1.8-.4-2.6,0h0Z"/>
    </g>
  </g>
  <g id="wellness" class="st15">
    <g>
      <g>
        <path class="st2" d="M29.5,62.1c4.3-13.6,15.1-23.5,27.8-22.6,3.7.3,7.3,2.1,10.5,3.6h0c3.3-1.5,6.7-3.3,10.5-3.6,12.6-.9,23.5,9,27.8,22.6"/>
        <path class="st2" d="M30.2,89.8c4.7,12.2,15,20.6,27,20.6s7.3-.8,10.5-2.3h0c3.3,1.5,6.8,2.3,10.5,2.3,12,0,22.3-8.4,27-20.6"/>
        <path class="st2" d="M67.9,43.1l-.4-3.5c-.8-6.6-3-12.9-6.5-18.6h0"/>
        <path class="st2" d="M75.2,19.8c-7,6.9-7.7,17.6-7.7,17.6,0,0,10.6-.6,17.6-7.5,7-6.9,7.7-17.6,7.7-17.6,0,0-10.6.6-17.6,7.5Z"/>
      </g>
      <path class="st2" d="M110.8,83l1.3-11.4c.2-1.4-.7-2.7-2-3.1-.9-.3-1.8-.5-2.7-.8-12.9-3.7-26.2-5.6-39.6-5.6s-26.7,1.9-39.7,5.6c-.9.2-1.7.5-2.6.8-1.4.4-2.2,1.7-2,3.2l1.4,11.4c.2,1.8,2,2.9,3.7,2.5h.2c23.1-6.5,47.3-7.1,70.7-1.9,2.4.5,4.8,1.1,7.2,1.8h.4c1.7.5,3.5-.7,3.7-2.5Z"/>
      <path class="st2" d="M115.9,82.9c5.7,1.5,11.2,3.6,16.5,6.2h0c.7.4.8,1.4,0,1.8l-6.9,4,1.9,7.1c.2.8-.6,1.5-1.4,1.2l-.5-.2c-6.5-2.4-13.3-4.1-20.1-4.9"/>
      <path class="st2" d="M19.7,82.9c-5.7,1.5-11.2,3.6-16.5,6.2h0c-.7.4-.8,1.4,0,1.8l6.9,4-1.9,7.1c-.2.8.6,1.5,1.4,1.2l.5-.2c6.5-2.4,13.3-4.1,20.1-4.9"/>
      <g>
        <line class="st2" x1="67.9" y1="62.1" x2="67.9" y2="67.8"/>
        <line class="st2" x1="85.6" y1="63.3" x2="85.2" y2="68.6"/>
        <line class="st2" x1="103.2" y1="67.1" x2="102.6" y2="71.9"/>
        <line class="st2" x1="33.1" y1="71.9" x2="32.6" y2="66.6"/>
        <line class="st2" x1="50.6" y1="68.1" x2="50.1" y2="63.3"/>
      </g>
      <line class="st2" x1="123.3" y1="85.2" x2="120.8" y2="89.8"/>
      <line class="st2" x1="12.3" y1="85.2" x2="14.2" y2="89.8"/>
    </g>
  </g>
  <g id="medical" class="st15">
    <g>
      <path class="st13" d="M127.6,76l-22.2-12.6,22-12.5c.4-.2.6-.8.3-1.2l-18-30.6c0-.2-.3-.4-.5-.4h-.7l-21.7,12.3V6.3c0-.5-.4-.9-.9-.9h-36c-.5,0-.9.4-.9.9v25l-22.2-12.6c-.2-.1-.5-.2-.7,0-.2,0-.4.2-.5.4L7.5,49.6c-.2.4,0,1,.3,1.2l22,12.5-22.2,12.6c-.2,0-.4.3-.4.5v.7l18,30.6c.2.4.8.6,1.2.3l22.5-12.8v25.6c0,.5.4.9.9.9h36c.5,0,.9-.4.9-.9v-25.3l22,12.5c.2,0,.5,0,.7,0,.2,0,.4-.2.5-.4l18-30.6c.2-.4,0-1-.3-1.2v.2ZM108.8,106.2l-22.6-12.8c-.3-.2-.6-.2-.9,0s-.5.5-.5.8v25.9h-34.2v-26.2c0-.3-.2-.6-.5-.8-.3-.2-.6-.2-.9,0l-23.1,13.1-17.1-29.1,22.8-13c.3-.2.5-.5.5-.8s-.2-.6-.5-.8l-22.6-12.8,17.1-29.1,22.8,13c.3.2.6.2.9,0,.3-.2.5-.5.5-.8V7.2h34.2v25.3c0,.3.2.6.5.8s.6.2.9,0l22.3-12.7,17.1,29.1-22.6,12.8c-.3.2-.5.5-.5.8s.2.6.5.8l22.8,13-17.1,29.1h.2Z"/>
      <path class="st13" d="M65.8,48.4h.8v34.3c0,.5.4.9.9.9s.9-.4.9-.9v-34.3h.8c2.7,0,4.8-2.1,4.8-4.7v-3.4c0-2.6-2.2-4.7-4.8-4.7h-3.5c-2.7,0-4.8,2.1-4.8,4.7v3.4c0,2.6,2.2,4.7,4.8,4.7h0ZM62.8,40.2c0-1.6,1.4-3,3-3h3.5c1.7,0,3,1.3,3,3v3.4c0,1.6-1.4,3-3,3h-3.5c-1.7,0-3-1.3-3-3,0,0,0-3.4,0-3.4Z"/>
      <path class="st13" d="M99.8,51.7h-27c-.5,0-.9.4-.9.9l-.6,16c0,.2,0,.5.3.6.2.2.4.3.7.3h13.6c.3,0,.5,0,.7-.3l13.9-16c.2-.3.3-.6,0-1,0-.3-.5-.5-.8-.5ZM93.8,58.2h-4.7c-.5,0-.9.4-.9.9s.4.9.9.9h3.3l-2.1,2.4h-4.6c-.5,0-.9.4-.9.9s.4.9.9.9h3.1l-3.2,3.6h-12.3l.5-14.2h24.2l-4.1,4.7h-.1Z"/>
      <path class="st13" d="M63.6,69.2c.2-.2.3-.4.3-.6l-.6-16c0-.5-.4-.9-.9-.9h-27c-.4,0-.7.2-.8.5s0,.7,0,1l13.9,16c.2.2.4.3.7.3h13.6c.2,0,.5,0,.7-.3ZM49.7,67.7l-3.2-3.6h3.1c.5,0,.9-.4.9-.9s-.4-.9-.9-.9h-4.6l-2.1-2.4h3.3c.5,0,.9-.4.9-.9s-.4-.9-.9-.9h-4.7l-4.1-4.7h24.2l.5,14.2h-12.4Z"/>
      <path class="st13" d="M64.5,73.8c.5,0,.9-.4.9-.9s-.4-.9-.9-.9c-3.7,0-6.8.2-6.9.2-.5,0-.9.5-.8,1,0,.5.4.8.9.8s0,0,0,0c0,0,3.1-.2,6.8-.2Z"/>
      <path class="st13" d="M72.5,72.7c-.5,0-1,.2-1.1.7s.2,1,.7,1.1c2.2.5,3.5,1.1,3.9,1.9,1.1,2.3-3.1,5.3-7.5,8.4-2.1,1.5-4.3,3-6.2,4.7-.9.8-1.3,1.8-1.2,2.8.3,2.3,3,4.7,5.5,6.5v7.4c0,.5.4.9.9.9s.9-.4.9-.9v-6.2c1.2.8,2.1,1.3,2.4,1.4,1,.5,1.9-1,.9-1.6-1-.5-2.1-1.2-3.3-2v-7c0-.5-.4-.9-.9-.9s-.9.4-.9.9v5.7c-2-1.5-3.6-3.2-3.7-4.5,0-.5,0-.9.6-1.3,1.8-1.6,4-3.1,6.1-4.6,5.3-3.7,9.8-6.9,8.1-10.6-.6-1.4-2.3-2.3-5.2-2.9h0Z"/>
    </g>
  </g>
  <g id="insurance" class="st15">
    <g>
      <g>
        <g>
          <line class="st8" x1="110.1" y1="104" x2="109.9" y2="111.5"/>
          <path class="st8" d="M89.4,94.9c3.6-.6,7.3-.9,10.9-.9s9.5.5,14.2,1.5c1.4.3,2.6,1.1,3.5,2.1.7.8,1.1,1.8,1.3,2.8v1.6l-.7,9.5"/>
          <circle class="st8" cx="100.3" cy="79.8" r="9.4"/>
        </g>
        <g>
          <line class="st8" x1="25.7" y1="111.5" x2="25.5" y2="104"/>
          <path class="st8" d="M17,111.5l-.7-9.5v-1.6c.2-1,.6-2,1.3-2.8.9-1.1,2.1-1.8,3.5-2.1,4.7-1,9.4-1.5,14.2-1.5s8.1.4,12.1,1.1"/>
          <circle class="st8" cx="35.3" cy="79.8" r="9.4"/>
        </g>
        <g>
          <g>
            <line class="st8" x1="55.3" y1="123.5" x2="55.1" y2="113.7"/>
            <line class="st8" x1="80.5" y1="113.7" x2="80.3" y2="123.5"/>
          </g>
          <path class="st8" d="M43.9,123.5l-.9-12.3v-2.1c.6-3.2,3-5.8,6.3-6.5,6.1-1.3,12.3-1.9,18.5-1.9s12.4.6,18.5,1.9c1.9.4,3.5,1.4,4.6,2.8.9,1,1.4,2.3,1.7,3.7,0,.7,0,1.4,0,2.1l-.9,12.3"/>
          <circle class="st9" cx="67.9" cy="83.7" r="12.2"/>
        </g>
      </g>
      <g>
        <path class="st8" d="M128.5,56.9c-4.1-2.4-9.1-3.7-14.3-3.7-9.9,0-18.6,4.9-23.2,12.1-4.4-7-12.6-11.7-22-12.1h-2.2c-9.4.4-17.6,5.1-22,12.1-4.6-7.2-13.3-12.1-23.2-12.1s-10.2,1.4-14.3,3.7C11.7,30.8,36.5,10.7,66.7,10.3h2.2c8.5.1,16.6,1.8,23.9,4.8.6.3,1.3.5,1.9.8,0,0,.2,0,.2,0,.4.2.8.4,1.2.5.3.1.5.2.8.4,5.7,2.8,10.8,6.3,15.3,10.5,0,.1.2.2.4.3.5.5,1,.9,1.4,1.4,7.5,7.7,12.7,17.3,14.5,27.8Z"/>
        <path class="st8" d="M44.5,65c2.5-31,11.7-54.2,22.9-54.8h.8c3.3.2,6.5,2.3,9.3,6.1.2.3.5.7.7,1h0c.2.3.3.6.5.8,0,.2.2.3.3.5,2.2,3.6,4.2,8.1,6,13.5,0,0,0,.3,0,.4.2.6.4,1.2.6,1.8,2.5,8.6,4.4,19.1,5.3,30.6"/>
        <line class="st8" x1="67.8" y1="10.2" x2="67.8" y2="2.5"/>
        <line class="st8" x1="67.8" y1="65.7" x2="67.8" y2="53.6"/>
      </g>
    </g>
  </g>
  <g id="_x34_01k" class="st15">
    <g>
      <path class="st7" d="M60.5,54.2c0,3.9,3.2,7.1,7.1,7.1s7.1-3.2,7.1-7.1-3.2-7.1-7.1-7.1-7.1-3.2-7.1-7.1,3.2-7.1,7.1-7.1,7.1,3.2,7.1,7.1"/>
      <line class="st7" x1="67.6" y1="33" x2="67.6" y2="28.3"/>
      <line class="st7" x1="67.6" y1="66" x2="67.6" y2="61.3"/>
      <path class="st7" d="M56.4,79.7c-7.4-4-12.4-11.8-12.4-20.7s1.6-15.5,4.4-22.6c4.3-11.1,11.3-19.8,19.2-19.8s14.9,8.7,19.2,19.8c2.7,7.1,4.4,15.2,4.4,22.6s-5,16.8-12.4,20.7"/>
      <path class="st7" d="M86.8,36.3c7.1-9.9,16.7-16.9,24.5-14.7,12.2,3.4,15.7,27.6,10.6,44.8-.4,1.2-.8,2.4-1.4,3.5"/>
      <path class="st7" d="M14.6,69.8c-.5-1.1-1-2.3-1.4-3.5-5.1-17.1-1.6-41.3,10.6-44.8,7.8-2.2,17.4,4.8,24.5,14.7"/>
      <path class="st7" d="M11,68.3c37.1,15.7,76,15.7,113.1,0"/>
      <path class="st1" d="M7.3,63.6s-3.3,1.4-3.3,7.1c0,8.6,11,40.1,63.6,40.1s63.6-31.4,63.6-40.1-3.3-7.1-3.3-7.1"/>
      <path class="st1" d="M131.2,70.7c-17.3,16-39.8,25.3-63.4,26.1"/>
      <path class="st1" d="M89.6,100.6c-12.2,6.2-25.7,9.3-39.3,8.9"/>
      <path class="st1" d="M4.1,72.7c19.2,14.7,44,20.1,67.6,14.5"/>
      <path class="st1" d="M55.2,98.8c-13.9,2-28,0-40.7-6.3"/>
    </g>
  </g>
  <g id="Layer_11" class="st15">
    <g>
      <g>
        <path class="st6" d="M126.5,49.7c-3.7-1.5-8-2.3-12.6-2.3-8.8,0-16.4,3-20.5,7.6-3.9-4.3-11.1-7.3-19.5-7.5h-2c-8.3.2-15.6,3.2-19.5,7.5-4.1-4.5-11.7-7.6-20.5-7.6s-9,.9-12.6,2.3c4-16.3,26-28.8,52.6-29.1h2c7.5,0,14.6,1.1,21.1,3,.6.2,1.1.3,1.7.5h.2c.3.1.7.2,1,.3.2,0,.5.2.7.2,5,1.7,9.6,3.9,13.5,6.5,0,0,.2.1.3.2.4.3.8.6,1.3.9,6.6,4.8,11.2,10.8,12.8,17.3v.2Z"/>
        <path class="st6" d="M52.3,54.8c2.2-19.3,10.4-33.8,20.2-34.1h.8c2.9.1,5.7,1.5,8.2,3.8.2.2.4.4.7.6h0c0,.1.3.3.4.4,0,0,.2.2.3.3,2,2.2,3.7,5.1,5.3,8.4,0,0,0,.2,0,.3.2.4.3.7.5,1.1,2.3,5.4,3.9,11.9,4.7,19.1"/>
        <line class="st6" x1="72.9" y1="20.6" x2="72.9" y2="14.6"/>
        <line class="st6" x1="72.9" y1="92.5" x2="72.9" y2="48"/>
      </g>
      <polyline class="st6" points="130.8 68.9 122.5 75 85.9 102 4.4 102"/>
      <path class="st6" d="M15.2,100.6v1.5h70.7l38.3-28.3h0c-2.5-3.1-9.3-4.4-12.5-2.1l-29.5,21.6H22.6c-4.1,0-7.4,3.3-7.4,7.4h0Z"/>
      <polyline class="st6" points="102.8 89.5 126 112.6 19.9 112.6 19.9 102"/>
    </g>
  </g>
  <g id="Layer_12">
    <path class="st11" d="M96.4,14.8h-59.6c-2.9,0-5.3,2.3-5.3,5.3v36.5l-4.1-3.4c-.9-.7-1.9-1.4-3-1.9v-31.2c0-6.8,5.5-12.3,12.3-12.3h59.6c6.8,0,12.3,5.5,12.3,12.3v31.2c-1.1.5-2,1.1-2.9,1.9l-4.1,3.4V20c0-2.9-2.3-5.3-5.3-5.3h0ZM18.2,63.9c-.4,0-.7.3-.7.7v41.4c0,3.9,3.1,7,7,7h84.1c3.9,0,7-3.1,7-7v-41.4c0-.4-.3-.7-.7-.7s-.3,0-.4.2l-39.6,32.5c-2.4,1.9-5.4,3-8.4,3s-6.1-1.1-8.4-3l-39.6-32.5c-.1,0-.3-.2-.4-.2h.1ZM10.5,64.5c0-4.2,3.4-7.7,7.7-7.7s3.5.6,4.9,1.7l39.6,32.5c1.1.9,2.5,1.4,4,1.4s2.9-.5,4-1.4l39.6-32.5c1.4-1.1,3.1-1.7,4.9-1.7,4.2,0,7.7,3.4,7.7,7.7v41.4c0,7.7-6.3,14-14,14H24.5c-7.7,0-14-6.3-14-14v-41.4ZM49.1,35.8h35c1.9,0,3.5,1.6,3.5,3.5s-1.6,3.5-3.5,3.5h-35c-1.9,0-3.5-1.6-3.5-3.5s1.6-3.5,3.5-3.5ZM49.1,56.8h35c1.9,0,3.5,1.6,3.5,3.5s-1.6,3.5-3.5,3.5h-35c-1.9,0-3.5-1.6-3.5-3.5s1.6-3.5,3.5-3.5Z"/>
  </g>
</svg>