<?xml version="1.0" encoding="utf-8"?>
<!-- Generator: Adobe Illustrator 27.2.0, SVG Export Plug-In . SVG Version: 6.00 Build 0)  -->
<svg version="1.1" id="Layer_1" xmlns="http://www.w3.org/2000/svg" xmlns:xlink="http://www.w3.org/1999/xlink" x="0px" y="0px"
	 viewBox="0 0 298 266" style="enable-background:new 0 0 298 266;" xml:space="preserve">
<style type="text/css">
	.st0{opacity:0.4;fill:#76B429;enable-background:new    ;}
	.st1{opacity:0.8;fill:#76B429;enable-background:new    ;}
	.st2{opacity:0.8;fill:#35A2CF;enable-background:new    ;}
</style>
<path class="st0" d="M0,261.9C0,227.7,27.7,200,61.9,200h122c2.3,0,4.1,1.8,4.1,4.1c0,34.2-27.7,61.9-61.9,61.9H4.1
	C1.8,266,0,264.2,0,261.9C0,261.9,0,261.9,0,261.9z"/>
<path class="st1" d="M204.1,188c33.7,0,60.9-27.3,60.9-60.9V4.1c0-2.2-1.8-4.1-4.1-4.1C227.3,0,200,27.3,200,60.9v123
	C200,186.2,201.8,188,204.1,188L204.1,188z"/>
<path class="st2" d="M298,243.2c0-23.8-19.3-43.2-43.2-43.2h-51c-2.1,0-3.8,1.7-3.8,3.8c0,0,0,0,0,0c0,23.8,19.3,43.2,43.2,43.2h51
	C296.3,247,298,245.3,298,243.2C298,243.2,298,243.2,298,243.2z"/>
</svg>
