<?xml version="1.0" encoding="utf-8"?>
<!-- Generator: Adobe Illustrator 27.3.1, SVG Export Plug-In . SVG Version: 6.00 Build 0)  -->
<svg version="1.1" id="Layer_1" xmlns="http://www.w3.org/2000/svg" xmlns:xlink="http://www.w3.org/1999/xlink" x="0px" y="0px"
	 viewBox="0 0 312.7 98.9" style="enable-background:new 0 0 312.7 98.9;" xml:space="preserve">
<style type="text/css">
	.st0{fill-rule:evenodd;clip-rule:evenodd;fill:#FFFFFF;}
	.st1{fill:#FFFFFF;}
</style>
<g>
	<g>
		<path class="st0" d="M34.5,15.5c-7.7,0.9-14,8.1-14,16c0,0.1,0,0.1,0,0.2h0c0,1.1,0,2.2,0,3.3c0,0.2,0,0.3,0,0.5
			c0.4-0.7,0.8-1.5,1.2-2.2c5.1-8.2,14.3-10.8,14.3-10.8c-0.2,0-0.3,0.1-0.5,0.2c-1.5,0.6-2.9,1.3-4.2,2.2c-1.2,0.8-2.4,1.7-3.4,2.8
			c-1,1-1.9,2.1-2.7,3.2c-0.8,1.1-1.5,2.3-2.1,3.5c-0.6,1.2-1.1,2.4-1.6,3.7c-0.2,0.6-0.4,1.2-0.6,1.9c-0.3,1-0.4,2.2-0.5,3.2
			c0,0.4,0,0.8,0,1.1c0.4-0.7,0.8-1.5,1.2-2.2c5.1-8.2,14.3-10.8,14.3-10.8c-1.2,0.5-2.4,1-3.5,1.7c-1.3,0.8-2.6,1.6-3.7,2.6
			c-1.1,1-2.1,2-3,3.1c-0.9,1.1-1.6,2.3-2.3,3.5c-0.7,1.2-1.2,2.5-1.7,3.7c-1,2.3-1.3,4.3-1.4,5.1c0,0.2,0,0.5,0,0.7
			c0.4-0.9,0.9-1.8,1.4-2.6c5.1-8.2,14.3-10.8,14.3-10.8c-10,3.8-14.2,12.4-15.8,20.3c0,0.1,0,0.3,0,0.4c0,1.8,0.4,2.4,2.3,2
			c2.4-0.6,6.7-2.7,6.8-2.7c5.4-3.1,8.1-8.8,8.1-14.7v-12V17.6C37.6,15.1,34.6,15.5,34.5,15.5"/>
		<path class="st0" d="M1.3,30.9c0,0,9.2,2.7,14.3,10.8c0.5,0.8,1,1.7,1.4,2.5c0-0.3,0-0.6,0-0.9c-0.1-0.9-0.5-2.7-1.4-4.8
			c-0.5-1.3-1.1-2.5-1.7-3.7c-0.7-1.2-1.4-2.4-2.3-3.5c-0.9-1.1-1.9-2.2-3-3.1c-1.1-1-2.4-1.9-3.7-2.6c-1.1-0.7-2.3-1.2-3.5-1.7
			c0,0,9.2,2.7,14.3,10.8c0.4,0.7,0.8,1.4,1.2,2.1c0-0.5,0-1,0-1.5c-0.1-0.9-0.2-1.9-0.4-2.8c-0.2-0.6-0.4-1.3-0.6-1.9
			c-0.4-1.3-1-2.5-1.6-3.7c-0.6-1.2-1.3-2.4-2.1-3.5c-0.8-1.1-1.7-2.2-2.7-3.2c-1.1-1-2.2-2-3.4-2.8c-1.3-0.9-2.7-1.6-4.2-2.2
			c-0.2-0.1-0.3-0.1-0.5-0.2c0,0,9.2,2.7,14.3,10.8c0.4,0.7,0.8,1.4,1.2,2.1c0-4,0-8,0-12c0-7.9-6.3-15.1-14-16C3.1,0,0-0.4,0,2.1
			v41.5c0,6,2.7,11.6,8.1,14.7c0,0,4.4,2.1,6.8,2.7c1.8,0.4,2.3-0.3,2.3-2c0-2.7,0-5.5,0-8.2C15.4,43.1,11.2,34.7,1.3,30.9"/>
		<path class="st0" d="M22.7,64.4c-1.8,0-2.4,0.5-2,2.3c0.5,2.4,1.2,4.4,2.6,6.8c3,5,7.6,7.5,13.3,7.8c5.8,0.3,11.7,0.1,17.5,0.1
			c0.4,0,0.7-0.1,0.8-0.6c0.2-8.5-7.2-16.2-15.8-16.4C33.7,64.3,28.2,64.5,22.7,64.4"/>
		<path class="st0" d="M17.1,66.6c0-1.8-0.5-2.4-2.3-2c-2.4,0.5-4.4,1.2-6.8,2.6c-5,3-7.5,7.6-7.8,13.3C-0.1,86.3,0.1,92.2,0.1,98
			c0,0.4,0.1,0.7,0.6,0.8c8.5,0.2,16.2-7.2,16.4-15.8C17.2,77.6,17,72.1,17.1,66.6"/>
	</g>
	<polygon class="st1" points="112.6,64.6 135.8,64.6 135.8,58.7 119.2,58.7 119.2,52.3 133.6,52.3 133.6,46.3 119.2,46.3 
		119.2,40.1 135.5,40.1 135.5,34.2 112.6,34.2 	"/>
	<polygon class="st1" points="85.6,64.6 108.8,64.6 108.8,58.7 92.2,58.7 92.2,52.3 106.6,52.3 106.6,46.3 92.2,46.3 92.2,40.1 
		108.6,40.1 108.6,34.2 85.6,34.2 	"/>
	<polygon class="st1" points="60.8,64.6 82.7,64.6 82.7,58.5 67.5,58.5 67.5,34.2 60.8,34.2 	"/>
	<path class="st1" d="M286.9,64.6h6.7V52.4H306v12.2h6.7V34.2H306v12.1h-12.4V34.2h-6.7V64.6z M268,64.6h6.7V40.4h9.3v-6.2h-25.2
		v6.2h9.3V64.6z M240.5,64.6h21.9v-6.1h-15.2V34.2h-6.7V64.6z M217.7,52.5l4-9.9l4,9.9H217.7z M205.7,64.6h6.8l2.8-6.8h12.9l2.8,6.8
		h7L224.9,34h-6.2L205.7,64.6z M181.3,64.6h23.2v-6H188v-6.4h14.4v-6H188v-6.2h16.3v-6h-23V64.6z M150.4,64.6h6.7V52.4h12.4v12.2
		h6.7V34.2h-6.7v12.1h-12.4V34.2h-6.7V64.6z"/>
</g>
</svg>
