<?xml version="1.0" encoding="utf-8"?>
<!-- Generator: Adobe Illustrator 27.3.1, SVG Export Plug-In . SVG Version: 6.00 Build 0)  -->
<svg version="1.1" id="Layer_1" xmlns="http://www.w3.org/2000/svg" xmlns:xlink="http://www.w3.org/1999/xlink" x="0px" y="0px"
	 viewBox="0 0 540.8 171" style="enable-background:new 0 0 540.8 171;" xml:space="preserve">
<style type="text/css">
	.st0{fill-rule:evenodd;clip-rule:evenodd;fill:#007DB6;}
	.st1{fill-rule:evenodd;clip-rule:evenodd;fill:#15BEF0;}
	.st2{fill-rule:evenodd;clip-rule:evenodd;fill:#62BB46;}
	.st3{fill:#15BEF0;}
	.st4{fill:#62BB46;}
</style>
<g>
	<path class="st0" d="M59.7,26.8c-13.3,1.6-24.2,14.1-24.2,27.7c0,0.1,0,0.2,0,0.3h0c0,1.9,0,3.8,0,5.8c0,0.3,0,0.6,0,0.9
		c0.7-1.3,1.4-2.6,2.2-3.8c8.9-14.1,24.8-18.7,24.8-18.7c-0.3,0.1-0.6,0.2-0.8,0.3c-2.5,1-5,2.3-7.3,3.8c-2.1,1.4-4.1,3-5.9,4.8
		c-1.7,1.7-3.3,3.6-4.7,5.5c-1.4,1.9-2.6,4-3.6,6.1c-1,2.1-1.9,4.2-2.7,6.4c-0.4,1.1-0.7,2.2-1,3.3c-0.5,1.7-0.7,3.9-0.8,5.5
		c0,0.7,0,1.3,0,2c0.7-1.3,1.4-2.6,2.1-3.8c8.9-14.1,24.8-18.7,24.8-18.7c-2.1,0.8-4.2,1.8-6.1,2.9c-2.3,1.3-4.4,2.8-6.4,4.6
		c-1.9,1.6-3.6,3.5-5.1,5.4c-1.5,1.9-2.8,3.9-4,6c-1.1,2.1-2,4.3-3,6.4c-1.7,4-2.2,7.5-2.4,8.9c0,0.4,0,0.8,0,1.2
		c0.8-1.5,1.6-3,2.5-4.5C46.9,71,62.8,66.4,62.8,66.4c-17.3,6.6-24.5,21.4-27.4,35c0,0.2,0,0.5,0,0.7c0,3,0.8,4.2,3.9,3.5
		c4.1-1,11.7-4.6,11.7-4.6c9.3-5.4,14-15.2,14-25.5V54.8V30.4C65,26.1,59.8,26.8,59.7,26.8"/>
	<path class="st1" d="M2.3,53.5c0,0,15.9,4.6,24.8,18.7c0.9,1.4,1.7,2.9,2.4,4.4c0-0.5,0-1,0-1.6c-0.2-1.6-0.8-4.8-2.3-8.4
		c-0.9-2.2-1.8-4.4-3-6.4c-1.2-2.1-2.5-4.1-4-6c-1.5-2-3.2-3.8-5.1-5.4c-2-1.7-4.1-3.3-6.4-4.6c-2-1.1-4-2.1-6.1-2.9
		c0,0,15.9,4.6,24.8,18.7c0.8,1.2,1.4,2.4,2.1,3.7c0-0.9,0-1.7,0-2.6c-0.1-1.5-0.3-3.4-0.8-4.9c-0.3-1.1-0.7-2.2-1-3.3
		c-0.8-2.2-1.7-4.3-2.7-6.4c-1.1-2.1-2.3-4.2-3.6-6.1c-1.4-2-3-3.8-4.7-5.5c-1.8-1.8-3.8-3.4-5.9-4.8c-2.3-1.5-4.7-2.8-7.3-3.8
		c-0.3-0.1-0.6-0.2-0.8-0.3c0,0,15.9,4.6,24.8,18.7c0.8,1.2,1.4,2.4,2.1,3.7c0-6.9,0-13.8,0-20.7c0-13.6-10.9-26-24.2-27.7
		C5.3,0,0-0.6,0,3.7v71.8C0,85.8,4.7,95.5,14,101c0,0,7.6,3.7,11.7,4.6c3.2,0.7,4-0.4,3.9-3.5c0-4.7-0.1-9.4-0.1-14.1
		C26.6,74.5,19.3,60,2.3,53.5"/>
	<path class="st1" d="M39.3,111.4c-3.1,0-4.1,0.9-3.4,4c0.9,4.1,2.1,7.6,4.5,11.7c5.2,8.7,13.2,13,23,13.5
		c10.1,0.6,20.2,0.2,30.3,0.2c0.7,0,1.2-0.2,1.4-1c0.3-14.7-12.4-28-27.4-28.3C58.2,111.3,48.7,111.5,39.3,111.4"/>
	<path class="st2" d="M29.6,115.2c0-3.1-0.9-4.1-4-3.4c-4.1,0.9-7.6,2.1-11.7,4.5c-8.7,5.2-13,13.2-13.5,23
		c-0.6,10.1-0.2,20.2-0.2,30.3c0,0.7,0.2,1.2,1,1.4c14.7,0.3,28-12.4,28.3-27.4C29.7,134.1,29.4,124.6,29.6,115.2"/>
</g>
<polygon class="st3" points="194.6,117.8 234.8,117.8 234.8,107.5 206.2,107.5 206.2,96.4 231,96.4 231,86.1 206.2,86.1 206.2,75.4 
	234.4,75.4 234.4,65.1 194.6,65.1 "/>
<polygon class="st3" points="148,117.8 188.1,117.8 188.1,107.5 159.5,107.5 159.5,96.4 184.3,96.4 184.3,86.1 159.5,86.1 
	159.5,75.4 187.7,75.4 187.7,65.1 148,65.1 "/>
<polygon class="st3" points="105.2,117.8 143,117.8 143,107.2 116.7,107.2 116.7,65.1 105.2,65.1 "/>
<path class="st4" d="M496.2,117.8h11.6V96.6h21.4v21.1h11.6V65.1h-11.6v20.8h-21.4V65.1h-11.6V117.8z M463.5,117.8h11.6v-42h16V65.1
	h-43.7v10.7h16V117.8z M415.9,117.8h37.9v-10.5h-26.3V65.1h-11.6V117.8z M376.5,96.7l7-17.1l7,17.1H376.5z M355.7,117.8h11.8
	l4.8-11.8h22.3l4.8,11.8h12.1L389,64.7h-10.7L355.7,117.8z M313.5,117.8h40.1v-10.3h-28.6V96.4h24.8V86.1h-24.8V75.4h28.2V65.1
	h-39.7V117.8z M260.1,117.8h11.6V96.6h21.4v21.1h11.6V65.1h-11.6v20.8h-21.4V65.1h-11.6V117.8z"/>
</svg>
