<?xml version="1.0" encoding="utf-8"?>
<!-- Generator: Adobe Illustrator 20.0.0, SVG Export Plug-In . SVG Version: 6.00 Build 0)  -->
<svg version="1.1" id="Layer_1" xmlns="http://www.w3.org/2000/svg" xmlns:xlink="http://www.w3.org/1999/xlink" x="0px" y="0px"
	 viewBox="0 0 352.1 113" style="enable-background:new 0 0 352.1 113;" xml:space="preserve">
<style type="text/css">
	.st0{fill:#0076A9;}
	.st1{fill:#40B4E5;}
	.st2{fill:#77BC1F;}
</style>
<g>
	<path class="st0" d="M42.1,19.6c-8.5,1-15.4,9-15.4,17.7c0,0.1,0,0.1,0,0.2l0,0c0,1.2,0,2.5,0,3.7c0,0.2,0,0.4,0,0.6
		c0.4-0.9,0.9-1.6,1.4-2.5c5.7-9.1,15.9-12,15.9-12c-0.1,0-0.4,0.1-0.5,0.2c-1.6,0.6-3.2,1.5-4.6,2.5c-1.4,0.9-2.6,1.9-3.9,3.1
		c-1.1,1.1-2.1,2.2-3,3.6c-0.9,1.2-1.6,2.5-2.4,3.9c-0.6,1.4-1.2,2.7-1.7,4.1c-0.2,0.7-0.5,1.4-0.6,2.1c-0.2,1.1-0.5,2.5-0.5,3.6
		c0,0.4,0,0.9,0,1.2c0.4-0.9,0.9-1.6,1.4-2.4c5.7-9.1,15.9-12,15.9-12c-1.4,0.5-2.6,1.1-4,1.9c-1.5,0.9-2.9,1.9-4.1,3
		c-1.2,1-2.2,2.2-3.2,3.5s-1.7,2.5-2.5,3.9c-0.7,1.4-1.2,2.7-1.9,4.1c-1.1,2.6-1.5,4.7-1.5,5.7c0,0.2,0,0.5,0,0.7c0.5-1,1-2,1.6-2.9
		c5.7-9.1,15.9-12,15.9-12C33.4,49.8,28.8,59.2,26.9,68c0,0.1,0,0.4,0,0.5c0,2,0.5,2.7,2.5,2.2c2.6-0.6,7.5-3,7.5-3
		c6-3.5,9-9.7,9-16.3V37.6V22C45.6,19.1,42.1,19.6,42.1,19.6"/>
	<path class="st1" d="M5.4,36.7c0,0,10.2,3,15.9,12c0.6,0.9,1.1,1.9,1.5,2.7c0-0.4,0-0.6,0-1c-0.1-1-0.5-3-1.5-5.4
		c-0.6-1.4-1.1-2.7-1.9-4.1c-0.7-1.4-1.6-2.6-2.5-3.9c-1-1.2-2.1-2.4-3.2-3.5c-1.2-1.1-2.6-2.1-4.1-3c-1.2-0.7-2.6-1.4-4-1.9
		c0,0,10.2,3,15.9,12c0.5,0.7,0.9,1.6,1.4,2.4c0-0.5,0-1.1,0-1.6c-0.1-1-0.2-2.1-0.5-3.1c-0.2-0.7-0.4-1.4-0.6-2.1
		c-0.6-1.2-1.2-2.6-1.9-3.9c-0.6-1.4-1.5-2.6-2.4-3.9s-1.9-2.5-3-3.6s-2.5-2.1-3.9-3.1c-1.5-1-3-1.7-4.6-2.5C6,19.1,5.7,19.1,5.6,19
		c0,0,10.2,3,15.9,12c0.5,0.7,0.9,1.6,1.4,2.4c0-4.5,0-8.8,0-13.3c0-8.7-7-16.7-15.6-17.7c0,0-3.4-0.4-3.4,2.4v46
		c0,6.6,3,12.8,9,16.3c0,0,4.9,2.4,7.5,3c2,0.5,2.5-0.2,2.5-2.2c0-3,0-6.1,0-9.1C20.9,50.2,16.2,40.9,5.4,36.7"/>
	<path class="st1" d="M29,73.8c-2,0-2.6,0.6-2.2,2.5c0.6,2.6,1.4,4.9,2.9,7.5c3.4,5.6,8.5,8.3,14.7,8.7c6.5,0.4,13,0.1,19.4,0.1
		c0.5,0,0.7-0.1,0.9-0.6c0.2-9.5-8-17.9-17.6-18.2C41.1,73.8,35.1,73.9,29,73.8"/>
	<path class="st2" d="M22.8,76.3c0-2-0.6-2.6-2.5-2.2c-2.6,0.6-4.9,1.4-7.5,2.9c-5.6,3.4-8.3,8.5-8.7,14.7c-0.4,6.5-0.1,13-0.1,19.4
		c0,0.5,0.1,0.7,0.6,0.9c9.5,0.2,17.9-8,18.2-17.6C22.9,88.4,22.7,82.3,22.8,76.3"/>
</g>
<g>
	<path class="st1" d="M70.8,36.3h3.9v30.3h19.1v3.5H70.8V36.3z"/>
	<path class="st1" d="M99.6,36.3H124v3.5h-20.7v11.6h18.4v3.4h-18.4v11.8h20.9v3.5H99.6C99.6,70.1,99.6,36.3,99.6,36.3z"/>
	<path class="st1" d="M130.7,36.3h24.4v3.5h-20.7v11.6h18.4v3.4h-18.4v11.8h20.9v3.5h-24.7V36.3z"/>
</g>
<g>
	<path class="st2" d="M170,36.3h3.9v15.1h19.6V36.3h3.9v33.8h-3.9V54.9h-19.6v15.2H170V36.3z"/>
	<path class="st2" d="M204.3,36.3h24.4v3.5h-20.7v11.6h18.4v3.4h-18.4v11.8H229v3.5h-24.7V36.3z"/>
	<path class="st2" d="M246.8,36.1h3.6l15.4,34h-4.1l-4-9h-18.4l-4,9h-3.9L246.8,36.1z M256.2,57.8l-7.6-17.2l-7.7,17.2H256.2z"/>
	<path class="st2" d="M270.1,36.3h3.9v30.3h19.1v3.5h-22.8V36.3H270.1z"/>
	<path class="st2" d="M301.8,39.8h-11.3v-3.5H317v3.5h-11.3v30.3h-3.9L301.8,39.8L301.8,39.8z"/>
	<path class="st2" d="M321.7,36.3h3.9v15.1h19.6V36.3h3.9v33.8h-3.9V54.9h-19.6v15.2h-3.9V36.3z"/>
</g>
</svg>
