<svg xmlns="http://www.w3.org/2000/svg" width="31.5" height="31.5" viewBox="0 0 31.5 31.5"><path d="M4.5,2.25A4.5,4.5,0,0,0,0,6.75v22.5a4.5,4.5,0,0,0,4.5,4.5H27a4.5,4.5,0,0,0,4.5-4.5V6.75A4.5,4.5,0,0,0,27,2.25ZM6.75,9.563A1.683,1.683,0,0,1,8.438,7.875,17.434,17.434,0,0,1,25.875,25.313a1.688,1.688,0,0,1-3.375,0A14.059,14.059,0,0,0,8.438,11.25,1.683,1.683,0,0,1,6.75,9.563Zm0,6.75a1.683,1.683,0,0,1,1.688-1.687A10.692,10.692,0,0,1,19.125,25.313a1.688,1.688,0,0,1-3.375,0A7.316,7.316,0,0,0,8.438,18,1.683,1.683,0,0,1,6.75,16.313Zm0,8.438A2.25,2.25,0,1,1,9,27,2.25,2.25,0,0,1,6.75,24.75Z" transform="translate(0 -2.25)" fill="#fff"/></svg>