<?xml version="1.0" encoding="UTF-8"?>
<svg xmlns="http://www.w3.org/2000/svg">
	<symbol id="instagram" width="50" height="50" viewBox="0 0 50 50">
		<path d="M15.757,9.914a8.079,8.079,0,1,0,8.079,8.079A8.066,8.066,0,0,0,15.757,9.914Zm0,13.331a5.252,5.252,0,1,1,5.252-5.252,5.262,5.262,0,0,1-5.252,5.252ZM26.051,9.584A1.884,1.884,0,1,1,24.166,7.7,1.88,1.88,0,0,1,26.051,9.584ZM31.4,11.5a9.325,9.325,0,0,0-2.545-6.6,9.387,9.387,0,0,0-6.6-2.545c-2.6-.148-10.4-.148-13,0a9.373,9.373,0,0,0-6.6,2.538,9.356,9.356,0,0,0-2.545,6.6c-.148,2.6-.148,10.4,0,13a9.325,9.325,0,0,0,2.545,6.6,9.4,9.4,0,0,0,6.6,2.545c2.6.148,10.4.148,13,0a9.325,9.325,0,0,0,6.6-2.545,9.387,9.387,0,0,0,2.545-6.6c.148-2.6.148-10.392,0-12.994ZM28.041,27.281a5.318,5.318,0,0,1-3,3c-2.074.823-7,.633-9.288.633s-7.221.183-9.288-.633a5.318,5.318,0,0,1-3-3c-.823-2.074-.633-7-.633-9.288s-.183-7.221.633-9.288a5.318,5.318,0,0,1,3-3c2.074-.823,7-.633,9.288-.633s7.221-.183,9.288.633a5.318,5.318,0,0,1,3,3c.823,2.074.633,7,.633,9.288S28.863,25.214,28.041,27.281Z" />
	</symbol>
	<symbol id="linkedin" width="50" height="50" viewBox="0 0 50 50">
		<path d="M29.25,2.25H2.243A2.26,2.26,0,0,0,0,4.521V31.479A2.26,2.26,0,0,0,2.243,33.75H29.25a2.266,2.266,0,0,0,2.25-2.271V4.521A2.266,2.266,0,0,0,29.25,2.25Zm-19.73,27H4.852V14.217H9.527V29.25ZM7.186,12.164A2.707,2.707,0,1,1,9.893,9.457a2.708,2.708,0,0,1-2.707,2.707ZM27.021,29.25H22.352V21.938c0-1.744-.035-3.987-2.426-3.987-2.433,0-2.805,1.9-2.805,3.86V29.25H12.452V14.217h4.479V16.27h.063a4.917,4.917,0,0,1,4.423-2.426c4.725,0,5.6,3.115,5.6,7.165Z"/>
	</symbol>
	<symbol id="facebook" width="50" height="50" viewBox="0 0 50 50">
		<path d="M28.125,2.25H3.375A3.375,3.375,0,0,0,0,5.625v24.75A3.375,3.375,0,0,0,3.375,33.75h9.65V23.041H8.6V18h4.43V14.158c0-4.37,2.6-6.784,6.586-6.784a26.836,26.836,0,0,1,3.9.34V12h-2.2a2.521,2.521,0,0,0-2.842,2.723V18h4.836l-.773,5.041H18.475V33.75h9.65A3.375,3.375,0,0,0,31.5,30.375V5.625A3.375,3.375,0,0,0,28.125,2.25Z"/>
	</symbol>
	<symbol id="youtube" width="42" height="32" viewBox="0 0 42 32">
		<path d="M38.648,8.725a4.825,4.825,0,0,0-3.395-3.417c-2.995-.808-15-.808-15-.808s-12.008,0-15,.808A4.825,4.825,0,0,0,1.852,8.725c-.8,3.014-.8,9.3-.8,9.3s0,6.289.8,9.3a4.753,4.753,0,0,0,3.395,3.362c2.995.808,15,.808,15,.808s12.008,0,15-.808a4.753,4.753,0,0,0,3.395-3.362c.8-3.014.8-9.3.8-9.3s0-6.289-.8-9.3ZM16.323,23.737V12.318l10.036,5.71L16.323,23.737Z" />
	</symbol>
	<symbol id="rss" width="50" height="50" viewBox="0 0 50 50">
		<path d="M4.5,2.25A4.5,4.5,0,0,0,0,6.75v22.5a4.5,4.5,0,0,0,4.5,4.5H27a4.5,4.5,0,0,0,4.5-4.5V6.75A4.5,4.5,0,0,0,27,2.25ZM6.75,9.563A1.683,1.683,0,0,1,8.438,7.875,17.434,17.434,0,0,1,25.875,25.313a1.688,1.688,0,0,1-3.375,0A14.059,14.059,0,0,0,8.438,11.25,1.683,1.683,0,0,1,6.75,9.563Zm0,6.75a1.683,1.683,0,0,1,1.688-1.687A10.692,10.692,0,0,1,19.125,25.313a1.688,1.688,0,0,1-3.375,0A7.316,7.316,0,0,0,8.438,18,1.683,1.683,0,0,1,6.75,16.313Zm0,8.438A2.25,2.25,0,1,1,9,27,2.25,2.25,0,0,1,6.75,24.75Z"  />
	</symbol>
	<symbol id="x" width="36" height="33" viewBox="0 0 36 33">
		<path d="M28.351,1.73h5.52L21.811,15.514,36,34.269H24.891l-8.7-11.376L6.234,34.269H.711l12.9-14.745L0,1.731H11.391l7.865,10.4ZM26.415,30.966h3.059L9.729,4.86H6.447Z" />
	</symbol>
</svg>