<?xml version="1.0" standalone="no"?>
<!DOCTYPE svg PUBLIC "-//W3C//DTD SVG 20010904//EN"
 "http://www.w3.org/TR/2001/REC-SVG-20010904/DTD/svg10.dtd">
<svg version="1.0" xmlns="http://www.w3.org/2000/svg"
 width="260.000000pt" height="260.000000pt" viewBox="0 0 260.000000 260.000000"
 preserveAspectRatio="xMidYMid meet">
<metadata>
Created by potrace 1.14, written by Peter Selinger 2001-2017
</metadata>
<g transform="translate(0.000000,260.000000) scale(0.100000,-0.100000)"
fill="#000000" stroke="none">
<path d="M1267 2448 c-57 -12 -91 -33 -135 -83 -139 -158 -74 -411 120 -469
167 -50 330 87 331 278 1 184 -144 310 -316 274z"/>
<path d="M1886 2235 c-56 -20 -105 -63 -140 -125 -28 -50 -31 -63 -31 -140 0
-93 16 -137 75 -203 89 -102 281 -102 370 0 57 64 74 110 74 198 0 97 -22 150
-86 211 -73 70 -171 92 -262 59z"/>
<path d="M546 2154 c-154 -55 -225 -246 -150 -401 48 -100 150 -164 248 -157
275 21 342 416 92 546 -48 25 -138 31 -190 12z"/>
<path d="M1124 1871 c-90 -32 -146 -73 -256 -182 -89 -88 -115 -108 -152 -118
-55 -14 -126 -14 -161 -1 -50 19 -133 -35 -190 -125 -18 -27 -33 -54 -35 -60
-1 -5 -6 -15 -11 -21 -32 -39 -99 -302 -99 -390 0 -30 0 -30 68 38 60 60 73
68 106 68 65 0 91 -24 102 -97 3 -21 9 -65 14 -98 5 -33 12 -78 15 -100 8 -57
26 -175 31 -205 2 -14 9 -61 15 -105 14 -98 28 -127 80 -165 41 -29 126 -67
134 -59 2 3 5 125 6 272 1 147 5 264 9 260 4 -4 22 -78 40 -163 52 -246 89
-411 95 -420 13 -21 97 -68 114 -63 52 13 104 106 196 345 92 238 125 318 135
318 8 0 56 -108 85 -190 91 -255 183 -449 219 -463 18 -7 86 43 120 88 23 29
37 79 82 293 31 141 58 259 60 261 8 8 14 -6 25 -60 13 -62 19 -90 47 -214 12
-49 23 -103 25 -120 3 -23 8 -29 23 -27 35 7 71 35 98 76 l27 41 -2 378 c0
208 1 381 4 383 11 12 76 -60 106 -116 18 -33 36 -58 41 -55 5 3 7 11 5 18 -2
7 -6 79 -10 161 -10 255 -27 327 -90 393 -48 50 -78 54 -173 27 -64 -19 -171
-14 -218 11 -16 8 -39 15 -51 15 -15 0 -46 23 -85 63 -64 65 -130 100 -216
113 -21 3 -41 8 -45 11 -4 3 -13 0 -20 -5 -25 -21 -117 -30 -176 -17 -31 7
-63 15 -71 18 -8 4 -38 -2 -66 -12z m592 -808 c-10 -183 -20 -408 -20 -465 -1
-85 -13 -56 -21 52 -4 52 -8 102 -10 110 -2 8 -6 52 -10 97 -6 71 -4 92 16
150 13 38 24 70 24 73 1 3 5 22 9 43 13 62 17 42 12 -60z m-666 77 c0 -6 9
-29 19 -53 34 -75 40 -105 34 -174 -3 -37 -6 -85 -7 -105 -2 -66 -13 -26 -35
132 -12 85 -24 167 -27 183 -2 15 0 27 6 27 5 0 10 -5 10 -10z"/>
</g>
</svg>
