<?xml version="1.0" encoding="utf-8"?>
<!-- Generator: Adobe Illustrator 27.0.0, SVG Export Plug-In . SVG Version: 6.00 Build 0)  -->
<svg version="1.1" id="Layer_1" xmlns="http://www.w3.org/2000/svg" xmlns:xlink="http://www.w3.org/1999/xlink" x="0px" y="0px"
	 viewBox="0 0 3596.2 1704.6" style="enable-background:new 0 0 3596.2 1704.6;" xml:space="preserve">
<style type="text/css">
	.st0{fill-rule:evenodd;clip-rule:evenodd;fill:#FFB000;}
	.st1{fill-rule:evenodd;clip-rule:evenodd;fill:#FFFFFF;}
</style>
<g>
	<polygon class="st0" points="2747,0 2728.5,292.9 2634.8,14.8 2692.7,302.5 2530.2,58.1 2660.6,321.1 2440.4,127 2615.8,326.1 
		2870.9,525.6 3122.5,650.4 2878.1,487.9 3165.8,545.8 2887.6,452.1 3180.6,433.6 2887.6,415.1 3165.8,321.4 2878.1,379.3 
		3122.5,216.8 2859.5,347.2 3053.6,127 2833.4,321.1 2963.8,58.1 2801.3,302.5 2859.3,14.8 2765.5,292.9 	"/>
	<path class="st1" d="M2230.8,82l1032,807.1h-180.7l-851.3-665.8l-466.6,364.9c-4-40.8-13.2-81.2-27.7-119.6l85.5-66.9v-200h128.4
		v99.6L2230.8,82z"/>
	<path class="st0" d="M2381.9,722.8c-6.9-72-64.6-129.7-136.7-136.6v136.6H2381.9z"/>
	<rect x="2245.2" y="751.7" class="st0" width="137.3" height="137.3"/>
	<rect x="2079" y="751.7" class="st0" width="137.4" height="137.3"/>
	<path class="st0" d="M2216.4,586.2c-72.1,6.9-129.8,64.6-136.7,136.6h136.7V586.2z"/>
	<path class="st1" d="M937.4,370.3c-134.7-2.3-247,48.6-319.8,130.5c72.8-162.9,228.1-265.5,378.5-240.9
		c-77.9-50.9-179.1-73.2-298.5-77.4c159.4-83.1,359.3-71.1,456.2,54c50.5-105.3,208.9-172.8,349.1-95.6
		c-145.4,31.6-224.8,76.8-279.4,173.8c285.1-145.3,494,67.9,498.6,311.4c-92.9-189.2-243-272.4-446.4-250.9
		c229.9,60.8,336.1,396.4,94.9,616.6c35.5-279-38.8-466.1-154.4-547.3l-34.5-21.3c-2.2,56.8,14.6,140.8-11.8,214.2
		c-3.4-77.1-15.4-142.2-35.2-196.9c-146.7-15.7-287.7,195.2-293.3,369C747.3,665.1,765.7,435.7,937.4,370.3"/>
	<path class="st1" d="M1120.7,303.2c58.7,297.5-66.1,713.4-255,1048.4c-8.5,15-12.2,26.5-13,35.7c70-13.8,139.4-32.1,208.6-52.5
		c153.8-408.9,222-832.9,90.4-1037.1C1139.1,302.8,1133.3,298.1,1120.7,303.2"/>
	<path class="st1" d="M263.5,865.6c-66.1,62.3-96.2,139.8-92.8,213.6c-41.6-112.9-15.1-235.5,69.1-294.5
		C178.2,796.8,118.8,833.8,59.3,888C97,772.7,199.1,684.4,304.8,699.1c-25.2-74.6,19.4-181.8,123.4-210.6
		c-55.3,83.8-72.3,143-52.9,215.5c69.1-204.4,270.3-200,387.2-84.7c-133.9-47.5-245.6-16.9-333.6,89.3
		c139.6-79,348.8,32.9,336.3,252.7C650.8,810,526.9,754.8,432.8,770.1l-26.7,6c25.7,28.4,73.4,61,95.2,108.9
		c-38-35.6-74.4-61.3-109.7-78.4c-78.2,61.5-46.9,229.7,32.3,316.2C310.6,1097.3,211.5,978,263.5,865.6"/>
	<path class="st1" d="M320.3,746.9c168.5,115.9,304.2,375.3,370.9,625.9l1.1,3.8c41.8-0.6,83.6-3.1,125.3-7.2
		c-118.8-307.8-306.3-598.9-484.9-639.8C328.9,738,323.9,738.5,320.3,746.9"/>
	<path class="st1" d="M0,1070.7c1297,680.5,1557-303.6,2388.2,99.4C1581.9,1056.7,1104.5,1954.1,0,1070.7 M652.3,1461.9
		c1012,771,2019.2-602.2,2944,72.7C2620.2,560.2,1828.4,1973.6,652.3,1461.9"/>
</g>
</svg>
