<?xml version="1.0" encoding="UTF-8"?>
<svg xmlns="http://www.w3.org/2000/svg" width="626.45" height="108.25" viewBox="0 0 626.45 108.25">
  <g id="uuid-e4d045c3-cf57-429d-893f-076a3aafbe14" data-name="Layer 1"/>
  <g id="uuid-bde852be-cb88-4bba-8e07-921991198702" data-name="Layer 2">
    <g id="uuid-644a2949-41c0-4c12-b6e4-51db9aea0ee6" data-name="Layer 1">
      <g>
        <path d="M102.1,71.51v-26.12h13.44c6.24,0,9.65,3.84,9.65,8.42s-3.44,8.42-9.65,8.42h-7.32v9.28h-6.11Zm16.84-17.7c0-2.19-1.81-3.52-4.22-3.52h-6.5v7.05h6.5c2.41,0,4.22-1.37,4.22-3.52Z" fill="#1c75bc"/>
        <path d="M142.71,71.51v-2.39c-1.42,1.45-3.92,2.86-7.32,2.86-4.56,0-6.72-2.27-6.72-5.95v-13.43h5.47v11.47c0,2.62,1.51,3.48,3.83,3.48,2.11,0,3.79-1.06,4.74-2.15v-12.8h5.47v18.91h-5.47Z" fill="#1c75bc"/>
        <path d="M153.43,71.51v-26.12h5.47v9.63c1.64-1.92,3.96-2.9,6.42-2.9,5.3,0,9.21,3.76,9.21,9.95s-3.96,9.91-9.21,9.91c-2.5,0-4.78-1.02-6.42-2.9v2.43h-5.47Zm10.16-3.96c3.19,0,5.3-2.19,5.3-5.48s-2.11-5.52-5.3-5.52c-1.77,0-3.79,.94-4.69,2.19v6.7c.9,1.21,2.93,2.11,4.69,2.11Z" fill="#1c75bc"/>
        <path d="M178.5,71.51v-26.12h5.47v26.12h-5.47Z" fill="#1c75bc"/>
        <path d="M188.66,47.59c0-1.64,1.51-2.94,3.27-2.94s3.27,1.29,3.27,2.94-1.46,2.98-3.27,2.98-3.27-1.33-3.27-2.98Zm.56,23.92v-18.91h5.47v18.91h-5.47Z" fill="#1c75bc"/>
        <path d="M198.61,62.04c0-5.79,4.61-9.91,11.02-9.91,4.26,0,6.85,1.68,8.22,3.41l-3.57,3.05c-.99-1.33-2.5-2.04-4.39-2.04-3.32,0-5.64,2.19-5.64,5.48s2.33,5.52,5.64,5.52c1.89,0,3.4-.78,4.39-2.04l3.57,3.02c-1.38,1.76-3.96,3.45-8.22,3.45-6.42,0-11.02-4.11-11.02-9.95Z" fill="#1c75bc"/>
        <path d="M251.92,71.51v-10.96h-13.56v10.96h-6.11v-26.12h6.11v10.26h13.56v-10.26h6.16v26.12h-6.16Z" fill="#1c75bc"/>
        <path d="M262.09,62.04c0-5.48,4.44-9.91,10.76-9.91s10.42,4.23,10.42,10.42v1.1h-15.46c.34,2.39,2.46,4.38,5.99,4.38,1.77,0,4.22-.7,5.56-1.88l2.41,3.21c-2.07,1.72-5.34,2.62-8.57,2.62-6.33,0-11.11-3.88-11.11-9.95Zm10.76-5.95c-3.4,0-4.87,2.31-5.12,4.19h10.25c-.13-1.8-1.51-4.19-5.12-4.19Z" fill="#1c75bc"/>
        <path d="M299.55,71.51v-1.96c-1.42,1.53-3.88,2.43-6.59,2.43-3.32,0-7.23-2.04-7.23-6.26s3.92-6.11,7.23-6.11c2.76,0,5.21,.82,6.59,2.31v-2.54c0-1.92-1.81-3.17-4.56-3.17-2.24,0-4.31,.74-6.07,2.23l-2.07-3.33c2.54-2.04,5.81-2.98,9.09-2.98,4.74,0,9.09,1.72,9.09,7.17v12.22h-5.47Zm0-4.54v-2.35c-.9-1.1-2.63-1.64-4.39-1.64-2.15,0-3.92,1.02-3.92,2.86s1.77,2.78,3.92,2.78c1.76,0,3.49-.55,4.39-1.64Z" fill="#1c75bc"/>
        <path d="M310.28,71.51v-26.12h5.47v26.12h-5.47Z" fill="#1c75bc"/>
        <path d="M322.08,66.82v-9.87h-3.44v-4.35h3.44v-5.17h5.51v5.17h4.22v4.35h-4.22v8.54c0,1.17,.69,2.08,1.89,2.08,.82,0,1.59-.27,1.9-.55l1.16,3.76c-.82,.67-2.28,1.21-4.56,1.21-3.83,0-5.9-1.8-5.9-5.17Z" fill="#1c75bc"/>
        <path d="M349.47,71.51v-11.51c0-2.62-1.51-3.45-3.88-3.45-2.11,0-3.79,1.1-4.74,2.23v12.73h-5.47v-26.12h5.47v9.67c1.33-1.45,3.92-2.94,7.32-2.94,4.56,0,6.76,2.27,6.76,5.95v13.43h-5.47Z" fill="#1c75bc"/>
        <path d="M369.8,58.48c0-8.03,6.67-13.51,15.29-13.51,6.33,0,9.99,3.13,12.01,6.38l-5.25,2.35c-1.21-2.11-3.79-3.8-6.76-3.8-5.21,0-9,3.64-9,8.58s3.79,8.57,9,8.57c2.97,0,5.56-1.64,6.76-3.8l5.25,2.31c-2.07,3.25-5.68,6.42-12.01,6.42-8.61,0-15.29-5.48-15.29-13.51Z" fill="#1c75bc"/>
        <path d="M412.95,71.51v-1.96c-1.42,1.53-3.88,2.43-6.59,2.43-3.32,0-7.23-2.04-7.23-6.26s3.92-6.11,7.23-6.11c2.76,0,5.21,.82,6.59,2.31v-2.54c0-1.92-1.81-3.17-4.56-3.17-2.24,0-4.31,.74-6.07,2.23l-2.07-3.33c2.54-2.04,5.81-2.98,9.09-2.98,4.74,0,9.09,1.72,9.09,7.17v12.22h-5.47Zm0-4.54v-2.35c-.9-1.1-2.63-1.64-4.39-1.64-2.15,0-3.92,1.02-3.92,2.86s1.77,2.78,3.92,2.78c1.76,0,3.49-.55,4.39-1.64Z" fill="#1c75bc"/>
        <path d="M423.67,71.51v-18.91h5.47v2.58c1.46-1.68,4.05-3.05,6.63-3.05v4.86c-.39-.08-.9-.12-1.51-.12-1.81,0-4.22,.94-5.12,2.15v12.49h-5.47Z" fill="#1c75bc"/>
        <path d="M437.67,62.04c0-5.48,4.44-9.91,10.76-9.91s10.42,4.23,10.42,10.42v1.1h-15.46c.34,2.39,2.46,4.38,5.99,4.38,1.76,0,4.22-.7,5.55-1.88l2.41,3.21c-2.07,1.72-5.34,2.62-8.57,2.62-6.33,0-11.11-3.88-11.11-9.95Zm10.76-5.95c-3.4,0-4.87,2.31-5.12,4.19h10.25c-.13-1.8-1.51-4.19-5.12-4.19Z" fill="#1c75bc"/>
        <path d="M461.31,62.04c0-5.48,4.44-9.91,10.76-9.91s10.42,4.23,10.42,10.42v1.1h-15.46c.34,2.39,2.46,4.38,5.99,4.38,1.77,0,4.22-.7,5.56-1.88l2.41,3.21c-2.07,1.72-5.34,2.62-8.57,2.62-6.33,0-11.11-3.88-11.11-9.95Zm10.76-5.95c-3.4,0-4.87,2.31-5.12,4.19h10.25c-.13-1.8-1.51-4.19-5.12-4.19Z" fill="#1c75bc"/>
        <path d="M486.29,71.51v-18.91h5.47v2.58c1.46-1.68,4.05-3.05,6.63-3.05v4.86c-.39-.08-.9-.12-1.51-.12-1.81,0-4.22,.94-5.12,2.15v12.49h-5.47Z" fill="#1c75bc"/>
        <path d="M499.81,69.05l2.37-3.48c1.51,1.29,4.61,2.58,7.19,2.58,2.37,0,3.49-.86,3.49-2.04,0-3.13-12.36-.59-12.36-8.03,0-3.17,3.06-5.95,8.53-5.95,3.53,0,6.33,1.1,8.4,2.58l-2.2,3.41c-1.25-1.21-3.62-2.19-6.16-2.19-1.98,0-3.27,.82-3.27,1.88,0,2.82,12.32,.47,12.32,8.1,0,3.45-3.23,6.07-9,6.07-3.62,0-7.1-1.1-9.3-2.94Z" fill="#1c75bc"/>
      </g>
      <ellipse cx="19.38" cy="26.82" rx="12.36" ry="13.35" transform="translate(-1.89 1.47) rotate(-4.15)" fill="#f7941d"/>
      <ellipse cx="82.18" cy="22.75" rx="12.36" ry="13.17" transform="translate(-1.43 6) rotate(-4.15)" fill="#662d91"/>
      <ellipse cx="51.72" cy="13.35" rx="13.35" ry="12.36" transform="translate(34.71 63.98) rotate(-85.91)" fill="#8dc63f"/>
      <g>
        <path d="M35.02,104.18l-9.45-43.35-.39,39.85c-5.56-2.22-6.2-4.68-6.27-5.2l-3.91-26.06c-.01-.75-.19-3.63-2.07-5.52-1.03-1.04-2.41-1.59-3.99-1.59-.72,0-1.49,.11-2.3,.33-1.19,.33-2.81,1.7-4.32,3.23,1.18-7.36,4.34-20.2,12.23-23.16,1.61,.54,3.67,.9,5.24,.9,2.37-.02,5.73-.85,7.85-2.37,.36,.01,.71,.02,1.05,.02s1.6-.02,1.92-.02c1.58,0,2.98,.11,4.68,.68,2.72,.9,3.3,1.97,5.58,6.93,.63,1.37,1.34,2.91,2.26,4.77,.51,1.07,.05,6-.81,11.37-.94-2.34-1.94-4.67-2.47-5.44-.5-.73-1.16-.83-1.51-.83h-.78l-.54,.61c-.75,.89-.91,1.07,1.96,18.6,.92,5.63,2.07,12.63,2.02,13.67-.92,8.12-1.12,11.39-1.16,12.67-.39,.52-.67,1.02-.9,1.45-.14,.25-.33,.6-.46,.77l-3.49-2.3Z" fill="#f7941d"/>
        <path d="M30.62,42.92c1.45,0,2.66,.1,4.16,.59,1.96,.65,2.31,1.1,4.58,6.04,.62,1.35,1.32,2.87,2.22,4.7,.18,.75,.11,2.47-.12,4.69-.07-.13-.15-.24-.21-.34-.68-.99-1.74-1.56-2.89-1.56l-1.59,.02-1.01,1.18c-1.31,1.54-1.41,1.66,1.59,19.96,.87,5.33,1.96,11.94,2,13.3-.79,7.05-1.06,10.51-1.14,12.21-.09,.14-.18,.27-.25,.4l-1.44-.95-6.14-28.13-6.35-29.11-.29,29.79-.22,22.33c-2.19-1.24-2.9-2.37-2.96-2.79,0-.04-.01-.08-.02-.11l-3.88-25.86c-.03-1.14-.33-4.33-2.55-6.56-1.35-1.37-3.15-2.09-5.18-2.09-.87,0-1.79,.13-2.74,.4-.43,.12-.89,.33-1.37,.61,1.6-6.95,4.62-14.78,9.81-17.14,1.66,.49,3.6,.8,5.16,.8h.1c2.45-.02,5.82-.83,8.24-2.36,.18,0,.37,0,.56,0,.34,0,.67,0,1,0,.3,0,.61,0,.91,0m-3.51-3.39c-1.56,1.37-4.84,2.38-7.24,2.4h-.08c-1.63,0-3.81-.44-5.22-1C1.69,44.94,0,70.99,0,70.99c0,0,5.02-6.16,7.09-6.73,.69-.19,1.3-.28,1.85-.28,4.42,0,4.37,5.57,4.37,5.57l3.91,26.11c.05,.22,.23,4.43,9.6,7.38l.27-27.31,6.43,29.47,4.59,3.03c.07,0,.14,0,.21,0,1.82,0,1.82-1.84,3.22-3.38,0,0-.14-1.67,1.15-13.12,.25-2.25-5.29-31.36-4.33-31.36,.03,0,.07,.03,.12,.11,1,1.45,4.43,10.64,4.43,10.64,0,0,3.17-15.36,1.73-18.26-4.22-8.53-4.35-11.08-8.83-12.55-2.02-.66-3.64-.76-5.2-.76-.64,0-1.27,.02-1.92,.02-.52,0-1.05-.01-1.59-.05h0Z" fill="#f7941d"/>
      </g>
      <g>
        <g>
          <path d="M63.26,86.82c.13-.65-.86-2.68-1.55-2.67l1.55,2.67Z" fill="#13558f"/>
          <path d="M61.71,84.15h0l1.55,2.67c.13-.65-.86-2.67-1.55-2.67h0Z" fill="#13558f"/>
        </g>
        <g>
          <path d="M70.36,97.48l1.77-38.96-3.33-.39c-.42,2.26-.97,4.39-1.51,6.22-.85-6.84-1.75-17.11-.32-22.01l.04-.13,.02-.13c.57-4.48,5.89-5.15,7.54-5.25,1.07,.65,3.66,1.96,7.34,2.03h.49c3.4,0,5.25-.72,6.47-1.2,.49-.19,.87-.34,1.13-.35,.12,0,.23-.01,.35-.01,4.96,0,6.15,7.21,6.39,9.42,.31,2.78,.63,7.98,.85,12.07-1.51-2.23-3.31-4.09-5.1-4.09-.2,0-.4,.02-.6,.06q-1.56,.34-1.4,17.56c.07,7.93,.19,15.86,.19,15.86l-.14,3c-.2,.72-.97,2.83-3.51,4.16l-.34-1.88-5.59-24.6-3.76,16.25-3.36,15.84c-.35,.97-1.97,2.61-3.39,3.81l-.24-7.27Z" fill="#662d91"/>
          <path d="M74.17,38.54c1.43,.79,4.09,1.93,7.7,2,.18,0,.35,0,.52,0,3.71,0,5.74-.79,7.09-1.32,.23-.09,.54-.21,.67-.24,.07,0,.13,0,.2,0,3.66,0,4.58,6.6,4.72,7.92,.19,1.74,.39,4.46,.57,7.26-1.06-.77-2.11-1.15-3.15-1.15-.32,0-.64,.03-.95,.1-2.64,.57-2.71,3.09-2.74,4.59-.02,.85-.03,2.09-.04,3.68,0,2.65,.01,6.33,.06,10.95,.07,7.37,.18,14.82,.19,15.77l-.12,2.79c-.1,.3-.31,.81-.73,1.36l-3.78-16.63-3.25-14.28-3.3,14.27-2.11,9.11v.06l-2.17,10.15-1.16,5.49c-.06,.11-.13,.24-.23,.37l-.11-3.31,1.77-38.9-5.51-.64c-.5-5.85-.66-11.93,.28-15.15l.07-.25,.03-.26c.36-2.87,3.83-3.57,5.48-3.74m.87-3.41c-.15,0-8.83,.03-9.68,6.73-2.37,8.15,1.23,29.49,1.23,29.49,0,0,2.51-5.71,3.86-12.92l-1.77,39.03,.34,10.38c1.03-.24,5.87-4.18,6.59-6.46l1.22-5.75,2.16-10.15,2.11-9.11,3.96,17.38,.7,3.89c4.78-1.34,6.18-5,6.47-6.22l.14-3.27s-.48-31.68-.11-31.76c.08-.02,.16-.03,.24-.03,2.56,0,6.42,8.24,6.42,8.24l.65-.09s-.59-12.9-1.16-17.98c-.25-2.26-1.55-10.91-8.06-10.91-.15,0-.29,0-.44,.01-1.53,.09-2.8,1.55-7.51,1.55-.15,0-.3,0-.46,0-4.32-.08-6.9-2.05-6.9-2.05h0Z" fill="#662d91"/>
        </g>
      </g>
      <path d="M69.02,91.61l-3.33-32.27c-.88-17.65,.04-19.53,2.92-21.88,2.03-1.66,4.08-2.03,4.16-2.09-4.22-6.01-7.97-7.7-15.22-8.78-1.51,.92-2.98,1.36-5.91,1.39-3.21,.03-4.74-.76-6.49-1.4-7.28,1.35-13.66,7.3-18.07,12.98,10.81,.6,15.6,4.42,15.38,19.39l-1.85,25.6-.97,14.09h0l-.23,5.37-.17,4.03c.87-.21,1.77-1.11,2.67-2.38,.28-.4,2.6-4.65,3.46-6.67h0c1.98-4.66,8.21-22.11,9.06-22.08,.74,.02,5.71,13.64,5.71,13.64,.92,2.44,1.87,4.94,2.84,7.28,1.03,2.49,2.07,4.77,3.08,6.52,.82,1.44,1.63,2.44,2.31,3.1,.16,.16,.44,.31,.61,.38l.02-16.22Z" fill="#8dc63f"/>
      <g>
        <g>
          <path d="M560.65,59.99c-.03,.15-.05,.25-.05,.28v.19c-.05,2.55-.66,4.84-1.83,6.88h.02c-1.64,2.41-3.92,4.26-6.85,5.56-2.93,1.3-5.82,1.95-8.66,1.95s-5.2-.27-7.07-.8c-1.87-.53-3.6-1.31-5.19-2.33-1.59-1.02-2.77-2-3.54-2.94-1.83-2.22-2.75-5.37-2.75-9.43,0-.14,.02-.25,.07-.35v-.37c-.05-.06-.07-.12-.07-.19l.05-.25h-.02c.3-2.7,.9-4.48,1.78-5.33,0-.17,.11-.36,.34-.58v.02l.36-.56c1.9-2.33,4.06-3.93,6.51-4.79l.84-.3c1.06-.49,2.55-.86,4.46-1.11l.77-.07c.11-.02,.34-.03,.69-.05,.34-.01,.59-.05,.73-.09l1.04,.02s.1-.02,.17-.02,.14,0,.22,.02l-.02-.02c.1,.05,.24,.07,.43,.07,.06-.06,.18-.09,.34-.09,3.49,0,6.45,.69,8.89,2.06l.48,.21c5.25,2.42,7.88,6.56,7.88,12.42Zm-14.99,.14c-.06-3.07-.52-5.15-1.37-6.23-.35-.45-.78-.67-1.29-.67s-.95,.28-1.34,.84c-.39,.56-.7,1.45-.93,2.65-.23,1.2-.35,2.27-.35,3.21s.04,1.74,.13,2.41c.09,.67,.22,1.38,.4,2.13s.45,1.38,.82,1.88c.37,.5,.79,.75,1.25,.75,1.78,0,2.67-2.32,2.67-6.97Z" fill="#662d91"/>
          <path d="M562.57,46.28l6.41-.02h6.41l.53,3.1c.37,2.18,.59,3.41,.65,3.71h.84c.59-2.64,1.74-4.52,3.42-5.63l.96-.53c.05-.09,.34-.26,.87-.51l-.1,.02,.55-.21c1.57-.6,2.93-.91,4.07-.93,.24,0,.4,.02,.48,.05h.89v12.93c-.34-.08-.87-.12-1.59-.12s-1.47,.1-2.23,.3c-.76,.2-1.41,.46-1.93,.78-.52,.32-.98,.72-1.36,1.22-1.19,1.53-1.78,3.82-1.78,6.88l.05,2.43v4.26l-8.58,.02h-8.55l-.02-13.83v-13.92Z" fill="#662d91"/>
          <path d="M612.04,71.09l.1-1.34c0-.23-.07-.86-.22-1.88-.21,.36-.49,.71-.85,1.07s-.66,.56-.9,.62c-1.75,.74-3.88,1.11-6.37,1.11s-4.74-.49-6.72-1.47c-1.98-.98-3.57-2.4-4.77-4.25-1.2-1.85-1.79-3.83-1.79-5.93s.33-3.96,.98-5.59c.65-1.63,1.56-3.05,2.72-4.25,1.16-1.2,2.61-2.15,4.32-2.85,1.72-.69,3.6-1.04,5.64-1.04,3.26,0,5.98,.87,8.17,2.62,.4,.42,.82,.76,1.25,1.04l.34-1.02v-1.62h6.24l6.26-.02,.02,21.61c0,.26-.02,.67-.05,1.23v.09c-.02,.29-.02,.76-.02,1.39v.25l.05,1.23-.14,1.3c0,.08,0,.12,.01,.14,0,.02-.06,.36-.21,1.04s-.32,1.28-.53,1.81c-.66,1.7-1.97,3.25-3.93,4.65-1.96,1.4-3.66,2.2-5.11,2.4-.16,.15-.47,.27-.94,.36-.47,.08-.75,.14-.84,.17v-.02c-1.56,.49-3.05,.74-4.47,.74s-2.16-.02-2.2-.05h-.72c-.14,.05-.53,.07-1.14,.07s-1.75-.18-3.38-.53l-.77-.16c-1.17-.23-2.24-.56-3.2-1-2.28-.88-4.07-2.05-5.37-3.52-1.3-1.47-2.18-3.5-2.65-6.09l-.05-.21c.51,.03,1.27,.05,2.26,.05l3.95-.07h10.67l-.02,.09c0,.8,.18,1.53,.54,2.19,.36,.66,.84,.98,1.43,.98,1.04,0,1.75-.57,2.12-1.71,.29-.9,.43-1.84,.43-2.85v-.46s-.07,.03-.07,.09c-.03-.05-.05-.18-.05-.39Zm.67-12.6l.02-.28c-.14-4.48-1.17-6.72-3.08-6.72-.55,0-1.03,.19-1.45,.58-.67,.62-1.14,1.54-1.39,2.78-.25,1.24-.37,2.31-.37,3.22l.07,.81v.21l-.02,.16v.14c0,1.27,.31,2.5,.94,3.7,.63,1.2,1.42,1.79,2.38,1.79,1.06,0,1.94-1.27,2.65-3.8h-.12c.24-.6,.36-1.22,.36-1.85v-.74Z" fill="#662d91"/>
        </g>
        <g>
          <circle cx="525.99" cy="68.69" r="8.21" fill="#fff"/>
          <circle cx="526.05" cy="68.49" r="4.07" fill="#0d86a8"/>
        </g>
      </g>
      <g>
        <path d="M103.02,80.79h2.47v14.31h7.49v2.17h-9.96v-16.49Z" fill="#0d86a8"/>
        <path d="M115.31,81.93c0-.79,.67-1.43,1.43-1.43s1.43,.64,1.43,1.43-.64,1.41-1.43,1.41-1.43-.62-1.43-1.41Zm.35,3.41h2.22v11.94h-2.22v-11.94Z" fill="#0d86a8"/>
        <path d="M121.96,87.3h-1.98v-1.95h1.98v-.79c0-2.57,1.51-4,3.63-4,.77,0,1.43,.15,1.95,.45l-.52,1.66c-.3-.17-.67-.27-1.06-.27-1.11,0-1.78,.74-1.78,2.17v.79h2.42v1.95h-2.42v9.99h-2.22v-9.99Z" fill="#0d86a8"/>
        <path d="M133.97,85.05c3.58,0,5.81,2.79,5.81,6.45v.54h-9.44c.17,2.03,1.66,3.71,4.05,3.71,1.26,0,2.65-.5,3.54-1.41l1.04,1.46c-1.19,1.16-2.87,1.78-4.8,1.78-3.56,0-6.18-2.52-6.18-6.28,0-3.46,2.5-6.25,5.98-6.25Zm-3.66,5.39h7.29c-.05-1.58-1.11-3.56-3.63-3.56s-3.54,1.93-3.66,3.56Z" fill="#0d86a8"/>
        <path d="M142.11,85.74c.79-.49,1.56-1.51,1.68-2.32-.05,.02-.25,.07-.37,.07-.77,0-1.33-.59-1.33-1.41s.67-1.53,1.51-1.53c.91,0,1.73,.74,1.73,2.05,0,1.63-.91,3.12-2.17,3.98l-1.04-.84Z" fill="#0d86a8"/>
        <path d="M147.62,94.09c.82,.89,2.4,1.71,4,1.71s2.57-.69,2.57-1.71c0-1.19-1.36-1.58-2.89-1.93-2.03-.47-4.4-1.01-4.4-3.58,0-1.9,1.63-3.54,4.55-3.54,2.05,0,3.54,.74,4.55,1.71l-.99,1.56c-.69-.84-2.03-1.46-3.53-1.46s-2.45,.59-2.45,1.56c0,1.04,1.29,1.38,2.77,1.73,2.08,.47,4.55,1.04,4.55,3.78,0,2.05-1.68,3.66-4.82,3.66-2,0-3.76-.62-4.97-1.85l1.06-1.63Z" fill="#0d86a8"/>
        <path d="M174.79,84.55l-3.41,12.73h-2.64l-4.72-16.49h2.77l3.41,13.22,3.61-13.22h2l3.58,13.22,3.41-13.22h2.77l-4.7,16.49h-2.64l-3.44-12.73Z" fill="#0d86a8"/>
        <path d="M185.9,91.3c0-3.44,2.32-6.25,6.03-6.25s6.03,2.82,6.03,6.25-2.3,6.28-6.03,6.28-6.03-2.82-6.03-6.28Zm9.74,0c0-2.25-1.31-4.28-3.71-4.28s-3.71,2.03-3.71,4.28,1.33,4.3,3.71,4.3,3.71-2.03,3.71-4.3Z" fill="#0d86a8"/>
        <path d="M200.79,85.34h2.22v1.83c.91-1.19,2.32-2.1,3.91-2.1v2.25c-.22-.05-.47-.07-.77-.07-1.11,0-2.62,.84-3.14,1.73v8.31h-2.22v-11.94Z" fill="#0d86a8"/>
        <path d="M213.17,92.14l-1.8,1.83v3.31h-2.22v-16.49h2.22v10.6l5.76-6.06h2.79l-5.14,5.41,5.19,6.53h-2.82l-3.98-5.14Z" fill="#0d86a8"/>
      </g>
      <g>
        <path d="M224.22,85.24h-1.44v-.52h3.49v.52h-1.44v4.2h-.62v-4.2Z" fill="#231f20"/>
        <path d="M230.78,87.37c-.03-.66-.08-1.45-.07-2.04h-.02c-.16,.55-.36,1.14-.6,1.79l-.83,2.29h-.46l-.76-2.25c-.22-.67-.41-1.27-.55-1.83h-.01c-.01,.59-.05,1.38-.09,2.09l-.13,2.02h-.58l.33-4.72h.78l.81,2.28c.2,.58,.36,1.1,.48,1.59h.02c.12-.48,.29-.99,.5-1.59l.84-2.28h.78l.29,4.72h-.6l-.12-2.07Z" fill="#231f20"/>
      </g>
    </g>
  </g>
</svg>