<?xml version="1.0" encoding="UTF-8"?>
<svg id="Layer_1" data-name="Layer 1" xmlns="http://www.w3.org/2000/svg" version="1.1" viewBox="0 0 139.2 151.4">
  <defs>
    <style>
      .cls-1 {
        fill: #e5e5e5;
        stroke-width: 0px;
      }
    </style>
  </defs>
  <ellipse class="cls-1" cx="27.1" cy="37.5" rx="17.3" ry="18.7" transform="translate(-2.6 2.1) rotate(-4.1)"/>
  <ellipse class="cls-1" cx="114.9" cy="31.8" rx="17.3" ry="18.4" transform="translate(-2 8.4) rotate(-4.1)"/>
  <ellipse class="cls-1" cx="72.3" cy="18.7" rx="18.7" ry="17.3" transform="translate(48.5 89.5) rotate(-85.9)"/>
  <path class="cls-1" d="M62.4,74c-5.9-11.9-6.1-15.5-12.3-17.5-4.9-1.6-8.2-.8-12.2-1.1-2.2,1.9-6.8,3.3-10.1,3.4-2.3,0-5.4-.6-7.4-1.4C2.4,62.9,0,99.3,0,99.3,0,99.3,7,90.7,9.9,89.9c8.8-2.4,8.7,7.4,8.7,7.4l5.5,36.5c0,.3.3,6.2,13.4,10.3l.4-38.2,9,41.2,6.4,4.2c2.8.2,2.8-2.5,4.8-4.7,0,0-.2-2.3,1.6-18.3.4-3.2-7.9-46.7-5.9-43.7,1.4,2,6.2,14.9,6.2,14.9,0,0,4.4-21.5,2.4-25.5h0Z"/>
  <path class="cls-1" d="M88.5,121.4c.2-.9-1.2-3.7-2.2-3.7l2.2,3.7Z"/>
  <path class="cls-1" d="M125.7,49.8c-2.2.1-4,2.3-11.1,2.2-6-.1-9.6-2.9-9.6-2.9,0,0-12.3,0-13.5,9.4-3.3,11.4,1.7,41.2,1.7,41.2,0,0,3.5-8,5.4-18.1l-2.5,54.6.5,14.5c1.4-.3,8.2-5.8,9.2-9l1.7-8,3-14.2,3-12.7,5.5,24.3,1,5.4c6.7-1.9,8.6-7,9-8.7l.2-4.6s-.7-44.3-.2-44.4c3.6-.8,9.3,11.5,9.3,11.5h.9c0-.1-.8-18.2-1.6-25.3-.4-3.2-2.3-15.8-11.9-15.2h0Z"/>
  <path class="cls-1" d="M96.5,128.1l-4.7-45.1c-1.2-24.7,0-27.3,4.1-30.6,2.8-2.3,5.7-2.8,5.8-2.9-5.9-8.4-11.1-10.8-21.3-12.3-2.1,1.3-4.2,1.9-8.3,1.9-4.5,0-6.6-1.1-9.1-2-10.2,1.9-19.1,10.2-25.3,18.2,15.1.8,21.8,6.2,21.5,27.1l-2.6,35.8-1.4,19.7-.3,7.5-.2,5.6c1.2-.3,2.5-1.6,3.7-3.3.4-.6,3.6-6.5,4.8-9.3,2.8-6.5,11.5-30.9,12.7-30.9,1,0,8,19.1,8,19.1,1.3,3.4,2.6,6.9,4,10.2,1.4,3.5,2.9,6.7,4.3,9.1,1.1,2,2.3,3.4,3.2,4.3.2.2.6.4.9.5v-22.7h0Z"/>
</svg>