<?xml version="1.0" encoding="UTF-8"?>
<svg id="uuid-d43802ce-3556-424f-a29c-0d1f363a317f" data-name="Layer 1" xmlns="http://www.w3.org/2000/svg" width="101" height="101" viewBox="0 0 101 101">
  <rect x="70.64" y="77.23" width="2.63" height="13.39" fill="#011520"/>
  <path d="M61.1,34.16c-8.81,0-15.98-7.17-15.98-15.98s7.17-15.98,15.98-15.98,15.98,7.17,15.98,15.98-7.17,15.98-15.98,15.98Zm0-29.34c-7.36,0-13.35,5.99-13.35,13.36s5.99,13.35,13.35,13.35,13.35-5.99,13.35-13.35-5.99-13.36-13.35-13.36Z" fill="#011520"/>
  <path d="M30.34,88.2c-2.03,0-4-1.37-6.03-2.78l-.26-.18c-2.64-1.83-4.72-3.39-5.36-5.43-.32-1.03-.24-2.07,.23-3.08,.34-.72,.63-1.04,1.32-1.81l.37-.41c3.29-3.67,8.42-4.42,12.2-1.79h0c1.77,1.24,3.11,3.06,3.75,5.12,.62,1.96,.55,4.01-.18,5.62-.5,1.08-1.25,1.88-1.7,2.35l-.15,.16c-1.45,1.61-2.84,2.22-4.2,2.22Zm-2.5-14.44c-2.07,0-4,1.08-5.28,2.5l-.37,.41c-.64,.72-.73,.82-.9,1.17-.19,.41-.22,.78-.1,1.18,.42,1.34,2.6,2.85,4.35,4.06l.26,.18c3.64,2.53,4.78,3.16,6.78,.94l.19-.2c.36-.38,.9-.95,1.22-1.64,.46-1.02,.49-2.38,.06-3.74-.48-1.52-1.45-2.85-2.75-3.76h0c-1.13-.79-2.32-1.12-3.47-1.12Z" fill="#011520"/>
  <path d="M47.81,90.02c-4.37,0-7.14-1.94-7.71-5.31-.44-2.69,.02-5.15,1.27-6.77,.94-1.22,2.3-1.94,3.92-2.09,10.29-.94,16.67-9.85,18.99-17.2l2.5,.79c-2.57,8.12-9.68,17.96-21.26,19.02-.9,.08-1.59,.44-2.08,1.08-.79,1.03-1.08,2.8-.76,4.73,.43,2.58,2.98,3.12,5.04,3.12,24.81-1.68,31.88-23.77,32.15-35.22,0-7.25-5.88-12.54-13.99-12.54h-9.43c-3.24,0-7.59,.61-8.98,1.59l-1.52-2.14c2.9-2.05,10.42-2.08,10.49-2.08h9.43c9.63,0,16.61,6.39,16.61,15.19-.28,12.31-7.9,36-34.68,37.81h-.01Z" fill="#011520"/>
  <path d="M36.87,52.38c-6.32,0-11.46-5.14-11.46-11.46s5.14-11.46,11.46-11.46,11.46,5.14,11.46,11.46-5.14,11.46-11.46,11.46Zm0-20.3c-4.87,0-8.84,3.96-8.84,8.84s3.96,8.83,8.84,8.83,8.83-3.96,8.83-8.83-3.96-8.84-8.83-8.84Z" fill="#011520"/>
  <rect x="36.59" y="81.28" width="2.63" height="7.9" transform="translate(-52.12 109.66) rotate(-81.21)" fill="#011520"/>
  <path d="M57.78,98.8c-1.77,0-3.26-.87-3.9-1.66l-6.3-7.66,2.03-1.67,6.31,7.67s1.65,1.49,3.66,.08c.82-.58,1.34-1.35,1.48-2.17,.09-.56-.02-1.1-.3-1.48l-3.15-4.9,2.21-1.42,3.1,4.83c.66,.89,.94,2.12,.74,3.39-.25,1.52-1.15,2.91-2.56,3.9-1.13,.79-2.27,1.09-3.31,1.09Z" fill="#011520"/>
  <path d="M50.86,76.84c-.27,0-.54-.02-.8-.07-7.14-1.28-13.72-6.05-17.59-12.77l2.28-1.31c3.44,5.97,9.48,10.37,15.78,11.49,.6,.11,1.34-.1,2.01-.56,.77-.53,1.32-1.32,1.45-2.06,.13-.73-.03-1.53-.44-2.2-.4-.65-.97-1.07-1.62-1.19-3.39-.61-5.67-1.82-7.87-4.2-1.59-1.71-2.52-3.51-3.33-5.1-.68-1.32-1.27-2.46-2.08-3.27-.85-.84-2.28-2.25-5.08-2.25-3.19,0-6.33,2.31-7.63,5.62-1.7,4.32-2.71,10.34-2.65,15.69l-2.63,.03c-.07-5.67,1.02-12.06,2.83-16.68,1.68-4.29,5.82-7.29,10.07-7.29,3.87,0,5.93,2.03,6.92,3,1.12,1.1,1.82,2.48,2.58,3.94,.78,1.51,1.58,3.07,2.92,4.52,1.83,1.97,3.56,2.89,6.41,3.4,1.39,.25,2.6,1.1,3.39,2.4,.74,1.21,1.02,2.68,.78,4.03-.25,1.42-1.2,2.82-2.54,3.75-1,.7-2.1,1.06-3.17,1.06Z" fill="#011520"/>
</svg>