<svg xmlns="http://www.w3.org/2000/svg">
	<symbol id="search-icon" viewBox="0 0 26.32 26.34">
		<path d="M10.73 0a10.74 10.74 0 1 0 6.84 19l7.05 7a1 1 0 0 0 .7.29 1 1 0 0 0 .71-.29 1 1 0 0 0 0-1.41l-7-7A10.73 10.73 0 0 0 10.73 0zm0 19.47a8.74 8.74 0 1 1 8.74-8.73 8.74 8.74 0 0 1-8.74 8.73z" data-name="Layer 2"/>
	</symbol>

	<symbol id="leadership-growth-icon" viewBox="0 0 101 101">
		<path d="M92.4 79.9c-.2 0-.3 0-.5-.1L78.3 72c-.5-.3-.6-.9-.4-1.4s.9-.6 1.4-.4L92.9 78c.5.3.6.9.4 1.4-.2.3-.5.5-.9.5zM22.2 34.8c-.2 0-.3 0-.5-.1L8.1 26.9c-.5-.3-.6-.9-.4-1.4s.9-.6 1.4-.4L22.7 33c.5.3.6.9.4 1.4-.3.3-.6.4-.9.4zM8.6 79.9c-.3 0-.7-.2-.9-.5-.3-.5-.1-1.1.4-1.4l13.6-7.8c.5-.3 1.1-.1 1.4.4.3.5.1 1.1-.4 1.4L9.1 79.8c-.2.1-.3.1-.5.1zm70.2-45.1c-.3 0-.7-.2-.9-.5-.3-.5-.1-1.1.4-1.4l13.6-7.8c.5-.3 1.1-.1 1.4.4.3.5.1 1.1-.4 1.4l-13.6 7.8c-.1.1-.3.1-.5.1zM17.2 53.5H1.5c-.6 0-1-.4-1-1s.4-1 1-1h15.7c.6 0 1 .4 1 1s-.5 1-1 1zm82.3 0H83.8c-.6 0-1-.4-1-1s.4-1 1-1h15.7c.6 0 1 .4 1 1s-.4 1-1 1zm-9.4 11.6h-.3l-7.6-2c-.5-.1-.9-.7-.7-1.2s.7-.9 1.2-.7l7.6 2c.5.1.9.7.7 1.2 0 .4-.4.7-.9.7zM18.4 43.8h-.3l-7.6-2c-.5-.1-.9-.7-.7-1.2.1-.5.7-.8 1.2-.7l7.6 2c.5.1.9.7.7 1.2 0 .4-.4.7-.9.7zm60.1 41.5c-.3 0-.5-.1-.7-.3l-5.5-5.5c-.4-.4-.4-1 0-1.4s1-.4 1.4 0l5.5 5.5c.4.4.4 1 0 1.4-.2.2-.5.3-.7.3zm-56 0c-.3 0-.5-.1-.7-.3-.4-.4-.4-1 0-1.4l5.5-5.5c.4-.4 1-.4 1.4 0s.4 1 0 1.4L23.3 85c-.2.2-.5.3-.8.3zM10.9 65.1c-.4 0-.8-.3-1-.7-.1-.5.2-1.1.7-1.2l7.6-2c.5-.1 1.1.2 1.2.7s-.2 1.1-.7 1.2l-7.6 2h-.2zm71.7-21.3c-.4 0-.8-.3-1-.7-.1-.5.2-1.1.7-1.2l7.6-2c.5-.1 1.1.2 1.2.7s-.2 1.1-.7 1.2l-7.6 2h-.2zm-32.1 56.7c-.6 0-1-.4-1-1V64.2c0-.6.4-1 1-1s1 .4 1 1v35.3c0 .6-.4 1-1 1z"/>
		<path d="M60.3 100.5H40.7c-1.6 0-3-1.3-3-3V35.1l-24-24.3c-.9-.9-1.4-2.2-1.4-3.5s.5-2.5 1.4-3.5c.9-.9 2.2-1.4 3.5-1.4 1.3 0 2.5.5 3.5 1.4l29.8 29.5L80.3 3.9c.9-.9 2.2-1.4 3.5-1.4 1.3 0 2.5.5 3.5 1.4 1.9 1.9 1.9 5 0 7l-24 24.3v62.4c0 1.6-1.4 2.9-3 2.9zm-43.1-96c-.8 0-1.5.3-2.1.9-.6.6-.9 1.3-.9 2.1s.3 1.5.9 2.1L39.5 34c.2.2.3.4.3.7v62.8c0 .5.4 1 1 1h19.6c.5 0 1-.4 1-1V34.7c0-.3.1-.5.3-.7L85.9 9.4c1.1-1.1 1.1-3 0-4.1-1.1-1.1-3-1.1-4.1 0L51.2 35.5c-.4.4-1 .4-1.4 0L19.2 5.3c-.5-.5-1.2-.8-2-.8z"/>
		<path d="M50.5 22.1c-6 0-10.8-4.8-10.8-10.8S44.5.5 50.5.5s10.8 4.8 10.8 10.8-4.8 10.8-10.8 10.8zm0-19.6c-4.9 0-8.8 3.9-8.8 8.8s3.9 8.8 8.8 8.8 8.8-3.9 8.8-8.8-3.9-8.8-8.8-8.8z"/>
	</symbol>
	
	<symbol id="cutting-edge-icon" viewBox="0 0 101 101">
		<path d="M52.5 98.3c-.8 0-1.5-.7-1.5-1.5 0-10.6-11.3-16-23.3-21.8-12.3-5.9-25-12-25-24.5s12.7-18.6 25-24.5C39.7 20.2 51 14.8 51 4.2c0-.8.7-1.5 1.5-1.5s1.5.6 1.5 1.5c0 12.5-12.7 18.6-25 24.5C17 34.5 5.7 39.9 5.7 50.5S17 66.5 29 72.3c12.3 5.9 25 12 25 24.5 0 .9-.6 1.5-1.5 1.5z"/>
		<path d="M4.2 98.3c-.8 0-1.5-.7-1.5-1.5 0-12.5 12.7-18.6 25-24.5C39.7 66.5 51 61.1 51 50.5s-11.3-16-23.3-21.8c-12.3-5.9-25-12-25-24.5 0-.8.7-1.5 1.5-1.5s1.5.7 1.5 1.5C5.7 14.8 17 20.2 29 26c12.3 5.9 25 12 25 24.5S41.3 69.1 29 75C17 80.8 5.7 86.2 5.7 96.8c0 .9-.7 1.5-1.5 1.5z"/>
		<path d="M40.4 13.8H16.3c-.8 0-1.5-.7-1.5-1.5s.7-1.5 1.5-1.5h24.2c.8 0 1.5.7 1.5 1.5s-.7 1.5-1.6 1.5zm0 32.2H16.3c-.8 0-1.5-.7-1.5-1.5s.7-1.5 1.5-1.5h24.2c.8 0 1.5.7 1.5 1.5s-.7 1.5-1.6 1.5zm0 12.1H16.3c-.8 0-1.5-.7-1.5-1.5s.7-1.5 1.5-1.5h24.2c.8 0 1.5.7 1.5 1.5s-.7 1.5-1.6 1.5zm0 32.2H16.3c-.8 0-1.5-.7-1.5-1.5s.7-1.5 1.5-1.5h24.2c.8 0 1.5.7 1.5 1.5s-.7 1.5-1.6 1.5zm52.7-55.9c-.1 0-.3 0-.5-.1-.2 0-3.7-1.2-6-4.3-2.2-3.1-2.2-6.8-2.2-7 0-.8.7-1.5 1.5-1.5s1.5.7 1.5 1.5c0 0 0 2.9 1.6 5.2 1.6 2.2 4.4 3.1 4.4 3.1.8.3 1.2 1.1 1 1.9-.1.8-.7 1.2-1.3 1.2z"/>
		<path d="M79.7 36.6c-.5 0-.9-.2-1.2-.6-.5-.7-.3-1.6.3-2.1L87 28c.7-.5 1.6-.3 2.1.3.5.7.3 1.6-.3 2.1l-8.1 5.9c-.3.2-.7.3-1 .3zM86 79.4c-.8 0-1.5-.7-1.5-1.5 0-.2 0-3.9 2.2-7s5.8-4.2 6-4.3c.8-.2 1.7.2 1.9 1 .2.8-.2 1.7-1 1.9 0 0-2.8.9-4.4 3.1-1.6 2.2-1.6 5.1-1.6 5.2-.1.9-.8 1.6-1.6 1.6z"/>
		<path d="M87.9 73.3c-.3 0-.6-.1-.9-.3l-8.1-5.9c-.7-.5-.8-1.4-.3-2.1.5-.7 1.4-.8 2.1-.3l8.1 5.9c.7.5.8 1.4.3 2.1-.3.4-.8.6-1.2.6zM72.7 18c-1.1 0-2.2-.1-3.4-.5-3.6-1.2-5.8-4.2-5.9-4.3-.5-.7-.3-1.6.4-2.1s1.6-.3 2.1.4c0 0 1.7 2.4 4.4 3.2 2.6.9 5.4 0 5.4 0 .8-.3 1.7.2 1.9 1 .3.8-.2 1.7-1 1.9-.1-.1-1.7.4-3.9.4z"/>
		<path d="M66.6 27.1c-.2 0-.3 0-.5-.1-.8-.3-1.2-1.1-1-1.9l3.1-9.6c.3-.8 1.1-1.2 1.9-1 .8.3 1.2 1.1 1 1.9L68 26c-.1.7-.7 1.1-1.4 1.1zm30.2 31c-.5 0-.9-.2-1.2-.6-.1-.1-2.3-3.2-2.3-6.9s2.2-6.8 2.3-6.9c.5-.7 1.5-.8 2.1-.3.7.5.8 1.5.3 2.1 0 0-1.7 2.4-1.7 5.1s1.7 5.1 1.7 5.1c.5.7.4 1.6-.3 2.1-.3.2-.6.3-.9.3z"/>
		<path d="M94.8 52H84.7c-.8 0-1.5-.7-1.5-1.5s.7-1.5 1.5-1.5h10.1c.8 0 1.5.7 1.5 1.5s-.7 1.5-1.5 1.5zM64.6 90.3c-.3 0-.6-.1-.9-.3-.7-.5-.8-1.4-.4-2.1.1-.1 2.3-3.2 5.9-4.3 3.6-1.2 7.2 0 7.3.1.8.3 1.2 1.1 1 1.9-.3.8-1.1 1.2-1.9 1 0 0-2.8-.9-5.4 0-2.6.9-4.3 3.2-4.4 3.2-.2.2-.7.5-1.2.5z"/>
		<path d="M69.8 86.5c-.6 0-1.2-.4-1.4-1l-3.1-9.6c-.3-.8.2-1.7 1-1.9.8-.3 1.7.2 1.9 1l3.1 9.6c.3.8-.2 1.7-1 1.9h-.5z"/>
		<path d="M58.6 78.2c-4.7 0-9.3-1.2-13.4-3.5-.7-.4-1-1.3-.6-2.1.4-.7 1.3-1 2.1-.6 3.6 2 7.8 3.1 11.9 3.1 13.6 0 24.7-11.1 24.7-24.7S72.2 25.8 58.6 25.8c-4.2 0-8.3 1.1-11.9 3.1-.7.4-1.7.1-2.1-.6-.4-.7-.1-1.7.6-2.1 4.1-2.3 8.7-3.5 13.4-3.5 15.3 0 27.7 12.4 27.7 27.7S73.8 78.2 58.6 78.2z"/>
		<path d="M62.6 46c-4.2 0-7.6-3.4-7.6-7.6s3.4-7.6 7.6-7.6c4.2 0 7.6 3.4 7.6 7.6S66.8 46 62.6 46zm0-12.1c-2.5 0-4.5 2-4.5 4.5s2 4.5 4.5 4.5 4.5-2 4.5-4.5-2-4.5-4.5-4.5zm8 28.2c-3.1 0-5.5-2.5-5.5-5.5 0-3.1 2.5-5.5 5.5-5.5s5.5 2.5 5.5 5.5c.1 3-2.4 5.5-5.5 5.5zm0-8.1c-1.4 0-2.5 1.1-2.5 2.5s1.1 2.5 2.5 2.5 2.5-1.1 2.5-2.5c0-1.3-1.1-2.5-2.5-2.5z"/>
	</symbol>


	<symbol id="professional-growth-icon" viewBox="0 0 101 101">
		<path d="M90 39.5c-1.6 0-3.5-.3-5.4-1-4.4-1.5-9.1-4.7-13.3-8.8s-7.3-8.9-8.8-13.3c-1.7-4.9-1.3-8.9 1.2-11.3 2.4-2.4 6.5-2.8 11.3-1.2 4.4 1.5 9.1 4.7 13.3 8.8 4.2 4.2 7.3 8.9 8.8 13.3 1.7 4.9 1.3 8.9-1.2 11.3-1.4 1.5-3.4 2.2-5.9 2.2zM69.5 6.6c-1.4 0-2.6.4-3.3 1.1-1.4 1.4-1.5 4.1-.3 7.5 1.4 3.9 4.2 8.1 8 11.9 3.8 3.8 8 6.6 11.9 8 3.4 1.2 6.1 1.1 7.5-.3 1.4-1.4 1.5-4.1.3-7.5-1.4-3.9-4.2-8.1-8-11.9-3.8-3.8-8-6.6-11.9-8-1.5-.6-2.9-.8-4.2-.8z"/>
		<path d="M34 98.1c-17.2 0-31.1-14-31.1-31.1 0-.7.4-1.4 1.1-1.7 24.4-10 48.2-33.6 58-57.4.4-.9 1.4-1.4 2.4-1 .9.4 1.4 1.5 1 2.4-9.9 24.3-34 48.4-58.8 59 .6 14.2 12 25.6 26.2 26.2 10.6-24.8 34.6-48.9 58.9-58.8.9-.4 2 .1 2.4 1 .4.9-.1 2-1 2.4C69.3 48.8 45.7 72.6 35.7 97c-.3.6-.9 1.1-1.7 1.1z"/>
		<path d="M66.7 22.7c-.4 0-.7-.1-1.1-.3-.8-.6-1-1.7-.4-2.6l8-11.1c.6-.8 1.7-1 2.6-.4.8.6 1 1.7.4 2.6l-8 11.1c-.4.5-.9.7-1.5.7z"/>
		<path d="M72.6 30.2c-.5 0-.9-.2-1.3-.5-.7-.7-.7-1.9 0-2.6l5.1-5.1c-4.4-5.1-5.8-10.7-3-13.5 1.6-1.6 4.1-1.9 7.1-.8 2.6.9 5.3 2.7 7.7 5.1.7.7.7 1.9 0 2.6-.7.7-1.9.7-2.6 0-4.2-4.2-8.6-5.3-9.6-4.3-1.1 1.1.1 5.5 4.3 9.6.7.7.7 1.9 0 2.6l-6.4 6.4c-.3.3-.8.5-1.3.5zm-18.5 37c-.2 0-.5-.1-.7-.2-3.9-1.7-7.8-4.5-11.3-8-3.5-3.5-6.3-7.4-8-11.3-.4-.9 0-2 .9-2.4.9-.4 2 0 2.4.9 1.5 3.4 4.1 7 7.3 10.2 3.2 3.2 6.8 5.8 10.2 7.3.9.4 1.3 1.5.9 2.4-.3.6-1 1.1-1.7 1.1zm9.2-9.2c-.2 0-.5-.1-.7-.2-3.9-1.7-7.8-4.5-11.4-8.1-3.6-3.6-6.3-7.5-8.1-11.4-.4-.9 0-2 .9-2.4.9-.4 2 0 2.4.9 1.5 3.4 4.1 7.1 7.3 10.3C57 50.4 60.6 53 64 54.5c.9.4 1.3 1.5.9 2.4-.2.7-.9 1.1-1.6 1.1z"/>
		<path d="M63.1 90.8c-.6 0-1.3-.3-1.6-.9L49.7 69.5c-.5-.9-.2-2 .7-2.5.9-.5 2-.2 2.5.7l9.6 16.6 1.2-4.6c.3-1 1.3-1.6 2.2-1.3l4.6 1.2-11.5-20c-.5-.9-.2-2 .7-2.5.9-.5 2-.2 2.5.7l13.7 23.8c.4.6.3 1.4-.1 2-.5.6-1.2.8-1.9.7l-7.1-1.9-1.9 7.1c-.2.7-.8 1.2-1.5 1.3h-.3z"/>
		<path d="M60.5 60.6c-.2 0-.5 0-.7-.1-.7-.3-1.2-.9-1.2-1.7 0-.5.2-1 .6-1.3.7-.7 1.9-.7 2.6.1.7.7.7 1.8 0 2.5-.4.3-.8.5-1.3.5zm0-1.8zM88.9 67H64.3c-1 0-1.8-.8-1.8-1.8s.8-1.8 1.8-1.8h20.2L81.2 60c-.3-.3-.5-.8-.5-1.3s.2-1 .5-1.3l3.3-3.3H67.8c-1 0-1.8-.8-1.8-1.8s.8-1.8 1.8-1.8h21.1c.7 0 1.4.4 1.7 1.1.3.7.1 1.5-.4 2L85 58.7l5.2 5.1c.5.5.7 1.3.4 2-.2.7-.9 1.2-1.7 1.2z"/>
	</symbol>

	<symbol id="work-life-balance-icon" viewBox="0 0 101 101">
		<path d="M100.7 72.7H98c0-9-5.3-17-13.6-20.5l1-2.5c9.3 3.9 15.3 12.9 15.3 23zM62.9 54.5l-1.6-2.2c1.5-1 3-1.9 4.6-2.6l1 2.5c-1.3.6-2.7 1.4-4 2.3z"/>
		<path d="M75.7 55.1c-9.9 0-18-8.1-18-18s8.1-18 18-18 18 8.1 18 18-8 18-18 18zm0-33.4c-8.4 0-15.3 6.9-15.3 15.3s6.9 15.3 15.3 15.3S91 45.4 91 37s-6.8-15.3-15.3-15.3zM38.1 54.5c-1.3-.9-2.7-1.7-4.1-2.3l1-2.5c1.6.7 3.2 1.6 4.6 2.6l-1.5 2.2zM3 72.7H.3c0-10 6-19.1 15.2-23l1 2.5C8.3 55.7 3 63.7 3 72.7z"/>
		<path d="M25.3 55.1c-9.9 0-18-8.1-18-18s8.1-18 18-18 18 8.1 18 18-8.1 18-18 18zm0-33.4C16.9 21.7 10 28.6 10 37s6.9 15.3 15.3 15.3S40.6 45.4 40.6 37s-6.9-15.3-15.3-15.3zm42.3 60.2h-2.7c0-5-2.7-9.8-7-12.4l1.4-2.3c5.1 3.1 8.3 8.8 8.3 14.7zm-31.5 0h-2.7c0-6 3.2-11.6 8.3-14.7l1.4 2.3c-4.3 2.7-7 7.4-7 12.4z"/>
		<path d="M50.5 72.6c-7.8 0-14.1-6.3-14.1-14.1s6.3-14.1 14.1-14.1 14.1 6.3 14.1 14.1-6.3 14.1-14.1 14.1zm0-25.4c-6.3 0-11.4 5.1-11.4 11.4S44.2 70 50.5 70s11.4-5.1 11.4-11.4-5.1-11.4-11.4-11.4z"/>
	</symbol>


	<symbol id="locations-icon" viewBox="0 0 101 101">
		<path d="M71.1 88.3l-1.3-1.7c-1-1.4-24.6-33.6-24.6-47.4 0-14.3 11.6-25.9 25.9-25.9S97 24.9 97 39.2c0 13.8-23.6 46-24.6 47.4zm0-71.9c-12.6 0-22.8 10.2-22.8 22.8 0 11 17.9 36.8 22.8 43.8 4.9-7 22.8-32.8 22.8-43.8 0-12.6-10.2-22.8-22.8-22.8z"/>
		<path d="M71.1 49.8c-5.7 0-10.3-4.6-10.3-10.3s4.6-10.3 10.3-10.3 10.3 4.6 10.3 10.3-4.6 10.3-10.3 10.3zm0-17.5c-4 0-7.2 3.2-7.2 7.2s3.2 7.2 7.2 7.2 7.2-3.2 7.2-7.2-3.2-7.2-7.2-7.2zM21.9 52.1l-1.3-1.7c0-.1-4.2-5.7-8.3-12.4C6.8 28.9 4 22.2 4 18.2 4 8.3 12.1.2 21.9.2s17.9 8 17.9 17.9c0 4-2.8 10.7-8.4 19.9-4.1 6.7-8.2 12.3-8.3 12.4zm0-48.8C13.8 3.3 7.1 10 7.1 18.2c0 6.4 9.8 21.5 14.8 28.6 5.1-7.1 14.8-22.2 14.8-28.6.1-8.2-6.6-14.9-14.8-14.9z"/>
		<path d="M21.9 25.8c-4.1 0-7.4-3.3-7.4-7.4s3.3-7.4 7.4-7.4 7.4 3.3 7.4 7.4c.1 4.1-3.3 7.4-7.4 7.4zm0-11.7c-2.4 0-4.3 1.9-4.3 4.3s1.9 4.3 4.3 4.3 4.3-1.9 4.3-4.3-1.9-4.3-4.3-4.3zm9.7 86.7l-1.3-1.7C29.2 97.5 19 83.4 19 77c0-7 5.7-12.6 12.6-12.6S44.3 70 44.3 77c0 6.4-10.2 20.5-11.4 22.1zm0-33.3c-5.2 0-9.5 4.3-9.5 9.5 0 4 6 13.5 9.5 18.5 3.5-5 9.5-14.4 9.5-18.5 0-5.3-4.2-9.5-9.5-9.5z"/>
		<path d="M31.6 82.7c-3.1 0-5.5-2.5-5.5-5.5s2.5-5.5 5.5-5.5 5.5 2.5 5.5 5.5-2.4 5.5-5.5 5.5zm0-8c-1.3 0-2.4 1.1-2.4 2.4s1.1 2.4 2.4 2.4 2.4-1.1 2.4-2.4-1-2.4-2.4-2.4z"/>
	</symbol>

	<symbol id="student-loans" viewBox="0 0 101 101">
		<path d="M29.04 79.12c-.22 0-.43-.04-.64-.12-1-.38-24.4-9.54-24.4-30.29V27.25c0-.59.29-1.14.78-1.47.44-.3 11.02-7.47 24.26-7.47s23.82 7.16 24.26 7.47c.49.33.78.89.78 1.47v21.46c0 20.75-23.41 29.91-24.4 30.29-.2.08-.42.12-.64.12zM7.58 28.23v20.48c0 16.49 17.83 25.1 21.46 26.68C32.67 73.81 50.5 65.2 50.5 48.71V28.23c-2.58-1.57-11.29-6.35-21.46-6.35s-18.89 4.78-21.46 6.35z"/>
		<path d="M25.46 57.65c-.46 0-.92-.17-1.26-.52l-7.15-7.15c-.7-.7-.7-1.83 0-2.53.7-.7 1.83-.7 2.53 0l5.89 5.89L38.51 40.3c.7-.7 1.83-.7 2.53 0 .7.7.7 1.83 0 2.53L26.73 57.14c-.35.35-.81.52-1.26.52zM66.6 71.96h-3.58c-3.94 0-7.15-3.21-7.15-7.15 0-.99.8-1.79 1.79-1.79s1.79.8 1.79 1.79c0 1.97 1.6 3.58 3.58 3.58h3.58c1.97 0 3.58-1.6 3.58-3.58s-1.6-3.58-3.58-3.58h-3.58c-3.94 0-7.15-3.21-7.15-7.15s3.21-7.15 7.15-7.15h3.58c3.94 0 7.15 3.21 7.15 7.15 0 .99-.8 1.79-1.79 1.79s-1.79-.8-1.79-1.79c0-1.97-1.6-3.58-3.58-3.58h-3.58c-1.97 0-3.58 1.6-3.58 3.58s1.6 3.58 3.58 3.58h3.58c3.94 0 7.15 3.21 7.15 7.15s-3.21 7.15-7.15 7.15z"/>
		<path d="M64.81 50.5c-.99 0-1.79-.8-1.79-1.79v-5.37c0-.99.8-1.79 1.79-1.79s1.79.8 1.79 1.79v5.37c0 .99-.8 1.79-1.79 1.79zm0 26.83c-.99 0-1.79-.8-1.79-1.79v-5.37c0-.99.8-1.79 1.79-1.79s1.79.8 1.79 1.79v5.37c0 .99-.8 1.79-1.79 1.79zm8.83-48.55l-3.44-.98 4.51-15.77c-.82.45-1.88.92-3.65.92-2.04 0-3.14-.63-4.02-1.13-.7-.4-1.15-.66-2.25-.66s-1.55.26-2.24.66c-.88.5-1.98 1.13-4.02 1.13-1.76 0-2.81-.46-3.63-.92l4.51 15.77-3.44.98-5.41-18.92c-.15-.54-.05-1.12.29-1.57s.87-.71 1.43-.71c2.04 0 3.13.63 4.01 1.13.69.4 1.15.66 2.24.66s1.55-.26 2.24-.66c.88-.5 1.98-1.13 4.02-1.13s3.14.63 4.02 1.13c.7.4 1.15.66 2.25.66s1.55-.26 2.25-.66c.88-.5 1.98-1.13 4.02-1.13.56 0 1.09.26 1.43.71s.45 1.03.29 1.57l-5.41 18.92zm-44.6 50.34c-.22 0-.43-.04-.64-.12-1-.38-24.4-9.54-24.4-30.29V27.25c0-.59.29-1.14.78-1.47.44-.3 11.02-7.47 24.26-7.47s23.82 7.16 24.26 7.47c.49.33.78.89.78 1.47v21.46c0 20.75-23.41 29.91-24.4 30.29-.2.08-.42.12-.64.12zM7.58 28.23v20.48c0 16.49 17.83 25.1 21.46 26.68C32.67 73.81 50.5 65.2 50.5 48.71V28.23c-2.58-1.57-11.29-6.35-21.46-6.35s-18.89 4.78-21.46 6.35z"/>
		<path d="M89.42 93.43H40.19c-2.74 0-5.19-1.19-6.56-3.17-1.07-1.55-1.31-3.43-.66-5.16.45-1.2 1.39-2.24 2.21-3.15.34-.38.84-.94 1.01-1.22v-8.3h3.58v8.48c0 1.28-.93 2.32-1.92 3.43-.61.68-1.31 1.46-1.53 2.04-.24.63-.15 1.26.26 1.85.69 1 2.08 1.62 3.61 1.62h49.23c1.54 0 2.92-.62 3.61-1.62.41-.6.5-1.22.26-1.85-.22-.58-.91-1.35-1.53-2.04-.99-1.1-1.92-2.14-1.92-3.43V61.24c0-18.96-10.3-32.19-25.04-32.19-4.22 0-8.12 1.06-11.6 3.16l-1.85-3.06c4.04-2.44 8.56-3.67 13.44-3.67 16.85 0 28.62 14.71 28.62 35.77v19.49c.17.28.67.84 1.01 1.22.82.92 1.75 1.95 2.21 3.15.65 1.72.41 3.6-.66 5.16-1.37 1.98-3.82 3.17-6.55 3.17z"/>
	</symbol>


	<symbol id="love" viewBox="0 0 101 101">
		<path d="M50.5 88.3c-.58 0-1.16-.21-1.61-.64L15.14 56.15c-9.5-9.99-9.5-26.07-.1-35.96 4.59-4.83 10.7-7.49 17.2-7.49 6.51 0 12.61 2.66 17.2 7.49.36.38.71.77 1.05 1.18.34-.41.69-.8 1.06-1.18 4.58-4.83 10.69-7.49 17.2-7.49s12.62 2.66 17.2 7.49c9.39 9.89 9.39 25.97 0 35.86l-.1.1-33.74 31.51c-.45.42-1.03.64-1.61.64zM32.25 17.43c-5.2 0-10.09 2.14-13.78 6.02-7.69 8.09-7.69 21.26 0 29.35L50.5 82.7l32.08-29.95c7.64-8.1 7.63-21.23-.05-29.3-3.69-3.88-8.58-6.02-13.78-6.02s-10.09 2.14-13.77 6.02c-.91.96-1.75 2.03-2.48 3.2-.43.69-1.19 1.1-2 1.1s-1.57-.42-2-1.1c-.73-1.16-1.56-2.23-2.48-3.19-3.69-3.88-8.58-6.02-13.78-6.02z"/>
	</symbol>


	<symbol id="chronic" viewBox="0 0 101 101">
		<path d="M17.07 82.91c-.49 0-.98-.2-1.34-.6L3.25 68.27A8.937 8.937 0 0 1 1 62.34V34.93a5.6 5.6 0 0 1 5.59-5.59c2.8 0 5.18 2.09 5.54 4.86l2.13 16.2c.13.98-.56 1.87-1.54 2-.98.11-1.88-.56-2-1.54l-2.13-16.2c-.13-1-.99-1.75-2-1.75-1.11 0-2.02.91-2.02 2.02v27.41c0 1.31.48 2.58 1.35 3.56L18.4 79.94a1.786 1.786 0 0 1-1.34 2.97z"/>
		<path d="M45.64 93.62c-.99 0-1.79-.8-1.79-1.79V77.86c0-6.78-4.74-12.66-11.27-13.97-1.03-.21-2.11-.36-3.22-.46-2.11-.19-4.08-1.1-5.55-2.57l-7.76-7.76c-1.06-1.06-2.72-1.23-3.76-.37-.6.49-.95 1.18-.99 1.95-.04.76.25 1.49.78 2.03l12.43 12.43c.7.7.7 1.83 0 2.53s-1.83.7-2.53 0L9.55 59.24a6.24 6.24 0 0 1-1.82-4.73 6.32 6.32 0 0 1 2.3-4.54c2.45-2 6.2-1.74 8.55.61l7.76 7.76c.88.87 2.06 1.42 3.35 1.54 1.24.11 2.45.29 3.6.52 8.19 1.65 14.13 8.99 14.13 17.47v13.97c0 .99-.8 1.79-1.79 1.79zm39.29-10.71c-.42 0-.84-.15-1.19-.45-.74-.66-.8-1.78-.15-2.52L96.07 65.9c.87-.98 1.35-2.25 1.35-3.56V34.93c0-1.11-.91-2.02-2.02-2.02-1.01 0-1.87.75-2 1.75l-2.13 16.2c-.13.98-1.02 1.65-2 1.54a1.787 1.787 0 0 1-1.54-2l2.13-16.2c.37-2.77 2.75-4.86 5.54-4.86a5.6 5.6 0 0 1 5.59 5.59v27.41c0 2.19-.8 4.3-2.25 5.93L86.26 82.31c-.35.4-.84.6-1.34.6z"/>
		<path d="M56.36 93.62c-.99 0-1.79-.8-1.79-1.79V77.86c0-8.45 5.91-15.79 14.04-17.45 1.18-.24 2.42-.42 3.7-.54 1.28-.12 2.46-.66 3.33-1.53l7.77-7.77c2.34-2.34 6.09-2.61 8.54-.61a6.301 6.301 0 0 1 2.3 4.54c.09 1.76-.58 3.49-1.82 4.73L80 71.66c-.7.7-1.83.7-2.53 0s-.7-1.83 0-2.53L89.9 56.7c.53-.53.82-1.27.78-2.03-.04-.77-.39-1.46-.99-1.95-1.04-.85-2.7-.69-3.75.37l-7.77 7.77c-1.46 1.46-3.43 2.37-5.53 2.56-1.15.1-2.26.27-3.31.48-6.48 1.32-11.19 7.19-11.19 13.95v13.97c0 .99-.8 1.79-1.79 1.79zM51 65.05c-.44 0-.88-.16-1.22-.48L24.27 40.75c-7.18-7.55-7.18-19.71-.08-27.18 3.47-3.65 8.09-5.66 13-5.66 4.92 0 9.53 2.01 13 5.66.27.29.54.58.8.89.26-.31.52-.61.8-.9 3.47-3.65 8.08-5.66 13-5.66s9.54 2.01 13 5.66c7.1 7.47 7.1 19.63 0 27.11-.03.03-.05.05-.08.07L52.2 64.56c-.34.32-.78.48-1.22.48zM37.2 11.48c-3.93 0-7.63 1.62-10.41 4.55-5.81 6.12-5.81 16.07 0 22.19L51 60.82l24.25-22.64c5.78-6.12 5.77-16.05-.04-22.15-2.79-2.93-6.49-4.55-10.41-4.55s-7.63 1.62-10.41 4.55c-.69.72-1.32 1.54-1.88 2.42-.33.52-.9.83-1.51.83s-1.18-.32-1.51-.84a14.9 14.9 0 0 0-1.87-2.41c-2.79-2.94-6.49-4.55-10.41-4.55z"/>
	</symbol>

	<symbol id="environmental" viewBox="0 0 101 101">
		<path d="M50.5 85.77c-19.45 0-35.27-15.82-35.27-35.27S31.05 15.23 50.5 15.23 85.77 31.05 85.77 50.5 69.95 85.77 50.5 85.77zm0-67.01C33 18.76 18.76 33 18.76 50.5S33 82.24 50.5 82.24 82.24 68 82.24 50.5 68 18.76 50.5 18.76z"/>
		<path d="M44.3 85.18c-.13 0-.25-.01-.38-.03h-.06c-4.04-.79-8.5-7.21-9.61-9.7l-.04.02c-.69-1.25-1.06-1.93-1.44-2.89-1-2.56-1.02-4.29-1.04-5.68 0-.93-.02-1.6-.31-2.38-.35-.93-.73-1.17-2.12-1.97-1.31-.75-3.11-1.79-5.5-4.08-1.55-1.49-3.9-3.75-5.51-7.23-1.46-3.16-2.04-6.79-1.67-10.5l3.51.35c-.29 2.93.09 5.67 1.14 8.17.25-.72.6-1.44 1.04-2.13 1.4-2.2 3.36-3.6 5.25-3.74 1.3-.1 2.3.4 2.99.77 0-.16.02-.33.02-.47.05-1.18.12-2.78.85-4.57.96-2.34 2.41-3.36 3.57-4.18 1.02-.72 1.7-1.2 2.17-2.5.34-.95.29-1.59.24-2.41-.08-1.12-.17-2.52.77-4.42.69-1.38 1.51-2.23 2.11-2.85l.06-.06c-.56-.24-1.71-.6-4.03-.88l.42-3.5c3.4.41 6.95 1.17 7.44 3.73.28 1.47-.66 2.45-1.34 3.16-.49.51-1.05 1.08-1.49 1.98-.52 1.05-.48 1.67-.42 2.61.07.98.15 2.2-.44 3.84-.84 2.35-2.29 3.38-3.46 4.2-.99.7-1.77 1.25-2.34 2.64-.5 1.21-.55 2.37-.59 3.38-.06 1.38-.13 3.11-1.8 3.9-1.38.65-2.59-.01-3.31-.41-.5-.28-.83-.45-1.15-.42-.63.05-1.71.79-2.55 2.12-.86 1.35-1.19 2.83-.83 3.77.29.77 1.72 2.58 8.62 2.65 2.33.01 3.76-.4 5.12-.82 1.63-.49 3.31-1 5.92-.49 3.88.75 8.33 3.38 9.52 7.54 1.05 3.69-.81 7.13-1.6 8.6-1.15 2.14-2.45 3.33-3.49 4.29-.96.88-1.71 1.57-2.27 2.86-.66 1.51-.37 3.13-.15 4.3.18 1.03.38 2.1-.46 2.9-.37.36-.86.55-1.38.55zm.2-3.51h.05-.06zm-7.19-7.89c1.18 2.15 3.22 5.02 5.09 6.65-.1-1.29-.02-2.83.66-4.41.86-1.98 2.01-3.04 3.12-4.06.98-.9 1.9-1.75 2.77-3.36.69-1.28 1.97-3.65 1.31-5.96-.77-2.71-4.06-4.51-6.8-5.04-1.76-.34-2.74-.04-4.23.41-1.47.44-3.28 1-6.17.97a34.29 34.29 0 0 1-3.17-.17c.42.26.81.49 1.18.7 1.53.88 2.85 1.64 3.66 3.79.51 1.36.52 2.49.54 3.59.01 1.22.03 2.47.79 4.43.29.74.59 1.28 1.24 2.46v.02zm38.35-2.91c-1.43-6.59-3.82-10.64-7.09-12.05-1.55-.67-3.06-.65-4.66-.64-2.24.02-4.76.04-7.23-1.94-2.78-2.23-4.35-6.24-3.91-9.97.45-3.79 3.14-7.34 7.46-9.91-1.41.1-3.06-.59-4.64-1.92-1.68-1.42-3.29-3.69-2.78-5.8.36-1.5 1.59-2.19 2.4-2.65.28-.16.82-.46.84-.59.02-.12-.21-.49-.41-.82-.47-.75-1.11-1.79-1.08-3.26.04-1.68 1.01-3.28 2.88-4.74l2.17 2.78c-.97.76-1.51 1.49-1.53 2.04 0 .4.19.75.55 1.32.49.79 1.16 1.87.88 3.35-.33 1.73-1.68 2.49-2.57 3-.26.15-.65.37-.74.48.01.17.41 1.08 1.46 2.03.96.87 1.85 1.23 2.24 1.27.1-.32.16-.98.21-1.44.16-1.71.39-4.05 2.43-5.61 1.63-1.25 4.15-1.73 6.55-1.23 2.16.45 3.91 1.62 4.8 3.22 1.02 1.83 1.02 4.21 0 6.08-1.27 2.32-3.5 2.79-5.65 3.25-1.45.31-3.09.66-4.9 1.56-1.96.98-6.57 3.71-7.07 8.01-.3 2.53.77 5.33 2.61 6.81 1.48 1.19 3.02 1.17 4.99 1.16 1.81-.01 3.85-.03 6.08.92 4.38 1.88 7.46 6.78 9.15 14.54l-3.45.75zM67.17 27.9c-.98 0-1.9.24-2.49.69-.76.59-.92 1.63-1.06 3.15-.11 1.11-.23 2.4-.95 3.36 1.84-.8 3.48-1.15 4.84-1.43 2.08-.44 2.84-.67 3.29-1.49.51-.93.36-2.03 0-2.67-.39-.71-1.28-1.25-2.44-1.49-.4-.08-.81-.12-1.2-.12zM50.5 99.87c-27.23 0-49.37-22.14-49.37-49.37 0-.97.79-1.76 1.76-1.76s1.76.79 1.76 1.76c0 25.28 20.57 45.85 45.85 45.85.97 0 1.76.79 1.76 1.76s-.79 1.76-1.76 1.76z"/>
		<path d="M98.11 52.26c-.97 0-1.76-.79-1.76-1.76 0-25.28-20.57-45.85-45.85-45.85-.97 0-1.76-.79-1.76-1.76s.79-1.76 1.76-1.76c27.23 0 49.37 22.15 49.37 49.37 0 .97-.79 1.76-1.76 1.76zm-39.34 46.9c-.46 0-.92-.19-1.25-.53-.32-.32-.51-.78-.51-1.25s.19-.92.51-1.23c.67-.65 1.83-.65 2.5 0 .32.32.51.78.51 1.23s-.19.94-.51 1.25a1.8 1.8 0 0 1-1.25.53zm8.02-2.15c-.25 0-.46-.05-.69-.14-.21-.09-.41-.21-.56-.39-.33-.32-.51-.78-.51-1.23s.18-.93.51-1.25c.16-.16.35-.3.56-.39.65-.26 1.43-.11 1.92.39.33.33.53.78.53 1.25s-.19.92-.53 1.23c-.32.33-.78.53-1.23.53zm7.51-3.51c-.23 0-.46-.05-.67-.14a1.776 1.776 0 0 1-1.09-1.62c0-.45.19-.92.51-1.25.18-.16.37-.3.58-.39.65-.26 1.43-.11 1.92.39.33.33.51.78.51 1.25s-.18.92-.51 1.23c-.33.34-.78.53-1.25.53zm6.81-4.76c-.48 0-.92-.19-1.25-.51-.33-.33-.51-.79-.51-1.25s.18-.92.51-1.25c.65-.65 1.83-.65 2.49 0 .33.33.53.78.53 1.25s-.19.92-.53 1.25c-.32.32-.78.51-1.23.51zm5.85-5.87c-.46 0-.9-.19-1.23-.51-.16-.18-.3-.37-.39-.58-.09-.21-.12-.44-.12-.67s.04-.46.12-.67c.09-.23.23-.42.39-.58.49-.49 1.27-.63 1.92-.37.21.09.41.21.56.37.33.33.53.79.53 1.25s-.19.92-.53 1.25c-.33.32-.78.51-1.25.51zm4.76-6.81c-.23 0-.46-.04-.67-.12a1.71 1.71 0 0 1-.56-.39c-.33-.32-.51-.78-.51-1.23 0-.25.04-.48.12-.69.09-.21.21-.41.39-.56.16-.18.35-.3.56-.39.65-.26 1.43-.11 1.92.39.33.32.51.78.51 1.25s-.18.92-.51 1.23c-.32.33-.78.51-1.25.51zm3.51-7.51c-.23 0-.46-.05-.67-.14-.21-.09-.41-.21-.56-.37a1.8 1.8 0 0 1-.53-1.25 1.757 1.757 0 0 1 1.09-1.62c.33-.14.67-.18 1.02-.11.11.02.23.05.33.11.11.04.19.09.3.16.09.05.18.14.26.21.34.33.51.79.51 1.25s-.18.92-.51 1.25c-.32.32-.78.51-1.25.51zm2.16-8.03c-.23 0-.46-.04-.67-.12a2.04 2.04 0 0 1-.58-.39c-.32-.33-.51-.78-.51-1.25 0-.11.02-.23.04-.33a.92.92 0 0 1 .11-.33c.04-.11.09-.21.16-.3.07-.11.14-.19.21-.26.18-.18.37-.3.58-.39.42-.18.92-.18 1.34 0 .23.09.42.21.58.39.09.07.16.16.21.26.07.09.12.19.18.3.04.11.07.21.09.33.04.11.04.23.04.33 0 .48-.18.92-.51 1.25-.16.16-.35.3-.58.39-.21.09-.44.12-.67.12zM42.23 5.37c-.23 0-.46-.04-.67-.12a1.71 1.71 0 0 1-.56-.39c-.33-.32-.53-.78-.53-1.25s.19-.92.53-1.23c.16-.16.35-.3.56-.39.65-.27 1.43-.11 1.92.39.33.32.51.78.51 1.23s-.18.93-.51 1.25c-.34.33-.78.51-1.25.51zm-8.01 2.15c-.48 0-.92-.18-1.25-.51-.34-.33-.51-.78-.51-1.25s.18-.92.51-1.23c.49-.49 1.27-.65 1.92-.39.21.09.41.21.56.39.33.32.53.78.53 1.23s-.19.94-.53 1.25c-.16.16-.35.3-.56.39s-.44.12-.67.12zm-7.53 3.51c-.23 0-.46-.04-.67-.12-.21-.11-.41-.23-.58-.39-.32-.33-.51-.78-.51-1.25 0-.23.05-.46.14-.67.09-.21.21-.41.37-.58.18-.16.37-.28.58-.37.65-.28 1.43-.12 1.92.37.16.18.28.37.37.58.11.21.14.44.14.67 0 .46-.19.92-.51 1.25-.33.33-.79.51-1.25.51zm-6.79 4.76a1.5 1.5 0 0 1-.69-.14c-.21-.09-.41-.21-.56-.37-.33-.34-.51-.79-.51-1.25s.18-.92.51-1.25c.16-.16.35-.28.56-.37.65-.26 1.43-.11 1.92.37.34.34.53.79.53 1.25s-.19.92-.53 1.25c-.32.33-.78.51-1.23.51zm-5.87 5.87c-.12 0-.23-.02-.35-.04-.11-.02-.21-.05-.32-.11-.11-.03-.21-.09-.32-.16-.09-.07-.18-.14-.26-.21-.16-.18-.28-.37-.37-.58-.11-.21-.14-.44-.14-.67 0-.48.19-.92.51-1.25.65-.65 1.83-.65 2.5 0 .32.33.51.79.51 1.25 0 .23-.05.46-.14.67-.09.21-.21.41-.37.58-.33.32-.79.51-1.25.51zm-4.76 6.81a1.757 1.757 0 0 1-1.62-1.09 1.5 1.5 0 0 1-.14-.69c0-.23.04-.46.14-.67.09-.21.21-.41.37-.56.41-.41 1.02-.6 1.59-.48.12.02.23.05.33.09.11.05.21.11.3.16a1.763 1.763 0 0 1 .65.79 1.711 1.711 0 0 1 0 1.36c-.09.21-.21.41-.37.56-.09.09-.18.16-.28.23-.09.05-.19.11-.3.16-.11.04-.21.07-.33.11-.11.02-.23.04-.34.04zm-3.51 7.51c-.23 0-.46-.05-.67-.14-.23-.09-.41-.21-.58-.37-.16-.18-.28-.37-.37-.58-.09-.21-.14-.44-.14-.67s.05-.46.14-.67c.09-.23.21-.41.37-.58.18-.16.35-.28.58-.37.63-.26 1.43-.12 1.92.37.16.18.28.35.37.58.09.21.14.44.14.67s-.05.46-.14.67c-.09.21-.21.41-.37.58-.33.32-.79.51-1.25.51zM3.61 44c-.23 0-.46-.05-.67-.14-.21-.09-.41-.21-.58-.39-.16-.16-.28-.35-.37-.56-.09-.21-.14-.44-.14-.67 0-.12.02-.25.04-.35.02-.11.05-.23.11-.33.04-.11.09-.21.16-.3l.21-.27c.18-.16.37-.3.58-.39a1.857 1.857 0 0 1 1.34 0c.11.05.21.11.32.18.09.05.18.12.26.21.07.09.16.18.21.27.07.11.12.19.16.3.05.11.09.23.11.33.04.11.04.23.04.35 0 .23-.04.46-.14.67-.09.21-.21.41-.37.56-.09.09-.18.16-.26.23-.11.05-.21.11-.32.16l-.32.11c-.12.02-.23.03-.35.03z"/>
	</symbol>


	<symbol id="maternal" viewBox="0 0 101 101">
		<path d="M70.64 77.23h2.63v13.39h-2.63zM61.1 34.16c-8.81 0-15.98-7.17-15.98-15.98S52.29 2.2 61.1 2.2s15.98 7.17 15.98 15.98-7.17 15.98-15.98 15.98zm0-29.34c-7.36 0-13.35 5.99-13.35 13.36s5.99 13.35 13.35 13.35 13.35-5.99 13.35-13.35S68.46 4.82 61.1 4.82zM30.34 88.2c-2.03 0-4-1.37-6.03-2.78l-.26-.18c-2.64-1.83-4.72-3.39-5.36-5.43-.32-1.03-.24-2.07.23-3.08.34-.72.63-1.04 1.32-1.81l.37-.41c3.29-3.67 8.42-4.42 12.2-1.79a9.878 9.878 0 0 1 3.75 5.12c.62 1.96.55 4.01-.18 5.62-.5 1.08-1.25 1.88-1.7 2.35l-.15.16c-1.45 1.61-2.84 2.22-4.2 2.22zm-2.5-14.44c-2.07 0-4 1.08-5.28 2.5l-.37.41c-.64.72-.73.82-.9 1.17-.19.41-.22.78-.1 1.18.42 1.34 2.6 2.85 4.35 4.06l.26.18c3.64 2.53 4.78 3.16 6.78.94l.19-.2c.36-.38.9-.95 1.22-1.64.46-1.02.49-2.38.06-3.74a7.27 7.27 0 0 0-2.75-3.76c-1.13-.79-2.32-1.12-3.47-1.12z"/>
		<path d="M47.81 90.02c-4.37 0-7.14-1.94-7.71-5.31-.44-2.69.02-5.15 1.27-6.77.94-1.22 2.3-1.94 3.92-2.09 10.29-.94 16.67-9.85 18.99-17.2l2.5.79c-2.57 8.12-9.68 17.96-21.26 19.02-.9.08-1.59.44-2.08 1.08-.79 1.03-1.08 2.8-.76 4.73.43 2.58 2.98 3.12 5.04 3.12 24.81-1.68 31.88-23.77 32.15-35.22 0-7.25-5.88-12.54-13.99-12.54h-9.43c-3.24 0-7.59.61-8.98 1.59l-1.52-2.14C48.85 37.03 56.37 37 56.44 37h9.43c9.63 0 16.61 6.39 16.61 15.19-.28 12.31-7.9 36-34.68 37.81h-.01z"/>
		<path d="M36.87 52.38c-6.32 0-11.46-5.14-11.46-11.46s5.14-11.46 11.46-11.46 11.46 5.14 11.46 11.46-5.14 11.46-11.46 11.46zm0-20.3c-4.87 0-8.84 3.96-8.84 8.84s3.96 8.83 8.84 8.83 8.83-3.96 8.83-8.83-3.96-8.84-8.83-8.84zm-3.073 53.84l.402-2.599 7.807 1.208-.402 2.599zM57.78 98.8c-1.77 0-3.26-.87-3.9-1.66l-6.3-7.66 2.03-1.67 6.31 7.67s1.65 1.49 3.66.08c.82-.58 1.34-1.35 1.48-2.17.09-.56-.02-1.1-.3-1.48l-3.15-4.9 2.21-1.42 3.1 4.83c.66.89.94 2.12.74 3.39-.25 1.52-1.15 2.91-2.56 3.9-1.13.79-2.27 1.09-3.31 1.09z"/>
		<path d="M50.86 76.84c-.27 0-.54-.02-.8-.07-7.14-1.28-13.72-6.05-17.59-12.77l2.28-1.31c3.44 5.97 9.48 10.37 15.78 11.49.6.11 1.34-.1 2.01-.56.77-.53 1.32-1.32 1.45-2.06.13-.73-.03-1.53-.44-2.2-.4-.65-.97-1.07-1.62-1.19-3.39-.61-5.67-1.82-7.87-4.2-1.59-1.71-2.52-3.51-3.33-5.1-.68-1.32-1.27-2.46-2.08-3.27-.85-.84-2.28-2.25-5.08-2.25-3.19 0-6.33 2.31-7.63 5.62-1.7 4.32-2.71 10.34-2.65 15.69l-2.63.03c-.07-5.67 1.02-12.06 2.83-16.68 1.68-4.29 5.82-7.29 10.07-7.29 3.87 0 5.93 2.03 6.92 3 1.12 1.1 1.82 2.48 2.58 3.94.78 1.51 1.58 3.07 2.92 4.52 1.83 1.97 3.56 2.89 6.41 3.4 1.39.25 2.6 1.1 3.39 2.4.74 1.21 1.02 2.68.78 4.03-.25 1.42-1.2 2.82-2.54 3.75-1 .7-2.1 1.06-3.17 1.06z"/>
	</symbol>
	
	

	<symbol id="access" viewBox="0 0 101 101">
		<path d="M27.86 58.05c-8.32 0-15.09-6.77-15.09-15.09V37.3h3.77v5.66c0 6.24 5.08 11.32 11.32 11.32s11.32-5.08 11.32-11.32V37.3h3.77v5.66c0 8.32-6.77 15.09-15.09 15.09z"/>
		<path d="M52.39 92c-1.04 0-1.89-.84-1.89-1.89V70.82c0-2.35-1.48-4.48-3.67-5.3l-9.06-3.4-8.57 8.57c-.74.74-1.93.74-2.67 0l-8.57-8.57-9.06 3.4c-2.2.82-3.67 2.95-3.67 5.3v19.29c0 1.04-.84 1.89-1.89 1.89s-1.89-.84-1.89-1.89V70.82c0-3.91 2.46-7.46 6.12-8.83l10.19-3.82c.69-.26 1.47-.09 2 .43l8.1 8.1 8.1-8.1c.52-.52 1.31-.69 2-.43l10.19 3.82c3.66 1.37 6.12 4.92 6.12 8.83v19.29c0 1.04-.84 1.89-1.89 1.89z"/>
		<path d="M27.86 92c-1.04 0-1.89-.84-1.89-1.89V69.36c0-1.04.84-1.89 1.89-1.89s1.89.84 1.89 1.89v20.75c0 1.04-.84 1.89-1.89 1.89zm47.16-18.86c-.24 0-.49-.05-.72-.14-.7-.29-1.16-.98-1.16-1.74v-9.43H37.3v-3.77h37.73c1.04 0 1.89.84 1.89 1.89v6.76l8.1-8.1c.35-.35.83-.55 1.33-.55h5.66c2.08 0 3.77-1.69 3.77-3.77V16.55c0-2.08-1.69-3.77-3.77-3.77H39.18c-2.08 0-3.77 1.69-3.77 3.77v1.89h-3.77v-1.89c0-4.16 3.38-7.55 7.55-7.55h52.82c4.16 0 7.55 3.38 7.55 7.55v37.72c0 4.16-3.38 7.55-7.55 7.55h-4.88L76.36 72.59c-.36.36-.84.55-1.33.55zm-30.18 3.77h-7.55c-1.04 0-1.89-.84-1.89-1.89s.84-1.89 1.89-1.89h7.55c1.04 0 1.89.84 1.89 1.89s-.84 1.89-1.89 1.89z"/>
		<path d="M41.07 39.18H14.66c-1.04 0-1.89-.84-1.89-1.89V20.32c0-2.08 1.69-3.77 3.77-3.77h22.64c2.08 0 3.77 1.69 3.77 3.77V37.3c0 1.04-.84 1.89-1.89 1.89zm-24.52-3.77h22.64V20.32H16.55v15.09z"/>
		<path d="M27.86 33.52c-1.04 0-1.89-.84-1.89-1.89v-7.55c0-1.04.84-1.89 1.89-1.89s1.89.84 1.89 1.89v7.55c0 1.04-.84 1.89-1.89 1.89z"/>
		<path d="M31.64 29.75h-7.55c-1.04 0-1.89-.84-1.89-1.89s.84-1.89 1.89-1.89h7.55c1.04 0 1.89.84 1.89 1.89s-.84 1.89-1.89 1.89zm18.86 9.43c-2.08 0-3.77-1.69-3.77-3.77s1.69-3.77 3.77-3.77 3.77 1.69 3.77 3.77-1.69 3.77-3.77 3.77zm0-3.78zm15.09 3.78c-2.08 0-3.77-1.69-3.77-3.77s1.69-3.77 3.77-3.77 3.77 1.69 3.77 3.77-1.69 3.77-3.77 3.77zm0-3.78zm15.09 3.78c-2.08 0-3.77-1.69-3.77-3.77s1.69-3.77 3.77-3.77 3.77 1.69 3.77 3.77-1.69 3.77-3.77 3.77zm0-3.78z"/>
	</symbol>

	<symbol id="program" viewBox="0 0 101 101">
		<path d="M16.23 64.93c-4.97 0-9.02-4.05-9.02-9.02s4.05-9.02 9.02-9.02 9.02 4.05 9.02 9.02-4.05 9.02-9.02 9.02zm0-14.43c-2.98 0-5.41 2.43-5.41 5.41s2.43 5.41 5.41 5.41 5.41-2.43 5.41-5.41-2.43-5.41-5.41-5.41z"/>
		<path d="M27.05 75.75H5.41c-1 0-1.8-.81-1.8-1.8 0-6.96 5.66-12.62 12.62-12.62s12.62 5.66 12.62 12.62c0 1-.81 1.8-1.8 1.8zM7.39 72.14h17.68c-.84-4.11-4.48-7.21-8.84-7.21s-8 3.1-8.84 7.21zM50.5 90.18c-4.97 0-9.02-4.05-9.02-9.02s4.05-9.02 9.02-9.02 9.02 4.05 9.02 9.02-4.05 9.02-9.02 9.02zm0-14.43c-2.98 0-5.41 2.43-5.41 5.41s2.43 5.41 5.41 5.41 5.41-2.43 5.41-5.41-2.43-5.41-5.41-5.41z"/>
		<path d="M61.32 101H39.68c-1 0-1.8-.81-1.8-1.8 0-6.96 5.66-12.62 12.62-12.62s12.62 5.66 12.62 12.62c0 1-.81 1.8-1.8 1.8zm-19.66-3.61h17.67c-.84-4.11-4.48-7.21-8.84-7.21s-8 3.1-8.84 7.21zm43.11-32.46c-4.97 0-9.02-4.05-9.02-9.02s4.05-9.02 9.02-9.02 9.02 4.05 9.02 9.02-4.05 9.02-9.02 9.02zm0-14.43c-2.98 0-5.41 2.43-5.41 5.41s2.43 5.41 5.41 5.41 5.41-2.43 5.41-5.41-2.43-5.41-5.41-5.41z"/>
		<path d="M95.59 75.75H73.95c-1 0-1.8-.81-1.8-1.8 0-6.96 5.66-12.62 12.62-12.62s12.62 5.66 12.62 12.62c0 1-.81 1.8-1.8 1.8zm-19.66-3.61H93.6c-.84-4.11-4.48-7.21-8.84-7.21s-8 3.1-8.84 7.21zm-5.59-7.21c-6.96 0-12.62-5.66-12.62-12.62a1.799 1.799 0 1 1 3.6 0c0 4.97 4.05 9.02 9.02 9.02a1.799 1.799 0 1 1 0 3.6zm-39.68 0a1.799 1.799 0 1 1 0-3.6c4.97 0 9.02-4.05 9.02-9.02a1.799 1.799 0 1 1 3.6 0c0 6.96-5.66 12.62-12.62 12.62z"/>
		<path d="M63.12 54.11H37.87c-1 0-1.8-.81-1.8-1.8V34.27c0-1 .81-1.8 1.8-1.8h25.25c1 0 1.8.81 1.8 1.8v18.04c0 1-.81 1.8-1.8 1.8zM39.67 50.5h21.64V36.07H39.67V50.5z"/>
		<path d="M50.5 68.54c-1 0-1.8-.81-1.8-1.8V52.31a1.799 1.799 0 1 1 3.6 0v14.43c0 1-.81 1.8-1.8 1.8zm0-23.44c-.47 0-.94-.2-1.28-.54-.32-.32-.52-.79-.52-1.26s.2-.94.52-1.28c.5-.51 1.3-.67 1.97-.4.23.09.43.23.6.4.34.34.52.81.52 1.28s-.18.94-.52 1.26c-.16.18-.36.31-.6.4-.22.09-.45.14-.69.14zm0-23.46c-5.97 0-10.82-4.85-10.82-10.82S44.53 0 50.5 0s10.82 4.85 10.82 10.82-4.85 10.82-10.82 10.82zm0-18.04c-3.98 0-7.21 3.24-7.21 7.21s3.24 7.21 7.21 7.21 7.21-3.24 7.21-7.21S54.47 3.6 50.5 3.6z"/>
		<path d="M63.48 48.66l-.71-3.54 5.54-1.11c.96-.19 1.6-1.13 1.42-2.09l-2.44-13.41a3.567 3.567 0 0 0-2.21-2.7l-5.14-2.05-8.18 8.18c-.7.7-1.85.7-2.55 0l-8.18-8.18-5.14 2.05a3.567 3.567 0 0 0-2.21 2.7l-2.44 13.41c-.18.96.46 1.9 1.42 2.09l5.54 1.11-.71 3.54-5.54-1.11c-2.88-.57-4.79-3.39-4.26-6.27l2.44-13.41c.45-2.46 2.1-4.48 4.42-5.41l6.24-2.5c.67-.27 1.44-.11 1.95.4l7.74 7.74 7.74-7.74c.51-.51 1.28-.66 1.95-.4l6.24 2.5c2.32.93 3.97 2.95 4.42 5.41l2.44 13.41c.52 2.88-1.39 5.7-4.26 6.27l-5.54 1.11z"/>
		<path d="M77.55 43.29h-6.07a1.799 1.799 0 1 1 0-3.6h6.07a1.799 1.799 0 1 1 0 3.6zm-48.04 0h-6.07a1.799 1.799 0 1 1 0-3.6h6.07a1.799 1.799 0 1 1 0 3.6z"/>
	</symbol>

	<symbol id="lab" viewBox="0 0 101 101">
		<path d="M87.4 101H13.6c-1.07 0-1.94-.87-1.94-1.94v-3.88c0-5.35 4.36-9.71 9.71-9.71H50.5V77.7c0-6.43 5.23-11.65 11.65-11.65S73.8 71.28 73.8 77.7v7.77h1.94c7.5 0 13.6 6.1 13.6 13.6 0 1.07-.87 1.94-1.94 1.94zm-71.87-3.88h69.74c-.9-4.43-4.83-7.77-9.52-7.77h-3.88c-1.07 0-1.94-.87-1.94-1.94V77.7c0-4.28-3.49-7.77-7.77-7.77s-7.77 3.49-7.77 7.77v9.71c0 1.07-.87 1.94-1.94 1.94H21.37c-3.21 0-5.83 2.61-5.83 5.83v1.94z"/>
		<path d="M62.15 81.58c-2.14 0-3.88-1.74-3.88-3.88s1.74-3.88 3.88-3.88 3.88 1.74 3.88 3.88-1.74 3.88-3.88 3.88zm0-3.89zm-9.71 0H27.19c-1.07 0-1.94-.87-1.94-1.94s.87-1.94 1.94-1.94h25.25c1.07 0 1.94.87 1.94 1.94s-.87 1.94-1.94 1.94zm-3.88-38.84c-5.35 0-9.71-4.36-9.71-9.71s4.36-9.71 9.71-9.71 9.71 4.36 9.71 9.71-4.36 9.71-9.71 9.71zm0-15.54a5.83 5.83 0 1 0 0 11.66 5.83 5.83 0 0 0 0-11.66z"/>
		<path d="M48.56 54.38H29.13c-1.07 0-1.94-.87-1.94-1.94V13.6c0-1.07.87-1.94 1.94-1.94h19.42c1.07 0 1.94.87 1.94 1.94v7.77h-3.88v-5.83H31.07V50.5h15.54V36.9h3.88v15.54c0 1.07-.87 1.94-1.94 1.94zm18.29 14.97l-3.46-1.77c1.73-3.38 2.64-7.27 2.64-11.25 0-9.38-4.93-17.57-12.27-20.39l1.39-3.63c8.83 3.39 14.76 13.04 14.76 24.02 0 4.59-1.06 9.1-3.07 13.02z"/>
		<path d="M42.73 1.94h3.88v11.65h-3.88z"/>
		<path d="M47.59 3.88H30.11c-1.07 0-1.94-.87-1.94-1.94S29.04 0 30.11 0h17.48c1.07 0 1.94.87 1.94 1.94s-.87 1.94-1.94 1.94z"/>
		<path d="M31.08 1.94h3.88v11.65h-3.88zm11.65 64.1h-7.77c-2.14 0-3.88-1.74-3.88-3.88v-9.71h3.88v9.71h7.77v-9.71h3.88v9.71c0 2.14-1.74 3.88-3.88 3.88zm29.97 8.73l-3.33-1.99c2.91-4.87 4.45-10.56 4.45-16.45 0-13.07-7.64-24.62-18.59-28.07l1.17-3.7c12.54 3.96 21.3 17.03 21.3 31.78 0 6.6-1.73 12.98-5 18.45z"/>
	</symbol>


</svg>
