<?xml version="1.0" encoding="UTF-8"?>
<svg xmlns="http://www.w3.org/2000/svg" width="260.38" height="151.38" viewBox="0 0 260.38 151.38">
  <g id="uuid-1e421959-67e3-4ca9-8849-d735f9b875da" data-name="Layer 1"/>
  <g id="uuid-526b3148-b1e8-4de5-be40-ca455f4f4e89" data-name="Layer 2">
    <g id="uuid-7930b487-969a-43a7-81de-57335f6b38f8" data-name="Layer 1">
      <g>
        <g>
          <path d="M106.22,26.86V.74h14.05c6.53,0,10.09,3.84,10.09,8.42s-3.6,8.42-10.09,8.42h-7.66v9.28h-6.39Zm17.61-17.7c0-2.19-1.89-3.52-4.41-3.52h-6.8v7.05h6.8c2.52,0,4.41-1.37,4.41-3.52Z" fill="#fff"/>
          <path d="M148.77,26.86v-2.39c-1.49,1.45-4.1,2.86-7.66,2.86-4.77,0-7.02-2.27-7.02-5.95V7.95h5.72v11.47c0,2.62,1.58,3.48,4.01,3.48,2.21,0,3.96-1.06,4.95-2.15V7.95h5.72V26.86h-5.72Z" fill="#fff"/>
          <path d="M160.07,26.86V.74h5.72V10.38c1.71-1.92,4.14-2.9,6.71-2.9,5.54,0,9.64,3.76,9.64,9.95s-4.14,9.91-9.64,9.91c-2.61,0-5-1.02-6.71-2.9v2.43h-5.72Zm10.63-3.95c3.33,0,5.54-2.19,5.54-5.48s-2.21-5.52-5.54-5.52c-1.85,0-3.96,.94-4.91,2.19v6.7c.95,1.21,3.06,2.11,4.91,2.11Z" fill="#fff"/>
          <path d="M186.36,26.86V.74h5.72V26.86h-5.72Z" fill="#fff"/>
          <path d="M197.07,2.94c0-1.64,1.58-2.94,3.42-2.94s3.42,1.29,3.42,2.94-1.53,2.98-3.42,2.98-3.42-1.33-3.42-2.98Zm.59,23.92V7.95h5.72V26.86h-5.72Z" fill="#fff"/>
          <path d="M207.57,17.38c0-5.79,4.82-9.91,11.53-9.91,4.46,0,7.16,1.68,8.6,3.41l-3.74,3.05c-1.04-1.33-2.61-2.04-4.59-2.04-3.47,0-5.9,2.19-5.9,5.48s2.43,5.52,5.9,5.52c1.98,0,3.56-.78,4.59-2.04l3.74,3.02c-1.44,1.76-4.14,3.45-8.6,3.45-6.71,0-11.53-4.11-11.53-9.94Z" fill="#fff"/>
          <path d="M126.8,56.3v-10.96h-14.18v10.96h-6.39V30.18h6.39v10.26h14.18v-10.26h6.44v26.12h-6.44Z" fill="#fff"/>
          <path d="M137.51,46.82c0-5.48,4.64-9.91,11.26-9.91s10.9,4.23,10.9,10.42v1.1h-16.17c.36,2.39,2.57,4.39,6.26,4.39,1.85,0,4.41-.7,5.81-1.88l2.52,3.21c-2.16,1.72-5.58,2.62-8.96,2.62-6.62,0-11.62-3.88-11.62-9.94Zm11.26-5.95c-3.56,0-5.09,2.31-5.36,4.19h10.72c-.13-1.8-1.58-4.19-5.36-4.19Z" fill="#fff"/>
          <path d="M176.77,56.3v-1.96c-1.49,1.53-4.05,2.43-6.89,2.43-3.47,0-7.56-2.04-7.56-6.26s4.1-6.11,7.56-6.11c2.88,0,5.45,.82,6.89,2.31v-2.54c0-1.92-1.89-3.17-4.77-3.17-2.34,0-4.5,.74-6.35,2.23l-2.16-3.33c2.66-2.04,6.08-2.98,9.5-2.98,4.95,0,9.5,1.72,9.5,7.17v12.22h-5.72Zm0-4.54v-2.35c-.95-1.1-2.75-1.64-4.59-1.64-2.25,0-4.1,1.02-4.1,2.86s1.85,2.78,4.1,2.78c1.85,0,3.65-.55,4.59-1.64Z" fill="#fff"/>
          <path d="M188.07,56.3V30.18h5.72v26.12h-5.72Z" fill="#fff"/>
          <path d="M200.5,51.6v-9.87h-3.6v-4.35h3.6v-5.17h5.76v5.17h4.41v4.35h-4.41v8.54c0,1.17,.72,2.08,1.98,2.08,.86,0,1.67-.27,1.98-.55l1.22,3.76c-.86,.67-2.39,1.21-4.77,1.21-4.01,0-6.17-1.8-6.17-5.17Z" fill="#fff"/>
          <path d="M229.23,56.3v-11.51c0-2.62-1.58-3.45-4.05-3.45-2.21,0-3.96,1.1-4.95,2.23v12.73h-5.72V30.18h5.72v9.67c1.4-1.45,4.1-2.94,7.65-2.94,4.77,0,7.07,2.27,7.07,5.95v13.43h-5.72Z" fill="#fff"/>
          <path d="M104.78,72.7c0-8.03,6.98-13.51,15.99-13.51,6.62,0,10.45,3.13,12.56,6.38l-5.49,2.35c-1.26-2.11-3.96-3.8-7.07-3.8-5.45,0-9.41,3.64-9.41,8.58s3.96,8.57,9.41,8.57c3.11,0,5.81-1.64,7.07-3.8l5.49,2.31c-2.16,3.25-5.94,6.42-12.56,6.42-9.01,0-15.99-5.48-15.99-13.51Z" fill="#fff"/>
          <path d="M149.98,85.73v-1.96c-1.49,1.53-4.05,2.43-6.89,2.43-3.47,0-7.56-2.04-7.56-6.26s4.1-6.11,7.56-6.11c2.88,0,5.45,.82,6.89,2.31v-2.54c0-1.92-1.89-3.17-4.77-3.17-2.34,0-4.5,.74-6.35,2.23l-2.16-3.33c2.66-2.04,6.08-2.98,9.5-2.98,4.95,0,9.5,1.72,9.5,7.17v12.22h-5.72Zm0-4.54v-2.35c-.95-1.1-2.75-1.64-4.59-1.64-2.25,0-4.1,1.02-4.1,2.86s1.85,2.78,4.1,2.78c1.85,0,3.65-.55,4.59-1.64Z" fill="#fff"/>
          <path d="M161.28,85.73v-18.91h5.72v2.58c1.53-1.68,4.23-3.05,6.93-3.05v4.85c-.41-.08-.95-.12-1.58-.12-1.89,0-4.41,.94-5.36,2.15v12.49h-5.72Z" fill="#fff"/>
          <path d="M176,76.26c0-5.48,4.64-9.91,11.26-9.91s10.9,4.23,10.9,10.42v1.1h-16.17c.36,2.39,2.57,4.39,6.26,4.39,1.85,0,4.41-.71,5.81-1.88l2.52,3.21c-2.16,1.72-5.58,2.62-8.96,2.62-6.62,0-11.62-3.88-11.62-9.95Zm11.26-5.95c-3.56,0-5.09,2.31-5.36,4.19h10.72c-.13-1.8-1.58-4.19-5.36-4.19Z" fill="#fff"/>
          <path d="M200.81,76.26c0-5.48,4.64-9.91,11.26-9.91s10.9,4.23,10.9,10.42v1.1h-16.17c.36,2.39,2.57,4.39,6.26,4.39,1.85,0,4.41-.71,5.81-1.88l2.52,3.21c-2.16,1.72-5.58,2.62-8.96,2.62-6.62,0-11.62-3.88-11.62-9.95Zm11.26-5.95c-3.56,0-5.09,2.31-5.36,4.19h10.72c-.13-1.8-1.58-4.19-5.36-4.19Z" fill="#fff"/>
          <path d="M227.02,85.73v-18.91h5.72v2.58c1.53-1.68,4.23-3.05,6.93-3.05v4.85c-.41-.08-.95-.12-1.58-.12-1.89,0-4.41,.94-5.36,2.15v12.49h-5.72Z" fill="#fff"/>
          <path d="M241.24,83.27l2.48-3.48c1.58,1.29,4.82,2.58,7.52,2.58,2.48,0,3.65-.86,3.65-2.04,0-3.13-12.92-.59-12.92-8.03,0-3.17,3.2-5.95,8.92-5.95,3.69,0,6.62,1.1,8.78,2.58l-2.3,3.41c-1.31-1.21-3.78-2.19-6.44-2.19-2.07,0-3.42,.82-3.42,1.88,0,2.82,12.88,.47,12.88,8.11,0,3.45-3.38,6.07-9.41,6.07-3.78,0-7.43-1.1-9.73-2.94Z" fill="#fff"/>
        </g>
        <path d="M143.36,89.23l6.71-.02h6.71l.56,3.27c.39,2.29,.61,3.59,.68,3.9h.88c.62-2.78,1.82-4.75,3.58-5.93l1.01-.56c.05-.1,.35-.28,.91-.54l-.1,.02,.58-.22c1.65-.63,3.07-.96,4.27-.98,.25,0,.42,.02,.5,.05h.93v13.61c-.35-.08-.91-.12-1.67-.12s-1.54,.11-2.33,.32c-.8,.21-1.47,.48-2.02,.82s-1.02,.76-1.43,1.28c-1.25,1.61-1.87,4.02-1.87,7.24l.05,2.56v4.49l-8.99,.02h-8.96l-.03-14.56v-14.66Z" fill="#fff"/>
        <path d="M195.2,115.35l.1-1.42c0-.24-.08-.9-.23-1.97-.22,.37-.52,.75-.9,1.12-.38,.37-.69,.59-.95,.66-1.83,.78-4.06,1.17-6.68,1.17s-4.96-.52-7.04-1.55c-2.08-1.03-3.74-2.52-5-4.47-1.25-1.95-1.88-4.03-1.88-6.24s.34-4.17,1.02-5.89c.68-1.71,1.63-3.21,2.85-4.47,1.22-1.27,2.73-2.27,4.53-3,1.8-.73,3.77-1.1,5.91-1.1,3.42,0,6.27,.92,8.56,2.76,.42,.44,.86,.8,1.31,1.1l.35-1.07v-1.71h6.54l6.56-.02,.03,22.75c0,.28-.02,.71-.05,1.29v.1c-.02,.31-.03,.8-.03,1.46v.27l.05,1.29-.15,1.37c0,.08,0,.13,.01,.15,0,.02-.06,.38-.21,1.1-.15,.72-.34,1.35-.56,1.9-.69,1.79-2.06,3.42-4.11,4.89-2.05,1.47-3.84,2.31-5.35,2.52-.17,.16-.5,.29-.99,.38-.49,.09-.78,.15-.88,.18v-.02c-1.63,.52-3.19,.78-4.68,.78s-2.26-.02-2.31-.05h-.76c-.15,.05-.55,.07-1.2,.07s-1.83-.19-3.55-.56l-.81-.17c-1.23-.24-2.35-.59-3.36-1.05-2.39-.93-4.27-2.16-5.63-3.71s-2.29-3.68-2.78-6.41l-.05-.22c.54,.03,1.33,.05,2.37,.05l4.14-.07h11.18l-.03,.1c0,.84,.19,1.61,.57,2.3,.38,.69,.88,1.04,1.5,1.04,1.09,0,1.83-.6,2.22-1.8,.3-.94,.45-1.94,.45-3v-.49c-.05,0-.08,.03-.08,.1-.03-.05-.05-.19-.05-.41Zm.71-13.27l.03-.29c-.15-4.71-1.23-7.07-3.23-7.07-.57,0-1.08,.2-1.51,.61-.71,.65-1.19,1.63-1.45,2.93-.26,1.3-.39,2.43-.39,3.39l.08,.85v.22l-.03,.17v.15c0,1.33,.33,2.63,.98,3.89s1.49,1.89,2.5,1.89c1.11,0,2.04-1.33,2.78-4h-.13c.25-.63,.38-1.28,.38-1.95v-.78Z" fill="#fff"/>
        <ellipse cx="19.38" cy="69.96" rx="12.36" ry="13.35" transform="translate(-5.01 1.59) rotate(-4.15)" fill="#fff"/>
        <ellipse cx="82.18" cy="65.89" rx="12.36" ry="13.17" transform="translate(-4.55 6.12) rotate(-4.15)" fill="#fff"/>
        <ellipse cx="51.72" cy="56.48" rx="13.35" ry="12.36" transform="translate(-8.31 104.03) rotate(-85.91)" fill="#fff"/>
        <path d="M44.65,96.01c-4.22-8.53-4.35-11.08-8.83-12.55-3.51-1.15-5.83-.59-8.72-.79-1.56,1.37-4.84,2.38-7.24,2.4-1.63,.01-3.86-.44-5.3-1C1.69,88.08,0,114.13,0,114.13c0,0,5.02-6.16,7.09-6.73,6.29-1.73,6.22,5.29,6.22,5.29l3.91,26.11c.05,.22,.23,4.43,9.6,7.38l.27-27.31,6.43,29.47,4.59,3.03c2.03,.15,1.98-1.77,3.43-3.37,0,0-.14-1.67,1.15-13.12,.26-2.32-5.68-33.39-4.21-31.26,1,1.45,4.43,10.64,4.43,10.64,0,0,3.17-15.36,1.73-18.26Z" fill="#fff"/>
        <g>
          <path d="M63.26,129.96c.13-.65-.86-2.68-1.55-2.67l1.55,2.67Z" fill="#fff"/>
          <path d="M89.9,78.77c-1.58,.09-2.88,1.65-7.97,1.55-4.32-.08-6.9-2.05-6.9-2.05,0,0-8.83-.03-9.68,6.73-2.37,8.15,1.23,29.49,1.23,29.49,0,0,2.51-5.71,3.86-12.92l-1.77,39.03,.34,10.38c1.03-.24,5.87-4.18,6.59-6.46l1.22-5.75,2.16-10.15,2.11-9.11,3.96,17.38,.7,3.89c4.78-1.34,6.18-5,6.47-6.22l.14-3.27s-.48-31.68-.11-31.76c2.55-.55,6.66,8.21,6.66,8.21l.65-.09s-.59-12.9-1.16-17.98c-.26-2.31-1.61-11.3-8.5-10.9Z" fill="#fff"/>
        </g>
        <path d="M69.02,134.75l-3.33-32.27c-.88-17.65,.04-19.53,2.92-21.88,2.03-1.66,4.08-2.03,4.16-2.09-4.22-6.01-7.97-7.7-15.22-8.78-1.51,.92-2.98,1.36-5.91,1.39-3.21,.03-4.74-.76-6.49-1.4-7.28,1.35-13.66,7.3-18.07,12.98,10.81,.6,15.6,4.42,15.38,19.39l-1.85,25.6-.97,14.09h0l-.23,5.37-.17,4.03c.87-.21,1.77-1.11,2.67-2.38,.28-.4,2.6-4.65,3.46-6.67h0c1.98-4.66,8.21-22.11,9.06-22.08,.74,.02,5.71,13.64,5.71,13.64,.92,2.44,1.87,4.94,2.84,7.28,1.03,2.49,2.07,4.77,3.08,6.52,.82,1.44,1.63,2.44,2.31,3.1,.16,.16,.44,.31,.61,.38l.02-16.22Z" fill="#fff"/>
        <path d="M133.1,90.6l-.5-.22c-2.56-1.45-5.66-2.17-9.32-2.17-.17,0-.29,.03-.35,.1-.2,0-.35-.02-.45-.07l.03,.02c-.08-.02-.16-.02-.23-.02s-.13,0-.18,.02l-1.08-.02c-.15,.05-.41,.08-.77,.1-.36,.02-.6,.03-.72,.05l-.81,.07c-2,.26-3.56,.65-4.67,1.17l-.88,.32c-2.56,.91-4.83,2.59-6.82,5.05l-.38,.58v-.02c-.24,.23-.35,.43-.35,.61-.93,.89-1.55,2.76-1.87,5.61h.03l-.05,.27c0,.07,.03,.13,.08,.2v.39c-.05,.1-.08,.22-.08,.37,0,.77,.04,1.5,.1,2.21,.08,0,.15-.01,.23-.01,4.77,0,8.65,3.87,8.65,8.65,0,1.13-.22,2.2-.61,3.19,1.16,.59,2.37,1.08,3.66,1.44,1.96,.56,4.43,.84,7.41,.84s6-.68,9.08-2.05c3.07-1.37,5.46-3.32,7.18-5.85h-.03c1.23-2.15,1.87-4.56,1.92-7.24v-.2s.02-.13,.05-.29c0-6.16-2.75-10.52-8.25-13.07Zm-10.25,20.56c-.49,0-.93-.26-1.31-.79-.39-.53-.67-1.19-.86-1.98-.19-.79-.32-1.54-.42-2.24s-.14-1.55-.14-2.54,.12-2.11,.37-3.38c.24-1.27,.57-2.2,.97-2.79,.4-.59,.87-.89,1.4-.89s.98,.24,1.35,.71c.89,1.14,1.37,3.33,1.44,6.56,0,4.89-.93,7.34-2.8,7.34Z" fill="#fff"/>
        <circle cx="104.12" cy="113.61" r="4.28" fill="#fff"/>
        <g>
          <path d="M107.01,130.92h2.47v14.31h7.49v2.17h-9.96v-16.49Z" fill="#fff"/>
          <path d="M119.3,132.06c0-.79,.67-1.43,1.43-1.43s1.43,.64,1.43,1.43-.64,1.41-1.43,1.41-1.43-.62-1.43-1.41Zm.35,3.41h2.22v11.94h-2.22v-11.94Z" fill="#fff"/>
          <path d="M125.95,137.42h-1.98v-1.95h1.98v-.79c0-2.57,1.51-4,3.63-4,.77,0,1.43,.15,1.95,.45l-.52,1.66c-.3-.17-.67-.27-1.06-.27-1.11,0-1.78,.74-1.78,2.17v.79h2.42v1.95h-2.42v9.99h-2.22v-9.99Z" fill="#fff"/>
          <path d="M137.96,135.17c3.58,0,5.81,2.79,5.81,6.45v.54h-9.44c.17,2.03,1.66,3.71,4.05,3.71,1.26,0,2.65-.5,3.54-1.41l1.04,1.46c-1.19,1.16-2.87,1.78-4.8,1.78-3.56,0-6.18-2.52-6.18-6.28,0-3.46,2.5-6.25,5.98-6.25Zm-3.66,5.39h7.29c-.05-1.58-1.11-3.56-3.63-3.56s-3.54,1.93-3.66,3.56Z" fill="#fff"/>
          <path d="M146.1,135.87c.79-.49,1.56-1.51,1.68-2.32-.05,.02-.25,.07-.37,.07-.77,0-1.33-.59-1.33-1.41s.67-1.53,1.51-1.53c.91,0,1.73,.74,1.73,2.05,0,1.63-.91,3.12-2.17,3.98l-1.04-.84Z" fill="#fff"/>
          <path d="M151.61,144.22c.82,.89,2.4,1.71,4,1.71s2.57-.69,2.57-1.71c0-1.19-1.36-1.58-2.89-1.93-2.03-.47-4.4-1.01-4.4-3.58,0-1.9,1.63-3.54,4.55-3.54,2.05,0,3.54,.74,4.55,1.71l-.99,1.56c-.69-.84-2.03-1.46-3.53-1.46s-2.45,.59-2.45,1.56c0,1.04,1.29,1.38,2.77,1.73,2.08,.47,4.55,1.04,4.55,3.78,0,2.05-1.68,3.66-4.82,3.66-2,0-3.76-.62-4.97-1.85l1.06-1.63Z" fill="#fff"/>
          <path d="M178.78,134.68l-3.41,12.73h-2.64l-4.72-16.49h2.77l3.41,13.22,3.61-13.22h2l3.58,13.22,3.41-13.22h2.77l-4.7,16.49h-2.64l-3.44-12.73Z" fill="#fff"/>
          <path d="M189.89,141.43c0-3.44,2.32-6.25,6.03-6.25s6.03,2.82,6.03,6.25-2.3,6.28-6.03,6.28-6.03-2.82-6.03-6.28Zm9.74,0c0-2.25-1.31-4.28-3.71-4.28s-3.71,2.03-3.71,4.28,1.33,4.3,3.71,4.3,3.71-2.03,3.71-4.3Z" fill="#fff"/>
          <path d="M204.78,135.47h2.22v1.83c.91-1.19,2.32-2.1,3.91-2.1v2.25c-.22-.05-.47-.07-.77-.07-1.11,0-2.62,.84-3.14,1.73v8.31h-2.22v-11.94Z" fill="#fff"/>
          <path d="M217.16,142.27l-1.8,1.83v3.31h-2.22v-16.49h2.22v10.6l5.76-6.06h2.79l-5.14,5.41,5.19,6.53h-2.82l-3.98-5.14Z" fill="#fff"/>
        </g>
        <g>
          <path d="M228.42,132.99h-1.44v-.52h3.49v.52h-1.44v4.2h-.62v-4.2Z" fill="#fff"/>
          <path d="M234.98,135.12c-.04-.66-.08-1.45-.07-2.04h-.02c-.16,.55-.36,1.14-.6,1.79l-.83,2.29h-.46l-.76-2.25c-.22-.67-.41-1.27-.55-1.83h-.01c-.01,.59-.05,1.38-.09,2.09l-.13,2.02h-.58l.33-4.72h.78l.81,2.28c.2,.58,.36,1.1,.48,1.59h.02c.12-.48,.29-.99,.5-1.59l.84-2.28h.78l.29,4.72h-.59l-.12-2.07Z" fill="#fff"/>
        </g>
      </g>
    </g>
  </g>
</svg>