<?xml version="1.0" encoding="utf-8"?>
<!-- Generator: Adobe Illustrator 26.3.1, SVG Export Plug-In . SVG Version: 6.00 Build 0)  -->
<svg version="1.1" xmlns="http://www.w3.org/2000/svg" xmlns:xlink="http://www.w3.org/1999/xlink" x="0px" y="0px"
	 viewBox="0 0 91.3 91.3" style="enable-background:new 0 0 91.3 91.3;" xml:space="preserve">
<style type="text/css">
	.st0{display:none;}
	.st1{display:inline;fill:#43B868;}
	.st2{display:inline;fill:url(#SVGID_1_);}
	.st3{display:inline;fill:none;}
	.st4{display:inline;fill:url(#SVGID_00000106860961796184654860000001896963665775963297_);}
	.st5{display:inline;}
	.st6{fill:#FFFFFF;}
	
		.st7{display:inline;fill:#FFFFFF;stroke:#FFFFFF;stroke-width:3;stroke-linecap:round;stroke-linejoin:round;stroke-miterlimit:10;}
	.st8{fill:#424242;}
	.st9{fill:#43B868;}
	.st10{fill:url(#SVGID_00000057115922148753387410000000420071464758546084_);}
	.st11{fill:none;}
	.st12{fill:#FFFFFF;stroke:#FFFFFF;stroke-width:5;stroke-miterlimit:10;}
	.st13{fill:url(#SVGID_00000161589855662217343850000013386783972062871719_);}
	.st14{display:inline;fill:url(#SVGID_00000028301200398934749830000003690307872385346741_);}
	.st15{display:inline;fill:#FFFFFF;}
	.st16{display:inline;fill:url(#SVGID_00000145778375197401186540000016254901728240818833_);}
	.st17{display:inline;fill:url(#SVGID_00000002385131123341719770000004027176520045245596_);}
	.st18{fill:#606161;}
	.st19{fill:url(#SVGID_00000062193062690087475870000015842681111860948117_);}
	.st20{fill:url(#SVGID_00000103234709820289060640000013425133282214772612_);}
	.st21{fill:url(#SVGID_00000050650658470160092210000000641061114580342434_);}
	.st22{fill:url(#SVGID_00000052813521427612375700000009197363793151936939_);}
	.st23{fill:url(#SVGID_00000111894514093910147730000001407190881968549807_);}
	.st24{fill:url(#SVGID_00000024709101184264290110000000210244998374279608_);}
	.st25{fill:url(#SVGID_00000086682886362249957390000006130316293014145667_);}
	.st26{fill:url(#SVGID_00000103978378795248999970000005911585835625150853_);}
	.st27{fill:url(#SVGID_00000033342490286944015360000014936462290786191804_);}
	.st28{fill:url(#SVGID_00000123427079358829150990000000393133660510704271_);}
	.st29{fill:url(#SVGID_00000075141615266802319430000001344413947491456916_);}
	.st30{fill:url(#SVGID_00000015337320612448740970000014700009745379881915_);}
	.st31{fill:url(#SVGID_00000050654801123722948590000017406769705287041683_);}
	.st32{fill:url(#SVGID_00000051350568202537982560000010167709328581590442_);}
</style>
<g id="Layer_1" class="st0">
	<path class="st1" d="M35.8,72.7c0-2.8,1.2-5.4,3.2-7.2H20.3c-1.8,0-3.3-1.5-3.3-3.3V26c0-1.8,1.5-3.3,3.3-3.3h25.4V0
		C20.4,0,0,20.4,0,45.6s20.4,45.6,45.6,45.6V74h-9.8V72.7z"/>
	<linearGradient id="SVGID_1_" gradientUnits="userSpaceOnUse" x1="31.1067" y1="18.9938" x2="60.1414" y2="69.2834">
		<stop  offset="1.552812e-03" style="stop-color:#036544"/>
		<stop  offset="1" style="stop-color:#02281F"/>
	</linearGradient>
	<path class="st2" d="M71.7,26v36.2c0,0.4-0.3,0.7-0.7,0.7H45.6H20.3c-0.4,0-0.7-0.3-0.7-0.7V26c0-0.4,0.3-0.7,0.7-0.7h25.4H71
		C71.4,25.4,71.7,25.7,71.7,26z M45.6,65.5c-3.5,0-6.5,2.5-7.1,5.9h7.1h7.1C52.1,68.1,49.1,65.5,45.6,65.5z"/>
	<circle class="st3" cx="45.6" cy="45.6" r="45.6"/>
</g>
<g id="Layer_1_copy" class="st0">
	<path class="st1" d="M45.6,0C20.4,0,0,20.4,0,45.6s20.4,45.6,45.6,45.6V0z"/>
	
		<linearGradient id="SVGID_00000168832000120061265080000000138394361821192845_" gradientUnits="userSpaceOnUse" x1="103.1067" y1="-77.0062" x2="132.1414" y2="-26.7166">
		<stop  offset="1.552812e-03" style="stop-color:#036544"/>
		<stop  offset="1" style="stop-color:#02281F"/>
	</linearGradient>
	<path style="display:inline;fill:url(#SVGID_00000168832000120061265080000000138394361821192845_);" d="M143.7-70v36.2
		c0,0.4-0.3,0.7-0.7,0.7h-25.4H92.3c-0.4,0-0.7-0.3-0.7-0.7V-70c0-0.4,0.3-0.7,0.7-0.7h25.4H143C143.4-70.6,143.7-70.3,143.7-70z
		 M117.6-30.5c-3.5,0-6.5,2.5-7.1,5.9h7.1h7.1C124.1-27.9,121.1-30.5,117.6-30.5z"/>
	<circle class="st3" cx="45.6" cy="45.6" r="45.6"/>
	<g class="st5">
		<g>
			<path class="st6" d="M53.6,51.6c-0.8,0-1.5-0.7-1.5-1.5v-0.2c0-0.7-0.4-1.8-0.7-2.3c-0.1-0.1-1.7-2.2-5.6-2.2
				c-4,0-5.6,2.1-5.6,2.2c-0.4,0.5-0.7,1.7-0.7,2.3v0.2c0,0.8-0.7,1.5-1.5,1.5H22.8c-0.8,0-1.5-0.7-1.5-1.5c0,0,0-10.8,0-10.8
				c0-9.3,4.9-10.2,8.6-10.8c0.2,0,0.5-0.1,0.7-0.1c0.6-0.2,0.8-0.4,0.8-0.4c0,0,0-0.1-0.1-0.3c0,0-0.1-0.1-0.1-0.1
				c-1.7-1.8-3.3-6.5-1.8-10c1-2.3,3.1-3.6,6-3.6c2.9,0,5,1.3,6,3.6c1.5,3.5-0.1,8.2-1.8,10c0,0-0.1,0.1-0.1,0.1
				c-0.1,0.2-0.1,0.3-0.1,0.3l0,0c0,0,0.1,0.2,0.7,0.4c0.3,0,0.5,0.1,0.8,0.1c0.5,0.1,1,0.2,1.5,0.3c1.9-1.3,4.1-1.7,6-2.1l0.2,0
				c0.7-0.3,1-0.5,1-0.6c0,0,0-0.2-0.2-0.5c-0.1-0.1-0.1-0.1-0.2-0.1c-1.9-1.9-3.6-7.2-2-11c1.1-2.5,3.4-3.9,6.5-3.9
				s5.5,1.4,6.5,3.9c1.6,3.8-0.1,9.1-2,11c-0.1,0.1-0.1,0.1-0.2,0.1c-0.2,0.4-0.2,0.5-0.2,0.5c0,0.1,0.3,0.3,0.9,0.6l0.3,0.1
				c4.3,0.8,10.3,1.9,10.3,12.7v10.7c0,0.8-0.7,1.5-1.5,1.5H53.6z M45.8,33.7c-1.8,0-3.3,1.5-3.3,3.3c0,1.8,1.5,3.3,3.3,3.3
				c1.8,0,3.3-1.5,3.3-3.3C49.2,35.2,47.7,33.7,45.8,33.7z"/>
			<path class="st6" d="M53.4,12c8,0,5.9,9.8,3.4,12.4c-0.1,0.1-0.2,0.2-0.2,0.2c-0.4,0.7-1.4,2.5,1.6,3.5c4.3,0.8,9.4,1.5,9.4,11.3
				h0v10.7h-14v-0.2c0-1-0.5-2.4-1-3.2c0,0-2-2.8-6.8-2.8c-4.9,0-6.8,2.8-6.8,2.8c-0.6,0.8-1,2.2-1,3.2v0.2H22.8V39.4h0
				c0,0,0,0,0-0.1c0-8.7,4.4-8.8,8.2-9.5l0,0c2.7-0.9,1.8-2.6,1.4-3.2c-0.1-0.1-0.1-0.1-0.2-0.2c-2.2-2.3-4.1-11,3-11
				c7.1,0,5.3,8.7,3,11c-0.1,0.1-0.1,0.1-0.2,0.2c-0.4,0.6-1.2,2.2,1.4,3.2c1,0.2,2,0.3,3,0.6c1.8-1.5,4.2-1.9,6.3-2.3l0,0
				c3-1,2-2.9,1.6-3.6c-0.1-0.1-0.2-0.1-0.2-0.2C47.5,21.8,45.5,12,53.4,12 M45.8,41.9c2.7,0,4.8-2.2,4.8-4.8c0-2.7-2.2-4.8-4.8-4.8
				c-2.7,0-4.8,2.2-4.8,4.8C41,39.8,43.1,41.9,45.8,41.9 M53.4,9c-5.1,0-7.1,3-7.9,4.8c-1.6,3.9-0.3,8.9,1.5,11.6
				c-1.7,0.3-3.6,0.8-5.3,1.8c-0.1,0-0.2,0-0.3-0.1c1.6-2.7,2.4-7.1,1.1-10.2c-1.2-2.9-3.9-4.5-7.3-4.5c-3.5,0-6.1,1.6-7.3,4.5
				c-1.3,3.1-0.6,7.5,1.1,10.2c-3.7,0.7-9.2,2.2-9.2,12.2c0,0,0,0,0,0c0,0,0,0,0,0v10.7c0,1.7,1.3,3,3,3h15.1c1.7,0,3-1.3,3-3v-0.2
				c0-0.3,0.2-1.1,0.4-1.4c0.2-0.2,1.5-1.6,4.4-1.6c2.9,0,4.2,1.3,4.4,1.6c0.2,0.3,0.4,1.1,0.4,1.4v0.2c0,1.7,1.3,3,3,3h14
				c1.7,0,3-1.3,3-3V39.4c0-11.3-6.4-13.2-10.7-14c1.8-2.8,3.1-7.7,1.5-11.6C60.6,12,58.6,9,53.4,9L53.4,9z M58.7,25.1L58.7,25.1
				L58.7,25.1L58.7,25.1z M45.8,38.9c-1,0-1.8-0.8-1.8-1.8c0-1,0.8-1.8,1.8-1.8c1,0,1.8,0.8,1.8,1.8C47.7,38.1,46.8,38.9,45.8,38.9
				L45.8,38.9z"/>
		</g>
		<g>
			<path class="st6" d="M26.4,79.7c-0.4,0-0.8-0.1-1.1-0.4L14.5,68.4c-0.6-0.6-0.6-1.5,0-2.1l3.4-3.7c1.2-1.9,6.5-9.6,17.6-10.1
				c1,0,1.7-0.1,2.4-0.2c0.9-0.1,1.8-0.1,3.3-0.2c3.2-0.1,3.6-0.2,5.7-0.7l0.6-0.1c0.5-0.1,1-0.2,1.4-0.2c1.7,0,3.1,0.8,3.6,2.2
				c0.6,1.6-0.1,3.5-1.7,4.9c-1.4,1.2-2.3,2.6-2.5,3.2c0.1,0,0.1,0,0.2,0l0.1,0c6.5-0.2,13.1-5.1,16.3-7.4l0.2-0.2
				c1.7-1.2,3.2-1.8,4.6-1.8c2.5,0,3.9,1.9,4.4,3c0.2,0.5,0.1,1-0.2,1.4c-5,7.4-19.7,18.8-28.9,18.8c0,0,0,0,0,0
				c-0.4,0-0.8,0-1.2-0.1c-2.2-0.3-3.9-0.4-5.3-0.4c-4.4,0-7.1,1.1-11.3,4.5C27.1,79.6,26.8,79.7,26.4,79.7z"/>
			<path class="st6" d="M48.9,52.6c2.6,0,3.1,2.7,0.9,4.5c-2.4,2-4.7,5.9-1.2,5.9c0.1,0,0.1,0,0.2,0c7.1-0.3,14.1-5.5,17.4-7.9
				c1.6-1.1,2.8-1.5,3.8-1.5c2.2,0,3,2.1,3,2.1C67.9,63,53.7,73.8,45.2,73.8c-0.4,0-0.7,0-1-0.1c-2.1-0.2-3.9-0.4-5.5-0.4
				c-4.8,0-7.9,1.3-12.2,4.8L15.5,67.3c0,0,2.1-2.3,3.5-3.8c1-1.6,5.8-9,16.4-9.5c2.1-0.1,3-0.2,5.7-0.4c3.6-0.1,3.9-0.3,6.6-0.9
				C48.2,52.7,48.5,52.6,48.9,52.6 M48.9,49.6C48.9,49.6,48.9,49.6,48.9,49.6c-0.6,0-1.1,0.1-1.7,0.2L46.5,50
				c-2.1,0.5-2.4,0.5-5.4,0.7c-1.5,0.1-2.5,0.1-3.4,0.2C37,50.9,36.3,51,35.3,51C23.7,51.5,18,59.4,16.6,61.7
				c-1.4,1.5-3.3,3.6-3.3,3.6c-1.1,1.2-1,3,0.1,4.2l10.9,10.9c0.6,0.6,1.4,0.9,2.1,0.9c0.7,0,1.3-0.2,1.9-0.7
				c3.9-3.2,6.3-4.2,10.3-4.2c1.4,0,3,0.1,5.1,0.4c0.4,0.1,0.9,0.1,1.4,0.1c9.8,0,24.8-11.6,30.1-19.5c0.5-0.8,0.7-1.8,0.3-2.7
				c-0.6-1.5-2.4-4-5.8-4c-1.7,0-3.6,0.7-5.5,2.1l-0.2,0.2c-2.6,1.9-7.5,5.5-12.6,6.7c0.1-0.1,0.1-0.1,0.2-0.2
				c2.1-1.8,2.9-4.4,2.1-6.6C53.1,50.9,51.2,49.6,48.9,49.6L48.9,49.6z"/>
		</g>
	</g>
	<rect x="38.3" y="32.3" class="st7" width="18" height="23"/>
	<g class="st5">
		<g>
			<path class="st8" d="M109.9,49.9c0-1,0.5-2.4,1-3.2c0,0,2-2.8,6.8-2.8c4.9,0,6.8,2.8,6.8,2.8c0.6,0.8,1,2.2,1,3.2v0.2h14V39.4h0
				c0-9.8-5.1-10.5-9.4-11.3c-2.9-1-2-2.9-1.6-3.5c0.1-0.1,0.2-0.1,0.2-0.2c2.5-2.5,4.6-12.4-3.4-12.4c-8,0-5.9,9.8-3.4,12.4
				c0.1,0.1,0.2,0.2,0.2,0.2c0.4,0.7,1.4,2.5-1.6,3.6l0,0c-2.2,0.4-4.5,0.8-6.3,2.3c-1-0.3-2-0.4-3-0.6c-2.6-0.9-1.8-2.6-1.4-3.2
				c0.1-0.1,0.1-0.1,0.2-0.2c2.2-2.3,4.1-11-3-11c-7.1,0-5.3,8.7-3,11c0.1,0.1,0.1,0.1,0.2,0.2c0.4,0.6,1.3,2.3-1.4,3.2l0,0
				c-3.8,0.7-8.2,0.8-8.2,9.5c0,0,0,0,0,0.1h0v10.7h15.1V49.9z M117.8,32.2c2.7,0,4.8,2.2,4.8,4.8c0,2.7-2.2,4.8-4.8,4.8
				c-2.7,0-4.8-2.2-4.8-4.8C113,34.4,115.1,32.2,117.8,32.2z"/>
		</g>
		<g>
			<path class="st8" d="M138.1,55.2c-3.2,2.4-10.3,7.6-17.4,7.9c-3.8,0.1-1.4-3.8,1.1-5.9c2.4-2.1,1.6-5.2-2-4.4
				c-2.7,0.6-3,0.7-6.6,0.9c-2.7,0.1-3.6,0.3-5.7,0.4C96.9,54.4,92,61.8,91,63.5c-1.4,1.6-3.5,3.8-3.5,3.8l10.9,10.9
				c5.8-4.8,9.4-5.4,17.7-4.5c8.3,1,23.5-10.5,28.7-18.1C144.8,55.7,143.2,51.4,138.1,55.2z"/>
		</g>
	</g>
</g>
<g id="dental">
	<path class="st9" d="M45.6,0C20.4,0,0,20.4,0,45.6s20.4,45.6,45.6,45.6V0z"/>
	
		<linearGradient id="SVGID_00000130621758878949934330000004953280874894228103_" gradientUnits="userSpaceOnUse" x1="103.1067" y1="-77.0062" x2="132.1414" y2="-26.7166">
		<stop  offset="1.552812e-03" style="stop-color:#036544"/>
		<stop  offset="1" style="stop-color:#02281F"/>
	</linearGradient>
	<path style="fill:url(#SVGID_00000130621758878949934330000004953280874894228103_);" d="M143.7-70v36.2c0,0.4-0.3,0.7-0.7,0.7
		h-25.4H92.3c-0.4,0-0.7-0.3-0.7-0.7V-70c0-0.4,0.3-0.7,0.7-0.7h25.4H143C143.4-70.6,143.7-70.3,143.7-70z M117.6-30.5
		c-3.5,0-6.5,2.5-7.1,5.9h7.1h7.1C124.1-27.9,121.1-30.5,117.6-30.5z"/>
	<circle class="st11" cx="45.6" cy="45.6" r="45.6"/>
	<path class="st12" d="M56.3,75.8c-5.7,0-5.7-13.4-5.7-13.5c0-3.7-2.7-8.3-4.9-8.3c-2.2,0-4.9,4.6-4.9,8.3c0,0.1-0.1,13.5-5.7,13.5
		c-4.3,0-4.6-11-4.6-14.3v-2.3c0-5.5-0.8-10.9-2.4-15.9c-1.4-4.5-1.9-10.1-1.9-12.1c0-3.5,2.2-8.7,8.1-8.7c4.8,0,10.2,1.5,11.5,1.9
		c1.3-0.4,6.7-1.9,11.5-1.9c6,0,8.1,5.2,8.1,8.7c0,2-0.5,7.7-1.9,12.1c-1.6,5-2.4,10.4-2.4,15.9v2.3C60.9,64.8,60.6,75.8,56.3,75.8z
		"/>
	
		<linearGradient id="SVGID_00000015332651655502573260000010890459211109199548_" gradientUnits="userSpaceOnUse" x1="26.0677" y1="49.0285" x2="65.2062" y2="49.0285">
		<stop  offset="1.552812e-03" style="stop-color:#036544"/>
		<stop  offset="1" style="stop-color:#02281F"/>
	</linearGradient>
	<path style="fill:url(#SVGID_00000015332651655502573260000010890459211109199548_);" d="M56.3,75.8c-5.7,0-5.7-13.4-5.7-13.5
		c0-3.7-2.7-8.3-4.9-8.3c-2.2,0-4.9,4.6-4.9,8.3c0,0.1-0.1,13.5-5.7,13.5c-4.3,0-4.6-11-4.6-14.3v-2.3c0-5.5-0.8-10.9-2.4-15.9
		c-1.4-4.5-1.9-10.1-1.9-12.1c0-3.5,2.2-8.7,8.1-8.7c4.8,0,10.2,1.5,11.5,1.9c1.3-0.4,6.7-1.9,11.5-1.9c6,0,8.1,5.2,8.1,8.7
		c0,2-0.5,7.7-1.9,12.1c-1.6,5-2.4,10.4-2.4,15.9v2.3C60.9,64.8,60.6,75.8,56.3,75.8z"/>
</g>
<g id="employee_assistance" class="st0">
	
		<linearGradient id="SVGID_00000036962512431983415330000017467667051650271636_" gradientUnits="userSpaceOnUse" x1="103.1067" y1="-77.0062" x2="132.1414" y2="-26.7166">
		<stop  offset="1.552812e-03" style="stop-color:#036544"/>
		<stop  offset="1" style="stop-color:#02281F"/>
	</linearGradient>
	<path style="display:inline;fill:url(#SVGID_00000036962512431983415330000017467667051650271636_);" d="M143.7-70v36.2
		c0,0.4-0.3,0.7-0.7,0.7h-25.4H92.3c-0.4,0-0.7-0.3-0.7-0.7V-70c0-0.4,0.3-0.7,0.7-0.7h25.4H143C143.4-70.6,143.7-70.3,143.7-70z
		 M117.6-30.5c-3.5,0-6.5,2.5-7.1,5.9h7.1h7.1C124.1-27.9,121.1-30.5,117.6-30.5z"/>
	<circle class="st3" cx="45.6" cy="45.6" r="45.6"/>
	<g class="st5">
		<g>
			<path class="st8" d="M119.9,51.9c0-1,0.5-2.4,1-3.2c0,0,2-2.8,6.8-2.8c4.9,0,6.8,2.8,6.8,2.8c0.6,0.8,1,2.2,1,3.2v0.2h14V41.4h0
				c0-9.8-5.1-10.5-9.4-11.3c-2.9-1-2-2.9-1.6-3.5c0.1-0.1,0.2-0.1,0.2-0.2c2.5-2.5,4.6-12.4-3.4-12.4c-8,0-5.9,9.8-3.4,12.4
				c0.1,0.1,0.2,0.2,0.2,0.2c0.4,0.7,1.4,2.5-1.6,3.6l0,0c-2.2,0.4-4.5,0.8-6.3,2.3c-1-0.3-2-0.4-3-0.6c-2.6-0.9-1.8-2.6-1.4-3.2
				c0.1-0.1,0.1-0.1,0.2-0.2c2.2-2.3,4.1-11-3-11c-7.1,0-5.3,8.7-3,11c0.1,0.1,0.1,0.1,0.2,0.2c0.4,0.6,1.3,2.3-1.4,3.2l0,0
				c-3.8,0.7-8.2,0.8-8.2,9.5c0,0,0,0,0,0.1h0v10.7h15.1V51.9z M127.8,34.2c2.7,0,4.8,2.2,4.8,4.8c0,2.7-2.2,4.8-4.8,4.8
				c-2.7,0-4.8-2.2-4.8-4.8C123,36.4,125.1,34.2,127.8,34.2z"/>
		</g>
		<g>
			<path class="st8" d="M148.1,57.2c-3.2,2.4-10.3,7.6-17.4,7.9c-3.8,0.1-1.4-3.8,1.1-5.9c2.4-2.1,1.6-5.2-2-4.4
				c-2.7,0.6-3,0.7-6.6,0.9c-2.7,0.1-3.6,0.3-5.7,0.4c-10.6,0.4-15.5,7.9-16.4,9.5c-1.4,1.6-3.5,3.8-3.5,3.8l10.9,10.9
				c5.8-4.8,9.4-5.4,17.7-4.5c8.3,1,23.5-10.5,28.7-18.1C154.8,57.7,153.2,53.4,148.1,57.2z"/>
		</g>
	</g>
	<path class="st1" d="M42.6,71.5c-0.9,0.4-1.9,0.7-3,0.7c-0.5,0-1.1-0.1-1.7-0.2c-1.7-0.3-3.1-1.2-3.9-2.6c-1.1-0.1-2.2-0.4-3.2-1.1
		c-1.3-0.8-2.1-1.8-2.6-2.6c-1.4-0.1-2.7-0.6-3.9-1.5c-1-0.7-1.8-1.6-2.3-2.8c-1-0.3-2.4-1-3.5-2.5c-1.3-1.6-2.3-4.2-0.4-7.9l-0.9-1
		c-2.5-2.8-5-5.7-5.5-6.2l-1.3-1.2L9,41.3l1.3-1.5l14.1-16.4l1-1.2l1.4,0.7l1.2,0.6c0.1,0,5.8,2.8,11.2,4.2c0.9,0.2,2,0.6,3.1,1
		c1.1-0.2,2.2-0.4,3.3-0.6V0C20.4,0,0,20.4,0,45.6s20.4,45.6,45.6,45.6v-19C44.6,72.1,43.6,71.9,42.6,71.5z"/>
	<polygon class="st15" points="14.8,40.8 26.8,27.8 40.8,32.8 55.8,37.8 69.8,50.8 70.8,54.8 68.8,58.8 47.8,68.8 41.8,66.8 	"/>
	
		<linearGradient id="SVGID_00000104704494213804284570000012835686833500821401_" gradientUnits="userSpaceOnUse" x1="11.801" y1="47.5271" x2="84.7148" y2="47.5271">
		<stop  offset="1.552812e-03" style="stop-color:#036544"/>
		<stop  offset="1" style="stop-color:#02281F"/>
	</linearGradient>
	<path style="display:inline;fill:url(#SVGID_00000104704494213804284570000012835686833500821401_);" d="M84.7,44.5L83.6,43
		L72.2,27.5l-1-1.3L69.8,27l-8.6,5.3c-2.1-0.7-7.4-2.5-9.5-2.7c-0.3,0-0.6,0-0.9,0c-0.7,0-4.9,0.3-8.5,1.2c-1.2-0.4-2.4-0.8-3.5-1.1
		c-5.6-1.5-11.5-4.3-11.6-4.3l-1.2-0.6L11.8,41.2l1.3,1.2c0.6,0.5,2.9,3.2,5.7,6.3c0.6,0.7,1.2,1.4,1.9,2.1c-1.3,2-2.4,4.6-0.5,6.9
		c1.2,1.5,2.6,1.9,3.5,2.1c0.2,0.8,0.6,2.1,1.9,2.9c1,0.7,2,1.1,3.1,1.1c0.3,0,0.6,0,0.8-0.1c0,0,0.1,0.1,0.1,0.1
		c0.4,0.8,1,1.9,2.4,2.9c0.8,0.5,1.6,0.7,2.4,0.7c0.3,0,0.6,0,0.8-0.1c0.5,1.5,1.5,2.4,3.1,2.7c0.5,0.1,1,0.1,1.4,0.1
		c1.3,0,2.1-0.4,2.8-0.9c0.4,0.2,0.6,0.3,0.8,0.3c1.2,0.5,2.3,0.8,3.6,0.8c0.8,0,1.7-0.1,2.8-0.3c2.9-0.6,18.9-8.8,21.2-11.3
		c1.2-1.3,1.9-3.8,1.7-5.7l10.7-7.3L84.7,44.5z M68.1,56.3c-0.1,0.2-0.4,0.4-0.7,0.6L56,46.4L53.6,49l10.7,9.8
		c-1,0.6-2.2,1.2-3.4,1.9L51,51.7l-2.4,2.6l8.9,8.2c-1.2,0.6-2.4,1.2-3.5,1.8L46.1,57l-2.4,2.6l6.7,6.2c-0.7,0.3-1.3,0.5-1.7,0.6
		c-1.8,0.4-2.9,0.4-4.1-0.2l-0.1,0c0,0-0.1,0-0.3-0.1c0.2-2.5-1.6-5.3-2.9-6.2c-0.6-0.4-1.2-0.8-2-0.8c0-1.6-0.4-3.2-1.8-4.5l0,0
		l0,0c-0.7-0.6-1.5-0.9-2.2-0.9c-0.2,0-0.3,0-0.5,0c0.1-1,0-2-0.3-2.8c-0.4-1-1.1-1.7-2-2.1c-0.5-0.2-1-0.3-1.5-0.3
		c-0.9,0-1.6,0.3-2.1,0.7c0,0,0-0.1,0-0.1c-0.2-1.1-0.7-1.8-1.4-2.3l0,0l0,0c-0.4-0.2-0.9-0.5-1.7-0.5c-1.3,0-2.1,0.8-2.9,1.7
		c-0.5-0.6-1-1.1-1.4-1.6c-2.2-2.5-3.7-4.2-4.7-5.3l10.2-11.8c2,0.9,6.1,2.7,10.3,3.8c-0.2,0.2-0.3,0.4-0.4,0.5
		c-0.3,0.6-0.3,1.4,0,2c0.2,0.7,1,2.3,2.8,3.2l0.2,0.1c1,0.5,2.1,1.1,3.9,1.1c1.5,0,3.1-0.4,5.3-1.3c0,0,0.2-0.1,0.5-0.1
		c0.3,0,0.8,0.1,1.3,0.2c2.6,1.4,4.5,2.6,4.9,2.8c2.9,2.3,7.8,6.3,11.9,9.8c0.6,0.7,1.1,1.3,1.4,1.8C69.1,53.7,68.7,55.5,68.1,56.3z
		"/>
</g>
<g id="Layer_1_copy_2" class="st0">
	
		<linearGradient id="SVGID_00000097500682590912438360000005956928527295057557_" gradientUnits="userSpaceOnUse" x1="103.1067" y1="-77.0062" x2="132.1414" y2="-26.7166">
		<stop  offset="1.552812e-03" style="stop-color:#036544"/>
		<stop  offset="1" style="stop-color:#02281F"/>
	</linearGradient>
	<path style="display:inline;fill:url(#SVGID_00000097500682590912438360000005956928527295057557_);" d="M143.7-70v36.2
		c0,0.4-0.3,0.7-0.7,0.7h-25.4H92.3c-0.4,0-0.7-0.3-0.7-0.7V-70c0-0.4,0.3-0.7,0.7-0.7h25.4H143C143.4-70.6,143.7-70.3,143.7-70z
		 M117.6-30.5c-3.5,0-6.5,2.5-7.1,5.9h7.1h7.1C124.1-27.9,121.1-30.5,117.6-30.5z"/>
	<circle class="st3" cx="45.6" cy="45.6" r="45.6"/>
	<g class="st5">
		<path class="st9" d="M31,59.4h-1.5h-2.6l0.8,1.1c4.1,5.5,10.2,8.7,17,8.7c0.3,0,0.7,0,1,0V21.4c-0.1,0-0.1,0-0.2,0
			c-5,0-9.9,1.9-13.8,5.2l2,1.7l2.5,2.1L33,30.8l-8.4,1.4c0.9,1.4,1.5,3,1.5,4.8c0,3.1-1.7,5.8-4.1,7.2c5.5,1.2,9,4.9,9,9.8v3.9
			V59.4z"/>
		<path class="st9" d="M44.6,75.2c-8.7,0-16.6-4.1-21.8-11.1l-0.9-1.2l1.2-0.9l2.4-1.8l1-0.8H6.2H4.7v-1.5V54c0-4.9,3.6-8.6,9-9.8
			c-2.5-1.4-4.1-4.1-4.1-7.2c0-4.6,3.7-8.3,8.2-8.3c1.9,0,3.6,0.6,4.9,1.7l-0.3-8.3l-0.1-3.4l2.6,2.2l2,1.7c5-4.7,11.7-7.3,18.4-7.3
			c0.1,0,0.1,0,0.2,0V0C20.4,0,0,20.4,0,45.6s20.4,45.6,45.6,45.6V75.2C45.3,75.2,45,75.2,44.6,75.2z"/>
	</g>
	<g class="st5">
		<path class="st18" d="M79.6,36.1c0,3.8-3,6.8-6.7,6.8c-3.7,0-6.7-3.1-6.7-6.8c0-3.8,3-6.8,6.7-6.8C76.6,29.3,79.6,32.3,79.6,36.1z
			"/>
		<path class="st18" d="M60.8,53.6c0-4.5,1.5-7.8,5.3-8.9c-0.2,3,0,5.3,0.2,6.5c-0.6,0.4-1,1.1-1,1.9c0.1,1.1,1.1,2,2.2,1.9
			c1.1-0.1,1.9-1.1,1.8-2.2c-0.1-0.8-0.5-1.4-1.2-1.7c-0.2-1-0.5-3.5-0.2-6.7c0.2,0,0.7-0.1,1.1-0.1l3.8,2.9l3.8-2.9
			c0.5,0,1,0.1,1.4,0.1c0,0.4,0,0.8-0.1,1.2c-0.1,0.6-0.2,1.3-0.3,1.6c-1.9,0.1-3.4,1.3-3.7,2.9l-0.5,3.3c-0.1,0.3-0.1,0.8,0.2,1.3
			c0.2,0.3,0.5,0.5,0.9,0.5c0.5,0.1,1-0.3,1.1-0.8c0-0.3-0.1-0.6-0.3-0.9l0.5-3.2c0.1-0.8,1.3-1.4,2.5-1.2c1.2,0.2,2.1,1.1,2,1.9
			l-0.5,3.1c-0.3,0.1-0.5,0.4-0.5,0.7c-0.1,0.5,0.3,1,0.8,1.1c0.1,0,0.2,0,0.3,0c0.3,0,0.6-0.1,0.8-0.3c0.4-0.3,0.5-0.8,0.5-1.2
			l0.5-3.3c0.2-1.6-0.9-3.2-2.6-3.9c0.1-0.3,0.2-0.9,0.3-1.6c0-0.3,0.1-0.6,0.1-1c3.2,1.1,5,3.8,5,8.8l0,3.3h-24V53.6z"/>
		<path class="st18" d="M24.3,30.8L24,22l3.1,2.6c4.8-5,11.5-7.8,18.4-7.8c8.2,0,15.7,3.8,20.6,10.5l-2.4,1.8
			c-4.3-5.9-11-9.3-18.2-9.3c-6,0-11.8,2.4-16,6.7l3.3,2.8L24.3,30.8z"/>
		<path class="st18" d="M65.8,59.7l0.3,8.8L63,65.9c-4.8,5-11.5,7.8-18.4,7.8c-8.2,0-15.7-3.8-20.6-10.5l2.4-1.8
			c4.3,5.9,11,9.3,18.2,9.3c6,0,11.8-2.4,16-6.7l-3.3-2.8L65.8,59.7z"/>
		<path class="st18" d="M17.8,43.9c-3.7,0-6.7-3.1-6.7-6.8c0-3.8,3-6.8,6.7-6.8c3.7,0,6.7,3.1,6.7,6.8
			C24.6,40.8,21.5,43.9,17.8,43.9z"/>
		<path class="st18" d="M17.8,45.3c6.4,0,11.6,3.2,11.6,8.7v3.9H6.2V54C6.2,48.5,11.4,45.3,17.8,45.3z"/>
	</g>
</g>
<g id="Layer_1_copy_3" class="st0">
	<circle class="st3" cx="45.6" cy="45.6" r="45.6"/>
	<path class="st1" d="M45.6,75.2C45.6,75.2,45.6,75.2,45.6,75.2l-1,0c-0.9,0-1.7-0.7-1.9-1.5l-3.3-13c-0.7,0-1.3-0.4-1.8-0.9
		c-0.5-0.6-0.7-1.3-0.6-2.1l0.3-2.3c0,0,0,0,0,0h-0.5c-1.1,0-2.1-0.6-2.6-1.5c-0.5,0.3-1.1,0.5-1.7,0.5h-0.5c-0.2,0-0.5,0-0.7-0.1
		c-0.2,3.6-0.5,7.3-0.8,10.9l-0.7,7c0,1.6-1.4,3-3,3h-1.9c-0.7,0-1.4-0.3-1.9-0.7c-0.5,0.4-1.2,0.7-1.9,0.7h-1.9c-1.6,0-3-1.3-3-3
		l-0.7-7.1c-0.3-3.6-0.6-7.2-0.8-10.8c-0.2,0.1-0.5,0.1-0.7,0.1h-0.5c-1.7,0-3-1.4-3-3V34.8c0-2.8,2.3-5.1,5-5.1h5.5
		c-2.5-0.9-4.3-3.3-4.3-6.1c0-3.5,2.9-6.4,6.4-6.4s6.4,2.9,6.4,6.4c0,2.8-1.8,5.2-4.3,6.1h5.5c2.8,0,5,2.3,5,5.1v1l0.1-0.7
		c0-2.8,2.3-5.1,5.1-5.1h4C42,29.3,40,26.8,40,23.8c0-3.3,2.4-6,5.6-6.5V0C20.4,0,0,20.4,0,45.6s20.4,45.6,45.6,45.6L45.6,75.2
		C45.6,75.2,45.6,75.2,45.6,75.2z"/>
	<g class="st5">
		<g>
			
				<linearGradient id="SVGID_00000120516435372575171030000007008359431760834486_" gradientUnits="userSpaceOnUse" x1="17.9698" y1="23.6946" x2="27.7855" y2="23.6946">
				<stop  offset="1.552812e-03" style="stop-color:#036544"/>
				<stop  offset="1" style="stop-color:#02281F"/>
			</linearGradient>
			<path style="fill:url(#SVGID_00000120516435372575171030000007008359431760834486_);" d="M27.8,23.7c0,2.7-2.2,4.9-4.9,4.9
				S18,26.4,18,23.7c0-2.7,2.2-4.9,4.9-4.9S27.8,21,27.8,23.7z"/>
			
				<linearGradient id="SVGID_00000036956839349074302520000006861030299452495251_" gradientUnits="userSpaceOnUse" x1="11.801" y1="52.5205" x2="33.954" y2="52.5205">
				<stop  offset="1.552812e-03" style="stop-color:#036544"/>
				<stop  offset="1" style="stop-color:#02281F"/>
			</linearGradient>
			<path style="fill:url(#SVGID_00000036956839349074302520000006861030299452495251_);" d="M34,34.8c0-2-1.6-3.6-3.5-3.6H15.3
				c-2,0-3.5,1.6-3.5,3.6v16.6c0,0.9,0.7,1.5,1.5,1.5h0.5c0.8,0,1.5-0.7,1.5-1.5V40.8h0.3l0,0c0,8.1,0.4,16.2,1.2,24.3l0.7,7.1
				c0,0.9,0.7,1.5,1.5,1.5H21c0.8,0,1.5-0.7,1.5-1.5l0.3-18.6h0.1H23l0.3,18.6c0,0.8,0.7,1.5,1.5,1.5h1.9c0.8,0,1.5-0.7,1.5-1.5
				l0.7-7.1c0.8-8.1,1.2-16.2,1.2-24.3v0h0.3v10.6c0,0.9,0.7,1.5,1.5,1.5h0.5c0.8,0,1.5-0.7,1.5-1.5V34.8z"/>
		</g>
		<g>
			
				<linearGradient id="SVGID_00000161624911778115179100000011265730540429666456_" gradientUnits="userSpaceOnUse" x1="65.2911" y1="28.3128" x2="74.2014" y2="28.3128">
				<stop  offset="1.552812e-03" style="stop-color:#036544"/>
				<stop  offset="1" style="stop-color:#02281F"/>
			</linearGradient>
			<path style="fill:url(#SVGID_00000161624911778115179100000011265730540429666456_);" d="M74.2,28.3c0,2.5-2,4.5-4.5,4.5
				s-4.5-2-4.5-4.5s2-4.5,4.5-4.5S74.2,25.8,74.2,28.3z"/>
			
				<linearGradient id="SVGID_00000073688368274486089090000017695700415500950401_" gradientUnits="userSpaceOnUse" x1="59.6914" y1="54.4797" x2="79.801" y2="54.4797">
				<stop  offset="1.552812e-03" style="stop-color:#036544"/>
				<stop  offset="1" style="stop-color:#02281F"/>
			</linearGradient>
			<path style="fill:url(#SVGID_00000073688368274486089090000017695700415500950401_);" d="M79.8,38.4c0-1.8-1.4-3.2-3.2-3.2H62.9
				c-1.8,0-3.2,1.4-3.2,3.2v15.1c0,0.8,0.6,1.4,1.4,1.4h0.4c0.8,0,1.4-0.6,1.4-1.4v-9.6h0.3l0,0c0,7.4,0.4,14.7,1.1,22l0.6,6.5
				c0,0.8,0.6,1.4,1.4,1.4H68c0.7,0,1.4-0.6,1.4-1.3l0.2-16.9h0.1h0.1l0.2,16.9c0,0.7,0.6,1.3,1.4,1.3h1.7c0.8,0,1.4-0.6,1.4-1.4
				l0.6-6.4c0.7-7.3,1.1-14.7,1.1-22v0h0.3v9.6c0,0.8,0.6,1.4,1.4,1.4h0.4c0.8,0,1.4-0.6,1.4-1.4V38.4z"/>
		</g>
		<g>
			
				<linearGradient id="SVGID_00000139984263535629147220000004464715757153002933_" gradientUnits="userSpaceOnUse" x1="41.5324" y1="23.8318" x2="51.6206" y2="23.8318">
				<stop  offset="1.552812e-03" style="stop-color:#036544"/>
				<stop  offset="1" style="stop-color:#02281F"/>
			</linearGradient>
			<ellipse style="fill:url(#SVGID_00000139984263535629147220000004464715757153002933_);" cx="46.6" cy="23.8" rx="5" ry="5.1"/>
			
				<linearGradient id="SVGID_00000172425960695380529890000018230026291990068866_" gradientUnits="userSpaceOnUse" x1="35.1925" y1="52.6947" x2="57.9607" y2="52.6947">
				<stop  offset="1.552812e-03" style="stop-color:#036544"/>
				<stop  offset="1" style="stop-color:#02281F"/>
			</linearGradient>
			<path style="fill:url(#SVGID_00000172425960695380529890000018230026291990068866_);" d="M56.1,35.3c0-2-1.6-3.7-3.6-3.7H40.7
				c-2,0-3.6,1.6-3.6,3.7l-1.8,17c0,0.9,0.7,1.6,1.6,1.6h0.5c0.9,0,1.6-0.7,1.6-1.6l1.8-10.9H41l-2.5,16.5c-0.1,0.6,0.4,1.2,1.1,1.2
				h1l3.6,14.2c0.1,0.2,0.3,0.4,0.5,0.4l1,0c0.3,0,0.6-0.2,0.6-0.5l0.2-14h0.4l0.2,14c0,0.3,0.2,0.5,0.5,0.5h1
				c0.3,0,0.5-0.2,0.5-0.4l3.6-14.2h1c0.7,0,1.2-0.6,1.1-1.2l-2.6-16.5h0.3l1.8,10.9c0,0.9,0.7,1.6,1.6,1.6h0.5
				c0.9,0,1.6-0.7,1.6-1.6L56.1,35.3z"/>
		</g>
	</g>
</g>
<g id="Layer_1_copy_4" class="st0">
	<circle class="st3" cx="45.6" cy="45.6" r="45.6"/>
	<path class="st1" d="M45.6,75.2C45.6,75.2,45.6,75.2,45.6,75.2l-1,0c-0.9,0-1.7-0.7-1.9-1.5l-3.3-13c-0.7,0-1.3-0.4-1.8-0.9
		c-0.5-0.6-0.7-1.3-0.6-2.1l0.3-2.3c0,0,0,0,0,0h-0.5c-1.1,0-2.1-0.6-2.6-1.5c-0.5,0.3-1.1,0.5-1.7,0.5h-0.5c-0.2,0-0.5,0-0.7-0.1
		c-0.2,3.6-0.5,7.3-0.8,10.9l-0.7,7c0,1.6-1.4,3-3,3h-1.9c-0.7,0-1.4-0.3-1.9-0.7c-0.5,0.4-1.2,0.7-1.9,0.7h-1.9c-1.6,0-3-1.3-3-3
		l-0.7-7.1c-0.3-3.6-0.6-7.2-0.8-10.8c-0.2,0.1-0.5,0.1-0.7,0.1h-0.5c-1.7,0-3-1.4-3-3V34.8c0-2.8,2.3-5.1,5-5.1h5.5
		c-2.5-0.9-4.3-3.3-4.3-6.1c0-3.5,2.9-6.4,6.4-6.4s6.4,2.9,6.4,6.4c0,2.8-1.8,5.2-4.3,6.1h5.5c2.8,0,5,2.3,5,5.1v1l0.1-0.7
		c0-2.8,2.3-5.1,5.1-5.1h4C42,29.3,40,26.8,40,23.8c0-3.3,2.4-6,5.6-6.5V0C20.4,0,0,20.4,0,45.6s20.4,45.6,45.6,45.6L45.6,75.2
		C45.6,75.2,45.6,75.2,45.6,75.2z"/>
	<g class="st5">
		<g>
			
				<linearGradient id="SVGID_00000006704023264170942800000008532965146654933939_" gradientUnits="userSpaceOnUse" x1="17.9698" y1="23.6946" x2="27.7855" y2="23.6946">
				<stop  offset="1.552812e-03" style="stop-color:#036544"/>
				<stop  offset="1" style="stop-color:#02281F"/>
			</linearGradient>
			<path style="fill:url(#SVGID_00000006704023264170942800000008532965146654933939_);" d="M27.8,23.7c0,2.7-2.2,4.9-4.9,4.9
				S18,26.4,18,23.7c0-2.7,2.2-4.9,4.9-4.9S27.8,21,27.8,23.7z"/>
			
				<linearGradient id="SVGID_00000109732999173264754720000008875779857921244337_" gradientUnits="userSpaceOnUse" x1="11.801" y1="52.5205" x2="33.954" y2="52.5205">
				<stop  offset="1.552812e-03" style="stop-color:#036544"/>
				<stop  offset="1" style="stop-color:#02281F"/>
			</linearGradient>
			<path style="fill:url(#SVGID_00000109732999173264754720000008875779857921244337_);" d="M34,34.8c0-2-1.6-3.6-3.5-3.6H15.3
				c-2,0-3.5,1.6-3.5,3.6v16.6c0,0.9,0.7,1.5,1.5,1.5h0.5c0.8,0,1.5-0.7,1.5-1.5V40.8h0.3l0,0c0,8.1,0.4,16.2,1.2,24.3l0.7,7.1
				c0,0.9,0.7,1.5,1.5,1.5H21c0.8,0,1.5-0.7,1.5-1.5l0.3-18.6h0.1H23l0.3,18.6c0,0.8,0.7,1.5,1.5,1.5h1.9c0.8,0,1.5-0.7,1.5-1.5
				l0.7-7.1c0.8-8.1,1.2-16.2,1.2-24.3v0h0.3v10.6c0,0.9,0.7,1.5,1.5,1.5h0.5c0.8,0,1.5-0.7,1.5-1.5V34.8z"/>
		</g>
		<g>
			
				<linearGradient id="SVGID_00000153676414377879804960000004309318581941436340_" gradientUnits="userSpaceOnUse" x1="65.2911" y1="28.3128" x2="74.2014" y2="28.3128">
				<stop  offset="1.552812e-03" style="stop-color:#036544"/>
				<stop  offset="1" style="stop-color:#02281F"/>
			</linearGradient>
			<path style="fill:url(#SVGID_00000153676414377879804960000004309318581941436340_);" d="M74.2,28.3c0,2.5-2,4.5-4.5,4.5
				s-4.5-2-4.5-4.5s2-4.5,4.5-4.5S74.2,25.8,74.2,28.3z"/>
			
				<linearGradient id="SVGID_00000077313746508673530170000001227223489606165923_" gradientUnits="userSpaceOnUse" x1="59.6914" y1="54.4797" x2="79.801" y2="54.4797">
				<stop  offset="1.552812e-03" style="stop-color:#036544"/>
				<stop  offset="1" style="stop-color:#02281F"/>
			</linearGradient>
			<path style="fill:url(#SVGID_00000077313746508673530170000001227223489606165923_);" d="M79.8,38.4c0-1.8-1.4-3.2-3.2-3.2H62.9
				c-1.8,0-3.2,1.4-3.2,3.2v15.1c0,0.8,0.6,1.4,1.4,1.4h0.4c0.8,0,1.4-0.6,1.4-1.4v-9.6h0.3l0,0c0,7.4,0.4,14.7,1.1,22l0.6,6.5
				c0,0.8,0.6,1.4,1.4,1.4H68c0.7,0,1.4-0.6,1.4-1.3l0.2-16.9h0.1h0.1l0.2,16.9c0,0.7,0.6,1.3,1.4,1.3h1.7c0.8,0,1.4-0.6,1.4-1.4
				l0.6-6.4c0.7-7.3,1.1-14.7,1.1-22v0h0.3v9.6c0,0.8,0.6,1.4,1.4,1.4h0.4c0.8,0,1.4-0.6,1.4-1.4V38.4z"/>
		</g>
		<g>
			
				<linearGradient id="SVGID_00000158712235410985881660000009982951610933385123_" gradientUnits="userSpaceOnUse" x1="41.5324" y1="23.8318" x2="51.6206" y2="23.8318">
				<stop  offset="1.552812e-03" style="stop-color:#036544"/>
				<stop  offset="1" style="stop-color:#02281F"/>
			</linearGradient>
			<ellipse style="fill:url(#SVGID_00000158712235410985881660000009982951610933385123_);" cx="46.6" cy="23.8" rx="5" ry="5.1"/>
			
				<linearGradient id="SVGID_00000152255154949294400190000005893493169241169841_" gradientUnits="userSpaceOnUse" x1="35.1925" y1="52.6947" x2="57.9607" y2="52.6947">
				<stop  offset="1.552812e-03" style="stop-color:#036544"/>
				<stop  offset="1" style="stop-color:#02281F"/>
			</linearGradient>
			<path style="fill:url(#SVGID_00000152255154949294400190000005893493169241169841_);" d="M56.1,35.3c0-2-1.6-3.7-3.6-3.7H40.7
				c-2,0-3.6,1.6-3.6,3.7l-1.8,17c0,0.9,0.7,1.6,1.6,1.6h0.5c0.9,0,1.6-0.7,1.6-1.6l1.8-10.9H41l-2.5,16.5c-0.1,0.6,0.4,1.2,1.1,1.2
				h1l3.6,14.2c0.1,0.2,0.3,0.4,0.5,0.4l1,0c0.3,0,0.6-0.2,0.6-0.5l0.2-14h0.4l0.2,14c0,0.3,0.2,0.5,0.5,0.5h1
				c0.3,0,0.5-0.2,0.5-0.4l3.6-14.2h1c0.7,0,1.2-0.6,1.1-1.2l-2.6-16.5h0.3l1.8,10.9c0,0.9,0.7,1.6,1.6,1.6h0.5
				c0.9,0,1.6-0.7,1.6-1.6L56.1,35.3z"/>
		</g>
	</g>
</g>
<g id="benefits" class="st0">
	<circle class="st3" cx="45.6" cy="45.6" r="45.6"/>
	<path class="st1" d="M44.9,76c-2.2-0.3-3.8-0.4-5.2-0.4c-4.2,0-6.8,1.1-10.8,4.3c-0.4,0.3-0.9,0.5-1.4,0.5c-0.6,0-1.1-0.2-1.6-0.6
		L15,68.9c-0.8-0.8-0.9-2.2-0.1-3c0,0,2-2.1,3.4-3.7c1.1-1.8,5.4-7.9,13.9-9.8h-8.4c-1.2,0-2.2-1-2.2-2.2V39.4c0,0,0,0,0,0
		c0,0,0,0,0,0c0-9.9,5.5-10.9,9.1-11.5c0.2,0,0.4-0.1,0.6-0.1c-1.8-2.1-3.3-6.9-1.7-10.5c0.6-1.5,2.3-4,6.6-4c4.3,0,6,2.5,6.6,4
		c1.5,3.6,0.1,8.4-1.7,10.5c0.2,0,0.4,0.1,0.6,0.1c0.4,0.1,0.8,0.1,1.3,0.2c0.9-0.6,1.8-1,2.7-1.2V0C20.4,0,0,20.4,0,45.6
		s20.4,45.6,45.6,45.6V76C45.4,76,45.1,76,44.9,76z"/>
	<g class="st5">
		
			<linearGradient id="SVGID_00000098929654552016963370000004491376761005472172_" gradientUnits="userSpaceOnUse" x1="23.27" y1="31.0701" x2="69.0762" y2="31.0701">
			<stop  offset="1.552812e-03" style="stop-color:#036544"/>
			<stop  offset="1" style="stop-color:#02281F"/>
		</linearGradient>
		<path style="fill:url(#SVGID_00000098929654552016963370000004491376761005472172_);" d="M38.9,50.6h0.5v-0.5v-0.2
			c0-0.9,0.4-2.2,0.9-2.9c0.1-0.1,1.9-2.6,6.4-2.6s6.4,2.5,6.4,2.6c0.5,0.7,0.9,2.1,0.9,2.9v0.2v0.5h0.5h14h0.5v-0.5V39.4
			c0-9.9-5.2-10.9-9.4-11.7l-0.4-0.1c-0.9-0.3-1.5-0.7-1.6-1.2c-0.1-0.4,0-0.9,0.3-1.5c0.1-0.1,0.1-0.1,0.2-0.2
			c1.7-1.7,3.3-6.5,1.8-9.9c-0.6-1.5-2.1-3.3-5.6-3.3c-3.5,0-5,1.8-5.6,3.3c-1.4,3.4,0.2,8.2,1.8,9.9c0.1,0.1,0.1,0.1,0.2,0.2
			c0.4,0.6,0.5,1.1,0.3,1.5c-0.2,0.5-0.7,0.9-1.7,1.3l0,0l-0.3,0.1c-2,0.4-4.2,0.8-6,2.2c-0.6-0.2-1.3-0.3-1.9-0.4
			c-0.3,0-0.6-0.1-0.8-0.2c-0.6-0.2-1.2-0.5-1.4-1.1c-0.1-0.4,0-0.8,0.3-1.3c0.1-0.1,0.1-0.1,0.2-0.2c1.5-1.5,2.9-5.9,1.6-8.9
			c-0.6-1.3-1.9-3-5-3c-3.1,0-4.5,1.6-5,3c-1.3,3,0.1,7.4,1.6,8.9c0.1,0.1,0.1,0.1,0.2,0.2c0.3,0.5,0.4,0.9,0.3,1.3
			c-0.2,0.5-0.9,0.9-1.5,1.1c-0.3,0.1-0.5,0.1-0.8,0.1c-3.6,0.6-7.7,1.4-7.7,9.8v0l0,0l0,0v10.7v0.5h0.5H38.9z M42.5,37.1
			c0-2.4,1.9-4.3,4.3-4.3s4.3,1.9,4.3,4.3c0,2.4-1.9,4.3-4.3,4.3S42.5,39.5,42.5,37.1z"/>
		
			<linearGradient id="SVGID_00000069360215535017053490000016230315917603350920_" gradientUnits="userSpaceOnUse" x1="15.8206" y1="65.5231" x2="74.3605" y2="65.5231">
			<stop  offset="1.552812e-03" style="stop-color:#036544"/>
			<stop  offset="1" style="stop-color:#02281F"/>
		</linearGradient>
		<path style="fill:url(#SVGID_00000069360215535017053490000016230315917603350920_);" d="M74.3,55.5c0-0.1-0.9-2.4-3.4-2.4
			c-1.2,0-2.6,0.6-4,1.6l-0.2,0.2c-3.3,2.4-10.1,7.4-16.8,7.6c-0.1,0-0.1,0-0.2,0c-0.5,0-1.1-0.1-1.2-0.5c-0.3-0.9,1-3,2.8-4.5
			c1.3-1.1,1.8-2.6,1.4-3.8c-0.4-1-1.4-1.6-2.7-1.6c-0.4,0-0.8,0-1.2,0.1l-0.6,0.1c-2.1,0.5-2.6,0.6-5.9,0.7
			c-1.5,0.1-2.4,0.1-3.3,0.2c-0.7,0.1-1.5,0.1-2.4,0.2c-10.8,0.5-15.8,8-16.8,9.7c-1.4,1.5-3.5,3.8-3.5,3.8l-0.3,0.4l0.3,0.3
			l10.9,10.9l0.3,0.3l0.4-0.3c4.3-3.5,7.3-4.7,11.9-4.7c1.5,0,3.2,0.1,5.4,0.4c0.4,0,0.7,0.1,1.1,0.1c5.4,0,12-4,15.4-6.4
			c5.3-3.7,10.1-8.2,12.6-11.9l0.1-0.2L74.3,55.5z"/>
	</g>
</g>
</svg>
