<?xml version="1.0" encoding="utf-8"?>
<!-- Generator: Adobe Illustrator 26.3.1, SVG Export Plug-In . SVG Version: 6.00 Build 0)  -->
<svg version="1.1" xmlns="http://www.w3.org/2000/svg" xmlns:xlink="http://www.w3.org/1999/xlink" x="0px" y="0px"
	 viewBox="0 0 91.3 91.3" style="enable-background:new 0 0 91.3 91.3;" xml:space="preserve">
<style type="text/css">
	.st0{display:none;}
	.st1{display:inline;fill:#43B868;}
	.st2{display:inline;fill:url(#SVGID_1_);}
	.st3{display:inline;fill:none;}
	.st4{display:inline;fill:url(#SVGID_00000128454128147132587520000009543223087907548042_);}
	.st5{display:inline;}
	.st6{fill:#FFFFFF;}
	
		.st7{display:inline;fill:#FFFFFF;stroke:#FFFFFF;stroke-width:3;stroke-linecap:round;stroke-linejoin:round;stroke-miterlimit:10;}
	.st8{fill:#424242;}
	.st9{fill:#43B868;}
	.st10{fill:url(#SVGID_00000098184047630516190520000017171466870061964191_);}
	.st11{fill:none;}
	.st12{fill:url(#SVGID_00000054963685770264178690000000069271026074387599_);}
	.st13{fill:url(#SVGID_00000148632151190309870010000008747650685992441735_);}
	.st14{fill:url(#SVGID_00000038371954119109958220000008730964116927796140_);}
	.st15{fill:url(#SVGID_00000129169151450667084840000013251347735198954416_);}
	.st16{fill:url(#SVGID_00000109002784139949631580000010219434586651973771_);}
	.st17{fill:url(#SVGID_00000053535239008874922210000010152590746925073834_);}
	.st18{fill:url(#SVGID_00000096760516173662417790000003871802378925130388_);}
	.st19{fill:url(#SVGID_00000128465933620737842530000005325067859110021017_);}
	.st20{fill:url(#SVGID_00000133510422251155827980000013870657867218312103_);}
	.st21{fill:url(#SVGID_00000081615846119431569120000006341004161166745789_);}
	.st22{fill:url(#SVGID_00000114752385882995124840000007039057229568766341_);}
	.st23{fill:url(#SVGID_00000100357871504339755170000016724881553173813175_);}
	.st24{fill:url(#SVGID_00000152955792042625782310000007139244492857322130_);}
	.st25{display:inline;fill:url(#SVGID_00000045618509545376010730000010500354726644828567_);}
	.st26{display:inline;fill:#FFFFFF;}
	.st27{fill:url(#SVGID_00000108306989595439115520000011082203857346264230_);}
	.st28{fill:url(#SVGID_00000057827170932792738680000007908084246516337806_);}
	.st29{display:inline;fill:url(#SVGID_00000084512698575125982620000005820897698076277649_);}
	.st30{fill:url(#SVGID_00000163757225006419423680000014129427249240603297_);}
	.st31{fill:url(#SVGID_00000157289689208373443770000005160734941867387837_);}
	.st32{fill:url(#SVGID_00000181794195733467528780000012951672518695081134_);}
	.st33{fill:url(#SVGID_00000008118244767993385110000014465650612871586963_);}
	.st34{fill:url(#SVGID_00000156558836215768561810000009495400925628568729_);}
	.st35{display:inline;fill:url(#SVGID_00000165928074073999200640000014129023097741938817_);}
	.st36{fill:url(#SVGID_00000173151503002913083500000010943085689087555725_);}
	.st37{fill:url(#SVGID_00000088094182087087056210000005845375324431274644_);}
	.st38{display:inline;fill:url(#SVGID_00000052812889902022733800000016494278813549526159_);}
	.st39{fill:url(#SVGID_00000145024943935578522610000018187315334606577316_);}
	.st40{fill:url(#SVGID_00000111900052513982571860000013680469111760035200_);}
	.st41{display:inline;fill:url(#SVGID_00000102523138215168143260000009971403379560159405_);}
	.st42{display:inline;fill:#FFFFFF;stroke:#FFFFFF;stroke-width:5;stroke-miterlimit:10;}
	.st43{display:inline;fill:url(#SVGID_00000008829132662777114090000009967624589488431005_);}
	.st44{display:inline;fill:url(#SVGID_00000047770604069313097640000008235173812798122898_);}
	.st45{display:inline;fill:url(#SVGID_00000159447680988481729510000008490661819801235645_);}
	.st46{display:inline;fill:url(#SVGID_00000046316271131765534250000010456487122505665462_);}
	.st47{fill:#606161;}
	.st48{fill:url(#SVGID_00000169518071444665893520000016862078602126118572_);}
	.st49{fill:url(#SVGID_00000123438545332338850880000006002778373754160544_);}
	.st50{fill:url(#SVGID_00000021823344142332492440000003324286939010076844_);}
	.st51{fill:url(#SVGID_00000163065147757830091960000016154866458736385675_);}
	.st52{fill:url(#SVGID_00000095308648952275765300000002815519761842719661_);}
	.st53{fill:url(#SVGID_00000167370488352830832870000011958941762142465693_);}
	.st54{fill:url(#SVGID_00000008869048232492198760000000889524682436578491_);}
	.st55{fill:url(#SVGID_00000000186156425127153240000001383853741978451637_);}
	.st56{fill:url(#SVGID_00000111878339540186228700000001466336921034847671_);}
	.st57{fill:url(#SVGID_00000080899025428487550770000005516247520952616853_);}
	.st58{fill:url(#SVGID_00000172429650517075135120000002663472632200390065_);}
	.st59{fill:url(#SVGID_00000071524244487932285550000002459949166670348963_);}
	.st60{fill:url(#SVGID_00000054974715192154371810000004576137969123082651_);}
	.st61{fill:url(#SVGID_00000002366986067030431550000003902276501578299546_);}
</style>
<g id="Layer_1" class="st0">
	<path class="st1" d="M35.8,72.7c0-2.8,1.2-5.4,3.2-7.2H20.3c-1.8,0-3.3-1.5-3.3-3.3V26c0-1.8,1.5-3.3,3.3-3.3h25.4V0
		C20.4,0,0,20.4,0,45.6s20.4,45.6,45.6,45.6V74h-9.8V72.7z"/>
	<linearGradient id="SVGID_1_" gradientUnits="userSpaceOnUse" x1="31.1067" y1="18.9938" x2="60.1414" y2="69.2834">
		<stop  offset="1.552812e-03" style="stop-color:#036544"/>
		<stop  offset="1" style="stop-color:#02281F"/>
	</linearGradient>
	<path class="st2" d="M71.7,26v36.2c0,0.4-0.3,0.7-0.7,0.7H45.6H20.3c-0.4,0-0.7-0.3-0.7-0.7V26c0-0.4,0.3-0.7,0.7-0.7h25.4H71
		C71.4,25.4,71.7,25.7,71.7,26z M45.6,65.5c-3.5,0-6.5,2.5-7.1,5.9h7.1h7.1C52.1,68.1,49.1,65.5,45.6,65.5z"/>
	<circle class="st3" cx="45.6" cy="45.6" r="45.6"/>
</g>
<g id="Layer_1_copy" class="st0">
	<path class="st1" d="M45.6,0C20.4,0,0,20.4,0,45.6s20.4,45.6,45.6,45.6V0z"/>
	
		<linearGradient id="SVGID_00000036211472090091551390000004240345351754677936_" gradientUnits="userSpaceOnUse" x1="103.1067" y1="-77.0062" x2="132.1414" y2="-26.7166">
		<stop  offset="1.552812e-03" style="stop-color:#036544"/>
		<stop  offset="1" style="stop-color:#02281F"/>
	</linearGradient>
	<path style="display:inline;fill:url(#SVGID_00000036211472090091551390000004240345351754677936_);" d="M143.7-70v36.2
		c0,0.4-0.3,0.7-0.7,0.7h-25.4H92.3c-0.4,0-0.7-0.3-0.7-0.7V-70c0-0.4,0.3-0.7,0.7-0.7h25.4H143C143.4-70.6,143.7-70.3,143.7-70z
		 M117.6-30.5c-3.5,0-6.5,2.5-7.1,5.9h7.1h7.1C124.1-27.9,121.1-30.5,117.6-30.5z"/>
	<circle class="st3" cx="45.6" cy="45.6" r="45.6"/>
	<g class="st5">
		<g>
			<path class="st6" d="M53.6,51.6c-0.8,0-1.5-0.7-1.5-1.5v-0.2c0-0.7-0.4-1.8-0.7-2.3c-0.1-0.1-1.7-2.2-5.6-2.2
				c-4,0-5.6,2.1-5.6,2.2c-0.4,0.5-0.7,1.7-0.7,2.3v0.2c0,0.8-0.7,1.5-1.5,1.5H22.8c-0.8,0-1.5-0.7-1.5-1.5c0,0,0-10.8,0-10.8
				c0-9.3,4.9-10.2,8.6-10.8c0.2,0,0.5-0.1,0.7-0.1c0.6-0.2,0.8-0.4,0.8-0.4c0,0,0-0.1-0.1-0.3c0,0-0.1-0.1-0.1-0.1
				c-1.7-1.8-3.3-6.5-1.8-10c1-2.3,3.1-3.6,6-3.6c2.9,0,5,1.3,6,3.6c1.5,3.5-0.1,8.2-1.8,10c0,0-0.1,0.1-0.1,0.1
				c-0.1,0.2-0.1,0.3-0.1,0.3l0,0c0,0,0.1,0.2,0.7,0.4c0.3,0,0.5,0.1,0.8,0.1c0.5,0.1,1,0.2,1.5,0.3c1.9-1.3,4.1-1.7,6-2.1l0.2,0
				c0.7-0.3,1-0.5,1-0.6c0,0,0-0.2-0.2-0.5c-0.1-0.1-0.1-0.1-0.2-0.1c-1.9-1.9-3.6-7.2-2-11c1.1-2.5,3.4-3.9,6.5-3.9
				s5.5,1.4,6.5,3.9c1.6,3.8-0.1,9.1-2,11c-0.1,0.1-0.1,0.1-0.2,0.1c-0.2,0.4-0.2,0.5-0.2,0.5c0,0.1,0.3,0.3,0.9,0.6l0.3,0.1
				c4.3,0.8,10.3,1.9,10.3,12.7v10.7c0,0.8-0.7,1.5-1.5,1.5H53.6z M45.8,33.7c-1.8,0-3.3,1.5-3.3,3.3c0,1.8,1.5,3.3,3.3,3.3
				c1.8,0,3.3-1.5,3.3-3.3C49.2,35.2,47.7,33.7,45.8,33.7z"/>
			<path class="st6" d="M53.4,12c8,0,5.9,9.8,3.4,12.4c-0.1,0.1-0.2,0.2-0.2,0.2c-0.4,0.7-1.4,2.5,1.6,3.5c4.3,0.8,9.4,1.5,9.4,11.3
				h0v10.7h-14v-0.2c0-1-0.5-2.4-1-3.2c0,0-2-2.8-6.8-2.8c-4.9,0-6.8,2.8-6.8,2.8c-0.6,0.8-1,2.2-1,3.2v0.2H22.8V39.4h0
				c0,0,0,0,0-0.1c0-8.7,4.4-8.8,8.2-9.5l0,0c2.7-0.9,1.8-2.6,1.4-3.2c-0.1-0.1-0.1-0.1-0.2-0.2c-2.2-2.3-4.1-11,3-11
				c7.1,0,5.3,8.7,3,11c-0.1,0.1-0.1,0.1-0.2,0.2c-0.4,0.6-1.2,2.2,1.4,3.2c1,0.2,2,0.3,3,0.6c1.8-1.5,4.2-1.9,6.3-2.3l0,0
				c3-1,2-2.9,1.6-3.6c-0.1-0.1-0.2-0.1-0.2-0.2C47.5,21.8,45.5,12,53.4,12 M45.8,41.9c2.7,0,4.8-2.2,4.8-4.8c0-2.7-2.2-4.8-4.8-4.8
				c-2.7,0-4.8,2.2-4.8,4.8C41,39.8,43.1,41.9,45.8,41.9 M53.4,9c-5.1,0-7.1,3-7.9,4.8c-1.6,3.9-0.3,8.9,1.5,11.6
				c-1.7,0.3-3.6,0.8-5.3,1.8c-0.1,0-0.2,0-0.3-0.1c1.6-2.7,2.4-7.1,1.1-10.2c-1.2-2.9-3.9-4.5-7.3-4.5c-3.5,0-6.1,1.6-7.3,4.5
				c-1.3,3.1-0.6,7.5,1.1,10.2c-3.7,0.7-9.2,2.2-9.2,12.2c0,0,0,0,0,0c0,0,0,0,0,0v10.7c0,1.7,1.3,3,3,3h15.1c1.7,0,3-1.3,3-3v-0.2
				c0-0.3,0.2-1.1,0.4-1.4c0.2-0.2,1.5-1.6,4.4-1.6c2.9,0,4.2,1.3,4.4,1.6c0.2,0.3,0.4,1.1,0.4,1.4v0.2c0,1.7,1.3,3,3,3h14
				c1.7,0,3-1.3,3-3V39.4c0-11.3-6.4-13.2-10.7-14c1.8-2.8,3.1-7.7,1.5-11.6C60.6,12,58.6,9,53.4,9L53.4,9z M58.7,25.1L58.7,25.1
				L58.7,25.1L58.7,25.1z M45.8,38.9c-1,0-1.8-0.8-1.8-1.8c0-1,0.8-1.8,1.8-1.8c1,0,1.8,0.8,1.8,1.8C47.7,38.1,46.8,38.9,45.8,38.9
				L45.8,38.9z"/>
		</g>
		<g>
			<path class="st6" d="M26.4,79.7c-0.4,0-0.8-0.1-1.1-0.4L14.5,68.4c-0.6-0.6-0.6-1.5,0-2.1l3.4-3.7c1.2-1.9,6.5-9.6,17.6-10.1
				c1,0,1.7-0.1,2.4-0.2c0.9-0.1,1.8-0.1,3.3-0.2c3.2-0.1,3.6-0.2,5.7-0.7l0.6-0.1c0.5-0.1,1-0.2,1.4-0.2c1.7,0,3.1,0.8,3.6,2.2
				c0.6,1.6-0.1,3.5-1.7,4.9c-1.4,1.2-2.3,2.6-2.5,3.2c0.1,0,0.1,0,0.2,0l0.1,0c6.5-0.2,13.1-5.1,16.3-7.4l0.2-0.2
				c1.7-1.2,3.2-1.8,4.6-1.8c2.5,0,3.9,1.9,4.4,3c0.2,0.5,0.1,1-0.2,1.4c-5,7.4-19.7,18.8-28.9,18.8c0,0,0,0,0,0
				c-0.4,0-0.8,0-1.2-0.1c-2.2-0.3-3.9-0.4-5.3-0.4c-4.4,0-7.1,1.1-11.3,4.5C27.1,79.6,26.8,79.7,26.4,79.7z"/>
			<path class="st6" d="M48.9,52.6c2.6,0,3.1,2.7,0.9,4.5c-2.4,2-4.7,5.9-1.2,5.9c0.1,0,0.1,0,0.2,0c7.1-0.3,14.1-5.5,17.4-7.9
				c1.6-1.1,2.8-1.5,3.8-1.5c2.2,0,3,2.1,3,2.1C67.9,63,53.7,73.8,45.2,73.8c-0.4,0-0.7,0-1-0.1c-2.1-0.2-3.9-0.4-5.5-0.4
				c-4.8,0-7.9,1.3-12.2,4.8L15.5,67.3c0,0,2.1-2.3,3.5-3.8c1-1.6,5.8-9,16.4-9.5c2.1-0.1,3-0.2,5.7-0.4c3.6-0.1,3.9-0.3,6.6-0.9
				C48.2,52.7,48.5,52.6,48.9,52.6 M48.9,49.6C48.9,49.6,48.9,49.6,48.9,49.6c-0.6,0-1.1,0.1-1.7,0.2L46.5,50
				c-2.1,0.5-2.4,0.5-5.4,0.7c-1.5,0.1-2.5,0.1-3.4,0.2C37,50.9,36.3,51,35.3,51C23.7,51.5,18,59.4,16.6,61.7
				c-1.4,1.5-3.3,3.6-3.3,3.6c-1.1,1.2-1,3,0.1,4.2l10.9,10.9c0.6,0.6,1.4,0.9,2.1,0.9c0.7,0,1.3-0.2,1.9-0.7
				c3.9-3.2,6.3-4.2,10.3-4.2c1.4,0,3,0.1,5.1,0.4c0.4,0.1,0.9,0.1,1.4,0.1c9.8,0,24.8-11.6,30.1-19.5c0.5-0.8,0.7-1.8,0.3-2.7
				c-0.6-1.5-2.4-4-5.8-4c-1.7,0-3.6,0.7-5.5,2.1l-0.2,0.2c-2.6,1.9-7.5,5.5-12.6,6.7c0.1-0.1,0.1-0.1,0.2-0.2
				c2.1-1.8,2.9-4.4,2.1-6.6C53.1,50.9,51.2,49.6,48.9,49.6L48.9,49.6z"/>
		</g>
	</g>
	<rect x="38.3" y="32.3" class="st7" width="18" height="23"/>
	<g class="st5">
		<g>
			<path class="st8" d="M109.9,49.9c0-1,0.5-2.4,1-3.2c0,0,2-2.8,6.8-2.8c4.9,0,6.8,2.8,6.8,2.8c0.6,0.8,1,2.2,1,3.2v0.2h14V39.4h0
				c0-9.8-5.1-10.5-9.4-11.3c-2.9-1-2-2.9-1.6-3.5c0.1-0.1,0.2-0.1,0.2-0.2c2.5-2.5,4.6-12.4-3.4-12.4c-8,0-5.9,9.8-3.4,12.4
				c0.1,0.1,0.2,0.2,0.2,0.2c0.4,0.7,1.4,2.5-1.6,3.6l0,0c-2.2,0.4-4.5,0.8-6.3,2.3c-1-0.3-2-0.4-3-0.6c-2.6-0.9-1.8-2.6-1.4-3.2
				c0.1-0.1,0.1-0.1,0.2-0.2c2.2-2.3,4.1-11-3-11c-7.1,0-5.3,8.7-3,11c0.1,0.1,0.1,0.1,0.2,0.2c0.4,0.6,1.3,2.3-1.4,3.2l0,0
				c-3.8,0.7-8.2,0.8-8.2,9.5c0,0,0,0,0,0.1h0v10.7h15.1V49.9z M117.8,32.2c2.7,0,4.8,2.2,4.8,4.8c0,2.7-2.2,4.8-4.8,4.8
				c-2.7,0-4.8-2.2-4.8-4.8C113,34.4,115.1,32.2,117.8,32.2z"/>
		</g>
		<g>
			<path class="st8" d="M138.1,55.2c-3.2,2.4-10.3,7.6-17.4,7.9c-3.8,0.1-1.4-3.8,1.1-5.9c2.4-2.1,1.6-5.2-2-4.4
				c-2.7,0.6-3,0.7-6.6,0.9c-2.7,0.1-3.6,0.3-5.7,0.4C96.9,54.4,92,61.8,91,63.5c-1.4,1.6-3.5,3.8-3.5,3.8l10.9,10.9
				c5.8-4.8,9.4-5.4,17.7-4.5c8.3,1,23.5-10.5,28.7-18.1C144.8,55.7,143.2,51.4,138.1,55.2z"/>
		</g>
	</g>
</g>
<g id="timeoff">
	<path class="st9" d="M45.6,0C20.4,0,0,20.4,0,45.6s20.4,45.6,45.6,45.6V0z"/>
	
		<linearGradient id="SVGID_00000022562015878720808450000016456861449080573622_" gradientUnits="userSpaceOnUse" x1="103.1067" y1="-77.0062" x2="132.1414" y2="-26.7166">
		<stop  offset="1.552812e-03" style="stop-color:#036544"/>
		<stop  offset="1" style="stop-color:#02281F"/>
	</linearGradient>
	<path style="fill:url(#SVGID_00000022562015878720808450000016456861449080573622_);" d="M143.7-70v36.2c0,0.4-0.3,0.7-0.7,0.7
		h-25.4H92.3c-0.4,0-0.7-0.3-0.7-0.7V-70c0-0.4,0.3-0.7,0.7-0.7h25.4H143C143.4-70.6,143.7-70.3,143.7-70z M117.6-30.5
		c-3.5,0-6.5,2.5-7.1,5.9h7.1h7.1C124.1-27.9,121.1-30.5,117.6-30.5z"/>
	<circle class="st11" cx="45.6" cy="45.6" r="45.6"/>
	<g>
		<path class="st6" d="M52.6,28.3h1.5l-1.1,1.1C52.4,30.1,52,31,52,32c0,1,0.4,1.9,1.1,2.6c0.7,0.7,1.6,1.1,2.6,1.1
			c1,0,1.9-0.4,2.6-1.1l1.1-1.1V35c0,2,1.6,3.7,3.7,3.7s3.7-1.6,3.7-3.7v-1.5l1.1,1.1c0.7,0.7,1.6,1.1,2.6,1.1c1,0,1.9-0.4,2.6-1.1
			c1.4-1.4,1.4-3.7,0-5.2l-1.1-1.1h1.5c2,0,3.7-1.6,3.7-3.7S75.4,21,73.3,21h-1.5l1.1-1.1c1.4-1.4,1.4-3.7,0-5.2
			c-0.7-0.7-1.6-1.1-2.6-1.1c-1,0-1.9,0.4-2.6,1.1l-1.1,1.1v-1.5c0-2-1.6-3.7-3.7-3.7s-3.7,1.6-3.7,3.7v1.5l-1.1-1.1
			c-0.7-0.7-1.6-1.1-2.6-1.1c-1,0-1.9,0.4-2.6,1.1c-0.7,0.7-1.1,1.6-1.1,2.6c0,1,0.4,1.9,1.1,2.6l1.1,1.1h-1.5c-2,0-3.7,1.6-3.7,3.7
			S50.6,28.3,52.6,28.3z"/>
		<path class="st6" d="M81.6,57.1L77,52.7c-1.3-1.2-2.9-1.9-4.6-2l-5.1-0.2l-0.7-1.2l-1.8-3c-1.2-2.1-3.5-3.5-6-3.5
			c-2.1,0-4.1,1-5.4,2.5l-2.5,3l-0.3,0.4l-13.2-6.9c-1.3-0.7-2.7-1.1-4.2-1.1c0.1-0.4,0.1-0.8,0.1-1.2c0-4.6-3.7-8.3-8.3-8.3
			c-3.9,0-7.2,2.8-8.1,6.5c-0.7,0-1.4,0.3-2,0.7l-3.7,2.8c-0.8,0.6-1.3,1.4-1.4,2.4c-0.1,1,0.1,1.9,0.7,2.7l13.6,18.2
			c0.1,0.2,0.3,0.4,0.5,0.6l0.2,0.2c0.1,0.1,0.1,0.1,0.2,0.2l-1.4,5.4c-0.3,1.1,0,2.2,0.7,3.1c0.7,0.9,1.7,1.4,2.9,1.4h4.6
			c1.7,0,3.1-1.1,3.5-2.8l1.6-6.4h24.2l1.6,6.4c0.4,1.6,1.9,2.8,3.5,2.8H71c1.1,0,2.2-0.5,2.9-1.4c0.7-0.9,0.9-2,0.7-3.1l-1.2-4.7
			h2.2c2,0,3.7-1.6,3.7-3.7V58c0-0.3-0.1-0.6-0.1-1H81.6z"/>
	</g>
	<g>
		
			<linearGradient id="SVGID_00000083793538715893944960000008618153263540751516_" gradientUnits="userSpaceOnUse" x1="19.2607" y1="39.6024" x2="30.7687" y2="39.6024">
			<stop  offset="1.552812e-03" style="stop-color:#036544"/>
			<stop  offset="1" style="stop-color:#02281F"/>
		</linearGradient>
		<circle style="fill:url(#SVGID_00000083793538715893944960000008618153263540751516_);" cx="25" cy="39.6" r="5.8"/>
		
			<linearGradient id="SVGID_00000085947720451569921590000004635092424496034193_" gradientUnits="userSpaceOnUse" x1="12.3555" y1="56.638" x2="76.801" y2="56.638">
			<stop  offset="1.552812e-03" style="stop-color:#036544"/>
			<stop  offset="1" style="stop-color:#02281F"/>
		</linearGradient>
		<path style="fill:url(#SVGID_00000085947720451569921590000004635092424496034193_);" d="M75.7,56.9H30.1l-12-16.1
			c-0.4-0.5-1.1-0.6-1.6-0.2l-3.7,2.8c-0.2,0.2-0.4,0.5-0.5,0.8c0,0.3,0,0.6,0.2,0.9l13.6,18.3c0,0.1,0.1,0.1,0.2,0.2l0.2,0.2
			c0.2,0.2,0.5,0.3,0.8,0.3h0.8l-1.9,7.8c-0.1,0.3,0,0.7,0.2,1c0.2,0.3,0.6,0.4,0.9,0.4h4.6c0.5,0,1-0.4,1.1-0.9l2.1-8.3h28.1
			l2.1,8.3c0.1,0.5,0.6,0.9,1.1,0.9H71c0.4,0,0.7-0.2,0.9-0.4c0.2-0.3,0.3-0.6,0.2-1l-1.9-7.8h5.4c0.6,0,1.2-0.5,1.2-1.2V58
			C76.8,57.4,76.3,56.9,75.7,56.9z"/>
		
			<linearGradient id="SVGID_00000006690475771379624560000005886063912534858384_" gradientUnits="userSpaceOnUse" x1="58.3881" y1="24.6419" x2="67.5946" y2="24.6419">
			<stop  offset="1.552812e-03" style="stop-color:#036544"/>
			<stop  offset="1" style="stop-color:#02281F"/>
		</linearGradient>
		<circle style="fill:url(#SVGID_00000006690475771379624560000005886063912534858384_);" cx="63" cy="24.6" r="4.6"/>
		
			<linearGradient id="SVGID_00000072967463509725195640000007341817747810954154_" gradientUnits="userSpaceOnUse" x1="61.8405" y1="15.4354" x2="64.1422" y2="15.4354">
			<stop  offset="1.552812e-03" style="stop-color:#036544"/>
			<stop  offset="1" style="stop-color:#02281F"/>
		</linearGradient>
		<path style="fill:url(#SVGID_00000072967463509725195640000007341817747810954154_);" d="M63,17.7c0.6,0,1.2-0.5,1.2-1.2v-2.3
			c0-0.6-0.5-1.2-1.2-1.2c-0.6,0-1.2,0.5-1.2,1.2v2.3C61.8,17.2,62.4,17.7,63,17.7z"/>
		
			<linearGradient id="SVGID_00000122702005123235513230000014314867847480260520_" gradientUnits="userSpaceOnUse" x1="54.5175" y1="18.1315" x2="58.4465" y2="18.1315">
			<stop  offset="1.552812e-03" style="stop-color:#036544"/>
			<stop  offset="1" style="stop-color:#02281F"/>
		</linearGradient>
		<path style="fill:url(#SVGID_00000122702005123235513230000014314867847480260520_);" d="M56.5,19.8c0.2,0.2,0.5,0.3,0.8,0.3
			s0.6-0.1,0.8-0.3c0.4-0.4,0.4-1.2,0-1.6l-1.6-1.6c-0.4-0.4-1.2-0.4-1.6,0c-0.4,0.4-0.4,1.2,0,1.6L56.5,19.8z"/>
		
			<linearGradient id="SVGID_00000140724129325921074140000011197553045758803130_" gradientUnits="userSpaceOnUse" x1="51.4833" y1="24.6419" x2="56.0865" y2="24.6419">
			<stop  offset="1.552812e-03" style="stop-color:#036544"/>
			<stop  offset="1" style="stop-color:#02281F"/>
		</linearGradient>
		<path style="fill:url(#SVGID_00000140724129325921074140000011197553045758803130_);" d="M52.6,25.8h2.3c0.6,0,1.2-0.5,1.2-1.2
			s-0.5-1.2-1.2-1.2h-2.3c-0.6,0-1.2,0.5-1.2,1.2S52,25.8,52.6,25.8z"/>
		
			<linearGradient id="SVGID_00000114064212419343075400000009573851523683379096_" gradientUnits="userSpaceOnUse" x1="54.5175" y1="31.1523" x2="58.4465" y2="31.1523">
			<stop  offset="1.552812e-03" style="stop-color:#036544"/>
			<stop  offset="1" style="stop-color:#02281F"/>
		</linearGradient>
		<path style="fill:url(#SVGID_00000114064212419343075400000009573851523683379096_);" d="M56.5,32.8l1.6-1.6
			c0.4-0.4,0.4-1.2,0-1.6c-0.4-0.4-1.2-0.4-1.6,0l-1.6,1.6c-0.4,0.4-0.4,1.2,0,1.6c0.2,0.2,0.5,0.3,0.8,0.3
			C56,33.1,56.3,33,56.5,32.8z"/>
		
			<linearGradient id="SVGID_00000065765510295815536370000001817943835118232744_" gradientUnits="userSpaceOnUse" x1="61.8405" y1="33.8484" x2="64.1422" y2="33.8484">
			<stop  offset="1.552812e-03" style="stop-color:#036544"/>
			<stop  offset="1" style="stop-color:#02281F"/>
		</linearGradient>
		<path style="fill:url(#SVGID_00000065765510295815536370000001817943835118232744_);" d="M63,36.1c0.6,0,1.2-0.5,1.2-1.2v-2.3
			c0-0.6-0.5-1.2-1.2-1.2c-0.6,0-1.2,0.5-1.2,1.2V35C61.8,35.6,62.4,36.1,63,36.1z"/>
		
			<linearGradient id="SVGID_00000042713857065527975980000002854928412650511236_" gradientUnits="userSpaceOnUse" x1="67.5362" y1="31.1523" x2="71.4651" y2="31.1523">
			<stop  offset="1.552812e-03" style="stop-color:#036544"/>
			<stop  offset="1" style="stop-color:#02281F"/>
		</linearGradient>
		<path style="fill:url(#SVGID_00000042713857065527975980000002854928412650511236_);" d="M67.9,29.5c-0.4,0.4-0.4,1.2,0,1.6
			l1.6,1.6c0.2,0.2,0.5,0.3,0.8,0.3c0.3,0,0.6-0.1,0.8-0.3c0.4-0.4,0.4-1.2,0-1.6l-1.6-1.6C69.1,29.1,68.3,29.1,67.9,29.5z"/>
		
			<linearGradient id="SVGID_00000086668963978686101040000011798131006289273790_" gradientUnits="userSpaceOnUse" x1="69.8962" y1="24.6419" x2="74.4994" y2="24.6419">
			<stop  offset="1.552812e-03" style="stop-color:#036544"/>
			<stop  offset="1" style="stop-color:#02281F"/>
		</linearGradient>
		<path style="fill:url(#SVGID_00000086668963978686101040000011798131006289273790_);" d="M69.9,24.6c0,0.6,0.5,1.2,1.2,1.2h2.3
			c0.6,0,1.2-0.5,1.2-1.2s-0.5-1.2-1.2-1.2H71C70.4,23.5,69.9,24,69.9,24.6z"/>
		
			<linearGradient id="SVGID_00000002367410700072600660000016568416285753180049_" gradientUnits="userSpaceOnUse" x1="67.5362" y1="18.1315" x2="71.4651" y2="18.1315">
			<stop  offset="1.552812e-03" style="stop-color:#036544"/>
			<stop  offset="1" style="stop-color:#02281F"/>
		</linearGradient>
		<path style="fill:url(#SVGID_00000002367410700072600660000016568416285753180049_);" d="M68.7,20.1c0.3,0,0.6-0.1,0.8-0.3
			l1.6-1.6c0.4-0.4,0.4-1.2,0-1.6c-0.4-0.4-1.2-0.4-1.6,0l-1.6,1.6c-0.4,0.4-0.4,1.2,0,1.6C68.1,20,68.4,20.1,68.7,20.1z"/>
		
			<linearGradient id="SVGID_00000011017429845443236390000004607334663953005189_" gradientUnits="userSpaceOnUse" x1="27.0616" y1="48.9422" x2="75.3011" y2="48.9422">
			<stop  offset="1.552812e-03" style="stop-color:#036544"/>
			<stop  offset="1" style="stop-color:#02281F"/>
		</linearGradient>
		<path style="fill:url(#SVGID_00000011017429845443236390000004607334663953005189_);" d="M28.4,45.6c-1.5,1.8-1.8,4.4-0.7,6.5
			l1.2,2.4h7.2l-0.9-2.3l5,2.3h35.1c-0.8-0.8-1.9-1.3-3-1.3l-20.5-1l-15.6-8.2C33.5,42.6,30.3,43.3,28.4,45.6z"/>
		
			<linearGradient id="SVGID_00000026841675123864156600000012579865429612459961_" gradientUnits="userSpaceOnUse" x1="52.8253" y1="47.9655" x2="64.3861" y2="47.9655">
			<stop  offset="1.552812e-03" style="stop-color:#036544"/>
			<stop  offset="1" style="stop-color:#02281F"/>
		</linearGradient>
		<path style="fill:url(#SVGID_00000026841675123864156600000012579865429612459961_);" d="M64.4,50.6l-1.8-3
			c-0.8-1.4-2.2-2.2-3.8-2.2c-1.3,0-2.6,0.6-3.4,1.6l-2.5,3L64.4,50.6z"/>
	</g>
</g>
<g id="retirement" class="st0">
	<path class="st1" d="M45.6,0C20.4,0,0,20.4,0,45.6s20.4,45.6,45.6,45.6V0z"/>
	
		<linearGradient id="SVGID_00000061466523271998451440000002748488062660842380_" gradientUnits="userSpaceOnUse" x1="103.1067" y1="-77.0062" x2="132.1414" y2="-26.7166">
		<stop  offset="1.552812e-03" style="stop-color:#036544"/>
		<stop  offset="1" style="stop-color:#02281F"/>
	</linearGradient>
	<path style="display:inline;fill:url(#SVGID_00000061466523271998451440000002748488062660842380_);" d="M143.7-70v36.2
		c0,0.4-0.3,0.7-0.7,0.7h-25.4H92.3c-0.4,0-0.7-0.3-0.7-0.7V-70c0-0.4,0.3-0.7,0.7-0.7h25.4H143C143.4-70.6,143.7-70.3,143.7-70z
		 M117.6-30.5c-3.5,0-6.5,2.5-7.1,5.9h7.1h7.1C124.1-27.9,121.1-30.5,117.6-30.5z"/>
	<circle class="st3" cx="45.6" cy="45.6" r="45.6"/>
	<path class="st26" d="M73.8,45c-0.1,0-2.1-0.4-5-0.4c-2.8,0-6.4,0.3-9.9,1.7C62.1,43,64,38.6,64,33.8c0-9.9-8.1-18-18-18
		c-9.9,0-18,8.1-18,18c0,4.9,2,9.3,5.1,12.5c-3.6-1.3-7.2-1.7-9.9-1.7c-2.9,0-4.9,0.4-5,0.4l-1.9,0.4l0.3,2
		c0.1,0.5,2.1,11.4,10.3,17c4.8,3.3,10.5,4,14.5,4c0.1,0,0.2,0,0.2,0v8v2h2h4.8h2v-2v-8c0.1,0,0.2,0,0.2,0c4,0,9.7-0.7,14.5-4
		c8.2-5.7,10.2-16.6,10.3-17l0.3-2L73.8,45z M51.7,50.8c-2.7,2.7-4.5,5.9-5.7,8.6c-1.2-2.8-3-6-5.7-8.6c1.8,0.6,3.7,0.9,5.7,0.9
		C48,51.8,49.9,51.4,51.7,50.8z"/>
	<g class="st5">
		
			<linearGradient id="SVGID_00000042706169490145769480000004557116505603355778_" gradientUnits="userSpaceOnUse" x1="18.565" y1="61.5083" x2="73.4778" y2="61.5083">
			<stop  offset="1.552812e-03" style="stop-color:#036544"/>
			<stop  offset="1" style="stop-color:#02281F"/>
		</linearGradient>
		<path style="fill:url(#SVGID_00000042706169490145769480000004557116505603355778_);" d="M55.4,50.3C47.9,55.6,46,66,46,66l0,0
			c0,0-1.8-10.5-9.4-15.7C29,45,18.6,47,18.6,47s1.8,10.5,9.4,15.7c5.3,3.7,12.1,3.8,15.6,3.6v10.1h4.8V66.3
			c3.5,0.2,10.3,0.1,15.6-3.6c7.6-5.3,9.4-15.7,9.4-15.7S63,45,55.4,50.3z"/>
		
			<linearGradient id="SVGID_00000009590831885058038460000013103012449257125310_" gradientUnits="userSpaceOnUse" x1="30.0254" y1="33.7543" x2="62.0175" y2="33.7543">
			<stop  offset="1.552812e-03" style="stop-color:#036544"/>
			<stop  offset="1" style="stop-color:#02281F"/>
		</linearGradient>
		<path style="fill:url(#SVGID_00000009590831885058038460000013103012449257125310_);" d="M46,49.8c8.8,0,16-7.2,16-16
			c0-8.8-7.2-16-16-16c-8.8,0-16,7.2-16,16C30,42.6,37.2,49.8,46,49.8z M39.8,38.8l2.1-2c0.2-0.1,0.4-0.1,0.5,0
			c1.3,1.3,2.5,1.9,3.6,1.9c0.5,0,1-0.2,1.4-0.5c0.4-0.3,0.6-0.7,0.6-1.2c0-0.4-0.1-0.7-0.4-1c-0.3-0.3-0.8-0.6-1.6-1
			c-1.8-0.8-3-1.4-3.6-1.8c-0.7-0.5-1.2-1-1.5-1.6c-0.3-0.6-0.5-1.3-0.5-1.9c0-1.1,0.4-2.1,1.3-2.9c0.8-0.7,1.8-1.1,2.9-1.3v-1.8
			c0-0.2,0.2-0.4,0.4-0.4h2.1c0.2,0,0.4,0.2,0.4,0.4v2c0.6,0.2,1.2,0.4,1.6,0.6c0.5,0.3,1.1,0.7,1.8,1.4c0.1,0.1,0.1,0.2,0.1,0.3
			c0,0.1,0,0.2-0.1,0.3l-2.1,1.9c-0.1,0.1-0.4,0.1-0.5,0c-0.9-0.9-1.8-1.3-2.6-1.3c-0.5,0-0.8,0.1-1.1,0.3c-0.3,0.2-0.4,0.4-0.4,0.7
			c0,0.2,0.1,0.4,0.3,0.6c0.2,0.2,0.6,0.5,1.7,0.9c1.7,0.6,2.8,1.2,3.4,1.7c0.6,0.5,1.1,1.1,1.5,1.7c0.3,0.7,0.5,1.4,0.5,2.3
			c0,0.8-0.2,1.6-0.6,2.3c-0.4,0.7-0.9,1.3-1.4,1.7c-0.5,0.4-1.2,0.7-2.2,0.9v2.1c0,0.2-0.2,0.4-0.4,0.4h-2.1
			c-0.2,0-0.4-0.2-0.4-0.4v-2c-0.9-0.1-1.6-0.3-2.2-0.7c-0.9-0.5-1.8-1.1-2.7-2c-0.1-0.1-0.1-0.2-0.1-0.3
			C39.7,38.9,39.8,38.9,39.8,38.8z"/>
	</g>
</g>
<g id="disability" class="st0">
	<path class="st1" d="M45.6,0C20.4,0,0,20.4,0,45.6s20.4,45.6,45.6,45.6V0z"/>
	
		<linearGradient id="SVGID_00000004538778332379943330000002986040062630081665_" gradientUnits="userSpaceOnUse" x1="103.1067" y1="-77.0062" x2="132.1414" y2="-26.7166">
		<stop  offset="1.552812e-03" style="stop-color:#036544"/>
		<stop  offset="1" style="stop-color:#02281F"/>
	</linearGradient>
	<path style="display:inline;fill:url(#SVGID_00000004538778332379943330000002986040062630081665_);" d="M143.7-70v36.2
		c0,0.4-0.3,0.7-0.7,0.7h-25.4H92.3c-0.4,0-0.7-0.3-0.7-0.7V-70c0-0.4,0.3-0.7,0.7-0.7h25.4H143C143.4-70.6,143.7-70.3,143.7-70z
		 M117.6-30.5c-3.5,0-6.5,2.5-7.1,5.9h7.1h7.1C124.1-27.9,121.1-30.5,117.6-30.5z"/>
	<circle class="st3" cx="45.6" cy="45.6" r="45.6"/>
	<path class="st26" d="M76.9,62.9L76.9,62.9l-0.2-0.1l-8.4-6.8c1.1-1.1,1.3-2.8,0.4-4l-2.4-3.5l1.7-3c0.6-1,0.6-2.2,0-3.2
		c-0.6-1-1.6-1.5-2.7-1.5l-2.9,0l-0.8-4.5c-0.2-1.2-1.1-2.1-2.2-2.5c-0.3-0.1-0.6-0.1-0.9-0.1c0,0,0,0,0,0c0,0,0,0,0,0
		c-1,0-1.9,0.5-2.5,1.3l-2.7,3.6l-2.7-1.2c-0.4-0.2-0.9-0.3-1.4-0.3c-0.7,0-1.5,0.3-2,0.7c-0.8,0.7-1.2,1.8-1.1,2.9l0,0.1l0,0.1
		l0.6,3.4L44,45.5c0.5-2.2,0.9-4.6,1.1-5.9c0.2-1.6,0.1-3.2-0.4-4.6c0.3,0,0.5,0,0.8,0c6.5,0,11.9-5.3,11.9-11.9
		s-5.3-11.9-11.9-11.9c-6.5,0-11.9,5.3-11.9,11.9c0,1.9,0.4,3.6,1.2,5.2c-0.1,0-0.3,0-0.4,0c-3.1,0-6.1,1.2-8.3,3.3
		c-3.1,3-5.3,7.6-6.8,15c-2.3,10.9-1.3,20.5,2.7,24.6c2.8,2.9,5.9,4.4,9.4,4.4c2.3,0,4.8-0.7,7.5-2c2-1,6.2-3.4,9.9-5.6l1.1,0.8
		l10.3,7.5l0.1,0.1l0.1,0.1c0.3,0.2,1.6,0.9,3.5,0.9c1.8,0,3.5-0.7,4.9-2.1l0.5-0.5c0.9,0.4,1.9,0.7,2.9,0.7c2.1,0,4.1-1,5.5-2.8
		C79.9,69.6,79.7,65.5,76.9,62.9z M54.5,44.2C54.5,44.2,54.5,44.2,54.5,44.2C54.5,44.2,54.5,44.2,54.5,44.2
		C54.5,44.2,54.5,44.2,54.5,44.2z"/>
	<g class="st5">
		
			<linearGradient id="SVGID_00000172411667223177615050000012734103182089533335_" gradientUnits="userSpaceOnUse" x1="44.616" y1="45.7576" x2="67.2872" y2="45.7576">
			<stop  offset="1.552812e-03" style="stop-color:#036544"/>
			<stop  offset="1" style="stop-color:#02281F"/>
		</linearGradient>
		<path style="fill:url(#SVGID_00000172411667223177615050000012734103182089533335_);" d="M49.9,40.1c-0.2-0.1-0.6,0-0.7,0.1
			c-0.2,0.1-0.3,0.4-0.2,0.6l1,5.2l-5.1,2.6c-0.2,0.1-0.4,0.5-0.3,0.7c0.2,0.6,0.7,0.5,0.7,0.5l4.5-1.4l2.1-1.1
			c0.3-0.1,0.4-0.4,0.3-0.7l-0.6-3.4l3,1.3c0.4,0.2,0.7-0.1,0.8-0.2l2.7-3.4l0.8,4.3c0.1,0.3,0.3,0.5,0.6,0.5l3.5,0l-1.5,3
			c-0.1,0.2-0.1,0.4,0,0.6l1.9,3l2.6,2.3c0.4,0.4,0.8,0.2,1,0c0.3-0.3,0.2-0.7,0.1-0.8L63.9,49l2.4-4.3c0.1-0.2,0.1-0.5,0-0.7
			c-0.1-0.2-0.3-0.3-0.6-0.3l-4.9,0l-1.2-6.5c0-0.3-0.2-0.5-0.5-0.5c-0.1,0-0.5-0.1-0.7,0.2l-4,5.3L49.9,40.1z"/>
		
			<linearGradient id="SVGID_00000049223923323408880470000009769391623012772749_" gradientUnits="userSpaceOnUse" x1="36.648" y1="23.6206" x2="55.3729" y2="23.6206">
			<stop  offset="1.552812e-03" style="stop-color:#036544"/>
			<stop  offset="1" style="stop-color:#02281F"/>
		</linearGradient>
		<path style="fill:url(#SVGID_00000049223923323408880470000009769391623012772749_);" d="M46,33c5.2,0,9.4-4.2,9.4-9.4
			c0-5.2-4.2-9.4-9.4-9.4c-5.2,0-9.4,4.2-9.4,9.4C36.6,28.8,40.8,33,46,33z"/>
		
			<linearGradient id="SVGID_00000036939796885503625110000012029732604918932921_" gradientUnits="userSpaceOnUse" x1="53.9079" y1="61.5858" x2="77.1786" y2="61.5858">
			<stop  offset="1.552812e-03" style="stop-color:#036544"/>
			<stop  offset="1" style="stop-color:#02281F"/>
		</linearGradient>
		<path style="fill:url(#SVGID_00000036939796885503625110000012029732604918932921_);" d="M54.9,49.9c-0.4,0-0.7,0-1,0.1
			c1.2,0.4,2.3,1.2,3.1,2.2c1.1,1.5,1.6,3.2,1.4,5c-0.4,2.5-1.5,4.2-3.1,5.2l15.3,10.4c0.6,0.3,1.3,0.5,2,0.5c1.2,0,2.5-0.5,3.6-1.9
			c1.5-1.9,1.4-4.5-0.5-6.2L58,50.9C57.1,50.2,56,49.9,54.9,49.9z"/>
		
			<linearGradient id="SVGID_00000047040224437614998400000000463325448483416223_" gradientUnits="userSpaceOnUse" x1="51.8163" y1="70.3501" x2="67.3741" y2="70.3501">
			<stop  offset="1.552812e-03" style="stop-color:#036544"/>
			<stop  offset="1" style="stop-color:#02281F"/>
		</linearGradient>
		<path style="fill:url(#SVGID_00000047040224437614998400000000463325448483416223_);" d="M51.8,67.2l10.3,7.5c0,0,0.9,0.6,2.2,0.6
			c0.9,0,2-0.3,3.1-1.4l-12.6-8.5C54,65.9,53,66.5,51.8,67.2z"/>
		
			<linearGradient id="SVGID_00000067954894978768225630000015834593348472023454_" gradientUnits="userSpaceOnUse" x1="21.0344" y1="52.4035" x2="55.6751" y2="52.4035">
			<stop  offset="1.552812e-03" style="stop-color:#036544"/>
			<stop  offset="1" style="stop-color:#02281F"/>
		</linearGradient>
		<path style="fill:url(#SVGID_00000067954894978768225630000015834593348472023454_);" d="M38.2,71.8c2.9-1.5,11.3-6.5,15-8.6
			c-0.7,0.2-1.8,0.1-2.3,0.1l-15.9-1.6c-2-0.2-3.8-1.3-5-2.9c-1.2-1.7-1.2-3.6-1.1-5.2l1-10.6l2.8-0.2c0,0-1.1,7.6-1.1,11
			c0,2.6,0.2,4.5,3.6,5.1l16.2,1.6c2.4,0,3.5-0.7,4.1-3.2c0.7-2.8-1.5-4.8-3.6-5l-11.1-1.1c0,0,1.9-8.4,2.3-11.5
			c1.1-7.6-9-11.3-14.9-5.8c-2.3,2.2-4.4,5.9-6.1,13.7c-2.3,11-0.9,19.3,2,22.3C28.6,74.5,33.3,74.2,38.2,71.8z"/>
	</g>
</g>
<g id="insurance" class="st0">
	<path class="st1" d="M45.6,0C20.4,0,0,20.4,0,45.6s20.4,45.6,45.6,45.6V0z"/>
	
		<linearGradient id="SVGID_00000087372158243919969220000006566205722721764799_" gradientUnits="userSpaceOnUse" x1="103.1067" y1="-77.0062" x2="132.1414" y2="-26.7166">
		<stop  offset="1.552812e-03" style="stop-color:#036544"/>
		<stop  offset="1" style="stop-color:#02281F"/>
	</linearGradient>
	<path style="display:inline;fill:url(#SVGID_00000087372158243919969220000006566205722721764799_);" d="M143.7-70v36.2
		c0,0.4-0.3,0.7-0.7,0.7h-25.4H92.3c-0.4,0-0.7-0.3-0.7-0.7V-70c0-0.4,0.3-0.7,0.7-0.7h25.4H143C143.4-70.6,143.7-70.3,143.7-70z
		 M117.6-30.5c-3.5,0-6.5,2.5-7.1,5.9h7.1h7.1C124.1-27.9,121.1-30.5,117.6-30.5z"/>
	<circle class="st3" cx="45.6" cy="45.6" r="45.6"/>
	<g class="st5">
		<path class="st6" d="M49.8,54.4v-2h-2h-4.6h-2l0,2l0,10.9c0,0.5-0.2,1.4-0.6,1.8c-0.2,0.2-0.7,0.3-1.4,0.3c-1.5,0-1.9-1.5-1.9-2.7
			c0-2.3-1.9-4.3-4.3-4.3s-4.3,1.9-4.3,4.3c0,4.5,2.8,11.3,10.4,11.3c3.8,0,6.2-1.6,7.5-2.9c3-3.1,3-7.2,3-7.9V54.4z"/>
		<path class="st6" d="M70,30.2c-5.2-5.1-12.2-8.4-20-9.2l-1.2-4.5c-0.3-1.4-1.4-2.7-3-2.7c-1.7,0-2.7,1.4-3,2.8L41.6,21
			c-7.8,0.8-14.9,4.1-20.1,9.2c-5.8,5.7-8.9,13.3-8.9,21.8v2h2h18.3h2v-2v-5.2c0-1.3,1.1-2.4,2.4-2.4h2v0H41l3.2,4.3l1.6,2.1
			l1.6-2.1l3.2-4.3h1.7l2,0c1.3,0,2.4,1.1,2.4,2.4V52v2h2h18.1h2v-2C78.8,43.5,75.7,35.9,70,30.2z"/>
	</g>
	<g class="st5">
		
			<linearGradient id="SVGID_00000152256721830830347950000014646233386625574573_" gradientUnits="userSpaceOnUse" x1="30.8397" y1="64.2088" x2="47.8103" y2="64.2088">
			<stop  offset="1.552812e-03" style="stop-color:#036544"/>
			<stop  offset="1" style="stop-color:#02281F"/>
		</linearGradient>
		<path style="fill:url(#SVGID_00000152256721830830347950000014646233386625574573_);" d="M47.8,54.4h-4.6l0,10.9
			c0,0.6-0.2,2.3-1.2,3.2c-0.6,0.6-1.5,0.9-2.8,0.9c-3.7,0-3.9-3.9-3.9-4.7c0-1.3-1-2.3-2.3-2.3c-1.3,0-2.3,1-2.3,2.3
			c0,3.2,1.8,9.3,8.4,9.3c3.1,0,5-1.3,6.1-2.3c2.5-2.5,2.4-6.1,2.4-6.4V54.4z"/>
		
			<linearGradient id="SVGID_00000055673385149169326880000003364378518996348308_" gradientUnits="userSpaceOnUse" x1="14.6619" y1="33.8616" x2="76.801" y2="33.8616">
			<stop  offset="1.552812e-03" style="stop-color:#036544"/>
			<stop  offset="1" style="stop-color:#02281F"/>
		</linearGradient>
		<path style="fill:url(#SVGID_00000055673385149169326880000003364378518996348308_);" d="M32.9,46.8c0-2.4,2-4.4,4.4-4.4v0H42
			l3.8,5.1l3.8-5.1h4.7v0c2.5,0,4.4,2,4.4,4.4V52c11.8,0,18.1,0,18.1,0c0-16.5-12.5-28-28.5-29.1L46.8,17c0,0-0.3-1.2-1.1-1.2
			c-0.8,0-1,1.3-1,1.3l-1.5,5.8c-16,1.1-28.6,12.6-28.6,29.1c0,0,6.5,0,18.3,0V46.8z M45.8,29.3c2.9,0,5.2,2.3,5.2,5.1
			c0,2.8-2.3,5.1-5.2,5.1c-2.9,0-5.2-2.3-5.2-5.1C40.6,31.6,43,29.3,45.8,29.3z"/>
	</g>
</g>
<g id="tuitiuon" class="st0">
	
		<linearGradient id="SVGID_00000147209137390230295100000013526213663462351272_" gradientUnits="userSpaceOnUse" x1="103.1067" y1="-77.0062" x2="132.1414" y2="-26.7166">
		<stop  offset="1.552812e-03" style="stop-color:#036544"/>
		<stop  offset="1" style="stop-color:#02281F"/>
	</linearGradient>
	<path style="display:inline;fill:url(#SVGID_00000147209137390230295100000013526213663462351272_);" d="M143.7-70v36.2
		c0,0.4-0.3,0.7-0.7,0.7h-25.4H92.3c-0.4,0-0.7-0.3-0.7-0.7V-70c0-0.4,0.3-0.7,0.7-0.7h25.4H143C143.4-70.6,143.7-70.3,143.7-70z
		 M117.6-30.5c-3.5,0-6.5,2.5-7.1,5.9h7.1h7.1C124.1-27.9,121.1-30.5,117.6-30.5z"/>
	<circle class="st3" cx="45.6" cy="45.6" r="45.6"/>
	<path class="st1" d="M45.4,71.8c-13.1,0-19.4-7.9-19.6-8.2c-1.4-1.9-2-4.8-1.4-7.1l3.1-10.7l0-0.1L16,40c-2.5-1.2-2.8-3.2-2.7-4
		c0.1-1.7,1.2-3.1,3-3.8l25.8-10.7c1.2-0.5,2.5-0.7,3.5-0.7V0C20.4,0,0,20.4,0,45.6s20.4,45.6,45.6,45.6V71.7
		C45.5,71.7,45.5,71.8,45.4,71.8z"/>
	<g class="st5">
		
			<linearGradient id="SVGID_00000128452889107177692320000004637310015181556629_" gradientUnits="userSpaceOnUse" x1="28.1361" y1="57.6588" x2="64.5237" y2="57.6588">
			<stop  offset="1.552812e-03" style="stop-color:#036544"/>
			<stop  offset="1" style="stop-color:#02281F"/>
		</linearGradient>
		<path style="fill:url(#SVGID_00000128452889107177692320000004637310015181556629_);" d="M61.4,47.1l-10.8,5.3
			c-1,0.5-2.3,0.8-3.7,0.8c-1.4,0-2.7-0.3-3.7-0.8l-11.9-5.8l-3.1,10.7c-0.4,1.3,0,3.3,0.9,4.4c0,0,5.5,7,17.2,7
			c12.7,0,17.3-6.9,17.3-6.9c0.8-1.2,1.1-3.2,0.7-4.6L61.4,47.1z"/>
		
			<linearGradient id="SVGID_00000105401231407243808350000000967781719655133095_" gradientUnits="userSpaceOnUse" x1="17.2961" y1="49.2582" x2="76.5736" y2="49.2582">
			<stop  offset="1.552812e-03" style="stop-color:#036544"/>
			<stop  offset="1" style="stop-color:#02281F"/>
		</linearGradient>
		<path style="fill:url(#SVGID_00000105401231407243808350000000967781719655133095_);" d="M75.4,34.9L49.6,24.2
			c-1.5-0.6-3.9-0.6-5.4,0L18.4,34.9c-1.5,0.6-1.5,1.7-0.1,2.4l26,12.8c1.4,0.7,3.8,0.7,5.2,0l21.9-10.7v16.3h-0.8l-1.2,19.2h6.1
			l-1.2-19.2h-0.8V38.4c0,0,0-0.1,0-0.1l2.1-1C77,36.6,76.9,35.5,75.4,34.9z"/>
	</g>
</g>
<g id="dental" class="st0">
	<path class="st1" d="M45.6,0C20.4,0,0,20.4,0,45.6s20.4,45.6,45.6,45.6V0z"/>
	
		<linearGradient id="SVGID_00000173141561346216171470000002031897787573263293_" gradientUnits="userSpaceOnUse" x1="103.1067" y1="-77.0062" x2="132.1414" y2="-26.7166">
		<stop  offset="1.552812e-03" style="stop-color:#036544"/>
		<stop  offset="1" style="stop-color:#02281F"/>
	</linearGradient>
	<path style="display:inline;fill:url(#SVGID_00000173141561346216171470000002031897787573263293_);" d="M143.7-70v36.2
		c0,0.4-0.3,0.7-0.7,0.7h-25.4H92.3c-0.4,0-0.7-0.3-0.7-0.7V-70c0-0.4,0.3-0.7,0.7-0.7h25.4H143C143.4-70.6,143.7-70.3,143.7-70z
		 M117.6-30.5c-3.5,0-6.5,2.5-7.1,5.9h7.1h7.1C124.1-27.9,121.1-30.5,117.6-30.5z"/>
	<circle class="st3" cx="45.6" cy="45.6" r="45.6"/>
	<path class="st42" d="M56.3,75.8c-5.7,0-5.7-13.4-5.7-13.5c0-3.7-2.7-8.3-4.9-8.3c-2.2,0-4.9,4.6-4.9,8.3c0,0.1-0.1,13.5-5.7,13.5
		c-4.3,0-4.6-11-4.6-14.3v-2.3c0-5.5-0.8-10.9-2.4-15.9c-1.4-4.5-1.9-10.1-1.9-12.1c0-3.5,2.2-8.7,8.1-8.7c4.8,0,10.2,1.5,11.5,1.9
		c1.3-0.4,6.7-1.9,11.5-1.9c6,0,8.1,5.2,8.1,8.7c0,2-0.5,7.7-1.9,12.1c-1.6,5-2.4,10.4-2.4,15.9v2.3C60.9,64.8,60.6,75.8,56.3,75.8z
		"/>
	
		<linearGradient id="SVGID_00000036211779076947009530000014810517436260543665_" gradientUnits="userSpaceOnUse" x1="26.0677" y1="49.0285" x2="65.2062" y2="49.0285">
		<stop  offset="1.552812e-03" style="stop-color:#036544"/>
		<stop  offset="1" style="stop-color:#02281F"/>
	</linearGradient>
	<path style="display:inline;fill:url(#SVGID_00000036211779076947009530000014810517436260543665_);" d="M56.3,75.8
		c-5.7,0-5.7-13.4-5.7-13.5c0-3.7-2.7-8.3-4.9-8.3c-2.2,0-4.9,4.6-4.9,8.3c0,0.1-0.1,13.5-5.7,13.5c-4.3,0-4.6-11-4.6-14.3v-2.3
		c0-5.5-0.8-10.9-2.4-15.9c-1.4-4.5-1.9-10.1-1.9-12.1c0-3.5,2.2-8.7,8.1-8.7c4.8,0,10.2,1.5,11.5,1.9c1.3-0.4,6.7-1.9,11.5-1.9
		c6,0,8.1,5.2,8.1,8.7c0,2-0.5,7.7-1.9,12.1c-1.6,5-2.4,10.4-2.4,15.9v2.3C60.9,64.8,60.6,75.8,56.3,75.8z"/>
</g>
<g id="employee_assistance" class="st0">
	
		<linearGradient id="SVGID_00000105427276198498005900000004435952240724862900_" gradientUnits="userSpaceOnUse" x1="103.1067" y1="-77.0062" x2="132.1414" y2="-26.7166">
		<stop  offset="1.552812e-03" style="stop-color:#036544"/>
		<stop  offset="1" style="stop-color:#02281F"/>
	</linearGradient>
	<path style="display:inline;fill:url(#SVGID_00000105427276198498005900000004435952240724862900_);" d="M143.7-70v36.2
		c0,0.4-0.3,0.7-0.7,0.7h-25.4H92.3c-0.4,0-0.7-0.3-0.7-0.7V-70c0-0.4,0.3-0.7,0.7-0.7h25.4H143C143.4-70.6,143.7-70.3,143.7-70z
		 M117.6-30.5c-3.5,0-6.5,2.5-7.1,5.9h7.1h7.1C124.1-27.9,121.1-30.5,117.6-30.5z"/>
	<circle class="st3" cx="45.6" cy="45.6" r="45.6"/>
	<g class="st5">
		<g>
			<path class="st8" d="M119.9,51.9c0-1,0.5-2.4,1-3.2c0,0,2-2.8,6.8-2.8c4.9,0,6.8,2.8,6.8,2.8c0.6,0.8,1,2.2,1,3.2v0.2h14V41.4h0
				c0-9.8-5.1-10.5-9.4-11.3c-2.9-1-2-2.9-1.6-3.5c0.1-0.1,0.2-0.1,0.2-0.2c2.5-2.5,4.6-12.4-3.4-12.4c-8,0-5.9,9.8-3.4,12.4
				c0.1,0.1,0.2,0.2,0.2,0.2c0.4,0.7,1.4,2.5-1.6,3.6l0,0c-2.2,0.4-4.5,0.8-6.3,2.3c-1-0.3-2-0.4-3-0.6c-2.6-0.9-1.8-2.6-1.4-3.2
				c0.1-0.1,0.1-0.1,0.2-0.2c2.2-2.3,4.1-11-3-11c-7.1,0-5.3,8.7-3,11c0.1,0.1,0.1,0.1,0.2,0.2c0.4,0.6,1.3,2.3-1.4,3.2l0,0
				c-3.8,0.7-8.2,0.8-8.2,9.5c0,0,0,0,0,0.1h0v10.7h15.1V51.9z M127.8,34.2c2.7,0,4.8,2.2,4.8,4.8c0,2.7-2.2,4.8-4.8,4.8
				c-2.7,0-4.8-2.2-4.8-4.8C123,36.4,125.1,34.2,127.8,34.2z"/>
		</g>
		<g>
			<path class="st8" d="M148.1,57.2c-3.2,2.4-10.3,7.6-17.4,7.9c-3.8,0.1-1.4-3.8,1.1-5.9c2.4-2.1,1.6-5.2-2-4.4
				c-2.7,0.6-3,0.7-6.6,0.9c-2.7,0.1-3.6,0.3-5.7,0.4c-10.6,0.4-15.5,7.9-16.4,9.5c-1.4,1.6-3.5,3.8-3.5,3.8l10.9,10.9
				c5.8-4.8,9.4-5.4,17.7-4.5c8.3,1,23.5-10.5,28.7-18.1C154.8,57.7,153.2,53.4,148.1,57.2z"/>
		</g>
	</g>
	<path class="st1" d="M42.6,71.5c-0.9,0.4-1.9,0.7-3,0.7c-0.5,0-1.1-0.1-1.7-0.2c-1.7-0.3-3.1-1.2-3.9-2.6c-1.1-0.1-2.2-0.4-3.2-1.1
		c-1.3-0.8-2.1-1.8-2.6-2.6c-1.4-0.1-2.7-0.6-3.9-1.5c-1-0.7-1.8-1.6-2.3-2.8c-1-0.3-2.4-1-3.5-2.5c-1.3-1.6-2.3-4.2-0.4-7.9l-0.9-1
		c-2.5-2.8-5-5.7-5.5-6.2l-1.3-1.2L9,41.3l1.3-1.5l14.1-16.4l1-1.2l1.4,0.7l1.2,0.6c0.1,0,5.8,2.8,11.2,4.2c0.9,0.2,2,0.6,3.1,1
		c1.1-0.2,2.2-0.4,3.3-0.6V0C20.4,0,0,20.4,0,45.6s20.4,45.6,45.6,45.6v-19C44.6,72.1,43.6,71.9,42.6,71.5z"/>
	<polygon class="st26" points="14.8,40.8 26.8,27.8 40.8,32.8 55.8,37.8 69.8,50.8 70.8,54.8 68.8,58.8 47.8,68.8 41.8,66.8 	"/>
	
		<linearGradient id="SVGID_00000093163095506027454470000016018475363388699538_" gradientUnits="userSpaceOnUse" x1="11.801" y1="47.5271" x2="84.7148" y2="47.5271">
		<stop  offset="1.552812e-03" style="stop-color:#036544"/>
		<stop  offset="1" style="stop-color:#02281F"/>
	</linearGradient>
	<path style="display:inline;fill:url(#SVGID_00000093163095506027454470000016018475363388699538_);" d="M84.7,44.5L83.6,43
		L72.2,27.5l-1-1.3L69.8,27l-8.6,5.3c-2.1-0.7-7.4-2.5-9.5-2.7c-0.3,0-0.6,0-0.9,0c-0.7,0-4.9,0.3-8.5,1.2c-1.2-0.4-2.4-0.8-3.5-1.1
		c-5.6-1.5-11.5-4.3-11.6-4.3l-1.2-0.6L11.8,41.2l1.3,1.2c0.6,0.5,2.9,3.2,5.7,6.3c0.6,0.7,1.2,1.4,1.9,2.1c-1.3,2-2.4,4.6-0.5,6.9
		c1.2,1.5,2.6,1.9,3.5,2.1c0.2,0.8,0.6,2.1,1.9,2.9c1,0.7,2,1.1,3.1,1.1c0.3,0,0.6,0,0.8-0.1c0,0,0.1,0.1,0.1,0.1
		c0.4,0.8,1,1.9,2.4,2.9c0.8,0.5,1.6,0.7,2.4,0.7c0.3,0,0.6,0,0.8-0.1c0.5,1.5,1.5,2.4,3.1,2.7c0.5,0.1,1,0.1,1.4,0.1
		c1.3,0,2.1-0.4,2.8-0.9c0.4,0.2,0.6,0.3,0.8,0.3c1.2,0.5,2.3,0.8,3.6,0.8c0.8,0,1.7-0.1,2.8-0.3c2.9-0.6,18.9-8.8,21.2-11.3
		c1.2-1.3,1.9-3.8,1.7-5.7l10.7-7.3L84.7,44.5z M68.1,56.3c-0.1,0.2-0.4,0.4-0.7,0.6L56,46.4L53.6,49l10.7,9.8
		c-1,0.6-2.2,1.2-3.4,1.9L51,51.7l-2.4,2.6l8.9,8.2c-1.2,0.6-2.4,1.2-3.5,1.8L46.1,57l-2.4,2.6l6.7,6.2c-0.7,0.3-1.3,0.5-1.7,0.6
		c-1.8,0.4-2.9,0.4-4.1-0.2l-0.1,0c0,0-0.1,0-0.3-0.1c0.2-2.5-1.6-5.3-2.9-6.2c-0.6-0.4-1.2-0.8-2-0.8c0-1.6-0.4-3.2-1.8-4.5l0,0
		l0,0c-0.7-0.6-1.5-0.9-2.2-0.9c-0.2,0-0.3,0-0.5,0c0.1-1,0-2-0.3-2.8c-0.4-1-1.1-1.7-2-2.1c-0.5-0.2-1-0.3-1.5-0.3
		c-0.9,0-1.6,0.3-2.1,0.7c0,0,0-0.1,0-0.1c-0.2-1.1-0.7-1.8-1.4-2.3l0,0l0,0c-0.4-0.2-0.9-0.5-1.7-0.5c-1.3,0-2.1,0.8-2.9,1.7
		c-0.5-0.6-1-1.1-1.4-1.6c-2.2-2.5-3.7-4.2-4.7-5.3l10.2-11.8c2,0.9,6.1,2.7,10.3,3.8c-0.2,0.2-0.3,0.4-0.4,0.5
		c-0.3,0.6-0.3,1.4,0,2c0.2,0.7,1,2.3,2.8,3.2l0.2,0.1c1,0.5,2.1,1.1,3.9,1.1c1.5,0,3.1-0.4,5.3-1.3c0,0,0.2-0.1,0.5-0.1
		c0.3,0,0.8,0.1,1.3,0.2c2.6,1.4,4.5,2.6,4.9,2.8c2.9,2.3,7.8,6.3,11.9,9.8c0.6,0.7,1.1,1.3,1.4,1.8C69.1,53.7,68.7,55.5,68.1,56.3z
		"/>
</g>
<g id="Layer_1_copy_2" class="st0">
	
		<linearGradient id="SVGID_00000035499105004167416270000010283824011164611726_" gradientUnits="userSpaceOnUse" x1="103.1067" y1="-77.0062" x2="132.1414" y2="-26.7166">
		<stop  offset="1.552812e-03" style="stop-color:#036544"/>
		<stop  offset="1" style="stop-color:#02281F"/>
	</linearGradient>
	<path style="display:inline;fill:url(#SVGID_00000035499105004167416270000010283824011164611726_);" d="M143.7-70v36.2
		c0,0.4-0.3,0.7-0.7,0.7h-25.4H92.3c-0.4,0-0.7-0.3-0.7-0.7V-70c0-0.4,0.3-0.7,0.7-0.7h25.4H143C143.4-70.6,143.7-70.3,143.7-70z
		 M117.6-30.5c-3.5,0-6.5,2.5-7.1,5.9h7.1h7.1C124.1-27.9,121.1-30.5,117.6-30.5z"/>
	<circle class="st3" cx="45.6" cy="45.6" r="45.6"/>
	<g class="st5">
		<path class="st9" d="M31,59.4h-1.5h-2.6l0.8,1.1c4.1,5.5,10.2,8.7,17,8.7c0.3,0,0.7,0,1,0V21.4c-0.1,0-0.1,0-0.2,0
			c-5,0-9.9,1.9-13.8,5.2l2,1.7l2.5,2.1L33,30.8l-8.4,1.4c0.9,1.4,1.5,3,1.5,4.8c0,3.1-1.7,5.8-4.1,7.2c5.5,1.2,9,4.9,9,9.8v3.9
			V59.4z"/>
		<path class="st9" d="M44.6,75.2c-8.7,0-16.6-4.1-21.8-11.1l-0.9-1.2l1.2-0.9l2.4-1.8l1-0.8H6.2H4.7v-1.5V54c0-4.9,3.6-8.6,9-9.8
			c-2.5-1.4-4.1-4.1-4.1-7.2c0-4.6,3.7-8.3,8.2-8.3c1.9,0,3.6,0.6,4.9,1.7l-0.3-8.3l-0.1-3.4l2.6,2.2l2,1.7c5-4.7,11.7-7.3,18.4-7.3
			c0.1,0,0.1,0,0.2,0V0C20.4,0,0,20.4,0,45.6s20.4,45.6,45.6,45.6V75.2C45.3,75.2,45,75.2,44.6,75.2z"/>
	</g>
	<g class="st5">
		<path class="st47" d="M79.6,36.1c0,3.8-3,6.8-6.7,6.8c-3.7,0-6.7-3.1-6.7-6.8c0-3.8,3-6.8,6.7-6.8C76.6,29.3,79.6,32.3,79.6,36.1z
			"/>
		<path class="st47" d="M60.8,53.6c0-4.5,1.5-7.8,5.3-8.9c-0.2,3,0,5.3,0.2,6.5c-0.6,0.4-1,1.1-1,1.9c0.1,1.1,1.1,2,2.2,1.9
			c1.1-0.1,1.9-1.1,1.8-2.2c-0.1-0.8-0.5-1.4-1.2-1.7c-0.2-1-0.5-3.5-0.2-6.7c0.2,0,0.7-0.1,1.1-0.1l3.8,2.9l3.8-2.9
			c0.5,0,1,0.1,1.4,0.1c0,0.4,0,0.8-0.1,1.2c-0.1,0.6-0.2,1.3-0.3,1.6c-1.9,0.1-3.4,1.3-3.7,2.9l-0.5,3.3c-0.1,0.3-0.1,0.8,0.2,1.3
			c0.2,0.3,0.5,0.5,0.9,0.5c0.5,0.1,1-0.3,1.1-0.8c0-0.3-0.1-0.6-0.3-0.9l0.5-3.2c0.1-0.8,1.3-1.4,2.5-1.2c1.2,0.2,2.1,1.1,2,1.9
			l-0.5,3.1c-0.3,0.1-0.5,0.4-0.5,0.7c-0.1,0.5,0.3,1,0.8,1.1c0.1,0,0.2,0,0.3,0c0.3,0,0.6-0.1,0.8-0.3c0.4-0.3,0.5-0.8,0.5-1.2
			l0.5-3.3c0.2-1.6-0.9-3.2-2.6-3.9c0.1-0.3,0.2-0.9,0.3-1.6c0-0.3,0.1-0.6,0.1-1c3.2,1.1,5,3.8,5,8.8l0,3.3h-24V53.6z"/>
		<path class="st47" d="M24.3,30.8L24,22l3.1,2.6c4.8-5,11.5-7.8,18.4-7.8c8.2,0,15.7,3.8,20.6,10.5l-2.4,1.8
			c-4.3-5.9-11-9.3-18.2-9.3c-6,0-11.8,2.4-16,6.7l3.3,2.8L24.3,30.8z"/>
		<path class="st47" d="M65.8,59.7l0.3,8.8L63,65.9c-4.8,5-11.5,7.8-18.4,7.8c-8.2,0-15.7-3.8-20.6-10.5l2.4-1.8
			c4.3,5.9,11,9.3,18.2,9.3c6,0,11.8-2.4,16-6.7l-3.3-2.8L65.8,59.7z"/>
		<path class="st47" d="M17.8,43.9c-3.7,0-6.7-3.1-6.7-6.8c0-3.8,3-6.8,6.7-6.8c3.7,0,6.7,3.1,6.7,6.8
			C24.6,40.8,21.5,43.9,17.8,43.9z"/>
		<path class="st47" d="M17.8,45.3c6.4,0,11.6,3.2,11.6,8.7v3.9H6.2V54C6.2,48.5,11.4,45.3,17.8,45.3z"/>
	</g>
</g>
<g id="Layer_1_copy_3" class="st0">
	<circle class="st3" cx="45.6" cy="45.6" r="45.6"/>
	<path class="st1" d="M45.6,75.2C45.6,75.2,45.6,75.2,45.6,75.2l-1,0c-0.9,0-1.7-0.7-1.9-1.5l-3.3-13c-0.7,0-1.3-0.4-1.8-0.9
		c-0.5-0.6-0.7-1.3-0.6-2.1l0.3-2.3c0,0,0,0,0,0h-0.5c-1.1,0-2.1-0.6-2.6-1.5c-0.5,0.3-1.1,0.5-1.7,0.5h-0.5c-0.2,0-0.5,0-0.7-0.1
		c-0.2,3.6-0.5,7.3-0.8,10.9l-0.7,7c0,1.6-1.4,3-3,3h-1.9c-0.7,0-1.4-0.3-1.9-0.7c-0.5,0.4-1.2,0.7-1.9,0.7h-1.9c-1.6,0-3-1.3-3-3
		l-0.7-7.1c-0.3-3.6-0.6-7.2-0.8-10.8c-0.2,0.1-0.5,0.1-0.7,0.1h-0.5c-1.7,0-3-1.4-3-3V34.8c0-2.8,2.3-5.1,5-5.1h5.5
		c-2.5-0.9-4.3-3.3-4.3-6.1c0-3.5,2.9-6.4,6.4-6.4s6.4,2.9,6.4,6.4c0,2.8-1.8,5.2-4.3,6.1h5.5c2.8,0,5,2.3,5,5.1v1l0.1-0.7
		c0-2.8,2.3-5.1,5.1-5.1h4C42,29.3,40,26.8,40,23.8c0-3.3,2.4-6,5.6-6.5V0C20.4,0,0,20.4,0,45.6s20.4,45.6,45.6,45.6L45.6,75.2
		C45.6,75.2,45.6,75.2,45.6,75.2z"/>
	<g class="st5">
		<g>
			
				<linearGradient id="SVGID_00000036238744133308072990000012745762067980318082_" gradientUnits="userSpaceOnUse" x1="17.9698" y1="23.6946" x2="27.7855" y2="23.6946">
				<stop  offset="1.552812e-03" style="stop-color:#036544"/>
				<stop  offset="1" style="stop-color:#02281F"/>
			</linearGradient>
			<path style="fill:url(#SVGID_00000036238744133308072990000012745762067980318082_);" d="M27.8,23.7c0,2.7-2.2,4.9-4.9,4.9
				S18,26.4,18,23.7c0-2.7,2.2-4.9,4.9-4.9S27.8,21,27.8,23.7z"/>
			
				<linearGradient id="SVGID_00000049941299461850519400000004994916783757681282_" gradientUnits="userSpaceOnUse" x1="11.801" y1="52.5205" x2="33.954" y2="52.5205">
				<stop  offset="1.552812e-03" style="stop-color:#036544"/>
				<stop  offset="1" style="stop-color:#02281F"/>
			</linearGradient>
			<path style="fill:url(#SVGID_00000049941299461850519400000004994916783757681282_);" d="M34,34.8c0-2-1.6-3.6-3.5-3.6H15.3
				c-2,0-3.5,1.6-3.5,3.6v16.6c0,0.9,0.7,1.5,1.5,1.5h0.5c0.8,0,1.5-0.7,1.5-1.5V40.8h0.3l0,0c0,8.1,0.4,16.2,1.2,24.3l0.7,7.1
				c0,0.9,0.7,1.5,1.5,1.5H21c0.8,0,1.5-0.7,1.5-1.5l0.3-18.6h0.1H23l0.3,18.6c0,0.8,0.7,1.5,1.5,1.5h1.9c0.8,0,1.5-0.7,1.5-1.5
				l0.7-7.1c0.8-8.1,1.2-16.2,1.2-24.3v0h0.3v10.6c0,0.9,0.7,1.5,1.5,1.5h0.5c0.8,0,1.5-0.7,1.5-1.5V34.8z"/>
		</g>
		<g>
			
				<linearGradient id="SVGID_00000038410264798683621130000004175912872614823866_" gradientUnits="userSpaceOnUse" x1="65.2911" y1="28.3128" x2="74.2014" y2="28.3128">
				<stop  offset="1.552812e-03" style="stop-color:#036544"/>
				<stop  offset="1" style="stop-color:#02281F"/>
			</linearGradient>
			<path style="fill:url(#SVGID_00000038410264798683621130000004175912872614823866_);" d="M74.2,28.3c0,2.5-2,4.5-4.5,4.5
				s-4.5-2-4.5-4.5s2-4.5,4.5-4.5S74.2,25.8,74.2,28.3z"/>
			
				<linearGradient id="SVGID_00000141452980342066422210000000718051046683171251_" gradientUnits="userSpaceOnUse" x1="59.6914" y1="54.4797" x2="79.801" y2="54.4797">
				<stop  offset="1.552812e-03" style="stop-color:#036544"/>
				<stop  offset="1" style="stop-color:#02281F"/>
			</linearGradient>
			<path style="fill:url(#SVGID_00000141452980342066422210000000718051046683171251_);" d="M79.8,38.4c0-1.8-1.4-3.2-3.2-3.2H62.9
				c-1.8,0-3.2,1.4-3.2,3.2v15.1c0,0.8,0.6,1.4,1.4,1.4h0.4c0.8,0,1.4-0.6,1.4-1.4v-9.6h0.3l0,0c0,7.4,0.4,14.7,1.1,22l0.6,6.5
				c0,0.8,0.6,1.4,1.4,1.4H68c0.7,0,1.4-0.6,1.4-1.3l0.2-16.9h0.1h0.1l0.2,16.9c0,0.7,0.6,1.3,1.4,1.3h1.7c0.8,0,1.4-0.6,1.4-1.4
				l0.6-6.4c0.7-7.3,1.1-14.7,1.1-22v0h0.3v9.6c0,0.8,0.6,1.4,1.4,1.4h0.4c0.8,0,1.4-0.6,1.4-1.4V38.4z"/>
		</g>
		<g>
			
				<linearGradient id="SVGID_00000173134001455576396500000008778382187421910177_" gradientUnits="userSpaceOnUse" x1="41.5324" y1="23.8318" x2="51.6206" y2="23.8318">
				<stop  offset="1.552812e-03" style="stop-color:#036544"/>
				<stop  offset="1" style="stop-color:#02281F"/>
			</linearGradient>
			<ellipse style="fill:url(#SVGID_00000173134001455576396500000008778382187421910177_);" cx="46.6" cy="23.8" rx="5" ry="5.1"/>
			
				<linearGradient id="SVGID_00000010995190309375959620000005880700133533983872_" gradientUnits="userSpaceOnUse" x1="35.1925" y1="52.6947" x2="57.9607" y2="52.6947">
				<stop  offset="1.552812e-03" style="stop-color:#036544"/>
				<stop  offset="1" style="stop-color:#02281F"/>
			</linearGradient>
			<path style="fill:url(#SVGID_00000010995190309375959620000005880700133533983872_);" d="M56.1,35.3c0-2-1.6-3.7-3.6-3.7H40.7
				c-2,0-3.6,1.6-3.6,3.7l-1.8,17c0,0.9,0.7,1.6,1.6,1.6h0.5c0.9,0,1.6-0.7,1.6-1.6l1.8-10.9H41l-2.5,16.5c-0.1,0.6,0.4,1.2,1.1,1.2
				h1l3.6,14.2c0.1,0.2,0.3,0.4,0.5,0.4l1,0c0.3,0,0.6-0.2,0.6-0.5l0.2-14h0.4l0.2,14c0,0.3,0.2,0.5,0.5,0.5h1
				c0.3,0,0.5-0.2,0.5-0.4l3.6-14.2h1c0.7,0,1.2-0.6,1.1-1.2l-2.6-16.5h0.3l1.8,10.9c0,0.9,0.7,1.6,1.6,1.6h0.5
				c0.9,0,1.6-0.7,1.6-1.6L56.1,35.3z"/>
		</g>
	</g>
</g>
<g id="Layer_1_copy_4" class="st0">
	<circle class="st3" cx="45.6" cy="45.6" r="45.6"/>
	<path class="st1" d="M45.6,75.2C45.6,75.2,45.6,75.2,45.6,75.2l-1,0c-0.9,0-1.7-0.7-1.9-1.5l-3.3-13c-0.7,0-1.3-0.4-1.8-0.9
		c-0.5-0.6-0.7-1.3-0.6-2.1l0.3-2.3c0,0,0,0,0,0h-0.5c-1.1,0-2.1-0.6-2.6-1.5c-0.5,0.3-1.1,0.5-1.7,0.5h-0.5c-0.2,0-0.5,0-0.7-0.1
		c-0.2,3.6-0.5,7.3-0.8,10.9l-0.7,7c0,1.6-1.4,3-3,3h-1.9c-0.7,0-1.4-0.3-1.9-0.7c-0.5,0.4-1.2,0.7-1.9,0.7h-1.9c-1.6,0-3-1.3-3-3
		l-0.7-7.1c-0.3-3.6-0.6-7.2-0.8-10.8c-0.2,0.1-0.5,0.1-0.7,0.1h-0.5c-1.7,0-3-1.4-3-3V34.8c0-2.8,2.3-5.1,5-5.1h5.5
		c-2.5-0.9-4.3-3.3-4.3-6.1c0-3.5,2.9-6.4,6.4-6.4s6.4,2.9,6.4,6.4c0,2.8-1.8,5.2-4.3,6.1h5.5c2.8,0,5,2.3,5,5.1v1l0.1-0.7
		c0-2.8,2.3-5.1,5.1-5.1h4C42,29.3,40,26.8,40,23.8c0-3.3,2.4-6,5.6-6.5V0C20.4,0,0,20.4,0,45.6s20.4,45.6,45.6,45.6L45.6,75.2
		C45.6,75.2,45.6,75.2,45.6,75.2z"/>
	<g class="st5">
		<g>
			
				<linearGradient id="SVGID_00000031168818515193652860000013221320540059615877_" gradientUnits="userSpaceOnUse" x1="17.9698" y1="23.6946" x2="27.7855" y2="23.6946">
				<stop  offset="1.552812e-03" style="stop-color:#036544"/>
				<stop  offset="1" style="stop-color:#02281F"/>
			</linearGradient>
			<path style="fill:url(#SVGID_00000031168818515193652860000013221320540059615877_);" d="M27.8,23.7c0,2.7-2.2,4.9-4.9,4.9
				S18,26.4,18,23.7c0-2.7,2.2-4.9,4.9-4.9S27.8,21,27.8,23.7z"/>
			
				<linearGradient id="SVGID_00000134929759233326528960000007058273904446544785_" gradientUnits="userSpaceOnUse" x1="11.801" y1="52.5205" x2="33.954" y2="52.5205">
				<stop  offset="1.552812e-03" style="stop-color:#036544"/>
				<stop  offset="1" style="stop-color:#02281F"/>
			</linearGradient>
			<path style="fill:url(#SVGID_00000134929759233326528960000007058273904446544785_);" d="M34,34.8c0-2-1.6-3.6-3.5-3.6H15.3
				c-2,0-3.5,1.6-3.5,3.6v16.6c0,0.9,0.7,1.5,1.5,1.5h0.5c0.8,0,1.5-0.7,1.5-1.5V40.8h0.3l0,0c0,8.1,0.4,16.2,1.2,24.3l0.7,7.1
				c0,0.9,0.7,1.5,1.5,1.5H21c0.8,0,1.5-0.7,1.5-1.5l0.3-18.6h0.1H23l0.3,18.6c0,0.8,0.7,1.5,1.5,1.5h1.9c0.8,0,1.5-0.7,1.5-1.5
				l0.7-7.1c0.8-8.1,1.2-16.2,1.2-24.3v0h0.3v10.6c0,0.9,0.7,1.5,1.5,1.5h0.5c0.8,0,1.5-0.7,1.5-1.5V34.8z"/>
		</g>
		<g>
			
				<linearGradient id="SVGID_00000101063465569428426200000006259775596619761543_" gradientUnits="userSpaceOnUse" x1="65.2911" y1="28.3128" x2="74.2014" y2="28.3128">
				<stop  offset="1.552812e-03" style="stop-color:#036544"/>
				<stop  offset="1" style="stop-color:#02281F"/>
			</linearGradient>
			<path style="fill:url(#SVGID_00000101063465569428426200000006259775596619761543_);" d="M74.2,28.3c0,2.5-2,4.5-4.5,4.5
				s-4.5-2-4.5-4.5s2-4.5,4.5-4.5S74.2,25.8,74.2,28.3z"/>
			
				<linearGradient id="SVGID_00000155839231802582268220000008299617463753297585_" gradientUnits="userSpaceOnUse" x1="59.6914" y1="54.4797" x2="79.801" y2="54.4797">
				<stop  offset="1.552812e-03" style="stop-color:#036544"/>
				<stop  offset="1" style="stop-color:#02281F"/>
			</linearGradient>
			<path style="fill:url(#SVGID_00000155839231802582268220000008299617463753297585_);" d="M79.8,38.4c0-1.8-1.4-3.2-3.2-3.2H62.9
				c-1.8,0-3.2,1.4-3.2,3.2v15.1c0,0.8,0.6,1.4,1.4,1.4h0.4c0.8,0,1.4-0.6,1.4-1.4v-9.6h0.3l0,0c0,7.4,0.4,14.7,1.1,22l0.6,6.5
				c0,0.8,0.6,1.4,1.4,1.4H68c0.7,0,1.4-0.6,1.4-1.3l0.2-16.9h0.1h0.1l0.2,16.9c0,0.7,0.6,1.3,1.4,1.3h1.7c0.8,0,1.4-0.6,1.4-1.4
				l0.6-6.4c0.7-7.3,1.1-14.7,1.1-22v0h0.3v9.6c0,0.8,0.6,1.4,1.4,1.4h0.4c0.8,0,1.4-0.6,1.4-1.4V38.4z"/>
		</g>
		<g>
			
				<linearGradient id="SVGID_00000070823759657255457500000003972438750358265525_" gradientUnits="userSpaceOnUse" x1="41.5324" y1="23.8318" x2="51.6206" y2="23.8318">
				<stop  offset="1.552812e-03" style="stop-color:#036544"/>
				<stop  offset="1" style="stop-color:#02281F"/>
			</linearGradient>
			<ellipse style="fill:url(#SVGID_00000070823759657255457500000003972438750358265525_);" cx="46.6" cy="23.8" rx="5" ry="5.1"/>
			
				<linearGradient id="SVGID_00000120532764698380935300000012568197195736630704_" gradientUnits="userSpaceOnUse" x1="35.1925" y1="52.6947" x2="57.9607" y2="52.6947">
				<stop  offset="1.552812e-03" style="stop-color:#036544"/>
				<stop  offset="1" style="stop-color:#02281F"/>
			</linearGradient>
			<path style="fill:url(#SVGID_00000120532764698380935300000012568197195736630704_);" d="M56.1,35.3c0-2-1.6-3.7-3.6-3.7H40.7
				c-2,0-3.6,1.6-3.6,3.7l-1.8,17c0,0.9,0.7,1.6,1.6,1.6h0.5c0.9,0,1.6-0.7,1.6-1.6l1.8-10.9H41l-2.5,16.5c-0.1,0.6,0.4,1.2,1.1,1.2
				h1l3.6,14.2c0.1,0.2,0.3,0.4,0.5,0.4l1,0c0.3,0,0.6-0.2,0.6-0.5l0.2-14h0.4l0.2,14c0,0.3,0.2,0.5,0.5,0.5h1
				c0.3,0,0.5-0.2,0.5-0.4l3.6-14.2h1c0.7,0,1.2-0.6,1.1-1.2l-2.6-16.5h0.3l1.8,10.9c0,0.9,0.7,1.6,1.6,1.6h0.5
				c0.9,0,1.6-0.7,1.6-1.6L56.1,35.3z"/>
		</g>
	</g>
</g>
<g id="benefits" class="st0">
	<circle class="st3" cx="45.6" cy="45.6" r="45.6"/>
	<path class="st1" d="M44.9,76c-2.2-0.3-3.8-0.4-5.2-0.4c-4.2,0-6.8,1.1-10.8,4.3c-0.4,0.3-0.9,0.5-1.4,0.5c-0.6,0-1.1-0.2-1.6-0.6
		L15,68.9c-0.8-0.8-0.9-2.2-0.1-3c0,0,2-2.1,3.4-3.7c1.1-1.8,5.4-7.9,13.9-9.8h-8.4c-1.2,0-2.2-1-2.2-2.2V39.4c0,0,0,0,0,0
		c0,0,0,0,0,0c0-9.9,5.5-10.9,9.1-11.5c0.2,0,0.4-0.1,0.6-0.1c-1.8-2.1-3.3-6.9-1.7-10.5c0.6-1.5,2.3-4,6.6-4c4.3,0,6,2.5,6.6,4
		c1.5,3.6,0.1,8.4-1.7,10.5c0.2,0,0.4,0.1,0.6,0.1c0.4,0.1,0.8,0.1,1.3,0.2c0.9-0.6,1.8-1,2.7-1.2V0C20.4,0,0,20.4,0,45.6
		s20.4,45.6,45.6,45.6V76C45.4,76,45.1,76,44.9,76z"/>
	<g class="st5">
		
			<linearGradient id="SVGID_00000172417288805322644580000005716849260544818865_" gradientUnits="userSpaceOnUse" x1="23.27" y1="31.0701" x2="69.0762" y2="31.0701">
			<stop  offset="1.552812e-03" style="stop-color:#036544"/>
			<stop  offset="1" style="stop-color:#02281F"/>
		</linearGradient>
		<path style="fill:url(#SVGID_00000172417288805322644580000005716849260544818865_);" d="M38.9,50.6h0.5v-0.5v-0.2
			c0-0.9,0.4-2.2,0.9-2.9c0.1-0.1,1.9-2.6,6.4-2.6s6.4,2.5,6.4,2.6c0.5,0.7,0.9,2.1,0.9,2.9v0.2v0.5h0.5h14h0.5v-0.5V39.4
			c0-9.9-5.2-10.9-9.4-11.7l-0.4-0.1c-0.9-0.3-1.5-0.7-1.6-1.2c-0.1-0.4,0-0.9,0.3-1.5c0.1-0.1,0.1-0.1,0.2-0.2
			c1.7-1.7,3.3-6.5,1.8-9.9c-0.6-1.5-2.1-3.3-5.6-3.3c-3.5,0-5,1.8-5.6,3.3c-1.4,3.4,0.2,8.2,1.8,9.9c0.1,0.1,0.1,0.1,0.2,0.2
			c0.4,0.6,0.5,1.1,0.3,1.5c-0.2,0.5-0.7,0.9-1.7,1.3l0,0l-0.3,0.1c-2,0.4-4.2,0.8-6,2.2c-0.6-0.2-1.3-0.3-1.9-0.4
			c-0.3,0-0.6-0.1-0.8-0.2c-0.6-0.2-1.2-0.5-1.4-1.1c-0.1-0.4,0-0.8,0.3-1.3c0.1-0.1,0.1-0.1,0.2-0.2c1.5-1.5,2.9-5.9,1.6-8.9
			c-0.6-1.3-1.9-3-5-3c-3.1,0-4.5,1.6-5,3c-1.3,3,0.1,7.4,1.6,8.9c0.1,0.1,0.1,0.1,0.2,0.2c0.3,0.5,0.4,0.9,0.3,1.3
			c-0.2,0.5-0.9,0.9-1.5,1.1c-0.3,0.1-0.5,0.1-0.8,0.1c-3.6,0.6-7.7,1.4-7.7,9.8v0l0,0l0,0v10.7v0.5h0.5H38.9z M42.5,37.1
			c0-2.4,1.9-4.3,4.3-4.3s4.3,1.9,4.3,4.3c0,2.4-1.9,4.3-4.3,4.3S42.5,39.5,42.5,37.1z"/>
		
			<linearGradient id="SVGID_00000157300216942340775300000012357369519784735899_" gradientUnits="userSpaceOnUse" x1="15.8206" y1="65.5231" x2="74.3605" y2="65.5231">
			<stop  offset="1.552812e-03" style="stop-color:#036544"/>
			<stop  offset="1" style="stop-color:#02281F"/>
		</linearGradient>
		<path style="fill:url(#SVGID_00000157300216942340775300000012357369519784735899_);" d="M74.3,55.5c0-0.1-0.9-2.4-3.4-2.4
			c-1.2,0-2.6,0.6-4,1.6l-0.2,0.2c-3.3,2.4-10.1,7.4-16.8,7.6c-0.1,0-0.1,0-0.2,0c-0.5,0-1.1-0.1-1.2-0.5c-0.3-0.9,1-3,2.8-4.5
			c1.3-1.1,1.8-2.6,1.4-3.8c-0.4-1-1.4-1.6-2.7-1.6c-0.4,0-0.8,0-1.2,0.1l-0.6,0.1c-2.1,0.5-2.6,0.6-5.9,0.7
			c-1.5,0.1-2.4,0.1-3.3,0.2c-0.7,0.1-1.5,0.1-2.4,0.2c-10.8,0.5-15.8,8-16.8,9.7c-1.4,1.5-3.5,3.8-3.5,3.8l-0.3,0.4l0.3,0.3
			l10.9,10.9l0.3,0.3l0.4-0.3c4.3-3.5,7.3-4.7,11.9-4.7c1.5,0,3.2,0.1,5.4,0.4c0.4,0,0.7,0.1,1.1,0.1c5.4,0,12-4,15.4-6.4
			c5.3-3.7,10.1-8.2,12.6-11.9l0.1-0.2L74.3,55.5z"/>
	</g>
</g>
</svg>
