<?xml version="1.0" encoding="utf-8"?>
<!-- Generator: Adobe Illustrator 26.3.1, SVG Export Plug-In . SVG Version: 6.00 Build 0)  -->
<svg version="1.1" xmlns="http://www.w3.org/2000/svg" xmlns:xlink="http://www.w3.org/1999/xlink" x="0px" y="0px"
	 viewBox="0 0 91.3 91.3" style="enable-background:new 0 0 91.3 91.3;" xml:space="preserve">
<style type="text/css">
	.st0{display:none;}
	.st1{display:inline;fill:#43B868;}
	.st2{display:inline;fill:url(#SVGID_1_);}
	.st3{display:inline;fill:none;}
	.st4{display:inline;fill:url(#SVGID_00000031203077859894475640000009245196834018337168_);}
	.st5{display:inline;}
	.st6{fill:#FFFFFF;}
	
		.st7{display:inline;fill:#FFFFFF;stroke:#FFFFFF;stroke-width:3;stroke-linecap:round;stroke-linejoin:round;stroke-miterlimit:10;}
	.st8{fill:#424242;}
	.st9{fill:#43B868;}
	.st10{fill:url(#SVGID_00000008840576584580610590000017074824688001609385_);}
	.st11{fill:none;}
	.st12{fill:url(#SVGID_00000176745178692339133590000014447847665710860464_);}
	.st13{fill:url(#SVGID_00000093158640951423037010000004723271319728882857_);}
	.st14{fill:url(#SVGID_00000124155892280232841790000017149359009497068477_);}
	.st15{fill:url(#SVGID_00000080920213672009154340000002066515521724275875_);}
	.st16{fill:url(#SVGID_00000102540513511977020590000016785557773699063429_);}
	.st17{display:inline;fill:url(#SVGID_00000141428232779749827830000002275149482675234945_);}
	.st18{fill:url(#SVGID_00000020359383473715135020000015923071149460177081_);}
	.st19{fill:url(#SVGID_00000040566608240314827350000001314002127411115928_);}
	.st20{display:inline;fill:url(#SVGID_00000006694203258894447390000006354388272631572870_);}
	.st21{fill:url(#SVGID_00000026871380794497066340000015920480425198000782_);}
	.st22{fill:url(#SVGID_00000137815874281009970240000008458145423549963708_);}
	.st23{display:inline;fill:url(#SVGID_00000053521440005298594800000003950112823649111482_);}
	.st24{display:inline;fill:#FFFFFF;stroke:#FFFFFF;stroke-width:5;stroke-miterlimit:10;}
	.st25{display:inline;fill:url(#SVGID_00000073694588438929193400000003550586424459856009_);}
	.st26{display:inline;fill:url(#SVGID_00000166671793991851097490000000864876263526031499_);}
	.st27{display:inline;fill:#FFFFFF;}
	.st28{display:inline;fill:url(#SVGID_00000070811684441059862940000005344974113086918563_);}
	.st29{display:inline;fill:url(#SVGID_00000001636688493193842350000010795774745215867836_);}
	.st30{fill:#606161;}
	.st31{fill:url(#SVGID_00000007390629957928643150000001726958065945194398_);}
	.st32{fill:url(#SVGID_00000160161689899836144200000015445020187457910423_);}
	.st33{fill:url(#SVGID_00000183941191923967805990000015724076010955234184_);}
	.st34{fill:url(#SVGID_00000158726505357665235280000000696159732326107279_);}
	.st35{fill:url(#SVGID_00000054238520081719825430000004500507054335272605_);}
	.st36{fill:url(#SVGID_00000119814826388841766280000014756192374636428976_);}
	.st37{fill:url(#SVGID_00000005248314381842705850000003846879637797017994_);}
	.st38{fill:url(#SVGID_00000135649291450370826580000006901477653349246861_);}
	.st39{fill:url(#SVGID_00000012463269995994886750000012492230657283378861_);}
	.st40{fill:url(#SVGID_00000124154826470808465190000000873699647568816771_);}
	.st41{fill:url(#SVGID_00000158016723188726845520000015770172835231013054_);}
	.st42{fill:url(#SVGID_00000180364266194573919060000012545080638402594489_);}
	.st43{fill:url(#SVGID_00000054264141000135042350000009946720704590270850_);}
	.st44{fill:url(#SVGID_00000160892473117382317070000011703118370335894933_);}
</style>
<g id="Layer_1" class="st0">
	<path class="st1" d="M35.8,72.7c0-2.8,1.2-5.4,3.2-7.2H20.3c-1.8,0-3.3-1.5-3.3-3.3V26c0-1.8,1.5-3.3,3.3-3.3h25.4V0
		C20.4,0,0,20.4,0,45.6s20.4,45.6,45.6,45.6V74h-9.8V72.7z"/>
	<linearGradient id="SVGID_1_" gradientUnits="userSpaceOnUse" x1="31.1067" y1="18.9938" x2="60.1414" y2="69.2834">
		<stop  offset="1.552812e-03" style="stop-color:#036544"/>
		<stop  offset="1" style="stop-color:#02281F"/>
	</linearGradient>
	<path class="st2" d="M71.7,26v36.2c0,0.4-0.3,0.7-0.7,0.7H45.6H20.3c-0.4,0-0.7-0.3-0.7-0.7V26c0-0.4,0.3-0.7,0.7-0.7h25.4H71
		C71.4,25.4,71.7,25.7,71.7,26z M45.6,65.5c-3.5,0-6.5,2.5-7.1,5.9h7.1h7.1C52.1,68.1,49.1,65.5,45.6,65.5z"/>
	<circle class="st3" cx="45.6" cy="45.6" r="45.6"/>
</g>
<g id="Layer_1_copy" class="st0">
	<path class="st1" d="M45.6,0C20.4,0,0,20.4,0,45.6s20.4,45.6,45.6,45.6V0z"/>
	
		<linearGradient id="SVGID_00000130612543066214938420000003292574229570071968_" gradientUnits="userSpaceOnUse" x1="103.1067" y1="-77.0062" x2="132.1414" y2="-26.7166">
		<stop  offset="1.552812e-03" style="stop-color:#036544"/>
		<stop  offset="1" style="stop-color:#02281F"/>
	</linearGradient>
	<path style="display:inline;fill:url(#SVGID_00000130612543066214938420000003292574229570071968_);" d="M143.7-70v36.2
		c0,0.4-0.3,0.7-0.7,0.7h-25.4H92.3c-0.4,0-0.7-0.3-0.7-0.7V-70c0-0.4,0.3-0.7,0.7-0.7h25.4H143C143.4-70.6,143.7-70.3,143.7-70z
		 M117.6-30.5c-3.5,0-6.5,2.5-7.1,5.9h7.1h7.1C124.1-27.9,121.1-30.5,117.6-30.5z"/>
	<circle class="st3" cx="45.6" cy="45.6" r="45.6"/>
	<g class="st5">
		<g>
			<path class="st6" d="M53.6,51.6c-0.8,0-1.5-0.7-1.5-1.5v-0.2c0-0.7-0.4-1.8-0.7-2.3c-0.1-0.1-1.7-2.2-5.6-2.2
				c-4,0-5.6,2.1-5.6,2.2c-0.4,0.5-0.7,1.7-0.7,2.3v0.2c0,0.8-0.7,1.5-1.5,1.5H22.8c-0.8,0-1.5-0.7-1.5-1.5c0,0,0-10.8,0-10.8
				c0-9.3,4.9-10.2,8.6-10.8c0.2,0,0.5-0.1,0.7-0.1c0.6-0.2,0.8-0.4,0.8-0.4c0,0,0-0.1-0.1-0.3c0,0-0.1-0.1-0.1-0.1
				c-1.7-1.8-3.3-6.5-1.8-10c1-2.3,3.1-3.6,6-3.6c2.9,0,5,1.3,6,3.6c1.5,3.5-0.1,8.2-1.8,10c0,0-0.1,0.1-0.1,0.1
				c-0.1,0.2-0.1,0.3-0.1,0.3l0,0c0,0,0.1,0.2,0.7,0.4c0.3,0,0.5,0.1,0.8,0.1c0.5,0.1,1,0.2,1.5,0.3c1.9-1.3,4.1-1.7,6-2.1l0.2,0
				c0.7-0.3,1-0.5,1-0.6c0,0,0-0.2-0.2-0.5c-0.1-0.1-0.1-0.1-0.2-0.1c-1.9-1.9-3.6-7.2-2-11c1.1-2.5,3.4-3.9,6.5-3.9
				s5.5,1.4,6.5,3.9c1.6,3.8-0.1,9.1-2,11c-0.1,0.1-0.1,0.1-0.2,0.1c-0.2,0.4-0.2,0.5-0.2,0.5c0,0.1,0.3,0.3,0.9,0.6l0.3,0.1
				c4.3,0.8,10.3,1.9,10.3,12.7v10.7c0,0.8-0.7,1.5-1.5,1.5H53.6z M45.8,33.7c-1.8,0-3.3,1.5-3.3,3.3c0,1.8,1.5,3.3,3.3,3.3
				c1.8,0,3.3-1.5,3.3-3.3C49.2,35.2,47.7,33.7,45.8,33.7z"/>
			<path class="st6" d="M53.4,12c8,0,5.9,9.8,3.4,12.4c-0.1,0.1-0.2,0.2-0.2,0.2c-0.4,0.7-1.4,2.5,1.6,3.5c4.3,0.8,9.4,1.5,9.4,11.3
				h0v10.7h-14v-0.2c0-1-0.5-2.4-1-3.2c0,0-2-2.8-6.8-2.8c-4.9,0-6.8,2.8-6.8,2.8c-0.6,0.8-1,2.2-1,3.2v0.2H22.8V39.4h0
				c0,0,0,0,0-0.1c0-8.7,4.4-8.8,8.2-9.5l0,0c2.7-0.9,1.8-2.6,1.4-3.2c-0.1-0.1-0.1-0.1-0.2-0.2c-2.2-2.3-4.1-11,3-11
				c7.1,0,5.3,8.7,3,11c-0.1,0.1-0.1,0.1-0.2,0.2c-0.4,0.6-1.2,2.2,1.4,3.2c1,0.2,2,0.3,3,0.6c1.8-1.5,4.2-1.9,6.3-2.3l0,0
				c3-1,2-2.9,1.6-3.6c-0.1-0.1-0.2-0.1-0.2-0.2C47.5,21.8,45.5,12,53.4,12 M45.8,41.9c2.7,0,4.8-2.2,4.8-4.8c0-2.7-2.2-4.8-4.8-4.8
				c-2.7,0-4.8,2.2-4.8,4.8C41,39.8,43.1,41.9,45.8,41.9 M53.4,9c-5.1,0-7.1,3-7.9,4.8c-1.6,3.9-0.3,8.9,1.5,11.6
				c-1.7,0.3-3.6,0.8-5.3,1.8c-0.1,0-0.2,0-0.3-0.1c1.6-2.7,2.4-7.1,1.1-10.2c-1.2-2.9-3.9-4.5-7.3-4.5c-3.5,0-6.1,1.6-7.3,4.5
				c-1.3,3.1-0.6,7.5,1.1,10.2c-3.7,0.7-9.2,2.2-9.2,12.2c0,0,0,0,0,0c0,0,0,0,0,0v10.7c0,1.7,1.3,3,3,3h15.1c1.7,0,3-1.3,3-3v-0.2
				c0-0.3,0.2-1.1,0.4-1.4c0.2-0.2,1.5-1.6,4.4-1.6c2.9,0,4.2,1.3,4.4,1.6c0.2,0.3,0.4,1.1,0.4,1.4v0.2c0,1.7,1.3,3,3,3h14
				c1.7,0,3-1.3,3-3V39.4c0-11.3-6.4-13.2-10.7-14c1.8-2.8,3.1-7.7,1.5-11.6C60.6,12,58.6,9,53.4,9L53.4,9z M58.7,25.1L58.7,25.1
				L58.7,25.1L58.7,25.1z M45.8,38.9c-1,0-1.8-0.8-1.8-1.8c0-1,0.8-1.8,1.8-1.8c1,0,1.8,0.8,1.8,1.8C47.7,38.1,46.8,38.9,45.8,38.9
				L45.8,38.9z"/>
		</g>
		<g>
			<path class="st6" d="M26.4,79.7c-0.4,0-0.8-0.1-1.1-0.4L14.5,68.4c-0.6-0.6-0.6-1.5,0-2.1l3.4-3.7c1.2-1.9,6.5-9.6,17.6-10.1
				c1,0,1.7-0.1,2.4-0.2c0.9-0.1,1.8-0.1,3.3-0.2c3.2-0.1,3.6-0.2,5.7-0.7l0.6-0.1c0.5-0.1,1-0.2,1.4-0.2c1.7,0,3.1,0.8,3.6,2.2
				c0.6,1.6-0.1,3.5-1.7,4.9c-1.4,1.2-2.3,2.6-2.5,3.2c0.1,0,0.1,0,0.2,0l0.1,0c6.5-0.2,13.1-5.1,16.3-7.4l0.2-0.2
				c1.7-1.2,3.2-1.8,4.6-1.8c2.5,0,3.9,1.9,4.4,3c0.2,0.5,0.1,1-0.2,1.4c-5,7.4-19.7,18.8-28.9,18.8c0,0,0,0,0,0
				c-0.4,0-0.8,0-1.2-0.1c-2.2-0.3-3.9-0.4-5.3-0.4c-4.4,0-7.1,1.1-11.3,4.5C27.1,79.6,26.8,79.7,26.4,79.7z"/>
			<path class="st6" d="M48.9,52.6c2.6,0,3.1,2.7,0.9,4.5c-2.4,2-4.7,5.9-1.2,5.9c0.1,0,0.1,0,0.2,0c7.1-0.3,14.1-5.5,17.4-7.9
				c1.6-1.1,2.8-1.5,3.8-1.5c2.2,0,3,2.1,3,2.1C67.9,63,53.7,73.8,45.2,73.8c-0.4,0-0.7,0-1-0.1c-2.1-0.2-3.9-0.4-5.5-0.4
				c-4.8,0-7.9,1.3-12.2,4.8L15.5,67.3c0,0,2.1-2.3,3.5-3.8c1-1.6,5.8-9,16.4-9.5c2.1-0.1,3-0.2,5.7-0.4c3.6-0.1,3.9-0.3,6.6-0.9
				C48.2,52.7,48.5,52.6,48.9,52.6 M48.9,49.6C48.9,49.6,48.9,49.6,48.9,49.6c-0.6,0-1.1,0.1-1.7,0.2L46.5,50
				c-2.1,0.5-2.4,0.5-5.4,0.7c-1.5,0.1-2.5,0.1-3.4,0.2C37,50.9,36.3,51,35.3,51C23.7,51.5,18,59.4,16.6,61.7
				c-1.4,1.5-3.3,3.6-3.3,3.6c-1.1,1.2-1,3,0.1,4.2l10.9,10.9c0.6,0.6,1.4,0.9,2.1,0.9c0.7,0,1.3-0.2,1.9-0.7
				c3.9-3.2,6.3-4.2,10.3-4.2c1.4,0,3,0.1,5.1,0.4c0.4,0.1,0.9,0.1,1.4,0.1c9.8,0,24.8-11.6,30.1-19.5c0.5-0.8,0.7-1.8,0.3-2.7
				c-0.6-1.5-2.4-4-5.8-4c-1.7,0-3.6,0.7-5.5,2.1l-0.2,0.2c-2.6,1.9-7.5,5.5-12.6,6.7c0.1-0.1,0.1-0.1,0.2-0.2
				c2.1-1.8,2.9-4.4,2.1-6.6C53.1,50.9,51.2,49.6,48.9,49.6L48.9,49.6z"/>
		</g>
	</g>
	<rect x="38.3" y="32.3" class="st7" width="18" height="23"/>
	<g class="st5">
		<g>
			<path class="st8" d="M109.9,49.9c0-1,0.5-2.4,1-3.2c0,0,2-2.8,6.8-2.8c4.9,0,6.8,2.8,6.8,2.8c0.6,0.8,1,2.2,1,3.2v0.2h14V39.4h0
				c0-9.8-5.1-10.5-9.4-11.3c-2.9-1-2-2.9-1.6-3.5c0.1-0.1,0.2-0.1,0.2-0.2c2.5-2.5,4.6-12.4-3.4-12.4c-8,0-5.9,9.8-3.4,12.4
				c0.1,0.1,0.2,0.2,0.2,0.2c0.4,0.7,1.4,2.5-1.6,3.6l0,0c-2.2,0.4-4.5,0.8-6.3,2.3c-1-0.3-2-0.4-3-0.6c-2.6-0.9-1.8-2.6-1.4-3.2
				c0.1-0.1,0.1-0.1,0.2-0.2c2.2-2.3,4.1-11-3-11c-7.1,0-5.3,8.7-3,11c0.1,0.1,0.1,0.1,0.2,0.2c0.4,0.6,1.3,2.3-1.4,3.2l0,0
				c-3.8,0.7-8.2,0.8-8.2,9.5c0,0,0,0,0,0.1h0v10.7h15.1V49.9z M117.8,32.2c2.7,0,4.8,2.2,4.8,4.8c0,2.7-2.2,4.8-4.8,4.8
				c-2.7,0-4.8-2.2-4.8-4.8C113,34.4,115.1,32.2,117.8,32.2z"/>
		</g>
		<g>
			<path class="st8" d="M138.1,55.2c-3.2,2.4-10.3,7.6-17.4,7.9c-3.8,0.1-1.4-3.8,1.1-5.9c2.4-2.1,1.6-5.2-2-4.4
				c-2.7,0.6-3,0.7-6.6,0.9c-2.7,0.1-3.6,0.3-5.7,0.4C96.9,54.4,92,61.8,91,63.5c-1.4,1.6-3.5,3.8-3.5,3.8l10.9,10.9
				c5.8-4.8,9.4-5.4,17.7-4.5c8.3,1,23.5-10.5,28.7-18.1C144.8,55.7,143.2,51.4,138.1,55.2z"/>
		</g>
	</g>
</g>
<g id="disability">
	<path class="st9" d="M45.6,0C20.4,0,0,20.4,0,45.6s20.4,45.6,45.6,45.6V0z"/>
	
		<linearGradient id="SVGID_00000067196230221344249080000010411153295069873303_" gradientUnits="userSpaceOnUse" x1="103.1067" y1="-77.0062" x2="132.1414" y2="-26.7166">
		<stop  offset="1.552812e-03" style="stop-color:#036544"/>
		<stop  offset="1" style="stop-color:#02281F"/>
	</linearGradient>
	<path style="fill:url(#SVGID_00000067196230221344249080000010411153295069873303_);" d="M143.7-70v36.2c0,0.4-0.3,0.7-0.7,0.7
		h-25.4H92.3c-0.4,0-0.7-0.3-0.7-0.7V-70c0-0.4,0.3-0.7,0.7-0.7h25.4H143C143.4-70.6,143.7-70.3,143.7-70z M117.6-30.5
		c-3.5,0-6.5,2.5-7.1,5.9h7.1h7.1C124.1-27.9,121.1-30.5,117.6-30.5z"/>
	<circle class="st11" cx="45.6" cy="45.6" r="45.6"/>
	<path class="st6" d="M76.9,62.9L76.9,62.9l-0.2-0.1l-8.4-6.8c1.1-1.1,1.3-2.8,0.4-4l-2.4-3.5l1.7-3c0.6-1,0.6-2.2,0-3.2
		c-0.6-1-1.6-1.5-2.7-1.5l-2.9,0l-0.8-4.5c-0.2-1.2-1.1-2.1-2.2-2.5c-0.3-0.1-0.6-0.1-0.9-0.1c0,0,0,0,0,0c0,0,0,0,0,0
		c-1,0-1.9,0.5-2.5,1.3l-2.7,3.6l-2.7-1.2c-0.4-0.2-0.9-0.3-1.4-0.3c-0.7,0-1.5,0.3-2,0.7c-0.8,0.7-1.2,1.8-1.1,2.9l0,0.1l0,0.1
		l0.6,3.4L44,45.5c0.5-2.2,0.9-4.6,1.1-5.9c0.2-1.6,0.1-3.2-0.4-4.6c0.3,0,0.5,0,0.8,0c6.5,0,11.9-5.3,11.9-11.9
		s-5.3-11.9-11.9-11.9c-6.5,0-11.9,5.3-11.9,11.9c0,1.9,0.4,3.6,1.2,5.2c-0.1,0-0.3,0-0.4,0c-3.1,0-6.1,1.2-8.3,3.3
		c-3.1,3-5.3,7.6-6.8,15c-2.3,10.9-1.3,20.5,2.7,24.6c2.8,2.9,5.9,4.4,9.4,4.4c2.3,0,4.8-0.7,7.5-2c2-1,6.2-3.4,9.9-5.6l1.1,0.8
		l10.3,7.5l0.1,0.1l0.1,0.1c0.3,0.2,1.6,0.9,3.5,0.9c1.8,0,3.5-0.7,4.9-2.1l0.5-0.5c0.9,0.4,1.9,0.7,2.9,0.7c2.1,0,4.1-1,5.5-2.8
		C79.9,69.6,79.7,65.5,76.9,62.9z M54.5,44.2C54.5,44.2,54.5,44.2,54.5,44.2C54.5,44.2,54.5,44.2,54.5,44.2
		C54.5,44.2,54.5,44.2,54.5,44.2z"/>
	<g>
		
			<linearGradient id="SVGID_00000152947240776511235100000015191493747033872273_" gradientUnits="userSpaceOnUse" x1="44.616" y1="45.7576" x2="67.2872" y2="45.7576">
			<stop  offset="1.552812e-03" style="stop-color:#036544"/>
			<stop  offset="1" style="stop-color:#02281F"/>
		</linearGradient>
		<path style="fill:url(#SVGID_00000152947240776511235100000015191493747033872273_);" d="M49.9,40.1c-0.2-0.1-0.6,0-0.7,0.1
			c-0.2,0.1-0.3,0.4-0.2,0.6l1,5.2l-5.1,2.6c-0.2,0.1-0.4,0.5-0.3,0.7c0.2,0.6,0.7,0.5,0.7,0.5l4.5-1.4l2.1-1.1
			c0.3-0.1,0.4-0.4,0.3-0.7l-0.6-3.4l3,1.3c0.4,0.2,0.7-0.1,0.8-0.2l2.7-3.4l0.8,4.3c0.1,0.3,0.3,0.5,0.6,0.5l3.5,0l-1.5,3
			c-0.1,0.2-0.1,0.4,0,0.6l1.9,3l2.6,2.3c0.4,0.4,0.8,0.2,1,0c0.3-0.3,0.2-0.7,0.1-0.8L63.9,49l2.4-4.3c0.1-0.2,0.1-0.5,0-0.7
			c-0.1-0.2-0.3-0.3-0.6-0.3l-4.9,0l-1.2-6.5c0-0.3-0.2-0.5-0.5-0.5c-0.1,0-0.5-0.1-0.7,0.2l-4,5.3L49.9,40.1z"/>
		
			<linearGradient id="SVGID_00000038374784553485369230000017761194153019100825_" gradientUnits="userSpaceOnUse" x1="36.648" y1="23.6206" x2="55.3729" y2="23.6206">
			<stop  offset="1.552812e-03" style="stop-color:#036544"/>
			<stop  offset="1" style="stop-color:#02281F"/>
		</linearGradient>
		<path style="fill:url(#SVGID_00000038374784553485369230000017761194153019100825_);" d="M46,33c5.2,0,9.4-4.2,9.4-9.4
			c0-5.2-4.2-9.4-9.4-9.4c-5.2,0-9.4,4.2-9.4,9.4C36.6,28.8,40.8,33,46,33z"/>
		
			<linearGradient id="SVGID_00000141427785897818960300000001529360000698720174_" gradientUnits="userSpaceOnUse" x1="53.9079" y1="61.5858" x2="77.1786" y2="61.5858">
			<stop  offset="1.552812e-03" style="stop-color:#036544"/>
			<stop  offset="1" style="stop-color:#02281F"/>
		</linearGradient>
		<path style="fill:url(#SVGID_00000141427785897818960300000001529360000698720174_);" d="M54.9,49.9c-0.4,0-0.7,0-1,0.1
			c1.2,0.4,2.3,1.2,3.1,2.2c1.1,1.5,1.6,3.2,1.4,5c-0.4,2.5-1.5,4.2-3.1,5.2l15.3,10.4c0.6,0.3,1.3,0.5,2,0.5c1.2,0,2.5-0.5,3.6-1.9
			c1.5-1.9,1.4-4.5-0.5-6.2L58,50.9C57.1,50.2,56,49.9,54.9,49.9z"/>
		
			<linearGradient id="SVGID_00000001638309455833777650000016202717592787572400_" gradientUnits="userSpaceOnUse" x1="51.8163" y1="70.3501" x2="67.3741" y2="70.3501">
			<stop  offset="1.552812e-03" style="stop-color:#036544"/>
			<stop  offset="1" style="stop-color:#02281F"/>
		</linearGradient>
		<path style="fill:url(#SVGID_00000001638309455833777650000016202717592787572400_);" d="M51.8,67.2l10.3,7.5c0,0,0.9,0.6,2.2,0.6
			c0.9,0,2-0.3,3.1-1.4l-12.6-8.5C54,65.9,53,66.5,51.8,67.2z"/>
		
			<linearGradient id="SVGID_00000175325121727180550990000009119333216260175249_" gradientUnits="userSpaceOnUse" x1="21.0344" y1="52.4035" x2="55.6751" y2="52.4035">
			<stop  offset="1.552812e-03" style="stop-color:#036544"/>
			<stop  offset="1" style="stop-color:#02281F"/>
		</linearGradient>
		<path style="fill:url(#SVGID_00000175325121727180550990000009119333216260175249_);" d="M38.2,71.8c2.9-1.5,11.3-6.5,15-8.6
			c-0.7,0.2-1.8,0.1-2.3,0.1l-15.9-1.6c-2-0.2-3.8-1.3-5-2.9c-1.2-1.7-1.2-3.6-1.1-5.2l1-10.6l2.8-0.2c0,0-1.1,7.6-1.1,11
			c0,2.6,0.2,4.5,3.6,5.1l16.2,1.6c2.4,0,3.5-0.7,4.1-3.2c0.7-2.8-1.5-4.8-3.6-5l-11.1-1.1c0,0,1.9-8.4,2.3-11.5
			c1.1-7.6-9-11.3-14.9-5.8c-2.3,2.2-4.4,5.9-6.1,13.7c-2.3,11-0.9,19.3,2,22.3C28.6,74.5,33.3,74.2,38.2,71.8z"/>
	</g>
</g>
<g id="insurance" class="st0">
	<path class="st1" d="M45.6,0C20.4,0,0,20.4,0,45.6s20.4,45.6,45.6,45.6V0z"/>
	
		<linearGradient id="SVGID_00000170270169462845632330000009530641258938508204_" gradientUnits="userSpaceOnUse" x1="103.1067" y1="-77.0062" x2="132.1414" y2="-26.7166">
		<stop  offset="1.552812e-03" style="stop-color:#036544"/>
		<stop  offset="1" style="stop-color:#02281F"/>
	</linearGradient>
	<path style="display:inline;fill:url(#SVGID_00000170270169462845632330000009530641258938508204_);" d="M143.7-70v36.2
		c0,0.4-0.3,0.7-0.7,0.7h-25.4H92.3c-0.4,0-0.7-0.3-0.7-0.7V-70c0-0.4,0.3-0.7,0.7-0.7h25.4H143C143.4-70.6,143.7-70.3,143.7-70z
		 M117.6-30.5c-3.5,0-6.5,2.5-7.1,5.9h7.1h7.1C124.1-27.9,121.1-30.5,117.6-30.5z"/>
	<circle class="st3" cx="45.6" cy="45.6" r="45.6"/>
	<g class="st5">
		<path class="st6" d="M49.8,54.4v-2h-2h-4.6h-2l0,2l0,10.9c0,0.5-0.2,1.4-0.6,1.8c-0.2,0.2-0.7,0.3-1.4,0.3c-1.5,0-1.9-1.5-1.9-2.7
			c0-2.3-1.9-4.3-4.3-4.3s-4.3,1.9-4.3,4.3c0,4.5,2.8,11.3,10.4,11.3c3.8,0,6.2-1.6,7.5-2.9c3-3.1,3-7.2,3-7.9V54.4z"/>
		<path class="st6" d="M70,30.2c-5.2-5.1-12.2-8.4-20-9.2l-1.2-4.5c-0.3-1.4-1.4-2.7-3-2.7c-1.7,0-2.7,1.4-3,2.8L41.6,21
			c-7.8,0.8-14.9,4.1-20.1,9.2c-5.8,5.7-8.9,13.3-8.9,21.8v2h2h18.3h2v-2v-5.2c0-1.3,1.1-2.4,2.4-2.4h2v0H41l3.2,4.3l1.6,2.1
			l1.6-2.1l3.2-4.3h1.7l2,0c1.3,0,2.4,1.1,2.4,2.4V52v2h2h18.1h2v-2C78.8,43.5,75.7,35.9,70,30.2z"/>
	</g>
	<g class="st5">
		
			<linearGradient id="SVGID_00000096017942594304660710000011746966340349519760_" gradientUnits="userSpaceOnUse" x1="30.8397" y1="64.2088" x2="47.8103" y2="64.2088">
			<stop  offset="1.552812e-03" style="stop-color:#036544"/>
			<stop  offset="1" style="stop-color:#02281F"/>
		</linearGradient>
		<path style="fill:url(#SVGID_00000096017942594304660710000011746966340349519760_);" d="M47.8,54.4h-4.6l0,10.9
			c0,0.6-0.2,2.3-1.2,3.2c-0.6,0.6-1.5,0.9-2.8,0.9c-3.7,0-3.9-3.9-3.9-4.7c0-1.3-1-2.3-2.3-2.3c-1.3,0-2.3,1-2.3,2.3
			c0,3.2,1.8,9.3,8.4,9.3c3.1,0,5-1.3,6.1-2.3c2.5-2.5,2.4-6.1,2.4-6.4V54.4z"/>
		
			<linearGradient id="SVGID_00000011024994629196771710000006204730108791269301_" gradientUnits="userSpaceOnUse" x1="14.6619" y1="33.8616" x2="76.801" y2="33.8616">
			<stop  offset="1.552812e-03" style="stop-color:#036544"/>
			<stop  offset="1" style="stop-color:#02281F"/>
		</linearGradient>
		<path style="fill:url(#SVGID_00000011024994629196771710000006204730108791269301_);" d="M32.9,46.8c0-2.4,2-4.4,4.4-4.4v0H42
			l3.8,5.1l3.8-5.1h4.7v0c2.5,0,4.4,2,4.4,4.4V52c11.8,0,18.1,0,18.1,0c0-16.5-12.5-28-28.5-29.1L46.8,17c0,0-0.3-1.2-1.1-1.2
			c-0.8,0-1,1.3-1,1.3l-1.5,5.8c-16,1.1-28.6,12.6-28.6,29.1c0,0,6.5,0,18.3,0V46.8z M45.8,29.3c2.9,0,5.2,2.3,5.2,5.1
			c0,2.8-2.3,5.1-5.2,5.1c-2.9,0-5.2-2.3-5.2-5.1C40.6,31.6,43,29.3,45.8,29.3z"/>
	</g>
</g>
<g id="tuitiuon" class="st0">
	
		<linearGradient id="SVGID_00000133503465616586263300000009056237310781467062_" gradientUnits="userSpaceOnUse" x1="103.1067" y1="-77.0062" x2="132.1414" y2="-26.7166">
		<stop  offset="1.552812e-03" style="stop-color:#036544"/>
		<stop  offset="1" style="stop-color:#02281F"/>
	</linearGradient>
	<path style="display:inline;fill:url(#SVGID_00000133503465616586263300000009056237310781467062_);" d="M143.7-70v36.2
		c0,0.4-0.3,0.7-0.7,0.7h-25.4H92.3c-0.4,0-0.7-0.3-0.7-0.7V-70c0-0.4,0.3-0.7,0.7-0.7h25.4H143C143.4-70.6,143.7-70.3,143.7-70z
		 M117.6-30.5c-3.5,0-6.5,2.5-7.1,5.9h7.1h7.1C124.1-27.9,121.1-30.5,117.6-30.5z"/>
	<circle class="st3" cx="45.6" cy="45.6" r="45.6"/>
	<path class="st1" d="M45.4,71.8c-13.1,0-19.4-7.9-19.6-8.2c-1.4-1.9-2-4.8-1.4-7.1l3.1-10.7l0-0.1L16,40c-2.5-1.2-2.8-3.2-2.7-4
		c0.1-1.7,1.2-3.1,3-3.8l25.8-10.7c1.2-0.5,2.5-0.7,3.5-0.7V0C20.4,0,0,20.4,0,45.6s20.4,45.6,45.6,45.6V71.7
		C45.5,71.7,45.5,71.8,45.4,71.8z"/>
	<g class="st5">
		
			<linearGradient id="SVGID_00000042008587339647239940000014042414049455359402_" gradientUnits="userSpaceOnUse" x1="28.1361" y1="57.6588" x2="64.5237" y2="57.6588">
			<stop  offset="1.552812e-03" style="stop-color:#036544"/>
			<stop  offset="1" style="stop-color:#02281F"/>
		</linearGradient>
		<path style="fill:url(#SVGID_00000042008587339647239940000014042414049455359402_);" d="M61.4,47.1l-10.8,5.3
			c-1,0.5-2.3,0.8-3.7,0.8c-1.4,0-2.7-0.3-3.7-0.8l-11.9-5.8l-3.1,10.7c-0.4,1.3,0,3.3,0.9,4.4c0,0,5.5,7,17.2,7
			c12.7,0,17.3-6.9,17.3-6.9c0.8-1.2,1.1-3.2,0.7-4.6L61.4,47.1z"/>
		
			<linearGradient id="SVGID_00000028306074718641667880000012650355521872119178_" gradientUnits="userSpaceOnUse" x1="17.2961" y1="49.2582" x2="76.5736" y2="49.2582">
			<stop  offset="1.552812e-03" style="stop-color:#036544"/>
			<stop  offset="1" style="stop-color:#02281F"/>
		</linearGradient>
		<path style="fill:url(#SVGID_00000028306074718641667880000012650355521872119178_);" d="M75.4,34.9L49.6,24.2
			c-1.5-0.6-3.9-0.6-5.4,0L18.4,34.9c-1.5,0.6-1.5,1.7-0.1,2.4l26,12.8c1.4,0.7,3.8,0.7,5.2,0l21.9-10.7v16.3h-0.8l-1.2,19.2h6.1
			l-1.2-19.2h-0.8V38.4c0,0,0-0.1,0-0.1l2.1-1C77,36.6,76.9,35.5,75.4,34.9z"/>
	</g>
</g>
<g id="dental" class="st0">
	<path class="st1" d="M45.6,0C20.4,0,0,20.4,0,45.6s20.4,45.6,45.6,45.6V0z"/>
	
		<linearGradient id="SVGID_00000032611399720454714750000017512871177652470713_" gradientUnits="userSpaceOnUse" x1="103.1067" y1="-77.0062" x2="132.1414" y2="-26.7166">
		<stop  offset="1.552812e-03" style="stop-color:#036544"/>
		<stop  offset="1" style="stop-color:#02281F"/>
	</linearGradient>
	<path style="display:inline;fill:url(#SVGID_00000032611399720454714750000017512871177652470713_);" d="M143.7-70v36.2
		c0,0.4-0.3,0.7-0.7,0.7h-25.4H92.3c-0.4,0-0.7-0.3-0.7-0.7V-70c0-0.4,0.3-0.7,0.7-0.7h25.4H143C143.4-70.6,143.7-70.3,143.7-70z
		 M117.6-30.5c-3.5,0-6.5,2.5-7.1,5.9h7.1h7.1C124.1-27.9,121.1-30.5,117.6-30.5z"/>
	<circle class="st3" cx="45.6" cy="45.6" r="45.6"/>
	<path class="st24" d="M56.3,75.8c-5.7,0-5.7-13.4-5.7-13.5c0-3.7-2.7-8.3-4.9-8.3c-2.2,0-4.9,4.6-4.9,8.3c0,0.1-0.1,13.5-5.7,13.5
		c-4.3,0-4.6-11-4.6-14.3v-2.3c0-5.5-0.8-10.9-2.4-15.9c-1.4-4.5-1.9-10.1-1.9-12.1c0-3.5,2.2-8.7,8.1-8.7c4.8,0,10.2,1.5,11.5,1.9
		c1.3-0.4,6.7-1.9,11.5-1.9c6,0,8.1,5.2,8.1,8.7c0,2-0.5,7.7-1.9,12.1c-1.6,5-2.4,10.4-2.4,15.9v2.3C60.9,64.8,60.6,75.8,56.3,75.8z
		"/>
	
		<linearGradient id="SVGID_00000073707007356450916180000001115769305648905407_" gradientUnits="userSpaceOnUse" x1="26.0677" y1="49.0285" x2="65.2062" y2="49.0285">
		<stop  offset="1.552812e-03" style="stop-color:#036544"/>
		<stop  offset="1" style="stop-color:#02281F"/>
	</linearGradient>
	<path style="display:inline;fill:url(#SVGID_00000073707007356450916180000001115769305648905407_);" d="M56.3,75.8
		c-5.7,0-5.7-13.4-5.7-13.5c0-3.7-2.7-8.3-4.9-8.3c-2.2,0-4.9,4.6-4.9,8.3c0,0.1-0.1,13.5-5.7,13.5c-4.3,0-4.6-11-4.6-14.3v-2.3
		c0-5.5-0.8-10.9-2.4-15.9c-1.4-4.5-1.9-10.1-1.9-12.1c0-3.5,2.2-8.7,8.1-8.7c4.8,0,10.2,1.5,11.5,1.9c1.3-0.4,6.7-1.9,11.5-1.9
		c6,0,8.1,5.2,8.1,8.7c0,2-0.5,7.7-1.9,12.1c-1.6,5-2.4,10.4-2.4,15.9v2.3C60.9,64.8,60.6,75.8,56.3,75.8z"/>
</g>
<g id="employee_assistance" class="st0">
	
		<linearGradient id="SVGID_00000132806820973787292650000009798628304569633699_" gradientUnits="userSpaceOnUse" x1="103.1067" y1="-77.0062" x2="132.1414" y2="-26.7166">
		<stop  offset="1.552812e-03" style="stop-color:#036544"/>
		<stop  offset="1" style="stop-color:#02281F"/>
	</linearGradient>
	<path style="display:inline;fill:url(#SVGID_00000132806820973787292650000009798628304569633699_);" d="M143.7-70v36.2
		c0,0.4-0.3,0.7-0.7,0.7h-25.4H92.3c-0.4,0-0.7-0.3-0.7-0.7V-70c0-0.4,0.3-0.7,0.7-0.7h25.4H143C143.4-70.6,143.7-70.3,143.7-70z
		 M117.6-30.5c-3.5,0-6.5,2.5-7.1,5.9h7.1h7.1C124.1-27.9,121.1-30.5,117.6-30.5z"/>
	<circle class="st3" cx="45.6" cy="45.6" r="45.6"/>
	<g class="st5">
		<g>
			<path class="st8" d="M119.9,51.9c0-1,0.5-2.4,1-3.2c0,0,2-2.8,6.8-2.8c4.9,0,6.8,2.8,6.8,2.8c0.6,0.8,1,2.2,1,3.2v0.2h14V41.4h0
				c0-9.8-5.1-10.5-9.4-11.3c-2.9-1-2-2.9-1.6-3.5c0.1-0.1,0.2-0.1,0.2-0.2c2.5-2.5,4.6-12.4-3.4-12.4c-8,0-5.9,9.8-3.4,12.4
				c0.1,0.1,0.2,0.2,0.2,0.2c0.4,0.7,1.4,2.5-1.6,3.6l0,0c-2.2,0.4-4.5,0.8-6.3,2.3c-1-0.3-2-0.4-3-0.6c-2.6-0.9-1.8-2.6-1.4-3.2
				c0.1-0.1,0.1-0.1,0.2-0.2c2.2-2.3,4.1-11-3-11c-7.1,0-5.3,8.7-3,11c0.1,0.1,0.1,0.1,0.2,0.2c0.4,0.6,1.3,2.3-1.4,3.2l0,0
				c-3.8,0.7-8.2,0.8-8.2,9.5c0,0,0,0,0,0.1h0v10.7h15.1V51.9z M127.8,34.2c2.7,0,4.8,2.2,4.8,4.8c0,2.7-2.2,4.8-4.8,4.8
				c-2.7,0-4.8-2.2-4.8-4.8C123,36.4,125.1,34.2,127.8,34.2z"/>
		</g>
		<g>
			<path class="st8" d="M148.1,57.2c-3.2,2.4-10.3,7.6-17.4,7.9c-3.8,0.1-1.4-3.8,1.1-5.9c2.4-2.1,1.6-5.2-2-4.4
				c-2.7,0.6-3,0.7-6.6,0.9c-2.7,0.1-3.6,0.3-5.7,0.4c-10.6,0.4-15.5,7.9-16.4,9.5c-1.4,1.6-3.5,3.8-3.5,3.8l10.9,10.9
				c5.8-4.8,9.4-5.4,17.7-4.5c8.3,1,23.5-10.5,28.7-18.1C154.8,57.7,153.2,53.4,148.1,57.2z"/>
		</g>
	</g>
	<path class="st1" d="M42.6,71.5c-0.9,0.4-1.9,0.7-3,0.7c-0.5,0-1.1-0.1-1.7-0.2c-1.7-0.3-3.1-1.2-3.9-2.6c-1.1-0.1-2.2-0.4-3.2-1.1
		c-1.3-0.8-2.1-1.8-2.6-2.6c-1.4-0.1-2.7-0.6-3.9-1.5c-1-0.7-1.8-1.6-2.3-2.8c-1-0.3-2.4-1-3.5-2.5c-1.3-1.6-2.3-4.2-0.4-7.9l-0.9-1
		c-2.5-2.8-5-5.7-5.5-6.2l-1.3-1.2L9,41.3l1.3-1.5l14.1-16.4l1-1.2l1.4,0.7l1.2,0.6c0.1,0,5.8,2.8,11.2,4.2c0.9,0.2,2,0.6,3.1,1
		c1.1-0.2,2.2-0.4,3.3-0.6V0C20.4,0,0,20.4,0,45.6s20.4,45.6,45.6,45.6v-19C44.6,72.1,43.6,71.9,42.6,71.5z"/>
	<polygon class="st27" points="14.8,40.8 26.8,27.8 40.8,32.8 55.8,37.8 69.8,50.8 70.8,54.8 68.8,58.8 47.8,68.8 41.8,66.8 	"/>
	
		<linearGradient id="SVGID_00000138563693370929905530000016416981045589030587_" gradientUnits="userSpaceOnUse" x1="11.801" y1="47.5271" x2="84.7148" y2="47.5271">
		<stop  offset="1.552812e-03" style="stop-color:#036544"/>
		<stop  offset="1" style="stop-color:#02281F"/>
	</linearGradient>
	<path style="display:inline;fill:url(#SVGID_00000138563693370929905530000016416981045589030587_);" d="M84.7,44.5L83.6,43
		L72.2,27.5l-1-1.3L69.8,27l-8.6,5.3c-2.1-0.7-7.4-2.5-9.5-2.7c-0.3,0-0.6,0-0.9,0c-0.7,0-4.9,0.3-8.5,1.2c-1.2-0.4-2.4-0.8-3.5-1.1
		c-5.6-1.5-11.5-4.3-11.6-4.3l-1.2-0.6L11.8,41.2l1.3,1.2c0.6,0.5,2.9,3.2,5.7,6.3c0.6,0.7,1.2,1.4,1.9,2.1c-1.3,2-2.4,4.6-0.5,6.9
		c1.2,1.5,2.6,1.9,3.5,2.1c0.2,0.8,0.6,2.1,1.9,2.9c1,0.7,2,1.1,3.1,1.1c0.3,0,0.6,0,0.8-0.1c0,0,0.1,0.1,0.1,0.1
		c0.4,0.8,1,1.9,2.4,2.9c0.8,0.5,1.6,0.7,2.4,0.7c0.3,0,0.6,0,0.8-0.1c0.5,1.5,1.5,2.4,3.1,2.7c0.5,0.1,1,0.1,1.4,0.1
		c1.3,0,2.1-0.4,2.8-0.9c0.4,0.2,0.6,0.3,0.8,0.3c1.2,0.5,2.3,0.8,3.6,0.8c0.8,0,1.7-0.1,2.8-0.3c2.9-0.6,18.9-8.8,21.2-11.3
		c1.2-1.3,1.9-3.8,1.7-5.7l10.7-7.3L84.7,44.5z M68.1,56.3c-0.1,0.2-0.4,0.4-0.7,0.6L56,46.4L53.6,49l10.7,9.8
		c-1,0.6-2.2,1.2-3.4,1.9L51,51.7l-2.4,2.6l8.9,8.2c-1.2,0.6-2.4,1.2-3.5,1.8L46.1,57l-2.4,2.6l6.7,6.2c-0.7,0.3-1.3,0.5-1.7,0.6
		c-1.8,0.4-2.9,0.4-4.1-0.2l-0.1,0c0,0-0.1,0-0.3-0.1c0.2-2.5-1.6-5.3-2.9-6.2c-0.6-0.4-1.2-0.8-2-0.8c0-1.6-0.4-3.2-1.8-4.5l0,0
		l0,0c-0.7-0.6-1.5-0.9-2.2-0.9c-0.2,0-0.3,0-0.5,0c0.1-1,0-2-0.3-2.8c-0.4-1-1.1-1.7-2-2.1c-0.5-0.2-1-0.3-1.5-0.3
		c-0.9,0-1.6,0.3-2.1,0.7c0,0,0-0.1,0-0.1c-0.2-1.1-0.7-1.8-1.4-2.3l0,0l0,0c-0.4-0.2-0.9-0.5-1.7-0.5c-1.3,0-2.1,0.8-2.9,1.7
		c-0.5-0.6-1-1.1-1.4-1.6c-2.2-2.5-3.7-4.2-4.7-5.3l10.2-11.8c2,0.9,6.1,2.7,10.3,3.8c-0.2,0.2-0.3,0.4-0.4,0.5
		c-0.3,0.6-0.3,1.4,0,2c0.2,0.7,1,2.3,2.8,3.2l0.2,0.1c1,0.5,2.1,1.1,3.9,1.1c1.5,0,3.1-0.4,5.3-1.3c0,0,0.2-0.1,0.5-0.1
		c0.3,0,0.8,0.1,1.3,0.2c2.6,1.4,4.5,2.6,4.9,2.8c2.9,2.3,7.8,6.3,11.9,9.8c0.6,0.7,1.1,1.3,1.4,1.8C69.1,53.7,68.7,55.5,68.1,56.3z
		"/>
</g>
<g id="Layer_1_copy_2" class="st0">
	
		<linearGradient id="SVGID_00000151508777866064376350000002238282962512161939_" gradientUnits="userSpaceOnUse" x1="103.1067" y1="-77.0062" x2="132.1414" y2="-26.7166">
		<stop  offset="1.552812e-03" style="stop-color:#036544"/>
		<stop  offset="1" style="stop-color:#02281F"/>
	</linearGradient>
	<path style="display:inline;fill:url(#SVGID_00000151508777866064376350000002238282962512161939_);" d="M143.7-70v36.2
		c0,0.4-0.3,0.7-0.7,0.7h-25.4H92.3c-0.4,0-0.7-0.3-0.7-0.7V-70c0-0.4,0.3-0.7,0.7-0.7h25.4H143C143.4-70.6,143.7-70.3,143.7-70z
		 M117.6-30.5c-3.5,0-6.5,2.5-7.1,5.9h7.1h7.1C124.1-27.9,121.1-30.5,117.6-30.5z"/>
	<circle class="st3" cx="45.6" cy="45.6" r="45.6"/>
	<g class="st5">
		<path class="st9" d="M31,59.4h-1.5h-2.6l0.8,1.1c4.1,5.5,10.2,8.7,17,8.7c0.3,0,0.7,0,1,0V21.4c-0.1,0-0.1,0-0.2,0
			c-5,0-9.9,1.9-13.8,5.2l2,1.7l2.5,2.1L33,30.8l-8.4,1.4c0.9,1.4,1.5,3,1.5,4.8c0,3.1-1.7,5.8-4.1,7.2c5.5,1.2,9,4.9,9,9.8v3.9
			V59.4z"/>
		<path class="st9" d="M44.6,75.2c-8.7,0-16.6-4.1-21.8-11.1l-0.9-1.2l1.2-0.9l2.4-1.8l1-0.8H6.2H4.7v-1.5V54c0-4.9,3.6-8.6,9-9.8
			c-2.5-1.4-4.1-4.1-4.1-7.2c0-4.6,3.7-8.3,8.2-8.3c1.9,0,3.6,0.6,4.9,1.7l-0.3-8.3l-0.1-3.4l2.6,2.2l2,1.7c5-4.7,11.7-7.3,18.4-7.3
			c0.1,0,0.1,0,0.2,0V0C20.4,0,0,20.4,0,45.6s20.4,45.6,45.6,45.6V75.2C45.3,75.2,45,75.2,44.6,75.2z"/>
	</g>
	<g class="st5">
		<path class="st30" d="M79.6,36.1c0,3.8-3,6.8-6.7,6.8c-3.7,0-6.7-3.1-6.7-6.8c0-3.8,3-6.8,6.7-6.8C76.6,29.3,79.6,32.3,79.6,36.1z
			"/>
		<path class="st30" d="M60.8,53.6c0-4.5,1.5-7.8,5.3-8.9c-0.2,3,0,5.3,0.2,6.5c-0.6,0.4-1,1.1-1,1.9c0.1,1.1,1.1,2,2.2,1.9
			c1.1-0.1,1.9-1.1,1.8-2.2c-0.1-0.8-0.5-1.4-1.2-1.7c-0.2-1-0.5-3.5-0.2-6.7c0.2,0,0.7-0.1,1.1-0.1l3.8,2.9l3.8-2.9
			c0.5,0,1,0.1,1.4,0.1c0,0.4,0,0.8-0.1,1.2c-0.1,0.6-0.2,1.3-0.3,1.6c-1.9,0.1-3.4,1.3-3.7,2.9l-0.5,3.3c-0.1,0.3-0.1,0.8,0.2,1.3
			c0.2,0.3,0.5,0.5,0.9,0.5c0.5,0.1,1-0.3,1.1-0.8c0-0.3-0.1-0.6-0.3-0.9l0.5-3.2c0.1-0.8,1.3-1.4,2.5-1.2c1.2,0.2,2.1,1.1,2,1.9
			l-0.5,3.1c-0.3,0.1-0.5,0.4-0.5,0.7c-0.1,0.5,0.3,1,0.8,1.1c0.1,0,0.2,0,0.3,0c0.3,0,0.6-0.1,0.8-0.3c0.4-0.3,0.5-0.8,0.5-1.2
			l0.5-3.3c0.2-1.6-0.9-3.2-2.6-3.9c0.1-0.3,0.2-0.9,0.3-1.6c0-0.3,0.1-0.6,0.1-1c3.2,1.1,5,3.8,5,8.8l0,3.3h-24V53.6z"/>
		<path class="st30" d="M24.3,30.8L24,22l3.1,2.6c4.8-5,11.5-7.8,18.4-7.8c8.2,0,15.7,3.8,20.6,10.5l-2.4,1.8
			c-4.3-5.9-11-9.3-18.2-9.3c-6,0-11.8,2.4-16,6.7l3.3,2.8L24.3,30.8z"/>
		<path class="st30" d="M65.8,59.7l0.3,8.8L63,65.9c-4.8,5-11.5,7.8-18.4,7.8c-8.2,0-15.7-3.8-20.6-10.5l2.4-1.8
			c4.3,5.9,11,9.3,18.2,9.3c6,0,11.8-2.4,16-6.7l-3.3-2.8L65.8,59.7z"/>
		<path class="st30" d="M17.8,43.9c-3.7,0-6.7-3.1-6.7-6.8c0-3.8,3-6.8,6.7-6.8c3.7,0,6.7,3.1,6.7,6.8
			C24.6,40.8,21.5,43.9,17.8,43.9z"/>
		<path class="st30" d="M17.8,45.3c6.4,0,11.6,3.2,11.6,8.7v3.9H6.2V54C6.2,48.5,11.4,45.3,17.8,45.3z"/>
	</g>
</g>
<g id="Layer_1_copy_3" class="st0">
	<circle class="st3" cx="45.6" cy="45.6" r="45.6"/>
	<path class="st1" d="M45.6,75.2C45.6,75.2,45.6,75.2,45.6,75.2l-1,0c-0.9,0-1.7-0.7-1.9-1.5l-3.3-13c-0.7,0-1.3-0.4-1.8-0.9
		c-0.5-0.6-0.7-1.3-0.6-2.1l0.3-2.3c0,0,0,0,0,0h-0.5c-1.1,0-2.1-0.6-2.6-1.5c-0.5,0.3-1.1,0.5-1.7,0.5h-0.5c-0.2,0-0.5,0-0.7-0.1
		c-0.2,3.6-0.5,7.3-0.8,10.9l-0.7,7c0,1.6-1.4,3-3,3h-1.9c-0.7,0-1.4-0.3-1.9-0.7c-0.5,0.4-1.2,0.7-1.9,0.7h-1.9c-1.6,0-3-1.3-3-3
		l-0.7-7.1c-0.3-3.6-0.6-7.2-0.8-10.8c-0.2,0.1-0.5,0.1-0.7,0.1h-0.5c-1.7,0-3-1.4-3-3V34.8c0-2.8,2.3-5.1,5-5.1h5.5
		c-2.5-0.9-4.3-3.3-4.3-6.1c0-3.5,2.9-6.4,6.4-6.4s6.4,2.9,6.4,6.4c0,2.8-1.8,5.2-4.3,6.1h5.5c2.8,0,5,2.3,5,5.1v1l0.1-0.7
		c0-2.8,2.3-5.1,5.1-5.1h4C42,29.3,40,26.8,40,23.8c0-3.3,2.4-6,5.6-6.5V0C20.4,0,0,20.4,0,45.6s20.4,45.6,45.6,45.6L45.6,75.2
		C45.6,75.2,45.6,75.2,45.6,75.2z"/>
	<g class="st5">
		<g>
			
				<linearGradient id="SVGID_00000136405742761854330760000007694341579251275935_" gradientUnits="userSpaceOnUse" x1="17.9698" y1="23.6946" x2="27.7855" y2="23.6946">
				<stop  offset="1.552812e-03" style="stop-color:#036544"/>
				<stop  offset="1" style="stop-color:#02281F"/>
			</linearGradient>
			<path style="fill:url(#SVGID_00000136405742761854330760000007694341579251275935_);" d="M27.8,23.7c0,2.7-2.2,4.9-4.9,4.9
				S18,26.4,18,23.7c0-2.7,2.2-4.9,4.9-4.9S27.8,21,27.8,23.7z"/>
			
				<linearGradient id="SVGID_00000037654225198556086490000010206063999551967149_" gradientUnits="userSpaceOnUse" x1="11.801" y1="52.5205" x2="33.954" y2="52.5205">
				<stop  offset="1.552812e-03" style="stop-color:#036544"/>
				<stop  offset="1" style="stop-color:#02281F"/>
			</linearGradient>
			<path style="fill:url(#SVGID_00000037654225198556086490000010206063999551967149_);" d="M34,34.8c0-2-1.6-3.6-3.5-3.6H15.3
				c-2,0-3.5,1.6-3.5,3.6v16.6c0,0.9,0.7,1.5,1.5,1.5h0.5c0.8,0,1.5-0.7,1.5-1.5V40.8h0.3l0,0c0,8.1,0.4,16.2,1.2,24.3l0.7,7.1
				c0,0.9,0.7,1.5,1.5,1.5H21c0.8,0,1.5-0.7,1.5-1.5l0.3-18.6h0.1H23l0.3,18.6c0,0.8,0.7,1.5,1.5,1.5h1.9c0.8,0,1.5-0.7,1.5-1.5
				l0.7-7.1c0.8-8.1,1.2-16.2,1.2-24.3v0h0.3v10.6c0,0.9,0.7,1.5,1.5,1.5h0.5c0.8,0,1.5-0.7,1.5-1.5V34.8z"/>
		</g>
		<g>
			
				<linearGradient id="SVGID_00000111183697331134252210000005454120529448244374_" gradientUnits="userSpaceOnUse" x1="65.2911" y1="28.3128" x2="74.2014" y2="28.3128">
				<stop  offset="1.552812e-03" style="stop-color:#036544"/>
				<stop  offset="1" style="stop-color:#02281F"/>
			</linearGradient>
			<path style="fill:url(#SVGID_00000111183697331134252210000005454120529448244374_);" d="M74.2,28.3c0,2.5-2,4.5-4.5,4.5
				s-4.5-2-4.5-4.5s2-4.5,4.5-4.5S74.2,25.8,74.2,28.3z"/>
			
				<linearGradient id="SVGID_00000036252226074946269630000002391150963963525287_" gradientUnits="userSpaceOnUse" x1="59.6914" y1="54.4797" x2="79.801" y2="54.4797">
				<stop  offset="1.552812e-03" style="stop-color:#036544"/>
				<stop  offset="1" style="stop-color:#02281F"/>
			</linearGradient>
			<path style="fill:url(#SVGID_00000036252226074946269630000002391150963963525287_);" d="M79.8,38.4c0-1.8-1.4-3.2-3.2-3.2H62.9
				c-1.8,0-3.2,1.4-3.2,3.2v15.1c0,0.8,0.6,1.4,1.4,1.4h0.4c0.8,0,1.4-0.6,1.4-1.4v-9.6h0.3l0,0c0,7.4,0.4,14.7,1.1,22l0.6,6.5
				c0,0.8,0.6,1.4,1.4,1.4H68c0.7,0,1.4-0.6,1.4-1.3l0.2-16.9h0.1h0.1l0.2,16.9c0,0.7,0.6,1.3,1.4,1.3h1.7c0.8,0,1.4-0.6,1.4-1.4
				l0.6-6.4c0.7-7.3,1.1-14.7,1.1-22v0h0.3v9.6c0,0.8,0.6,1.4,1.4,1.4h0.4c0.8,0,1.4-0.6,1.4-1.4V38.4z"/>
		</g>
		<g>
			
				<linearGradient id="SVGID_00000005235351512744054100000004049187583051064983_" gradientUnits="userSpaceOnUse" x1="41.5324" y1="23.8318" x2="51.6206" y2="23.8318">
				<stop  offset="1.552812e-03" style="stop-color:#036544"/>
				<stop  offset="1" style="stop-color:#02281F"/>
			</linearGradient>
			<ellipse style="fill:url(#SVGID_00000005235351512744054100000004049187583051064983_);" cx="46.6" cy="23.8" rx="5" ry="5.1"/>
			
				<linearGradient id="SVGID_00000005239051747413877470000011378462037091606454_" gradientUnits="userSpaceOnUse" x1="35.1925" y1="52.6947" x2="57.9607" y2="52.6947">
				<stop  offset="1.552812e-03" style="stop-color:#036544"/>
				<stop  offset="1" style="stop-color:#02281F"/>
			</linearGradient>
			<path style="fill:url(#SVGID_00000005239051747413877470000011378462037091606454_);" d="M56.1,35.3c0-2-1.6-3.7-3.6-3.7H40.7
				c-2,0-3.6,1.6-3.6,3.7l-1.8,17c0,0.9,0.7,1.6,1.6,1.6h0.5c0.9,0,1.6-0.7,1.6-1.6l1.8-10.9H41l-2.5,16.5c-0.1,0.6,0.4,1.2,1.1,1.2
				h1l3.6,14.2c0.1,0.2,0.3,0.4,0.5,0.4l1,0c0.3,0,0.6-0.2,0.6-0.5l0.2-14h0.4l0.2,14c0,0.3,0.2,0.5,0.5,0.5h1
				c0.3,0,0.5-0.2,0.5-0.4l3.6-14.2h1c0.7,0,1.2-0.6,1.1-1.2l-2.6-16.5h0.3l1.8,10.9c0,0.9,0.7,1.6,1.6,1.6h0.5
				c0.9,0,1.6-0.7,1.6-1.6L56.1,35.3z"/>
		</g>
	</g>
</g>
<g id="Layer_1_copy_4" class="st0">
	<circle class="st3" cx="45.6" cy="45.6" r="45.6"/>
	<path class="st1" d="M45.6,75.2C45.6,75.2,45.6,75.2,45.6,75.2l-1,0c-0.9,0-1.7-0.7-1.9-1.5l-3.3-13c-0.7,0-1.3-0.4-1.8-0.9
		c-0.5-0.6-0.7-1.3-0.6-2.1l0.3-2.3c0,0,0,0,0,0h-0.5c-1.1,0-2.1-0.6-2.6-1.5c-0.5,0.3-1.1,0.5-1.7,0.5h-0.5c-0.2,0-0.5,0-0.7-0.1
		c-0.2,3.6-0.5,7.3-0.8,10.9l-0.7,7c0,1.6-1.4,3-3,3h-1.9c-0.7,0-1.4-0.3-1.9-0.7c-0.5,0.4-1.2,0.7-1.9,0.7h-1.9c-1.6,0-3-1.3-3-3
		l-0.7-7.1c-0.3-3.6-0.6-7.2-0.8-10.8c-0.2,0.1-0.5,0.1-0.7,0.1h-0.5c-1.7,0-3-1.4-3-3V34.8c0-2.8,2.3-5.1,5-5.1h5.5
		c-2.5-0.9-4.3-3.3-4.3-6.1c0-3.5,2.9-6.4,6.4-6.4s6.4,2.9,6.4,6.4c0,2.8-1.8,5.2-4.3,6.1h5.5c2.8,0,5,2.3,5,5.1v1l0.1-0.7
		c0-2.8,2.3-5.1,5.1-5.1h4C42,29.3,40,26.8,40,23.8c0-3.3,2.4-6,5.6-6.5V0C20.4,0,0,20.4,0,45.6s20.4,45.6,45.6,45.6L45.6,75.2
		C45.6,75.2,45.6,75.2,45.6,75.2z"/>
	<g class="st5">
		<g>
			
				<linearGradient id="SVGID_00000099645960433205779100000009288896346062169006_" gradientUnits="userSpaceOnUse" x1="17.9698" y1="23.6946" x2="27.7855" y2="23.6946">
				<stop  offset="1.552812e-03" style="stop-color:#036544"/>
				<stop  offset="1" style="stop-color:#02281F"/>
			</linearGradient>
			<path style="fill:url(#SVGID_00000099645960433205779100000009288896346062169006_);" d="M27.8,23.7c0,2.7-2.2,4.9-4.9,4.9
				S18,26.4,18,23.7c0-2.7,2.2-4.9,4.9-4.9S27.8,21,27.8,23.7z"/>
			
				<linearGradient id="SVGID_00000121959733861569330440000005708308720517567898_" gradientUnits="userSpaceOnUse" x1="11.801" y1="52.5205" x2="33.954" y2="52.5205">
				<stop  offset="1.552812e-03" style="stop-color:#036544"/>
				<stop  offset="1" style="stop-color:#02281F"/>
			</linearGradient>
			<path style="fill:url(#SVGID_00000121959733861569330440000005708308720517567898_);" d="M34,34.8c0-2-1.6-3.6-3.5-3.6H15.3
				c-2,0-3.5,1.6-3.5,3.6v16.6c0,0.9,0.7,1.5,1.5,1.5h0.5c0.8,0,1.5-0.7,1.5-1.5V40.8h0.3l0,0c0,8.1,0.4,16.2,1.2,24.3l0.7,7.1
				c0,0.9,0.7,1.5,1.5,1.5H21c0.8,0,1.5-0.7,1.5-1.5l0.3-18.6h0.1H23l0.3,18.6c0,0.8,0.7,1.5,1.5,1.5h1.9c0.8,0,1.5-0.7,1.5-1.5
				l0.7-7.1c0.8-8.1,1.2-16.2,1.2-24.3v0h0.3v10.6c0,0.9,0.7,1.5,1.5,1.5h0.5c0.8,0,1.5-0.7,1.5-1.5V34.8z"/>
		</g>
		<g>
			
				<linearGradient id="SVGID_00000012464646873065902390000016858293773305505708_" gradientUnits="userSpaceOnUse" x1="65.2911" y1="28.3128" x2="74.2014" y2="28.3128">
				<stop  offset="1.552812e-03" style="stop-color:#036544"/>
				<stop  offset="1" style="stop-color:#02281F"/>
			</linearGradient>
			<path style="fill:url(#SVGID_00000012464646873065902390000016858293773305505708_);" d="M74.2,28.3c0,2.5-2,4.5-4.5,4.5
				s-4.5-2-4.5-4.5s2-4.5,4.5-4.5S74.2,25.8,74.2,28.3z"/>
			
				<linearGradient id="SVGID_00000070815731028309257400000017761843631846627763_" gradientUnits="userSpaceOnUse" x1="59.6914" y1="54.4797" x2="79.801" y2="54.4797">
				<stop  offset="1.552812e-03" style="stop-color:#036544"/>
				<stop  offset="1" style="stop-color:#02281F"/>
			</linearGradient>
			<path style="fill:url(#SVGID_00000070815731028309257400000017761843631846627763_);" d="M79.8,38.4c0-1.8-1.4-3.2-3.2-3.2H62.9
				c-1.8,0-3.2,1.4-3.2,3.2v15.1c0,0.8,0.6,1.4,1.4,1.4h0.4c0.8,0,1.4-0.6,1.4-1.4v-9.6h0.3l0,0c0,7.4,0.4,14.7,1.1,22l0.6,6.5
				c0,0.8,0.6,1.4,1.4,1.4H68c0.7,0,1.4-0.6,1.4-1.3l0.2-16.9h0.1h0.1l0.2,16.9c0,0.7,0.6,1.3,1.4,1.3h1.7c0.8,0,1.4-0.6,1.4-1.4
				l0.6-6.4c0.7-7.3,1.1-14.7,1.1-22v0h0.3v9.6c0,0.8,0.6,1.4,1.4,1.4h0.4c0.8,0,1.4-0.6,1.4-1.4V38.4z"/>
		</g>
		<g>
			
				<linearGradient id="SVGID_00000049183231994956941110000006453326128252911789_" gradientUnits="userSpaceOnUse" x1="41.5324" y1="23.8318" x2="51.6206" y2="23.8318">
				<stop  offset="1.552812e-03" style="stop-color:#036544"/>
				<stop  offset="1" style="stop-color:#02281F"/>
			</linearGradient>
			<ellipse style="fill:url(#SVGID_00000049183231994956941110000006453326128252911789_);" cx="46.6" cy="23.8" rx="5" ry="5.1"/>
			
				<linearGradient id="SVGID_00000070805503452377200640000005319404931767181967_" gradientUnits="userSpaceOnUse" x1="35.1925" y1="52.6947" x2="57.9607" y2="52.6947">
				<stop  offset="1.552812e-03" style="stop-color:#036544"/>
				<stop  offset="1" style="stop-color:#02281F"/>
			</linearGradient>
			<path style="fill:url(#SVGID_00000070805503452377200640000005319404931767181967_);" d="M56.1,35.3c0-2-1.6-3.7-3.6-3.7H40.7
				c-2,0-3.6,1.6-3.6,3.7l-1.8,17c0,0.9,0.7,1.6,1.6,1.6h0.5c0.9,0,1.6-0.7,1.6-1.6l1.8-10.9H41l-2.5,16.5c-0.1,0.6,0.4,1.2,1.1,1.2
				h1l3.6,14.2c0.1,0.2,0.3,0.4,0.5,0.4l1,0c0.3,0,0.6-0.2,0.6-0.5l0.2-14h0.4l0.2,14c0,0.3,0.2,0.5,0.5,0.5h1
				c0.3,0,0.5-0.2,0.5-0.4l3.6-14.2h1c0.7,0,1.2-0.6,1.1-1.2l-2.6-16.5h0.3l1.8,10.9c0,0.9,0.7,1.6,1.6,1.6h0.5
				c0.9,0,1.6-0.7,1.6-1.6L56.1,35.3z"/>
		</g>
	</g>
</g>
<g id="benefits" class="st0">
	<circle class="st3" cx="45.6" cy="45.6" r="45.6"/>
	<path class="st1" d="M44.9,76c-2.2-0.3-3.8-0.4-5.2-0.4c-4.2,0-6.8,1.1-10.8,4.3c-0.4,0.3-0.9,0.5-1.4,0.5c-0.6,0-1.1-0.2-1.6-0.6
		L15,68.9c-0.8-0.8-0.9-2.2-0.1-3c0,0,2-2.1,3.4-3.7c1.1-1.8,5.4-7.9,13.9-9.8h-8.4c-1.2,0-2.2-1-2.2-2.2V39.4c0,0,0,0,0,0
		c0,0,0,0,0,0c0-9.9,5.5-10.9,9.1-11.5c0.2,0,0.4-0.1,0.6-0.1c-1.8-2.1-3.3-6.9-1.7-10.5c0.6-1.5,2.3-4,6.6-4c4.3,0,6,2.5,6.6,4
		c1.5,3.6,0.1,8.4-1.7,10.5c0.2,0,0.4,0.1,0.6,0.1c0.4,0.1,0.8,0.1,1.3,0.2c0.9-0.6,1.8-1,2.7-1.2V0C20.4,0,0,20.4,0,45.6
		s20.4,45.6,45.6,45.6V76C45.4,76,45.1,76,44.9,76z"/>
	<g class="st5">
		
			<linearGradient id="SVGID_00000154393566794378549040000005407253422555607175_" gradientUnits="userSpaceOnUse" x1="23.27" y1="31.0701" x2="69.0762" y2="31.0701">
			<stop  offset="1.552812e-03" style="stop-color:#036544"/>
			<stop  offset="1" style="stop-color:#02281F"/>
		</linearGradient>
		<path style="fill:url(#SVGID_00000154393566794378549040000005407253422555607175_);" d="M38.9,50.6h0.5v-0.5v-0.2
			c0-0.9,0.4-2.2,0.9-2.9c0.1-0.1,1.9-2.6,6.4-2.6s6.4,2.5,6.4,2.6c0.5,0.7,0.9,2.1,0.9,2.9v0.2v0.5h0.5h14h0.5v-0.5V39.4
			c0-9.9-5.2-10.9-9.4-11.7l-0.4-0.1c-0.9-0.3-1.5-0.7-1.6-1.2c-0.1-0.4,0-0.9,0.3-1.5c0.1-0.1,0.1-0.1,0.2-0.2
			c1.7-1.7,3.3-6.5,1.8-9.9c-0.6-1.5-2.1-3.3-5.6-3.3c-3.5,0-5,1.8-5.6,3.3c-1.4,3.4,0.2,8.2,1.8,9.9c0.1,0.1,0.1,0.1,0.2,0.2
			c0.4,0.6,0.5,1.1,0.3,1.5c-0.2,0.5-0.7,0.9-1.7,1.3l0,0l-0.3,0.1c-2,0.4-4.2,0.8-6,2.2c-0.6-0.2-1.3-0.3-1.9-0.4
			c-0.3,0-0.6-0.1-0.8-0.2c-0.6-0.2-1.2-0.5-1.4-1.1c-0.1-0.4,0-0.8,0.3-1.3c0.1-0.1,0.1-0.1,0.2-0.2c1.5-1.5,2.9-5.9,1.6-8.9
			c-0.6-1.3-1.9-3-5-3c-3.1,0-4.5,1.6-5,3c-1.3,3,0.1,7.4,1.6,8.9c0.1,0.1,0.1,0.1,0.2,0.2c0.3,0.5,0.4,0.9,0.3,1.3
			c-0.2,0.5-0.9,0.9-1.5,1.1c-0.3,0.1-0.5,0.1-0.8,0.1c-3.6,0.6-7.7,1.4-7.7,9.8v0l0,0l0,0v10.7v0.5h0.5H38.9z M42.5,37.1
			c0-2.4,1.9-4.3,4.3-4.3s4.3,1.9,4.3,4.3c0,2.4-1.9,4.3-4.3,4.3S42.5,39.5,42.5,37.1z"/>
		
			<linearGradient id="SVGID_00000054960299724140096900000016814889174430240675_" gradientUnits="userSpaceOnUse" x1="15.8206" y1="65.5231" x2="74.3605" y2="65.5231">
			<stop  offset="1.552812e-03" style="stop-color:#036544"/>
			<stop  offset="1" style="stop-color:#02281F"/>
		</linearGradient>
		<path style="fill:url(#SVGID_00000054960299724140096900000016814889174430240675_);" d="M74.3,55.5c0-0.1-0.9-2.4-3.4-2.4
			c-1.2,0-2.6,0.6-4,1.6l-0.2,0.2c-3.3,2.4-10.1,7.4-16.8,7.6c-0.1,0-0.1,0-0.2,0c-0.5,0-1.1-0.1-1.2-0.5c-0.3-0.9,1-3,2.8-4.5
			c1.3-1.1,1.8-2.6,1.4-3.8c-0.4-1-1.4-1.6-2.7-1.6c-0.4,0-0.8,0-1.2,0.1l-0.6,0.1c-2.1,0.5-2.6,0.6-5.9,0.7
			c-1.5,0.1-2.4,0.1-3.3,0.2c-0.7,0.1-1.5,0.1-2.4,0.2c-10.8,0.5-15.8,8-16.8,9.7c-1.4,1.5-3.5,3.8-3.5,3.8l-0.3,0.4l0.3,0.3
			l10.9,10.9l0.3,0.3l0.4-0.3c4.3-3.5,7.3-4.7,11.9-4.7c1.5,0,3.2,0.1,5.4,0.4c0.4,0,0.7,0.1,1.1,0.1c5.4,0,12-4,15.4-6.4
			c5.3-3.7,10.1-8.2,12.6-11.9l0.1-0.2L74.3,55.5z"/>
	</g>
</g>
</svg>
