<?xml version="1.0" encoding="utf-8"?>
<!-- Generator: Adobe Illustrator 22.1.0, SVG Export Plug-In . SVG Version: 6.00 Build 0)  -->
<svg version="1.1" id="Layer_1" xmlns="http://www.w3.org/2000/svg" xmlns:xlink="http://www.w3.org/1999/xlink" x="0px" y="0px"
	 viewBox="0 0 282.4 282.6" style="enable-background:new 0 0 282.4 282.6;" xml:space="preserve">
<style type="text/css">
	.st0{fill:#3D3D3D;}
	.st1{fill:#A30606;}
	.st2{fill:#CDCDCD;}
	.st3{fill:#FDBF38;}
</style>
<path class="st0" d="M189.1,282.6c-12.3-2.6-23.4-7.9-34.2-14.3c-4.1-2.4-9.4-3.1-14.3-3.6c-6.3-0.6-12.7-0.2-19-0.1
	c-4.5,0.1-7.1-2.3-7.2-6.5c-0.2-19-0.2-38,0-57c0-4.7,3.4-7.3,7.7-6.7c15.2,2,23.8-6.2,30.9-18.2c3.5-6,8.2-11.5,13-16.6
	c3.6-3.8,8.7-5.3,15.1-4.7c0,5.1-0.1,9.8,0,14.5c0.2,7.3,3.8,11.2,11.1,12.3c2.6,0.4,5.4,0.4,8,0.4c23.4,0,46.8,0,70.2,0
	c6.4,0,9.2,2.7,9.3,8.8c0.1,6.1-2.8,8.8-9.3,8.8c-17.8,0-35.7-0.1-53.5,0.1c-2.1,0-5.1,1.1-6.1,2.7c-2.4,3.6,0.3,7.2,5.3,7.2
	c18.2,0.1,36.5,0,54.7,0.1c6.3,0,9.1,2.9,9.1,9c0,6-2.7,8.6-8.9,8.6c-18.2,0.1-36.5,0-54.7,0.2c-1.9,0-4.6,1.2-5.5,2.7
	c-2.1,3.7,0.4,7,4.8,7c16.5,0.1,33,0,49.5,0.1c8,0,12.4,6.9,8.2,13.9c-1.2,2.1-5.2,3.6-8,3.6c-16.1,0.3-32.2,0.1-48.3,0.2
	c-2,0-4.6,0.4-5.7,1.7c-1.1,1.3-1.3,4.1-0.6,5.8c0.4,1.2,2.9,2.3,4.4,2.4c11.3,0.2,22.6,0.1,34,0.2c4.1,0,9.9-1.1,12.1,3.9
	c2.1,4.7,1.4,13.4-5,13.4C233.1,282.6,212.1,282.6,189.1,282.6z"/>
<path class="st1" d="M153.2,102c9.4-0.9,9.5-1,13.1-1c11.5,0,15.8-3.3,15.8-15.1c0-24.6,0-49.1,0-73.7c0-6.1,2.2-8.4,8-8.7
	c6.4-0.3,9.3,2.2,9.3,8.7c0.1,18,0.1,36.1-0.1,54.1c0,4.1,0.7,6.8,5.3,6.8c4.9,0,5.1-3.2,5.1-7.1c-0.1-17.8-0.1-35.7,0-53.5
	c0-6.4,2.8-9.1,8.9-9c6.1,0.1,8.4,2.5,8.4,8.9c0.1,18-0.1,36.1,0.2,54.1c0,2.1,1.6,5.3,3.3,6.1c4,1.8,6.8-0.6,6.8-5.3
	c0.1-16.5,0.1-33,0.1-49.5c0-3.3,0.7-8.3,4.7-9c3.7-0.7,5.8-0.2,9.4,0.8c1.2,0.3,3.2,3.4,3.2,6.8c0.2,16.7,0,33.4,0.3,50.1
	c0,2.1,1.6,5.3,3.3,6.1c3.7,1.9,6.7-0.4,6.7-4.7c0.2-12.1,0.1-24.2,0.2-36.3c0-8.3,5.8-13.4,13.2-10.1c1.7,0.8,3.9,2.4,3.9,5.9
	c-0.2,23,0.2,46-1.5,68.9c-0.7,8.9-5.4,17.8-9.8,25.9c-3.8,7.1-6.8,14-6.3,22.2c0.3,5,0.2,10,0,15c-0.2,6.6-2.6,9.2-9.1,9.2
	c-17.7,0.1-35.3,0.1-53,0c-6.5,0-9.3-2.4-8.6-8.7c1.7-14.5-6-22.7-17.3-29.6c-6.6-4-12.8-9.1-18-14.7
	C155.9,112.7,155.3,107.4,153.2,102z"/>
<path class="st2" d="M48.6,100.9c-12.1,0-24.2,0-36.3,0c-6.9,0-8.8-1.7-9-8c-0.1-7.2,1.8-9.4,9-9.5c18-0.1,36.1,0,54.1-0.2
	c2,0,4.5-1.1,5.7-2.6c0.8-1,0.6-4.2-0.4-5.2c-1.4-1.4-3.9-2.1-6-2.1c-17.8-0.2-35.7-0.1-53.5-0.1c-6.9,0-8.9-1.9-8.8-8.9
	c0-6.4,2.1-8.6,8.6-8.6c18.2-0.1,36.5,0,54.7,0c5.2,0,7.9-3.8,5.3-7.6c-1-1.5-3.8-2.4-5.8-2.4c-16.3-0.2-32.6-0.1-48.9-0.1
	c-6.6,0-9.5-3.1-9.2-9.5c0.2-5.5,2.6-8,8.3-8c16.5-0.1,33-0.1,49.5,0c4,0,7-0.6,6.9-5.4c-0.1-4.5-3.3-4.9-6.9-4.8
	c-11.7,0.1-23.4,0.1-35.1,0c-6.8,0-9.1-2.3-9.2-8.8c-0.1-6.5,2-8.7,9.1-8.8c17.3-0.1,34.5-0.3,51.8,0c14.2,0.2,27.9,3.3,39.7,11.6
	c9,6.4,19.2,6.9,29.7,6.7c16.4-0.3,16.4-0.1,16.4,16.4c0,15.2,0.1,30.3,0.1,45.5c0,6.2-2,8.7-8.2,8.3c-13-0.9-22.1,4.2-28.3,15.5
	c-2.6,4.9-5.9,9.4-9.4,13.8c-2.4,2.9-5.2,5.8-8.5,7.5c-3.2,1.7-7.2,1.9-10.8,2.8c-0.5-3.1-1.3-6.2-1.3-9.3c-0.2-14.2-3.9-18-18.1-18
	C72,100.9,60.3,100.9,48.6,100.9z"/>
<path class="st3" d="M129.8,181.1c-6.7,0-11,0-15.4,0c-8.7,0-13.1,4.4-13.1,13.1c0,25.3,0,50.7,0,76c0,7.2-2.3,9.5-9.1,9.5
	c-6.6,0-9-2.4-9-9c0-18.2,0-36.5,0-54.7c0-5-2.4-7.1-6.7-5.4c-1.7,0.7-3.4,3.9-3.5,6c-0.3,18-0.2,36.1-0.2,54.1c0,6.9-2.5,9.2-9.4,9
	c-6-0.2-8.1-2.4-8.1-8.6c0-18,0.2-36.1-0.1-54.1c0-2.2-1.4-5.5-3.1-6.3c-4.3-2-7.1,0.4-7.1,5.5c0,16.5,0,33,0,49.5
	c0,6.8-2.3,9.2-8.8,9.2c-6.4,0-8.7-2.4-8.7-9.2c0-16.1-0.1-32.2,0-48.4c0-4.1-0.3-7.2-5.6-7.1c-5.4,0.1-4.7,3.9-4.7,7.3
	c0,11.7,0,23.4,0,35.1c0,6.5-2.9,9.2-9.1,9.1c-5.9-0.1-8.3-2.6-8.3-9c0-17.3-0.3-34.6,0.1-51.8C0.4,186.5,3.6,173,11.7,161
	c4.9-7.2,7.3-15,6.8-23.8c-0.3-5,0-10,0.1-15c0.1-4.4,2.2-6.9,6.7-6.9c18.8-0.1,37.6-0.1,56.4-0.1c4.4,0,7.1,2.4,6.4,6.9
	c-2.2,15.8,6.8,24.4,19,31.6c6,3.6,11.7,8,16.5,13.2C126.5,170.1,127.3,175.2,129.8,181.1z"/>
</svg>
