<svg xmlns="http://www.w3.org/2000/svg" width="146.498" height="130.78" viewBox="0 0 146.498 130.78">
  <path id="Icon_awesome-hammer" data-name="Icon awesome-hammer" d="M76.426-2.5A41.682,41.682,0,0,1,105.987,9.744L117.1,20.86a18,18,0,0,1,4.722,8.3,18.451,18.451,0,0,1,.263,7.807l4.363,4.363,1.011-1.011a6.431,6.431,0,0,1,9.095,0l5.559,5.559a6.439,6.439,0,0,1,.006,9.091L119.886,77.2a6.431,6.431,0,0,1-9.095,0l-5.559-5.559a6.431,6.431,0,0,1,0-9.095l1.011-1.011-4.363-4.363a18.552,18.552,0,0,1-3.3.3,17.974,17.974,0,0,1-12.8-5.282L73.7,40.118a18.213,18.213,0,0,1-5.338-12.884V24.173L44.41,12.2l2.453-2.453A41.689,41.689,0,0,1,76.426-2.5Zm50.026,50.9-9.884-9.884.367-1.39a13.472,13.472,0,0,0,.044-6.738,13,13,0,0,0-3.411-5.991L102.451,13.279A36.781,36.781,0,0,0,53.007,10.9L73.366,21.083v6.151a13.214,13.214,0,0,0,3.873,9.348L89.311,48.654a13.007,13.007,0,0,0,9.264,3.818,13.57,13.57,0,0,0,3.464-.451l1.39-.367,9.884,9.884-4.546,4.546a1.431,1.431,0,0,0,0,2.024l5.559,5.559a1.431,1.431,0,0,0,2.024,0l22.235-22.235a1.432,1.432,0,0,0,0-2.021l-5.559-5.559a1.431,1.431,0,0,0-2.024,0ZM67.857,37.213l1.661,2.3a21.582,21.582,0,0,0,2.162,2.633L83.752,54.214a21.553,21.553,0,0,0,2.523,2.065l2.266,1.665L28.122,122.66A17.675,17.675,0,0,1,2.68,123.1a17.681,17.681,0,0,1,.438-25.441Zm13.25,21.366c-.3-.263-.6-.538-.891-.83L68.145,45.677c-.331-.331-.644-.671-.941-1.014L6.53,101.311a12.692,12.692,0,1,0,17.937,17.938Z" transform="translate(2.5 2.5)" fill="#f6941c"/>
</svg>
