<svg xmlns="http://www.w3.org/2000/svg" width="109" height="109" viewBox="0 0 109 109">
  <path id="Icon_open-magnifying-glass" data-name="Icon open-magnifying-glass" d="M44.185-2.545H45.22A47.646,47.646,0,0,1,92.812,45.047,46.725,46.725,0,0,1,87.83,65.734q.33.294.642.607l12.833,12.833a15.641,15.641,0,1,1-22.088,22.088L66.463,88.505q-.252-.213-.495-.436a44.862,44.862,0,0,1-9.1,3.29,49.418,49.418,0,0,1-11.772,1.409A47.592,47.592,0,0,1,44.045-2.4Zm46.674,104a10.641,10.641,0,0,0,7.068-18.6l-.055-.049L84.937,69.876a10.4,10.4,0,0,0-1.662-1.35l-1.94-1.269,1.119-2.03a42.039,42.039,0,0,0,5.358-20.18A42.643,42.643,0,0,0,46.244,2.467l-.117.117H45.092a42.592,42.592,0,1,0,0,85.183A44.413,44.413,0,0,0,55.672,86.5a39.3,39.3,0,0,0,9.6-3.707l1.809-1,1.32,1.589a10.41,10.41,0,0,0,1.35,1.35l.089.074L82.856,97.827l.049.055A10.65,10.65,0,0,0,90.859,101.455Zm-46.8-90.988h1.036a34.82,34.82,0,0,1,13.555,2.709A34.5,34.5,0,0,1,77.091,31.62a35.5,35.5,0,0,1-6.466,37.42l-.06.062-.468.468-.089.074a10.409,10.409,0,0,0-1.35,1.35l-.112.134-.129.118a34.672,34.672,0,0,1-23.454,8.767A34.82,34.82,0,0,1,31.407,77.3,34.5,34.5,0,0,1,12.964,58.86a35.266,35.266,0,0,1,0-27.111A34.5,34.5,0,0,1,31.407,13.305a34.738,34.738,0,0,1,12.5-2.694ZM67,65.6a30.506,30.506,0,0,0,5.483-32.042,29.5,29.5,0,0,0-15.77-15.77,29.762,29.762,0,0,0-10.6-2.3L46,15.6H44.963a29.846,29.846,0,0,0-11.619,2.319,29.5,29.5,0,0,0-15.77,15.77,30.266,30.266,0,0,0,0,23.239,29.5,29.5,0,0,0,15.77,15.77,29.846,29.846,0,0,0,11.619,2.319,29.708,29.708,0,0,0,19.97-7.357,15.428,15.428,0,0,1,1.788-1.78Z" transform="translate(2.5 2.545)" fill="#f6941c"/>
</svg>
