<svg xmlns="http://www.w3.org/2000/svg" width="146.523" height="123.287" viewBox="0 0 146.523 123.287">
  <path id="Icon_open-people" data-name="Icon open-people" d="M97.3-2.5h2.5v.264A26.577,26.577,0,0,1,108.705.218a29,29,0,0,1,9.227,6.937,32.384,32.384,0,0,1,6.156,10.172,35.132,35.132,0,0,1,0,24.711,32.384,32.384,0,0,1-6.156,10.172,29,29,0,0,1-9.227,6.937,24.805,24.805,0,0,1-22.933-.485l-1.877-.907.556-2.01a41.242,41.242,0,0,0,1.5-11.3,42.943,42.943,0,0,0-3.194-16.489,40.476,40.476,0,0,0-8.813-13.2l-1.389-1.391,1.024-1.678A31.036,31.036,0,0,1,83.6,1.436a26.5,26.5,0,0,1,6.489-2.906A25.65,25.65,0,0,1,97.3-2.5Zm0,59.217c13.253,0,24.036-12.128,24.036-27.035S110.551,2.648,97.3,2.648H94.8a20.9,20.9,0,0,0-8.573,3.041,25.516,25.516,0,0,0-7.334,7.016,45.385,45.385,0,0,1,8.484,13.346,47.917,47.917,0,0,1,3.573,18.4A46.347,46.347,0,0,1,89.8,55,18.764,18.764,0,0,0,97.3,56.717ZM44.226,12.267a26.523,26.523,0,0,1,11.408,2.57,29,29,0,0,1,9.227,6.937,32.384,32.384,0,0,1,6.156,10.172,35.132,35.132,0,0,1,0,24.711A32.383,32.383,0,0,1,64.862,66.83a29,29,0,0,1-9.227,6.937,26.606,26.606,0,0,1-22.816,0,29,29,0,0,1-9.227-6.937,32.383,32.383,0,0,1-6.156-10.172,35.132,35.132,0,0,1,0-24.711,32.383,32.383,0,0,1,6.156-10.172,29,29,0,0,1,9.227-6.937A26.523,26.523,0,0,1,44.226,12.267Zm0,59.069c13.253,0,24.036-12.128,24.036-27.035S57.479,17.267,44.226,17.267,20.19,29.4,20.19,44.3,30.973,71.337,44.226,71.337Zm81.53-13.8,3.463,1.445a25.915,25.915,0,0,1,10.567,7.9,19.484,19.484,0,0,1,4.238,11.978v27.014H103.643V93.625c0-6.361-2.485-12.644-7.188-18.168l-3.4-3.989,5.237-.13a42.852,42.852,0,0,0,15.633-3.294,39.651,39.651,0,0,0,11.826-7.673Zm13.268,43.339V78.858a14.532,14.532,0,0,0-3.192-8.917,20.4,20.4,0,0,0-6.972-5.628,44.634,44.634,0,0,1-12.99,8.339A47.1,47.1,0,0,1,103.115,76a31.8,31.8,0,0,1,5.527,17.624v7.246ZM74.615,73.253l1.532.639a25.915,25.915,0,0,1,10.567,7.9,19.484,19.484,0,0,1,4.238,11.978v27.014H-2.5V93.773A19.484,19.484,0,0,1,1.738,81.794a25.915,25.915,0,0,1,10.567-7.9l1.516-.633L15,74.4a41.48,41.48,0,0,0,13.1,8.568,43.372,43.372,0,0,0,32.252.053,40.137,40.137,0,0,0,13.076-8.6ZM44.226,91.1a47.228,47.228,0,0,1-18.02-3.51,46.38,46.38,0,0,1-13.419-8.428,20.436,20.436,0,0,0-7.095,5.689A14.532,14.532,0,0,0,2.5,93.773v22.014H85.952V93.773a14.532,14.532,0,0,0-3.192-8.917,20.432,20.432,0,0,0-7.081-5.682,45.062,45.062,0,0,1-13.44,8.479A47.563,47.563,0,0,1,44.226,91.1Z" transform="translate(2.5 2.5)" fill="#f5941a"/>
</svg>
