<svg xmlns="http://www.w3.org/2000/svg" width="107.003" height="107" viewBox="0 0 107.003 107">
  <path id="Icon_awesome-paint-brush" data-name="Icon awesome-paint-brush" d="M25.5,104.5a28.186,28.186,0,0,1-12.668-2.771A24.258,24.258,0,0,1,4,94.214,32.168,32.168,0,0,1-.952,83.565,47.589,47.589,0,0,1-2.5,71.175V66.442l3.91,2.668c.45.307,1.076.771,1.868,1.359,1.344,1,3.016,2.237,4.6,3.284a13.292,13.292,0,0,0,3.2,1.763.531.531,0,0,0,.494-.37,29.383,29.383,0,0,1,3.986-7.383,21.083,21.083,0,0,1,5.208-4.9,24.861,24.861,0,0,1,12.345-3.731l.995-.064,19.079,15.9.106,1.01c.017.159.042.334.068.519a10.671,10.671,0,0,1,.139,1.56c0,8.073-2.732,14.826-7.9,19.53C40.632,102.109,33.681,104.5,25.5,104.5ZM2.769,76.291A39.041,39.041,0,0,0,3.875,82.26a27.206,27.206,0,0,0,4.166,9C12.034,96.729,17.908,99.5,25.5,99.5c6.914,0,12.7-1.941,16.734-5.612a18.144,18.144,0,0,0,4.592-6.615A24.269,24.269,0,0,0,48.5,78.056a4.221,4.221,0,0,0-.043-.522l-16-13.335a19.027,19.027,0,0,0-8.945,2.846c-3.148,2.063-5.523,5.293-7.26,9.872a5.555,5.555,0,0,1-5.244,3.6C9.169,80.518,6.755,79.148,2.769,76.291Zm54.4-3.666a20.793,20.793,0,0,1-5.066-.678l-.555-.139L37.955,60.485l-.236-.515a20.878,20.878,0,0,1-1.967-8.753c0-4.565.725-7.905,4.55-12.474,3.431-4.1,9.356-9.28,20.113-18.688,5.6-4.9,12.575-11,21.127-18.639A14.6,14.6,0,0,1,91.222-2.5a14.021,14.021,0,0,1,4.922.89A13.573,13.573,0,0,1,100.359.9,11.815,11.815,0,0,1,104.5,9.871c0,3.862-1.54,7.377-3.046,10.305l-.02.037C90.865,39.942,82.978,53.8,76.328,61.925c-3.26,3.983-6.228,6.627-9.34,8.323A19.745,19.745,0,0,1,57.165,72.625Zm-3.311-5.4a14.936,14.936,0,0,0,3.311.4c4.961,0,9.249-1.483,15.293-8.867a128.2,128.2,0,0,0,10.292-15.29c3.751-6.287,8.151-14.182,14.268-25.6,1.229-2.392,2.483-5.212,2.483-8a6.882,6.882,0,0,0-2.437-5.215A8.966,8.966,0,0,0,91.222,2.5a9.62,9.62,0,0,0-6.34,2.637l-.005,0C76.3,12.8,69.318,18.91,63.706,23.818,53.138,33.062,47.317,38.153,44.135,41.953c-2.914,3.48-3.384,5.581-3.384,9.264a15.772,15.772,0,0,0,1.29,6.164Z" transform="translate(2.501 2.5)" fill="#f5941a"/>
</svg>
