<svg xmlns="http://www.w3.org/2000/svg" width="146.738" height="129.021" viewBox="0 0 146.738 129.021">
  <path id="Icon_awesome-suitcase" data-name="Icon awesome-suitcase" d="M128.45,128.771H112.662V26.326H128.45a15.779,15.779,0,0,1,15.788,15.788v70.869a15.779,15.779,0,0,1-15.788,15.788Zm-10.788-5H128.45a10.8,10.8,0,0,0,10.788-10.788V42.114A10.8,10.8,0,0,0,128.45,31.326H117.662Zm-8.859,5H32.935V15.538A15.779,15.779,0,0,1,48.723-.25H93.016A15.779,15.779,0,0,1,108.8,15.538Zm-70.869-5H103.8V15.538A10.8,10.8,0,0,0,93.016,4.75H48.723A10.8,10.8,0,0,0,37.935,15.538Zm-8.859,5H13.288A15.779,15.779,0,0,1-2.5,112.983V42.114A15.779,15.779,0,0,1,13.288,26.326H29.076ZM13.288,31.326A10.8,10.8,0,0,0,2.5,42.114v70.869a10.8,10.8,0,0,0,10.788,10.788H24.076V31.326Zm77.8,0H50.652V17.467H91.086Zm-35.435-5H86.086V22.467H55.652Z" transform="translate(2.5 0.25)" fill="#f6941c"/>
</svg>
