<?xml version="1.0" standalone="no"?>
<!DOCTYPE svg PUBLIC "-//W3C//DTD SVG 20010904//EN"
 "http://www.w3.org/TR/2001/REC-SVG-20010904/DTD/svg10.dtd">
<svg version="1.0" xmlns="http://www.w3.org/2000/svg"
 width="260.000000pt" height="260.000000pt" viewBox="0 0 260.000000 260.000000"
 preserveAspectRatio="xMidYMid meet">
<metadata>
Created by potrace 1.14, written by Peter Selinger 2001-2017
</metadata>
<g transform="translate(0.000000,260.000000) scale(0.100000,-0.100000)"
fill="#000000" stroke="none">
<path d="M2495 2138 c-40 -42 -146 -110 -222 -142 -138 -58 -329 -94 -588
-112 -49 -3 -106 -7 -125 -9 -19 -2 -64 -6 -100 -10 -429 -41 -702 -187 -892
-476 -77 -118 -78 -131 -4 -56 199 202 454 290 961 332 33 3 76 7 95 10 19 2
60 7 90 10 372 40 613 161 775 390 64 92 70 126 10 63z"/>
<path d="M2290 1727 c-115 -104 -258 -177 -417 -211 -124 -28 -180 -35 -373
-51 -181 -15 -281 -24 -330 -31 -19 -3 -48 -7 -65 -9 -349 -49 -606 -212 -783
-497 -23 -37 -42 -70 -42 -74 0 -3 30 24 68 61 77 76 175 144 269 186 65 29
211 77 261 85 15 2 41 7 57 11 17 3 39 7 50 9 11 1 56 7 100 13 44 6 105 13
135 16 155 13 195 18 315 35 163 24 175 27 258 51 206 61 369 179 481 347 51
77 56 96 16 59z"/>
<path d="M2055 1293 c-141 -124 -323 -199 -550 -227 -27 -3 -66 -8 -85 -11
-42 -6 -140 -14 -355 -31 -33 -2 -71 -6 -85 -9 -14 -2 -50 -7 -80 -11 -98 -11
-276 -61 -365 -103 -166 -78 -299 -195 -411 -362 -35 -53 -64 -99 -64 -104 0
-4 33 24 73 62 169 160 315 226 634 287 12 3 50 7 85 11 35 3 74 7 88 10 14 2
57 7 95 10 140 12 291 29 345 40 14 3 41 8 60 11 72 11 188 48 275 89 107 50
196 115 263 193 49 57 127 171 120 177 -1 2 -21 -13 -43 -32z"/>
</g>
</svg>
