<svg id="Group_31" data-name="Group 31" xmlns="http://www.w3.org/2000/svg" xmlns:xlink="http://www.w3.org/1999/xlink" width="113.374" height="144" viewBox="0 0 113.374 144">
  <defs>
    <clipPath id="clip-path">
      <rect id="Rectangle_56" data-name="Rectangle 56" width="113.374" height="144" fill="#fff"/>
    </clipPath>
  </defs>
  <g id="Group_30" data-name="Group 30" transform="translate(0 0)" clip-path="url(#clip-path)">
    <path id="Path_4" data-name="Path 4" d="M39.674,125.88,25.017,122.5l4.172-13.653a31.425,31.425,0,0,1-6.336-4.654,26.023,26.023,0,0,1-4.908-6.444,32.235,32.235,0,0,1-3.511-15.607,30.7,30.7,0,0,1,2.973-13.242A33.052,33.052,0,0,1,25.778,58a39.588,39.588,0,0,1,12.909-7.349A50.252,50.252,0,0,1,55.3,47.962,55.484,55.484,0,0,1,76.9,52.245,24.98,24.98,0,0,1,84.3,48.017a52.779,52.779,0,0,1,11.4-2.452l4.176-.545-3.015,2.94c-.056.055-5.486,5.413-7.829,11.886A32.527,32.527,0,0,1,97.567,71.7h10V88.215H98.689c-1.875,7.233-6.845,13.812-14.141,18.707l4.225,15.864-14.767,2.972-3.334-12.518a56.551,56.551,0,0,1-15.376,2.09,57.408,57.408,0,0,1-12.014-1.259Zm-11.1-5.441,9.177,2.119,3.609-11.812,1.283.307A54.373,54.373,0,0,0,55.3,112.526a53.477,53.477,0,0,0,15.943-2.38l1.4-.436,3.4,12.777,9.257-1.863-3.983-14.953.866-.552c7.508-4.783,12.49-11.389,14.03-18.6l.237-1.11h8.314V74.5H95.62l-.336-.924a29.655,29.655,0,0,0-8.794-12.228l-.705-.6.277-.885a34.824,34.824,0,0,1,6.193-10.954c-6.749,1.154-10.374,2.757-14.209,6.03l-.674.575-.809-.362A52.427,52.427,0,0,0,55.3,50.767,47.459,47.459,0,0,0,39.612,53.3a36.8,36.8,0,0,0-12,6.824A28.838,28.838,0,0,0,17.24,82.137a29.522,29.522,0,0,0,3.177,14.279,23.223,23.223,0,0,0,4.381,5.75,29.291,29.291,0,0,0,6.719,4.75l1.03.54Z" transform="translate(5.81 18.121)" fill="#fff"/>
    <path id="Path_5" data-name="Path 5" d="M42.744,50.191A10.47,10.47,0,1,1,46.089,29.8l2.141.723-1.465,1.465a7.667,7.667,0,0,0,2.893,10.317,7.8,7.8,0,0,0,1.38.623l1.619.552-.859,1.48a10.55,10.55,0,0,1-3.752,3.782A10.435,10.435,0,0,1,42.744,50.191Zm0-18.136A7.665,7.665,0,1,0,48.437,44.84l-.181-.1a10.488,10.488,0,0,1-4.613-12.628A7.469,7.469,0,0,0,42.744,32.055Z" transform="translate(12.99 11.773)" fill="#fff"/>
    <path id="Line_9" data-name="Line 9" d="M.4,21.3A1.4,1.4,0,0,1-1,19.9V.4A1.4,1.4,0,1,1,1.8.4V19.9A1.4,1.4,0,0,1,.4,21.3Z" transform="translate(51.495 9.316)" fill="#fff"/>
    <path id="Line_10" data-name="Line 10" d="M.4,33.919a1.4,1.4,0,0,1-1.4-1.4V.4A1.4,1.4,0,1,1,1.8.4V32.517A1.4,1.4,0,0,1,.4,33.919Z" transform="translate(58.298 1.001)" fill="#fff"/>
    <path id="Line_11" data-name="Line 11" d="M.4,10.407A1.4,1.4,0,0,1-1,9V.4A1.4,1.4,0,1,1,1.8.4V9A1.4,1.4,0,0,1,.4,10.407Z" transform="translate(64.398 19.065)" fill="#fff"/>
    <path id="Path_6" data-name="Path 6" d="M66.787,69.281A4.714,4.714,0,1,1,71.5,64.567,4.72,4.72,0,0,1,66.787,69.281Zm0-6.623A1.909,1.909,0,1,0,68.7,64.567,1.912,1.912,0,0,0,66.787,62.658Z" transform="translate(24.984 24.091)" fill="#fff"/>
    <path id="Path_7" data-name="Path 7" d="M13.184,88.039a4.833,4.833,0,0,1-2.534-.681c-1.121-.681-2.908-2.472-2.28-6.816a10.968,10.968,0,0,1,.985-3.255,7.34,7.34,0,0,0-5.034.827,4.776,4.776,0,0,0-1.647,1.682A1.4,1.4,0,0,1,.131,78.612a7.4,7.4,0,0,1,2.69-2.869,10.83,10.83,0,0,1,8.283-.979,10.924,10.924,0,0,1,2.13-1.736,16.778,16.778,0,0,1,8.175-2.283,1.4,1.4,0,1,1,.1,2.8A14,14,0,0,0,14.726,75.4q-.27.17-.521.353a12.947,12.947,0,0,1,3.252,1.86,6.21,6.21,0,0,1,2.366,3.69,5.414,5.414,0,0,1-2.477,5.281,7.62,7.62,0,0,1-3.314,1.388A5.945,5.945,0,0,1,13.184,88.039ZM12.159,77.987a7.965,7.965,0,0,0-1.013,2.956c-.29,2.007.06,3.471.96,4.018.873.531,2.321.269,3.6-.651a2.668,2.668,0,0,0,1.348-2.524C16.81,80.347,15,78.958,12.159,77.987Z" transform="translate(0 28.475)" fill="#fff"/>
    <path id="Path_8" data-name="Path 8" d="M50.406,26.361a10.471,10.471,0,1,1-10.47,10.471A10.483,10.483,0,0,1,50.406,26.361Zm0,18.137a7.666,7.666,0,1,0-7.665-7.666A7.675,7.675,0,0,0,50.406,44.5Z" transform="translate(16.074 10.61)" fill="#fff"/>
  </g>
</svg>
