<svg id="Group_22" data-name="Group 22" xmlns="http://www.w3.org/2000/svg" xmlns:xlink="http://www.w3.org/1999/xlink" width="120" height="103" viewBox="0 0 120 103">
  <defs>
    <clipPath id="clip-path">
      <rect id="Rectangle_51" data-name="Rectangle 51" width="120" height="103" fill="none" stroke="#fff" stroke-width="1"/>
    </clipPath>
  </defs>
  <g id="Group_21" data-name="Group 21" clip-path="url(#clip-path)">
    <path id="Path_4" data-name="Path 4" d="M9.447,31.763a2.148,2.148,0,0,1-2.082-1.63C5.074,20.9,5.694,12.127,8.873,8.79c1.764-1.851,4.456-2.79,8-2.79a2.147,2.147,0,0,1,0,4.294c-1.6,0-3.745.253-4.893,1.457-.643.676-1.411,2.568-1.636,5.854A38.523,38.523,0,0,0,11.532,29.1a2.149,2.149,0,0,1-2.085,2.665Z" transform="translate(6.87 6.881)" fill="#fff"/>
    <path id="Path_5" data-name="Path 5" d="M58.056,80.994a2.147,2.147,0,0,1-.765-.141,59.388,59.388,0,0,1-14.537-8.617A43.559,43.559,0,0,1,32.67,60.978,31.489,31.489,0,0,1,28,44.5V18.734a2.147,2.147,0,0,1,.931-1.769,52.84,52.84,0,0,1,8.549-4.5A53.831,53.831,0,0,1,58.056,8a53.831,53.831,0,0,1,20.577,4.465,52.842,52.842,0,0,1,8.549,4.5,2.147,2.147,0,0,1,.931,1.769V44.5a31.489,31.489,0,0,1-4.67,16.481A43.559,43.559,0,0,1,73.358,72.236a59.389,59.389,0,0,1-14.537,8.617A2.147,2.147,0,0,1,58.056,80.994ZM32.294,19.913V44.5A27.245,27.245,0,0,0,36.312,58.7,39.178,39.178,0,0,0,45.359,68.82a57.276,57.276,0,0,0,12.7,7.7,57.276,57.276,0,0,0,12.7-7.7A39.179,39.179,0,0,0,79.8,58.7,27.245,27.245,0,0,0,83.819,44.5V19.913a54.153,54.153,0,0,0-6.967-3.539,49.47,49.47,0,0,0-18.8-4.08,48.557,48.557,0,0,0-18.8,4.08A54.152,54.152,0,0,0,32.294,19.913Z" transform="translate(32.113 9.175)" fill="#fff"/>
    <path id="Path_6" data-name="Path 6" d="M58.056,80.994a2.147,2.147,0,0,1-.765-.141,59.388,59.388,0,0,1-14.537-8.617A43.559,43.559,0,0,1,32.67,60.978,31.489,31.489,0,0,1,28,44.5V18.734a2.147,2.147,0,0,1,.931-1.769,52.84,52.84,0,0,1,8.549-4.5A53.831,53.831,0,0,1,58.056,8a53.831,53.831,0,0,1,20.577,4.465,52.842,52.842,0,0,1,8.549,4.5,2.147,2.147,0,0,1,.931,1.769V44.5a31.489,31.489,0,0,1-4.67,16.481A43.559,43.559,0,0,1,73.358,72.236a59.389,59.389,0,0,1-14.537,8.617A2.147,2.147,0,0,1,58.056,80.994ZM32.294,19.913V44.5A27.245,27.245,0,0,0,36.312,58.7,39.178,39.178,0,0,0,45.359,68.82a57.276,57.276,0,0,0,12.7,7.7,57.276,57.276,0,0,0,12.7-7.7A39.179,39.179,0,0,0,79.8,58.7,27.245,27.245,0,0,0,83.819,44.5V19.913a54.153,54.153,0,0,0-6.967-3.539,49.47,49.47,0,0,0-18.8-4.08,48.557,48.557,0,0,0-18.8,4.08A54.152,54.152,0,0,0,32.294,19.913Z" transform="translate(32.113 9.175)" fill="#fff"/>
    <path id="Path_7" data-name="Path 7" d="M63.983,103.051a8.937,8.937,0,0,1-1.917-.21,8.811,8.811,0,0,1-4.574-2.609,8.5,8.5,0,0,1-2.2-5.289c-.745-12.08-2.244-21.321-4.456-27.468-1.685-4.68-3.779-7.364-5.747-7.364s-4.063,2.684-5.747,7.364c-2.213,6.147-3.712,15.388-4.456,27.468a8.5,8.5,0,0,1-2.2,5.289,8.811,8.811,0,0,1-4.574,2.609,8.613,8.613,0,0,1-5.2-.445,8.413,8.413,0,0,1-4.176-3.846,97.9,97.9,0,0,1-8.252-20.356A112.2,112.2,0,0,1,6.639,53.466,62.529,62.529,0,0,1,.016,27.82c-.232-8.988,2.04-16.459,6.4-21.034,8.291-8.705,23.036-9.043,38.67-.954,15.634-8.089,30.379-7.751,38.67.954,2.846,2.99,4.778,7.106,5.742,12.233l-4.22.793c-.808-4.3-2.367-7.685-4.632-10.065C77.185,6.114,72.162,4.229,66.12,4.294,60,4.36,53.08,6.385,46.1,10.149a2.147,2.147,0,0,1-2.039,0c-6.977-3.764-13.9-5.789-20.016-5.855-6.043-.065-11.065,1.82-14.525,5.452-7.4,7.773-6.9,26.306,1.153,42.191a2.147,2.147,0,0,1,.229.87,108.37,108.37,0,0,0,3.709,24.235,93.663,93.663,0,0,0,7.9,19.473,4.133,4.133,0,0,0,4.67,2.131,4.214,4.214,0,0,0,3.413-3.968c.77-12.486,2.352-22.127,4.7-28.657a22.239,22.239,0,0,1,4.027-7.354,7.247,7.247,0,0,1,11.522,0,22.238,22.238,0,0,1,4.027,7.354c2.35,6.53,3.932,16.172,4.7,28.658a4.214,4.214,0,0,0,3.413,3.968,4.133,4.133,0,0,0,4.67-2.131,94.2,94.2,0,0,0,7.109-16.941l4.1,1.271a98.438,98.438,0,0,1-7.429,17.7,8.368,8.368,0,0,1-7.455,4.5Z" transform="translate(0 0.002)" fill="#fff"/>
    <path id="Path_8" data-name="Path 8" d="M45.732,41.469a2.14,2.14,0,0,1-1.518-.629l-8.585-8.588a2.147,2.147,0,1,1,3.037-3.036l7.068,7.069L61.391,20.629a2.147,2.147,0,0,1,3.037,3.036L47.25,40.84A2.14,2.14,0,0,1,45.732,41.469Z" transform="translate(40.141 22.938)" fill="#fff"/>
  </g>
</svg>
