<svg xmlns="http://www.w3.org/2000/svg" xmlns:xlink="http://www.w3.org/1999/xlink" width="112" height="104" viewBox="0 0 112 104">
  <defs>
    <clipPath id="clip-path">
      <rect id="Rectangle_55" data-name="Rectangle 55" width="112" height="104" transform="translate(-0.072)" fill="#fff"/>
    </clipPath>
  </defs>
  <g id="Group_29" data-name="Group 29" transform="translate(0.072)">
    <g id="Group_28" data-name="Group 28" clip-path="url(#clip-path)">
      <path id="Path_4" data-name="Path 4" d="M47.994,52.987H40a2,2,0,0,1,0-4h7.995a2,2,0,0,0,0-4H44A6,6,0,0,1,44,33h7.995a2,2,0,0,1,0,4H44a2,2,0,0,0,0,4h4a6,6,0,0,1,0,11.992Z" transform="translate(37.951 32.958)" fill="#fff"/>
      <path id="Line_9" data-name="Line 9" d="M1,8.994a2,2,0,0,1-2-2V1A2,2,0,0,1,3,1v6A2,2,0,0,1,1,8.994Z" transform="translate(82.947 60.962)" fill="#fff"/>
      <path id="Line_10" data-name="Line 10" d="M1,8.994a2,2,0,0,1-2-2V1A2,2,0,0,1,3,1v6A2,2,0,0,1,1,8.994Z" transform="translate(82.947 82.947)" fill="#fff"/>
      <path id="Ellipse_7" data-name="Ellipse 7" d="M26.982-1A27.982,27.982,0,0,1,46.768,46.768,27.982,27.982,0,1,1,7.2,7.2,27.8,27.8,0,0,1,26.982-1Zm0,51.967a23.985,23.985,0,0,0,16.96-40.944A23.985,23.985,0,1,0,10.022,43.942,23.828,23.828,0,0,0,26.982,50.967Z" transform="translate(56.964 48.969)" fill="#fff"/>
      <path id="Rectangle_54" data-name="Rectangle 54" d="M3-1H50.967a4,4,0,0,1,4,4v7.995a4,4,0,0,1-4,4H3a4,4,0,0,1-4-4V3A4,4,0,0,1,3-1ZM50.967,10.992V3H2.995l0,7.995Z" transform="translate(40.974 1)" fill="#fff"/>
      <path id="Path_5" data-name="Path 5" d="M54.162,57.99H20a4,4,0,0,1-4-4V46a4,4,0,0,1,4-4v4h0l0,7.995H54.162Z" transform="translate(15.979 41.946)" fill="#fff"/>
      <path id="Path_6" data-name="Path 6" d="M27.982,73.956a2,2,0,0,1-.712-.131A55.29,55.29,0,0,1,13.736,65.8,40.553,40.553,0,0,1,4.348,55.322,29.316,29.316,0,0,1,0,39.978V15.994a2,2,0,0,1,.866-1.647,49.194,49.194,0,0,1,7.959-4.19A50.116,50.116,0,0,1,27.982,6a50.116,50.116,0,0,1,19.157,4.157,49.194,49.194,0,0,1,7.959,4.19,2,2,0,0,1,.866,1.647V39.978a29.316,29.316,0,0,1-4.348,15.343A40.553,40.553,0,0,1,42.228,65.8a55.29,55.29,0,0,1-13.534,8.023A2,2,0,0,1,27.982,73.956ZM4,17.09V39.978A25.365,25.365,0,0,0,7.739,53.2a36.475,36.475,0,0,0,8.422,9.418,53.323,53.323,0,0,0,11.821,7.172A53.323,53.323,0,0,0,39.8,62.622,36.475,36.475,0,0,0,48.225,53.2a25.365,25.365,0,0,0,3.741-13.226V17.09A50.417,50.417,0,0,0,45.481,13.8a46.056,46.056,0,0,0-17.5-3.8,45.206,45.206,0,0,0-17.5,3.8A50.415,50.415,0,0,0,4,17.09Z" transform="translate(0 5.992)" fill="#fff"/>
      <path id="Path_7" data-name="Path 7" d="M67.348,21.99H59.353v-4h7.995V10H19.39l-.009.008-2.762-2.89A3.982,3.982,0,0,1,19.379,6H67.348a4,4,0,0,1,4,4v7.995A4,4,0,0,1,67.348,21.99Z" transform="translate(16.598 5.992)" fill="#fff"/>
      <path id="Path_8" data-name="Path 8" d="M61.124,33.99H26.854v-4h34.27V22H49.132V18H61.124a4,4,0,0,1,4,4v7.995A4,4,0,0,1,61.124,33.99Z" transform="translate(26.82 17.977)" fill="#fff"/>
      <path id="Path_9" data-name="Path 9" d="M16.992,37.987a1.992,1.992,0,0,1-1.413-.586L7.585,29.407a2,2,0,0,1,2.827-2.826l6.58,6.582L31.57,18.586A2,2,0,0,1,34.4,21.412L18.4,37.4A1.992,1.992,0,0,1,16.992,37.987Z" transform="translate(6.991 17.977)" fill="#fff"/>
      <path id="Line_11" data-name="Line 11" d="M13.263,3H0V-1H13.263Z" transform="translate(48.81 60.962)" fill="#fff"/>
      <path id="Path_10" data-name="Path 10" d="M40.421,40.01H18.335a2.358,2.358,0,0,1-.671-.1,1.6,1.6,0,0,0,.237.046l.478-3.942h0l0-.025c.058.007.112.016.161.025H40.421Z" transform="translate(17.642 35.941)" fill="#fff"/>
      <path id="Path_11" data-name="Path 11" d="M47.975,49.429H16a4,4,0,0,1-4-4V38.564h4v6.868H47.975Z" transform="translate(11.985 38.515)" fill="#fff"/>
      <path id="Path_12" data-name="Path 12" d="M48.986,27.99H27v-4H48.986V16H27V12H48.986a4,4,0,0,1,4,4v7.995A4,4,0,0,1,48.986,27.99Z" transform="translate(26.965 11.985)" fill="#fff"/>
    </g>
  </g>
</svg>
