<svg xmlns="http://www.w3.org/2000/svg" xmlns:xlink="http://www.w3.org/1999/xlink" width="91" height="107" viewBox="0 0 91 107">
  <defs>
    <clipPath id="clip-path">
      <rect id="Rectangle_53" data-name="Rectangle 53" width="91" height="107" transform="translate(0 0.333)" fill="#fff"/>
    </clipPath>
  </defs>
  <g id="Group_27" data-name="Group 27" transform="translate(0 -0.333)">
    <g id="Group_26" data-name="Group 26" clip-path="url(#clip-path)">
      <path id="Path_4" data-name="Path 4" d="M45.578,107.729a2.071,2.071,0,0,1-.772-.149A98.787,98.787,0,0,1,22.534,94.252,68.279,68.279,0,0,1,7.117,77.542,43.9,43.9,0,0,1,0,53.864V14.5a2.072,2.072,0,0,1,.957-1.746,83.091,83.091,0,0,1,13.095-6.4A87.867,87.867,0,0,1,45.578,0,87.867,87.867,0,0,1,77.1,6.36a83.091,83.091,0,0,1,13.095,6.4,2.072,2.072,0,0,1,.957,1.746V53.864a43.9,43.9,0,0,1-7.117,23.678,68.279,68.279,0,0,1-15.417,16.71A98.787,98.787,0,0,1,46.35,107.579,2.071,2.071,0,0,1,45.578,107.729ZM4.143,15.674v38.19a39.818,39.818,0,0,0,6.478,21.467A64.17,64.17,0,0,0,25.115,91.011a97.742,97.742,0,0,0,20.462,12.395A98,98,0,0,0,66.12,90.947,64.045,64.045,0,0,0,80.563,75.284a39.8,39.8,0,0,0,6.449-21.42V15.674a86.788,86.788,0,0,0-11.527-5.5A83.654,83.654,0,0,0,45.578,4.143a83.654,83.654,0,0,0-29.907,6.032A86.787,86.787,0,0,0,4.143,15.674Z" transform="translate(0 0)" fill="#fff"/>
      <path id="Ellipse_7" data-name="Ellipse 7" d="M32.147-1A33.147,33.147,0,0,1,55.586,55.586,33.147,33.147,0,0,1,8.709,8.709,32.93,32.93,0,0,1,32.147-1Zm0,62.151A29,29,0,0,0,52.656,11.638,29,29,0,1,0,11.638,52.656,28.814,28.814,0,0,0,32.147,61.151Z" transform="translate(13.43 17.574)" fill="#fff"/>
      <path id="Path_5" data-name="Path 5" d="M26.5,14h12.43A2.072,2.072,0,0,1,41,16.072V26.43H51.362A2.072,2.072,0,0,1,53.434,28.5v12.43A2.072,2.072,0,0,1,51.362,43H41V53.362a2.072,2.072,0,0,1-2.072,2.072H26.5a2.072,2.072,0,0,1-2.072-2.072V43H14.072A2.072,2.072,0,0,1,12,40.932V28.5a2.072,2.072,0,0,1,2.072-2.072H24.43V16.072A2.072,2.072,0,0,1,26.5,14ZM36.86,18.143H28.574V28.5A2.072,2.072,0,0,1,26.5,30.574H16.143V38.86H26.5a2.072,2.072,0,0,1,2.072,2.072V51.291H36.86V40.932a2.072,2.072,0,0,1,2.072-2.072H49.291V30.574H38.932A2.072,2.072,0,0,1,36.86,28.5Z" transform="translate(12.86 15.004)" fill="#fff"/>
    </g>
  </g>
</svg>
