<?xml version="1.0" encoding="utf-8"?>
<!-- Generator: Adobe Illustrator 25.4.1, SVG Export Plug-In . SVG Version: 6.00 Build 0)  -->
<svg version="1.1" id="Layer_1" xmlns="http://www.w3.org/2000/svg" xmlns:xlink="http://www.w3.org/1999/xlink" x="0px" y="0px"
	 viewBox="0 0 203.7 255.998" enable-background="new 0 0 203.7 255.998" xml:space="preserve">
<g opacity="0.5">
	<path fill-rule="evenodd" clip-rule="evenodd" fill="#FFFFFF" d="M110.477,186.246c14.182-14.726,23.967-26.797,20.516-42.532
		c-0.676-3.082,2.783-6.579,5.99-5.212c4.725,2.009,10.732,4.395,17.115,7.006c2.277,0.931,3.395,1.153,5.141,2.752
		c7.758,7.109,3.855,20.339,0.09,31.078c-10.506-1.99-19.559,3.827-24.775,13.761l-8.396,15.987
		c-3.557,6.773,0.51,16.453,8.545,19.372c4.936,1.79,7.656-5.711,2.719-7.5c-3.715-1.35-5.379-5.911-4.201-8.153l8.396-15.988
		c3.842-7.315,10.814-12.154,19.156-8.819c5.736,2.293,10.219,8.452,7.986,18.703l-3.844,17.643c-0.537,2.46-4.691,4.91-8.463,3.54
		c-4.936-1.791-7.658,5.708-2.719,7.5c8.01,2.908,17.363-1.868,18.994-9.353l3.844-17.644c2.35-10.787-0.709-20.929-9.754-26.24
		c3.215-9.135,6.57-19.933,4.236-29.174c8.684,4.221,16.104,8.707,19.248,13.095c7.682,10.71,11.287,68.643,13.398,89.931H0
		c1.997-20.144,5.923-79.441,13.446-89.931c3.164-4.415,10.475-8.875,19.082-13.073c-1.201,3.67-1.668,7.725-1.477,12.014
		c0.467,10.503,4.779,21.317,10.156,30.268c-2.283,2.494-3.736,5.778-3.9,9.424c-0.369,8.258,6.025,15.253,14.285,15.625
		c8.26,0.369,15.256-6.026,15.625-14.285c0.371-8.26-6.024-15.258-14.284-15.627c-1.726-0.077-3.397,0.142-4.964,0.611
		c-4.633-7.758-8.545-17.265-8.949-26.358c-0.305-6.835,1.482-12.726,5.893-16.541c2.035-1.76,3.785-2.3,6.226-3.292
		c6.038-2.464,11.784-4.716,16.392-6.657c3.045-1.286,6.24,1.458,5.434,4.661c-4.304,17.099,7.176,29.933,23.188,46.692
		l-5.549,5.684c-1.537,1.577-1.502,4.104,0.078,5.642c1.578,1.536,4.104,1.5,5.641-0.079
		C101.044,195.939,105.786,191.114,110.477,186.246L110.477,186.246z"/>
	<path fill-rule="evenodd" clip-rule="evenodd" fill="#FFFFFF" d="M49.507,58.776c-0.536,19.835-2.298,50.16-7.954,63.077
		c13.216,2.933,28.495,4.766,44.293,5.503v-10.754c-1.511-1.473-2.958-3.137-4.327-4.972c-6.404-8.58-11.07-20.718-13.045-34.222
		c-0.6-4.102-0.695-8.312-0.268-12.438c12.282-8.069,21.493-14.959,29.763-27.25c-0.488,10.2-2.693,15.139-6.522,23.335
		c11.592-7.024,18.942-11.378,24.749-20.518c5.973,7.389,11.279,14.441,18.551,19.675c1.172,5.616,1.299,11.517,0.471,17.195
		c-1.975,13.504-6.641,25.642-13.045,34.222c-1.369,1.832-2.814,3.497-4.326,4.969v10.757c15.801-0.735,31.084-2.567,44.303-5.496
		c-5.635-12.938-7.264-43.366-8.012-63.145c-0.824-21.784-5.975-51.49-33.85-50.616C116.178,2.268,108.221,0,99.649,0
		C63.107,0,50.325,28.546,49.507,58.776L49.507,58.776z"/>
</g>
</svg>
