<?xml version="1.0" encoding="UTF-8"?>
<svg id="uuid-b2bf9715-c3e8-4a5c-b19d-ccedfe501c1c" data-name="Layer 2" xmlns="http://www.w3.org/2000/svg" width="88.23" height="87.6" viewBox="0 0 88.23 87.6">
  <g id="uuid-39557ec7-6ed8-4b9e-a1c0-991d579a7cbb" data-name="Layer 1">
    <path d="m88.23,77.7l-23.93-23.7c3.56-5.48,5.65-12.01,5.65-19.02C69.95,15.69,54.26,0,34.98,0S0,15.69,0,34.98s15.69,34.98,34.98,34.98c7.22,0,13.94-2.2,19.52-5.97l23.84,23.61c5.15-.87,8.65-3.9,9.9-9.9ZM10,34.98c0-13.77,11.2-24.98,24.98-24.98s24.98,11.2,24.98,24.98-11.2,24.98-24.98,24.98-24.98-11.2-24.98-24.98Z" fill="#fa9400"/>
  </g>
</svg>