<?xml version="1.0" encoding="utf-8"?>
<!-- Generator: Adobe Illustrator 18.1.1, SVG Export Plug-In . SVG Version: 6.00 Build 0)  -->
<!DOCTYPE svg PUBLIC "-//W3C//DTD SVG 1.1//EN" "http://www.w3.org/Graphics/SVG/1.1/DTD/svg11.dtd">
<svg version="1.1" id="Layer_3" xmlns="http://www.w3.org/2000/svg" xmlns:xlink="http://www.w3.org/1999/xlink" x="0px" y="0px"
	 viewBox="0 0 249.6 30.8" enable-background="new 0 0 249.6 30.8" xml:space="preserve">
<g>
	<path fill="#FFFFFF" d="M44.6,15.6L22.3,30.8L0,15.6L22.3,0L44.6,15.6z M20.9,11.6l5.3,0V8.9H12.2v2.7h5.2v9.1h1.3l2.2-3.6V11.6z
		 M30,18.3l1.2,2.4h0.1h3L28,8.9h-1.2v3.4c0,0-1.1,0-2.3,0l-3,5l-2.1,3.4l2.1,0l0.9,0l1.4-2.4H30z M27.2,13l1.5,2.8h-3.1L27.2,13z"
		/>
	<path fill="#FFFFFF" d="M59.6,22.9h-5.7V11.4h-5.5V8h17v3.5h-5.8V22.9z"/>
	<path fill="#FFFFFF" d="M72,14h9.2v2.8H72v2.9h10v3.3H66.2V8h15.5v3.3H72V14z"/>
	<path fill="#FFFFFF" d="M88.7,13.6h1.7L95.9,8h6.9l-7.6,7.3l8.2,7.6h-7.1l-6-5.8h-1.7v5.8H83V8h5.7V13.6z"/>
	<path fill="#FFFFFF" d="M109.3,22.9h-5.7V8h9.7l6.2,11.5h0.2L119.3,8h5.7v14.9h-9.8l-6.1-11.5H109L109.3,22.9z"/>
	<path fill="#FFFFFF" d="M136.2,19.6c-3,0-4-0.2-4-2.4v-3.4c0.1-2.2,1.1-2.4,4-2.4c3,0,4,0.2,4,2.4v3.4
		C140.2,19.3,139.1,19.6,136.2,19.6z M136.2,23c5.8,0,9.9-0.9,9.9-5.5v-4.2c0-4.6-4.1-5.5-9.9-5.5c-5.8,0-9.9,0.9-9.9,5.5v4.2
		C126.2,22.1,130.3,23,136.2,23z"/>
	<path fill="#FFFFFF" d="M153.4,15.5v-4h4.4c1.9,0,2.4,0.4,2.4,1.7c0,1.7,0.1,2.3-2.4,2.3H153.4z M147.6,22.9h5.7v-4h4.4
		c1.7,0,2.4,0.8,2.3,1.9v2.1h5.7v-3c0-1.7-1.5-2.6-3.9-2.6v-0.2c4.1-0.7,4.1-2.1,4.1-4.6c0-3.7-2.4-4.5-7.4-4.5h-11.1V22.9z"/>
	<path fill="#FFFFFF" d="M183.2,17.4h-5.3l2.6-6.5h0.1L183.2,17.4z M184.3,20.3l1.1,2.6h5.8L184.8,8H176l-6.4,14.9h6l1.1-2.6H184.3z
		"/>
	<path fill="#FFFFFF" d="M197.8,15.6v-4.2h3.9c2.2,0,2.6,0.5,2.6,2c0,1.9-0.3,2.1-2.6,2.2H197.8z M197.8,22.9v-3.8h5.1
		c6,0,7.3-1.4,7.3-5.6c0-3.9-2-5.5-7.3-5.5H192v14.9H197.8z"/>
	<path fill="#FFFFFF" d="M217.2,14h9.2v2.8h-9.2v2.9h10v3.3h-15.7V8H227v3.3h-9.8V14z"/>
	<path fill="#FFFFFF" d="M243.2,15.2l6.4,7.7h-6.7l-4.3-5.7l-4.2,5.7h-6.7l6.4-7.7l-6-7.2h6.7l3.9,5.5l3.9-5.5h6.6L243.2,15.2z"/>
</g>
</svg>
