<?xml version="1.0" encoding="utf-8"?>
<!-- Generator: Adobe Illustrator 22.1.0, SVG Export Plug-In . SVG Version: 6.00 Build 0)  -->
<svg version="1.1" id="Layer_3" xmlns="http://www.w3.org/2000/svg" xmlns:xlink="http://www.w3.org/1999/xlink" x="0px" y="0px"
	 viewBox="0 0 360.4 44.5" style="enable-background:new 0 0 360.4 44.5;" xml:space="preserve">
<style type="text/css">
	.st0{fill:#D2232A;}
	.st1{fill:#FFFFFF;}
</style>
<g>
	<polygon class="st0" points="32.2,0 0,22.5 32.2,44.5 64.4,22.5 	"/>
	<path class="st1" d="M30.2,16.8l4.8,0l0,0c0,0,1.9,0,2.8,0v-3.9H17.7v3.9h7.5v13.1H27l3.1-5.2V16.8z"/>
	<path class="st1" d="M43.4,26.4l1.7,3.5h0.1h4.3l-9-17h-1.7v5c0,0-1.5,0-3.2,0L31.2,25l-3,4.9l3.1,0l1.3,0l2.1-3.5H43.4z
		 M39.3,18.8l2.1,4h-4.5L39.3,18.8z"/>
</g>
<path d="M86,33.1h-8.3V16.5h-7.9v-5h24.6v5H86V33.1z"/>
<path d="M103.9,20.2h13.2v4h-13.2v4.2h14.4v4.7H95.6V11.5H118v4.7h-14.1V20.2z"/>
<path d="M128.1,19.6h2.5l8-8.1h10l-10.9,10.6l11.8,11h-10.3l-8.6-8.4h-2.5v8.4h-8.3V11.5h8.3V19.6z"/>
<path d="M157.9,33.1h-8.3V11.5h14l8.9,16.5h0.3l-0.5-16.5h8.3v21.5h-14.1l-8.8-16.5h-0.3L157.9,33.1z"/>
<path d="M196.6,28.2c-4.3,0-5.7-0.3-5.8-3.5v-4.9c0.1-3.2,1.5-3.5,5.8-3.5c4.3,0,5.8,0.3,5.8,3.5v4.9
	C202.5,27.9,200.9,28.2,196.6,28.2z M196.6,33.2c8.4,0,14.4-1.3,14.4-7.9v-6.1c0-6.6-6-7.9-14.4-7.9c-8.4,0-14.4,1.3-14.4,7.9v6.1
	C182.3,32,188.2,33.2,196.6,33.2z"/>
<path d="M221.5,22.4v-5.8h6.4c2.7,0,3.4,0.5,3.4,2.5c0,2.4,0.1,3.4-3.4,3.4H221.5z M213.2,33.1h8.3v-5.7h6.4c2.5,0,3.5,1.1,3.4,2.7
	v3h8.3v-4.3c0-2.4-2.2-3.7-5.6-3.8v-0.2c5.9-0.9,5.9-3,5.9-6.6c0-5.4-3.5-6.4-10.7-6.5h-16V33.1z"/>
<path d="M264.5,25.2h-7.7l3.8-9.3h0.1L264.5,25.2z M266.2,29.4l1.6,3.7h8.4l-9.4-21.5h-12.6l-9.3,21.5h8.6l1.5-3.7H266.2z"/>
<path d="M285.6,22.6v-6h5.7c3.2,0,3.7,0.7,3.7,2.9c0,2.8-0.5,3-3.7,3.1H285.6z M285.6,33.1v-5.5h7.3c8.6,0,10.6-2.1,10.6-8.1
	c0-5.6-2.9-7.9-10.6-7.9h-15.6v21.5H285.6z"/>
<path d="M313.7,20.2h13.2v4h-13.2v4.2h14.4v4.7h-22.7V11.5h22.4v4.7h-14.1V20.2z"/>
<path d="M351.2,22l9.2,11.1h-9.6l-6.2-8.3l-6.1,8.3h-9.7l9.3-11.1l-8.7-10.5h9.7l5.6,7.9l5.6-7.9h9.5L351.2,22z"/>
</svg>
