<?xml version="1.0" encoding="utf-8"?>
<!-- Generator: Adobe Illustrator 27.7.0, SVG Export Plug-In . SVG Version: 6.00 Build 0)  -->
<!DOCTYPE svg PUBLIC "-//W3C//DTD SVG 1.1//EN" "http://www.w3.org/Graphics/SVG/1.1/DTD/svg11.dtd" [
	<!ENTITY ns_extend "http://ns.adobe.com/Extensibility/1.0/">
	<!ENTITY ns_ai "http://ns.adobe.com/AdobeIllustrator/10.0/">
	<!ENTITY ns_graphs "http://ns.adobe.com/Graphs/1.0/">
	<!ENTITY ns_vars "http://ns.adobe.com/Variables/1.0/">
	<!ENTITY ns_imrep "http://ns.adobe.com/ImageReplacement/1.0/">
	<!ENTITY ns_sfw "http://ns.adobe.com/SaveForWeb/1.0/">
	<!ENTITY ns_custom "http://ns.adobe.com/GenericCustomNamespace/1.0/">
	<!ENTITY ns_adobe_xpath "http://ns.adobe.com/XPath/1.0/">
]>
<svg version="1.1" id="Layer_3" xmlns:x="&ns_extend;" xmlns:i="&ns_ai;" xmlns:graph="&ns_graphs;"
	 xmlns="http://www.w3.org/2000/svg" xmlns:xlink="http://www.w3.org/1999/xlink" x="0px" y="0px" viewBox="0 0 317 221"
	 style="enable-background:new 0 0 317 221;" xml:space="preserve">
<style type="text/css">
	.st0{fill:#626262;}
</style>
<metadata>
	<sfw  xmlns="&ns_sfw;">
		<slices></slices>
		<sliceSourceBounds  bottomLeftOrigin="true" height="219.1" width="312.1" x="1.8" y="1"></sliceSourceBounds>
	</sfw>
</metadata>
<path class="st0" d="M159,0.9h1.7c16,0.1,97.2,0.6,119.1,6.5c13.5,3.7,24,14.2,27.6,27.7c2,7.4,3.4,17.2,4.3,27.3l0.2,2l0.4,5.1
	l0.2,2c1.3,17.8,1.4,34.5,1.4,38.2v1.5c0,3.8-0.2,21.6-1.6,40.2l-0.2,2l-0.2,2c-1,11.2-2.4,22.2-4.6,30.4
	c-3.6,13.5-14.1,24-27.6,27.7c-22.6,6.1-108.6,6.5-120.5,6.5h-2.8c-6,0-30.9-0.1-57.1-1l-3.3-0.1l-1.7-0.1l-3.3-0.1l-3.3-0.1
	c-21.6-1-42.2-2.5-51.7-5.1c-13.5-3.6-24-14.2-27.6-27.7c-2.2-8.1-3.6-19.2-4.6-30.4l-0.2-2l-0.2-2c-1-13.2-1.5-26.4-1.6-39.7v-2.4
	c0-4.2,0.2-18.7,1.2-34.7l0.1-2l0.1-1l0.2-2l0.4-5.1l0.2-2c0.9-10.1,2.3-19.9,4.3-27.3c3.6-13.5,14.1-24,27.6-27.7
	C45.4,5,66,3.4,87.6,2.4l3.3-0.1l3.4-0.1L96.2,2l3.3-0.1c18.6-0.6,37.1-0.9,55.7-1H159L159,0.9z M126.8,63.5v93.9l81-46.9
	L126.8,63.5z"/>
</svg>
