<?xml version="1.0" encoding="utf-8"?>
<!-- Generator: Adobe Illustrator 27.5.0, SVG Export Plug-In . SVG Version: 6.00 Build 0)  -->
<!DOCTYPE svg PUBLIC "-//W3C//DTD SVG 1.1//EN" "http://www.w3.org/Graphics/SVG/1.1/DTD/svg11.dtd" [
	<!ENTITY ns_extend "http://ns.adobe.com/Extensibility/1.0/">
	<!ENTITY ns_ai "http://ns.adobe.com/AdobeIllustrator/10.0/">
	<!ENTITY ns_graphs "http://ns.adobe.com/Graphs/1.0/">
	<!ENTITY ns_vars "http://ns.adobe.com/Variables/1.0/">
	<!ENTITY ns_imrep "http://ns.adobe.com/ImageReplacement/1.0/">
	<!ENTITY ns_sfw "http://ns.adobe.com/SaveForWeb/1.0/">
	<!ENTITY ns_custom "http://ns.adobe.com/GenericCustomNamespace/1.0/">
	<!ENTITY ns_adobe_xpath "http://ns.adobe.com/XPath/1.0/">
]>
<svg version="1.1" id="Layer_4" xmlns:x="&ns_extend;" xmlns:i="&ns_ai;" xmlns:graph="&ns_graphs;"
	 xmlns="http://www.w3.org/2000/svg" xmlns:xlink="http://www.w3.org/1999/xlink" x="0px" y="0px" viewBox="0 0 317 221"
	 style="enable-background:new 0 0 317 221;" xml:space="preserve">
<style type="text/css">
	.st0{fill:#333333;}
</style>
<metadata>
	<sfw  xmlns="&ns_sfw;">
		<slices></slices>
		<sliceSourceBounds  bottomLeftOrigin="true" height="217" width="217.3" x="49.4" y="2"></sliceSourceBounds>
	</sfw>
</metadata>
<path class="st0" d="M158.1,2C98.1,2,49.5,50.5,49.4,110.5c0,44.7,27.4,84.9,69.1,101.2c-1-8.6-1.8-21.8,0.4-31.2
	c2-8.5,12.7-54,12.7-54s-3.2-6.5-3.2-16.1c0-15.1,8.8-26.4,19.7-26.4c9.3,0,13.7,6.9,13.7,15.3c0,9.3-5.9,23.2-9,36.1
	c-2.6,10.8,5.4,19.6,16.1,19.6c19.3,0,34.1-20.4,34.1-49.7c0-26-18.7-44.2-45.4-44.2c-30.9,0-49,23.2-49,47.1
	c0,9.3,3.6,19.3,8.1,24.8c0.8,0.8,1.1,2,0.8,3.1c-0.8,3.4-2.7,10.8-3,12.3c-0.5,2-1.6,2.4-3.6,1.5c-13.6-6.3-22-26.1-22-42.1
	c0-34.2,24.9-65.7,71.7-65.7c37.7,0,66.9,26.8,66.9,62.7c0,37.4-23.6,67.5-56.3,67.5c-11,0-21.3-5.7-24.9-12.5l-6.8,25.8
	c-2.5,9.4-9.1,21.3-13.5,28.5c57.3,17.7,118.1-14.4,135.8-71.7S247.3,24.6,190.1,6.8C179.7,3.6,168.9,2,158.1,2z"/>
</svg>
