<?xml version="1.0" encoding="utf-8"?>
<!-- Generator: Adobe Illustrator 27.7.0, SVG Export Plug-In . SVG Version: 6.00 Build 0)  -->
<!DOCTYPE svg PUBLIC "-//W3C//DTD SVG 1.1//EN" "http://www.w3.org/Graphics/SVG/1.1/DTD/svg11.dtd" [
	<!ENTITY ns_extend "http://ns.adobe.com/Extensibility/1.0/">
	<!ENTITY ns_ai "http://ns.adobe.com/AdobeIllustrator/10.0/">
	<!ENTITY ns_graphs "http://ns.adobe.com/Graphs/1.0/">
	<!ENTITY ns_vars "http://ns.adobe.com/Variables/1.0/">
	<!ENTITY ns_imrep "http://ns.adobe.com/ImageReplacement/1.0/">
	<!ENTITY ns_sfw "http://ns.adobe.com/SaveForWeb/1.0/">
	<!ENTITY ns_custom "http://ns.adobe.com/GenericCustomNamespace/1.0/">
	<!ENTITY ns_adobe_xpath "http://ns.adobe.com/XPath/1.0/">
]>
<svg version="1.1" id="Layer_6" xmlns:x="&ns_extend;" xmlns:i="&ns_ai;" xmlns:graph="&ns_graphs;"
	 xmlns="http://www.w3.org/2000/svg" xmlns:xlink="http://www.w3.org/1999/xlink" x="0px" y="0px" viewBox="0 0 317 221"
	 style="enable-background:new 0 0 317 221;" xml:space="preserve">
<style type="text/css">
	.st0{fill:#626262;}
</style>
<metadata>
	<sfw  xmlns="&ns_sfw;">
		<slices></slices>
		<sliceSourceBounds  bottomLeftOrigin="true" height="219" width="219" x="48.5" y="1"></sliceSourceBounds>
	</sfw>
</metadata>
<path class="st0" d="M48.5,16.7C48.5,8,55.7,1,64.6,1h186.8c8.9,0,16.1,7,16.1,15.7v187.6c0,8.7-7.2,15.7-16.1,15.7H64.6
	c-8.9,0-16.1-7-16.1-15.7V16.7z M116.2,184.3V85.4H83.3v98.9H116.2z M99.7,71.9c11.5,0,18.6-7.6,18.6-17.1
	c-0.2-9.7-7.1-17.1-18.4-17.1s-18.6,7.4-18.6,17.1c0,9.5,7.1,17.1,18.2,17.1H99.7z M166.9,184.3v-55.2c0-3,0.2-5.9,1.1-8
	c2.4-5.9,7.8-12,16.9-12c11.9,0,16.6,9.1,16.6,22.4v52.9h32.9v-56.7c0-30.4-16.2-44.5-37.8-44.5c-17.4,0-25.3,9.6-29.6,16.3v0.3
	h-0.2c0.1-0.1,0.1-0.2,0.2-0.3v-14h-32.9c0.4,9.3,0,98.9,0,98.9L166.9,184.3L166.9,184.3z"/>
</svg>
