<?xml version="1.0" encoding="UTF-8"?>
<svg id="Layer_1" data-name="Layer 1" xmlns="http://www.w3.org/2000/svg" version="1.1" viewBox="0 0 410.8 172.2">
  <defs>
    <style>
      .cls-1 {
        fill: #c7212b;
      }

      .cls-1, .cls-2 {
        stroke-width: 0px;
      }

      .cls-2 {
        fill: #fff;
      }
    </style>
  </defs>
  <polygon class="cls-2" points="204 15.2 169.4 39.4 204 63.1 238.7 39.4 204 15.2"/>
  <path class="cls-1" d="M201.8,33.4h8.2v-4.2h-21.6v4.2h8.1v14h2l3.4-5.6v-8.4Z"/>
  <path class="cls-1" d="M216,43.6l1.8,3.8h4.7l-9.6-18.3h-1.8v5.4h-3.5l-4.7,7.7-3.2,5.1h4.7l2.2-3.8h9.3ZM211.7,35.4l2.3,4.3h-4.9l2.6-4.3Z"/>
  <path class="cls-2" d="M101.3,88.2h-6.7v-13h-6.4v-3.9h19.7v3.9h-6.7v13Z"/>
  <path class="cls-2" d="M115.6,78h10.6v3.1h-10.6v3.3h11.6v3.7h-18.2v-17h18v3.7h-11.3v3.1Z"/>
  <path class="cls-2" d="M135.1,77.6h2l6.4-6.4h8l-8.8,8.3,9.5,8.7h-8.2l-6.9-6.6h-2v6.6h-6.6v-17h6.6v6.4Z"/>
  <path class="cls-2" d="M159,88.2h-6.6v-17h11.2l7.1,13h.3l-.4-13h6.6v17h-11.3l-7-13h-.3l.4,13Z"/>
  <path class="cls-2" d="M190.1,84.4c-3.5,0-4.6-.2-4.7-2.8v-3.8c0-2.5,1.2-2.8,4.7-2.8s4.7.3,4.7,2.8v3.8c0,2.5-1.2,2.8-4.7,2.8ZM190.1,88.3c6.7,0,11.5-1,11.5-6.2v-4.8c0-5.2-4.8-6.2-11.5-6.2s-11.6,1-11.6,6.2v4.8c0,5.2,4.8,6.2,11.6,6.2Z"/>
  <path class="cls-2" d="M210.1,79.7v-4.6h5.2c2.2,0,2.8.4,2.8,1.9s0,2.6-2.8,2.6h-5.2ZM203.5,88.2h6.7v-4.5h5.2c2,0,2.8.9,2.7,2.1v2.4h6.6v-3.4c0-1.9-1.8-2.9-4.5-3v-.2c4.7-.7,4.7-2.4,4.7-5.2,0-4.2-2.8-5.1-8.6-5.1h-12.8v17Z"/>
  <path class="cls-2" d="M244.7,81.9h-6.2l3-7.3h0l3.1,7.3ZM246,85.2l1.3,2.9h6.8l-7.6-17h-10.1l-7.5,17h6.9l1.2-2.9h8.9Z"/>
  <path class="cls-2" d="M261.6,79.9v-4.7h4.5c2.6,0,3,.5,3,2.3s-.4,2.4-3,2.5h-4.5ZM261.6,88.2v-4.3h5.9c6.9,0,8.5-1.6,8.5-6.4s-2.3-6.2-8.5-6.2h-12.5v17h6.6Z"/>
  <path class="cls-2" d="M284.2,78h10.6v3.1h-10.6v3.3h11.6v3.7h-18.2v-17h18v3.7h-11.3v3.1Z"/>
  <path class="cls-2" d="M314.4,79.4l7.4,8.7h-7.7l-5-6.5-4.9,6.5h-7.8l7.5-8.7-7-8.2h7.8l4.5,6.2,4.5-6.2h7.6l-6.8,8.2Z"/>
  <path class="cls-2" d="M233.7,14.2c0,0,0,.2-.2.2-3.8,0-6.9,3.1-6.9,6.9s0,.2-.1.2-.2,0-.2-.2c0-3.8-3.1-6.9-6.9-6.9s-.2,0-.2-.2,0-.1.2-.1c3.8,0,6.9-3.1,6.9-6.9,0,0,0-.2.2-.2s.2,0,.2.2,0,0,0,0c0,3.8,3.1,6.9,6.9,6.9s.2,0,.2.1Z"/>
  <path class="cls-2" d="M243.7,25.8c0,0,0,.1-.1.1-2.6,0-4.8,2.1-4.8,4.8s0,.1-.1.1-.1,0-.1-.1c0-2.6-2.1-4.8-4.8-4.8s-.1,0-.1-.1,0-.1.1-.1c2.6,0,4.8-2.1,4.8-4.8,0,0,0-.1.1-.1s.1,0,.1.1c0,2.6,2.1,4.8,4.8,4.8s.1,0,.1.1Z"/>
  <path class="cls-2" d="M243.7,5c0,0,0,.1-.1.1-2.6,0-4.8,2.1-4.8,4.8s0,.1-.1.1-.1,0-.1-.1c0-2.6-2.1-4.8-4.8-4.8s-.1,0-.1-.1,0-.1.1-.1c2.6,0,4.8-2.1,4.8-4.8,0,0,0-.1.1-.1s.1,0,.1.1c0,2.6,2.1,4.8,4.8,4.8s.1,0,.1.1Z"/>
  <g>
    <path class="cls-2" d="M46.2,104.7c0-4.5,3.3-7.6,7.4-7.6s4.1,1,5.4,2.6l-1.1.7c-.9-1.3-2.5-2.1-4.3-2.1-3.4,0-6.1,2.6-6.1,6.4s2.7,6.4,6.1,6.4,3.4-.9,4.3-2.1l1.1.7c-1.3,1.6-3,2.6-5.4,2.6-4.1,0-7.4-3.1-7.4-7.6Z"/>
    <path class="cls-2" d="M65.1,112v-14.7h9.3v1.1h-8.1v5.4h7.9v1.1h-7.9v5.8h8.1v1.1h-9.3Z"/>
    <path class="cls-2" d="M81.1,112v-14.7h1.3v13.5h7.1v1.1h-8.4Z"/>
    <path class="cls-2" d="M95.7,112v-14.7h9.3v1.1h-8.1v5.4h7.9v1.1h-7.9v5.8h8.1v1.1h-9.3Z"/>
    <path class="cls-2" d="M111.6,112v-14.7h6c2.5,0,4.1,1.4,4.1,3.7s-1.3,3.1-2.6,3.4c1.6.2,2.9,1.9,2.9,3.6s-1.6,4-4.2,4h-6.2ZM112.9,103.9h4.6c1.9,0,2.9-1.2,2.9-2.7s-1-2.7-2.9-2.7h-4.6v5.4ZM112.9,110.9h4.7c1.9,0,3.1-1.1,3.1-2.9s-1-2.9-3.1-2.9h-4.7v5.8Z"/>
    <path class="cls-2" d="M137.3,112l-4.1-6.1h-3.2v6.1h-1.3v-14.7h5.5c2.5,0,4.5,1.6,4.5,4.3s-1.9,4.1-4.1,4.2l4.2,6.2h-1.5ZM134.1,98.5h-4.1v6.3h4.1c1.9,0,3.3-1.3,3.3-3.2s-1.3-3.1-3.3-3.1Z"/>
    <path class="cls-2" d="M156,112l-1.5-3.6h-7.8l-1.5,3.6h-1.4l6-14.7h1.6l6,14.7h-1.4ZM150.6,98.6l-3.5,8.7h7l-3.5-8.7Z"/>
    <path class="cls-2" d="M165.3,112v-13.5h-4.8v-1.1h10.9v1.1h-4.8v13.5h-1.3Z"/>
    <path class="cls-2" d="M177.5,112v-14.7h1.3v14.7h-1.3Z"/>
    <path class="cls-2" d="M196.4,112l-9.2-12.7v12.7h-1.3v-14.7h1.3l9.2,12.5v-12.5h1.3v14.7h-1.2Z"/>
    <path class="cls-2" d="M211.7,97.1c2.4,0,4.2,1,5.5,2.5l-.9.7c-1-1.2-2.7-2-4.6-2-3.5,0-6.1,2.6-6.1,6.4s2.7,6.5,6.1,6.5,3.5-1,4.3-1.8v-3.5h-5.5v-1.1h6.8v5.1c-1.3,1.5-3.3,2.4-5.6,2.4-4.1,0-7.4-3.1-7.4-7.6s3.3-7.6,7.4-7.6Z"/>
    <path class="cls-2" d="M235.1,112v-13l-2.4,2.5-.8-.8,3.2-3.4h1.1v14.7h-1.3Z"/>
    <path class="cls-2" d="M248.4,97.1c3.9,0,5.4,4.1,5.4,7.6s-1.5,7.6-5.4,7.6-5.4-4.1-5.4-7.6,1.5-7.6,5.4-7.6ZM248.4,98.3c-3.1,0-4.1,3.4-4.1,6.4s1,6.4,4.1,6.4,4.1-3.4,4.1-6.4-1-6.4-4.1-6.4Z"/>
    <path class="cls-2" d="M265.4,97.1c3.9,0,5.4,4.1,5.4,7.6s-1.5,7.6-5.4,7.6-5.4-4.1-5.4-7.6,1.5-7.6,5.4-7.6ZM265.4,98.3c-3.1,0-4.1,3.4-4.1,6.4s1,6.4,4.1,6.4,4.1-3.4,4.1-6.4-1-6.4-4.1-6.4Z"/>
    <path class="cls-2" d="M290.9,112v-6.3l-5.8-8.4h1.5l5,7.2,5-7.2h1.5l-5.8,8.4v6.3h-1.3Z"/>
    <path class="cls-2" d="M303.7,112v-14.7h9.3v1.1h-8.1v5.4h7.9v1.1h-7.9v5.8h8.1v1.1h-9.3Z"/>
    <path class="cls-2" d="M330.4,112l-1.5-3.6h-7.8l-1.5,3.6h-1.4l6-14.7h1.6l6,14.7h-1.4ZM325,98.6l-3.5,8.7h7l-3.5-8.7Z"/>
    <path class="cls-2" d="M346.1,112l-4.1-6.1h-3.2v6.1h-1.3v-14.7h5.5c2.5,0,4.5,1.6,4.5,4.3s-1.9,4.1-4.1,4.2l4.2,6.2h-1.5ZM342.8,98.5h-4.1v6.3h4.1c1.9,0,3.3-1.3,3.3-3.2s-1.3-3.1-3.3-3.1Z"/>
    <path class="cls-2" d="M354.1,109c.9,1.1,2.5,2.1,4.6,2.1,3,0,3.9-1.7,3.9-2.9,0-2.1-2-2.6-4-3.2-2.3-.6-4.8-1.3-4.8-4s2.2-3.9,4.8-3.9,3.8.8,5,2.1l-.8.9c-1.1-1.3-2.6-1.8-4.2-1.8s-3.4,1.1-3.4,2.7,1.8,2.2,3.8,2.8c2.4.7,5,1.4,5,4.4s-1.3,4.2-5.2,4.2-4.2-1-5.4-2.3l.8-.9Z"/>
  </g>
  <g>
    <path class="cls-2" d="M8.3,165.5v.2c0,0,0,.1.1.1-.1,0-.1.2-.2.2,0,0-.2-.1-.2-.2,0,.2,0,.2,0,.2-.1,0-.1-.2-.2-.3-.1,0-.3.1-.3.1,0,.2,0,.2.1.3,0,0,0,.1-.1.1,0,0,.1.2.1.3,0,0-.2-.2-.2-.3-.1-.3-.2-.5-.4-1,0,.2.2.5.2.7,0,.4.2.8.4.9,0,0,.4.2.5.2h.2c0,0-.1,0-.2,0-.2.2-.3.3-.5.3-.1,0-1-.3-1.1-.3-1.1-.5-1.8-2.1-1.8-3.8v-.3c0-3.2,1.6-9,2.6-12-.1-.1-.2-1.1-.2-1.3,0-.2,0-.4.2-.6,0,0,0-.2.6-.4,1.4-4.2,3.1-8.6,5-15.2v-.6c0-.5.6-.6,1.1-.6s.9.3,1,.3c.5,0,1.6.6,1.6,2.2v.2c-.8,4.3-1.7,6.4-3.5,12.4,6.7-1.3,16.6-6.4,16.8-11.6v-.3c0-3.7-4.4-4.7-7.5-4.9h-.8c0,0-.9,0-.9,0-6.5,0-12.7,2.1-16.9,6.2-.6.6-1.4,1.7-1.4,2.7s0,.5.2.7c-.1.5-.4.9-1,1-.8,0-1.7-1.6-1.7-2.7v-.2c.9-7.8,11.6-10.7,18.1-11.3h3.6c3.7.3,8,1.8,9.6,4.4.3.4.6.8.8,1.3.6,1,.8,2.7.8,3.9v.3c-.1,1.4-1.2,3.5-1.9,4.5-2.2,3.1-5.1,5-8.4,6.7l-.5.3c-.3.1-.6.3-1,.3s-.1,0-.1.1c0,0-.1.1-.2.1s-.4.1-.6.2c0,0-.1.1-.2.1-.3.2-.8.3-1.1.4,0,.2-.2.1-.3.2-.2,0-.3,0-.4,0-.3.1-.6.2-.9.3l-2.6.6c-.9.2-1.8.4-2.8.5-1.2,4.1-2.9,9.4-3.3,13.3,0,.2.1.3.1.4,0,.2-.1.5-.2.5-.1,0-.1.1-.1.2,0,0,0-.2-.2-.2ZM13.7,149.9c.1,0,.3,0,.3,0,0,0-.3.2-.4.2h-.3c-.1.2-.6.2-.8.2s0,.1,0,.2c.6,0,.9-.3,1.3-.3h.3c.2.1.3,0,.4,0-.1-.1-.2,0-.3-.2,0-.1,0-.1.2-.2l.8-.3c-.1,0-.1,0-.2,0,0,0-.3.1-.4.2l-.5.2-1.3.2c0,0,.1.1.2.1h.7ZM15.1,150.4c-.1,0-.2-.1-.3-.1,0,0-.3.1-.4.2l-1,.2c-.1,0-.2,0-.2,0,0,0,.3,0,.3,0l1.4-.3ZM13.8,149.4c0,0-.1-.1-.2-.1s-.1,0-.1.1h.3ZM14.5,148.6c0,0,.1,0,.2,0,.2-.2.3-.2.3-.2h-.2c-.2,0-.3,0-.3,0,0,.1,0,.3,0,.2ZM15.2,148.1v.2c-.1,0,0,0,0,0s.1,0,.2-.1c0,0,0-.1.1-.2-.2,0-.2,0-.3,0ZM32.1,133.8c0-.5-.5-1-.7-1.4,0,.3.2.5.2.9,0,.2.2.3.3.5.1.3.2.6.4.9,0-.3-.2-.8-.2-.8Z"/>
    <path class="cls-2" d="M32,160.6c1.8,0,6-5.1,7.3-6.7,1.6-2,3.2-4.3,4.3-5.6v.5c0-.1.1-.2.2-.3s0,.4-.1.6l.2-.3c0,0,.2.4.2.5.2.1,0,.4.3.4s-.9,1.6-1,1.7l-1.3,1.8c-1.6,2.2-6.5,9.3-10.4,9.3s-4.9-3.1-4.9-5.9,0-.7,0-1c.3-4.3,3.5-11.2,7.9-12.4,1.1.1,4.3,1.3,4.3,2.7v.3c-.1,3.6-3.4,5.8-6.1,5.8h-.6c0,0-.3.2-.3.2-.3.8-1.2,4-1.2,6.1v.6c0,.9.5,1.7,1,1.7ZM29.8,158v.5c0,0,.3,0,.3,0,0-.1,0-.3-.3-.4ZM30.2,157.6c.1.4.1.4.1.4.1,0,.1-.4.1-.7-.1.2-.2.2-.2.3ZM30.8,156.9c.2-1.5.8-3.5,1.2-4.8-.1.2-.3.6-.3.8l-.3.7c0,0,.1-.1.1-.1,0,0,0,.3-.1.3,0,0-.2.4-.2.6,0,0,0,.2-.1.2s-.1,0-.2.1l.2-.7c.1-.4.6-1.9.6-1.9,0,0-.2.2-.2.2-.3,1-.7,2.1-.8,3.3l.2-.9c0,0,.1.1.1.3s0,.4,0,.4c0,0-.2,1-.2,1.6ZM33.2,149.4c0,0-.3-.1-.3-.1,0,0-.2.2-.2.2l.2.3c0-.1,0-.3.4-.3ZM33.4,149.5l-.3.5c1.6-.4,3.5-2.4,3.5-3.9s-.2-.1-.2-.2c-1.1.9-1.9,1.6-3,3.6ZM33.4,148.9c0-.1-.2-.1-.2-.1v.3c.1,0,.2-.1.2-.2ZM41.4,153.6c0,0-.1,0-.1.1s.4-.2.4-.3c-.2,0-.2,0-.2,0,0,.1,0,.2,0,.2Z"/>
    <path class="cls-2" d="M52.2,148c0,.4.1.9.1,1.3,0,3.6-3.2,10-7,11.5-.4.2-.5.2-.8.2h-.6c-.6,0-1.3-.2-2-.5-1.2-.1-1.5-1.5-1.5-3.1s.4-3.4.5-4c0-.1,0-.2,0-.3s.3-.7.3-.7c1.7-5,4.7-9.3,8.1-9.6h.6c.2,0,1,.2,1.1.3.2,0,.4.1.4.1,0,.1,0,.3-.3.5-.4.2-.9.5-1.4,1,.7.3,1.3.8,1.7,1.3,2.8,0,6.1-.6,8-.9.2,0-1,1.6-1.1,1.7-.8.3-1.6.4-2.6.6-.1,0-.2,0-.3,0-1.2.2-2.2.4-3.3.5ZM49.4,148.1h-.4c-.4,0-.9-.1-1.2-.3l-.8,1.9c-1.2,3-2.5,6.1-2.8,8.8,0,0,.2,0,.3,0s.1-.1.2-.1c2-1.9,4.6-6.4,4.8-9.9v-.3ZM49.4,155.2c-.1,0-.2.1-.2.2s.1,0,.1.2c0,0,.1-.2.1-.4ZM50.3,154.1l-.2.4c0,.2-.3.6-.4.8,0,0,.3-.1.3-.1.1-.3.3-.5.4-.9,0,0,0-.2,0-.3,0,0-.1,0-.2.2ZM50.1,153.8s0,.1.1.2c-.2.3-.3.5-.4.7,0,0,.2,0,.2-.2.1-.1.2-.3.3-.4v-.6c0,0-.2.3-.2.3ZM51.3,151.9c0,0-.1,0-.1-.1,0-.2.2-.3.3-.4-.3.1-.5.7-.5,1-.2.1-.3.7-.3.7,0,0,.3-.1.3-.1,0,0,0-.2,0-.3s0-.2,0-.3c.2-.1.2-.4.3-.6ZM51.4,150.3c0,.2,0,.4,0,.7.1-.2.2-.3.2-.5l-.2-.2ZM51.4,151.5c0,0,0,.1,0,.2.1,0,.1-.2.1-.2-.1,0-.2,0-.2,0ZM51.8,149.7v.6c.1-.2.2-.4.2-.5s0-.2,0-.3v.2Z"/>
    <path class="cls-2" d="M76.8,146c0,.1.1.2.2.2,0,.2-.2.4-.3.5,0,.2,0,.5-.3.5s0,.2-.1.2-.1.2-.1.3c0,0,0,0,.2,0,0,0-.1.2-.1.3-2,.5-4.6,1.5-6.7,2.8-1.6,5.1-4.1,7.8-5.4,8.8-.2.2-.3.5-.6.5,0,0-.2,0-.2.2,0,0-.2.1-.3.2l-.5.3c0-.1.2-.3.4-.4.3-.2.5-.4.8-.6.2-.2.3-.3.4-.6.2-.2.4-.3.6-.5,0,0,0-.1,0-.2l-.9.6c0,.1-.1.3-.2.3,0,0-.3.1-.3.1,0,0,.1.1.2.1-.1,0-.2,0-.2.1-.1,0-.1.1-.1.2,0,0-.3.3-.3.3,0,0-.4,0-.5.2-.2.2-.3.2-.5.3-.2.2-.4.2-.6.3,0,0,0,0-.2,0-.1.1-.2.2-.3.2h-.5c-1.1-.3-2.7-1-3.1-1.5-.2.5-.5,1.4-1.2,4.2l-.9,4.6c-.1.4-.2,1-.3,1.4,0,0,0,.2,0,.2,0,.2,0,.4,0,.6s0,.3-.2.3,0,0,0,.2v.5c0,.3,0,.6-.3.8-.5,0-2.7-.9-2.8-1.3-.2-.6-.2-1.3-.2-1.9s0-1.1.1-1.6c1.1-9.5,5.4-19.1,8.1-28.3.3-.3.4-.3.6-.3.4,0,1.6.5,1.8.9.2.3.3.6.4,1.1v1c-.1,1.9-.5,2.7-.9,4.1,0,.3-.2.5-.2.6v-.2c1.1-1.2,2.5-2.8,4.1-3.3,1,0,1.9,0,2.7.6,0,0,.2.1.2.1,1.1.2,1.7,2.7,1.7,3.6v.9c0,0,2.5-1.1,2.9-1.2,1.5-.5,2.7-.9,4.5-1.2,0,0-.3.2-.4.3h-.2ZM52.9,163.4c0,0-.2-.3-.2-.3,0,0-.2.9-.2,1l.3-.6ZM54.4,168.6c-.1,0-.1.4-.1.4.1,0,.1,0,.1-.2v-.3ZM54.7,167.2v.2c.3-.3.3-.6.3-.7s0-.2.2-.3v-.3c0,0,0-.1,0-.2s0-.2,0-.2c.1-.2.2-.2.2-.2.1,0-.2-.1-.2-.3s0-.1,0-.2.1-.3.1-.5.4-.5.3-.5c-.1,0-.2.1-.4.3,0-.1.1-.3.1-.4,0-.1-.1-.3-.1-.4,0,0-.1,0-.1.2s0,.1.1.3c0,.2,0,.3-.1.3,0,0,0,.1,0,.3,0,0-.1,0-.1.1v.2c0,.1,0,1.2-.1,1.2s-.1-.2-.1-.2c0-.1,0-.2,0-.3,0,.1-.1.3-.1.4s0,.2,0,.2c0,0,0,.1,0,.2,0,.1-.2.1-.2.3s0,.2,0,.2c0,.1,0,.3,0,.4ZM54.9,168.6l-.2.3c.1,0,.2,0,.2-.1,0,0,0-.1,0-.2ZM55.7,162.4c.1-.1.1-.2.1-.3v-.2s-.2.2-.3.2l.2.3ZM56.4,160.1c-.2.1-.2.2-.2.3l-.3.8c.3,0,.4-.6.5-.7-.1-.2-.1-.2-.1-.3ZM66.4,146.6c0-.6-.1-1.1-.3-1.6-3.2,3-6,6.3-7.8,11.7,1.6-2.4,4.6-5,7.8-6.9.3-.9.3-1.6.3-2.6v-.6ZM60.2,158.8l-.5.2c0,0-.1.1-.2.1.4,0,.6-.2.7-.3ZM63.1,156.1c.8-1.1,1.1-1.3,1.7-2.5,0,0,0-.1.1-.3l-.3.2c-1.4,1.2-4.6,4-4.9,5.2.6-.1,2.6-1.7,3.4-2.7ZM62.1,160.2c0,0-.2.2-.3.2-.1.1-.1.2-.2.2h-.2c0,.1.3,0,.3,0l.6-.5h-.3ZM65.2,152.3c0-.2,0,0,0-.2-.2,0-.4.2-.4.3.1,0,.4,0,.5-.2ZM64.9,152.8c.1,0,.1,0,.2,0,0,0,0-.1,0-.2,0,.1,0,.2-.1.2ZM65.9,157.6c0-.1.2-.3.2-.4l.2-.4c0,0-.6.7-.6.7,0,.2-.1.3-.2.5l.3-.4ZM70.1,149.5c0,0-.1,0-.2,0s-.1,0-.1.1c0,.2,0,.1.1.2l.2-.3ZM70.3,149c.1,0,.1,0,.1-.1-.1,0-.2,0-.2,0l-.3.3c0,0,0,0,.1,0l.3-.2Z"/>
    <path class="cls-2" d="M86.4,149.2l.2.8.3-.5c0,0,0,.3,0,.3,0,0-.1.3-.3.5l.3.4c.1,0,.3-.3.3-.2s-.1.3-.5.9c-.4.5-1,1.7-1.7,1.9.1,0,.2.1.3.1,0-.1.1-.2.2-.2-1.7,2.7-6,9.3-8.7,10.3-.5.1-.2.3-.9.3s-.3,0-.4-.1c-.3-.3-1.2-.5-1.6-.9-1.1-1-1-2.8-1.1-3.2,0-.2,0-.3.2-.5,0,.1,0,.2,0,.3.1-.2.1-.4.1-.6,0,0-.2,0-.2,0,0-.2-.1-.2-.1-.3s0-.3,0-.6v-.3c0-.4,0-.8.2-1.4,0,0-.2-.2-.2-.4,0,.1,0,.2,0,.2-.1.8-.2,1.3-.2,2.2v1c0,1.2.3,2.6.8,3.3-.6,0-1-2.1-1.1-3.6v-.6c0-2.4.8-4.9,1.4-6.9,1.4-4.8,4.5-12.5,6.6-19,.2-.3.4-.4.7-.4s.3.1.3.3c1.1.4,1.7,1.2,1.7,2.2.1.2.1.3.1.5s0,.4,0,.5c-.9,4.1-1.8,6.6-3.2,10.8-1.3,3.5-3.8,10.5-3.8,14.5v.2c.1.4,0,.6.2.6s.2,0,.3-.1c2.9-2.2,8.3-10.5,9.5-12.2.2-.3.3-.5.6-.6l-.3.4ZM73,160.6c0,0,0,.1,0,.2v-.3c.1-.2,0-.3,0-.5v.6ZM73.5,152.7c0,.1,0,.2.1.3,0-.2.1-.4.1-.6-.1,0-.2.2-.2.3ZM73.7,151.9c0,0,0,.2,0,.2.1-.1.1-.2.1-.3-.1,0-.2,0-.2.2ZM74.2,150.3c-.2.3-.3.7-.4,1.1h.2c0-.1,0-.3,0-.3v-.8ZM75.4,159.8c.1-.3.1-.7.1-1.1l-.2.9v1c.1,0,.1-.8.1-.8ZM75.9,155.3c0,0,.1-.1.1-.2v-.2c0-.1,0-.4.1-.5-.1.1-.2.2-.3.2,0,.2,0,.4,0,.7ZM76.2,153.1s-.2,0-.2.2v.2c0,0,.2-.4.2-.4ZM76.2,152.9h.4v-.2c-.1,0,0-.3,0-.3,0,0,.1-.2.1-.3-.2,0-.2.2-.2.4,0,0-.1.4-.3.4ZM78,162l-.4.4c.1,0,.4-.3.5-.4,0-.1.2-.3.3-.4,0,0-.1,0-.3.1,0,0-.1.2-.1.3ZM79.4,159.1c0,0,.2-.1.2-.1,0-.1.1-.2.1-.3s-.1,0-.1.2c-.1,0-.2.2-.2.2Z"/>
    <path class="cls-2" d="M88.9,160.6c1.8,0,6-5.1,7.3-6.7,1.6-2,3.2-4.3,4.3-5.6v.5c0-.1.1-.2.2-.3s0,.4-.1.6l.2-.3c0,0,.2.4.2.5.2.1,0,.4.3.4s-.9,1.6-1,1.7l-1.3,1.8c-1.6,2.2-6.5,9.3-10.4,9.3s-4.9-3.1-4.9-5.9,0-.7,0-1c.3-4.3,3.5-11.2,7.9-12.4,1.1.1,4.3,1.3,4.3,2.7v.3c-.1,3.6-3.4,5.8-6.1,5.8h-.6c0,0-.3.2-.3.2-.3.8-1.2,4-1.2,6.1v.6c0,.9.5,1.7,1,1.7ZM86.7,158v.5c0,0,.3,0,.3,0,0-.1,0-.3-.3-.4ZM87.2,157.6c.1.4.1.4.1.4.1,0,.1-.4.1-.7-.1.2-.2.2-.2.3ZM87.7,156.9c.2-1.5.8-3.5,1.2-4.8-.1.2-.3.6-.3.8l-.3.7c0,0,.1-.1.1-.1,0,0,0,.3-.1.3,0,0-.2.4-.2.6,0,0,0,.2-.1.2s-.1,0-.2.1l.2-.7c.1-.4.6-1.9.6-1.9,0,0-.2.2-.2.2-.3,1-.7,2.1-.8,3.3l.2-.9c0,0,.1.1.1.3s0,.4,0,.4c0,0-.2,1-.2,1.6ZM90.1,149.4c0,0-.3-.1-.3-.1,0,0-.2.2-.2.2l.2.3c0-.1,0-.3.4-.3ZM90.4,149.5l-.3.5c1.6-.4,3.5-2.4,3.5-3.9s-.2-.1-.2-.2c-1.1.9-1.9,1.6-3,3.6ZM90.4,148.9c0-.1-.2-.1-.2-.1v.3c.1,0,.2-.1.2-.2ZM98.4,153.6c0,0-.1,0-.1.1s.4-.2.4-.3c-.2,0-.2,0-.2,0,0,.1,0,.2,0,.2Z"/>
    <path class="cls-2" d="M130.8,165.5v.2c0,0,0,.1.1.1-.1,0-.1.2-.2.2,0,0-.2-.1-.2-.2,0,.2,0,.2,0,.2-.1,0-.1-.2-.2-.3-.1,0-.3.1-.3.1,0,.2,0,.2.1.3,0,0,0,.1-.1.1,0,0,.1.2.1.3,0,0-.2-.2-.2-.3-.1-.3-.2-.5-.4-1,0,.2.2.5.2.7,0,.4.2.8.4.9,0,0,.4.2.5.2h.2c0,0-.1,0-.2,0-.2.2-.3.3-.5.3-.1,0-1-.3-1.1-.3-1.1-.5-1.8-2.1-1.8-3.8v-.3c0-3.2,1.6-9,2.6-12-.1-.1-.2-1.1-.2-1.3,0-.2,0-.4.2-.6,0,0,0-.2.6-.4,1.4-4.2,3.1-8.6,5-15.2v-.6c0-.5.6-.6,1.1-.6s.9.3,1,.3c.5,0,1.6.6,1.6,2.2v.2c-.8,4.3-1.7,6.4-3.5,12.4,6.7-1.3,16.6-6.4,16.8-11.6v-.3c0-3.7-4.4-4.7-7.5-4.9h-.8c0,0-.9,0-.9,0-6.5,0-12.7,2.1-16.9,6.2-.6.6-1.4,1.7-1.4,2.7s0,.5.2.7c-.1.5-.4.9-1,1-.8,0-1.7-1.6-1.7-2.7v-.2c.9-7.8,11.6-10.7,18.1-11.3h3.6c3.7.3,8,1.8,9.6,4.4.3.4.6.8.8,1.3.6,1,.8,2.7.8,3.9v.3c-.1,1.4-1.2,3.5-1.9,4.5-2.2,3.1-5.1,5-8.4,6.7l-.5.3c-.3.1-.6.3-1,.3s-.1,0-.1.1c0,0-.1.1-.2.1s-.4.1-.6.2c0,0-.1.1-.2.1-.3.2-.8.3-1.1.4,0,.2-.2.1-.3.2-.2,0-.3,0-.4,0-.3.1-.6.2-.9.3l-2.6.6c-.9.2-1.8.4-2.8.5-1.2,4.1-2.9,9.4-3.3,13.3,0,.2.1.3.1.4,0,.2-.1.5-.2.5-.1,0-.1.1-.1.2,0,0,0-.2-.2-.2ZM136.2,149.9c.1,0,.3,0,.3,0,0,0-.3.2-.4.2h-.3c-.1.2-.6.2-.8.2s0,.1,0,.2c.6,0,.9-.3,1.3-.3h.3c.2.1.3,0,.4,0-.1-.1-.2,0-.3-.2,0-.1,0-.1.2-.2l.8-.3c-.1,0-.1,0-.2,0,0,0-.3.1-.4.2l-.5.2-1.3.2c0,0,.1.1.2.1h.7ZM137.6,150.4c-.1,0-.2-.1-.3-.1,0,0-.3.1-.4.2l-1,.2c-.1,0-.2,0-.2,0,0,0,.3,0,.3,0l1.4-.3ZM136.3,149.4c0,0-.1-.1-.2-.1s-.1,0-.1.1h.3ZM137,148.6c0,0,.1,0,.2,0,.2-.2.3-.2.3-.2h-.2c-.2,0-.3,0-.3,0,0,.1,0,.3,0,.2ZM137.7,148.1v.2c-.1,0,0,0,0,0s.1,0,.2-.1c0,0,0-.1.1-.2-.2,0-.2,0-.3,0ZM154.6,133.8c0-.5-.5-1-.7-1.4,0,.3.2.5.2.9,0,.2.2.3.3.5.1.3.2.6.4.9,0-.3-.2-.8-.2-.8Z"/>
    <path class="cls-2" d="M170.7,147.8l-.2,1.7.4-.6v.4c0,0-.2.3-.2.3h.3c0-.1.1.3.1.3v.4c0,0-1.6,2.4-1.6,2.4-.9,1.4-3.9,6.1-5.8,7.8-.5.4-1.1.8-1.7,1-.1,0-.4,0-.4,0-.2,0-.8,0-1,0-.3,0-.6-.3-1-.4-1.2-.4-1.9-1.8-1.9-3.2v-.5c0-1.8.3-3.2.6-4.7-1.3,2.1-3.8,6.7-6.1,7-.2,0-1.1-.6-1.3-.7-.8-.4-1.2-.2-1.7-1.7,0,0,0-.2-.1-.3v-.4c0-.1-.1-.2-.1-.3,0-.2.2-.5.2-.8v-.5c0-.3,0-.4.2-.5v-.7c.6-3.6,5.4-10.6,9.1-10.6s1.7.6,2.4.8c.3-.3.7-1.5,1.6-1.6l.4.2h.2c.8,0,1.8.8,1.8,1.2,0,.5-.2,1.7-.5,2.2-.9,1.4-2.9,10.6-2.9,13.2.1.4.2.4.2.4,1.9-.9,7.6-9.9,9.1-12.1ZM150.2,152.4c.2,0,.4-.5.4-.8-.2.2-.3.5-.4.8ZM150.6,151.6v-.4c0,0,0,.2-.2.3,0,0,.1,0,.2.1ZM159.1,146.8c-.9.1-2.6,2.1-4,4.2-1,1.5-2,3.8-2.5,5.2-.1.3-.1.5-.1.7l-.2.5s.2,0,.3-.2c.2-.2,0,0,2.4-3.6,1.5-2.3,3.5-5.5,4.7-6.9-.2,0-.4,0-.5,0ZM160.6,154.7c.2,0,.2,0,.2-.3s0-.1-.2-.2v.5ZM161.1,156.5c0,0,0-.2,0-.3v-.5c-.1.3-.1.4-.3.6.1.1.2.2.2.2ZM161.5,155.7c-.2.8-.2,1.4-.3,2.2,0,.1,0,.2,0,.3v.3c.2-2.7,1.4-7.9,2.3-10.5-.5.5-1.6,5.4-1.7,6.5,0,.4-.3.5-.3.9v.3ZM161.5,154.8v-.3c-.2,0-.1,0-.1.2s0,.3-.1.3c0,0,0,.2,0,.3s0,.2,0,.2c0-.3.1-.4.2-.7ZM161.3,152.2l.2-.2c.1-.2.1-.3.1-.4s.1-.1.1-.2,0-.1,0-.2c-.2.3-.2.5-.3.9ZM161.5,154.4s-.1.2,0,.2.2-.2.2-.3c-.1,0-.1,0-.2,0ZM161.8,149.7v-.5l-.3,1c0,0,0,0,.2,0,0-.1,0-.4,0-.5Z"/>
    <path class="cls-2" d="M167.2,161.8c-.2,0-.2-.5-.2-.6s0-.2,0-.2c0-.2,0-.3.1-.6v-1c0-.2.1-.2.2-.3v-.8c1-4.7,2.3-8.1,3.4-13,0-.3.2-.7.2-1.1s.3-.4.3-.4c.2-.2.4-.3.7-.4.1,0,1.1.4,1.6.4.3,0,.8.3.8.6.3.3.4.6.4,1.1v.6c0,.8,0,.8-.2,1.7,1.3-1.8,4.3-3.9,6-3.9s.8.3,1,.6c0,0,0,.2,0,.2,0,.1,0,.1-.2.1-.3.1-.6.2-1.9.9-.2,0-.3.1-.3.2l-.4.4c-.2,0-.4.2-.4.3l-1.2,1.3c-.2.2-.4.4-.5.5-.3.3-.4.5-.7.8,0,0,0,.1-.2.1,0,.2-.2.3-.2.5-.2.1-.3.4-.3.5-.1.1-.2.1-.2.2,0,0,0,0,0,.2h-.2c0,.2-.1.3-.1.4,0,0-.3.1-.3.2,0,.1,0,.2,0,.3-.2.1-.3.5-.3.6-.2.3-.4.4-.8,1,0,0-.1-.2-.1-.1,0,.1,0,.2,0,.2,0,.2,0,.2-.2.2,0,.1,0,.2,0,.3v.2c0,.3-.1,0-.1.3-.2,0-.2.1-.3.3,0-.2,0-.2,0-.2,0-.1,0-.2,0-.2,0,0-.1-.1-.2-.1,0,0,0,0,0-.2,0-.1,0-.2,0-.3.1-.1.1-.2.1-.3-.2,0-.4.6-.4.6,0,0-.1.3-.1.4-.1,0-.1.2-.1.3,0,.2-.3.6-.3.8s.2-.5.4-.6c0-.3.1-.4.2-.4,0-.1,0-.3.1-.3,0,0,0,.5-.1.7l.2-.2c0,.2-.2.3-.3.3v.3s0,.2-.2.2c0,.3-.1.4-.2.4s0-.2,0-.2c-.3.1-.4.3-.4.6v.3c.1-.3.1-.5.1-.6.2,0,.2,0,.2.1,0,0,0,.2-.2.3,0,0,0,.1,0,.2s0,.1.1.1c0,0,0,.2-.1.1l-.4.6c0,.2,0,.3-.1.4v.4c-.2.2-.2.3-.2.5,0,0,0,.8-.2.8v.5c-.1.1-.3.8-.3.8,0,0,.1-.4.2-.4.1,0,.2-.6.2-.7,0,0,.2-.5.2-.6,0-.2.2-.5.2-.6,0-.2.1-.3.1-.4,0-.2.2-.3.2-.4,0-.2.2-.3.2-.4,0-.2,0-.3.1-.4,0-.1.2-.3.2-.3v.4c0,.2-.2.4-.2.5,0,0-.2.4-.2.4,0,0,0,.1,0,.2,0,.1,0,.2,0,.2h-.2c0,0-.1.1-.2.2.1.1.1.2.1.3s.2-.4.4-.5c0,.1,0,.3-.2.4,0,.2,0,.3,0,.3-.2.1-.2.2-.2.2s0,.2,0,.2l-.3.7v.5c.1,0,.1-.1.1-.2,0,0,0-.1,0-.2,0-.1,0-.2,0-.3,0,0,.1,0,.2,0,0,0,0,.2,0,.3s0,.2,0,.2c0,0,0,.2.2.2,0-.2,0-.3.2-.3,0,.2-.2.3-.2.4v.4c-.2,0-.4.7-.4.8,0-.1-.1-.2-.1-.2l-.2.2v-.4c0,0-.1.1-.2.1,0,0,0-.2,0-.3,0,0,0-.1.1-.1,0,0,0-.2.1-.3.1,0,.2,0,.2-.1,0-.2-.5.5-.5.5,0,.2,0,.3-.2.4,0,.2,0,.3-.2.5,0,0-.2.3-.3.4,0,0-.2.2-.3.2h-.3c-.1-.2-.3-.2-.4-.3,0,0-.3,0-.4-.1-.2,0-1.6-.1-1.6-.3ZM169.3,160.6c0,0-.2,0-.2.2-.1,0-.2.2-.2.2s0,.1.1.2c0,.2,0,.3-.1.3,0,0,.1.3.1.3,0,0,.2-.3.2-.4,0-.2,0-.3.1-.4,0,.1-.1,0-.2.1,0-.2,0-.2.2-.3,0-.1,0-.2,0-.2ZM169.9,160c-.2,0-.3,0-.3.3,0,0,0-.1.1-.1.2,0,.2-.1.2-.2ZM170,155.7c-.1,0-.2,0-.2.2,0,0,.2,0,.2,0v-.2ZM171.2,156.9c0,.2,0,.4,0,.6,0-.1.3-.9.3-.9,0,0-.2,0-.2,0,0,0,0,.1,0,.2ZM175,149.7c0-.1,0-.3,0-.4,0,0-.1.3-.2.4l-.2.2.3-.2ZM175.4,149.7l.3-.2s-.2,0-.2-.1c0,.1,0,.1-.1.3ZM175.8,147.3c-.1,0-.2.2-.2.2,0,0,.4-.3.5-.4-.2,0-.3,0-.3.2ZM177.7,146.3c-.2,0-.6.5-.6.7.2-.2.4-.4.6-.7Z"/>
    <path class="cls-2" d="M193,138.3c-1.2,0-2.4,0-3.5.2-.7,2.2-1.6,4.6-2.4,6.5v-.2c0,0,1.3-3.9,1.3-3.9-.2.2-1.4,3.1-2.6,6.6,0,.1-.2.3-.2.7l-.2.5c0,0,0,.1,0,.2l-.2.2c-.1.1-.2.3-.2.5v.2l-.5,1.8c-.5,1.8-1.3,5.1-1.3,6.9v.6l.2-1.8c.2-1.4.6-3.2,1-4.9,0,0,0-.1,0-.2,0,0,0-.1,0-.2v-.3c.6-2,1.1-3.6,1.4-4.2,0-.3.2-.9.4-1.2l.2-.2v-.5c.1,0,.3-.2.3-.2-1.7,4.8-3.3,9.7-3.4,14.2,0,.3,0,.5.3.5s.2,0,.3,0c2.4-1.3,7.3-7.8,9.9-11l.6-.8c.2-.2.2-.4.3-.5,0,0,.1-.2.3-.2l-.2.4c0,0,.3,0,.4-.3,0,0,0,.1,0,.2,0,.2-.2.5-.3.7l.4-.5c0,0,0,.2,0,.2-.1.2-.2.4-.4.6l.5-.5v.5c0,.1,0,.3-.3.3v.4c-.1.4-.6,1.1-.8,1.4l-2.8,4c-.5.7-3.3,4.2-4.1,4.6-.3.5-.5.6-.9,1,0,.2-.2.2-.2.2-.4.3-.8.5-1.2.8-.4.2-.4.3-.9.4-.2,0-.5.3-.9.3s-.9-.1-1-.3c-.1,0-.6-.1-.6-.2-.2,0-1.2-.6-1.4-.8,0,0-.2-.1-.2-.2-.2-.1-.2-.3-.3-.4l-.2-.5c0,0,0-.2,0-.2,0-.3-.1-.4-.1-.8v-.3c0-.2-.1-.3-.1-.5s0-.1,0-.2c0,0,0-.2,0-.2,0,0,0-.3.1-.3v-.3c0-.1,0-.2,0-.3-.1-.1-.2-.2-.2-.2,0-.3.2-.4.2-.6v-.7c0,0,0-.1,0-.2,0,0,0,0,0-.2,0-.4.1-.9.3-1.2,0-.1,0-.2.1-.5,0-.3,0-.4.1-.6.1-.2.2-.5.2-.8v-.3c0-.3.3-.6.3-.9,1-3.9,2.5-8,4.1-11.9-2.5.3-4.7.7-6.4.8h-1c-1.1,0-2.9-.2-3.4-1.5,0-.2-.1-.4-.1-.7s0-.3.2-.5c0-.1.3-.2.4-.2,0,0,0,0,.2.1.3,0,.8.1,1.4.1,1.6,0,4-.2,5.5-.3,1.8-.2,3.2-.3,4.3-.4l1.7-4.5.4-.8c.1-.1.2-.2.3-.2.2,0,.8.3,1,.3.9,0,1,.7,1,1.4,0,.2.3.5.3.5v.3c-.1.8-.3,1.7-.5,2.2v.4c-.1,0,2.3,0,2.3,0,2.5,0,4.4.7,4.9,1.2,0,.3-.3.2-.3.3s0,.3.1.3c0,0-.6.2-.8.4-.2,0-.5,0-1.7-.1-.6,0-1.1,0-1.8,0ZM186.2,160.7c0,0-1.5,1.1-2.1,1.3.5,0,2.1-1,2.1-1.3ZM191.6,154.9c0,0-.3.3-.3.4,0,.2-.2.4-.5.4s-.1,0-.2.1l-.2.4c0,0-.1.2-.2.2s0,.2-.1.2l-.2.2c0,.2-.1.3-.3.4l-.2.3c-.1.1-.4.4-.4.5,0,0,.5-.4.5-.5l.4-.4c0-.2.3-.3.4-.5,0,0,0-.1,0-.2,0-.1.2-.3.2-.4.2,0,.3-.1.4-.3.1-.1.2-.3.3-.4l.4-.5.4-.7c-.1,0-.2.1-.2.2,0,.2,0,.2-.3.3,0,0-.2.2-.4.3h.2ZM192.9,152.4c.3-.1.7-.6.7-.6,0-.1.1-.3,0-.3l-.8.9ZM196,138h.2c0,0,0-.2-.1-.2,0,.1-.1.2-.1.2Z"/>
    <path class="cls-2" d="M214,148.4c0,0,0,.5-.1.9h0c0-.1.2.4.2.4l.5-.6-.8,1.2c.2-.2.5-.4.8-.6v.5l-1.5,2.6-.8,1c0,.1-.3.3-.3.3,0,0,.2-.3.2-.5s-.4.4-.4.5.1,0,.1.1,0,.2-.2.3c-.2.4-.5.4-.5.4,0,.1,0,.2,0,.2,0,.2-.3.5-.3.5q0,0,0,0c0,0,.4-.5.5-.5-1.1,1.7-2.3,3.3-3.6,4.9-1.6,2-2.8,2.8-3.7,2.9-.6,0-1.3-.2-1.9-.4-1.3-.8-1.6-1.6-1.6-2.6v-.9c0-.1,0-.3,0-.4v-.3c0-.4,0-.6.1-.9,0-.2.5-2.1.6-2.5.7-2.2,2-5.9,2.1-7.2v-.9c0-.1,0-.2,0-.2-.9.4-3.8,3.8-6.6,9-.6,1.1-.6,1.9-1.4,3.2,0,.2-.1.3-.2.5-.3.6-.8.7-1.4.7-.7-.2-2-1.4-2.1-1.4-.2,0-.3,0-.4-.2,0-.1-.3-.2-.3-.3s0-.2.1-.4c1.4-5.3,3-11.4,3.6-14,0-.2.2-.5.5-.5s1.7.6,1.8.7c.3.2.9.8.9,1.1,0,.4,0,.5.1,1v.3c0,.7-.2,1.9-.6,3.3,1.2-2.1,3.2-4.4,4.7-5.1.5-.3.9-.4,1.4-.4,1.3.5,3.2,1.1,3.5,2.6.2.5.2,1,.2,1.6,0,1.3-.9,4.3-1.3,5.5-.6,2.1-1.8,5.2-1.9,7,0,.3,0,.3,0,.3,1,0,8.9-11.6,9.8-12.8ZM192.9,155.2c0-.1,0-.2,0-.4s-.2,0-.2,0c0,0,.1.2.1.3ZM193.9,153.5c0-.1-.1-.1-.1-.2,0,.1,0,.2-.2.3.2,0,.2-.1.3-.1ZM203.5,160.1c0,0,.2.3.2.3,0,.1-.2.4-.2.6h.2c0-.2,0-.3,0-.3,0-.2,0-.4,0-.6,0-.1,0-.2,0-.2,0,0,0-.2,0-.3,0-.2,0-.4.2-.5v-.3c0,0-.2,0-.2.2,0,.1,0,.3,0,.3,0,0-.2.2-.2.1,0-.2.2-.6.2-.6s0-.1,0-.3c0,0,.1,0,.1-.2.1,0,.1-.2.1-.3,0,0,.1-.1.1-.2,0,0,.2-.2.2-.2,0-.1-.1-.1-.2-.1v-.3c-.1,0-.1.3-.1.3h-.2s0,.1,0,.2c0,0-.2.2-.2.2h.2c0,0-.2.1-.2.3s0,.2-.1.2c0,0,0,.2,0,.2,0,.1-.2.1-.2.2v.8c0,0,.2.2.2.2s-.2.2-.2.3ZM204.1,158.6c0,0,0,0,0-.1v-.3c0,.2,0,.3,0,.4ZM204.4,156.3h-.2c0,0,.1.1.2.1s.1,0,.2-.1c0-.2,0-.4,0-.4,0,0-.1,0-.1.1,0,0-.2.2-.2.3ZM204.8,152.9c0,.2-.2.3-.2.5,0-.3.4-.7.5-.8-.2,0-.3.2-.3.3ZM205.7,152.1c0,.1-.2.5-.3.6,0,0,.3-.4.3-.4,0,0,.1,0,.1-.3v-.2c0,0-.1.2-.1.2ZM208.2,159c0,0-.1.2-.1.3l-.4.4c.1,0,.4-.3.5-.4,0-.1.2-.3.3-.4,0,0-.1,0-.3.1ZM209.5,157.4c0,0,0,0,0-.2s-.1.2-.2.2h.2c-.2.2-.2.2-.2.2.2,0,.5-.6.5-.7-.2,0-.3.3-.4.4ZM210.4,156.3c0,0,.2-.3.3-.4-.4.4-.8.4-.8.9,0,0,0,0,.4-.5ZM213,152.5l-.2.3h.3c0-.1.2-.6.2-.6,0,.1-.2.3-.2.3Z"/>
    <path class="cls-2" d="M216.3,160.6c1.8,0,6-5.1,7.3-6.7,1.6-2,3.2-4.3,4.3-5.6v.5c0-.1.1-.2.2-.3s0,.4-.1.6l.2-.3c0,0,.2.4.2.5.2.1,0,.4.3.4s-.9,1.6-1,1.7l-1.3,1.8c-1.6,2.2-6.5,9.3-10.4,9.3s-4.9-3.1-4.9-5.9,0-.7,0-1c.3-4.3,3.5-11.2,7.9-12.4,1.1.1,4.3,1.3,4.3,2.7v.3c-.1,3.6-3.4,5.8-6.1,5.8h-.6c0,0-.3.2-.3.2-.3.8-1.2,4-1.2,6.1v.6c0,.9.5,1.7,1,1.7ZM214.1,158v.5c0,0,.3,0,.3,0,0-.1,0-.3-.3-.4ZM214.5,157.6c.1.4.1.4.1.4.1,0,.1-.4.1-.7-.1.2-.2.2-.2.3ZM215.1,156.9c.2-1.5.8-3.5,1.2-4.8-.1.2-.3.6-.3.8l-.3.7c0,0,.1-.1.1-.1,0,0,0,.3-.1.3,0,0-.2.4-.2.6,0,0,0,.2-.1.2s-.1,0-.2.1l.2-.7c.1-.4.6-1.9.6-1.9,0,0-.2.2-.2.2-.3,1-.7,2.1-.8,3.3l.2-.9c0,0,.1.1.1.3s0,.4,0,.4c0,0-.2,1-.2,1.6ZM217.5,149.4c0,0-.3-.1-.3-.1,0,0-.2.2-.2.2l.2.3c0-.1,0-.3.4-.3ZM217.7,149.5l-.3.5c1.6-.4,3.5-2.4,3.5-3.9s-.2-.1-.2-.2c-1.1.9-1.9,1.6-3,3.6ZM217.7,148.9c0-.1-.2-.1-.2-.1v.3c.1,0,.2-.1.2-.2ZM225.7,153.6c0,0-.1,0-.1.1s.4-.2.4-.3c-.2,0-.2,0-.2,0,0,.1,0,.2,0,.2Z"/>
    <path class="cls-2" d="M224.6,161.8c-.2,0-.2-.5-.2-.6s0-.2,0-.2c0-.2,0-.3.1-.6v-1c0-.2.1-.2.2-.3v-.8c1-4.7,2.3-8.1,3.4-13,0-.3.2-.7.2-1.1s.3-.4.3-.4c.2-.2.4-.3.7-.4.1,0,1.1.4,1.6.4.3,0,.8.3.8.6.3.3.4.6.4,1.1v.6c0,.8,0,.8-.2,1.7,1.3-1.8,4.3-3.9,6-3.9s.8.3,1,.6c0,0,0,.2,0,.2,0,.1,0,.1-.2.1-.3.1-.6.2-1.9.9-.2,0-.3.1-.3.2l-.4.4c-.2,0-.4.2-.4.3l-1.2,1.3c-.2.2-.4.4-.5.5-.3.3-.4.5-.7.8,0,0,0,.1-.2.1,0,.2-.2.3-.2.5-.2.1-.3.4-.3.5-.1.1-.2.1-.2.2,0,0,0,0,0,.2h-.2c0,.2-.1.3-.1.4,0,0-.3.1-.3.2,0,.1,0,.2,0,.3-.2.1-.3.5-.3.6-.2.3-.4.4-.8,1,0,0-.1-.2-.1-.1,0,.1,0,.2,0,.2,0,.2,0,.2-.2.2,0,.1,0,.2,0,.3v.2c0,.3-.1,0-.1.3-.2,0-.2.1-.3.3,0-.2,0-.2,0-.2,0-.1,0-.2,0-.2,0,0-.1-.1-.2-.1,0,0,0,0,0-.2,0-.1,0-.2,0-.3.1-.1.1-.2.1-.3-.2,0-.4.6-.4.6,0,0-.1.3-.1.4-.1,0-.1.2-.1.3,0,.2-.3.6-.3.8s.2-.5.4-.6c0-.3.1-.4.2-.4,0-.1,0-.3.1-.3,0,0,0,.5-.1.7l.2-.2c0,.2-.2.3-.3.3v.3s0,.2-.2.2c0,.3-.1.4-.2.4s0-.2,0-.2c-.3.1-.4.3-.4.6v.3c.1-.3.1-.5.1-.6.2,0,.2,0,.2.1,0,0,0,.2-.2.3,0,0,0,.1,0,.2s0,.1.1.1c0,0,0,.2-.1.1l-.4.6c0,.2,0,.3-.1.4v.4c-.2.2-.2.3-.2.5,0,0,0,.8-.2.8v.5c-.1.1-.3.8-.3.8,0,0,.1-.4.2-.4.1,0,.2-.6.2-.7,0,0,.2-.5.2-.6,0-.2.2-.5.2-.6,0-.2.1-.3.1-.4,0-.2.2-.3.2-.4,0-.2.2-.3.2-.4,0-.2,0-.3.1-.4,0-.1.2-.3.2-.3v.4c0,.2-.2.4-.2.5,0,0-.2.4-.2.4,0,0,0,.1,0,.2,0,.1,0,.2,0,.2h-.2c0,0-.1.1-.2.2.1.1.1.2.1.3s.2-.4.4-.5c0,.1,0,.3-.2.4,0,.2,0,.3,0,.3-.2.1-.2.2-.2.2s0,.2,0,.2l-.3.7v.5c.1,0,.1-.1.1-.2,0,0,0-.1,0-.2,0-.1,0-.2,0-.3,0,0,.1,0,.2,0,0,0,0,.2,0,.3s0,.2,0,.2c0,0,0,.2.2.2,0-.2,0-.3.2-.3,0,.2-.2.3-.2.4v.4c-.2,0-.4.7-.4.8,0-.1-.1-.2-.1-.2l-.2.2v-.4c0,0-.1.1-.2.1,0,0,0-.2,0-.3,0,0,0-.1.1-.1,0,0,0-.2.1-.3.1,0,.2,0,.2-.1,0-.2-.5.5-.5.5,0,.2,0,.3-.2.4,0,.2,0,.3-.2.5,0,0-.2.3-.3.4,0,0-.2.2-.3.2h-.3c-.1-.2-.3-.2-.4-.3,0,0-.3,0-.4-.1-.2,0-1.6-.1-1.6-.3ZM226.7,160.6c0,0-.2,0-.2.2-.1,0-.2.2-.2.2s0,.1.1.2c0,.2,0,.3-.1.3,0,0,.1.3.1.3,0,0,.2-.3.2-.4,0-.2,0-.3.1-.4,0,.1-.1,0-.2.1,0-.2,0-.2.2-.3,0-.1,0-.2,0-.2ZM227.3,160c-.2,0-.3,0-.3.3,0,0,0-.1.1-.1.2,0,.2-.1.2-.2ZM227.4,155.7c-.1,0-.2,0-.2.2,0,0,.2,0,.2,0v-.2ZM228.6,156.9c0,.2,0,.4,0,.6,0-.1.3-.9.3-.9,0,0-.2,0-.2,0,0,0,0,.1,0,.2ZM232.3,149.7c0-.1,0-.3,0-.4,0,0-.1.3-.2.4l-.2.2.3-.2ZM232.8,149.7l.3-.2s-.2,0-.2-.1c0,.1,0,.1-.1.3ZM233.2,147.3c-.1,0-.2.2-.2.2,0,0,.4-.3.5-.4-.2,0-.3,0-.3.2ZM235.1,146.3c-.2,0-.6.5-.6.7.2-.2.4-.4.6-.7Z"/>
    <path class="cls-2" d="M237.3,159.4c0-.3,1.3-1.3,1.6-1.4-.3.3-1.1,1-1.1,1.2.2-.3.9-.9,1-.9.2,0,0,0,.2,0,0,0,.1-.2.1-.2,0,0,0-.1,0-.2l.2-.2c.4-.4,1.7-1.3,2.1-1.6l-.4-1c-1.1-2.3-2-4.6-2-7,0-3.9,4.3-6.9,7.5-6.9s1,.2,1,.2l1.7.7c1.2,0,2.2,2.4,2.2,3.2s-.7,2-1.2,2.5h-.2c0,0-.3.4-.7.4s-.5,0-.6,0c-.1,0-.6-.2-.6-.2-.3-.1-.6-.3-.6-.4,0-.3.8-2.2.8-3.2,0-.4-.2-.4-.3-.4h-.2c-2,0-4.6,1.5-4.6,3.9s1.5,4.8,2.1,6c2.7-1.7,7.2-4,8.9-5.5,0,.3-1.1,1.2-1.3,1.2.4,0,.3-.1,1.1-.6-.3.4-.7.6-.7.7l-.3.3c-.2.2.8-.6.9-.6s.2,0,.3,0c-.5.2-.3.4-.9.9.5,0,.9-.3,1-.5,0,.4-.5.8-1,1.1,0,.2,0,.4.2.3,0,.3-1.2,1-2.2,1.6l-5.1,3.2c.2.6.3,1,.4,1.9,0,.3,0,.5,0,.8,0,3.7-3.8,6.1-6.7,6.1h-.7c-1.4-.2-2.7-1.7-2.7-2.8s.1-1,.5-1.5c.2-.3.6-.7.6-1ZM239,162.2c1.7-.1,3.6-2,3-3.8-1.4,1-3.4,2.8-3.4,3.3s-.4.2-.4.3c.2.2.5.2.8.2ZM241.8,148.7c0,.1-.2.2-.2.3s.1.1.2.2v-.4ZM243.8,153.5c0,.1,0,.3.1.5l.3.3-.4-.8ZM244.3,161.4c0,.1-.1.2-.1.3,0,0,0,0,.1.2v-.5ZM244.9,153.9c-.2-.2-.4-.8-.6-1.1.1.4.3,1,.4,1.2h.2ZM244.4,159.3c0,0,.2.2.2.2,0,0,.1-.3.1-.4l-.3.2ZM244.8,160.7c-.1.2-.3.5-.3.7.2-.3.2-.4.2-.4v-.3ZM245.1,161.7c0,0,.1,0,.2-.2.1-.1.1-.3.1-.4-.1.2-.3.6-.3.6ZM245.5,156.1c.4,1.1.4,2,.4,3.2,0,.5-.2,1-.3,1.3v.3c.2-.5.5-1.4.5-2.4s-.1-1.6-.4-2.5h-.2Z"/>
    <path class="cls-2" d="M284.4,165.5v.2c0,0,0,.1.1.1-.1,0-.1.2-.2.2,0,0-.2-.1-.2-.2,0,.2,0,.2,0,.2-.1,0-.1-.2-.2-.3-.1,0-.3.1-.3.1,0,.2,0,.2.1.3,0,0,0,.1-.1.1,0,0,.1.2.1.3,0,0-.2-.2-.2-.3-.1-.3-.2-.5-.4-1,0,.2.2.5.2.7,0,.4.2.8.4.9,0,0,.4.2.5.2h.2c0,0-.1,0-.2,0-.2.2-.3.3-.5.3-.1,0-1-.3-1.1-.3-1.1-.5-1.8-2.1-1.8-3.8v-.3c0-3.2,1.6-9,2.6-12-.1-.1-.2-1.1-.2-1.3,0-.2,0-.4.2-.6,0,0,0-.2.6-.4,1.4-4.2,3.1-8.6,5-15.2v-.6c0-.5.6-.6,1.1-.6s.9.3,1,.3c.5,0,1.6.6,1.6,2.2v.2c-.8,4.3-1.7,6.4-3.5,12.4,6.7-1.3,16.6-6.4,16.8-11.6v-.3c0-3.7-4.4-4.7-7.5-4.9h-.8c0,0-.9,0-.9,0-6.5,0-12.7,2.1-16.9,6.2-.6.6-1.4,1.7-1.4,2.7s0,.5.2.7c-.1.5-.4.9-1,1-.8,0-1.7-1.6-1.7-2.7v-.2c.9-7.8,11.6-10.7,18.1-11.3h3.6c3.7.3,8,1.8,9.6,4.4.3.4.6.8.8,1.3.6,1,.8,2.7.8,3.9v.3c-.1,1.4-1.2,3.5-1.9,4.5-2.2,3.1-5.1,5-8.4,6.7l-.5.3c-.3.1-.6.3-1,.3s-.1,0-.1.1c0,0-.1.1-.2.1s-.4.1-.6.2c0,0-.1.1-.2.1-.3.2-.8.3-1.1.4,0,.2-.2.1-.3.2-.2,0-.3,0-.4,0-.3.1-.6.2-.9.3l-2.6.6c-.9.2-1.8.4-2.8.5-1.2,4.1-2.9,9.4-3.3,13.3,0,.2.1.3.1.4,0,.2-.1.5-.2.5-.1,0-.1.1-.1.2,0,0,0-.2-.2-.2ZM289.8,149.9c.1,0,.3,0,.3,0,0,0-.3.2-.4.2h-.3c-.1.2-.6.2-.8.2s0,.1,0,.2c.6,0,.9-.3,1.3-.3h.3c.2.1.3,0,.4,0-.1-.1-.2,0-.3-.2,0-.1,0-.1.2-.2l.8-.3c-.1,0-.1,0-.2,0,0,0-.3.1-.4.2l-.5.2-1.3.2c0,0,.1.1.2.1h.7ZM291.2,150.4c-.1,0-.2-.1-.3-.1,0,0-.3.1-.4.2l-1,.2c-.1,0-.2,0-.2,0,0,0,.3,0,.3,0l1.4-.3ZM289.9,149.4c0,0-.1-.1-.2-.1s-.1,0-.1.1h.3ZM290.6,148.6c0,0,.1,0,.2,0,.2-.2.3-.2.3-.2h-.2c-.2,0-.3,0-.3,0,0,.1,0,.3,0,.2ZM291.2,148.1v.2c-.1,0,0,0,0,0s.1,0,.2-.1c0,0,0-.1.1-.2-.2,0-.2,0-.3,0ZM308.2,133.8c0-.5-.5-1-.7-1.4,0,.3.2.5.2.9,0,.2.2.3.3.5.1.3.2.6.4.9,0-.3-.2-.8-.2-.8Z"/>
    <path class="cls-2" d="M302.7,161.8c-.2,0-.2-.5-.2-.6s0-.2,0-.2c0-.2,0-.3.1-.6v-1c0-.2.1-.2.2-.3v-.8c1-4.7,2.3-8.1,3.4-13,0-.3.2-.7.2-1.1s.3-.4.3-.4c.2-.2.4-.3.7-.4.1,0,1.1.4,1.6.4.3,0,.8.3.8.6.3.3.4.6.4,1.1v.6c0,.8,0,.8-.2,1.7,1.3-1.8,4.3-3.9,6-3.9s.8.3,1,.6c0,0,0,.2,0,.2,0,.1,0,.1-.2.1-.3.1-.6.2-1.9.9-.2,0-.3.1-.3.2l-.4.4c-.2,0-.4.2-.4.3l-1.2,1.3c-.2.2-.4.4-.5.5-.3.3-.4.5-.7.8,0,0,0,.1-.2.1,0,.2-.2.3-.2.5-.2.1-.3.4-.3.5-.1.1-.2.1-.2.2,0,0,0,0,0,.2h-.2c0,.2-.1.3-.1.4,0,0-.3.1-.3.2,0,.1,0,.2,0,.3-.2.1-.3.5-.3.6-.2.3-.4.4-.8,1,0,0-.1-.2-.1-.1,0,.1,0,.2,0,.2,0,.2,0,.2-.2.2,0,.1,0,.2,0,.3v.2c0,.3-.1,0-.1.3-.2,0-.2.1-.3.3,0-.2,0-.2,0-.2,0-.1,0-.2,0-.2,0,0-.1-.1-.2-.1,0,0,0,0,0-.2,0-.1,0-.2,0-.3.1-.1.1-.2.1-.3-.2,0-.4.6-.4.6,0,0-.1.3-.1.4-.1,0-.1.2-.1.3,0,.2-.3.6-.3.8s.2-.5.4-.6c0-.3.1-.4.2-.4,0-.1,0-.3.1-.3,0,0,0,.5-.1.7l.2-.2c0,.2-.2.3-.3.3v.3s0,.2-.2.2c0,.3-.1.4-.2.4s0-.2,0-.2c-.3.1-.4.3-.4.6v.3c.1-.3.1-.5.1-.6.2,0,.2,0,.2.1,0,0,0,.2-.2.3,0,0,0,.1,0,.2s0,.1.1.1c0,0,0,.2-.1.1l-.4.6c0,.2,0,.3-.1.4v.4c-.2.2-.2.3-.2.5,0,0,0,.8-.2.8v.5c-.1.1-.3.8-.3.8,0,0,.1-.4.2-.4.1,0,.2-.6.2-.7,0,0,.2-.5.2-.6,0-.2.2-.5.2-.6,0-.2.1-.3.1-.4,0-.2.2-.3.2-.4,0-.2.2-.3.2-.4,0-.2,0-.3.1-.4,0-.1.2-.3.2-.3v.4c0,.2-.2.4-.2.5,0,0-.2.4-.2.4,0,0,0,.1,0,.2,0,.1,0,.2,0,.2h-.2c0,0-.1.1-.2.2.1.1.1.2.1.3s.2-.4.4-.5c0,.1,0,.3-.2.4,0,.2,0,.3,0,.3-.2.1-.2.2-.2.2s0,.2,0,.2l-.3.7v.5c.1,0,.1-.1.1-.2,0,0,0-.1,0-.2,0-.1,0-.2,0-.3,0,0,.1,0,.2,0,0,0,0,.2,0,.3s0,.2,0,.2c0,0,0,.2.2.2,0-.2,0-.3.2-.3,0,.2-.2.3-.2.4v.4c-.2,0-.4.7-.4.8,0-.1-.1-.2-.1-.2l-.2.2v-.4c0,0-.1.1-.2.1,0,0,0-.2,0-.3,0,0,0-.1.1-.1,0,0,0-.2.1-.3.1,0,.2,0,.2-.1,0-.2-.5.5-.5.5,0,.2,0,.3-.2.4,0,.2,0,.3-.2.5,0,0-.2.3-.3.4,0,0-.2.2-.3.2h-.3c-.1-.2-.3-.2-.4-.3,0,0-.3,0-.4-.1-.2,0-1.6-.1-1.6-.3ZM304.8,160.6c0,0-.2,0-.2.2-.1,0-.2.2-.2.2s0,.1.1.2c0,.2,0,.3-.1.3,0,0,.1.3.1.3,0,0,.2-.3.2-.4,0-.2,0-.3.1-.4,0,.1-.1,0-.2.1,0-.2,0-.2.2-.3,0-.1,0-.2,0-.2ZM305.4,160c-.2,0-.3,0-.3.3,0,0,0-.1.1-.1.2,0,.2-.1.2-.2ZM305.5,155.7c-.1,0-.2,0-.2.2,0,0,.2,0,.2,0v-.2ZM306.7,156.9c0,.2,0,.4,0,.6,0-.1.3-.9.3-.9,0,0-.2,0-.2,0,0,0,0,.1,0,.2ZM310.5,149.7c0-.1,0-.3,0-.4,0,0-.1.3-.2.4l-.2.2.3-.2ZM310.9,149.7l.3-.2s-.2,0-.2-.1c0,.1,0,.1-.1.3ZM311.3,147.3c-.1,0-.2.2-.2.2,0,0,.4-.3.5-.4-.2,0-.3,0-.3.2ZM313.2,146.3c-.2,0-.6.5-.6.7.2-.2.4-.4.6-.7Z"/>
    <path class="cls-2" d="M320.9,159.5c0,0,0,.1,0,.1-.8.5-2.1,1.2-3.1,1.2s-.8-.2-1.4-.5c-.3,0-1.2-.9-1.3-1.1-.3-.4-.5-1-.5-1.7,0-1.9.5-3.5.8-4.5,0-.1,0-.2,0-.3s0-.2,0-.2,0-.1,0-.2c.4-1.3,1.6-4.8,4-7.9,0,0-.1-.1-.2-.1-.2,0-.6,0-.6-.5s0-.3.2-.4c.3-.2.8-.2,1.3-.2,3.3,0,6.1,2.5,6.1,5.9s-2.4,7.8-5.4,10.2c0,0,0,0-.2,0ZM321.3,158.8l-.5.4c-.6.5-2,1.3-3.1,1.3.1,0,.2,0,.4,0,.5,0,1.7-.5,2.7-1.1.3-.3.8-.8.9-.8.3-.3.3-.3.5-.6l.8-.9s.4-.6.5-.8c0,0,.1,0,.1-.1s0-.1,0-.2c.3-.2.3-.3.3-.3.1-.2.2-.2.2-.5.2-.3.5-.6.6-.9.8-1.6.8-1.7.8-1.7v-.3c0-.2.2-.2.2-.4,0,0,.1-.3.2-.4,0-.1,0-.2,0-.3v-.3c.2-.2.3-.5.3-.8v-.8c0,0,0,.1,0,.2s-.2.9-.3,1v.3c-.2,0-.2,0-.2,0,0,0,0,.1.1.2v.5c-.3.4-.8,2.3-1.3,2.9l-.3.4c0,0-.3.4-.3.3-.2,0-.2.2-.2.4l-.4.6c-.3.5-.9,1.3-1.4,1.8,0,0-.4.5-.5.5ZM322.8,146.4c-.1,0-.5.5-1.7,3.4-1.2,3-2.5,5.9-2.8,8.7,0,0,.2,0,.3,0s.1-.1.2-.1c2-1.9,4.6-6.4,4.8-9.9,0-1-.2-1.4-.7-2ZM323.4,154.8c.2-.2.2-.3.2-.4l.2-.5c0,0-.4.6-.4.7v.2ZM324.8,151.1c-.1,0-.1,0-.2,0l-.4.3c0,0,.3,0,.3,0l.3-.3ZM324.5,151.8c0,.1,0,.2-.2.3.2,0,.2-.1.3-.1,0-.1-.1-.1-.1-.2ZM325.1,147.2c0,0,.3.6.3.6,0-.2,0-.4,0-.5h-.3ZM325.2,146.4l.3.5c0-.4-.2-.6-.3-.7v.2Z"/>
    <path class="cls-2" d="M347,155.3c-.1.2-.3.5-.4.6v.2c-.7,1.2-2,2.7-2.7,3.9l-.3.3c-.2,0-.5.1-.5.3,0,0-.2.2-.2.2s0,.2,0,.2c-.1.3-.6.6-.6.6,0-.3.1-.4.1-.5s.4-.4.4-.5l-.4.3c0,.2,0,.2-.1.2,0,.1-.1.2-.1.2,0,.2,0,.4.1.4-.5.7-2.5,2.5-3.3,2.5s-1.5-.4-2.1-.9l-.2-.2c-.8-.8-1.1-2.1-1.1-3.6v-.6c0-1.7.3-2.9.4-3.7l-1.5,2c-1,1.2-1.2,1.2-1.7,1.7-.4.3-.8.6-1.4.6-.1,0-.2,0-.3,0-.6,0-1.3-.1-1.8-.4-.7-.5-2.2-2.2-2.2-2.7,0-4.4,3.4-10.5,7.7-12.2.2,0,.5-.1.7-.1.7,0,2.3,1,2.8,1,1.2-3.1,3.9-9.7,4.5-11.7.2-.5.6-1.4.8-2.2,0-.3.2-.5.5-.5.5,0,1.9.7,2.1,1.3.2,0,.2.7.2.9v.4c-.3,2.9-3.6,11.3-5.1,16.1,0,0-.2.5-.2.6-.8,2.5-1.9,7.2-2.4,9.5,0,.4,0,.9,0,1.1s0,1.4.2,1.4c.9-.1,3.7-3.9,6.3-7.5,1.7-2.4,3.6-5.3,4.3-6.2,0,0,.1,0,.2,0l-.2.3v.4c.1-.2.3-.5.3-.5,0,.3,0,.7,0,1,.2-.3.2-.2.2-.2,0,.1-.2.2-.2.4v.6c-.1,0,0-.2,0-.2,0,.1,0,.2,0,.2v.4c-.1.2-2.5,4.1-2.7,4.3ZM337.2,147.5c-.9,0-5,4.6-6.6,9.4,0,0,0,.3,0,.3,0,0,0-.2,0-.2,1.3-.5,5.5-7.4,6.5-9.5ZM331.6,153.9c-.3,0-.5.8-.5.8s0,.2,0,.1c0-.1.2-.5.4-.9ZM331.9,153.2l-.3.3c0,0,.2.1.2.1,0,0,.1-.2.1-.4ZM336.1,154.9v-.4c-.8,1.2-1.8,2.7-2.7,3.6-.3.3-.5.4-.7.8l1-.9c.4-.3,1.3-1.6,2.4-3.1ZM332.9,151.1v.3c-.1,0,.2-.5.2-.5-.1,0-.2.1-.2.2ZM336.2,154.3v-.4c.1,0-.8,1.1-.8,1.1,0,0-1.2,1.6-1.5,2,.6-.7,1.2-1.4,1.2-1.4,1-1.2,1.1-1.3,1.1-1.3ZM334.6,149.4l.2-.2c0,0,.1-.2.2-.2.1-.1.4-.4.4-.4-.1,0-.3.1-.4.2,0,0,0,.1-.2.1-.2.2-.5.7-.4.7,0,0,.2-.2.2-.3ZM334.9,148.1h.5c0,0,0-.3,0-.3-.2,0-.5.2-.5.3ZM336.1,158.4c0,.1,0,.3,0,.3,0,0,.2-.2.2-.3,0,0,0-.1-.1-.2,0,0,0,0,.2-.3-.1,0-.2,0-.2.2,0,.1,0,.2,0,.3ZM336.6,159.3h-.3c.1.1.1.2.2.3v-.3c.2.2.2.2.2.2,0,0,.2-.3.2-.3,0,0-.2.2-.3.2ZM336.6,160.4c0,0-.2.1-.2.2s0,.1,0,.2c0-.1.1-.2.2-.3ZM337.4,159.7v.4c0,0,0-.1,0-.2s0-.2,0-.2ZM338.3,161.2c0,.3.1.4.1.5s0,.1,0,.2c0,.2.1.2.2.3v-1.1c-.1,0-.1-.4-.1-.4,0,.2-.1.5-.1.5ZM338.7,151.6v.2c0,.1,0,.2,0,.3,0-.2.1-.3.1-.4s0-.2,0-.3c0,0-.1.1-.1.2ZM339.9,153.4c0,0,.1-.5.8-2.7l-.4.5c0,.3-.1.8-.3,1-.1.3-.2.8-.3,1,0,.1-.2.4-.2.3s0-.3.3-1.1h-.3c0,0,.1.3.1.3-.2.1-.3.9-.4.7,0,0-.2.2-.2.2,0,.2,0,.3,0,.4s-.2.3-.2.4v.7c0,0,.1-.1.1-.2v-.4c0,0,.2.2.2.2,0,.4-.3,1.6-.3,2.1l.5-2c.1-.2.2-.2.2-.2,0-.2,0-.2-.1-.3l.2-.5c0-.1.1-.3.1-.3ZM339.5,151.8l-.2-.2c0,.1.1.5.1.5.2-.2.2-.4.2-.4,0,0,0,0-.2,0ZM340.9,149.9h-.2c0,0-.1.3-.1.3,0,0,.1,0,.1.2,0-.2.2-.3.2-.5ZM341,149.5l.2-.7c-.2.1-.3.3-.3.4,0,.1,0,.2,0,.4,0,0,.2,0,.2-.1ZM347.8,152.2l-.5.8c0,0-.1.1-.1.2.1,0,.2-.1.3-.2l.3-.4c0-.1,0-.2,0-.3ZM348.9,151.6l-.2.4c.4-.4.4-.5.4-.5l.2-.4c-.2.2-.4.4-.4.5Z"/>
    <path class="cls-2" d="M368.3,149.9l.5-.8c.2-.3.6-.9.6-.9,0,.2,0,.2,0,.2v.2c-.4.5-.3.5-.2.5l.3-.4c0,.1.1.2.1.2l-.4.9.5-.6v.4l-.2.3c0,0,0,.2.1.2,0,0,0,0,0-.1v.4c0,.1-.3.7-.3.8,0,0-.5,1.3-4,6.1-1.4,2-4.2,5-5.8,5s-3.6-1.2-3.6-3.5v-.3c.1-1.7.4-2.9.6-3.9-1.2,2.4-3.8,6.2-5.7,6.2h-.3c-1.8-.4-3.3-1.8-3.5-2.9v-.6c0-.2,0-.3,0-.5,0-2.3.5-4.5,1.7-7.1.9-2.1,3.2-5.1,4.1-5.1s2.9.5,2.9,1.1-.1.3-.1.3c-1.8,3.3-4.2,8.3-4.6,12.3v.3c1-.2,7.7-13,9.3-13s1.8.2,2.3.7c0,.3,0,.3,0,.4,0,.2.4.4.4.5-1.3,3.5-2.9,9.2-3.4,13v.2c0,.2,0,.3.2.3,1.2,0,7.4-8.8,8.5-10.3ZM350.8,156.9c-.1.1-.2.3-.3.3,0,0,.2.1.3.3,0,0,.2-.2.2-.3,0-.1,0-.2.1-.4-.1,0-.2.3-.2.4,0,0-.2.2-.2.1v-.3ZM351.1,156.3c0-.2.1-.4.2-.6-.2.2-.3.6-.3.6s-.2.1-.2.1v.2c0-.1.2-.2.3-.2,0,0,0-.1,0-.2ZM351,157.5c-.1,0,0,.2-.2.2,0,.1,0,.5.1.5v-.7ZM358.1,156.9c0,.2.2.1.2.3.1-.1.1-.2.1-.3h-.3ZM358.8,156.9c0,.1-.1.4-.3.4,0,.1.1.2.2.2,0-.2.2-.3.2-.5ZM358.6,158.7c0,0,.1-.2.1-.2-.2,0-.2.3-.2.4,0,.2.2.2.2.2v-.5ZM359.1,159.6c0,0,0,.4,0,.4.1-.1.2-.2.2-.2s-.1-.1-.1-.2ZM359.6,157.9c0,0-.3.4-.3,1.2v.3c0-.2.1-.4.1-.4,0-.2.2-.3.2-1ZM359.9,157.2c0-.1,0-.2-.2-.2,0,.2,0,.5,0,.6,0,0,.2-.3.2-.4ZM359.8,156.2l.2.3c0-.1,0-.6,0-.6-.2.1-.1.2-.2.4ZM360.2,149.8c0,0-.1,0-.1.2.2,0,.2,0,.2-.3v.2ZM361.7,149.6c-.6,1.6-1.4,4.8-1.6,5.3v.8c0,0,.6-2.8.6-2.8l.9-3.2ZM363.4,158.4v-.4c-.2.2-.2.4-.3.7.2,0,.3-.2.3-.3Z"/>
    <path class="cls-2" d="M384.9,149.2l-.3.4v.3l.3-.4c0,.1,0,.2,0,.2l-.2.6c-.6,1.6-3.5,5.6-4.6,7-.3,0-.4.4-.4.5l-.7.8c0,0-.3.4-.3.3-.3.2-.4.5-.6.7-1,1-2.1,1.9-3.6,2.7,0,0-.8.4-1.7.5h-.3c-1.6,0-4.3-1.1-5-2.5-.5-.8-.8-1.9-.8-2.8v-.4c0-3.2,1.7-8.8,6.1-13.4.6-.5,1-.8,1.6-1.1.3-.1.8-.2.9-.2.6,0,2.9.9,3.3,1.1l.9.5c.5.4.8.8.8,1.4,0,.2,0,.3,0,.5,0,.6-.3,1.2-.5,1.7-.3.5-.5,1-.7,1.5-.2.3-.2.6-.5.8-.2,0-.5.2-.7.2s-.6-.1-.8-.3c-.4-.2-.5-.7-.5-1.1.4-1.2.9-2.1,1.1-3.3v-.4c-.2,0-.3,0-.3,0-2.4,1.8-4,5.1-5,7.8l-.2.5c-.1.3,0,.6-.2.9l-.2.6c-.2,1.1-.5,2.5-.5,3.7s.3,2.4,1.2,2.4h.2c0,0,.2,0,.3,0,3.6-1.3,8.7-8.6,11.3-12.3v.9l.3-.5c0,0,.2-.1.3-.1v.2c-.1,0,0,.3,0,.3l.2-.2c0,0,.1,0,.2,0ZM367.3,158.8c0-.4,0-.5-.1-.5,0,.2,0,.2,0,.3s0,.2.2.2ZM370.2,156.9v.4c-.1,0,0,0,0,0,0,0,.1-.2.2-.2-.2,0,0-.2-.2-.2ZM375,147c.1,0,.2-.3.2-.4l-.8,1c-.5.6-.8,1.2-1.2,1.8v.2c-.2,0-.3.2-.3.4-.1.2,0,.3-.2.5-.3.6-.7,1.1-.8,1.5-.4.9-1.5,4-1.5,6.4s0,1.3.3,1.8c-.2-.5-.2-1.2-.2-1.8,0-1.4.4-2.9,1-4.7.1-.5.3-1.1.6-1.8,0,0,0-.3.2-.4,0-.1.2-.5.3-.5,0,0,.1,0,.2-.5.5-1.1,1.2-2.3,2.1-3.5ZM371.5,161.5s.2,0,.3,0c0,.2-.2.2-.2.2.3,0,.6-.2.9-.3-.3,0-.6,0-1,0ZM379.1,157c0,0-.1.2-.1.3l-.4.4c.1,0,.4-.3.5-.4,0-.1.2-.3.3-.4,0,0-.1,0-.3.1ZM381.9,154.6c0-.1.2-.4.4-.7l-.6.8c-.2.2-.5.7-.4.7.3-.3.4-.6.6-.8Z"/>
    <path class="cls-2" d="M394.9,138.3c-1.2,0-2.4,0-3.5.2-.7,2.2-1.6,4.6-2.4,6.5v-.2c0,0,1.3-3.9,1.3-3.9-.2.2-1.4,3.1-2.6,6.6,0,.1-.2.3-.2.7l-.2.5c0,0,0,.1,0,.2l-.2.2c-.1.1-.2.3-.2.5v.2l-.5,1.8c-.5,1.8-1.3,5.1-1.3,6.9v.6l.2-1.8c.2-1.4.6-3.2,1-4.9,0,0,0-.1,0-.2,0,0,0-.1,0-.2v-.3c.6-2,1.1-3.6,1.4-4.2,0-.3.2-.9.4-1.2l.2-.2v-.5c.1,0,.3-.2.3-.2-1.7,4.8-3.3,9.7-3.4,14.2,0,.3,0,.5.3.5s.2,0,.3,0c2.4-1.3,7.3-7.8,9.9-11l.6-.8c.2-.2.2-.4.3-.5,0,0,.1-.2.3-.2l-.2.4c0,0,.3,0,.4-.3,0,0,0,.1,0,.2,0,.2-.2.5-.3.7l.4-.5c0,0,0,.2,0,.2-.1.2-.2.4-.4.6l.5-.5v.5c0,.1,0,.3-.3.3v.4c-.1.4-.6,1.1-.8,1.4l-2.8,4c-.5.7-3.3,4.2-4.1,4.6-.3.5-.5.6-.9,1,0,.2-.2.2-.2.2-.4.3-.8.5-1.2.8-.4.2-.4.3-.9.4-.2,0-.5.3-.9.3s-.9-.1-1-.3c-.1,0-.6-.1-.6-.2-.2,0-1.2-.6-1.4-.8,0,0-.2-.1-.2-.2-.2-.1-.2-.3-.3-.4l-.2-.5c0,0,0-.2,0-.2,0-.3-.1-.4-.1-.8v-.3c0-.2-.1-.3-.1-.5s0-.1,0-.2c0,0,0-.2,0-.2,0,0,0-.3.1-.3v-.3c0-.1,0-.2,0-.3-.1-.1-.2-.2-.2-.2,0-.3.2-.4.2-.6v-.7c0,0,0-.1,0-.2,0,0,0,0,0-.2,0-.4.1-.9.3-1.2,0-.1,0-.2.1-.5,0-.3,0-.4.1-.6.1-.2.2-.5.2-.8v-.3c0-.3.3-.6.3-.9,1-3.9,2.5-8,4.1-11.9-2.5.3-4.7.7-6.4.8h-1c-1.1,0-2.9-.2-3.4-1.5,0-.2-.1-.4-.1-.7s0-.3.2-.5c0-.1.3-.2.4-.2,0,0,0,0,.2.1.3,0,.8.1,1.4.1,1.6,0,4-.2,5.5-.3,1.8-.2,3.2-.3,4.3-.4l1.7-4.5.4-.8c.1-.1.2-.2.3-.2.2,0,.8.3,1,.3.9,0,1,.7,1,1.4,0,.2.3.5.3.5v.3c-.1.8-.3,1.7-.5,2.2v.4c-.1,0,2.3,0,2.3,0,2.5,0,4.4.7,4.9,1.2,0,.3-.3.2-.3.3s0,.3.1.3c0,0-.6.2-.8.4-.2,0-.5,0-1.7-.1-.6,0-1.1,0-1.8,0ZM388.1,160.7c0,0-1.5,1.1-2.1,1.3.5,0,2.1-1,2.1-1.3ZM393.5,154.9c0,0-.3.3-.3.4,0,.2-.2.4-.5.4s-.1,0-.2.1l-.2.4c0,0-.1.2-.2.2s0,.2-.1.2l-.2.2c0,.2-.1.3-.3.4l-.2.3c-.1.1-.4.4-.4.5,0,0,.5-.4.5-.5l.4-.4c0-.2.3-.3.4-.5,0,0,0-.1,0-.2,0-.1.2-.3.2-.4.2,0,.3-.1.4-.3.1-.1.2-.3.3-.4l.4-.5.4-.7c-.1,0-.2.1-.2.2,0,.2,0,.2-.3.3,0,0-.2.2-.4.3h.2ZM394.8,152.4c.3-.1.7-.6.7-.6,0-.1.1-.3,0-.3l-.8.9ZM397.9,138h.2c0,0,0-.2-.1-.2,0,.1-.1.2-.1.2Z"/>
    <path class="cls-2" d="M394.1,159.4c0-.3,1.3-1.3,1.6-1.4-.3.3-1.1,1-1.1,1.2.2-.3.9-.9,1-.9.2,0,0,0,.2,0,0,0,.1-.2.1-.2,0,0,0-.1,0-.2l.2-.2c.4-.4,1.7-1.3,2.1-1.6l-.4-1c-1.1-2.3-2-4.6-2-7,0-3.9,4.3-6.9,7.5-6.9s1,.2,1,.2l1.7.7c1.2,0,2.2,2.4,2.2,3.2s-.7,2-1.2,2.5h-.2c0,0-.3.4-.7.4s-.5,0-.6,0c-.1,0-.6-.2-.6-.2-.3-.1-.6-.3-.6-.4,0-.3.8-2.2.8-3.2,0-.4-.2-.4-.3-.4h-.2c-2,0-4.6,1.5-4.6,3.9s1.5,4.8,2.1,6c2.7-1.7,7.2-4,8.9-5.5,0,.3-1.1,1.2-1.3,1.2.4,0,.3-.1,1.1-.6-.3.4-.7.6-.7.7l-.3.3c-.2.2.8-.6.9-.6s.2,0,.3,0c-.5.2-.3.4-.9.9.5,0,.9-.3,1-.5,0,.4-.5.8-1,1.1,0,.2,0,.4.2.3,0,.3-1.2,1-2.2,1.6l-5.1,3.2c.2.6.3,1,.4,1.9,0,.3,0,.5,0,.8,0,3.7-3.8,6.1-6.7,6.1h-.7c-1.4-.2-2.7-1.7-2.7-2.8s.1-1,.5-1.5c.2-.3.6-.7.6-1ZM395.7,162.2c1.7-.1,3.6-2,3-3.8-1.4,1-3.4,2.8-3.4,3.3s-.4.2-.4.3c.2.2.5.2.8.2ZM398.6,148.7c0,.1-.2.2-.2.3s.1.1.2.2v-.4ZM400.6,153.5c0,.1,0,.3.1.5l.3.3-.4-.8ZM401,161.4c0,.1-.1.2-.1.3,0,0,0,0,.1.2v-.5ZM401.6,153.9c-.2-.2-.4-.8-.6-1.1.1.4.3,1,.4,1.2h.2ZM401.2,159.3c0,0,.2.2.2.2,0,0,.1-.3.1-.4l-.3.2ZM401.6,160.7c-.1.2-.3.5-.3.7.2-.3.2-.4.2-.4v-.3ZM401.9,161.7c0,0,.1,0,.2-.2.1-.1.1-.3.1-.4-.1.2-.3.6-.3.6ZM402.3,156.1c.4,1.1.4,2,.4,3.2,0,.5-.2,1-.3,1.3v.3c.2-.5.5-1.4.5-2.4s-.1-1.6-.4-2.5h-.2Z"/>
  </g>
  <path class="cls-2" d="M120.5,147.9c0,0,0,.1-.1.1-3.3,0-6,2.7-6,6s0,.1-.1.1-.1,0-.1-.1c0-3.3-2.7-6-6-6s-.1,0-.1-.1,0-.1.1-.1c3.3,0,6-2.7,6-6,0,0,0-.1.1-.1s.1,0,.1.1c0,3.3,2.7,6,6,6s.1,0,.1.1Z"/>
  <path class="cls-2" d="M272.8,147.9c0,0,0,.1-.1.1-3.3,0-6,2.7-6,6s0,.1-.1.1-.1,0-.1-.1c0-3.3-2.7-6-6-6s-.1,0-.1-.1,0-.1.1-.1c3.3,0,6-2.7,6-6,0,0,0-.1.1-.1s.1,0,.1.1c0,3.3,2.7,6,6,6s.1,0,.1.1Z"/>
</svg>