<?xml version="1.0" encoding="UTF-8"?>
<svg id="Layer_1" data-name="Layer 1" xmlns="http://www.w3.org/2000/svg" version="1.1" viewBox="0 0 405.6 177.1">
  <defs>
    <style>
      .cls-1 {
        fill: #c7212b;
      }

      .cls-1, .cls-2 {
        stroke-width: 0px;
      }

      .cls-2 {
        fill: #fff;
      }
    </style>
  </defs>
  <polygon class="cls-2" points="36.3 16.7 0 42 36.3 66.8 72.5 42 36.3 16.7"/>
  <path class="cls-1" d="M33.9,35.7h8.6v-4.4h-22.6v4.4h8.5v14.6h2.1l3.5-5.8v-8.8Z"/>
  <path class="cls-1" d="M48.8,46.4l1.9,4h4.9l-10.1-19.1h-1.9v5.6h-3.7l-4.9,8.1-3.3,5.4h5l2.3-4h9.7ZM44.3,37.9l2.4,4.5h-5.1l2.7-4.5Z"/>
  <path class="cls-2" d="M96.8,53.9h-9.3v-18.6h-8.9v-5.6h27.6v5.6h-9.4v18.6Z"/>
  <path class="cls-2" d="M116.9,39.4h14.9v4.5h-14.9v4.7h16.2v5.3h-25.5v-24.3h25.2v5.3h-15.9v4.4Z"/>
  <path class="cls-2" d="M144.1,38.8h2.8l9-9.1h11.3l-12.3,11.9,13.3,12.4h-11.5l-9.7-9.5h-2.8v9.5h-9.3v-24.3h9.3v9.1Z"/>
  <path class="cls-2" d="M177.6,53.9h-9.3v-24.2h15.8l10,18.6h.4l-.6-18.6h9.3v24.2h-15.9l-9.9-18.6h-.4l.6,18.6Z"/>
  <path class="cls-2" d="M221.3,48.5c-4.8,0-6.4-.3-6.6-4v-5.5c.1-3.6,1.7-3.9,6.6-3.9s6.6.4,6.6,3.9v5.5c0,3.6-1.7,4-6.6,4ZM221.3,54.1c9.5,0,16.2-1.4,16.2-8.9v-6.9c0-7.5-6.8-8.9-16.2-8.9s-16.2,1.4-16.2,8.9v6.9c0,7.5,6.8,8.9,16.2,8.9Z"/>
  <path class="cls-2" d="M249.2,41.9v-6.6h7.2c3.1,0,3.9.6,3.9,2.8s.1,3.8-3.9,3.8h-7.2ZM239.9,53.9h9.3v-6.4h7.2c2.8,0,3.9,1.2,3.8,3v3.4h9.3v-4.9c0-2.7-2.5-4.2-6.3-4.3v-.3c6.6-1.1,6.6-3.4,6.6-7.5,0-6-4-7.2-12-7.3h-18v24.2Z"/>
  <path class="cls-2" d="M297.7,45.1h-8.7l4.2-10.5h0l4.3,10.5ZM299.5,49.8l1.8,4.2h9.5l-10.6-24.2h-14.2l-10.5,24.2h9.7l1.7-4.2h12.5Z"/>
  <path class="cls-2" d="M321.4,42.1v-6.8h6.4c3.6,0,4.2.8,4.2,3.3s-.5,3.4-4.2,3.5h-6.4ZM321.4,53.9v-6.2h8.2c9.7,0,11.9-2.3,11.9-9.2s-3.3-8.9-11.9-8.9h-17.6v24.2h9.3Z"/>
  <path class="cls-2" d="M353,39.4h14.9v4.5h-14.9v4.7h16.2v5.3h-25.5v-24.3h25.2v5.3h-15.9v4.4Z"/>
  <path class="cls-2" d="M395.2,41.5l10.4,12.5h-10.8l-6.9-9.3-6.9,9.3h-10.9l10.5-12.5-9.8-11.8h10.9l6.3,8.9,6.3-8.9h10.7l-9.6,11.8Z"/>
  <path class="cls-2" d="M66.6,14.8c0,0,0,.2-.2.2-4,0-7.3,3.3-7.3,7.3s0,.2-.2.2-.2,0-.2-.2c0-4-3.3-7.3-7.3-7.3s-.2,0-.2-.2,0-.2.2-.2c4,0,7.3-3.2,7.3-7.3,0,0,0-.2.2-.2s.2,0,.2.2,0,0,0,0c0,4,3.3,7.2,7.3,7.2s.2,0,.2.2Z"/>
  <path class="cls-2" d="M77,27c0,0,0,.1-.1.1-2.7,0-5,2.2-5,5s0,.1-.1.1-.1,0-.1-.1c0-2.7-2.2-5-5-5s-.1,0-.1-.1,0-.1.1-.1c2.7,0,5-2.2,5-5,0,0,0-.1.1-.1s.1,0,.1.1c0,2.8,2.2,5,5,5s.1,0,.1.1Z"/>
  <path class="cls-2" d="M77,5.2c0,0,0,.1-.1.1-2.7,0-5,2.2-5,5s0,.1-.1.1-.1,0-.1-.1c0-2.7-2.2-5-5-5s-.1,0-.1-.1,0-.1.1-.1c2.7,0,5-2.2,5-5,0,0,0-.1.1-.1s.1,0,.1.1c0,2.8,2.2,5,5,5s.1,0,.1.1Z"/>
  <path class="cls-2" d="M78.8,74.8c0-4.6,3.4-7.8,7.6-7.8s4.3,1.1,5.5,2.7l-1.1.7c-1-1.3-2.6-2.2-4.5-2.2-3.5,0-6.2,2.7-6.2,6.6s2.7,6.6,6.2,6.6,3.5-.9,4.5-2.2l1.1.7c-1.3,1.6-3.1,2.7-5.5,2.7-4.2,0-7.6-3.2-7.6-7.8Z"/>
  <path class="cls-2" d="M98.2,82.3v-15.1h9.6v1.2h-8.3v5.6h8.1v1.2h-8.1v6h8.3v1.2h-9.6Z"/>
  <path class="cls-2" d="M114.6,82.3v-15.1h1.3v13.9h7.3v1.2h-8.6Z"/>
  <path class="cls-2" d="M129.6,82.3v-15.1h9.6v1.2h-8.3v5.6h8.1v1.2h-8.1v6h8.3v1.2h-9.6Z"/>
  <path class="cls-2" d="M146,82.3v-15.1h6.2c2.5,0,4.2,1.5,4.2,3.8s-1.3,3.2-2.6,3.5c1.6.2,2.9,1.9,2.9,3.7s-1.6,4.1-4.3,4.1h-6.3ZM147.3,74h4.8c1.9,0,3-1.2,3-2.8s-1-2.8-3-2.8h-4.8v5.6ZM147.3,81.2h4.8c2,0,3.2-1.2,3.2-3s-1.1-3-3.2-3h-4.8v6Z"/>
  <path class="cls-2" d="M172.3,82.3l-4.2-6.2h-3.3v6.2h-1.3v-15.1h5.6c2.6,0,4.6,1.6,4.6,4.4s-1.9,4.2-4.2,4.3l4.4,6.3h-1.6ZM169,68.4h-4.2v6.5h4.2c2,0,3.3-1.4,3.3-3.3s-1.4-3.2-3.3-3.2Z"/>
  <path class="cls-2" d="M191.5,82.3l-1.5-3.7h-8l-1.5,3.7h-1.4l6.2-15.1h1.6l6.2,15.1h-1.4ZM186,68.5l-3.6,8.9h7.2l-3.6-8.9Z"/>
  <path class="cls-2" d="M201.1,82.3v-13.9h-4.9v-1.2h11.2v1.2h-4.9v13.9h-1.3Z"/>
  <path class="cls-2" d="M213.6,82.3v-15.1h1.3v15.1h-1.3Z"/>
  <path class="cls-2" d="M233.1,82.3l-9.5-13v13h-1.3v-15.1h1.3l9.5,12.8v-12.8h1.3v15.1h-1.3Z"/>
  <path class="cls-2" d="M248.8,67c2.5,0,4.3,1,5.7,2.6l-1,.7c-1.1-1.3-2.8-2.1-4.7-2.1-3.6,0-6.3,2.7-6.3,6.6s2.7,6.6,6.3,6.6,3.6-1,4.4-1.8v-3.6h-5.7v-1.2h7v5.3c-1.3,1.5-3.3,2.5-5.7,2.5-4.2,0-7.6-3.2-7.6-7.8s3.4-7.8,7.6-7.8Z"/>
  <path class="cls-2" d="M272.8,82.3v-13.3l-2.4,2.6-.8-.8,3.3-3.5h1.2v15.1h-1.3Z"/>
  <path class="cls-2" d="M286.5,67c4,0,5.6,4.2,5.6,7.8s-1.5,7.8-5.6,7.8-5.6-4.2-5.6-7.8,1.5-7.8,5.6-7.8ZM286.5,68.2c-3.2,0-4.2,3.5-4.2,6.6s1,6.6,4.2,6.6,4.2-3.5,4.2-6.6-1-6.6-4.2-6.6Z"/>
  <path class="cls-2" d="M303.9,67c4,0,5.6,4.2,5.6,7.8s-1.5,7.8-5.6,7.8-5.6-4.2-5.6-7.8,1.5-7.8,5.6-7.8ZM303.9,68.2c-3.2,0-4.2,3.5-4.2,6.6s1,6.6,4.2,6.6,4.2-3.5,4.2-6.6-1-6.6-4.2-6.6Z"/>
  <path class="cls-2" d="M330.2,82.3v-6.4l-6-8.6h1.6l5.1,7.4,5.1-7.4h1.6l-6,8.6v6.4h-1.3Z"/>
  <path class="cls-2" d="M343.3,82.3v-15.1h9.6v1.2h-8.3v5.6h8.1v1.2h-8.1v6h8.3v1.2h-9.6Z"/>
  <path class="cls-2" d="M370.7,82.3l-1.5-3.7h-8l-1.5,3.7h-1.4l6.2-15.1h1.6l6.2,15.1h-1.4ZM365.1,68.5l-3.6,8.9h7.2l-3.6-8.9Z"/>
  <path class="cls-2" d="M386.8,82.3l-4.2-6.2h-3.3v6.2h-1.3v-15.1h5.6c2.6,0,4.6,1.6,4.6,4.4s-1.9,4.2-4.2,4.3l4.4,6.3h-1.6ZM383.5,68.4h-4.2v6.5h4.2c2,0,3.3-1.4,3.3-3.3s-1.4-3.2-3.3-3.2Z"/>
  <path class="cls-2" d="M395,79.2c1,1.1,2.6,2.2,4.7,2.2,3.1,0,4-1.7,4-3,0-2.1-2-2.7-4.1-3.3-2.4-.7-4.9-1.3-4.9-4.1s2.2-4,5-4,3.9.8,5.1,2.1l-.9.9c-1.1-1.3-2.6-1.9-4.3-1.9s-3.5,1.2-3.5,2.8,1.9,2.3,3.9,2.8c2.4.7,5.1,1.5,5.1,4.5s-1.3,4.3-5.4,4.3-4.4-1-5.5-2.4l.8-1Z"/>
  <g>
    <path class="cls-2" d="M35.4,150.4c2.6-4.2,5.5-11.7,8.4-18,4.9-11,7.7-20.3,10.6-20.3s1.2-.4,1.2-.4c0,.3,0,.3,0,.4.3-.3,1.2-.3,1.5-.6v.4c0,0-.3.7-.4,1,0,0-.1.2-.1.4l-.2.2c0,.3-.1.4-.3.6l-.3.9-.4.9c-.1.3-.2.6-.4.8-.1.4-.3.6-.3.9l-.6,1.3c-.1.4-.3.7-.4,1.1l-.4.8c0,0,0,.2,0,.3,0,.3-.4.4-.6.8.1.1.1.2.1.2,0,0-.2.4-.3.5-3.3,8.4-8.1,22.2-13.6,29.1-.1.3-.3.6-.6.8-.4.4-.8.8-1.3,1-.3.1-.5.2-.8.2s-.6.1-.8.3c-.4.2-1.4.3-1.8.3-1.1,0-3.3-1.2-3.8-2.1-.4-1.2-.7-2.9-.7-4.7s0-.9,0-1.4c.6-11.1,4.2-23.7,4.2-33.2v-1.1c-.3-1.6-.9-2.3-2.1-3.1-.1,0-.1-.3-.1-.4,0-.9.8-1.1,1.7-1.1,1.6,0,3.9,1.8,4.6,3.3.8,1.9,1.1,4.4,1.1,7.2,0,10.4-4.1,24.6-4.1,31.5s0,1.8.3,1.9c.3-.3.4-.4.6-.6ZM56.6,112c-.3.5-2.6,5.4-4,9.2-1.1,2.8-2.1,5.4-2.1,5.5,0,0-2.1,5.5-2.1,5.5l-.2.6c.3-.6,2.6-6.4,4.6-11.6,1.6-4.1,3.5-8.2,3.8-8.9v-.3Z"/>
    <path class="cls-2" d="M73.8,132.9l-.3,2,.5-.7v.4c0,0-.3.3-.3.3h.3c0-.1.1.4.1.4v.5c0,0-1.8,2.8-1.8,2.8-1,1.6-4.5,7.2-6.8,9.2-.6.5-1.3.9-2,1.2-.1,0-.4,0-.5,0-.2,0-.9,0-1.2,0-.4,0-.7-.3-1.1-.5-1.4-.5-2.2-2.1-2.2-3.7v-.6c0-2.1.3-3.8.7-5.5-1.6,2.5-4.5,7.9-7.2,8.2-.2,0-1.3-.7-1.5-.8-.9-.5-1.4-.3-2-2,0,0,0-.2-.1-.3v-.5c0-.1-.1-.2-.1-.3,0-.3.2-.6.2-.9v-.6c0-.3,0-.4.2-.6v-.8c.8-4.2,6.4-12.5,10.7-12.5s2,.8,2.8.9c.3-.4.8-1.8,1.8-1.8l.5.3h.3c.9,0,2.1.9,2.1,1.4,0,.6-.3,2-.6,2.6-1.1,1.7-3.5,12.5-3.5,15.5.1.5.2.5.2.5,2.3-1.1,8.9-11.6,10.7-14.2ZM49.7,138.2c.3,0,.4-.6.5-.9-.3.2-.4.6-.5.9ZM50.2,137.3v-.5c0,0,0,.3-.2.4,0,0,.1,0,.2.1ZM60.2,131.7c-1,.1-3.1,2.5-4.7,5-1.2,1.8-2.4,4.5-3,6.2-.1.3-.1.6-.1.8l-.2.6s.2,0,.3-.2c.2-.3,0,0,2.8-4.3,1.8-2.7,4.1-6.4,5.5-8.1-.2,0-.5,0-.6,0ZM62,141c.2,0,.3,0,.3-.4s0-.1-.3-.3v.6ZM62.5,143c0,0,0-.3,0-.3v-.6c-.1.3-.1.5-.3.7.1.1.2.2.3.2ZM63,142.1c-.3.9-.2,1.7-.3,2.6,0,.1,0,.3,0,.4v.3c.3-3.1,1.6-9.3,2.7-12.3-.6.6-1.9,6.3-2,7.6,0,.4-.3.6-.3,1.1v.4ZM62.9,141v-.4c-.2,0-.1,0-.1.3s0,.3-.1.4c0,0,0,.3,0,.3s0,.2,0,.3c0-.4.1-.5.3-.8ZM62.7,138l.2-.2c.1-.2.1-.4.1-.5s.1-.1.1-.2,0-.1,0-.2c-.2.3-.2.6-.4,1.1ZM63,140.6s-.1.3,0,.3.2-.3.3-.3c-.1,0-.1,0-.2,0ZM63.4,135.1v-.6l-.3,1.2c0,0,0,0,.3,0,0-.1,0-.4,0-.6Z"/>
    <path class="cls-2" d="M87.1,134.5l.2.9.4-.6c0,0,0,.4,0,.4,0,0-.1.3-.3.6l.3.4c.1,0,.3-.3.3-.2s-.1.3-.6,1.1c-.4.6-1.2,2-2,2.2.1,0,.2.1.3.1,0-.1.1-.3.3-.3-2,3.1-7.1,11-10.3,12.1-.6.1-.3.3-1.1.3s-.3,0-.5-.1c-.4-.3-1.5-.6-1.8-1-1.3-1.2-1.2-3.3-1.3-3.8,0-.2,0-.4.2-.6,0,.1,0,.3,0,.4.1-.2.1-.4.1-.7,0,0-.2,0-.3,0,0-.2-.1-.2-.1-.4s0-.3,0-.8v-.4c0-.5,0-.9.2-1.7,0,0-.2-.3-.2-.4,0,.1,0,.2,0,.3-.1.9-.2,1.6-.2,2.6v1.2c0,1.4.3,3,.9,3.9-.8,0-1.2-2.5-1.3-4.3v-.8c0-2.8.9-5.8,1.6-8.1,1.7-5.6,5.3-14.7,7.8-22.3.2-.3.4-.5.8-.5s.3.1.4.3c1.3.4,2,1.4,2,2.6.1.2.1.4.1.6s0,.4,0,.6c-1.1,4.8-2.1,7.7-3.8,12.7-1.5,4.2-4.5,12.4-4.5,17.1v.3c.1.4,0,.8.3.8s.2,0,.3-.1c3.5-2.6,9.7-12.4,11.2-14.3.3-.4.4-.6.8-.7l-.3.5ZM71.3,147.8c0,0,0,.1,0,.2v-.3c.1-.2,0-.4,0-.6v.7ZM71.9,138.6c0,.1,0,.3.1.3,0-.2.1-.4.1-.7-.1,0-.3.2-.3.4ZM72.2,137.7c0,0,0,.2,0,.2.1-.1.1-.3.1-.4-.1,0-.2,0-.2.2ZM72.8,135.8c-.3.4-.3.8-.4,1.3h.3c0-.1,0-.4,0-.4v-.9ZM74.1,147c.1-.4.1-.8.1-1.3l-.3,1.1v1.2c.1,0,.1-.9.1-.9ZM74.8,141.7c0,0,.1-.1.1-.2v-.3c0-.1,0-.4.1-.6-.1.1-.2.2-.3.2,0,.2,0,.4,0,.9ZM75.1,139.1s-.2,0-.2.3v.3c0,0,.2-.5.2-.5ZM75.2,138.9h.4v-.2c-.1,0,0-.4,0-.4,0,0,.1-.2.1-.4-.2,0-.2.3-.3.4,0,0-.1.4-.3.5ZM77.3,149.5l-.5.5c.1,0,.4-.4.6-.4,0-.1.3-.4.4-.5,0,0-.1,0-.3.1,0,0-.1.2-.1.3ZM78.9,146.1c0,0,.2-.1.3-.1,0-.1.1-.2.1-.3s-.1,0-.1.2c-.1,0-.2.2-.3.3Z"/>
    <path class="cls-2" d="M109.4,135.3l.6-.9c.3-.3.8-1.1.8-1.1,0,.2,0,.3,0,.3v.3c-.4.6-.3.6-.3.6l.4-.5c0,.1.1.2.1.3l-.4,1,.6-.8v.4l-.2.3c0,0,0,.3.1.3,0,0,0,0,0-.1v.5c0,.1-.3.8-.3.9,0,0-.6,1.6-4.7,7.1-1.7,2.3-5,5.9-6.9,5.9s-4.3-1.4-4.3-4.2v-.4c.1-2,.4-3.4.8-4.6-1.4,2.8-4.5,7.2-6.7,7.2h-.3c-2.1-.4-3.9-2.1-4.2-3.4v-.7c0-.2,0-.4,0-.6,0-2.7.6-5.3,2-8.4,1.1-2.5,3.7-6,4.8-6s3.4.6,3.4,1.3-.1.3-.1.3c-2.1,3.9-5,9.8-5.4,14.4v.4c1.2-.2,9-15.3,10.9-15.3s2.1.2,2.6.8c0,.3,0,.3,0,.4,0,.3.5.5.5.6-1.6,4.2-3.4,10.8-4,15.2v.3c0,.3,0,.4.2.4,1.4,0,8.7-10.3,10-12.1ZM88.9,143.6c-.1.1-.2.4-.4.4,0,0,.3.1.3.3,0,0,.2-.2.3-.4,0-.1,0-.3.1-.5-.1,0-.2.3-.3.4,0,0-.2.2-.2.1v-.4ZM89.3,142.9c0-.2.1-.5.2-.7-.2.3-.3.7-.3.8s-.2.1-.3.1v.3c0-.1.2-.2.3-.3,0,0,0-.1,0-.2ZM89.1,144.2c-.1,0,0,.2-.2.2,0,.1,0,.6.1.6v-.8ZM97.4,143.6c0,.2.3.1.3.3.1-.1.1-.2.1-.4h-.4ZM98.2,143.6c0,.1-.1.4-.4.4,0,.1.1.2.2.2,0-.2.2-.4.2-.6ZM98.1,145.7c0,0,.1-.2.1-.2-.2,0-.3.3-.3.5,0,.3.2.2.3.3v-.6ZM98.7,146.8c0,0,0,.4,0,.4.1-.1.2-.2.2-.3s-.1-.1-.1-.2ZM99.2,144.7c0,0-.3.4-.3,1.4v.3c0-.2.1-.4.1-.5,0-.3.2-.4.2-1.2ZM99.5,143.9c0-.1,0-.3-.2-.3,0,.2,0,.6,0,.8,0,0,.3-.3.3-.5ZM99.5,142.7l.2.3c0-.1,0-.7,0-.8-.2.1-.1.3-.3.4ZM99.9,135.2c0,0-.1,0-.1.2.2,0,.3,0,.3-.4v.2ZM101.7,135c-.8,1.8-1.7,5.6-1.8,6.2v.9c0,0,.8-3.3.8-3.3l1.1-3.8ZM103.6,145.3v-.4c-.3.3-.3.5-.4.8.3,0,.3-.2.4-.4Z"/>
    <path class="cls-2" d="M122.8,137.1c.4-.6,1.2-1.5,1.2-1.5,0,0,.3-.3.3-.2,0,.2-.3.5-.3.6l-5.1,7.1c-1.2,1.6-4.7,5.9-7.1,5.9,0,0-1.1,0-1.3-.3-.3,0-.8-.4-1.1-.6-1.6-.8-1.9-3.1-1.9-4.9,0-4.8,3-9.2,4.5-13.5.1-.4.4-.6.9-.6s.4.3.6.3c1.6.5,2.3.9,2.3,2.6v.3c0,1.3-1.3,4-2,6l-.2.4c-.8,2.1-1.3,4.1-1.6,5.9v.6c0,.3,0,1.5,0,1.5.2,0,.4,0,.5-.1,2.4-1.4,8.8-10.8,11-13.7,0,0-.1.6-.3,1.1l.2-.3v.4c0,0-.7,1.2-.7,1.2.3-.4.6-.7.8-.8l-.3,1.1c0,0,.2-.2.3-.2l-.8,1.6ZM109.6,138.5c0-.1-.1-.2-.2-.2,0,0-.2.3-.2.4.1,0,.2,0,.2,0s0,.1,0,.3c.1-.3.3-.4.3-.5ZM109.7,139c-.2,0-.3.3-.4.4,0,0,.2.1.2.1,0,0,.4-.4.4-.5,0,0-.1,0-.2,0ZM111.1,141.9v-.3c0,0,0-.2,0-.3-.1,0-.3.2-.3.4s-.1.3-.1.3c0,0,0,0,.3,0s0,0,0-.2ZM111.1,143.4c0,0,0,.4,0,.6.1-.1.2-.2.2-.3,0-.9,0-1,0-1.2h-.2v.9ZM111.5,142.9c.3-.3.4-.8.3-.7-.1,0-.1-.4-.2-.3,0,0,0,.7-.1.9ZM111.9,140.6c-.1,0-.3,0-.3.1,0,0-.1.2-.1.3.2,0,.4-.2.4-.4ZM111.8,141.3c.1,0,.1-.2.2-.3-.2,0-.2,0-.3.1,0,0,0,.1,0,.2ZM114.4,147.5c-.2.1-.2,0-.3.2-.2,0-.8.4-.8.6,0,0,.6-.3.7-.4.2,0,.4-.4.4-.4ZM118.6,125.7c-.3.9-.6,1.1-1.1,1.5-.4.4-1.1.6-1.6.6s-.3,0-.6,0c-.6-.3-1-.3-1.2-.8-.3-.5-.4-.9-.4-1.3,0-1.8,2.4-1.4,2.6-1.6.9,0,2.3.8,2.3,1.6ZM116,145.2l-.4.3c-.1,0-.1.3-.2.4.4-.4.9-.8.9-1.1s0-.2,0-.3c0,0-.3.1-.2.2,0,0,0,.4,0,.4ZM116.9,143.6c0,0-.2.1-.3.1,0,.1-.1.2-.1.3s.1,0,.1-.2c.1,0,.2-.2.3-.3ZM117.3,144l.4-.6h-.3c0,.1-.1.6-.1.6ZM117.8,142.9c0,0,0,.3,0,.3,0,0,.3-.6.4-.8-.3.1-.5.3-.5.4Z"/>
    <path class="cls-2" d="M146,133.5c0,0,0,.6-.1,1.1h0c0-.1.3.4.3.4l.6-.7-.9,1.4c.3-.2.6-.4.9-.8v.6l-1.8,3.1-.9,1.2c0,.1-.3.4-.3.4,0,0,.2-.3.2-.6s-.4.5-.4.6.1,0,.1.1,0,.2-.2.4c-.3.4-.6.5-.6.5,0,.1,0,.2,0,.2,0,.3-.4.6-.4.6q0,0,0,0c0,0,.5-.6.6-.6-1.3,2-2.7,3.9-4.2,5.7-1.8,2.3-3.3,3.3-4.3,3.5-.8,0-1.6-.2-2.3-.4-1.6-.9-1.8-1.9-1.9-3.1v-1.1c0-.1,0-.3,0-.4v-.4c0-.4,0-.8.1-1.1,0-.3.6-2.5.8-3,.8-2.6,2.3-6.9,2.5-8.4v-1c0-.1,0-.2,0-.2-1.1.4-4.5,4.5-7.8,10.6-.8,1.3-.8,2.3-1.6,3.7,0,.2-.1.4-.2.6-.3.8-.9.8-1.6.8-.8-.2-2.3-1.7-2.5-1.6-.2,0-.4,0-.4-.3,0-.1-.3-.2-.3-.3s0-.3.1-.4c1.7-6.2,3.5-13.3,4.2-16.4,0-.2.2-.6.6-.6s2,.7,2.1.8c.3.3,1,.9,1.1,1.3,0,.4,0,.6.1,1.1v.3c0,.9-.3,2.2-.7,3.8,1.5-2.5,3.8-5.2,5.5-6,.6-.4,1-.5,1.6-.5,1.6.6,3.8,1.3,4.1,3,.2.6.2,1.2.2,1.9,0,1.6-1.1,5.1-1.5,6.5-.8,2.5-2.1,6.1-2.3,8.2,0,.3,0,.4,0,.4,1.1,0,10.5-13.7,11.5-15ZM121.2,141.5c0-.1,0-.3,0-.4s-.2,0-.2,0c0,0,.1.3.1.4ZM122.4,139.5c0-.1-.1-.1-.1-.3,0,.1,0,.3-.2.4.2,0,.3-.1.3-.1ZM133.6,147.3c0,0,.2.3.2.3,0,.1-.2.4-.2.8h.2c0-.2,0-.3,0-.3,0-.2,0-.4,0-.7,0-.1,0-.2,0-.3,0,0,0-.2,0-.3,0-.2,0-.4.3-.6v-.3c0,0-.2,0-.3.3,0,.1,0,.3,0,.3,0,0-.2.2-.2.1,0-.2.2-.7.2-.8s0-.1,0-.3c0,0,.1,0,.1-.3.1,0,.1-.3.1-.3,0,0,.1-.1.1-.2,0,0,.3-.2.2-.2,0-.1-.1-.1-.2-.1v-.4c-.1,0-.1.3-.1.3h-.3s0,.1,0,.2c0,0-.3.2-.3.3h.3c0,0-.3.1-.3.3s0,.2-.1.3c0,0,0,.3,0,.3,0,.1-.2.1-.2.2v.9c0,0,.2.2.2.3s-.2.3-.2.4ZM134.3,145.6c0,0,0,0,0-.1v-.3c0,.2,0,.3,0,.4ZM134.7,142.8h-.2c0,0,.1.1.3.1s.1,0,.2-.1c0-.2,0-.5,0-.5,0,0-.1,0-.1.1,0,0-.2.2-.2.4ZM135.2,138.8c0,.2-.2.4-.2.6,0-.3.4-.8.6-.9-.3,0-.3.3-.4.4ZM136.2,137.9c0,.1-.3.6-.3.8,0,0,.3-.4.3-.4,0,0,.1,0,.1-.3v-.3c0,0-.1.2-.1.3ZM139.2,146c0,0-.1.2-.1.3l-.5.5c.1,0,.4-.4.6-.4,0-.1.3-.4.4-.5,0,0-.1,0-.3.1ZM140.7,144.1c0,0,0,0,0-.2s-.1.2-.3.3h.2c-.3.3-.2.3-.2.3.2,0,.6-.7.6-.8-.2,0-.3.4-.4.5ZM141.8,142.9c0,0,.2-.3.4-.5-.5.5-.9.5-.9,1.1,0,0,0,0,.5-.6ZM144.8,138.4l-.3.3h.3c0-.1.2-.7.2-.7,0,.1-.3.3-.3.4Z"/>
    <path class="cls-2" d="M171.6,132.4c0,0-.1,0-.1,0v1.1c.1.2,0,.5,0,.6,0,.3-.1.3-.2.4-.1,0-.3,0-.5.2,0,0,.1-.1.1-.2h-.3s0-.2-.2-.2l-.6.5c.3,0,.3-.1.5-.1s.3,0,.3,0c0,.3-.5.4-.7.4.1,0,.3-.2.3-.3-.1,0-.3.1-.4.1s-.1,0-.2,0c-.1,0,0,.6-.2.7,0,.1-.1.3-.4.3,0,0,0-.1-.1-.2,0,0-.1.7-.3.7-.1,0-.2,0-.3,0h-.3c0,0,0,.3-.1.3-.2.2,0,0-.3.3,0,0-.1-.2-.3-.2v.3c0,0-.3.3-.4.4.1-.3.2-.4.2-.4,0,0-.3.1-.4.3s.1.2,0,.3c0,0-.4.1-.4.3h-.3c0,.3,0,.3,0,.4l-.2.2c0,0-.3,0-.4,0,0,.1-.1.2-.1.2-.1,0-.2.3-.3.3s-.6.7-.7.6c-.3,0-.6.3-.6.4s-.2.2-.1.3c-.2,0-.4.1-.7.2-.1,0-.3,0-.3.1-.3.3-.4.3-.6.6,0,0,0,.1,0,.3,0-.3.5-.5.6-.7h.2c0,0,.1,0,.2,0l-1.7,1.9c-.5,3.1-2.8,12.9-4,16.4-1.6,4.5-6.7,16.9-12.2,18h-.6c-.1.1-.3.1-.4,0-.5,0-.8-.3-1.1-.6-.4-.3-1.6-1-2-1.1-1.1-.4-1.5-1.2-1.5-2v-.3c0-.4,0-.7,0-1,.2-.8.1-1.3.3-2,0-.3.3-.7.3-1,0-.7.4-1.4.6-1.9.9-4,3.9-9.1,5-11.1l.3-.4c.1-.3.3-.4.4-.7h.3c0,0,0-.4.1-.5,0,0,1.8-2.7,2.4-3.5l.3-.3c0,.2,0,.3,0,.3.2,0,.1-.4.3-.5,0,0,.1-.1.2-.3l-.4.2.3-.3c.1-.1,0,0,.2-.2.3-.4.6-.8.9-1.1,1.5-2.1,4.8-5.5,5.7-6.7.1-.1.1-.2.1-.3.6-2.5,1.3-6.2,1.6-7.7-.2.4-.2.6-.6.9-.1,0-.3.5-.4.7l-.3.4c0,.2-.3.4-.3.4-.1.3-.2.3-.2.3,0,0,0-.1-.1.1,0,0,0,.1,0,.2,0,0-.1.2-.1.1,0,0-.1.1-.2.1-.3,0-.1.2-.3.4l-.3.6c-.1.1-.3.1-.3.3,0,.3-.5.6-.5.6-.1.1-.8,1.1-.8,1.1l.2-.2c.2-.1.2,0,.2,0,0,0,0,.1,0,.2,0,.2-.3.3-.3.4-.1.2-.1.4-.4.4-.4.4-.6.8-.9,1.2-.2.5-1.9,2.5-2.1,2.6l-.5.6c-.1.1-.3.2-.4.3-.3.4-.3.6-.8.9,0,.1-.5.3-.6.4.1,0-.3.3-.1.3,0,.1,0,.2-.1.2-.4.2-.9.6-1.3.7-.2,0-.3,0-.4,0h-.4c-.1,0-.3.1-.4.1-.2,0-.3,0-.4-.2-2.1,0-3.3-2.7-3.3-4.5v-.8c0-2.2,1.3-5.1,2.6-7.4.5-.7.9-1.5,1.5-2.2,2.2-2.6,5.4-5.8,9.1-5.8s2.7,1,3.2,1.3h.3c.3-.2,2.3-.2,3-.3.3,0,1.1.1,1.3.4.4.4.6.6.6.9,0,.1,0,.2-.1.4,0,.4.3.8.4,1.1,0,1,0,1.3-.4,2.2,0,.3-.8,3.7-1.1,4.4,2.1-1.6,6.7-4.4,9.3-5.7v.2ZM150.7,155.5c-3.8,7.4-7.4,13.6-7.4,17.4v.4c0,.1,0,.3.1.3h.3c4.2-2.9,10.8-20.3,12-25.4l-2,2.6c0,.4-.8.9-.8,1.1,0,0,0,.2-.2.3,0,.2-.4.9-.5.9s-.2,0-.2,0c-.1.1-.3.1-.2.2,0,0-.3.9-.4,1,0,.2-.1.3-.1.4,0,0-.2.3-.3.3,0,0-.1,0-.3,0,0,0-.2.1-.2.2,0,.1.3.1.3.1,0,.1-.4.3-.4.3s0,.2,0,.3c0,.1-.1.2,0,.2s.2-.1.3-.3c0,0,.2-.1.3-.2ZM156.8,131.5c0,0-.4,0-.5,0-2.2,0-5.4,3.6-6.5,5.2l-.6.8c-.9,1.6-1.7,2.5-2.3,4.2l-.4.8c-.3.8-.9,2.4-1,3.3,4.1-3.1,8-10.6,11.3-14.2ZM146.1,140.9v-.3c-.3.2-.1.3-.3.6.2-.1.3-.3.3-.4ZM147.1,139.4l.4-.2c-.1-.2,0-.2-.1-.3,0,0,0,.1-.2.3v.3ZM147.5,138.5v-.3c0,0,0-.3,0-.3,0,0,0,.4-.2.4.1,0,.2,0,.3,0ZM147.9,138c0,0-.1,0-.1.1s0,.3.1.4v-.5ZM148,158.9c.1,0,.2,0,.2-.2,0,0,.1-.1.1-.2,0,0-.1,0-.2.1,0,0,0,.1-.1.3ZM148.3,168.2c0,.2-.2.4-.2.5s0,.1,0,.2c.1,0,.1-.3.3-.4,0-.2,0-.3-.1-.3ZM148.9,168.7l-.4.3c0,.1,0,.2,0,.3.3-.1.4-.4.4-.6ZM149.8,172.8c0,.1,0,.3-.1.5,0,0,.2-.3.2-.3v-.2ZM149.9,172.8c0,0,.1,0,.2-.1,0,0,0-.1,0-.3,0,0,0,.1-.1.4ZM150,151.3c.1,0,.5-.4.5-.5,0,0-.2-.1-.2-.1,0,0,0,0,0,.2-.1.2-.1.3-.3.4ZM150.3,172.3c0-.3.2-.3.3-.4l.4-.6c0,0,0-.1-.1-.1v.3c-.2,0-.2.2-.2.3s0,.1-.2.1-.1.3-.3.4c0,0,0,0,.2,0ZM150.3,151.2c0,.1.1.2.2.2,0,0,.2-.3.2-.4-.1,0-.2,0-.2,0s0-.1,0-.3c-.1.3-.3.4-.3.5ZM151.1,149.2c-.1,0-.1.2-.2.3.2,0,.2,0,.3-.1,0,0,0-.1,0-.2ZM151,149.9c.1,0,.3,0,.3-.1,0,0,.1-.2.1-.3-.2,0-.4.2-.4.4ZM154,140.1v-.3c-.2,0-.3.1-.4.4-.1.2-.1.3-.1.3,0,0,.3-.2.4-.2l.2-.3ZM154.9,139c-.1,0-.6.1-.6.3v.3c-.1,0,.6-.6.6-.6ZM154.4,138.6c.2,0,.4-.3.6-.4,0,0-.3,0-.3,0,0,0-.2.1-.2.1,0,0-.1,0-.2,0,0,.3,0,.3,0,.3ZM154.8,146.8c.3,0,.3-.2.4-.3,0,0,.1-.2.3-.3-.3,0-.4.3-.6.5ZM154.9,147.8c.3,0,.4-.1.4-.3,0,0,.2-.2.3-.2,0,0-.2-.2-.3-.2-.3,0-.3.4-.4.6ZM155.8,146.4c0,0,.3-.5.3-.5s.1,0,.1-.1c-.2,0-.3,0-.3.2,0,.1-.1.3-.3.4,0,0-.2.1-.2.3h.3v-.3ZM156.6,135.2c0,0-.2.3-.2.3s0,.1.1.1l.3-.4h-.3Z"/>
    <path class="cls-2" d="M212.2,116.9h0v.3c.6.4.7,1.7.7,1.8v.8c0,.3,0,.4,0,.7s0,.3,0,.4v1.8c-.1.2-.1.4-.3.6,0-.4,0-.6,0-.9s.1-.3.1-.6v-.6c0-.2,0-.4,0-.6v-1.2c-.1-.8-.2-1.1-.5-1.4,0,.4.3.8.3,1.3,0,0-.1.2-.1.3v.6c0,.3,0,.3,0,.3,0,0,.1.6.1,1s0,.1,0,.2v2.9c0,.1,0,.4,0,.7s-.3.4-.5,1.7v1.7c-.1,1.1-.6,3.8-1,4.3-.4.4-.3,1.1-.6,1.8l-.3.9c-.6,1.1-.4.9-1.6,3.1,0,.1.8-1.4,1.1-1.4-.1,2-1.8,2.8-2.6,5,.6-.6,1.2-2,1.8-2.6,0,.6-.6.8-.6,1.3,0,.9-1.2,1.4-1.2,2.5-.1.3-1.5,1.1-1.6,1.4.4,0,1-.6,1.3-.9-2.1,3.8-6.2,8.7-7.8,8.7.2,0,.3-.3.5-.5,0,0-.2,0-.3,0-.3.4-.5.6-.5.6l-.3.2c-.4,0-.3.5-.6.5h-.3c0,.1-1.5.9-3.1.9s-.1,0-.2,0c-.3.4-1,.4-1.8.4h-.6c-.9,0-2.5-.1-3.2-.5-.9,0-2.7-1.4-3.2-1.4l-.3-.3c-3-3-4.9-4.8-4.9-12.9s2.6-16.9,10.1-25c.4,0,1.6-.8,1.6-1.4s.5.1,1.3-1v-.5c1.7-1.8,5-3.1,7.3-3.3h.6c.1,0,.2,0,.3,0,.2,0,.3,0,.5,0,0,0,.2,0,.3,0,3.9,0,8.8,2.5,9.8,7.3l.2,1.4ZM185.5,141.9c0,5.2,1.4,9.8,6.2,9.8,8.7,0,16.6-20.3,16.6-30.2v-.5c-.1-3.8-.9-9.8-5.9-9.8s-2,.1-2.5,1c.4-.2.8-.3.9-.6h.4c0,.3,0,.3-.2.3-.3,0-3.9,2-3.9,3s.2.5.2.6c0,.1,0,.3-.3.3-3.5,4.4-5.4,11.6-5.9,18.6v2.1c0,2,.5,4.4,2.3,4.4s.8-.4,1.3-.4.2,0,.3,0,.3,0,.3-.1c.1,0,.2,0,.2.1,0,.3-.3,1.1-1.1,1.4-.2,0-.5,1.1-2,1.1h-1.3c-4.1,0-4.2-6.1-4.2-8.1v-1.6c0-2.1.6-4.4,1-6-.9.4-2.7,9-2.7,14.5ZM194.7,112.2l-.6.5c-.1-.3-.2-.3-.3-.3l-.3.4v-.3c.2,0,.6-.6.8-.8,0-.1,0-.1-.1-.1-.3,0-.9.5-1.1.8.1,0,.2,0,.3,0-.3.3-1.6,1.1-1.6,1.8l.4-.4c0,.3,0,.3,0,.3.7,0,.6-.7,1.5-.7,0,0-.2.1-.3.2.6-.3,1-.8,1.2-1.3ZM195.2,113.1c0,0,0-.1-.1-.1s-.3.3-.3.4l-.7.6.2.2.3-.3s.6-.4.9-.7h-.3ZM198.3,111.8c.3-.1.5-.4.6-.6-.3,0-.6,0-.8.4h-.2c0,.1.3.1.3.1ZM198.6,112c0,0,0,.1,0,.2,0,.4-.4.9-.4,1,0,0,.9-1.1.9-1.1,0-.2.3-.5.6-.5l.6-.4c-.6,0-.9.6-1.5.8h-.3ZM198.4,150c.3,0,.5-.1.7-.3v-.4s-.1,0-.1.2l-.6.4ZM199.8,151.2l-.4.6.5-.4v-.2ZM200.3,150.7h-.3c0,.3-.1.3-.2.4h.4v-.4ZM201,148.7c.4-.4.8-.9,1.2-1.2h-.3c-.5,0-.8.1-.9.6v.6Z"/>
    <path class="cls-2" d="M236.6,135.3l.6-.9c.3-.3.8-1.1.8-1.1,0,.2,0,.3,0,.3v.3c-.4.6-.3.6-.3.6l.4-.5c0,.1.1.2.1.3l-.4,1,.6-.8v.4l-.2.3c0,0,0,.3.1.3,0,0,0,0,0-.1v.5c0,.1-.3.8-.3.9,0,0-.6,1.6-4.7,7.1-1.7,2.3-5,5.9-6.9,5.9s-4.3-1.4-4.3-4.2v-.4c.1-2,.4-3.4.8-4.6-1.4,2.8-4.5,7.2-6.7,7.2h-.3c-2.1-.4-3.9-2.1-4.2-3.4v-.7c0-.2,0-.4,0-.6,0-2.7.6-5.3,2-8.4,1.1-2.5,3.7-6,4.8-6s3.4.6,3.4,1.3-.1.3-.1.3c-2.1,3.9-5,9.8-5.4,14.4v.4c1.2-.2,9-15.3,10.9-15.3s2.1.2,2.6.8c0,.3,0,.3,0,.4,0,.3.5.5.5.6-1.6,4.2-3.4,10.8-4,15.2v.3c0,.3,0,.4.2.4,1.4,0,8.7-10.3,10-12.1ZM216.1,143.6c-.1.1-.2.4-.4.4,0,0,.3.1.3.3,0,0,.2-.2.3-.4,0-.1,0-.3.1-.5-.1,0-.2.3-.3.4,0,0-.2.2-.2.1v-.4ZM216.5,142.9c0-.2.1-.5.2-.7-.2.3-.3.7-.3.8s-.2.1-.3.1v.3c0-.1.2-.2.3-.3,0,0,0-.1,0-.2ZM216.3,144.2c-.1,0,0,.2-.2.2,0,.1,0,.6.1.6v-.8ZM224.6,143.6c0,.2.3.1.3.3.1-.1.1-.2.1-.4h-.4ZM225.4,143.6c0,.1-.1.4-.4.4,0,.1.1.2.2.2,0-.2.2-.4.2-.6ZM225.3,145.7c0,0,.1-.2.1-.2-.2,0-.3.3-.3.5,0,.3.2.2.3.3v-.6ZM225.9,146.8c0,0,0,.4,0,.4.1-.1.2-.2.2-.3s-.1-.1-.1-.2ZM226.4,144.7c0,0-.3.4-.3,1.4v.3c0-.2.1-.4.1-.5,0-.3.2-.4.2-1.2ZM226.7,143.9c0-.1,0-.3-.2-.3,0,.2,0,.6,0,.8,0,0,.3-.3.3-.5ZM226.7,142.7l.2.3c0-.1,0-.7,0-.8-.2.1-.1.3-.3.4ZM227.1,135.2c0,0-.1,0-.1.2.2,0,.3,0,.3-.4v.2ZM228.9,135c-.8,1.8-1.7,5.6-1.8,6.2v.9c0,0,.8-3.3.8-3.3l1.1-3.8ZM230.8,145.3v-.4c-.3.3-.3.5-.4.8.3,0,.3-.2.4-.4Z"/>
    <path class="cls-2" d="M234.2,149.3c-.2,0-.2-.6-.2-.7s0-.2,0-.3c0-.2,0-.3.1-.7v-1.1c0-.2.1-.3.3-.3v-.9c1.1-5.5,2.6-9.5,4-15.2,0-.3.3-.8.3-1.3s.3-.4.3-.5c.2-.3.4-.4.8-.4.1,0,1.3.4,1.8.5.3,0,.9.3.9.7.4.4.4.8.4,1.3v.8c0,.9,0,.9-.2,2,1.6-2.1,5.1-4.5,7.1-4.5s.9.3,1.1.7c0,0,0,.2,0,.3,0,.1,0,.1-.2.1-.3.1-.7.2-2.2,1-.3,0-.4.1-.4.3l-.5.4c-.2,0-.4.2-.4.4l-1.4,1.6c-.2.3-.5.4-.6.6-.4.3-.5.6-.8.9,0,0,0,.1-.2.1,0,.2-.3.4-.3.6-.2.1-.3.4-.3.6-.1.1-.3.1-.3.3,0,0,0,0,0,.3h-.2c0,.3-.1.3-.1.4,0,0-.3.1-.3.2,0,.1,0,.3,0,.4-.2.1-.3.6-.3.7-.3.3-.5.5-.9,1.2,0,0-.1-.2-.1-.1,0,.1,0,.2,0,.2,0,.2,0,.2-.2.2,0,.1,0,.3,0,.3v.3c0,.3-.1,0-.1.4-.2,0-.2.1-.3.3,0-.2,0-.3,0-.3,0-.1,0-.3,0-.3,0,0-.1-.1-.2-.1,0,0,0,0,0-.2,0-.1,0-.3,0-.3.1-.1.1-.2.1-.3-.2,0-.4.7-.5.8,0,0-.1.4-.1.5-.1,0-.1.2-.1.3,0,.2-.3.8-.3.9s.2-.6.4-.7c0-.3.1-.5.2-.5,0-.1,0-.3.1-.3,0,0,0,.6-.1.8l.3-.2c0,.3-.2.3-.3.4v.3s0,.2-.2.2c0,.3-.1.4-.2.4s0-.3,0-.3c-.3.1-.4.4-.4.7v.4c.1-.4.1-.6.1-.7.2,0,.2,0,.2.1,0,0,0,.2-.2.4,0,0,0,.1,0,.2s0,.1.1.1c0,0,0,.2-.1.1l-.4.8c0,.2,0,.4-.1.5v.4c-.2.2-.2.4-.3.6,0,0,0,.9-.3.9v.6c-.1.1-.4.9-.3.9,0,0,.1-.4.2-.5.1,0,.3-.8.3-.8,0,0,.2-.6.2-.8,0-.2.2-.6.3-.8,0-.2.1-.4.1-.5,0-.2.2-.3.2-.4,0-.2.2-.4.3-.5,0-.2,0-.3.1-.5,0-.1.2-.3.3-.4v.4c0,.3-.3.5-.3.6,0,0-.2.4-.2.5,0,0,0,.1,0,.2,0,.1,0,.2,0,.3h-.2c0,0-.1.1-.2.2.1.1.1.2.1.3s.3-.4.4-.6c0,.1,0,.3-.2.5,0,.2,0,.3,0,.3-.2.1-.2.2-.2.3s0,.2,0,.3l-.4.8v.6c.1,0,.1-.1.1-.2,0,0,0-.1,0-.2,0-.1,0-.3,0-.3,0,0,.1,0,.2,0,0,0,0,.3,0,.4s0,.2,0,.2c0,0,0,.2.2.2,0-.2,0-.4.2-.4,0,.2-.2.4-.2.5v.5c-.2,0-.5.8-.5.9,0-.1-.1-.2-.1-.3l-.2.3v-.4c0,0-.1.1-.2.1,0,0,0-.3,0-.3,0,0,0-.1.1-.1,0,0,0-.3.1-.4.1,0,.2,0,.2-.1,0-.2-.6.6-.6.6,0,.2,0,.3-.2.4,0,.2,0,.4-.2.6,0,0-.2.4-.4.4,0,0-.2.2-.3.2h-.4c-.1-.2-.3-.2-.4-.3,0,0-.4,0-.5-.1-.3,0-1.8-.1-1.8-.4ZM236.7,147.8c0,0-.2,0-.2.3-.1,0-.2.2-.2.3s0,.1.1.2c0,.2,0,.3-.1.3,0,0,.1.3.1.3,0,0,.2-.3.2-.4,0-.3,0-.3.1-.4,0,.1-.1,0-.3.1,0-.3,0-.3.3-.4,0-.1,0-.2,0-.2ZM237.4,147.2c-.2,0-.3,0-.3.3,0,0,0-.1.1-.1.2,0,.2-.1.2-.2ZM237.5,142.1c-.1,0-.3,0-.3.2,0,0,.2,0,.2,0v-.3ZM238.9,143.6c0,.3,0,.4,0,.8,0-.1.3-1,.3-1,0,0-.2,0-.2,0,0,0,0,.1,0,.2ZM243.3,135.1c0-.1,0-.4,0-.5,0,0-.1.4-.2.4l-.3.3.4-.2ZM243.9,135.1l.3-.2s-.2,0-.2-.1c0,.1,0,.1-.1.3ZM244.3,132.2c-.1,0-.3.3-.3.3,0,0,.4-.4.6-.4-.3,0-.3,0-.3.2ZM246.6,131.1c-.3,0-.7.6-.8.8.3-.3.5-.4.8-.8Z"/>
    <path class="cls-2" d="M267.2,153.7v.3c0,0,0,.1.1.1-.1,0-.1.2-.2.3,0,0-.2-.1-.2-.2,0,.2,0,.3,0,.3-.1,0-.1-.3-.2-.4-.1,0-.3.1-.3.1,0,.2,0,.3.1.4,0,0,0,.1-.1.1,0,0,.1.3.1.3,0,0-.2-.2-.3-.3-.1-.3-.2-.6-.5-1.1,0,.3.2.6.2.8,0,.5.3.9.5,1.1,0,0,.4.3.6.3h.3c0,0-.1,0-.2,0-.2.3-.4.3-.6.4-.1,0-1.1-.3-1.3-.4-1.3-.6-2.1-2.5-2.1-4.5v-.3c0-3.7,1.8-10.6,3.1-14.1-.1-.1-.2-1.3-.2-1.5,0-.2,0-.4.3-.7,0,0,0-.3.7-.5,1.6-4.9,3.6-10.1,5.9-17.8v-.7c0-.6.7-.8,1.3-.8s1,.3,1.1.3c.6,0,1.8.8,1.8,2.6v.3c-.9,5-2,7.6-4.2,14.6,7.9-1.6,19.5-7.6,19.8-13.6v-.4c0-4.3-5.2-5.5-8.8-5.8h-.9c0,0-1.1,0-1.1,0-7.7,0-14.9,2.5-19.9,7.3-.8.7-1.7,2-1.7,3.2s0,.6.2.8c-.1.6-.5,1-1.2,1.1-.9,0-2-1.8-2-3.1v-.3c1.1-9.1,13.7-12.6,21.2-13.3h4.2c4.3.3,9.4,2.1,11.3,5.2.4.5.7.9.9,1.5.7,1.1.9,3.1.9,4.5v.3c-.1,1.6-1.5,4.1-2.3,5.3-2.6,3.7-6.1,5.9-9.8,7.9l-.6.3c-.4.1-.7.4-1.1.4s-.1,0-.1.1c0,0-.1.1-.3.1s-.4.1-.7.2c0,0-.1.1-.2.1-.4.2-.9.4-1.3.5,0,.2-.3.1-.4.2-.3,0-.4,0-.4,0-.4.1-.7.2-1.1.4l-3,.8c-1.1.3-2.1.4-3.3.6-1.5,4.8-3.5,11.1-3.8,15.7,0,.2.1.4.1.4,0,.2-.1.6-.2.6-.1,0-.1.1-.1.3,0,0,0-.2-.2-.3ZM273.5,135.3c.1,0,.3,0,.4,0,0,0-.3.2-.5.2h-.3c-.1.2-.8.3-.9.3s0,.1,0,.2c.7,0,1.1-.4,1.6-.4h.3c.2.1.3,0,.4,0-.1-.1-.3,0-.3-.2,0-.1,0-.1.2-.3l.9-.4c-.1,0-.1,0-.2,0,0,0-.3.1-.4.2l-.6.2-1.5.2c0,0,.1.1.3.1h.8ZM275.2,135.9c-.1,0-.3-.1-.3-.1,0,0-.3.1-.4.2l-1.1.2c-.1,0-.2,0-.2,0,0,0,.3,0,.4,0l1.7-.4ZM273.7,134.7c0,0-.1-.1-.2-.1s-.1,0-.1.1h.3ZM274.5,133.8c0,0,.1,0,.2,0,.3-.2.3-.2.3-.3h-.3c-.2,0-.3,0-.3,0,0,.1,0,.3,0,.3ZM275.2,133.2v.2c-.1,0,0,0,0,0s.1,0,.2-.1c0,0,0-.1.1-.2-.2,0-.3,0-.4,0ZM295.2,116.4c0-.6-.6-1.1-.8-1.6,0,.4.2.6.3,1,0,.2.2.3.3.6.1.3.3.8.4,1,0-.3-.2-.9-.2-.9Z"/>
    <path class="cls-2" d="M295,147.9c2.1,0,7-6,8.6-7.9,1.8-2.4,3.7-5,5-6.5v.6c0-.1.1-.3.3-.4s0,.4-.1.8l.3-.4c0,0,.3.4.3.6.3.1,0,.4.3.4s-1,1.8-1.1,2l-1.5,2.1c-1.9,2.6-7.7,11-12.2,11s-5.7-3.6-5.7-6.9,0-.8,0-1.2c.4-5.1,4.1-13.2,9.3-14.5,1.3.1,5.1,1.5,5.1,3.2v.3c-.1,4.2-4,6.9-7.1,6.9h-.8c0,0-.3.2-.4.3-.4.9-1.4,4.7-1.4,7.2v.7c0,1,.6,2,1.2,2ZM292.4,144.9v.6c0,0,.3,0,.3,0,0-.1,0-.3-.3-.5ZM293,144.3c.1.4.1.5.1.5.1,0,.1-.5.1-.8-.1.2-.3.3-.3.3ZM293.6,143.6c.2-1.8.9-4.2,1.4-5.7-.1.3-.3.7-.4.9l-.3.8c0,0,.1-.1.1-.1,0,0,0,.3-.1.4,0,0-.3.5-.3.7,0,0,0,.2-.1.2s-.1,0-.2.1l.2-.8c.1-.5.7-2.2.7-2.2,0,0-.2.2-.2.2-.4,1.2-.8,2.5-.9,3.8l.2-1c0,0,.1.1.1.3s0,.4,0,.4c0,0-.2,1.1-.2,1.9ZM296.4,134.7c0,0-.4-.1-.4-.1,0,0-.2.2-.3.2l.2.3c0-.1,0-.4.4-.4ZM296.7,134.8l-.3.6c1.9-.4,4.1-2.8,4.1-4.6s-.2-.1-.3-.3c-1.3,1-2.2,1.9-3.5,4.3ZM296.7,134.1c0-.1-.2-.1-.2-.1v.3c.1,0,.2-.1.2-.2ZM306.1,139.7c0,0-.1,0-.1.1s.4-.2.4-.4c-.3,0-.3,0-.3,0,0,.1,0,.2,0,.2Z"/>
    <path class="cls-2" d="M318.8,133.1c0,.4.1,1,.1,1.5,0,4.3-3.7,11.8-8.3,13.5-.4.2-.6.2-.9.2h-.7c-.7,0-1.6-.3-2.3-.6-1.4-.1-1.8-1.8-1.8-3.6s.4-4,.6-4.7c0-.1,0-.2,0-.3s.3-.8.3-.9c2-5.9,5.5-11,9.5-11.3h.7c.2,0,1.1.2,1.3.4.2,0,.5.1.5.1,0,.1,0,.4-.3.6-.5.3-1.1.6-1.6,1.2.8.4,1.5.9,2,1.6,3.3,0,7.2-.7,9.5-1,.2,0-1.2,1.9-1.3,2-.9.3-1.9.5-3.1.7-.1,0-.3,0-.4,0-1.4.3-2.6.5-3.8.6ZM315.5,133.2h-.5c-.5,0-1-.1-1.4-.4l-.9,2.2c-1.5,3.5-2.9,7.1-3.3,10.3,0,0,.3,0,.3,0s.1-.1.2-.1c2.4-2.2,5.4-7.5,5.6-11.6v-.3ZM315.5,141.5c-.1,0-.3.1-.3.2s.1,0,.1.3c0,0,.1-.3.1-.4ZM316.5,140.2l-.2.4c0,.2-.3.8-.5.9,0,0,.3-.1.3-.1.1-.3.4-.6.5-1.1,0,0,0-.3,0-.3,0,0-.1,0-.2.2ZM316.3,139.8s0,.1.1.2c-.3.3-.4.6-.4.8,0,0,.2,0,.2-.2.1-.1.2-.4.3-.4v-.8c0,0-.2.4-.2.4ZM317.7,137.6c0,0-.1,0-.1-.1,0-.2.2-.4.3-.5-.4.1-.6.8-.6,1.2-.3.1-.4.8-.4.9,0,0,.3-.1.3-.1,0,0,0-.2,0-.3s0-.3,0-.3c.3-.1.2-.4.3-.7ZM317.8,135.8c0,.3,0,.4,0,.8.1-.2.2-.4.3-.6l-.2-.3ZM317.8,137.2c0,0,0,.1,0,.2.1,0,.1-.3.1-.3-.1,0-.2,0-.2,0ZM318.4,135.1v.7c.1-.3.2-.4.2-.6s0-.2,0-.3v.3Z"/>
    <path class="cls-2" d="M347.7,130.8c0,.1.1.3.2.2,0,.3-.3.5-.3.6,0,.3,0,.6-.4.6s0,.3-.1.3-.1.3-.1.3c0,0,0,0,.3,0,0,0-.1.3-.1.3-2.3.6-5.4,1.8-7.9,3.3-1.9,6-4.8,9.2-6.4,10.4-.2.2-.4.6-.7.6,0,0-.2,0-.3.2,0,0-.3.1-.3.2l-.6.4c0-.1.3-.3.4-.4.3-.2.6-.4.9-.8.3-.2.4-.4.5-.7.3-.2.5-.3.7-.6,0,0,0-.1,0-.2l-1,.8c0,.1-.1.3-.3.4,0,0-.3.1-.4.1,0,0,.1.1.2.1-.1,0-.2,0-.2.1-.1,0-.1.1-.1.2,0,0-.3.3-.3.3,0,0-.4,0-.6.2-.2.2-.4.2-.6.3-.3.2-.4.3-.8.4,0,0,0,0-.2,0-.1.1-.2.2-.3.2h-.6c-1.3-.4-3.2-1.1-3.6-1.8-.3.6-.6,1.6-1.4,5l-1.1,5.4c-.1.5-.2,1.2-.3,1.6,0,0,0,.2,0,.3,0,.2,0,.5,0,.7s0,.3-.2.3,0,0,0,.2v.6c0,.4,0,.7-.3.9-.6,0-3.2-1-3.3-1.6-.2-.8-.3-1.5-.3-2.3s0-1.3.1-1.9c1.3-11.1,6.3-22.5,9.5-33.3.3-.3.4-.3.7-.3.5,0,1.9.6,2.1,1,.3.4.4.8.4,1.3v1.2c-.1,2.2-.6,3.1-1.1,4.8,0,.3-.2.6-.3.8v-.2c1.3-1.4,2.9-3.3,4.8-3.8,1.1,0,2.2,0,3.2.8,0,0,.2.1.3.1,1.3.3,2,3.1,2,4.2v1c0,0,3-1.3,3.5-1.4,1.8-.6,3.2-1,5.3-1.4,0,0-.3.2-.4.3h-.2ZM319.5,151.2c0,0-.2-.4-.2-.4,0,0-.2,1-.2,1.1l.4-.8ZM321.4,157.3c-.1,0-.1.4-.1.5.1,0,.1,0,.1-.2v-.3ZM321.7,155.6v.2c.3-.4.4-.8.4-.8s0-.2.2-.4v-.3c0,0,0-.1,0-.2s0-.2,0-.3c.1-.2.2-.2.2-.2.1,0-.2-.1-.2-.3s0-.1,0-.2.1-.3.1-.6.4-.6.4-.6c-.1,0-.3.1-.4.3,0-.1.1-.3.1-.4,0-.1-.1-.3-.1-.5,0,0-.1,0-.1.2s0,.1.1.3c0,.2,0,.3-.1.4,0,0,0,.1,0,.3,0,0-.1,0-.1.1v.3c0,.1,0,1.4-.1,1.4s-.1-.3-.1-.3c0-.1,0-.2,0-.4,0,.1-.1.3-.1.4s0,.2,0,.3c0,0,0,.1,0,.2,0,.1-.2.1-.2.4s0,.2,0,.3c0,.1,0,.3,0,.5ZM321.9,157.3l-.2.4c.1,0,.2,0,.3-.1,0,0,0-.1,0-.3ZM322.9,150c.1-.1.1-.3.1-.4v-.3s-.2.3-.3.3l.2.4ZM323.8,147.3c-.2.1-.2.2-.2.3l-.3.9c.3,0,.4-.7.6-.8-.1-.2-.1-.3-.1-.4ZM335.5,131.4c0-.7-.1-1.3-.4-1.9-3.8,3.5-7.1,7.4-9.1,13.7,1.8-2.8,5.4-5.9,9.1-8.1.3-1.1.3-1.9.4-3v-.7ZM328.2,145.8l-.6.3c0,0-.1.1-.2.1.4,0,.7-.2.8-.4ZM331.6,142.5c.9-1.3,1.3-1.6,2-2.9,0,0,0-.1.1-.3l-.3.3c-1.7,1.4-5.4,4.7-5.8,6.1.8-.1,3.1-2,4-3.1ZM330.5,147.4c0,0-.3.2-.3.2-.1.1-.1.3-.2.3h-.3c0,.1.3,0,.3,0l.8-.6h-.3ZM334,138.1c0-.2,0,0,0-.2-.2,0-.4.3-.5.4.1,0,.4,0,.6-.2ZM333.7,138.8c.1,0,.1,0,.2,0,0,0,0-.1,0-.2,0,.1,0,.2-.1.3ZM334.9,144.3c0-.1.3-.4.3-.4l.3-.5c0,0-.7.8-.7.8,0,.2-.1.3-.2.6l.4-.5ZM339.8,134.9c0,0-.1,0-.2,0s-.1,0-.1.1c0,.2,0,.1.1.2l.2-.4ZM340.1,134.2c.1,0,.1,0,.1-.1-.1,0-.2,0-.2,0l-.4.3c0,0,0,0,.1,0l.3-.3Z"/>
    <path class="cls-2" d="M358.9,134.5l.2.9.4-.6c0,0,0,.4,0,.4,0,0-.1.3-.3.6l.3.4c.1,0,.3-.3.3-.2s-.1.3-.6,1.1c-.4.6-1.2,2-2,2.2.1,0,.2.1.3.1,0-.1.1-.3.3-.3-2,3.1-7.1,11-10.3,12.1-.6.1-.3.3-1.1.3s-.3,0-.5-.1c-.4-.3-1.5-.6-1.8-1-1.3-1.2-1.2-3.3-1.3-3.8,0-.2,0-.4.2-.6,0,.1,0,.3,0,.4.1-.2.1-.4.1-.7,0,0-.2,0-.3,0,0-.2-.1-.2-.1-.4s0-.3,0-.8v-.4c0-.5,0-.9.2-1.7,0,0-.2-.3-.2-.4,0,.1,0,.2,0,.3-.1.9-.2,1.6-.2,2.6v1.2c0,1.4.3,3,.9,3.9-.8,0-1.2-2.5-1.3-4.3v-.8c0-2.8.9-5.8,1.6-8.1,1.7-5.6,5.3-14.7,7.8-22.3.2-.3.4-.5.8-.5s.3.1.4.3c1.3.4,2,1.4,2,2.6.1.2.1.4.1.6s0,.4,0,.6c-1.1,4.8-2.1,7.7-3.8,12.7-1.5,4.2-4.5,12.4-4.5,17.1v.3c.1.4,0,.8.3.8s.2,0,.3-.1c3.5-2.6,9.7-12.4,11.2-14.3.3-.4.4-.6.8-.7l-.3.5ZM343.2,147.8c0,0,0,.1,0,.2v-.3c.1-.2,0-.4,0-.6v.7ZM343.8,138.6c0,.1,0,.3.1.3,0-.2.1-.4.1-.7-.1,0-.3.2-.3.4ZM344.1,137.7c0,0,0,.2,0,.2.1-.1.1-.3.1-.4-.1,0-.2,0-.2.2ZM344.7,135.8c-.3.4-.3.8-.4,1.3h.3c0-.1,0-.4,0-.4v-.9ZM346,147c.1-.4.1-.8.1-1.3l-.3,1.1v1.2c.1,0,.1-.9.1-.9ZM346.6,141.7c0,0,.1-.1.1-.2v-.3c0-.1,0-.4.1-.6-.1.1-.2.2-.3.2,0,.2,0,.4,0,.9ZM347,139.1s-.2,0-.2.3v.3c0,0,.2-.5.2-.5ZM347,138.9h.4v-.2c-.1,0,0-.4,0-.4,0,0,.1-.2.1-.4-.2,0-.2.3-.3.4,0,0-.1.4-.3.5ZM349.2,149.5l-.5.5c.1,0,.4-.4.6-.4,0-.1.3-.4.4-.5,0,0-.1,0-.3.1,0,0-.1.2-.1.3ZM350.8,146.1c0,0,.2-.1.3-.1,0-.1.1-.2.1-.3s-.1,0-.1.2c-.1,0-.2.2-.3.3Z"/>
    <path class="cls-2" d="M362,147.9c2.1,0,7-6,8.6-7.9,1.8-2.4,3.7-5,5-6.5v.6c0-.1.1-.3.3-.4s0,.4-.1.8l.3-.4c0,0,.3.4.3.6.3.1,0,.4.3.4s-1,1.8-1.1,2l-1.5,2.1c-1.9,2.6-7.7,11-12.2,11s-5.7-3.6-5.7-6.9,0-.8,0-1.2c.4-5.1,4.1-13.2,9.3-14.5,1.3.1,5.1,1.5,5.1,3.2v.3c-.1,4.2-4,6.9-7.1,6.9h-.8c0,0-.3.2-.4.3-.4.9-1.4,4.7-1.4,7.2v.7c0,1,.6,2,1.2,2ZM359.4,144.9v.6c0,0,.3,0,.3,0,0-.1,0-.3-.3-.5ZM359.9,144.3c.1.4.1.5.1.5.1,0,.1-.5.1-.8-.1.2-.3.3-.3.3ZM360.5,143.6c.2-1.8.9-4.2,1.4-5.7-.1.3-.3.7-.4.9l-.3.8c0,0,.1-.1.1-.1,0,0,0,.3-.1.4,0,0-.3.5-.3.7,0,0,0,.2-.1.2s-.1,0-.2.1l.2-.8c.1-.5.7-2.2.7-2.2,0,0-.2.2-.2.2-.4,1.2-.8,2.5-.9,3.8l.2-1c0,0,.1.1.1.3s0,.4,0,.4c0,0-.2,1.1-.2,1.9ZM363.4,134.7c0,0-.4-.1-.4-.1,0,0-.2.2-.3.2l.2.3c0-.1,0-.4.4-.4ZM363.7,134.8l-.3.6c1.9-.4,4.1-2.8,4.1-4.6s-.2-.1-.3-.3c-1.3,1-2.2,1.9-3.5,4.3ZM363.7,134.1c0-.1-.2-.1-.2-.1v.3c.1,0,.2-.1.2-.2ZM373.1,139.7c0,0-.1,0-.1.1s.4-.2.4-.4c-.3,0-.3,0-.3,0,0,.1,0,.2,0,.2Z"/>
  </g>
</svg>