<?xml version="1.0" encoding="utf-8"?>
<!-- Generator: Adobe Illustrator 22.1.0, SVG Export Plug-In . SVG Version: 6.00 Build 0)  -->
<svg aria-hidden="true" role="img" xmlns="http://www.w3.org/2000/svg" x="0px" y="0px" viewBox="-473 275 12 12" style="enable-background:new -473 275 12 12;" xml:space="preserve">
<g transform="translate(-757.000000, -272.000000)">
<g transform="translate(0.000000, 87.000000)">
<path d="M286.7,463.9v8.1h-2.6v-8.1H286.7z M286.9,461.4c0,0.4-0.1,0.7-0.4,1s-0.6,0.4-1.1,0.4h0
				c-0.4,0-0.8-0.1-1-0.4s-0.4-0.6-0.4-1c0-0.4,0.1-0.7,0.4-1s0.6-0.4,1.1-0.4s0.8,0.1,1,0.4S286.9,461,286.9,461.4z M290.7,465.1
				c0.1-0.2,0.2-0.3,0.3-0.4c0.1-0.1,0.3-0.3,0.4-0.4s0.4-0.3,0.7-0.4s0.6-0.1,0.9-0.1c0.9,0,1.6,0.3,2.1,0.9s0.8,1.5,0.8,2.7v4.6
				h-2.6v-4.3c0-0.6-0.1-1-0.3-1.3c-0.2-0.3-0.5-0.5-1-0.5c-0.3,0-0.6,0.1-0.8,0.3c-0.2,0.2-0.4,0.4-0.5,0.7
				c-0.1,0.2-0.1,0.4-0.1,0.7v4.5h-2.6c0-2.2,0-3.9,0-5.3s0-2.2,0-2.4l0-0.4h2.6V465.1z"></path>
</g>
</g>
</svg>