<?xml version="1.0" encoding="utf-8"?>
<!-- Generator: Adobe Illustrator 26.0.1, SVG Export Plug-In . SVG Version: 6.00 Build 0)  -->
<svg version="1.1" id="Layer_1" xmlns="http://www.w3.org/2000/svg" xmlns:xlink="http://www.w3.org/1999/xlink" x="0px" y="0px"
	 viewBox="0 0 1792 838.2" style="enable-background:new 0 0 1792 838.2;" xml:space="preserve">
<style type="text/css">
	.st0{fill:#FFFFFF;}
</style>
<path class="st0" d="M506.7,0.6c0,0.7,1.3,2.5,3.1,4.4c1.6,1.9,8.7,10.5,15.6,19.3c12,15.2,14,17.7,18.7,23.3
	c1.1,1.2,3.5,4.3,5.3,6.7c4.8,6.3,21.2,26.8,24.5,30.7c1.5,1.9,4.4,5.5,6.3,8c2,2.5,4.7,6,6,7.5c1.5,1.6,4,4.8,5.9,7.2
	c1.9,2.4,4,5.1,4.7,5.9c0.8,0.8,3.1,3.9,5.3,6.8c2.1,2.9,4.5,6,5.3,6.8c0.7,0.8,3.2,3.7,5.3,6.5c2.3,2.8,4.7,5.7,5.3,6.5
	c0.8,0.8,3.9,4.8,6.9,8.8s6.7,8.5,8,10c1.3,1.5,4.9,6,8,10s6.7,8.5,8,10c1.3,1.5,4.5,5.5,7.1,8.8c2.5,3.3,6.5,8.4,8.9,11.3
	c2.4,2.8,8.5,10.5,13.7,17.2c5.2,6.5,10.5,13.2,11.7,14.7c1.2,1.5,4.7,5.7,7.5,9.3c2.9,3.7,6.4,7.7,7.7,9.1c1.3,1.3,2.4,2.8,2.4,3.3
	c0,0.5,1.3,2.4,3.1,4.3c1.6,1.9,16.1,19.9,32.3,40c16,20.1,29.7,37.2,30.3,38c1.2,1.5,18.9,23.7,24.8,31.2c2,2.4,6.5,8.1,10.3,12.7
	c3.6,4.4,7.1,8.7,7.6,9.5c0.5,0.7,5.5,6.8,10.7,13.5c5.3,6.7,11.6,14.4,13.7,17.2c2.3,2.8,5.1,6.4,6.4,7.9
	c1.2,1.6,8.9,11.2,17.1,21.5c8.1,10.3,15.7,19.9,16.9,21.3c1.3,1.5,4.7,5.6,7.6,9.3c2.9,3.6,6,7.3,6.7,8.3c1.7,2.1,2.5,3.1,12,15.1
	c4.4,5.5,8.8,10.8,9.7,11.7c4.4,4.8,4.5,6.7,4.5,164.4v157.2l4.1,0.1c24.3,0.4,229.2,0,229.7-0.5c0.5-0.4,0.8-79.1,0.8-174.8
	c-0.1-172.8-0.1-174.1-2.9-184.4c-4.4-16.1-20.3-45.5-24.3-44.7c-1.1,0.1-3.2-1.3-4.5-3.2c-1.3-2-3.5-4.5-4.7-5.7
	c-1.2-1.2-7.7-9.3-14.7-18.1c-6.8-8.8-12.8-16.3-13.2-16.7c-0.7-0.5-4-4.9-10.9-14c-1.2-1.5-14.1-17.7-19.7-24.7
	c-2-2.5-12.3-15.5-22.7-28.7c-10.4-13.2-19.9-24.7-20.8-25.5c-1.1-0.8-1.9-2-1.9-2.7c0-0.7-1.3-2.7-3.1-4.5
	c-1.7-1.9-6.3-7.6-10.3-12.7c-4-5.2-7.9-10-8.7-10.8c-2.5-2.8-6.7-8-13.3-16.5c-3.6-4.8-7.2-9.3-8-10.1c-0.7-0.8-2.8-3.5-4.7-5.9
	c-2.8-3.9-8.4-10.8-17.3-21.9c-1.1-1.3-2.7-3.1-3.3-4c-0.8-0.8-2.9-3.6-4.7-6.1s-4.5-6.1-6.3-8c-1.6-1.9-9.6-11.7-17.7-22
	c-8.1-10.3-15.5-19.6-16.4-20.7s-3.7-4.7-6.3-8c-2.5-3.3-4.9-6.3-5.3-6.7c-0.4-0.4-2.8-3.3-5.3-6.7c-2.5-3.3-5.2-6.7-6-7.5
	c-0.7-0.8-2.8-3.5-4.7-5.9c-2.8-3.7-6.8-8.8-16.9-21.3c-0.9-1.1-5.9-7.5-11.1-14c-5.2-6.7-10.5-13.2-11.7-14.7
	c-1.3-1.5-4.1-5.1-6.3-8c-4.7-6.3-6.9-8.9-11.1-13.7c-1.7-2-5.6-7.2-8.5-11.6C798.3,15.3,788,8.5,764.7,1.3
	C760.7,0.1,506.7-0.6,506.7,0.6L506.7,0.6z M0,420v418.3l117.1-0.3l116.9-0.3l0.7-4.7c0.4-2.5,0.4-6.3-0.1-8.4
	c-0.5-2-0.7-3.6-0.1-3.6c1.1,0,0.9-15.7-0.1-16.8c-0.4-0.4-0.3-2.3,0.4-4c0.7-1.7,0.7-3.5,0.1-3.7c-0.7-0.4-0.7-3.2-0.1-6.1
	c0.5-2.9,0.5-5.3,0-5.3s-0.5-2.1,0-4.7c0.7-2.8,0.5-4.7-0.3-4.7c-0.7,0-0.8-0.5-0.4-1.3c1.1-1.7,1.5-14.4,0.4-15.5
	c-0.5-0.4-0.4-2.3,0.3-4c0.8-1.9,0.8-3.5-0.1-3.9c-0.7-0.5-0.9-1.5-0.5-2.1c0.4-0.7,0.8-4.9,0.8-9.5c-0.1-17.6-0.1-20.1,0.5-21.1
	c0.4-0.7,0.1-1.5-0.5-2c-0.9-0.4-0.9-2-0.1-4s0.8-3.6-0.1-4c-0.7-0.5-0.9-1.5-0.4-2.1c0.9-1.6,1.2-18.4,0.1-19.3
	c-0.4-0.4-0.1-2.5,0.4-4.7c0.7-2.1,0.7-3.9,0-3.9c-0.5,0-0.5-2.1,0-4.7c0.7-2.8,0.5-4.7-0.3-4.7c-0.7,0-0.8-0.5-0.4-1.3
	c1.1-1.7,1.5-14.4,0.4-15.5c-0.5-0.4-0.4-2.1,0.3-3.7c0.5-1.7,0.7-3.9,0-4.8c-0.5-0.9-0.5-3.5,0-5.5c0.7-2.1,0.7-4.1,0-4.5
	c-0.7-0.4-0.7-2.1,0-4c0.7-1.7,0.7-3.6,0.1-3.9c-0.7-0.4-0.7-3.2-0.1-6.1c0.5-2.9,0.5-5.3,0-5.3s-0.5-2.1,0-4.7
	c0.7-2.8,0.5-4.7-0.3-4.7c-0.7,0-0.8-0.5-0.4-1.3c1.1-1.7,1.5-14.4,0.4-15.5c-0.5-0.4-0.4-2.3,0.3-4c0.8-1.9,0.8-3.5-0.1-3.9
	c-0.7-0.5-0.9-1.5-0.4-2.1c0.8-1.3,0.9-13.3,0.3-23.6c-0.3-3.1,0-5.6,0.4-5.6c0.5,0,0.4-2.1-0.1-4.7c-0.5-2.5-0.7-4.7-0.1-4.7
	c0.9,0,0.5-12.9-0.4-15.6c-0.4-0.9-0.3-1.7,0.3-1.7c1.1,0,1.1-15.7-0.1-16.8c-0.4-0.4-0.3-2.3,0.4-4s0.7-3.5,0.1-3.7
	c-0.7-0.4-0.7-3.2-0.1-6.1c0.5-2.9,0.5-5.3,0-5.3s-0.5-2.1,0-4.7c0.5-2.5,0.5-4.7,0-4.7c-0.7,0-0.7-1.6-0.1-3.7c0.7-2,0.5-4.9,0-6.7
	c-0.7-1.6-0.5-2.9,0-2.9c0.7,0,0.7-2.1,0.1-4.7c-0.5-2.5-0.7-4.7-0.1-4.7c0.9,0,0.5-12.9-0.4-15.6c-0.4-0.9-0.3-1.7,0.3-1.7
	c1.1,0,1.1-15.7-0.1-16.8c-0.4-0.4-0.3-2.3,0.4-4c0.7-1.7,0.7-3.5,0.1-3.7c-0.7-0.4-0.7-3.2-0.1-6.1c0.5-2.9,0.5-5.3,0-5.3
	s-0.5-2.1,0-4.7c0.5-2.5,0.5-4.7,0-4.7c-0.7,0-0.7-1.9,0-4c0.7-2.3,0.7-5.7,0-8c-0.7-2.3-0.7-4,0-4c0.7,0,0.7-1.7,0-3.9
	c-0.5-2.1-0.8-4.3-0.3-4.7c0.9-1.1,0.9-9.9-0.1-10.9c-0.4-0.4-0.3-2.3,0.4-4c0.7-1.7,0.8-3.3,0.1-3.7c-0.5-0.4-0.7-3.7-0.1-7.3
	c0.4-3.7,0.4-7.6-0.3-8.7c-0.7-1.1-0.5-2.3,0.1-2.7c0.8-0.5,0.8-2.4,0.1-4.8c-0.7-2.3-0.8-4-0.3-4c0.5,0,0.9-2,0.9-4.5
	c0-2.5-0.4-4.3-0.9-3.9c-0.7,0.3-0.5-0.9,0.3-2.8c0.7-1.9,0.8-3.7,0.1-4c-0.7-0.4-0.8-2.1-0.5-4c0.7-2.9,1.5-2.1,9.5,7.6
	c4.8,6,9.5,11.6,10.3,12.4c0.7,0.8,3.2,3.7,5.3,6.5c4,5.2,22.9,28.4,27.1,33.3c1.3,1.5,5.9,7.2,10.3,12.7c4.4,5.5,8.7,10.7,9.3,11.5
	c1.7,1.9,8.4,10,14.7,17.9c2.7,3.3,7.3,8.9,10.4,12.5c3.1,3.6,6.4,7.7,7.5,9.3c1.1,1.6,2.4,3.1,2.8,3.5c0.8,0.7,8.9,10.5,18.4,22.4
	c2.5,2.9,5.5,6.7,6.7,8.1c1.3,1.5,3.7,4.5,5.6,6.9c1.9,2.4,4,4.9,4.7,5.9c1.2,1.3,12,14.4,14.4,17.3c2.1,2.8,13.5,16.7,16.3,19.7
	c0.8,0.9,4.9,6.1,9.3,11.6c4.4,5.5,8.7,10.7,9.3,11.5c0.8,0.8,3.2,3.7,5.3,6.5c2.3,2.8,5.9,7.3,8.1,9.9c8.5,10,14.4,18,12.5,16.8
	c-1.7-1.1,4.4,7.5,8.7,12.1c2.9,3.2,12.1,14.4,14,17.1c1.1,1.6,2.5,3.3,3.3,4.1c0.8,0.7,4.5,4.9,8.1,9.3c3.6,4.4,6.8,8.3,7.2,8.7
	c0.4,0.4,4.5,5.5,9.2,11.3c4.8,5.9,9.6,11.7,10.7,12.9c5.1,5.6,6.5,7.5,11.6,13.7c2.8,3.6,5.9,7.3,6.5,8.1
	c3.9,4.1,13.9,16.3,18,21.7c7.3,9.6,23.2,30,24,30.8c0.4,0.4,3.6,4.5,7.3,9.3c3.6,4.8,7.3,9.6,8.3,10.7c4.8,6.1,18.8,24.1,21.1,27.2
	c2.5,3.5,4.7,6.1,9.7,12.1c1.3,1.5,3.7,4.8,5.6,7.3c1.7,2.5,3.9,5.3,4.7,6.1c0.7,0.8,2.8,3.5,4.7,5.9c7.9,10.5,16.3,20,21.6,24.4
	c6.3,5.1,18.4,12.3,18.4,10.8c0-0.5,0.8-0.3,1.7,0.5c3.1,2.5,14.3,4.9,27.6,5.9c0.4,0,3.3,0,6.7-0.1l6.1-0.1L716.7,700
	c0-74.5-0.5-136.4-1.1-137.2c-0.7-0.9-1.3-3.1-1.6-4.7c-2.7-14.3-13.9-37.6-19.6-40.9c-2-1.2-7.6-7.2-12.4-13.5
	c-4.8-6.3-10.5-13.3-12.8-15.7c-2.1-2.4-3.9-4.5-3.9-4.8c0-0.4-11.1-14.5-24.7-31.7c-29.3-36.8-27.2-34.1-31.3-39.2
	c-1.9-2.3-4.8-6-6.7-8.5c-1.9-2.4-6.3-8.1-10-12.7c-3.6-4.4-8.4-10.4-10.7-13.2c-2.1-2.8-10.3-13.1-18-22.8
	c-7.7-9.7-15.7-19.9-18-22.7c-8.5-10.8-16.9-21.5-20.5-26c-2.1-2.5-7.9-9.7-12.7-16c-12.7-16.1-14.9-18.9-17.7-22.3
	c-2.3-2.8-5.1-6.4-10.7-13.5c-1.3-1.7-4.5-5.7-7.1-8.9s-5.7-7.2-7.1-8.9c-2.8-3.6-3.3-4.3-28.3-35.6c-10.3-12.9-23.1-29.1-28.5-36
	s-10.7-13.6-11.6-14.7c-4.9-6-30.9-38.9-33.9-42.8c-1.9-2.5-4.3-5.5-5.3-6.7c-1.2-1.2-3.9-4.4-6-7.3c-2.3-2.9-10-12.8-17.3-22.1
	c-7.3-9.2-14.8-18.8-16.7-21.2c-1.9-2.4-4-5.1-4.7-5.9c-0.8-0.8-4-4.8-7.2-8.8c-7.3-9.2-12.4-14.9-15.1-16.7
	c-1.1-0.8-4.5-2.9-7.5-5.1c-3.1-2-8.1-4.5-11.2-5.7c-3.2-1.2-6.9-2.7-8.4-3.2c-6.3-2.8-24-3.2-142.9-3.2L0,1.7V420z M1556.1,2.4
	c-0.7,0.5-1.1,831.2-0.3,834.9c0,0.4,53.2,0.8,118.1,0.8h118l-0.3-418.1l-0.4-418.3h-117.1C1609.7,1.7,1556.7,2,1556.1,2.4
	L1556.1,2.4z M1022.7,5.2c0,0.7,0.7,1.2,1.3,1.2c0.8,0,1.3,0.7,1.3,1.3c0,0.8,1.3,2.8,3.1,4.5c1.6,1.7,3.9,4.4,4.9,6
	c1.1,1.7,3.6,4.9,5.6,7.2c4.1,4.9,28.3,34.9,32.7,40.5c1.6,2,4,5.1,5.3,6.7c2.5,3.1,3.5,4.3,11.7,14.4c2.9,3.7,6,7.5,6.9,8.4
	c0.9,0.9,1.7,2.1,1.7,2.7s2,3.1,4.4,5.7c5.1,5.7,5.9,6.8,16.3,19.9c4.4,5.5,8.3,10.3,8.7,10.7c0.4,0.4,5.2,6.4,10.7,13.3
	s10.3,12.9,10.7,13.3c0.4,0.4,4.5,5.5,9.1,11.3c4.7,5.9,10.1,12.8,12.3,15.3c2.1,2.5,9.6,11.9,16.5,20.7c7.1,8.8,14,17.3,15.5,18.8
	c1.5,1.6,2.7,3.3,2.7,3.7c0,0.5,1.3,2.4,3.1,4c1.6,1.7,4.3,4.9,5.9,6.9c1.6,2.1,4.1,5.3,5.6,7.2c1.5,1.9,3.2,3.9,3.9,4.7
	c0.5,0.7,9.7,12.1,20.3,25.3c10.7,13.1,20.1,24.8,21.1,26c1.5,1.7,1.7,1.7,2.9-0.3c0.8-1.2,2.1-3.1,3.1-4s4-4.7,6.9-8.4
	c2.9-3.6,6.3-7.9,7.6-9.3c1.2-1.5,4.4-5.3,6.9-8.7c2.7-3.3,5.9-7.2,7.2-8.8c1.2-1.5,3.5-4.4,4.9-6.4c1.5-2,4-5.1,5.6-6.9
	c1.6-1.7,4.5-5.5,6.7-8.1c2-2.8,4.4-5.7,5.1-6.5c1.9-2,5.7-6.9,26.8-33.2c9.9-12.5,19.2-24,20.5-25.5c1.3-1.6,5.6-6.9,9.5-12
	c8.4-10.8,10.7-13.6,12.5-15.7c0.8-0.8,3.5-4.1,6-7.5c2.5-3.2,5.6-6.9,6.7-8.1c1.1-1.2,3.5-4.1,5.3-6.7c1.9-2.4,5.2-6.5,7.3-9.2
	c2.3-2.8,5.6-6.9,7.6-9.5c1.9-2.5,4.7-5.9,6-7.5c3.9-4.5,6.1-7.3,11.1-13.7c2.5-3.3,4.9-6.3,5.3-6.7c0.4-0.4,2.3-2.8,4.1-5.3
	c2-2.5,4.9-6.1,6.5-8c1.6-1.9,4.5-5.5,6.5-8c1.9-2.5,4.1-5.3,4.8-6.1c0.8-0.8,2.8-3.3,4.7-5.7c1.9-2.4,4-5.1,4.7-5.9
	c0.8-0.9,3.7-4.7,6.7-8.3c2.9-3.7,6.4-7.9,7.7-9.3c1.3-1.5,5.2-6.4,8.5-11.1c3.3-4.5,6.7-8.3,7.3-8.3c0.5,0,1.1-0.5,1.1-1.2
	c0-0.8-94.8-1.2-242.7-1.2C1118.1,4,1022.7,4.4,1022.7,5.2L1022.7,5.2z"/>
</svg>
