<?xml version="1.0" encoding="UTF-8"?>
<svg xmlns="http://www.w3.org/2000/svg" version="1.1" viewBox="0 0 135.2 127.3">
  <!-- Generator: Adobe Illustrator 29.6.1, SVG Export Plug-In . SVG Version: 2.1.1 Build 9)  -->
  <defs>
    <style>
      .st0, .st1, .st2, .st3, .st4 {
        fill: none;
      }

      .st1 {
        stroke-width: 3.7px;
      }

      .st1, .st2, .st3, .st4 {
        stroke-linecap: round;
        stroke-linejoin: round;
      }

      .st1, .st2, .st3, .st4, .st5 {
        stroke: #038573;
      }

      .st2 {
        stroke-width: 4px;
      }

      .st3, .st4 {
        stroke-width: 4.1px;
      }

      .st4, .st6 {
        display: none;
      }

      .st5 {
        stroke-miterlimit: 10;
        stroke-width: 2.1px;
      }

      .st5, .st7 {
        fill: #038573;
      }
    </style>
  </defs>
  <g id="Layer_6">
    <rect class="st0" x="0" y=".2" width="134.9" height="126.9"/>
  </g>
  <g id="calendar" class="st6">
    <g>
      <path class="st7" d="M123.1,12.7h-18.5v-2.3c0-5.1-4.2-9.2-9.3-9.2-5,0-9.1,4.1-9.2,9.2v2.3h-36.9v-2.3c0-5.1-4.2-9.2-9.3-9.2-5,0-9.1,4.1-9.2,9.2v2.3H12.1c-5.1,0-9.2,4.1-9.3,9.3v94.9c0,5.1,4.1,9.2,9.3,9.3h111c5.1,0,9.2-4.1,9.3-9.3V21.9c0-5.1-4.1-9.2-9.3-9.3ZM127.7,116.8c0,2.6-2.1,4.6-4.6,4.6H12.1c-2.6,0-4.6-2.1-4.6-4.6V39.4h120.3v77.4ZM127.7,34.8H7.4v-12.9c0-2.6,2.1-4.6,4.6-4.6h27.8c1.3,0,2.3-1,2.3-2.3s-1-2.3-2.3-2.3h-4.5v-2.3c0-2.6,2.1-4.6,4.6-4.6s4.6,2.1,4.6,4.6v9.3c0,2.6-2.1,4.6-4.6,4.6-1.3,0-2.3,1-2.3,2.3,0,1.3,1,2.3,2.3,2.3,5.1,0,9.2-4.1,9.3-9.3v-2.3h46.1c1.3,0,2.3-1.1,2.3-2.4,0-1.2-1-2.2-2.3-2.3h-4.6v-2.3c0-2.6,2.1-4.6,4.6-4.6s4.6,2.1,4.6,4.6v9.3c0,2.6-2.1,4.6-4.6,4.6-1.3,0-2.3,1-2.3,2.3s1,2.3,2.3,2.3c5.1,0,9.2-4.1,9.3-9.3v-2.3h18.5c2.6,0,4.6,2.1,4.6,4.6v12.9Z"/>
      <path class="st7" d="M76.9,23.7h-18.5c-1.3,0-2.3,1.1-2.3,2.4,0,1.2,1,2.3,2.3,2.3h18.5c1.3,0,2.3-1.1,2.3-2.4,0-1.2-1-2.2-2.3-2.3Z"/>
      <path class="st7" d="M24.8,94.6c-1.3,0-2.3,1.1-2.3,2.3,0,1.3,1,2.3,2.3,2.3h19.7c1.3,0,2.3-1,2.3-2.3h0v-32.9c0-1.3-1-2.3-2.3-2.3h-19.7c-1.3,0-2.3,1-2.3,2.3s1,2.3,2.3,2.3h17.4v11.8h-17.4c-1.3,0-2.3,1-2.3,2.3s1,2.3,2.3,2.3h17.4v11.8h-17.4Z"/>
      <path class="st7" d="M57.7,99.2h19.8c1.3,0,2.3-1,2.3-2.3h0v-16.5c0-1.3-1-2.3-2.3-2.3h-17.4v-11.8h17.4c1.3,0,2.3-1,2.3-2.3s-1-2.3-2.3-2.3h-19.8c-1.3,0-2.3,1-2.3,2.3h0v32.9c0,1.3,1,2.3,2.3,2.3h0ZM60,82.8h15.1v11.8h-15.1v-11.8Z"/>
      <path class="st7" d="M90.6,94.6c-1.3,0-2.3,1.1-2.3,2.3,0,1.3,1,2.3,2.3,2.3h19.7c1.3,0,2.3-1,2.3-2.3h0v-16.5c0-1.3-1-2.3-2.3-2.3h-17.4v-11.8h17.4c1.3,0,2.3-1.1,2.3-2.4,0-1.2-1-2.2-2.3-2.3h-19.7c-1.3,0-2.3,1-2.3,2.3h0v16.5c0,1.3,1,2.3,2.3,2.3h17.4v11.8h-17.4Z"/>
    </g>
  </g>
  <g id="globe">
    <g>
      <path class="st2" d="M61.9,18.4c-.3,0-.6,0-.9,0-.5,0-.9,0-1.4,0s-.9,0-1.4,0c-28.8.7-52,24.3-52,53.3s23.2,52.6,52,53.3c.5,0,.9,0,1.4,0s.9,0,1.4,0c24.5-.6,44.9-17.8,50.5-40.8h0"/>
      <path class="st2" d="M61.8,18.5c-.3,0-.6-.1-.9-.2-.5,0-.9,0-1.4,0s-.9,0-1.4,0c-14.1,1.4-25.3,24.7-25.3,53.3s11.2,51.8,25.3,53.3c.5,0,.9,0,1.4,0s.9,0,1.4,0c12.4-1.3,22.7-19.7,24.8-43.6"/>
      <line class="st2" x1="59.6" y1="18.3" x2="59.6" y2="125"/>
      <line class="st2" x1="78.9" y1="71.6" x2="6.2" y2="71.6"/>
      <polyline class="st2" points="105.8 98.3 82.7 98.3 59.6 98.3 36.5 98.3 13.4 98.3"/>
      <polyline class="st2" points="13.4 45 36.5 45 59.6 45 61.9 45"/>
      <ellipse class="st2" cx="99.6" cy="31.6" rx="13.3" ry="13.3"/>
      <path class="st2" d="M123.5,48.6h0l-24,33.7-23.9-33.7h0c-3.4-4.7-5.4-10.6-5.4-17,0-16.2,13.1-29.3,29.3-29.3s29.3,13.1,29.3,29.3-2,12.2-5.4,17h0Z"/>
    </g>
  </g>
  <g id="money" class="st6">
    <g>
      <path class="st1" d="M132.7,76.9l-15.4-57.3c-.7-2.6-3.4-4.2-6.1-3.5L14.1,42.1h102.1c2.7,0,5,2.2,5,4.9v38.1l8-2.1c2.6-.7,4.2-3.4,3.5-6.1Z"/>
      <rect class="st1" x="2.3" y="42.1" width="118.9" height="69.2" rx="4.9" ry="4.9"/>
      <g>
        <ellipse class="st1" cx="61.7" cy="76.7" rx="22.3" ry="22.2"/>
        <path class="st1" d="M68.3,81.6c0-2.5-2.2-4.6-5.2-5.2l-2.6-.6c-2.6-.4-4.5-2.3-4.5-4.5s2.6-4.6,5.7-4.6,5.7,2,5.7,4.6,0,.1.1.1.1,0,.1-.1c0-2.6-2.6-4.7-5.9-4.8v-3.2c0,0,0-.1-.1-.1s-.1,0-.1.1v3.2c-3.2,0-5.9,2.2-5.9,4.8s2,4.2,4.7,4.7l2.6.6c2.9.5,5,2.6,5,4.9s-2.8,5-6.3,5-6.3-2.3-6.3-5,0-.1-.1-.1-.1,0-.1.1c0,2.9,2.9,5.2,6.4,5.3v3.2c0,0,0,.1.1.1s.1,0,.1-.1v-3.2c3.6,0,6.4-2.4,6.4-5.3Z"/>
      </g>
      <g>
        <path class="st1" d="M22.1,42.1H7.2c-2.7,0-5,2.2-5,4.9v14.8c10.9,0,19.8-8.9,19.8-19.8Z"/>
        <path class="st1" d="M121.2,61.9v-14.8c0-2.7-2.2-4.9-5-4.9h-14.9c0,10.9,8.9,19.8,19.8,19.8Z"/>
        <path class="st1" d="M2.3,91.5v14.8c0,2.7,2.2,4.9,5,4.9h14.9c0-10.9-8.9-19.8-19.8-19.8Z"/>
        <path class="st1" d="M121.2,106.4v-14.8c-10.9,0-19.8,8.9-19.8,19.8h14.9c2.7,0,5-2.2,5-4.9Z"/>
      </g>
    </g>
  </g>
  <g id="employee" class="st6">
    <g>
      <path class="st5" d="M89.6,31.3c0,0,.1,0,.2,0,.5,0,.9-.3.9-.8,0-.5-.3-1-.8-1.1-6.3-1.1-13.3-6.1-13.8-12.4,0-.4-.3-.8-.7-.8-.4,0-.8,0-1,.4h0c-2.2,3.8-4.6,7.9-7,9.1-4.1,2-11.8,1.7-16.9,1.4-.9,0-1.7,0-2.4,0-.5,0-1,.4-1,.9,0,.5.4,1,.9,1,.7,0,1.5,0,2.4,0,5.6.2,13.3.6,17.8-1.6,2.5-1.2,4.6-4.4,6.6-7.8,1.9,6,8.8,10.5,14.9,11.6Z"/>
      <path class="st5" d="M113.9,86.8c-9.5-3.5-19.3-5.9-28.9-8.6l-1.5-14.4c5.5-5.3,9.3-13.9,11.1-25.7,1.2-7.7,2.4-26.4-13.1-33.6-7.9-3.7-18.7-3.8-26.7-.2-16,7-14.8,26-13.6,33.8,1.4,8.7,4.4,19.1,10.8,25.7l-1.5,14.3c-.2,0-24.5,7-29,8.6-8.9,3.3-18.1,25.2-17.4,34.5,0,.5.5.9.9.9s0,0,0,0c.5,0,.9-.5.9-1-.7-9.2,8.7-29.9,16.1-32.6,3.5-1.3,14.6-4.9,22.7-7-4.3,4.4-5.2,11-5.4,12.8-8,.6-14.4,9.2-14.4,19.7v10.3c0,.5.4.9.9.9,0,0,0,0,0,0h6.9c.5,0,.9-.4.9-.9s-.4-.9-.9-.9h-6v-9.3c0-9.8,6-17.8,13.4-17.8s13.4,8,13.4,17.8v9.3h-6c-.5,0-.9.4-.9.9s.4.9.9.9h6.9c.5,0,.9-.4.9-.9,0,0,0,0,0-.1v-10.2c0-10.5-6.3-19-14.3-19.7.5-5.3,3.3-13,9.3-14.2,1,3.6,5.2,16.6,16.8,19.8.2,0,.3,0,.5,0,11.6-3.2,15.8-16,16.8-19.7,2.4.9,10.7,5.6,9.7,26-4.9.4-8.8,4.5-8.8,9.6s4.3,9.6,9.6,9.6,9.6-4.3,9.6-9.6-3.7-9-8.5-9.5c.7-14.2-3-21.3-6.4-24.8,8.2,2.2,19.6,5.9,23.2,7.2,7.4,2.7,16.8,23.4,16.1,32.6,0,.5.4,1,.9,1,0,0,0,0,0,0,.5,0,.9-.4.9-.9.7-9.3-8.5-31.2-17.4-34.5ZM103,115.7c0,4.2-3.5,7.7-7.7,7.7s-7.7-3.5-7.7-7.7,3.5-7.7,7.7-7.7,7.7,3.5,7.7,7.7ZM67.7,98c-11.2-3.3-15-17.3-15.4-19l1.4-13.6c1.7,1.4,3.6,2.5,5.7,3.4.5.2,1,0,1.2-.5.2-.5,0-1-.5-1.2-10.9-4.2-15.3-18.2-17-29.2-1.2-7.4-2.3-25.3,12.5-31.8,7.6-3.4,17.7-3.3,25.2.2,14.3,6.7,13.1,24.3,12,31.6-1.8,11.5-5.4,19.8-10.8,24.8-2.8,2-5.1,3.9-8.5,4.8-1.2.3-.6,2.1.5,1.8,2.9-.8,5.5-2.1,7.8-4l1.4,13.7c-.5,2.1-4.3,15.7-15.4,18.9Z"/>
    </g>
  </g>
  <g id="award" class="st6">
    <g>
      <path class="st3" d="M99.4,88.6l-7.7-.4c-1.9,0-3.7.9-4.6,2.6l-3.5,6.8c-1.3,2.6-4.6,3.4-7,1.9l-6.5-4.1c-.5-.3-1.1-.5-1.7-.6l16.6,28.7c.9,1.6,3.1,1.6,4.1.1l7.7-11.6c.4-.6,1.1-1,1.9-1.1l13.9-.8c1.8-.1,2.9-2.1,2-3.7l-11.3-19.6c-.9,1.1-2.3,1.8-3.9,1.7Z"/>
      <path class="st3" d="M58.5,99.6c-2.4,1.6-5.7.7-7-1.9l-3.5-6.8c-.9-1.7-2.7-2.7-4.6-2.6l-7.7.4c-1.6,0-3-.6-3.9-1.7l-11.3,19.6c-.9,1.6.2,3.5,2,3.7l13.9.8c.8,0,1.5.4,1.9,1.1l7.7,11.6c1,1.5,3.2,1.4,4.1-.1l16.6-28.7c-.6.1-1.2.3-1.7.6l-6.5,4.1Z"/>
      <path class="st3" d="M70.2,7.8l6.5-4.1c2.4-1.6,5.7-.7,7,1.9l3.5,6.8c.9,1.7,2.7,2.7,4.6,2.6l7.7-.4c2.9-.1,5.3,2.2,5.1,5.1l-.4,7.7c0,1.9.9,3.7,2.6,4.6l6.8,3.5c2.6,1.3,3.4,4.6,1.9,7l-4.1,6.5c-1,1.6-1,3.7,0,5.3l4.1,6.5c1.6,2.4.7,5.7-1.9,7l-6.8,3.5c-1.7.9-2.7,2.7-2.6,4.6l.4,7.7c.1,2.9-2.2,5.3-5.1,5.1l-7.7-.4c-1.9,0-3.7.9-4.6,2.6l-3.5,6.8c-1.3,2.6-4.6,3.4-7,1.9l-6.5-4.1c-1.6-1-3.7-1-5.3,0l-6.5,4.1c-2.4,1.6-5.7.7-7-1.9l-3.5-6.8c-.9-1.7-2.7-2.7-4.6-2.6l-7.7.4c-2.9.1-5.3-2.2-5.1-5.1l.4-7.7c0-1.9-.9-3.7-2.6-4.6l-6.8-3.5c-2.6-1.3-3.4-4.6-1.9-7l4.1-6.5c1-1.6,1-3.7,0-5.3l-4.1-6.5c-1.6-2.4-.7-5.7,1.9-7l6.8-3.5c1.7-.9,2.7-2.7,2.6-4.6l-.4-7.7c-.1-2.9,2.2-5.3,5.1-5.1l7.7.4c1.9,0,3.7-.9,4.6-2.6l3.5-6.8c1.3-2.6,4.6-3.4,7-1.9l6.5,4.1c1.6,1,3.7,1,5.3,0Z"/>
      <circle class="st3" cx="67.6" cy="51.6" r="29.2"/>
      <path class="st4" d="M66.3,62.9l-4.6,2.4c-2.1,1.1-4.5-.7-4.1-3l.9-5.2c.2-.9-.1-1.9-.8-2.5l-3.8-3.7c-1.7-1.6-.8-4.5,1.6-4.8l5.2-.8c.9-.1,1.7-.7,2.1-1.5l2.3-4.7c1-2.1,4-2.1,5.1,0l2.3,4.7c.4.8,1.2,1.4,2.1,1.5l5.2.8c2.3.3,3.3,3.2,1.6,4.8l-3.8,3.7c-.7.7-1,1.6-.8,2.5l.9,5.2c.4,2.3-2,4.1-4.1,3l-4.6-2.4c-.8-.4-1.8-.4-2.6,0Z"/>
    </g>
  </g>
</svg>