<?xml version="1.0" encoding="utf-8"?>
<!-- Generator: Adobe Illustrator 27.5.0, SVG Export Plug-In . SVG Version: 6.00 Build 0)  -->
<!DOCTYPE svg PUBLIC "-//W3C//DTD SVG 1.1//EN" "http://www.w3.org/Graphics/SVG/1.1/DTD/svg11.dtd" [
	<!ENTITY ns_extend "http://ns.adobe.com/Extensibility/1.0/">
	<!ENTITY ns_ai "http://ns.adobe.com/AdobeIllustrator/10.0/">
	<!ENTITY ns_graphs "http://ns.adobe.com/Graphs/1.0/">
	<!ENTITY ns_vars "http://ns.adobe.com/Variables/1.0/">
	<!ENTITY ns_imrep "http://ns.adobe.com/ImageReplacement/1.0/">
	<!ENTITY ns_sfw "http://ns.adobe.com/SaveForWeb/1.0/">
	<!ENTITY ns_custom "http://ns.adobe.com/GenericCustomNamespace/1.0/">
	<!ENTITY ns_adobe_xpath "http://ns.adobe.com/XPath/1.0/">
]>
<svg version="1.1" id="Icon" xmlns:x="&ns_extend;" xmlns:i="&ns_ai;" xmlns:graph="&ns_graphs;"
	 xmlns="http://www.w3.org/2000/svg" xmlns:xlink="http://www.w3.org/1999/xlink" x="0px" y="0px" viewBox="0 0 362 362"
	 style="enable-background:new 0 0 362 362;" xml:space="preserve">
<style type="text/css">
	.st0{fill:#FFFFFF;}
</style>
<metadata>
	<sfw  xmlns="&ns_sfw;">
		<slices></slices>
		<sliceSourceBounds  bottomLeftOrigin="true" height="362" width="362" x="24.2" y="-386"></sliceSourceBounds>
	</sfw>
</metadata>
<path class="st0" d="M181,0C81.2,0,0,81.2,0,181s81.2,181,181,181c99.8,0,181-81.2,181-181S280.8,0,181,0z M116.6,40
	c-8.6,11.9-15.9,25.6-21.9,40.7C86,78.8,77.4,76.5,69,74C82.5,59.8,98.6,48.3,116.6,40z M59.7,84.6c9.9,3.2,20.1,6,30.6,8.3
	c-8.8,26.5-13.7,56.4-13.7,88.1H25.9C25.9,144.6,38.6,111.1,59.7,84.6z M26.5,195.4h50.4c1.1,25.9,5.7,51.1,13.2,73.8
	c-10.5,2.4-20.8,5.6-30.8,8.8C40.9,254.7,29.1,224.1,26.5,195.4z M68.5,287.5c8.5-2.6,17.1-4.9,26-6.8c6,15.3,13.5,29.2,22.1,41.3
	C98.4,313.6,82.1,301.9,68.5,287.5z M167.7,335.5c-8.6-0.8-18.4-2.5-27.3-4.9c-13.6-13.7-25-31.6-33.5-52.5
	c19.8-3.6,40.6-5.7,60.7-6.4V335.5z M167.7,258.9c-23,0.7-43.9,3.7-65.1,7.7c-7.3-21.7-11.6-45.4-12.7-71.3h77.9V258.9z M167.7,181
	H89.5c0-30.9,4.6-60.1,13.2-85.5c21.2,4,42,6.3,64.9,6.9V181z M167.7,89.5c-20.1-0.6-40.7-2.7-60.4-6.3c8.4-20.6,19.6-38.3,33-51.9
	c8.9-2.4,18.7-4.1,27.4-4.9V89.5z M336.1,181h-60.9c0-30.9-4.6-60.2-13.1-86.2c13.8-2.7,27.2-6.1,40.1-10.3
	C323.4,111.1,336.1,144.6,336.1,181z M293,74c-11.4,3.4-23.2,6.3-35.2,8.6c-7.1-18.3-16.2-34.6-27-48.3C254.7,42.4,276,56.1,293,74z
	 M182.1,25.9c8.6,0,17.7,1,26.5,2.5c15.2,14.3,28,33.6,37.1,56.4c-20.9,3.3-43.6,5-63.7,5V25.9z M182.1,102.7
	c23,0,45.5-1.9,67.9-5.6c8.3,25.1,12.3,53.6,12.3,83.9h-80.2V102.7z M182.1,195.4H262c-1.1,23-4.8,48.3-11.8,69.6
	c-22.4-3.7-45.1-6.3-68.1-6.3V195.4z M182.1,336.1v-64.6c20.1,0,42.7,1.7,63.7,5.1c-9.2,23.1-21.5,42.7-36.9,57.1
	C200.1,335.2,190.7,336.1,182.1,336.1z M230.9,327.8c10.9-13.9,20.1-30.4,27.2-49c12.1,2.3,23.9,5.2,35.4,8.7
	C276.4,305.6,255,319.6,230.9,327.8z M302.7,277.6c-13-4.2-26.5-7.3-40.3-10c7.1-22.2,11.5-46.4,12.5-72.3h60.5
	C332.9,224.1,321.1,254.4,302.7,277.6z"/>
</svg>
