<?xml version="1.0" encoding="utf-8"?>
<!-- Generator: Adobe Illustrator 27.5.0, SVG Export Plug-In . SVG Version: 6.00 Build 0)  -->
<!DOCTYPE svg PUBLIC "-//W3C//DTD SVG 1.1//EN" "http://www.w3.org/Graphics/SVG/1.1/DTD/svg11.dtd" [
	<!ENTITY ns_extend "http://ns.adobe.com/Extensibility/1.0/">
	<!ENTITY ns_ai "http://ns.adobe.com/AdobeIllustrator/10.0/">
	<!ENTITY ns_graphs "http://ns.adobe.com/Graphs/1.0/">
	<!ENTITY ns_vars "http://ns.adobe.com/Variables/1.0/">
	<!ENTITY ns_imrep "http://ns.adobe.com/ImageReplacement/1.0/">
	<!ENTITY ns_sfw "http://ns.adobe.com/SaveForWeb/1.0/">
	<!ENTITY ns_custom "http://ns.adobe.com/GenericCustomNamespace/1.0/">
	<!ENTITY ns_adobe_xpath "http://ns.adobe.com/XPath/1.0/">
]>
<svg version="1.1" id="Layer_1" xmlns:x="&ns_extend;" xmlns:i="&ns_ai;" xmlns:graph="&ns_graphs;"
	 xmlns="http://www.w3.org/2000/svg" xmlns:xlink="http://www.w3.org/1999/xlink" x="0px" y="0px" viewBox="0 0 220.2 40.9"
	 style="enable-background:new 0 0 220.2 40.9;" xml:space="preserve">
<style type="text/css">
	.st0{fill:#E1251B;}
</style>
<metadata>
	<sfw  xmlns="&ns_sfw;">
		<slices></slices>
		<sliceSourceBounds  bottomLeftOrigin="true" height="40.9" width="220.2" x="2.9" y="27.4"></sliceSourceBounds>
	</sfw>
</metadata>
<g>
	<g>
		<path class="st0" d="M27.4,29.1l2-8.7l1.7,8.7H27.4z M11.8,21.3c0,2.5-1,4.2-4,5.1v-7.5c0.6-0.2,1.2-0.3,1.8-0.3
			C11.2,18.6,11.8,19.9,11.8,21.3z M72.9,27.4l2.4-10.7l2.2,10.7H72.9z M53,12.2c2.5,0,3.5,1.4,3.5,3.6c0,2.5-1.3,4.6-4.1,5.3v-9H53
			V12.2z M202.5,20.4c0-0.7,0.5-1.1,1.5-1.1c1.8,0,5,1.9,7,3.4v-7.6c-2.4-1.6-5.2-2.8-8.4-2.8c-5.1,0-8.3,3-8.3,8.2
			c0,8.8,9.8,8.8,9.8,11.8c0,0.9-0.5,1.4-1.9,1.4c-2.9,0-6.6-2-7.8-3.1v8c2.3,1.4,5.8,2.2,8.7,2.2c5.9,0,9.3-3.3,9.3-8.5
			C212.3,23.6,202.5,23.2,202.5,20.4z M20,20.2c0-6.2-3.8-8.7-8.9-8.7c-3.4,0-7.4,1.1-11.1,2.9v25.5h7.8v-6
			C14.3,32.6,20,27.7,20,20.2z M125.6,10.1c3.6,0,5.3,3.7,5.3,10.3c0,6.5-1.7,10.3-5.3,10.3c-3.6,0-5.3-3.7-5.3-10.3
			C120.3,13.9,122,10.1,125.6,10.1z M16,40h8.3l1.2-4.2h7.2l1,4.2h8.7L33.5,6.5C31,6.8,28.2,7.2,26,7.8L16,40z M175.7,6.2
			c-2.1-0.4-4.5-0.8-6.2-1V40h8V25.7L186,40h6.1V9.6c-2.5-0.7-5-1.2-7.6-1.7v15L175.7,6.2z M65.4,15.1c0-7.3-4.1-11.4-12.6-11.4
			c-2.7,0-6.4,0.4-9.2,1.3v35h8.8v-9.4C59.9,28.3,65.4,22.9,65.4,15.1z M151.4,18.2V3c-2.2-0.4-6.7-0.8-8.9-0.9V40h8.9V26.4h5.9V40
			h8.9V4.8c-2.8-0.5-6.2-0.9-8.9-1.2v14.6C157.3,18.2,151.4,18.2,151.4,18.2z M60.4,40h9.2l1.4-5.3h8.2l1.5,5.3h9.4L79.5,1.5
			c-2.2,0-5.9,0.3-7.9,0.5L60.4,40z M99.6,29.1c0,2.1-1.2,3.1-3,3.1c-0.9,0-2-0.3-3.1-0.7v8.7c1.8,0.6,3.1,0.7,5,0.7
			c5.2,0,10.2-2.6,10.2-11.1v-29c-2.5-0.2-6.6-0.2-9.2,0L99.6,29.1L99.6,29.1z M125.6,40.8c9.1,0,14.7-8,14.7-20.4
			c0-11.3-4.8-20.4-14.9-20.4C116.5,0,111,8.1,111,20.4C110.9,33.6,116.5,40.8,125.6,40.8z"/>
	</g>
	<g>
		<g>
			<path class="st0" d="M220.2,20.4c0,1-0.4,1.8-1.1,2.5c-0.7,0.7-1.6,1-2.6,1s-1.9-0.3-2.5-1c-0.7-0.7-1-1.5-1-2.5s0.4-1.8,1.1-2.5
				c0.7-0.7,1.5-1,2.5-1s1.9,0.3,2.6,1C219.9,18.6,220.2,19.5,220.2,20.4z M219.8,20.5c0-0.9-0.3-1.7-0.9-2.3
				c-0.6-0.6-1.4-0.9-2.3-0.9c-0.9,0-1.6,0.3-2.2,0.9s-0.9,1.4-0.9,2.2c0,0.9,0.3,1.6,0.9,2.2c0.6,0.6,1.4,0.9,2.3,0.9
				c0.9,0,1.6-0.3,2.3-0.9C219.5,22.1,219.8,21.3,219.8,20.5z M218.8,22.4h-1.3l-1.1-1.3h-0.3v1.3h-1v-4.1h1.5c0.5,0,1,0.1,1.3,0.3
				s0.4,0.6,0.4,1c0,0.3-0.1,0.5-0.2,0.7s-0.3,0.4-0.6,0.5L218.8,22.4z M216.6,19.1h-0.4v1.2h0.4c0.2,0,0.4-0.1,0.5-0.2
				c0.1-0.1,0.2-0.3,0.2-0.4c0-0.2-0.1-0.3-0.2-0.4C216.9,19.2,216.8,19.1,216.6,19.1z"/>
		</g>
	</g>
</g>
</svg>
