<?xml version="1.0" encoding="utf-8"?>
<!-- Generator: Adobe Illustrator 22.1.0, SVG Export Plug-In . SVG Version: 6.00 Build 0)  -->
<svg version="1.2" baseProfile="tiny" id="Layer_1" xmlns="http://www.w3.org/2000/svg" xmlns:xlink="http://www.w3.org/1999/xlink"
	 x="0px" y="0px" viewBox="0 0 485.6 87.6" xml:space="preserve">
<path fill="#EAEAEA" d="M0,43.7C0,31.2,0,18.6,0,6c0-3.7,2.4-6,6-6c25.2,0,50.4,0,75.6,0c3.6,0,6,2.4,6,5.9c0,25.2,0,50.4,0,75.6
	c0,3.7-2.4,6-6,6c-25.2,0-50.4,0-75.6,0c-3.6,0-6-2.4-6-6C0,68.9,0,56.3,0,43.7z M69.6,36.8c-0.1-0.1-0.2-0.2-0.3-0.4
	c-1.1-0.2-2.2-0.3-3.3-0.5c-4.5-0.6-8.9-1.3-13.4-1.9c-0.7-0.1-1.1-0.4-1.4-1c-2.3-4.8-4.6-9.5-7-14.2c-0.2-0.3-0.3-0.6-0.6-1.1
	c-0.2,0.4-0.4,0.7-0.5,1c-2.1,4.3-4.2,8.6-6.3,12.9c-1.2,2.4-1.2,2.4-3.9,2.7c-4.8,0.7-9.7,1.4-14.5,2.1c-0.1,0-0.3,0.1-0.6,0.3
	c0.4,0.3,0.7,0.4,0.9,0.6c3.8,3.7,7.7,7.5,11.5,11.3c0.3,0.2,0.5,0.7,0.5,1c-0.6,4.1-1.4,8.1-2,12.1c-0.3,1.7-0.6,3.4-0.9,5.3
	c0.4-0.2,0.7-0.3,1-0.5c4.8-2.5,9.5-5,14.3-7.5c0.5-0.3,0.9-0.3,1.4,0c3.3,1.8,6.5,3.5,9.8,5.2c1.8,0.9,3.5,1.8,5.3,2.8
	c0-0.3,0-0.5,0-0.6c-0.9-5.5-1.9-11-2.8-16.4c-0.1-0.6,0.1-0.9,0.4-1.3c3.8-3.7,7.7-7.5,11.5-11.2C69,37.1,69.3,36.9,69.6,36.8z"/>
<path fill="#EAEAEA" d="M99.5,43.8c0-12.5,0-25.1,0-37.6c0-3.9,2.3-6.2,6.1-6.2c25.1,0,50.2,0,75.3,0c3.8,0,6.1,2.3,6.1,6.1
	c0,25.1,0,50.2,0,75.3c0,3.9-2.3,6.2-6.1,6.2c-25.1,0-50.2,0-75.3,0c-3.8,0-6.1-2.3-6.1-6.2C99.5,68.8,99.5,56.3,99.5,43.8z
	 M117.5,36.4c0.4,0.4,0.6,0.6,0.8,0.8c3.8,3.8,7.7,7.5,11.5,11.3c0.2,0.2,0.5,0.7,0.4,1c-0.7,4.4-1.5,8.9-2.3,13.3
	c-0.2,1.3-0.4,2.6-0.6,4c0.5-0.2,0.8-0.4,1.1-0.5c4.7-2.5,9.4-5,14.1-7.5c0.6-0.3,1-0.3,1.5,0c4.7,2.5,9.4,5,14.2,7.5
	c0.3,0.1,0.6,0.3,0.9,0.5c0-0.3,0-0.4,0-0.5c-0.9-5.5-1.9-11.1-2.9-16.6c-0.1-0.6,0.1-0.9,0.4-1.2c3.9-3.8,7.7-7.5,11.5-11.3
	c0.2-0.2,0.4-0.4,0.8-0.8c-1.3-0.2-2.4-0.4-3.5-0.5c-4.5-0.7-8.9-1.3-13.4-1.9c-0.7-0.1-1-0.4-1.3-1c-2.3-4.8-4.7-9.6-7-14.3
	c-0.2-0.3-0.3-0.6-0.6-1c-0.2,0.5-0.4,0.8-0.5,1.1c-2.3,4.8-4.7,9.5-7,14.3c-0.3,0.6-0.7,0.9-1.3,1c-3.6,0.5-7.2,1-10.8,1.6
	C121.6,35.8,119.7,36.1,117.5,36.4z"/>
<path fill="#EAEAEA" d="M242.8,87.5c-12.5,0-25.1,0-37.6,0c-3.9,0-6.2-2.3-6.2-6.1c0-25.1,0-50.2,0-75.3c0-3.8,2.3-6.1,6.2-6.1
	c25.1,0,50.1,0,75.2,0c3.9,0,6.2,2.3,6.2,6.2c0,25,0,50,0,75c0,3.7-2.6,6.4-6.4,6.4C267.7,87.5,255.2,87.5,242.8,87.5z M242.8,17.7
	c-0.2,0.4-0.4,0.7-0.5,1c-2.1,4.3-4.2,8.6-6.3,12.9c-1.2,2.4-1.2,2.4-3.9,2.7c-4.8,0.7-9.7,1.4-14.5,2.1c-0.1,0-0.2,0.1-0.5,0.2
	c0.3,0.3,0.6,0.5,0.8,0.7c3.8,3.8,7.7,7.5,11.5,11.3c0.3,0.2,0.5,0.7,0.5,1c-0.6,4-1.4,8.1-2,12.1c-0.3,1.7-0.6,3.4-0.9,5.3
	c0.4-0.2,0.7-0.3,1-0.5c4.8-2.5,9.5-5,14.3-7.5c0.5-0.3,0.9-0.3,1.4,0c4.7,2.5,9.5,5,14.3,7.5c0.3,0.1,0.5,0.3,0.9,0.4
	c0-0.3,0-0.5,0-0.6c-0.9-5.5-1.8-10.9-2.8-16.4c-0.1-0.7,0.1-1,0.5-1.4c3.8-3.7,7.6-7.5,11.4-11.2c0.2-0.2,0.6-0.3,0.9-0.5
	c-0.1-0.1-0.2-0.2-0.3-0.4c-1.1-0.2-2.2-0.3-3.3-0.5c-4.5-0.6-8.9-1.3-13.4-1.9c-0.7-0.1-1.1-0.4-1.4-1c-2.3-4.8-4.7-9.6-7-14.3
	C243.2,18.3,243,18.1,242.8,17.7z"/>
<path fill="#EAEAEA" d="M342.3,87.5c-12.5,0-25.1,0-37.6,0c-3.9,0-6.2-2.3-6.2-6.1c0-25.1,0-50.2,0-75.3c0-3.8,2.3-6.1,6.2-6.1
	c25.1,0,50.1,0,75.2,0c3.9,0,6.2,2.3,6.2,6.1c0,25.1,0,50.1,0,75.2c0,3.6-2.6,6.3-6.3,6.3C367.3,87.5,354.8,87.5,342.3,87.5z
	 M358.1,66.9c0-0.3,0-0.4,0-0.6c-0.9-5.5-1.9-11-2.8-16.5c-0.1-0.6,0.1-0.9,0.5-1.3c3.8-3.8,7.7-7.5,11.5-11.3
	c0.2-0.2,0.4-0.5,0.8-0.8c-1.7-0.3-3.3-0.5-4.8-0.7c-4-0.6-8.1-1.2-12.1-1.7c-0.7-0.1-1.1-0.4-1.4-1c-2.3-4.8-4.6-9.5-7-14.2
	c-0.2-0.3-0.3-0.6-0.6-1c-0.2,0.4-0.4,0.7-0.5,1c-2.4,4.8-4.7,9.7-7.1,14.5c-0.2,0.3-0.6,0.7-1,0.8c-4.1,0.6-8.2,1.2-12.3,1.8
	c-1.6,0.2-3.1,0.5-4.7,0.7c-0.1,0.1-0.1,0.2-0.2,0.3c0.3,0.2,0.6,0.3,0.9,0.5c3.8,3.7,7.7,7.5,11.5,11.3c0.2,0.2,0.5,0.7,0.5,1
	c-0.7,4.4-1.5,8.9-2.3,13.3c-0.2,1.3-0.4,2.6-0.7,4c0.4-0.2,0.7-0.3,1-0.5c4.7-2.5,9.4-5,14.1-7.5c0.6-0.3,1.1-0.4,1.7,0
	c2,1.1,4.1,2.2,6.1,3.3C352.1,63.8,355.1,65.3,358.1,66.9z"/>
<path fill="#EAEAEA" d="M485.6,43.8c0,12.5,0,25.1,0,37.6c0,3.8-2.3,6.1-6.1,6.1c-25.1,0-50.2,0-75.4,0c-3.8,0-6.1-2.3-6.1-6.1
	c0-25.1,0-50.2,0-75.3c0-3.8,2.3-6.1,6.1-6.1c25.1,0,50.2,0,75.4,0c3.8,0,6.1,2.3,6.1,6.1C485.6,18.7,485.6,31.3,485.6,43.8z
	 M425.8,66.9c0.4-0.2,0.7-0.4,1-0.5c4.7-2.5,9.4-5,14.1-7.5c0.6-0.3,1.1-0.3,1.8,0c4.7,2.5,9.4,5,14.1,7.5c0.3,0.1,0.5,0.3,0.9,0.4
	c0-0.3,0-0.4,0-0.6c-0.9-5.5-1.9-11-2.8-16.5c-0.1-0.6,0.1-0.9,0.5-1.3c3.8-3.7,7.7-7.5,11.5-11.2c0.2-0.2,0.6-0.3,0.9-0.5
	c-0.1-0.1-0.2-0.3-0.3-0.4c-1.5-0.2-3.1-0.5-4.6-0.7c-4.1-0.6-8.2-1.2-12.3-1.8c-0.6-0.1-0.8-0.3-1.1-0.8c-2.3-4.8-4.7-9.6-7.1-14.4
	c-0.2-0.3-0.3-0.6-0.6-1.1c-0.2,0.4-0.4,0.7-0.5,1c-2.3,4.7-4.7,9.5-7,14.2c-0.3,0.6-0.7,1-1.4,1.1c-4,0.5-8.1,1.1-12.1,1.7
	c-1.5,0.2-3.1,0.5-4.6,0.7c-0.1,0.1-0.2,0.2-0.2,0.3c0.3,0.2,0.6,0.3,0.9,0.5c3.8,3.7,7.7,7.5,11.5,11.3c0.2,0.2,0.5,0.7,0.5,1
	c-0.5,3-1,5.9-1.5,8.9C426.8,61.2,426.3,64,425.8,66.9z"/>
</svg>
