<svg width="17" height="16" viewBox="0 0 17 16" fill="none" xmlns="http://www.w3.org/2000/svg">
<path d="M1.92151 8.96616C1.38791 8.96616 0.955344 8.5336 0.955344 8C0.955344 7.4664 1.38791 7.03384 1.92151 7.03384L1.92151 8.96616ZM15.7521 7.31682C16.1294 7.69413 16.1294 8.30587 15.7521 8.68318L9.6035 14.8318C9.22619 15.2091 8.61445 15.2091 8.23714 14.8318C7.85983 14.4545 7.85983 13.8428 8.23714 13.4655L13.7026 8L8.23714 2.53455C7.85983 2.15724 7.85983 1.54549 8.23714 1.16818C8.61445 0.790873 9.22619 0.790873 9.6035 1.16818L15.7521 7.31682ZM1.92151 7.03384L15.069 7.03383L15.069 8.96616L1.92151 8.96616L1.92151 7.03384Z" fill="#141212"/>
</svg>
