<?xml version="1.0" encoding="UTF-8"?>
<svg id="uuid-2d386c01-54d3-4548-9019-60fdef067b4c" xmlns="http://www.w3.org/2000/svg" version="1.1" viewBox="0 0 56 47.9">
  <!-- Generator: Adobe Illustrator 29.3.1, SVG Export Plug-In . SVG Version: 2.1.0 Build 151)  -->
  <defs>
    <style>
      .st0 {
        fill: #b3b5b7;
      }
    </style>
  </defs>
  <g id="uuid-19324e46-1d01-4680-98a6-d0d4ca25db02">
    <path class="st0" d="M8.6,33.2c.5,2.2,2.7,3.7,4.9,3.5-.2,2.5,1.7,4.7,4.3,4.9,0,0,.2,0,.2,0,.5,0,.9,0,1.3-.2.2,2.3,2.2,4,4.5,3.9.4,0,.8-.1,1.2-.3.4,2,2.3,3.2,4.3,2.8.7-.1,1.3-.5,1.8-1l3.7-3.7c.2-.2.4-.5.5-.7,2.1.8,4.4-.2,5.3-2.2.2-.4.3-.9.3-1.3,2.4.5,4.8-1,5.3-3.5.1-.5.1-1,0-1.5,1.3.1,2.6-.3,3.5-1.3.9-1,1.4-2.3,1.3-3.6.7-.5,1.3-1.1,1.7-1.8,6.9-9,1.3-22.7-8.9-26.3-5.7-2-11.8-.2-15.8,2.2C21.8-.5,11.9-1.5,4.7,6.9c-9,10-3.6,20.7,3.9,26.3h0ZM14.7,34c-1,1-2.6.9-3.6-.1-.4-.5-.7-1.1-.7-1.7,0-.6.2-1.3.7-1.7l5.1-5.1c1-1,2.6-.9,3.6.1.4.5.7,1.1.7,1.7,0,.6-.2,1.2-.7,1.7,0,0-5.1,5.1-5.1,5.1h0ZM16.3,38.9c-1-.9-1.1-2.4-.2-3.4,0,0,0,0,0,0l5-5c2.2-2.4,5.8.9,3.7,3.3,0,0-5.1,5.1-5.1,5.2-1,.9-2.5.9-3.4,0h0ZM22,42.6c-.8-.8-.9-2.2,0-3l4.3-4.3c.7-1,2.1-1.2,3.1-.5,1,.7,1.2,2.1.5,3.1,0,0-.1.2-.2.2l-4.5,4.5c-.9.9-2.3.9-3.1,0h0ZM29.8,45.4c-.6.6-1.7.6-2.3,0-.6-.6-.6-1.6,0-2.3l3.7-3.7c.6-.6,1.7-.6,2.3,0,.3.3.5.7.5,1.1,0,.4-.2.8-.5,1.2l-3.7,3.7h0ZM6.2,8.2C12.4,1.1,20.4,1.4,26.4,4.3c-1.8,1.5-5.2,4.9-8.3,8-1.5,1.6-1.5,4.1,0,5.7.5.5,1.1.8,1.7,1,3.9,1,7.8-1.1,9.5-2.6l5.7-3.7c3.1,2.9,8,1.9,10.4-.2.4-.4.5-1,0-1.4-.4-.4-1-.4-1.4-.1-.2.1-4.4,3.6-8.3-.2-.3-.3-.8-.4-1.2-.1l-6.4,4.2c-1.2,1.2-4.4,3.1-7.8,2.3-1.1-.3-1.7-1.4-1.4-2.5,0-.3.3-.6.5-.9,2.8-2.8,7.8-8,9.3-8.7,3.6-2.3,9.4-4.1,14.5-2.3,9.4,3.3,14.4,16.4,7.2,24.1.5.1-8.4-8.4-8.4-8.5-.4-.4-1-.4-1.4,0-.4.4-.4,1,0,1.4l7.8,7.8c1,1,1,2.6,0,3.5-.9.9-2.3,1-3.3.1l-7.8-7.8s-.1,0-.2-.1c-.4-.4-1-.4-1.4,0-.4.4-.4,1,0,1.4l7.8,7.8c0,0,.1,0,.2.2,1,1,.9,2.6,0,3.5-1,.9-2.5.9-3.5,0-.5-.7-7.2-7.3-7.8-7.8-.4-.4-1-.4-1.4,0-.4.4-.4,1,0,1.4l7.6,7.6c.6.9.4,2.2-.5,2.8-.6.4-1.5.5-2.1.1,0-2-1.8-3.5-3.8-3.5.2-2.3-1.5-4.3-3.8-4.5-.3,0-.6,0-.9,0,.1-2.5-1.8-4.6-4.3-4.8-.2,0-.5,0-.7,0,.2-2.5-1.6-4.7-4.1-4.9-1.3-.1-2.6.4-3.5,1.2l-5.1,5.1c-.5.5-.8,1-1,1.7C2,25.2-1.1,16.2,6.2,8.2Z"/>
  </g>
</svg>