<?xml version="1.0" encoding="UTF-8"?>
<svg id="uuid-48874b8e-0f08-45b3-be34-1e44f777dd2c" xmlns="http://www.w3.org/2000/svg" version="1.1" viewBox="0 0 60.8 55">
  <!-- Generator: Adobe Illustrator 29.3.1, SVG Export Plug-In . SVG Version: 2.1.0 Build 151)  -->
  <defs>
    <style>
      .st0 {
        fill: #b3b5b7;
      }
    </style>
  </defs>
  <g id="uuid-14974b27-35d7-40f4-8ce6-06ed7cf5131f">
    <g>
      <path class="st0" d="M23,49.7c-.3,0-.6-.1-.8-.3-.4-.4-.4-1.1,0-1.6l12.1-12.3c.6-.6.6-1.4,0-2-.6-.6-1.5-.6-2,0l-9.8,9.8c-.4.4-1.1.4-1.6,0s-.4-1.1,0-1.6l9.8-9.8c1.4-1.4,3.8-1.4,5.2,0,1.5,1.5,1.5,3.8,0,5.2l-12.1,12.3c-.2.2-.5.3-.8.3Z"/>
      <path class="st0" d="M21.6,43.5c-.3,0-.6-.1-.8-.3-.4-.4-.4-1.1,0-1.6l12.3-12.2c.6-.6.6-1.4,0-2-.5-.5-1.4-.5-2,0l-12.3,12.2c-.4.4-1.1.4-1.6,0-.4-.4-.4-1.1,0-1.6l12.3-12.2c1.4-1.4,3.7-1.4,5.1,0,1.4,1.4,1.4,3.7,0,5.2l-12.3,12.2c-.2.2-.5.3-.8.3Z"/>
      <path class="st0" d="M17.9,39.9c-.3,0-.6-.1-.8-.3-.4-.4-.4-1.1,0-1.6l13.9-13.8c.3-.3.4-.6.4-1,0-.4-.1-.7-.4-1-.6-.6-1.5-.6-2,0l-13.8,13.8c-.4.4-1.1.4-1.6,0s-.4-1.1,0-1.6l13.8-13.8c1.4-1.4,3.7-1.4,5.2,0,.7.7,1.1,1.7,1.1,2.6,0,1-.4,1.9-1.1,2.6l-13.9,13.8c-.2.2-.5.3-.8.3Z"/>
      <path class="st0" d="M12.3,55c-1.5,0-3-.2-4.5-.7-3.5-1.2-5.9-4.6-6-8.5v-17.5c0-2,1.6-3.6,3.6-3.6s3.7,1.6,3.7,3.6v3.4l11.8-12c1.4-1.4,3.8-1.4,5.2,0,1.5,1.5,1.5,3.8,0,5.2l-11,11c-.4.4-1.1.4-1.6,0s-.4-1.1,0-1.6l11-11c.6-.6.6-1.4,0-2s-1.5-.6-2,0l-13.5,13.6c-.4.4-1,.5-1.4.3-.5-.2-.8-.7-.8-1.2v-5.7c0-.8-.6-1.4-1.4-1.4s-1.5.6-1.5,1.4v17.5c0,2.9,1.9,5.5,4.5,6.3,4.4,1.4,9.1.3,12.4-2.9l1.4-1.3c.4-.4,1.1-.4,1.6,0s.4,1.1,0,1.6l-1.4,1.3c-2.7,2.7-6.4,4.2-10.1,4.2Z"/>
      <path class="st0" d="M30.4,55c-.3,0-.6-.1-.8-.3-.4-.4-.4-1.1,0-1.6l23.4-23.4c8.2-8.2,6.2-17.6,1-22.8-5.3-5.3-14.6-7.2-22.8,1-.4.4-1.1.4-1.6,0C23.9,2.1,16.7.7,10.4,4.1,4.4,7.4,1.2,14.2,2.6,20.7c.1.6-.3,1.2-.9,1.3-.6.1-1.2-.3-1.3-.9C-1.2,13.7,2.5,5.9,9.4,2.2c6.9-3.8,14.7-2.5,21,3.3,9.1-8.4,19.4-6.1,25.2-.2,6,6,8.3,16.7-1,26l-23.4,23.4c-.2.2-.5.3-.8.3Z"/>
    </g>
  </g>
</svg>