<?xml version="1.0" encoding="UTF-8"?>
<svg id="uuid-f9f01166-bc13-4dfc-9b16-ac4707de1da6" xmlns="http://www.w3.org/2000/svg" version="1.1" viewBox="0 0 62.6 69.6">
  <!-- Generator: Adobe Illustrator 29.3.1, SVG Export Plug-In . SVG Version: 2.1.0 Build 151)  -->
  <defs>
    <style>
      .st0 {
        fill: #b3b5b7;
      }
    </style>
  </defs>
  <g id="uuid-98c041be-ca67-4f70-9de0-48af211bb3c6">
    <g>
      <g>
        <path class="st0" d="M16.1,44H1.1c-.4,0-.8-.2-1-.6-.2-.3-.2-.8,0-1.1l7.5-13c.2-.3.6-.6,1-.6h0c.4,0,.8.2,1,.6l7.5,13c.2.3.2.8,0,1.1s-.6.6-1,.6ZM3.1,41.8h11.1l-5.6-9.6-5.6,9.6Z"/>
        <path class="st0" d="M8.6,50.8C3.9,50.8,0,47.3,0,42.9s.5-1.1,1.1-1.1h15c.6,0,1.1.5,1.1,1.1s0,.1,0,.2c0,4.3-3.9,7.8-8.6,7.8ZM2.4,44c.6,2.6,3.2,4.6,6.2,4.6s5.7-2,6.2-4.6H2.4Z"/>
      </g>
      <g>
        <path class="st0" d="M31.3,15.4c-3.6,0-6.6-2.9-6.6-6.5v-2.3C24.7,2.9,27.7,0,31.3,0s6.5,2.9,6.5,6.6v2.3c0,3.6-2.9,6.5-6.5,6.5ZM31.3,2.2c-2.4,0-4.3,1.9-4.3,4.3v2.3c0,2.4,1.9,4.3,4.3,4.3s4.3-1.9,4.3-4.3v-2.3c0-2.4-1.9-4.3-4.3-4.3Z"/>
        <path class="st0" d="M35.8,69.6h-2.2c-.9,0-1.6-.3-2.2-.9-.6.5-1.4.9-2.2.9h-2.2c-1.9,0-3.4-1.5-3.4-3.4V25.3h-13.8c-1.4,0-2.6-.8-3.1-2.2-.5-1.3-.2-2.8.9-3.7,1.2-1.1,2.7-1.7,4.3-1.7h39.2c1.6,0,3.1.6,4.3,1.7,1,1,1.4,2.4.9,3.7-.5,1.3-1.7,2.1-3.1,2.1h-13.8v40.9c0,1.9-1.5,3.4-3.4,3.4ZM32.4,43.7v22.5c0,.6.5,1.1,1.1,1.1h2.2c.6,0,1.1-.5,1.1-1.1V24.2c0-.6.5-1.1,1.1-1.1h14.9c.7,0,1-.5,1.1-.7,0-.2.2-.8-.3-1.3-.8-.7-1.8-1.1-2.8-1.1H11.7c-1.1,0-2.1.4-2.8,1.1-.5.5-.4,1.1-.3,1.2,0,.2.3.7,1.1.7h14.9c.6,0,1.1.5,1.1,1.1v42c0,.6.5,1.1,1.1,1.1h2.2c.6,0,1.1-.5,1.1-1.1v-22.5c0-.6.5-1.1,1.1-1.1s1.1.5,1.1,1.1Z"/>
      </g>
      <g>
        <path class="st0" d="M61.5,44h-15c-.4,0-.8-.2-1-.6-.2-.3-.2-.8,0-1.1l7.5-13c.2-.3.6-.6,1-.6h0c.4,0,.8.2,1,.6l7.5,13c.2.3.2.8,0,1.1-.2.3-.6.6-1,.6ZM48.4,41.8h11.1l-5.6-9.6-5.6,9.6Z"/>
        <path class="st0" d="M54,50.8c-4.7,0-8.5-3.5-8.6-7.8,0,0,0-.1,0-.2,0-.6.5-1.1,1.1-1.1h15c.6,0,1.1.5,1.1,1.1,0,4.4-3.9,7.9-8.6,7.9ZM47.7,44c.6,2.6,3.2,4.6,6.2,4.6s5.7-2,6.2-4.6h-12.5Z"/>
      </g>
    </g>
  </g>
</svg>