<?xml version="1.0" encoding="UTF-8"?>
<svg id="uuid-6bf77598-bad2-4f50-b13d-64c20a6fb746" xmlns="http://www.w3.org/2000/svg" version="1.1" viewBox="0 0 62.5 63.9">
  <!-- Generator: Adobe Illustrator 29.3.1, SVG Export Plug-In . SVG Version: 2.1.0 Build 151)  -->
  <defs>
    <style>
      .st0 {
        fill: #b3b5b7;
      }
    </style>
  </defs>
  <g id="uuid-7e14cafc-2b36-4c14-a464-58082684a732">
    <g>
      <g>
        <path class="st0" d="M46.1,63.9h-29.7c-.6,0-1.1-.5-1.1-1.1,0-7.9,6.4-14.3,14.3-14.3h3.3c7.9,0,14.3,6.4,14.3,14.3s-.5,1.1-1.1,1.1ZM46.1,62.8h0,0ZM17.6,61.7h27.4c-.6-6.1-5.7-11-12-11h-3.3c-6.3,0-11.5,4.8-12,11Z"/>
        <path class="st0" d="M31.6,44.6h-.8c-4.1,0-7.5-3.3-7.5-7.5v-3.6c0-4.1,3.3-7.4,7.5-7.4h.8c4.1,0,7.5,3.3,7.5,7.4v3.6c0,4.1-3.3,7.5-7.5,7.5ZM30.9,28.4c-2.9,0-5.2,2.3-5.2,5.2v3.6c0,2.9,2.3,5.2,5.2,5.2h.8c2.9,0,5.2-2.3,5.2-5.2v-3.6c0-2.9-2.3-5.2-5.2-5.2h-.8Z"/>
      </g>
      <g>
        <path class="st0" d="M13.5,59.7H1.1c-.6,0-1.1-.5-1.1-1.1,0-6.2,5-11.2,11.2-11.2h2.5c2,0,4,.5,5.8,1.6.5.3.7,1,.4,1.5-.3.5-1,.7-1.5.4-1.4-.8-3-1.3-4.6-1.3h-2.5c-4.6,0-8.4,3.4-8.9,7.9h11.2c.6,0,1.1.5,1.1,1.1s-.5,1.1-1.1,1.1Z"/>
        <path class="st0" d="M12.8,45h-.6c-3.3,0-6-2.7-6-6v-2.8c0-3.3,2.7-6,6-6h.6c3.3,0,6,2.7,6,6v2.8c0,3.3-2.7,6-6,6ZM12.2,32.5c-2.1,0-3.7,1.7-3.7,3.7v2.8c0,2.1,1.7,3.7,3.7,3.7h.6c2.1,0,3.7-1.7,3.7-3.7v-2.8c0-2.1-1.7-3.7-3.7-3.7h-.6Z"/>
      </g>
      <g>
        <path class="st0" d="M31.2,20.9c-5.8,0-10.4-4.7-10.4-10.4S25.5,0,31.2,0s10.4,4.7,10.4,10.4-4.7,10.4-10.4,10.4ZM31.2,2.2c-4.5,0-8.2,3.7-8.2,8.2s3.7,8.2,8.2,8.2,8.2-3.7,8.2-8.2-3.7-8.2-8.2-8.2Z"/>
        <path class="st0" d="M30,14.5c-.3,0-.5-.1-.8-.3l-2.4-2.2c-.5-.4-.5-1.1,0-1.6.4-.5,1.1-.5,1.6,0l1.5,1.4,4.1-5.1c.4-.5,1.1-.6,1.6-.2.5.4.5,1.1.2,1.6l-4.9,6c-.2.2-.5.4-.8.4,0,0,0,0,0,0Z"/>
      </g>
      <g>
        <path class="st0" d="M61.3,59.7h-12.3c-.6,0-1.1-.5-1.1-1.1s.5-1.1,1.1-1.1h11.2c-.6-4.4-4.3-7.9-8.9-7.9h-2.5c-1.6,0-3.2.4-4.6,1.3-.5.3-1.2.1-1.5-.4-.3-.5-.1-1.2.4-1.5,1.7-1,3.7-1.6,5.8-1.6h2.5c6.2,0,11.2,5,11.2,11.2s-.5,1.1-1.1,1.1Z"/>
        <path class="st0" d="M50.3,45h-.6c-3.3,0-6-2.7-6-6v-2.8c0-3.3,2.7-6,6-6h.6c3.3,0,6,2.7,6,6v2.8c0,3.3-2.7,6-6,6ZM49.7,32.5c-2.1,0-3.7,1.7-3.7,3.7v2.8c0,2.1,1.7,3.7,3.7,3.7h.6c2.1,0,3.7-1.7,3.7-3.7v-2.8c0-2.1-1.7-3.7-3.7-3.7h-.6Z"/>
      </g>
    </g>
  </g>
</svg>