<?xml version="1.0" encoding="UTF-8"?>
<svg id="uuid-d799dd65-6ca8-446e-87ba-0665ed845f23" xmlns="http://www.w3.org/2000/svg" version="1.1" viewBox="0 0 65.9 59.9">
  <!-- Generator: Adobe Illustrator 29.3.1, SVG Export Plug-In . SVG Version: 2.1.0 Build 151)  -->
  <defs>
    <style>
      .st0 {
        fill: #b3b5b7;
      }
    </style>
  </defs>
  <g id="uuid-3be464b2-dad0-44a0-8a02-1e1f11fb0cab">
    <g>
      <g>
        <path class="st0" d="M47,26.7c-.3,0-.6-.1-.8-.3l-10.9-10.9c-4.4-4.4-3.5-9.8-.4-12.9,2.9-2.9,7.9-3.8,12.1-.3,2.4-2,5.4-2.8,8.2-2,3,.8,5.5,3.3,6.3,6.3.8,3.1-.2,6.4-2.8,8.9l-10.9,10.9c-.2.2-.5.3-.8.3ZM41,2.3c-1.8,0-3.4.8-4.6,1.9-2.2,2.2-3.1,6.2.4,9.7l10.1,10.1,10.1-10.1s0,0,0,0c2-2,2.8-4.4,2.2-6.8-.6-2.2-2.4-4.1-4.7-4.7-2.3-.6-4.8.1-6.8,2.2-.4.4-1.1.4-1.6,0-1.7-1.7-3.5-2.4-5.2-2.4Z"/>
        <g>
          <path class="st0" d="M14,59.9H1.2c-.6,0-1.1-.5-1.1-1.1v-26.4c0-.6.5-1.1,1.1-1.1h12.8c.6,0,1.1.5,1.1,1.1v26.4c0,.6-.5,1.1-1.1,1.1ZM2.4,57.7h10.5v-24.1H2.4v24.1Z"/>
          <path class="st0" d="M22.5,57c0,0-.1,0-.2,0l-8.5-1.6c-.6-.1-1-.7-.9-1.3.1-.6.7-1,1.3-.9l8.3,1.5c1.3,0,11.5-.9,16.7-2.7l8-2.8c2.4-.8,4.4-2.5,5.7-4.8l10.2-18c-1.4-.4-3.8-.8-5.3.6l-10.1,13c-.4.5-1.1.6-1.6.2-.5-.4-.6-1.1-.2-1.6l10.1-13s0,0,0,0c3.2-3.3,8.8-.8,9-.7.3.1.5.4.6.7,0,.3,0,.6,0,.9l-10.8,19.1c-1.6,2.8-4,4.8-6.9,5.8l-8,2.8c-5.8,2-17,2.8-17.5,2.8,0,0,0,0,0,0Z"/>
          <path class="st0" d="M30.4,49.5c-.5,0-.9-.3-1.1-.8-.2-.6.1-1.2.7-1.4l17-5.5c0-.6-.3-1.6-2-2.3-1.2-.6-4.2-.1-7.8,1.2-1.5.5-2.9.9-4.4,1.2,0,0-.1,0-.2,0-1.4,0-2.7-.3-3.9-1-3.2-1.7-9.4-3.9-14,.6-.4.4-1.2.4-1.6,0-.4-.4-.4-1.2,0-1.6,5.8-5.7,13.5-2.6,16.6-1,.9.5,1.8.7,2.8.7,1.3-.2,2.6-.6,3.9-1.1,4.5-1.6,7.7-2,9.5-1.1,3.5,1.6,3.5,4.4,3.1,5.6-.1.3-.4.6-.7.7l-17.7,5.7c-.1,0-.2,0-.3,0Z"/>
          <path class="st0" d="M7.8,43.5c-2.2,0-3.9-1.8-3.9-4s1.8-4,3.9-4,4,1.8,4,4-1.8,4-4,4ZM7.8,37.9c-.9,0-1.7.8-1.7,1.7s.8,1.7,1.7,1.7,1.7-.8,1.7-1.7-.8-1.7-1.7-1.7Z"/>
        </g>
      </g>
      <path class="st0" d="M24.1,20.2H1.1c-.6,0-1.1-.5-1.1-1.1s.5-1.1,1.1-1.1h22.9c.6,0,1.1.5,1.1,1.1s-.5,1.1-1.1,1.1Z"/>
      <path class="st0" d="M19.1,26.3c-.3,0-.6-.1-.8-.3-.4-.4-.4-1.1,0-1.6l5.2-5.1-5.1-5.2c-.4-.4-.4-1.1,0-1.6.4-.4,1.1-.4,1.6,0l5.9,6c.2.2.3.5.3.8,0,.3-.1.6-.3.8l-6,5.9c-.2.2-.5.3-.8.3Z"/>
    </g>
  </g>
</svg>