<?xml version="1.0" encoding="UTF-8"?>
<svg xmlns="http://www.w3.org/2000/svg" width="236.53" height="71.32" viewBox="0 0 236.53 71.32">
  <g id="uuid-7defc182-7a53-4e1e-8a53-1876806b9608" data-name="Layer 1"/>
  <g id="uuid-41a523ac-59ba-48c2-bbef-3bd1aa18a0d2" data-name="Layer 2">
    <g id="uuid-bcd5974e-dab6-4a44-b02d-b7931f9987c4" data-name="Layer 1">
      <g>
        <g>
          <polygon points="1.42 .17 2.84 .17 2.84 4.32 7.58 4.32 7.58 .17 9 .17 9 10.08 7.58 10.08 7.58 5.57 2.84 5.57 2.84 10.08 1.42 10.08 1.42 .17" fill="#fff"/>
          <path d="M19.49,0c3,0,4.77,2.19,4.77,5.13s-1.75,5.12-4.77,5.12-4.77-2.12-4.77-5.12S16.48,0,19.49,0m0,9c2.28,0,3.26-1.9,3.26-3.88s-1.08-3.89-3.26-3.88c-2.19-.01-3.27,1.86-3.27,3.88s.98,3.88,3.27,3.88" fill="#fff"/>
          <path d="M38.24,5.98c0,2.78-1.41,4.27-3.85,4.27s-3.84-1.49-3.84-4.27V.17h1.42V5.79c0,1.9,.6,3.21,2.43,3.21s2.43-1.3,2.43-3.21V.17h1.42V5.98Z" fill="#fff"/>
          <path d="M49.55,1.66c-.72-.28-1.12-.41-1.86-.41-.8,0-1.74,.29-1.74,1.32,0,1.9,4.26,1.46,4.26,4.73,0,2.11-1.63,2.95-3.62,2.95-.69,0-1.38-.2-2.03-.41l.14-1.32c.49,.2,1.33,.48,2.06,.48,.81,0,1.95-.45,1.95-1.62,0-2.21-4.26-1.61-4.26-4.69,0-1.76,1.39-2.7,3.18-2.7,.66,0,1.44,.12,2.12,.36l-.2,1.3Z" fill="#fff"/>
          <polygon points="58.74 1.42 55.66 1.42 55.66 .17 63.24 .17 63.24 1.42 60.16 1.42 60.16 10.08 58.74 10.08 58.74 1.42" fill="#fff"/>
          <path d="M72.81,0c3.01,0,4.77,2.19,4.77,5.13s-1.75,5.12-4.77,5.12-4.77-2.12-4.77-5.12,1.76-5.13,4.77-5.13m0,9c2.29,0,3.26-1.9,3.26-3.88s-1.08-3.89-3.26-3.88c-2.19-.01-3.27,1.86-3.27,3.88s.98,3.88,3.27,3.88" fill="#fff"/>
          <polygon points="83.84 .17 85.78 .17 90.15 8.15 90.18 8.15 90.18 .17 91.59 .17 91.59 10.08 89.78 10.08 85.29 1.94 85.26 1.94 85.26 10.08 83.84 10.08 83.84 .17" fill="#fff"/>
        </g>
        <g>
          <path d="M67.63,62.14h1.3v7.89h3.77v1.14h-5.07v-9.03Z" fill="#fff"/>
          <path d="M77.59,62.14h5.06v1.14h-3.76v2.64h3.43v1.14h-3.43v2.97h3.76v1.14h-5.06v-9.03Z" fill="#fff"/>
          <path d="M91,62.14h1.36l3.81,9.03h-1.41l-.92-2.28h-4.42l-.92,2.28h-1.36l3.85-9.03Zm.63,1.21l-1.8,4.48h3.59l-1.8-4.48Z" fill="#fff"/>
          <path d="M100.83,62.14h2.66c2.68,0,4.81,1.65,4.81,4.44,0,3.03-1.84,4.59-4.81,4.59h-2.66v-9.03Zm1.29,7.89h1.36c2.22,0,3.45-1.07,3.45-3.4,0-2.11-1.43-3.35-3.3-3.35h-1.51v6.75Z" fill="#fff"/>
          <path d="M113.33,62.14h1.29v9.03h-1.29v-9.03Z" fill="#fff"/>
          <path d="M120.47,62.14h1.76l3.98,7.27h.02v-7.27h1.3v9.03h-1.66l-4.09-7.42h-.02v7.42h-1.29v-9.03Z" fill="#fff"/>
          <path d="M140.1,63.74c-.64-.41-1.32-.62-2.49-.62-2.08,0-3.47,1.51-3.47,3.53,0,2.12,1.53,3.53,3.4,3.53,.89,0,1.12-.09,1.45-.16v-2.74h-1.9v-1.06h3.2v4.69c-.49,.17-1.35,.4-2.76,.4-2.86,0-4.76-1.84-4.76-4.71s2.02-4.63,4.77-4.63c1.32,0,1.9,.19,2.65,.45l-.1,1.31Z" fill="#fff"/>
          <path d="M153.24,62.14h2.13l2.83,7.5,2.78-7.5h2.13v9.03h-1.29v-7.81h-.03l-2.99,7.81h-1.27l-2.99-7.81h-.03v7.81h-1.29v-9.03Z" fill="#fff"/>
          <path d="M168.92,62.14h5.06v1.14h-3.76v2.64h3.43v1.14h-3.43v2.97h3.76v1.14h-5.06v-9.03Z" fill="#fff"/>
          <path d="M179.4,62.14h2.66c2.68,0,4.81,1.65,4.81,4.44,0,3.03-1.84,4.59-4.81,4.59h-2.66v-9.03Zm1.29,7.89h1.36c2.22,0,3.45-1.07,3.45-3.4,0-2.11-1.44-3.35-3.3-3.35h-1.51v6.75Z" fill="#fff"/>
          <path d="M192.24,62.14h1.29v9.03h-1.29v-9.03Z" fill="#fff"/>
          <path d="M205,63.62c-.57-.34-1.2-.5-1.86-.5-2.08,0-3.47,1.5-3.47,3.53s1.53,3.53,3.4,3.53c.64,0,1.51-.17,1.96-.44l.08,1.25c-.69,.29-1.52,.32-2.06,.32-2.86,0-4.76-1.84-4.76-4.71s2.02-4.63,4.77-4.63c.7,0,1.38,.1,2.03,.39l-.1,1.25Z" fill="#fff"/>
          <path d="M210.57,62.14h1.3v9.03h-1.3v-9.03Z" fill="#fff"/>
          <path d="M217.57,62.14h1.76l3.98,7.27h.02v-7.27h1.29v9.03h-1.66l-4.08-7.42h-.03v7.42h-1.29v-9.03Z" fill="#fff"/>
          <path d="M230.41,62.14h5.05v1.14h-3.76v2.64h3.43v1.14h-3.43v2.97h3.76v1.14h-5.05v-9.03Z" fill="#fff"/>
        </g>
        <path d="M54.93,37.1c0-6.93,4.41-13.3,12.29-13.3s10.95,5.14,10.95,10.9v.62h-16.31v.62c0,6.93,2.23,11.96,7.99,11.96,3.91,0,5.75-1.4,7.82-5.03l1.06,.73c-2.01,4.08-5.92,7.15-11.01,7.15-8.77,0-12.79-6.15-12.79-13.63m16.37-3.3c0-4.14-.5-8.66-4.3-8.66-3.07,0-4.97,3.35-5.14,8.77l9.44-.11Z" fill="#fff"/>
        <path d="M85.28,42.91v-15.81h-5.08v-2.4h5.2v-8.38h6.2v8.38h7.43v2.4h-7.37v15.25c0,2.79,.84,4.98,3.8,4.98,2.79,0,3.08-2.24,3.29-4.53h1.34c-.34,4.24-2.74,7.93-7.65,7.93s-7.15-2.85-7.15-7.82" fill="#fff"/>
        <path d="M100.87,48.62c1-.06,1.68-.17,2.46-.45,1.06-.33,1.45-1.23,1.45-2.46V13.92c-.05-1.22-.61-2.62-1.51-3.24-.67-.45-2.74-.84-3.74-.89v-1.12l11.29-.62,.33,.39V28.12h.11c2.12-2.13,4.25-4.59,8.99-4.59,5.14,0,7.49,3.46,7.49,8.77v13.19c0,1.23,.39,2.07,1.4,2.51,.78,.34,1.45,.5,2.46,.62v1.12h-13.91v-1.12c.84-.06,1.67-.17,2.34-.45,.95-.33,1.23-1.23,1.23-2.46v-13.47c0-3.8-1.84-5.75-4.02-5.75-3.57,0-5.47,2.41-6.09,3.69v15.25c0,1.23,.39,2.01,1.29,2.52,.78,.39,1.57,.61,2.4,.67v1.12h-13.97v-1.12Z" fill="#fff"/>
        <path d="M179.62,48.62c1.01-.06,1.67-.17,2.46-.45,1-.33,1.45-1.34,1.45-2.46V29.46c-.05-1.23-.56-2.18-1.45-2.79-.67-.45-2.29-1-3.3-1.06v-1.06l10.78-.67,.39,.39v21.12c0,1.18,.51,2.12,1.51,2.57,.84,.39,1.68,.55,2.46,.67v1.12h-14.3v-1.12Zm2.52-35.43c0-2.29,1.84-4.08,4.08-4.08s4.13,1.73,4.13,3.97-1.79,4.13-4.13,4.13-4.08-1.79-4.08-4.02" fill="#fff"/>
        <path d="M198.42,48.44l-.78,1.68h-1.79l-.28-9h1.18c.84,3.02,4.19,8.27,8.71,8.27,3.46,0,4.8-1.89,4.8-4.58,0-2.9-2.46-4.08-6.48-5.31-3.63-1.12-7.49-3.24-7.49-8.21,0-4.19,3.41-7.54,9.05-7.54,3.02,0,5.25,.89,6.26,1.45l.56-1.51h1.68l.39,8.15h-1.12c-.89-3.46-3.63-6.76-7.43-6.76-2.85,0-4.08,1.84-4.08,3.91,0,3.02,2.07,3.74,6.31,5.14,4.53,1.51,7.54,3.75,7.54,8.33,0,5.25-4.36,8.27-9.94,8.27-3.13,0-6.09-1.34-7.09-2.29" fill="#fff"/>
        <path d="M221.72,42.91v-15.81h-5.08v-2.4h5.2v-8.38h6.2v8.38h7.43v2.4h-7.38v15.25c0,2.79,.83,4.98,3.8,4.98,2.8,0,3.07-2.24,3.3-4.53h1.34c-.34,4.24-2.74,7.93-7.66,7.93s-7.15-2.85-7.15-7.82" fill="#fff"/>
        <path d="M175.07,47.58c-.89-.61-1.33-1.49-1.44-2.65V9.15l-.38-.39-12.16,.61v1.05c1.49,.11,3.87,.61,4.81,1.27,.88,.55,1.38,1.99,1.43,3.15v10.6c-.82-.33-3.26-1.38-6.52-1.38-2.7,0-5.31,.95-7.43,2.62-.32,.25-.62,.52-.91,.79-.85,.82-1.6,1.76-2.2,2.82-1.11,1.91-1.77,4.19-1.77,6.74,0,2.88,.6,5.39,1.65,7.46-.19,.62-.42,1.2-.68,1.72-.97,1.97-2.42,3.2-4.48,3.2-4.58,0-6.13-5.8-6.13-12.37,0-5.3,1.05-11.71,6.18-11.71,.88,0,1.63,.22,2.29,.59,.37,.22,.7,.49,1.01,.81,.04-.06,.1-.14,.17-.23,.11-.12,.22-.24,.34-.36,.57-.57,1.36-1.22,1.36-1.22-.32-.12-.67-.21-1.01-.31-.15-.05-.87-.24-.98-.26,0,0-.54-.11-.81-.14-.78-.11-1.58-.14-2.37-.14-8.07,0-13.31,5.47-13.31,13.36,0,8.29,5.97,13.31,12.98,13.31,3.37,0,6.12-.92,8.25-2.47,.03-.02,.15-.11,.18-.13,1.5-1.14,2.67-2.59,3.5-4.27,.98-1.99,1.5-4.28,1.5-6.72s-.54-4.73-1.55-6.64c.18-.5,.37-.96,.58-1.39,1.14-2.35,2.81-3.68,4.8-3.68,3.32,0,4.8,2.54,5.36,4.36v15.74c-1.33,1.49-2.6,2.54-4.97,2.54-1.5,0-2.49-.24-3.43-1.04-.75,1.13-1.67,2.13-2.78,2.96,1.19,.44,2.45,.68,3.78,.68,3.42,0,6.02-2.15,7.23-3.43l.22,.06v2.43l.39,.39,10.54-.38v-1.11c-.99-.05-2.6-.61-3.26-1.05Z" fill="#fff"/>
        <path d="M51.31,47.88c-.74-.36-1.16-.82-1.36-1.41,0-.09-.03-.17-.03-.27V16.24h-2.43l-18.79,28.57V16.24h-2.43L7.48,44.81c-.45,.64-1.43,2.69-4.27,3.44-.79,.2-3.21,.43-3.21,.42v1.08H15.98v-1.08c-.9-.11-1.81-.2-2.7-.38-.81-.16-1.62-.37-2.38-.69-.6-.25-1.01-.55-1.12-1.23-.07-.45,.07-.87,.31-1.25,1.37-2.16,11.89-18.78,11.89-18.78v23.39h6.39l14.83-23.43v19.43c0,.89-.48,1.57-1.25,2.1-.07,.04-.13,.09-.21,.13-.69,.34-3.24,.59-4.12,.69v1.08h17.31v-1.08c-.88-.1-3.09-.49-3.63-.79Z" fill="#fff"/>
      </g>
    </g>
  </g>
</svg>