<?xml version="1.0" encoding="UTF-8"?>
<svg xmlns="http://www.w3.org/2000/svg" id="Layer_1" viewBox="0 0 515.44 128.76"><defs><style>.cls-1,.cls-2,.cls-3,.cls-4,.cls-5,.cls-6,.cls-7{stroke-width:0px;}.cls-2{fill:#4ddeff;}.cls-3{fill:#54cac7;}.cls-4{fill:#28c691;}.cls-5{fill:#21a7ad;}.cls-6{fill:#14d591;}.cls-7{fill:#9de778;}</style></defs><path class="cls-6" d="m63.86.5h48.92v75.85c0,1.4-1.13,2.53-2.53,2.53h-30.22c-14.11,0-25.56-11.45-25.56-25.56V9.9c0-5.19,4.21-9.4,9.4-9.4Z" transform="translate(167.23 79.39) rotate(-180)"/><path class="cls-7" d="m32.23,25.35h30.22c1.4,0,2.53,1.13,2.53,2.53v69.12H6.67v-46.09c0-14.11,11.45-25.56,25.56-25.56Z" transform="translate(-25.35 97) rotate(-90)"/><path class="cls-2" d="m56.97,56.34h30.22c1.4,0,2.53,1.13,2.53,2.53v69.89H31.41v-46.85c0-14.11,11.45-25.56,25.56-25.56Z" transform="translate(121.13 185.1) rotate(180)"/><rect class="cls-4" x="54.46" y="32.02" width="17.35" height="24.87"/><rect class="cls-3" x="31.41" y="56.34" width="40.4" height="33.99"/><rect class="cls-5" x="54.46" y="56.34" width="35.26" height="22.47"/><path class="cls-1" d="m135.02.66h18.07c11.72,0,20.38,5.78,20.38,18.07s-8.66,18.15-20.38,18.15h-9.32v19.88h-8.75V.66Zm17.74,28.55c7.59,0,11.8-3.38,11.8-10.48s-4.29-10.4-11.8-10.4h-8.99v20.87h8.99Z"/><path class="cls-1" d="m184.28.66h8.75v25h26.98V.66h8.75v56.11h-8.75v-23.35h-26.98v23.35h-8.75V.66Z"/><path class="cls-1" d="m242.51.66h8.66v56.11h-8.66V.66Z"/><path class="cls-1" d="m262.31,28.71c0-16.75,12.13-28.71,28.8-28.71,8.58,0,15.35,2.39,19.88,7.51l-5.86,5.86c-3.22-3.38-7.34-5.53-14.03-5.53-11.72,0-19.88,8.91-19.88,20.87s8.25,20.96,21.04,20.96c5.69,0,10.64-1.48,13.78-3.63v-10.48h-15.1v-7.59h23.1v22.36c-3.63,3.3-11.39,7.18-21.78,7.18-17.57,0-29.95-12.05-29.95-28.8Z"/><path class="cls-1" d="m135.02,71.91h18.07c11.72,0,20.38,5.78,20.38,18.07s-8.66,18.15-20.38,18.15h-9.32v19.88h-8.75v-56.11Zm17.74,28.55c7.59,0,11.8-3.38,11.8-10.48s-4.29-10.4-11.8-10.4h-8.99v20.87h8.99Z"/><path class="cls-1" d="m195.54,71.34h.99l24.59,56.68h-9.08l-4.13-10.23h-23.84l-4.13,10.23h-8.42l24.01-56.68Zm9.24,39.19l-6.11-15.26c-1.24-3.05-2.72-7.84-2.81-8.25-.08.25-1.4,5.03-2.72,8.25l-6.11,15.26h17.74Z"/><path class="cls-1" d="m229.11,71.91h18.81c11.55,0,20.38,5.45,20.38,17.82,0,8.33-4.54,13.7-11.39,16.09l13.2,22.19h-9.98l-12.13-20.79h-10.15v20.79h-8.75v-56.11Zm18.48,27.97c7.43,0,11.72-3.05,11.72-10.15s-4.37-10.15-11.72-10.15h-9.74v20.3h9.74Z"/><path class="cls-1" d="m290.08,79.59h-16.67v-7.67h42v7.67h-16.67v48.43h-8.66v-48.43Z"/><path class="cls-1" d="m336.45,95.26c-2.23-2.39-5.28-6.27-5.28-6.27,0,0,.58,4.62.58,8.09v30.94h-8.09v-56.68h1.16l30.94,33.25c2.15,2.31,5.2,6.27,5.2,6.27,0,0-.58-4.95-.58-8.09v-30.86h8.09v56.68h-1.07l-30.94-33.33Z"/><path class="cls-1" d="m382.48,71.91h35.64v7.67h-26.9v16.5h23.85v7.51h-23.85v16.75h28.05v7.67h-36.8v-56.11Z"/><path class="cls-1" d="m431.41,71.91h18.81c11.55,0,20.38,5.45,20.38,17.82,0,8.33-4.54,13.7-11.39,16.09l13.2,22.19h-9.98l-12.13-20.79h-10.15v20.79h-8.75v-56.11Zm18.48,27.97c7.43,0,11.72-3.05,11.72-10.15s-4.37-10.15-11.72-10.15h-9.74v20.3h9.74Z"/><path class="cls-1" d="m476.99,117.13l7.18-3.96c2.64,4.37,6.02,7.84,12.87,7.84,5.69,0,9.74-3.05,9.74-7.67,0-4.87-3.3-7.01-9.41-9.74l-3.71-1.65c-8.17-3.63-13.12-7.76-13.12-16.42s6.44-14.27,15.76-14.27c7.43,0,12.46,2.81,15.84,8.83l-6.85,4.21c-2.15-3.71-4.62-5.45-8.99-5.45s-7.26,2.72-7.26,6.52c0,4.21,2.39,6.11,8.09,8.58l3.63,1.65c9.57,4.21,14.69,8.66,14.69,17.66,0,9.82-7.67,15.51-18.23,15.51s-17.08-5.28-20.21-11.63Z"/></svg>