<?xml version="1.0" encoding="utf-8"?>
<!-- Generator: Adobe Illustrator 21.0.0, SVG Export Plug-In . SVG Version: 6.00 Build 0)  -->
<svg version="1.1" id="Layer_1" xmlns="http://www.w3.org/2000/svg" xmlns:xlink="http://www.w3.org/1999/xlink" x="0px" y="0px"
	 viewBox="0 0 72 72" style="enable-background:new 0 0 72 72;" xml:space="preserve">
<style type="text/css">
	.st0{fill:#749ABB;}
	.st1{fill:#1A3857;}
</style>
<path class="st0" d="M36,72c19.9,0,36-16.1,36-36C72,16.1,55.9,0,36,0C16.1,0,0,16.1,0,36C0,55.9,16.1,72,36,72"/>
<path class="st1" d="M27.3,29.9H31v-3.6c0-1.6,0-4.1,1.2-5.6c1.2-1.6,2.9-2.7,5.8-2.7c4.7,0,6.7,0.7,6.7,0.7l-0.9,5.5
	c0,0-1.6-0.4-3-0.4c-1.4,0-2.7,0.5-2.7,2v4.2h5.9l-0.4,5.4H38V54h-7V35.3h-3.7V29.9z"/>
</svg>
