<?xml version="1.0" encoding="utf-8"?>
<!-- Generator: Adobe Illustrator 21.0.0, SVG Export Plug-In . SVG Version: 6.00 Build 0)  -->
<svg version="1.1" id="Layer_1" xmlns="http://www.w3.org/2000/svg" xmlns:xlink="http://www.w3.org/1999/xlink" x="0px" y="0px"
	 viewBox="0 0 72 72" style="enable-background:new 0 0 72 72;" xml:space="preserve">
<style type="text/css">
	.st0{fill:#749ABB;}
	.st1{fill:#1A3857;}
</style>
<path class="st0" d="M36,72c19.9,0,36-16.1,36-36C72,16.1,55.9,0,36,0C16.1,0,0,16.1,0,36C0,55.9,16.1,72,36,72"/>
<path class="st1" d="M47,18H25c-3.8,0-7,3.1-7,7v7.3V47c0,3.8,3.1,7,7,7H47c3.8,0,7-3.1,7-7V32.3V25C54,21.1,50.9,18,47,18z
	 M49,22.1l0.8,0v0.8v5.3l-6.1,0l0-6.1L49,22.1z M30.9,32.3c1.2-1.6,3-2.6,5.1-2.6s4,1,5.1,2.6c0.8,1,1.2,2.3,1.2,3.7
	c0,3.5-2.8,6.3-6.3,6.3s-6.3-2.8-6.3-6.3C29.7,34.6,30.1,33.3,30.9,32.3z M50.5,47c0,1.9-1.5,3.4-3.4,3.4H25c-1.9,0-3.4-1.5-3.4-3.4
	V32.3h5.4c-0.5,1.1-0.7,2.4-0.7,3.7c0,5.4,4.4,9.8,9.8,9.8c5.4,0,9.8-4.4,9.8-9.8c0-1.3-0.3-2.6-0.7-3.7h5.4V47z"/>
</svg>
