<?xml version="1.0" encoding="utf-8"?>
<!-- Generator: Adobe Illustrator 21.0.0, SVG Export Plug-In . SVG Version: 6.00 Build 0)  -->
<svg version="1.1" id="Layer_1" xmlns="http://www.w3.org/2000/svg" xmlns:xlink="http://www.w3.org/1999/xlink" x="0px" y="0px"
	 viewBox="0 0 72 72" style="enable-background:new 0 0 72 72;" xml:space="preserve">
<style type="text/css">
	.st0{fill:#FFFFFF;}
	.st1{fill:#1A3857;}
</style>
<g>
	<path class="st0" d="M36,72c19.9,0,36-16.1,36-36C72,16.1,55.9,0,36,0C16.1,0,0,16.1,0,36C0,55.9,16.1,72,36,72"/>
	<path class="st1" d="M25.9,51.1h-7V28.6h7V51.1z M22.2,25.8L22.2,25.8c-2.6,0-4.2-1.7-4.2-3.9c0-2.2,1.7-3.9,4.3-3.9
		c2.6,0,4.2,1.7,4.2,3.9C26.5,24.1,24.9,25.8,22.2,25.8z M54,51.1h-8V39.4c0-3-1.2-5.1-4-5.1c-2.1,0-3.3,1.4-3.8,2.8
		c-0.2,0.5-0.2,1.2-0.2,1.8v12.2h-7.9c0,0,0.1-20.6,0-22.5h7.9v3.5c0.5-1.5,3-3.7,7-3.7c5,0,8.9,3.2,8.9,10.2V51.1z"/>
</g>
</svg>
