<?xml version="1.0" encoding="utf-8"?>
<!-- Generator: Adobe Illustrator 21.0.0, SVG Export Plug-In . SVG Version: 6.00 Build 0)  -->
<svg version="1.1" id="Layer_1" xmlns="http://www.w3.org/2000/svg" xmlns:xlink="http://www.w3.org/1999/xlink" x="0px" y="0px"
	 viewBox="0 0 72 72" style="enable-background:new 0 0 72 72;" xml:space="preserve">
<style type="text/css">
	.st0{fill:#FFFFFF;}
	.st1{fill:#1A3857;}
</style>
<g>
	<path class="st0" d="M36,72c19.9,0,36-16.1,36-36C72,16.1,55.9,0,36,0C16.1,0,0,16.1,0,36C0,55.9,16.1,72,36,72"/>
	<path class="st1" d="M36,17.9c-9.9,0-18,8.1-18,18c0,7.4,4.4,13.7,10.8,16.5c-0.1-1.3,0-2.8,0.3-4.1c0.3-1.5,2.3-9.8,2.3-9.8
		s-0.6-1.1-0.6-2.8c0-2.7,1.5-4.7,3.5-4.7c1.6,0,2.4,1.2,2.4,2.7c0,1.6-1.1,4.1-1.6,6.4c-0.5,1.9,1,3.5,2.8,3.5
		c3.4,0,5.7-4.4,5.7-9.6c0-3.9-2.7-6.9-7.5-6.9c-5.5,0-8.9,4.1-8.9,8.6c0,1.6,0.5,2.7,1.2,3.5c0.3,0.4,0.4,0.6,0.3,1
		c-0.1,0.3-0.3,1.1-0.4,1.4c-0.1,0.5-0.5,0.6-0.9,0.5c-2.5-1-3.7-3.8-3.7-6.9c0-5.1,4.3-11.2,12.9-11.2c6.9,0,11.4,5,11.4,10.3
		c0,7.1-3.9,12.3-9.7,12.3c-1.9,0-3.8-1.1-4.4-2.2c0,0-1,4.1-1.3,4.9c-0.4,1.4-1.1,2.8-1.8,3.9c1.6,0.5,3.3,0.7,5.1,0.7
		c9.9,0,18-8.1,18-18C54,26,45.9,17.9,36,17.9"/>
</g>
</svg>
