<?xml version="1.0" encoding="utf-8"?>
<!-- Generator: Adobe Illustrator 21.0.0, SVG Export Plug-In . SVG Version: 6.00 Build 0)  -->
<svg version="1.1" id="Layer_1" xmlns="http://www.w3.org/2000/svg" xmlns:xlink="http://www.w3.org/1999/xlink" x="0px" y="0px"
	 viewBox="0 0 72 72" style="enable-background:new 0 0 72 72;" xml:space="preserve">
<style type="text/css">
	.st0{fill:#749ABB;}
	.st1{fill:#1A3857;}
</style>
<path class="st0" d="M36,72c19.9,0,36-16.1,36-36C72,16.1,55.9,0,36,0C16.1,0,0,16.1,0,36C0,55.9,16.1,72,36,72"/>
<path class="st1" d="M43,36l-11.8,6.9V29.1L43,36z M54,42.4V29.6c0,0,0-6.2-6.2-6.2H24.2c0,0-6.2,0-6.2,6.2v12.9c0,0,0,6.2,6.2,6.2
	h23.6C47.8,48.6,54,48.6,54,42.4"/>
</svg>
