<?xml version="1.0" encoding="utf-8"?>
<!-- Generator: Adobe Illustrator 22.1.0, SVG Export Plug-In . SVG Version: 6.00 Build 0)  -->
<svg version="1.1" id="Layer_1" xmlns="http://www.w3.org/2000/svg" xmlns:xlink="http://www.w3.org/1999/xlink" x="0px" y="0px"
	 viewBox="0 0 52.2 56.8" style="enable-background:new 0 0 52.2 56.8;" xml:space="preserve">
<style type="text/css">
	.st0{opacity:0.15;fill:#3C3C43;}
</style>
<ellipse transform="matrix(0.9366 -0.3504 0.3504 0.9366 -0.3233 5.2326)" class="st0" cx="14.3" cy="3.5" rx="7" ry="2"/>
<path class="st0" d="M33.3,1.5c-2.2-0.8-4.5-1.3-6.9-1.5l0,0c0.5,0.1,0.9,0.5,1.1,1c0.7,2-4.2,5.6-11.1,8.2
	c-1.4,0.5-2.8,0.9-4.1,1.3l-1.7,6.1c2.6-0.6,5.1-1.5,7.6-2.4C28,10.6,33.5,6.4,34.5,3.3c0.1-0.3,0.1-0.6,0-0.9
	C34.2,2,33.8,1.7,33.3,1.5z"/>
<path class="st0" d="M49.2,15.8L49.2,15.8c0.3,4.1-10.1,11.3-24.1,16.6c-1.3,0.5-2.7,1-4,1.4L19,41.5c2.7-0.7,5.5-1.6,8.5-2.8
	c11.4-4.2,19.2-9.3,23.2-14c0.7-0.8,1-1.8,0.8-2.9c-0.3-1.2-0.6-2.4-1.1-3.5C50.1,17.5,49.7,16.6,49.2,15.8L49.2,15.8z"/>
<path class="st0" d="M44.7,9.2c-1.4-1.5-3-2.9-4.7-4.1l0,0v0.1c0.1,0.1,0.2,0.3,0.2,0.4c1.2,3.3-7.6,9.7-19.8,14.3
	c-6.9,2.6-13.4,4-18,4.2L0,30.8c5.2,0.4,13-1.1,22.9-4.8C33,22.2,40,18,43.6,14.1c0.6-0.7,1.1-1.5,1.5-2.4
	C45.4,11,45.3,9.9,44.7,9.2z"/>
<path class="st0" d="M52.2,29.9L52.2,29.9c-2,4.2-10.9,10-22.6,14.4c-5,1.9-10.2,3.3-15.5,4.2l-1.9,5.3c6.6-0.6,13.1-2.1,19.2-4.5
	c5.3-2,14.8-6.4,18.3-11.3C51.2,35.6,52.1,32.8,52.2,29.9L52.2,29.9z"/>
<path class="st0" d="M47.3,44.4c-4.5,3.5-9.6,6.3-15,8.3c-1.4,0.5-2.7,1-4.1,1.4l-0.8,2.8C35.6,55.7,42.9,51.2,47.3,44.4L47.3,44.4z
	"/>
</svg>
