<?xml version="1.0" encoding="utf-8"?>
<!-- Generator: Adobe Illustrator 22.1.0, SVG Export Plug-In . SVG Version: 6.00 Build 0)  -->
<svg aria-hidden="true" role="img" xmlns="http://www.w3.org/2000/svg" viewBox="0 0 15 12">
<path fill-rule="evenodd" d="M15 1.425a6.238 6.238 0 0 1-1.77.469A3.029 3.029 0 0 0 14.58.225c-.59.347-1.256.6-1.95.731A3.089 3.089 0 0 0 10.383 0C8.68 0 7.31 1.36 7.31 3.028c0 .235.028.469.076.694A8.783 8.783 0 0 1 1.047.553c-.267.45-.419.966-.419 1.528 0 1.05.543 1.978 1.37 2.522A3.132 3.132 0 0 1 .61 4.22v.037c0 1.472 1.057 2.69 2.465 2.972a3.297 3.297 0 0 1-.809.103c-.2 0-.39-.019-.58-.047.39 1.2 1.522 2.072 2.874 2.1a6.217 6.217 0 0 1-3.817 1.294c-.257 0-.495-.01-.742-.037A8.784 8.784 0 0 0 4.72 12c5.654 0 8.748-4.612 8.748-8.616 0-.13 0-.262-.01-.393A6.556 6.556 0 0 0 15 1.425z"></path>
</svg>