<?xml version="1.0" standalone="no"?>
<!DOCTYPE svg PUBLIC "-//W3C//DTD SVG 20010904//EN"
 "http://www.w3.org/TR/2001/REC-SVG-20010904/DTD/svg10.dtd">
<svg version="1.0" xmlns="http://www.w3.org/2000/svg"
 width="700.000000pt" height="700.000000pt" viewBox="0 0 700.000000 700.000000"
 preserveAspectRatio="xMidYMid meet">
<metadata>
Created by potrace 1.14, written by Peter Selinger 2001-2017
</metadata>
<g transform="translate(0.000000,700.000000) scale(0.100000,-0.100000)"
fill="#000000" stroke="none">
<path d="M3296 4982 c-50 -76 -176 -267 -281 -427 -106 -159 -234 -355 -287
-435 -52 -80 -178 -271 -280 -425 -101 -154 -236 -359 -300 -455 -150 -228
-395 -600 -540 -820 -147 -222 -211 -287 -346 -351 -81 -38 -128 -49 -272 -65
-36 -4 -74 -8 -85 -9 -11 -1 -28 -3 -37 -4 -15 -1 -18 -11 -18 -53 l0 -53 770
0 770 0 1 25 c0 14 2 37 3 52 2 29 10 26 -139 44 -211 25 -409 95 -441 155
-27 53 -28 92 -3 141 19 37 185 301 1018 1618 l136 215 5 -1125 5 -1124 303
-1 c258 0 305 2 316 15 8 8 150 231 316 495 166 264 322 509 345 545 23 36 84
133 136 215 52 83 107 171 124 197 48 75 109 173 305 483 100 160 186 294 191
299 12 13 10 -1884 -2 -1927 -13 -48 -83 -124 -136 -148 -46 -21 -147 -41
-263 -54 -79 -8 -121 -15 -130 -20 -5 -3 -6 -73 -1 -95 1 -4 1611 -5 1658 -1
16 1 15 101 -1 102 -31 2 -247 45 -296 59 -52 15 -126 70 -149 111 -21 37 -21
40 -21 1497 l0 1460 -118 1 -117 1 -55 -83 c-29 -45 -125 -190 -213 -322 -87
-132 -166 -253 -175 -268 -9 -15 -84 -130 -167 -255 -82 -125 -202 -306 -265
-402 -138 -211 -369 -562 -575 -875 -83 -126 -197 -301 -254 -387 -57 -87
-104 -158 -106 -158 -1 0 -2 611 -3 1358 0 746 -1 1365 -1 1374 -1 15 -15 17
-118 16 l-118 0 -89 -136z"/>
</g>
</svg>
