<svg xmlns="http://www.w3.org/2000/svg" xmlns:xlink="http://www.w3.org/1999/xlink" width="78" height="78" viewBox="0 0 78 78">
  <defs>
    <clipPath id="clip-path">
      <rect id="Rectangle_49" data-name="Rectangle 49" width="72" height="72" transform="translate(0.104)" fill="#fff"/>
    </clipPath>
  </defs>
  <g id="Group_34" data-name="Group 34" transform="translate(-0.104)">
    <circle id="Ellipse_6" data-name="Ellipse 6" cx="39" cy="39" r="39" transform="translate(0.104)" fill="#e6c260"/>
    <g id="Group_27" data-name="Group 27" transform="translate(4 3)">
      <g id="Group_26" data-name="Group 26" clip-path="url(#clip-path)">
        <path id="Path_9" data-name="Path 9" d="M16.545,14.3a2.25,2.25,0,1,1-2.25-2.25,2.25,2.25,0,0,1,2.25,2.25" transform="translate(11.428 11.955)" fill="#fff"/>
        <path id="Path_10" data-name="Path 10" d="M26.332,14.3a2.25,2.25,0,1,1-2.25-2.25,2.25,2.25,0,0,1,2.25,2.25" transform="translate(21.141 11.955)" fill="#fff"/>
        <path id="Path_11" data-name="Path 11" d="M33.012,63.012a30,30,0,1,1,30-30,30.036,30.036,0,0,1-30,30m0-57a27,27,0,1,0,27,27,27.031,27.031,0,0,0-27-27" transform="translate(2.461 2.988)" fill="#fff"/>
        <rect id="Rectangle_48" data-name="Rectangle 48" width="24.001" height="3.001" transform="translate(23.472 41.999)" fill="#fff"/>
      </g>
    </g>
  </g>
</svg>
