<svg xmlns="http://www.w3.org/2000/svg" xmlns:xlink="http://www.w3.org/1999/xlink" width="78" height="78" viewBox="0 0 78 78">
  <defs>
    <clipPath id="clip-path">
      <rect id="Rectangle_47" data-name="Rectangle 47" width="72" height="72" transform="translate(0.32)" fill="#fff"/>
    </clipPath>
  </defs>
  <g id="Group_35" data-name="Group 35" transform="translate(-0.32)">
    <circle id="Ellipse_5" data-name="Ellipse 5" cx="39" cy="39" r="39" transform="translate(0.32)" fill="#76ba51"/>
    <g id="Group_25" data-name="Group 25" transform="translate(3 3)">
      <g id="Group_24" data-name="Group 24" transform="translate(0)" clip-path="url(#clip-path)">
        <path id="Path_5" data-name="Path 5" d="M33.012,63.012a30,30,0,1,1,30-30,30.036,30.036,0,0,1-30,30m0-57a27,27,0,1,0,27,27,27.031,27.031,0,0,0-27-27" transform="translate(2.697 2.988)" fill="#fff"/>
        <path id="Path_6" data-name="Path 6" d="M16.545,14.3a2.25,2.25,0,1,1-2.25-2.25,2.25,2.25,0,0,1,2.25,2.25" transform="translate(11.664 11.955)" fill="#fff"/>
        <path id="Path_7" data-name="Path 7" d="M26.332,14.3a2.25,2.25,0,1,1-2.25-2.25,2.25,2.25,0,0,1,2.25,2.25" transform="translate(21.377 11.955)" fill="#fff"/>
        <path id="Path_8" data-name="Path 8" d="M25.641,31.951a16.519,16.519,0,0,1-15.2-10.076L13.2,20.7a13.543,13.543,0,0,0,7.185,7.185,13.611,13.611,0,0,0,10.508,0A13.556,13.556,0,0,0,38.082,20.7l2.762,1.17a16.486,16.486,0,0,1-15.2,10.076" transform="translate(10.068 20.548)" fill="#fff"/>
      </g>
    </g>
  </g>
</svg>
