<svg xmlns="http://www.w3.org/2000/svg" xmlns:xlink="http://www.w3.org/1999/xlink" width="78" height="78" viewBox="0 0 78 78">
  <defs>
    <clipPath id="clip-path">
      <rect id="Rectangle_50" data-name="Rectangle 50" width="72" height="72" transform="translate(0.457)" fill="#fff"/>
    </clipPath>
  </defs>
  <g id="Group_139" data-name="Group 139" transform="translate(-692 -924)">
    <circle id="Ellipse_7" data-name="Ellipse 7" cx="39" cy="39" r="39" transform="translate(692 924)" fill="#e68e60"/>
    <g id="Group_28" data-name="Group 28" transform="translate(695.543 927)" clip-path="url(#clip-path)">
      <path id="Path_12" data-name="Path 12" d="M16.545,14.3a2.25,2.25,0,1,1-2.25-2.25,2.25,2.25,0,0,1,2.25,2.25" transform="translate(11.136 11.955)" fill="#fff"/>
      <path id="Path_13" data-name="Path 13" d="M26.332,14.3a2.25,2.25,0,1,1-2.25-2.25,2.25,2.25,0,0,1,2.25,2.25" transform="translate(20.85 11.955)" fill="#fff"/>
      <path id="Path_14" data-name="Path 14" d="M33.012,63.012a30,30,0,1,1,30-30,30.036,30.036,0,0,1-30,30m0-57a27,27,0,1,0,27,27,27.031,27.031,0,0,0-27-27" transform="translate(2.169 2.988)" fill="#fff"/>
      <path id="Path_15" data-name="Path 15" d="M17.681,30.822h-3a12.014,12.014,0,0,1,12-12v3a9.009,9.009,0,0,0-9,9" transform="translate(13.75 18.679)" fill="#fff"/>
    </g>
  </g>
</svg>
