<svg id="Group_36" data-name="Group 36" xmlns="http://www.w3.org/2000/svg" xmlns:xlink="http://www.w3.org/1999/xlink" width="78" height="78" viewBox="0 0 78 78">
  <defs>
    <clipPath id="clip-path">
      <rect id="Rectangle_46" data-name="Rectangle 46" width="68" height="68" fill="#fff"/>
    </clipPath>
  </defs>
  <circle id="Ellipse_4" data-name="Ellipse 4" cx="39" cy="39" r="39" fill="#41b167"/>
  <g id="Group_23" data-name="Group 23" transform="translate(5 5)">
    <g id="Group_22" data-name="Group 22" clip-path="url(#clip-path)">
      <path id="Path_1" data-name="Path 1" d="M16.307,13.423a2.131,2.131,0,1,1-2.13-2.13,2.13,2.13,0,0,1,2.13,2.13" transform="translate(10.592 9.924)" fill="#fff"/>
      <path id="Path_2" data-name="Path 2" d="M26.093,13.423a2.13,2.13,0,1,1-2.13-2.13,2.13,2.13,0,0,1,2.13,2.13" transform="translate(19.27 9.924)" fill="#fff"/>
      <path id="Path_3" data-name="Path 3" d="M31.418,59.826A28.407,28.407,0,1,1,59.826,31.418,28.441,28.441,0,0,1,31.418,59.826m0-53.973A25.566,25.566,0,1,0,56.984,31.418,25.6,25.6,0,0,0,31.418,5.852" transform="translate(2.582 2.581)" fill="#fff"/>
      <path id="Path_4" data-name="Path 4" d="M26.746,37.953A18.486,18.486,0,0,1,8.281,19.489V18.068H45.21v1.421A18.484,18.484,0,0,1,26.746,37.953M11.186,20.909a15.625,15.625,0,0,0,31.12,0Z" transform="translate(7.254 15.931)" fill="#fff"/>
    </g>
  </g>
</svg>
