<?xml version="1.0" encoding="utf-8"?>
<!-- Generator: Adobe Illustrator 26.0.1, SVG Export Plug-In . SVG Version: 6.00 Build 0)  -->
<svg version="1.1" id="Layer_1" xmlns="http://www.w3.org/2000/svg" xmlns:xlink="http://www.w3.org/1999/xlink" x="0px" y="0px"
	 viewBox="0 0 170.2 49.5" style="enable-background:new 0 0 170.2 49.5;" xml:space="preserve">
<style type="text/css">
	.st0{fill:#FFFFFF;}
</style>
<g>
	<polygon class="st0" points="72.9,3.7 0,2.9 72.9,2.1 	"/>
	<polygon class="st0" points="97.3,3.7 170.2,2.9 97.3,2.1 	"/>
</g>
<g>
	<g>
		<path class="st0" d="M77.7,0.6h-1.8V0h4.3v0.6h-1.8v4.9h-0.6V0.6z"/>
		<path class="st0" d="M82.5,0h0.6v2.4h3.2V0H87v5.5h-0.6V3h-3.2v2.5h-0.6V0z"/>
		<path class="st0" d="M89.7,0h4v0.6h-3.3v1.9h3V3h-3v1.9h3.4v0.6h-4V0z"/>
	</g>
</g>
<polygon class="st0" points="170.2,48.7 85.1,49.5 0,48.6 85.1,47.9 "/>
<g>
	<g>
		<g>
			<path class="st0" d="M1.8,32.2h1v4.1h5.3v-4.1h1v9.1h-1v-4.1H2.8v4.1h-1V32.2z"/>
			<path class="st0" d="M14.8,32.2h6.6v0.9h-5.6v3.1h5v0.9h-5v3.2h5.6v0.9h-6.7V32.2z"/>
			<path class="st0" d="M30.1,32.1h1l4.2,9.2h-1.1L33,38.9h-5l-1.1,2.4h-1.1L30.1,32.1z M32.6,37.9l-2.1-4.7l-2.1,4.7H32.6z"/>
			<path class="st0" d="M40.1,32.2h1v8.2h5.1v1h-6.2V32.2z"/>
			<path class="st0" d="M52.4,33.1h-3.1v-1h7.2v1h-3.1v8.2h-1V33.1z"/>
			<path class="st0" d="M61.5,32.2h1v4.1h5.3v-4.1h1v9.1h-1v-4.1h-5.3v4.1h-1V32.2z"/>
			<path class="st0" d="M81.6,32.2h1l5.8,7.3v-7.3h1v9.1h-0.8l-5.9-7.5v7.5h-1V32.2z"/>
			<path class="st0" d="M95,32.2h6.6v0.9h-5.6v3.1h5v0.9h-5v3.2h5.6v0.9H95V32.2z"/>
			<path class="st0" d="M109.3,33.1h-3.1v-1h7.2v1h-3.1v8.2h-1V33.1z"/>
			<path class="st0" d="M117.7,32.2h1.1l2.6,7.6l2.5-7.6h0.8l2.5,7.6l2.6-7.6h1.1l-3.3,9.2h-0.9l-2.5-7.4l-2.5,7.4H121L117.7,32.2z"
				/>
			<path class="st0" d="M135.1,36.7L135.1,36.7c0-2.5,1.9-4.7,4.7-4.7c2.8,0,4.6,2.2,4.6,4.7v0c0,2.5-1.9,4.7-4.7,4.7
				C137,41.4,135.1,39.3,135.1,36.7z M143.4,36.7L143.4,36.7c0-2.1-1.5-3.8-3.6-3.8c-2.1,0-3.6,1.7-3.6,3.7v0c0,2.1,1.5,3.8,3.6,3.8
				C141.9,40.5,143.4,38.8,143.4,36.7z"/>
			<path class="st0" d="M149.7,32.2h3.9c1.1,0,2,0.3,2.6,0.9c0.4,0.4,0.7,1.1,0.7,1.8v0c0,1.5-1,2.4-2.5,2.7l2.8,3.7H156l-2.7-3.5
				h-2.6v3.5h-1V32.2z M153.6,36.8c1.4,0,2.3-0.7,2.3-1.9v0c0-1.1-0.9-1.8-2.3-1.8h-2.8v3.7H153.6z"/>
			<path class="st0" d="M162.3,32.2h1v5.5l5.2-5.5h1.3l-3.9,4l4.1,5.1h-1.3l-3.5-4.4l-1.9,2v2.5h-1V32.2z"/>
		</g>
	</g>
	<g>
		<g>
			<g>
				<g>
					<path class="st0" d="M0.1,10.4c0.4,0,1.8,0.1,2.9,0.1c1.1,0,2.1-0.1,2.7-0.1c0.1,0.1,0.1,0.6,0,0.7c-0.5,0.1-0.8,0.1-1.1,0.2
						c-0.5,0.2-0.7,0.4-0.7,1.3c0,2.4,0,5.6,0,6.9c0,1,0.2,1.9,0.4,2.4c0.5,1.3,1.8,2.4,3.9,2.4c1.9,0,3.7-0.6,3.9-4.4
						c0.1-1.8,0.1-4.5,0-7c0-1.2-0.3-1.5-1-1.7c-0.3-0.1-0.7-0.1-1.2-0.2c-0.1-0.1-0.1-0.6,0-0.7c0.4,0,1.4,0.1,2.7,0.1
						c1,0,2-0.1,2.4-0.1c0.1,0.1,0.1,0.6,0,0.7c-0.3,0.1-0.7,0.1-0.9,0.2c-0.7,0.2-0.8,0.6-0.8,1.8c-0.1,4.9-0.1,6.7-0.5,8.4
						c-0.7,3.2-3.1,4.2-5.5,4.2c-3.6,0-5.1-1.7-5.4-4.3c-0.2-1.5-0.1-7.6-0.2-8.8c0-0.6-0.2-1-0.6-1.2c-0.2-0.1-0.8-0.2-1.2-0.2
						C0,11,0,10.5,0.1,10.4z"/>
					<path class="st0" d="M15.4,24.4c0.3-0.1,0.5-0.4,0.5-0.8c0-0.7,0-2.4,0-3.9c0-0.9,0-1.6,0-1.9c-0.1-0.3-0.3-0.6-1.2-0.9
						c0-0.1,0-0.5,0.1-0.6c0.9-0.1,2.2-0.6,2.8-0.9c0,0,0.1,0.1,0.1,0.2c0,0.3,0,1,0,1.4c0,0,0.1,0.1,0.1,0c1.2-1,2.3-1.6,3.1-1.6
						c1,0,1.7,0.5,2.2,1.2c0.4,0.7,0.6,1.7,0.6,2.8c0,1.3,0,3.5,0,4.3c0,0.2,0.1,0.4,0.2,0.5c0.4,0.2,0.7,0.2,1.1,0.3
						c0.1,0.1,0,0.6-0.1,0.7c-0.3,0-1-0.1-2.2-0.1c-1,0-1.7,0-2.2,0.1c-0.1-0.1-0.1-0.6,0-0.7c0.4,0,0.8-0.1,0.9-0.2
						c0.3-0.1,0.4-0.4,0.4-1c0-1.3,0-3.8-0.1-4.7c0-0.4-0.2-1-0.6-1.4c-0.3-0.3-0.7-0.6-1.4-0.6c-0.7,0-1.4,0.3-1.9,0.8
						c-0.1,0.1-0.2,0.4-0.2,0.9c0,1.7,0,4,0,5.1c0,0.6,0.1,0.7,0.4,0.8c0.2,0.1,0.6,0.1,0.9,0.2c0,0.1,0,0.6-0.1,0.7
						c-0.3,0-1-0.1-2.2-0.1c-1.1,0-1.9,0.1-2.2,0.1c-0.1-0.1-0.1-0.6,0-0.7C14.9,24.6,15.1,24.5,15.4,24.4z"/>
					<path class="st0" d="M29.9,25.3c-0.4,0-1.2-0.1-2.3-0.1c-0.9,0-1.8,0.1-2.2,0.1c-0.1-0.1-0.1-0.6,0-0.7c0.4,0,0.7-0.1,1-0.2
						c0.3-0.1,0.4-0.3,0.4-0.9c0-0.6,0-2.2,0-3.5c0-0.9,0-1.8,0-2.3c0-0.1,0-0.3-0.2-0.5c-0.2-0.3-0.6-0.4-1.1-0.6
						c-0.1-0.1,0-0.5,0.1-0.6c0.7,0,2.1-0.3,2.9-0.7c0,1.1,0,2.7,0,4.2c0,1.3,0,2.9,0,4c0,0.4,0.1,0.7,0.5,0.8
						c0.3,0.1,0.4,0.1,0.9,0.2C30,24.7,30,25.2,29.9,25.3z M28.1,13.2c-0.1,0.1-0.9,0.1-1,0c-0.3-0.2-0.5-0.5-0.6-1
						c0-0.1,0-0.6,0.1-0.7c0.2-0.2,0.7-0.4,1.1-0.4c0.4,0,0.6,0.1,0.7,0.2c0.1,0.2,0.2,0.5,0.2,0.7C28.6,12.4,28.4,12.9,28.1,13.2z"
						/>
					<path class="st0" d="M30.2,15.7c0.4,0,1.2,0.1,2.2,0.1c0.9,0,1.7,0,2.2-0.1c0.1,0.1,0.1,0.6,0,0.7c-0.3,0-0.7,0.1-0.9,0.2
						c-0.2,0.1-0.2,0.3-0.2,0.4c0.3,0.9,1.9,5.4,2,5.8c0,0,0.1,0,0.1,0c0.5-1.2,1.4-3.9,1.8-5c0.2-0.8,0.1-1-0.2-1.1
						c-0.3-0.1-0.6-0.2-1-0.2c0-0.1,0-0.6,0.1-0.7c0.2,0,1.2,0.1,2,0.1c0.8,0,1.6,0,1.9-0.1c0.1,0.1,0.1,0.6,0,0.7
						c-0.3,0-0.5,0.1-0.8,0.2c-0.4,0.2-0.6,0.5-0.9,1.1c-0.6,1.4-1.3,3.2-2.1,5.4c-0.4,1-0.6,1.7-0.7,2.3c-0.3,0-0.8,0-1.1,0
						c-0.2-0.6-0.4-1.3-0.7-2.1c-0.6-1.8-1.4-3.9-1.8-5c-0.5-1.3-0.6-1.5-1.1-1.7c-0.3-0.1-0.6-0.1-0.9-0.2
						C30,16.2,30.1,15.7,30.2,15.7z"/>
					<path class="st0" d="M47.6,23.1c0,0.2-0.1,0.6-0.1,0.6c-1,1.2-2.6,1.8-3.6,1.8c-1.2,0-2.1-0.4-2.8-1.2c-0.9-1-1.3-2.4-1.3-3.8
						c0-2.1,0.8-3.5,2-4.3c0.7-0.5,1.7-0.8,2.4-0.8c2.2,0,3,2.1,3.2,3.4c0,0.1,0.1,0.2,0.3,0.3c0,0.1-0.1,0.5-0.2,0.6
						c-0.9,0.3-4,0.5-5.9,0.5c-0.1,0-0.1,0.1-0.1,0.3c0,0.8,0.4,1.8,0.9,2.4c0.7,0.7,1.4,1.1,2.5,1.1c0.9,0,1.7-0.3,2.6-1
						C47.5,22.9,47.5,23,47.6,23.1z M41.6,19.1c0,0,0,0.2,0.1,0.2c0.7,0,3.4,0,3.8-0.1c0,0,0.1-0.1,0.1-0.2
						c-0.1-1.2-0.9-2.6-2.1-2.6C42.5,16.3,41.7,17.4,41.6,19.1z"/>
					<path class="st0" d="M55.2,15.9c0,0.1,0,0.3,0,0.4c0,0.3-0.5,1.2-0.7,1.5c0,0-0.2,0.1-0.2,0.1c-0.4-0.4-0.9-0.7-1.5-0.7
						c-0.5,0-0.9,0.5-1.2,1c-0.1,0.1-0.2,0.5-0.2,0.8c0,1.6,0,4.1,0,4.6c0,0.4,0.1,0.6,0.5,0.8c0.4,0.1,0.9,0.2,1.4,0.2
						c0,0.1,0,0.6-0.1,0.7c-0.3,0-1.7-0.1-2.6-0.1c-0.7,0-1.9,0-2.3,0.1c-0.1-0.1-0.1-0.6,0-0.7c0.3,0,0.6-0.1,0.9-0.2
						c0.2-0.1,0.4-0.2,0.4-0.7c0-0.4,0.1-2.4,0.1-4c0-0.9,0-1.6,0-1.9c0-0.3-0.2-0.6-1.2-1c0-0.1,0-0.5,0.1-0.5
						c0.8-0.1,2.1-0.5,2.8-0.9c0,0,0.1,0,0.1,0.1c0,0.3,0,1.4,0,1.8c0,0.1,0.1,0.1,0.1,0c0.4-0.6,0.9-1.1,1.4-1.5
						c0.4-0.3,0.7-0.5,1.2-0.5S55,15.6,55.2,15.9z"/>
					<path class="st0" d="M61.7,18.2c-0.1,0.1-0.5,0.1-0.6,0c-0.1-1-0.3-1.5-0.8-1.8c-0.3-0.2-0.7-0.3-1.1-0.3
						c-0.8,0-1.4,0.5-1.4,1.4c0,0.8,0.4,1.3,2.1,2.2c1.9,0.9,2.3,1.7,2.3,2.9c0,1.7-1.5,3-3.5,3c-0.8,0-1.9-0.2-2.4-0.5
						C56.2,24.5,56,23,56,22.4c0.1-0.1,0.5-0.3,0.7-0.2c0.3,1.2,0.7,1.9,1.3,2.2c0.3,0.2,0.8,0.3,1.1,0.3c0.9,0,1.5-0.5,1.5-1.3
						c0-0.9-0.4-1.3-1.8-2c-1.8-1-2.5-1.8-2.5-3.1c0-1.5,1.1-2.8,3.3-2.8c0.5,0,1.1,0.1,1.5,0.1c0.4,0.1,0.7,0.1,0.9,0.1
						C61.9,16.4,61.8,17.2,61.7,18.2z"/>
					<path class="st0" d="M67.6,25.3c-0.4,0-1.2-0.1-2.3-0.1c-0.9,0-1.8,0.1-2.2,0.1c-0.1-0.1-0.1-0.6,0-0.7c0.4,0,0.7-0.1,1-0.2
						c0.3-0.1,0.4-0.3,0.4-0.9c0-0.6,0-2.2,0-3.5c0-0.9,0-1.8,0-2.3c0-0.1,0-0.3-0.2-0.5c-0.2-0.3-0.6-0.4-1.1-0.6
						c-0.1-0.1,0-0.5,0.1-0.6c0.7,0,2.1-0.3,2.9-0.7c0,1.1,0,2.7,0,4.2c0,1.3,0,2.9,0,4c0,0.4,0.1,0.7,0.5,0.8
						c0.3,0.1,0.4,0.1,0.9,0.2C67.7,24.7,67.7,25.2,67.6,25.3z M65.9,13.2c-0.1,0.1-0.9,0.1-1,0c-0.3-0.2-0.5-0.5-0.6-1
						c0-0.1,0-0.6,0.1-0.7c0.2-0.2,0.7-0.4,1.1-0.4c0.4,0,0.6,0.1,0.7,0.2c0.1,0.2,0.2,0.5,0.2,0.7C66.3,12.4,66.1,12.9,65.9,13.2z"
						/>
					<path class="st0" d="M70.6,16.9c0,0-0.1,0.1-0.1,0.1c0,1.1,0,3.2,0,4.4c0,1,0,1.4,0.1,1.7c0.2,0.6,0.8,0.9,1.3,0.9
						c0.6,0,0.9-0.1,1.4-0.4c0,0.1,0,0.6-0.1,0.7c-0.6,0.7-1.5,1.1-2.2,1.1c-0.9,0-1.6-0.4-2-1.2c-0.3-0.6-0.3-1.2-0.3-2.7
						c0-1.4,0-3.5,0-4.5c0-0.1,0-0.2-0.1-0.2c-0.3,0-0.9-0.1-1.2-0.1c0-0.1,0.1-0.7,0.2-0.8c0.3,0,0.9-0.2,1.1-0.3
						c0,0,0.1-0.1,0.1-0.2c0-0.3,0-1.7,0-2c0.4-0.2,1.2-0.8,1.4-1.1c0.1,0,0.3,0,0.4,0c0,0.4-0.1,1.5-0.1,3.2c0,0,0,0.1,0.1,0.1
						c1.1,0,2.4-0.1,2.8-0.1c-0.1,0.3-0.2,1-0.2,1.3C72.6,16.9,71.5,16.9,70.6,16.9z"/>
					<path class="st0" d="M74.5,15.7c0.4,0,1.2,0.1,2.2,0.1c1,0,2-0.1,2.3-0.1c0.1,0.1,0.1,0.6,0,0.7c-0.3,0.1-0.7,0.1-0.8,0.2
						C78,16.6,78,16.9,78,17c0.4,1.4,1.9,5.4,2,5.8c0,0,0.1,0,0.1,0c0.7-1.6,1.7-4.3,1.9-5.5c0-0.3,0-0.6-0.4-0.7
						c-0.2-0.1-0.6-0.1-1-0.2c-0.1-0.1,0-0.6,0.1-0.7c0.3,0,1.2,0.1,1.9,0.1c0.8,0,1.5,0,2.1-0.1c0.1,0.1,0.1,0.6,0,0.7
						c-0.3,0-0.6,0.1-0.8,0.2c-0.4,0.1-0.7,0.5-0.9,1.1c-1.6,4.5-3.4,8.6-5.3,12.1c-0.3,0.5-0.5,1-0.7,1.3l-0.2,0.1
						c-0.3-0.1-1-0.4-1.2-0.6c0-0.1,0-0.3,0-0.4c0.7-1,2.5-3.4,3.3-5.3c0,0-0.1-0.3-0.2-0.4c-0.5-1.4-1.5-4-2.2-5.8
						c-0.6-1.6-0.8-2-1.5-2.2c-0.2,0-0.4-0.1-0.8-0.1C74.4,16.2,74.4,15.7,74.5,15.7z"/>
				</g>
			</g>
		</g>
		<g>
			<g>
				<g>
					<path class="st0" d="M97.7,10.4c0.5,0,1.8,0.1,2.8,0.1c1.4,0,2.6-0.1,2.9-0.1c0.1,0,0.1,0.6,0,0.7c-0.5,0.1-0.9,0.2-1.2,0.3
						c-0.4,0.1-0.4,0.4-0.3,0.7c0.7,2.1,3.3,9.4,3.7,10.5c0,0,0.1,0,0.1,0c0.5-1.3,2.9-7.7,3.6-9.8c0.3-0.9,0.2-1.2-0.5-1.4
						c-0.3-0.1-0.7-0.1-1.2-0.2c-0.1-0.1,0-0.6,0.1-0.7c0.4,0,1.3,0.1,2.7,0.1c1.2,0,1.8-0.1,2.4-0.1c0.1,0.1,0.1,0.6,0,0.7
						c-0.4,0.1-0.7,0.1-1,0.2c-0.7,0.2-0.9,0.7-1.4,2.1c-0.7,1.7-2.2,5.7-3.3,8.7c-0.5,1.4-0.9,2.6-1.2,3.4c-0.3-0.1-1-0.1-1.4,0
						c-0.2-0.9-0.5-2-1-3.3c-1.1-3.2-2.5-7.2-3.2-9c-0.5-1.3-0.8-1.7-1.4-1.9c-0.3-0.1-0.6-0.1-1.1-0.2C97.6,11,97.6,10.4,97.7,10.4
						z"/>
					<path class="st0" d="M117.9,23.1c0,0.2-0.1,0.6-0.1,0.6c-1,1.2-2.6,1.8-3.6,1.8c-1.2,0-2.1-0.4-2.8-1.2c-0.9-1-1.3-2.4-1.3-3.8
						c0-2.1,0.8-3.5,2-4.3c0.7-0.5,1.7-0.8,2.4-0.8c2.2,0,3,2.1,3.2,3.4c0,0.1,0.1,0.2,0.3,0.3c0,0.1-0.1,0.5-0.2,0.6
						c-0.9,0.3-4,0.5-5.9,0.5c-0.1,0-0.1,0.1-0.1,0.3c0,0.8,0.4,1.8,0.9,2.4c0.7,0.7,1.4,1.1,2.5,1.1c0.9,0,1.7-0.3,2.6-1
						C117.8,22.9,117.9,23,117.9,23.1z M111.9,19.1c0,0,0,0.2,0.1,0.2c0.7,0,3.4,0,3.8-0.1c0,0,0.1-0.1,0.1-0.2
						c-0.1-1.2-0.9-2.6-2.1-2.6C112.8,16.3,112,17.4,111.9,19.1z"/>
					<path class="st0" d="M126,15.9c0,0.1,0,0.3,0,0.4c0,0.3-0.5,1.2-0.7,1.5c0,0-0.2,0.1-0.2,0.1c-0.4-0.4-0.9-0.7-1.5-0.7
						c-0.5,0-0.9,0.5-1.2,1c-0.1,0.1-0.2,0.5-0.2,0.8c0,1.6,0,4.1,0,4.6c0,0.4,0.1,0.6,0.5,0.8c0.4,0.1,0.9,0.2,1.4,0.2
						c0,0.1,0,0.6-0.1,0.7c-0.3,0-1.7-0.1-2.6-0.1c-0.7,0-1.9,0-2.3,0.1c-0.1-0.1-0.1-0.6,0-0.7c0.3,0,0.6-0.1,0.9-0.2
						c0.2-0.1,0.4-0.2,0.4-0.7c0-0.4,0.1-2.4,0.1-4c0-0.9,0-1.6,0-1.9c0-0.3-0.2-0.6-1.2-1c0-0.1,0-0.5,0.1-0.5
						c0.8-0.1,2.1-0.5,2.8-0.9c0,0,0.1,0,0.1,0.1c0,0.3,0,1.4,0,1.8c0,0.1,0.1,0.1,0.1,0c0.4-0.6,0.9-1.1,1.4-1.5
						c0.4-0.3,0.7-0.5,1.2-0.5C125.3,15.4,125.8,15.6,126,15.9z"/>
					<path class="st0" d="M127.9,24.4c0.4-0.1,0.5-0.4,0.5-0.9c0.1-1.3,0.1-3.8,0.1-5.4c0-0.1,0-0.5-0.2-0.7
						c-0.2-0.2-0.6-0.4-1.1-0.5c-0.1-0.1,0-0.5,0.1-0.6c1-0.1,2.2-0.5,2.8-0.9c0,0,0,0.1,0.1,0.1c0,0.2,0,1,0,1.4c0,0,0.1,0.1,0.1,0
						c1.3-1.1,2.4-1.5,3.1-1.5c1.1,0,1.9,0.7,2.3,1.6c0,0.1,0.1,0,0.2,0c1.2-1,2.3-1.6,3.2-1.6c1.7,0,2.8,1.4,2.8,3.9
						c0,1.3,0,3.5,0,4.5c0,0.2,0.1,0.4,0.2,0.5c0.3,0.2,0.6,0.2,1.2,0.3c0,0.1,0,0.6-0.1,0.7c-0.4,0-1.2-0.1-2.1-0.1
						c-1.1,0-1.7,0-2.3,0.1c-0.1-0.1-0.1-0.6,0-0.7c0.4-0.1,0.6-0.1,0.9-0.2c0.3-0.1,0.4-0.4,0.4-1.2c0-1.3,0.1-3.8-0.1-4.5
						c-0.1-0.8-0.6-1.8-2-1.8c-0.6,0-1.3,0.3-2,0.9c0,0,0,0.1,0,0.2c0.1,0.5,0.1,1,0.1,1.7c0,1.3,0,3.2,0,4.2c0,0.3,0.2,0.5,0.4,0.6
						c0.3,0.1,0.5,0.1,1,0.2c0.1,0.1,0,0.6-0.1,0.7c-0.6,0-1.3-0.1-2.3-0.1c-0.7,0-1.7,0.1-2.1,0.1c-0.1-0.1-0.1-0.6,0-0.7
						c0.4-0.1,0.6-0.1,0.9-0.2c0.3-0.1,0.4-0.3,0.4-0.8c0.1-1.1,0.1-4.3,0-5c-0.1-0.7-0.6-1.8-1.9-1.8c-0.5,0-1.2,0.2-1.8,0.7
						c-0.2,0.1-0.3,0.3-0.3,0.6c0,1.6,0,4.5,0,5.6c0,0.3,0.1,0.6,0.5,0.7c0.2,0,0.5,0.1,0.9,0.2c0.1,0.1,0,0.6,0,0.7
						c-0.5,0-1.3-0.1-2.2-0.1c-1.2,0-1.6,0.1-2.2,0.1c-0.1-0.1-0.1-0.6,0-0.7C127.4,24.5,127.7,24.5,127.9,24.4z"/>
					<path class="st0" d="M152.7,20.2c0,1.8-0.7,3.5-2.1,4.4c-0.6,0.4-1.7,0.9-2.6,0.9c-3.3,0-4.5-2.7-4.5-5.1c0-1.9,0.8-3.2,2-4
						c0.8-0.6,1.9-1,3-1C151.1,15.4,152.7,17.5,152.7,20.2z M146.6,16.7c-0.6,0.4-1.2,1.3-1.2,3.1c0,2.8,1.3,4.8,3.1,4.8
						c0.5,0,1-0.1,1.4-0.5c0.6-0.6,0.9-1.6,0.9-3c0-2.8-1.2-4.7-3.1-4.7C147.3,16.3,146.9,16.5,146.6,16.7z"/>
					<path class="st0" d="M154.2,24.4c0.3-0.1,0.5-0.4,0.5-0.8c0-0.7,0-2.4,0-3.9c0-0.9,0-1.6,0-1.9c-0.1-0.3-0.3-0.6-1.2-0.9
						c0-0.1,0-0.5,0.1-0.6c0.9-0.1,2.2-0.6,2.8-0.9c0,0,0.1,0.1,0.1,0.2c0,0.3,0,1,0,1.4c0,0,0.1,0.1,0.1,0c1.2-1,2.3-1.6,3.1-1.6
						c1,0,1.7,0.5,2.2,1.2c0.4,0.7,0.6,1.7,0.6,2.8c0,1.3,0,3.5,0,4.3c0,0.2,0.1,0.4,0.2,0.5c0.4,0.2,0.7,0.2,1.1,0.3
						c0.1,0.1,0,0.6-0.1,0.7c-0.3,0-1-0.1-2.2-0.1c-1,0-1.7,0-2.2,0.1c-0.1-0.1-0.1-0.6,0-0.7c0.4,0,0.8-0.1,0.9-0.2
						c0.3-0.1,0.4-0.4,0.4-1c0-1.3,0-3.8-0.1-4.7c0-0.4-0.2-1-0.6-1.4c-0.3-0.3-0.7-0.6-1.4-0.6c-0.7,0-1.4,0.3-1.9,0.8
						c-0.1,0.1-0.2,0.4-0.2,0.9c0,1.7,0,4,0,5.1c0,0.6,0.1,0.7,0.4,0.8c0.2,0.1,0.6,0.1,0.9,0.2c0,0.1,0,0.6-0.1,0.7
						c-0.3,0-1-0.1-2.2-0.1c-1.1,0-1.9,0.1-2.2,0.1c-0.1-0.1-0.1-0.6,0-0.7C153.7,24.6,154,24.5,154.2,24.4z"/>
					<path class="st0" d="M167.4,16.9c0,0-0.1,0.1-0.1,0.1c0,1.1,0,3.2,0,4.4c0,1,0,1.4,0.1,1.7c0.2,0.6,0.8,0.9,1.3,0.9
						c0.6,0,0.9-0.1,1.4-0.4c0,0.1,0,0.6-0.1,0.7c-0.6,0.7-1.5,1.1-2.2,1.1c-0.9,0-1.6-0.4-2-1.2c-0.3-0.6-0.3-1.2-0.3-2.7
						c0-1.4,0-3.5,0-4.5c0-0.1,0-0.2-0.1-0.2c-0.3,0-0.9-0.1-1.2-0.1c0-0.1,0.1-0.7,0.2-0.8c0.3,0,0.9-0.2,1.1-0.3
						c0,0,0.1-0.1,0.1-0.2c0-0.3,0-1.7,0-2c0.4-0.2,1.2-0.8,1.4-1.1c0.1,0,0.3,0,0.4,0c0,0.4-0.1,1.5-0.1,3.2c0,0,0,0.1,0.1,0.1
						c1.1,0,2.4-0.1,2.8-0.1c-0.1,0.3-0.2,1-0.2,1.3C169.4,16.9,168.2,16.9,167.4,16.9z"/>
				</g>
			</g>
		</g>
		<g>
			<g>
				<path class="st0" d="M91.6,19.8c0,1.4-0.6,2.6-1.8,3.3c-0.5,0.3-1.2,0.5-1.7,0.5c-1,0-1.5-0.8-1.5-1.9c0-1.1,0.4-2.4,1.4-3
					c0.6-0.4,1.4-0.7,2-0.7C91.2,18,91.6,18.8,91.6,19.8z M88.9,22.9c0.8,0,1.3-1.5,1.3-2.8c0-0.7-0.1-1.5-0.8-1.5
					c-0.8,0-1.3,1.5-1.3,2.8C88.1,22.4,88.4,22.9,88.9,22.9z"/>
				<path class="st0" d="M92.6,18.7c0.1-0.2,0.4-0.5,0.5-0.5h0.5c0,0,0.1-0.1,0.1-0.1c0.3-1.4,0.8-2.2,1.8-2.9
					c0.5-0.3,1.1-0.6,1.4-0.6c0.3,0,0.6,0.1,0.6,0.3c0,0.2-0.4,0.8-0.7,0.9c0,0-0.1,0.1-0.2,0c-0.2-0.2-0.5-0.4-0.7-0.4
					c-0.2,0-0.3,0.2-0.4,0.5c-0.2,0.5-0.3,1.2-0.4,2.2c0,0.1,0,0.1,0.1,0.1c0.5,0,0.9,0,1.2-0.1c0,0.1,0,0.3-0.1,0.3
					c-0.2,0.2-0.6,0.3-0.9,0.4c-0.1,0-0.3,0-0.4,0c0,0-0.1,0.1-0.1,0.1c-0.2,1.5-0.5,3.2-0.7,4.6c-0.4,2-2.2,3.2-3.1,3.2
					c-0.5,0-0.8-0.2-0.8-0.5c0-0.3,0.1-0.7,0.3-0.9c0,0,0.1-0.1,0.2-0.1c0.4,0.5,0.8,0.8,1.2,0.8c0.4,0,0.5-0.3,0.7-1.2
					c0.3-1.9,0.8-4.7,0.9-5.7c0,0,0-0.1-0.1-0.1c-0.3,0-0.7,0-0.9,0C92.5,18.7,92.5,18.7,92.6,18.7z"/>
			</g>
		</g>
	</g>
</g>
</svg>
