<?xml version="1.0" encoding="UTF-8"?><svg id="a" xmlns="http://www.w3.org/2000/svg" width="4.94in" height=".84in" viewBox="0 0 355.52 60.52"><path d="M117.53,3.46v11.62c0,1.3.29,2.38,1.11,3.21.73.73,1.84,1.17,3.33,1.17s2.54-.44,3.21-1.11c.83-.83,1.11-1.97,1.11-3.24V3.46l-.03-2.98h5.05l-.03,2.98v11.59c0,2.38-.54,4.67-2.29,6.38-1.56,1.52-4.03,2.35-7.21,2.35-3.37,0-5.97-.89-7.53-2.38-1.87-1.81-2.19-4.22-2.19-7.08V3.46l-.03-2.98h5.52l-.03,2.98Z" fill="#fff"/><path d="M146.2,23.18l.03-2.95v-7.02c0-1.97-.76-2.92-2.22-2.92s-2.86.92-3.78,2.29v7.65l.03,2.95h-5.18l.03-2.95v-10.35l-.03-2.95h4.95v2.51h.06c1.52-1.87,3.56-2.98,6-2.98,3.21,0,5.24,1.81,5.24,5.68v8.1l.03,2.95h-5.18Z" fill="#fff"/><path d="M155.21,23.18l.03-2.95v-10.35l-.03-2.95h5.18l-.03,2.95v10.35l.03,2.95h-5.18ZM155.24,4.89V.48h5.11v4.41h-5.11Z" fill="#fff"/><path d="M162.8,6.92h5.3l3.62,10.7h.06l3.49-10.7h4.35l-5.91,16.26h-4.89l-6.03-16.26Z" fill="#fff"/><path d="M197.15,19.69c-.89,1.49-3.27,4.03-8,4.03-5.14,0-8.79-3.02-8.79-8.38s3.71-8.92,8.54-8.92c6.22,0,8.64,4.79,8.51,9.53h-12.22c.13,3.08,1.78,4.38,4.1,4.38,1.97,0,3.4-1.14,4-2l3.87,1.37ZM185.31,13.18h6.99c0-2-1.11-3.56-3.37-3.56-1.91,0-3.21,1.08-3.62,3.56Z" fill="#fff"/><path d="M200.45,20.23v-10.35l-.03-2.95h4.67v4.13h.06c1.21-3.21,3.3-4.6,5.43-4.6.29,0,.51.03.7.06v4.6c-.38-.09-.79-.16-1.17-.16-2.6,0-4.29,2.73-4.54,5.4v3.87l.03,2.95h-5.18l.03-2.95Z" fill="#fff"/><path d="M214.9,18.23c1.59,1.08,3.27,2.16,6.07,2.16,1.81,0,2.98-.44,2.98-1.59,0-1.56-2.29-1.62-4.6-2-2.99-.48-6.07-1.46-6.07-4.79,0-2.99,2.45-5.72,7.14-5.72,2.99,0,5.91,1.11,7.49,2.38l-2.03,2.95c-1.14-.83-2.76-1.91-5.21-1.91-1.71,0-2.73.54-2.73,1.52,0,1.43,2.1,1.49,4.29,1.84,3.08.48,6.38,1.49,6.38,5.02,0,3.02-2.45,5.72-7.68,5.72-3.56,0-6.41-1.24-8.07-2.64l2.03-2.95Z" fill="#fff"/><path d="M231.54,23.18l.03-2.95v-10.35l-.03-2.95h5.18l-.03,2.95v10.35l.03,2.95h-5.18ZM231.57,4.89V.48h5.11v4.41h-5.11Z" fill="#fff"/><path d="M251.32,10.38h-3.91v7.75c0,1.3.38,1.84,1.78,1.84.73,0,1.65-.22,2.22-.38v3.43c-.76.41-2.03.7-3.65.7-3.75,0-5.46-1.3-5.46-5.21v-8.13h-2.7v-3.46h2.86l.51-5.08h4.45v5.08h3.91v3.46Z" fill="#fff"/><path d="M254.17,26.04c.44.06,1.14.09,1.56.09,2.03,0,2.76-.73,3.68-3.49l-6.41-15.72h5.43l3.68,10.04h.06l3.43-10.04h4.32l-6.51,17.27c-1.33,3.56-3.62,5.65-7.49,5.65-.83,0-1.27-.1-1.75-.19v-3.62Z" fill="#fff"/><path d="M278.21,15.08c0-4.7,3.49-8.67,8.92-8.67s8.89,3.97,8.89,8.67-3.46,8.64-8.89,8.64-8.92-4-8.92-8.64ZM290.69,15.08c0-3.68-1.46-5.27-3.56-5.27s-3.59,1.59-3.59,5.27,1.46,5.24,3.59,5.24,3.56-1.59,3.56-5.24Z" fill="#fff"/><path d="M297.29,6.92h2.76v-.6c-.09-5.33,1.94-6.32,5.56-6.32,1.56,0,2.41.19,3.02.38v3.21c-.38-.13-1.08-.25-1.68-.25-1.62-.03-1.84,1.11-1.78,3.02v.57h3.46v3.46h-3.46v9.84l.03,2.95h-5.18l.03-2.95v-9.84h-2.76v-3.46Z" fill="#fff"/><path d="M109.94,37.28h6.13l5.18,16.16h.06l4.89-16.16h5.37l-7.59,22.7h-6l-8.03-22.7Z" fill="#fff"/><path d="M147.21,56.49c-.89,1.49-3.27,4.03-8,4.03-5.14,0-8.79-3.02-8.79-8.38s3.71-8.92,8.54-8.92c6.22,0,8.64,4.79,8.51,9.53h-12.22c.13,3.08,1.78,4.38,4.1,4.38,1.97,0,3.4-1.14,4-2l3.87,1.37ZM135.37,49.98h6.99c0-2-1.11-3.56-3.37-3.56-1.91,0-3.21,1.08-3.62,3.56Z" fill="#fff"/><path d="M150.58,57.03v-10.35l-.03-2.95h4.67v4.13h.06c1.21-3.21,3.3-4.6,5.43-4.6.29,0,.51.03.7.06v4.6c-.38-.1-.79-.16-1.17-.16-2.6,0-4.29,2.73-4.54,5.4v3.88l.03,2.95h-5.18l.03-2.95Z" fill="#fff"/><path d="M174.67,59.98l.03-2.95v-7.02c0-2-.73-2.92-2.25-2.92-1.24,0-2.45.95-3.27,2.32v7.62l.03,2.95h-5.18l.03-2.95v-10.35l-.03-2.95h4.95v2.44h.06c1.43-1.81,3.27-2.92,5.56-2.92s4.16.73,4.86,2.98h.06c1.46-1.84,3.4-2.98,5.75-2.98,3.21,0,5.21,1.81,5.21,5.68v8.1l.03,2.95h-5.14l.03-2.95v-7.02c0-2-.79-2.92-2.25-2.92-1.27,0-2.51.95-3.33,2.32v7.62l.03,2.95h-5.18Z" fill="#fff"/><path d="M193.15,51.88c0-4.7,3.49-8.67,8.92-8.67s8.89,3.97,8.89,8.67-3.46,8.64-8.89,8.64-8.92-4-8.92-8.64ZM205.63,51.88c0-3.68-1.46-5.27-3.56-5.27s-3.59,1.59-3.59,5.27,1.46,5.24,3.59,5.24,3.56-1.59,3.56-5.24Z" fill="#fff"/><path d="M224.97,59.98l.03-2.95v-7.02c0-1.97-.76-2.92-2.22-2.92s-2.86.92-3.78,2.29v7.65l.03,2.95h-5.18l.03-2.95v-10.35l-.03-2.95h4.95v2.51h.06c1.52-1.87,3.56-2.98,6-2.98,3.21,0,5.24,1.81,5.24,5.68v8.1l.03,2.95h-5.18Z" fill="#fff"/><path d="M244.18,47.18h-3.91v7.75c0,1.3.38,1.84,1.78,1.84.73,0,1.65-.22,2.22-.38v3.43c-.76.41-2.03.7-3.65.7-3.75,0-5.46-1.3-5.46-5.21v-8.13h-2.7v-3.46h2.86l.51-5.08h4.45v5.08h3.91v3.46Z" fill="#fff"/><path d="M269.64,59.98l.03-2.99v-6.51h-9.02v6.51l.03,2.99h-5.52l.03-2.99v-16.73l-.03-2.99h5.52l-.03,2.99v6.13h9.02v-6.13l-.03-2.99h5.52l-.03,2.99v16.73l.03,2.99h-5.52Z" fill="#fff"/><path d="M294.82,56.49c-.89,1.49-3.27,4.03-8,4.03-5.14,0-8.79-3.02-8.79-8.38s3.71-8.92,8.54-8.92c6.22,0,8.64,4.79,8.51,9.53h-12.22c.13,3.08,1.78,4.38,4.1,4.38,1.97,0,3.4-1.14,4-2l3.87,1.37ZM282.97,49.98h6.99c0-2-1.11-3.56-3.37-3.56-1.91,0-3.21,1.08-3.62,3.56Z" fill="#fff"/><path d="M297.77,47.28c1.24-2.92,4.13-4.06,7.84-4.06,4.32,0,7.49,1.55,7.49,6.13v7.18c0,1.4.16,2.63.29,3.46h-4.73c-.13-.7-.19-1.37-.25-1.97h-.06c-1.08,1.27-2.7,2.44-5.62,2.44-3.56,0-5.75-1.84-5.75-4.67,0-4.48,5.56-5.94,11.24-5.94v-.7c0-1.84-.95-2.79-2.92-2.79-1.65,0-2.48.67-3.37,2l-4.16-1.08ZM308.21,53.47v-1.14c-2.73.03-6,.76-6,2.95,0,1.21.83,1.94,2.22,1.94,1.68,0,3.78-1.24,3.78-3.75Z" fill="#fff"/><path d="M322.03,57.03s.03,2.95.03,2.95h-5.18s.03-2.92.03-2.95v-16.8l-.03-2.95h5.18l-.03,2.95v16.8Z" fill="#fff"/><path d="M336.25,47.18h-3.91v7.75c0,1.3.38,1.84,1.78,1.84.73,0,1.65-.22,2.22-.38v3.43c-.76.41-2.03.7-3.65.7-3.75,0-5.46-1.3-5.46-5.21v-8.13h-2.7v-3.46h2.86l.51-5.08h4.45v5.08h3.91v3.46Z" fill="#fff"/><path d="M344.38,45.98h.06c1.49-1.71,3.46-2.73,5.81-2.73,3.21,0,5.24,1.81,5.24,5.68v8.1l.03,2.95h-5.18l.03-2.95v-7.02c0-1.97-.76-2.92-2.22-2.92s-2.86.92-3.78,2.29v7.65l.03,2.95h-5.18l.03-2.95v-16.8l-.03-2.95h5.18l-.03,2.95v5.75Z" fill="#fff"/><polygon points="0 59.99 12.19 59.99 36.08 20.57 59.92 59.99 72.16 59.99 84.62 59.99 68.32 33.04 62.09 43.34 36.08 .35 0 59.99" fill="#fff"/><polygon points="68.32 9.73 56.74 28.86 62.09 37.75 68.32 27.45 88.09 59.99 98.73 59.99 68.32 9.73" fill="#fff"/><polygon points="36.1 26.21 15.64 59.99 56.56 59.99 36.1 26.21" fill="#fff"/></svg>