<?xml version="1.0" encoding="utf-8"?>
<!-- Generator: Adobe Illustrator 26.0.1, SVG Export Plug-In . SVG Version: 6.00 Build 0)  -->
<svg version="1.1" id="Layer_1" xmlns="http://www.w3.org/2000/svg" xmlns:xlink="http://www.w3.org/1999/xlink" x="0px" y="0px"
	 viewBox="0 0 172.4 50.7" style="enable-background:new 0 0 172.4 50.7;" xml:space="preserve">
<style type="text/css">
	.st0{fill:#696A6D;}
	.st1{fill:#00643C;}
</style>
<g>
	<g>
		<path class="st0" d="M78.8,1.3h-1.8V0.8h4.3v0.6h-1.8v4.9h-0.6V1.3z"/>
		<path class="st0" d="M83.6,0.8h0.6v2.4h3.2V0.8H88v5.5h-0.6V3.8h-3.2v2.5h-0.6V0.8z"/>
		<path class="st0" d="M90.7,0.8h4v0.6h-3.4v1.9h3v0.6h-3v1.9h3.4v0.6h-4V0.8z"/>
	</g>
</g>
<polygon class="st0" points="98.2,48.4 86.3,48.2 74.1,48.4 1.2,49 74.1,49.7 86.3,49.8 98.2,49.7 171.4,49.1 "/>
<g>
	<polygon class="st0" points="74.2,4.4 1.2,3.7 74.2,2.9 	"/>
	<polygon class="st0" points="98.4,4.4 171.4,3.7 98.4,2.9 	"/>
</g>
<g>
	<g>
		<g>
			<path class="st0" d="M3.1,32.7h1v4.1h5.3v-4.1h1v9.1h-1v-4.1H4.2v4.1h-1V32.7z"/>
			<path class="st0" d="M16.2,32.7h6.6v0.9h-5.6v3.1h5v0.9h-5v3.2h5.6v0.9h-6.7V32.7z"/>
			<path class="st0" d="M31.4,32.6h1l4.2,9.2h-1.1l-1.1-2.4h-5l-1.1,2.4h-1.1L31.4,32.6z M34,38.5l-2.1-4.7l-2.1,4.7H34z"/>
			<path class="st0" d="M41.5,32.7h1v8.2h5.1v1h-6.2V32.7z"/>
			<path class="st0" d="M53.8,33.6h-3.1v-1h7.2v1h-3.1v8.2h-1V33.6z"/>
			<path class="st0" d="M63,32.7h1v4.1h5.3v-4.1h1v9.1h-1v-4.1H64v4.1h-1V32.7z"/>
			<path class="st0" d="M83.1,32.7h1l5.8,7.3v-7.3h1v9.1H90l-5.9-7.5v7.5h-1V32.7z"/>
			<path class="st0" d="M96.5,32.7h6.6v0.9h-5.6v3.1h5v0.9h-5v3.2h5.6v0.9h-6.7V32.7z"/>
			<path class="st0" d="M110.8,33.6h-3.1v-1h7.2v1h-3.1v8.2h-1V33.6z"/>
			<path class="st0" d="M119.2,32.7h1.1l2.6,7.6l2.5-7.6h0.8l2.5,7.6l2.6-7.6h1.1l-3.3,9.2h-0.9l-2.5-7.4l-2.5,7.4h-0.9L119.2,32.7z
				"/>
			<path class="st0" d="M136.6,37.3L136.6,37.3c0-2.5,1.9-4.8,4.7-4.8c2.8,0,4.7,2.2,4.7,4.7v0c0,2.5-1.9,4.7-4.7,4.7
				C138.5,42,136.6,39.8,136.6,37.3z M144.9,37.3L144.9,37.3c0-2.1-1.5-3.8-3.6-3.8c-2.1,0-3.6,1.7-3.6,3.8v0c0,2.1,1.5,3.8,3.6,3.8
				C143.4,41,144.9,39.4,144.9,37.3z"/>
			<path class="st0" d="M151.3,32.7h3.9c1.1,0,2,0.3,2.6,0.9c0.4,0.4,0.7,1.1,0.7,1.8v0c0,1.5-1,2.4-2.5,2.7l2.8,3.7h-1.3l-2.7-3.6
				h-2.6v3.6h-1V32.7z M155.1,37.4c1.4,0,2.4-0.7,2.4-1.9v0c0-1.1-0.9-1.8-2.3-1.8h-2.8v3.7H155.1z"/>
			<path class="st0" d="M163.6,32.7h1v5.5l5.3-5.5h1.3l-3.9,4l4.1,5.2h-1.3l-3.5-4.4l-1.9,2v2.5h-1V32.7z"/>
		</g>
	</g>
	<g>
		<g>
			<g>
				<g>
					<path class="st1" d="M1.3,10.9c0.4,0,1.8,0.1,2.9,0.1c1.1,0,2.1-0.1,2.7-0.1c0.1,0.1,0.1,0.6,0,0.7c-0.5,0.1-0.8,0.1-1.1,0.2
						c-0.5,0.2-0.7,0.4-0.7,1.3c0,2.4,0,5.6,0,6.9c0,1,0.2,1.9,0.4,2.4c0.5,1.3,1.8,2.4,3.9,2.4c1.9,0,3.7-0.6,3.9-4.4
						c0.1-1.8,0.1-4.5,0-7c0-1.2-0.3-1.5-1-1.7c-0.3-0.1-0.7-0.1-1.1-0.2c-0.1-0.1-0.1-0.6,0-0.7c0.4,0,1.4,0.1,2.7,0.1
						c1,0,2-0.1,2.4-0.1c0.1,0.1,0.1,0.6,0,0.7c-0.3,0.1-0.7,0.1-0.9,0.2c-0.7,0.2-0.8,0.6-0.8,1.8c-0.1,4.9-0.1,6.7-0.5,8.4
						c-0.7,3.2-3.1,4.2-5.5,4.2c-3.6,0-5.1-1.7-5.4-4.3c-0.2-1.5-0.1-7.6-0.2-8.8c0-0.6-0.2-1-0.6-1.2c-0.2-0.1-0.8-0.2-1.2-0.2
						C1.2,11.5,1.2,11,1.3,10.9z"/>
					<path class="st1" d="M16.6,25c0.3-0.1,0.5-0.4,0.5-0.8c0-0.7,0-2.4,0-3.9c0-0.9,0-1.6,0-1.9c-0.1-0.3-0.3-0.6-1.2-0.9
						c0-0.1,0-0.5,0.1-0.6c0.9-0.1,2.2-0.6,2.8-0.9c0,0,0.1,0.1,0.1,0.2c0,0.3,0,1,0,1.4c0,0,0.1,0.1,0.1,0c1.2-1,2.3-1.6,3.1-1.6
						c1,0,1.7,0.5,2.2,1.2c0.4,0.7,0.6,1.7,0.6,2.8c0,1.3,0,3.5,0,4.3c0,0.2,0.1,0.4,0.2,0.5c0.4,0.2,0.7,0.2,1.1,0.3
						c0.1,0.1,0,0.6-0.1,0.7c-0.3,0-1-0.1-2.2-0.1c-1,0-1.7,0-2.2,0.1c-0.1-0.1-0.1-0.6,0-0.7c0.4,0,0.8-0.1,0.9-0.2
						c0.3-0.1,0.4-0.4,0.4-1c0-1.3,0-3.8-0.1-4.7c0-0.4-0.2-1-0.6-1.4c-0.3-0.3-0.7-0.6-1.4-0.6c-0.7,0-1.4,0.3-1.9,0.8
						c-0.1,0.1-0.2,0.4-0.2,0.9c0,1.7,0,4,0,5.1c0,0.6,0.1,0.7,0.4,0.8c0.2,0.1,0.6,0.1,0.9,0.2c0,0.1,0,0.6-0.1,0.7
						c-0.3,0-1-0.1-2.2-0.1c-1.1,0-1.9,0.1-2.2,0.1c-0.1-0.1-0.1-0.6,0-0.7C16.1,25.1,16.3,25,16.6,25z"/>
					<path class="st1" d="M31,25.8c-0.4,0-1.2-0.1-2.3-0.1c-0.9,0-1.8,0.1-2.2,0.1c-0.1-0.1-0.1-0.6,0-0.7c0.4,0,0.7-0.1,1-0.2
						c0.3-0.1,0.4-0.3,0.4-0.9c0-0.6,0-2.2,0-3.5c0-0.9,0-1.8,0-2.3c0-0.1,0-0.3-0.2-0.5c-0.2-0.3-0.6-0.4-1.1-0.6
						c-0.1-0.1,0-0.5,0.1-0.6c0.7,0,2.1-0.3,2.9-0.7c0,1.1,0,2.7,0,4.2c0,1.3,0,2.9,0,4c0,0.4,0.1,0.7,0.5,0.8
						c0.3,0.1,0.4,0.1,0.9,0.2C31.2,25.3,31.1,25.8,31,25.8z M29.3,13.7c-0.1,0.1-0.9,0.1-1,0c-0.3-0.2-0.5-0.5-0.6-1
						c0-0.1,0-0.6,0.1-0.7c0.2-0.2,0.7-0.4,1.1-0.4c0.4,0,0.6,0.1,0.7,0.2c0.1,0.2,0.2,0.5,0.2,0.7C29.8,13,29.6,13.4,29.3,13.7z"/>
					<path class="st1" d="M31.3,16.2c0.4,0,1.2,0.1,2.2,0.1c0.9,0,1.7,0,2.2-0.1c0.1,0.1,0.1,0.6,0,0.7c-0.3,0-0.7,0.1-0.9,0.2
						c-0.2,0.1-0.2,0.3-0.2,0.4c0.3,0.9,1.8,5.4,2,5.8c0,0,0.1,0,0.1,0c0.5-1.2,1.4-3.9,1.8-5c0.2-0.8,0.1-1-0.2-1.1
						c-0.3-0.1-0.6-0.2-1-0.2c0-0.1,0-0.6,0.1-0.7c0.2,0,1.2,0.1,2,0.1c0.8,0,1.6,0,1.8-0.1c0.1,0.1,0.1,0.6,0,0.7
						c-0.3,0-0.5,0.1-0.8,0.2c-0.4,0.2-0.6,0.5-0.9,1.1c-0.6,1.4-1.3,3.2-2.1,5.4c-0.4,1-0.6,1.7-0.7,2.3c-0.3,0-0.8,0-1.1,0
						c-0.2-0.6-0.4-1.3-0.7-2.1c-0.6-1.8-1.4-3.9-1.8-5c-0.5-1.3-0.6-1.5-1.1-1.7c-0.3-0.1-0.6-0.1-0.9-0.2
						C31.2,16.8,31.3,16.3,31.3,16.2z"/>
					<path class="st1" d="M48.7,23.6c0,0.2-0.1,0.6-0.1,0.6c-1,1.2-2.5,1.8-3.6,1.8c-1.2,0-2.1-0.4-2.8-1.2c-0.9-1-1.3-2.4-1.3-3.8
						c0-2.1,0.8-3.5,2-4.3c0.7-0.5,1.7-0.8,2.4-0.8c2.2,0,3,2.1,3.2,3.4c0,0.1,0.1,0.2,0.3,0.3c0,0.1-0.1,0.5-0.2,0.6
						c-0.9,0.3-4,0.5-5.9,0.5c-0.1,0-0.1,0.1-0.1,0.3c0,0.8,0.4,1.8,0.9,2.4c0.7,0.7,1.4,1.1,2.5,1.1c0.9,0,1.7-0.3,2.6-1
						C48.7,23.5,48.7,23.5,48.7,23.6z M42.7,19.6c0,0,0,0.2,0.1,0.2c0.7,0,3.4,0,3.8-0.1c0,0,0.1-0.1,0.1-0.2
						c-0.1-1.2-0.9-2.6-2.1-2.6C43.6,16.9,42.8,17.9,42.7,19.6z"/>
					<path class="st1" d="M56.4,16.5c0,0.1,0,0.3,0,0.4c0,0.3-0.5,1.2-0.7,1.5c0,0-0.2,0.1-0.2,0.1c-0.4-0.4-0.9-0.7-1.5-0.7
						c-0.5,0-0.9,0.5-1.2,1c-0.1,0.1-0.2,0.5-0.2,0.8c0,1.6,0,4.1,0,4.6c0,0.4,0.1,0.6,0.5,0.8c0.4,0.1,0.9,0.2,1.4,0.2
						c0,0.1,0,0.6-0.1,0.7c-0.3,0-1.7-0.1-2.6-0.1c-0.7,0-1.8,0-2.3,0.1c-0.1-0.1-0.1-0.6,0-0.7c0.3,0,0.6-0.1,0.9-0.2
						c0.2-0.1,0.4-0.2,0.4-0.7c0-0.4,0.1-2.4,0.1-4c0-0.9,0-1.6,0-1.9c0-0.3-0.2-0.6-1.2-1c0-0.1,0-0.5,0.1-0.5
						c0.8-0.1,2.1-0.5,2.8-0.9c0,0,0.1,0,0.1,0.1c0,0.3,0,1.4,0,1.8c0,0.1,0.1,0.1,0.1,0c0.4-0.6,0.9-1.1,1.4-1.5
						c0.4-0.3,0.7-0.5,1.2-0.5S56.2,16.1,56.4,16.5z"/>
					<path class="st1" d="M62.9,18.7c-0.1,0.1-0.5,0.1-0.6,0c-0.1-1-0.3-1.5-0.8-1.8c-0.3-0.2-0.7-0.3-1.1-0.3
						c-0.8,0-1.4,0.5-1.4,1.4c0,0.8,0.4,1.3,2.1,2.2c1.9,0.9,2.3,1.7,2.3,2.9c0,1.7-1.5,3-3.5,3c-0.8,0-1.8-0.2-2.4-0.5
						c-0.2-0.6-0.4-2.1-0.4-2.6c0.1-0.1,0.5-0.3,0.7-0.2c0.3,1.2,0.7,1.9,1.3,2.2c0.3,0.2,0.8,0.3,1.1,0.3c0.9,0,1.5-0.5,1.5-1.3
						c0-0.9-0.4-1.3-1.8-2c-1.8-1-2.5-1.8-2.5-3.1c0-1.5,1.1-2.8,3.3-2.8c0.5,0,1.1,0.1,1.5,0.1c0.4,0.1,0.7,0.1,0.9,0.1
						C63,17,63,17.7,62.9,18.7z"/>
					<path class="st1" d="M68.7,25.8c-0.4,0-1.2-0.1-2.3-0.1c-0.9,0-1.8,0.1-2.2,0.1c-0.1-0.1-0.1-0.6,0-0.7c0.4,0,0.7-0.1,1-0.2
						c0.3-0.1,0.4-0.3,0.4-0.9c0-0.6,0-2.2,0-3.5c0-0.9,0-1.8,0-2.3c0-0.1,0-0.3-0.2-0.5c-0.2-0.3-0.6-0.4-1.1-0.6
						c-0.1-0.1,0-0.5,0.1-0.6c0.7,0,2.1-0.3,2.9-0.7c0,1.1,0,2.7,0,4.2c0,1.3,0,2.9,0,4c0,0.4,0.1,0.7,0.5,0.8
						c0.3,0.1,0.4,0.1,0.9,0.2C68.9,25.3,68.8,25.8,68.7,25.8z M67,13.7c-0.1,0.1-0.9,0.1-1,0c-0.3-0.2-0.5-0.5-0.6-1
						c0-0.1,0-0.6,0.1-0.7c0.2-0.2,0.7-0.4,1.1-0.4c0.4,0,0.6,0.1,0.7,0.2c0.1,0.2,0.2,0.5,0.2,0.7C67.5,13,67.3,13.4,67,13.7z"/>
					<path class="st1" d="M71.8,17.5c0,0-0.1,0.1-0.1,0.1c0,1.1,0,3.2,0,4.4c0,1,0,1.4,0.1,1.7c0.2,0.6,0.8,0.9,1.3,0.9
						c0.6,0,0.9-0.1,1.4-0.4c0,0.1,0,0.6-0.1,0.7c-0.6,0.7-1.5,1.1-2.2,1.1c-0.9,0-1.6-0.4-2-1.2C70,24.3,70,23.7,70,22.2
						c0-1.4,0-3.5,0-4.5c0-0.1,0-0.2-0.1-0.2c-0.3,0-0.9-0.1-1.2-0.1c0-0.1,0.1-0.7,0.2-0.8c0.3,0,0.9-0.2,1.1-0.3
						c0,0,0.1-0.1,0.1-0.2c0-0.3,0-1.7,0-2c0.4-0.2,1.2-0.8,1.4-1.1c0.1,0,0.3,0,0.4,0c0,0.4-0.1,1.5-0.1,3.2c0,0,0,0.1,0.1,0.1
						c1.1,0,2.4-0.1,2.8-0.1c-0.1,0.3-0.2,1-0.2,1.3C73.8,17.5,72.6,17.5,71.8,17.5z"/>
					<path class="st1" d="M78.9,30.3c-0.3,0.5-0.5,1-0.7,1.3l-0.2,0.1c-0.3-0.1-1-0.4-1.2-0.6c0-0.1,0-0.3,0-0.4
						c0.7-1,2.5-3.4,3.3-5.3c0,0-0.1-0.3-0.2-0.4c-0.5-1.4-1.5-4-2.2-5.8c-0.6-1.6-0.8-2-1.5-2.2c-0.2,0-0.4-0.1-0.8-0.1
						c-0.1-0.1,0-0.6,0.1-0.7c0.4,0,1.2,0.1,2.2,0.1c1,0,2-0.1,2.3-0.1c0.1,0.1,0.1,0.6,0,0.7c-0.3,0.1-0.7,0.1-0.8,0.2
						c-0.2,0.1-0.2,0.3-0.2,0.4c0.4,1.4,1.9,5.4,2,5.8c0,0,0.1,0,0.1,0c0.7-1.6,1.7-4.3,1.8-5.5c0-0.3,0-0.6-0.4-0.7
						c-0.2-0.1-0.6-0.1-1-0.2c-0.1-0.1,0-0.6,0.1-0.7c0.3,0,1.2,0.1,1.9,0.1c0.8,0,1.5,0,2.1-0.1c0.1,0.1,0.1,0.6,0,0.7
						c-0.3,0-0.6,0.1-0.8,0.2c-0.4,0.1-0.7,0.5-0.9,1.1"/>
				</g>
			</g>
		</g>
		<g>
			<g>
				<g>
					<path class="st1" d="M98.9,10.9c0.5,0,1.8,0.1,2.8,0.1c1.4,0,2.5-0.1,2.9-0.1c0.1,0,0.1,0.6,0,0.7c-0.5,0.1-0.9,0.2-1.2,0.3
						c-0.4,0.1-0.4,0.4-0.3,0.7c0.7,2.1,3.2,9.4,3.7,10.5c0,0,0.1,0,0.1,0c0.5-1.3,2.9-7.7,3.6-9.8c0.3-0.9,0.2-1.2-0.5-1.4
						c-0.3-0.1-0.7-0.1-1.2-0.2c-0.1-0.1,0-0.6,0.1-0.7c0.4,0,1.3,0.1,2.7,0.1c1.2,0,1.8-0.1,2.4-0.1c0.1,0.1,0.1,0.6,0,0.7
						c-0.4,0.1-0.7,0.1-1,0.2c-0.7,0.2-0.9,0.7-1.4,2.1c-0.7,1.7-2.2,5.7-3.3,8.7c-0.5,1.4-0.9,2.6-1.2,3.4c-0.3-0.1-1-0.1-1.4,0
						c-0.2-0.9-0.5-2-1-3.3c-1.1-3.2-2.5-7.2-3.2-9c-0.5-1.3-0.8-1.7-1.4-1.9c-0.3-0.1-0.6-0.1-1.1-0.2C98.7,11.5,98.8,11,98.9,10.9
						z"/>
					<path class="st1" d="M119,23.6c0,0.2-0.1,0.6-0.1,0.6c-1,1.2-2.5,1.8-3.6,1.8c-1.2,0-2.1-0.4-2.8-1.2c-0.9-1-1.3-2.4-1.3-3.8
						c0-2.1,0.8-3.5,2-4.3c0.7-0.5,1.7-0.8,2.4-0.8c2.2,0,3,2.1,3.2,3.4c0,0.1,0.1,0.2,0.3,0.3c0,0.1-0.1,0.5-0.2,0.6
						c-0.9,0.3-4,0.5-5.9,0.5c-0.1,0-0.1,0.1-0.1,0.3c0,0.8,0.4,1.8,0.9,2.4c0.7,0.7,1.4,1.1,2.5,1.1c0.9,0,1.7-0.3,2.6-1
						C118.9,23.5,119,23.5,119,23.6z M113,19.6c0,0,0,0.2,0.1,0.2c0.7,0,3.4,0,3.8-0.1c0,0,0.1-0.1,0.1-0.2
						c-0.1-1.2-0.9-2.6-2.1-2.6C113.9,16.9,113.1,17.9,113,19.6z"/>
					<path class="st1" d="M127.1,16.5c0,0.1,0,0.3,0,0.4c0,0.3-0.5,1.2-0.7,1.5c0,0-0.2,0.1-0.2,0.1c-0.4-0.4-0.9-0.7-1.5-0.7
						c-0.5,0-0.9,0.5-1.2,1c-0.1,0.1-0.2,0.5-0.2,0.8c0,1.6,0,4.1,0,4.6c0,0.4,0.1,0.6,0.5,0.8c0.4,0.1,0.9,0.2,1.4,0.2
						c0,0.1,0,0.6-0.1,0.7c-0.3,0-1.7-0.1-2.6-0.1c-0.7,0-1.8,0-2.3,0.1c-0.1-0.1-0.1-0.6,0-0.7c0.3,0,0.6-0.1,0.9-0.2
						c0.2-0.1,0.4-0.2,0.4-0.7c0-0.4,0.1-2.4,0.1-4c0-0.9,0-1.6,0-1.9c0-0.3-0.2-0.6-1.2-1c0-0.1,0-0.5,0.1-0.5
						c0.8-0.1,2.1-0.5,2.8-0.9c0,0,0.1,0,0.1,0.1c0,0.3,0,1.4,0,1.8c0,0.1,0.1,0.1,0.1,0c0.4-0.6,0.9-1.1,1.4-1.5
						c0.4-0.3,0.7-0.5,1.2-0.5C126.4,15.9,126.9,16.1,127.1,16.5z"/>
					<path class="st1" d="M129,24.9c0.4-0.1,0.5-0.4,0.5-0.9c0.1-1.3,0.1-3.8,0.1-5.4c0-0.1,0-0.5-0.2-0.7c-0.2-0.2-0.6-0.4-1.1-0.5
						c-0.1-0.1,0-0.5,0.1-0.6c1-0.1,2.2-0.5,2.8-0.9c0,0,0,0.1,0.1,0.1c0,0.2,0,1,0,1.4c0,0,0.1,0.1,0.1,0c1.3-1.1,2.4-1.5,3.1-1.5
						c1.1,0,1.8,0.7,2.3,1.6c0,0.1,0.1,0,0.2,0c1.2-1,2.3-1.6,3.2-1.6c1.7,0,2.8,1.4,2.8,3.9c0,1.3,0,3.5,0,4.5
						c0,0.2,0.1,0.4,0.2,0.5c0.3,0.2,0.6,0.2,1.2,0.3c0,0.1,0,0.6-0.1,0.7c-0.4,0-1.2-0.1-2.1-0.1c-1.1,0-1.7,0-2.3,0.1
						c-0.1-0.1-0.1-0.6,0-0.7c0.4-0.1,0.6-0.1,0.9-0.2c0.3-0.1,0.4-0.4,0.4-1.2c0-1.3,0.1-3.8-0.1-4.5c-0.1-0.8-0.6-1.8-2-1.8
						c-0.6,0-1.3,0.3-2,0.9c0,0,0,0.1,0,0.2c0.1,0.5,0.1,1,0.1,1.7c0,1.3,0,3.2,0,4.2c0,0.3,0.2,0.5,0.4,0.6c0.3,0.1,0.5,0.1,1,0.2
						c0.1,0.1,0,0.6-0.1,0.7c-0.6,0-1.3-0.1-2.3-0.1c-0.7,0-1.7,0.1-2.1,0.1c-0.1-0.1-0.1-0.6,0-0.7c0.4-0.1,0.6-0.1,0.9-0.2
						c0.3-0.1,0.4-0.3,0.4-0.8c0.1-1.1,0.1-4.3,0-5c-0.1-0.7-0.6-1.8-1.9-1.8c-0.5,0-1.2,0.2-1.8,0.7c-0.2,0.1-0.3,0.3-0.3,0.6
						c0,1.6,0,4.5,0,5.6c0,0.3,0.1,0.6,0.5,0.7c0.2,0,0.5,0.1,0.9,0.2c0.1,0.1,0,0.6,0,0.7c-0.5,0-1.3-0.1-2.2-0.1
						c-1.2,0-1.6,0.1-2.2,0.1c-0.1-0.1-0.1-0.6,0-0.7C128.5,25.1,128.8,25,129,24.9z"/>
					<path class="st1" d="M153.8,20.8c0,1.8-0.7,3.5-2.1,4.4c-0.6,0.4-1.7,0.9-2.6,0.9c-3.3,0-4.5-2.7-4.5-5.1c0-1.9,0.8-3.2,2-4
						c0.8-0.6,1.9-1,3-1C152.2,15.9,153.8,18.1,153.8,20.8z M147.7,17.2c-0.6,0.4-1.2,1.3-1.2,3.1c0,2.8,1.3,4.8,3.1,4.8
						c0.5,0,1-0.1,1.4-0.5c0.6-0.6,0.9-1.6,0.9-3c0-2.8-1.2-4.7-3.1-4.7C148.4,16.9,148,17,147.7,17.2z"/>
					<path class="st1" d="M155.3,25c0.3-0.1,0.5-0.4,0.5-0.8c0-0.7,0-2.4,0-3.9c0-0.9,0-1.6,0-1.9c-0.1-0.3-0.3-0.6-1.2-0.9
						c0-0.1,0-0.5,0.1-0.6c0.9-0.1,2.2-0.6,2.8-0.9c0,0,0.1,0.1,0.1,0.2c0,0.3,0,1,0,1.4c0,0,0.1,0.1,0.1,0c1.2-1,2.3-1.6,3.1-1.6
						c1,0,1.7,0.5,2.2,1.2c0.4,0.7,0.6,1.7,0.6,2.8c0,1.3,0,3.5,0,4.3c0,0.2,0.1,0.4,0.2,0.5c0.4,0.2,0.7,0.2,1.1,0.3
						c0.1,0.1,0,0.6-0.1,0.7c-0.3,0-1-0.1-2.2-0.1c-1,0-1.7,0-2.2,0.1c-0.1-0.1-0.1-0.6,0-0.7c0.4,0,0.8-0.1,0.9-0.2
						c0.3-0.1,0.4-0.4,0.4-1c0-1.3,0-3.8-0.1-4.7c0-0.4-0.2-1-0.6-1.4c-0.3-0.3-0.7-0.6-1.4-0.6c-0.7,0-1.4,0.3-1.9,0.8
						c-0.1,0.1-0.2,0.4-0.2,0.9c0,1.7,0,4,0,5.1c0,0.6,0.1,0.7,0.4,0.8c0.2,0.1,0.6,0.1,0.9,0.2c0,0.1,0,0.6-0.1,0.7
						c-0.3,0-1-0.1-2.2-0.1c-1.1,0-1.9,0.1-2.2,0.1c-0.1-0.1-0.1-0.6,0-0.7C154.8,25.1,155,25,155.3,25z"/>
					<path class="st1" d="M168.4,17.5c0,0-0.1,0.1-0.1,0.1c0,1.1,0,3.2,0,4.4c0,1,0,1.4,0.1,1.7c0.2,0.6,0.8,0.9,1.3,0.9
						c0.6,0,0.9-0.1,1.4-0.4c0,0.1,0,0.6-0.1,0.7c-0.6,0.7-1.5,1.1-2.2,1.1c-0.9,0-1.6-0.4-2-1.2c-0.3-0.6-0.3-1.2-0.3-2.7
						c0-1.4,0-3.5,0-4.5c0-0.1,0-0.2-0.1-0.2c-0.3,0-0.9-0.1-1.2-0.1c0-0.1,0.1-0.7,0.2-0.8c0.3,0,0.9-0.2,1.1-0.3
						c0,0,0.1-0.1,0.1-0.2c0-0.3,0-1.7,0-2c0.4-0.2,1.2-0.8,1.4-1.1c0.1,0,0.3,0,0.4,0c0,0.4-0.1,1.5-0.1,3.2c0,0,0,0.1,0.1,0.1
						c1.1,0,2.4-0.1,2.8-0.1c-0.1,0.3-0.2,1-0.2,1.3C170.4,17.5,169.3,17.5,168.4,17.5z"/>
				</g>
			</g>
		</g>
		<g>
			<g>
				<path class="st1" d="M92.8,20.3c0,1.4-0.6,2.6-1.8,3.3c-0.5,0.3-1.2,0.5-1.7,0.5c-1,0-1.5-0.8-1.5-1.9c0-1.1,0.4-2.4,1.4-3
					c0.6-0.4,1.4-0.7,2-0.7C92.3,18.5,92.8,19.4,92.8,20.3z M90.1,23.4c0.8,0,1.3-1.5,1.3-2.8c0-0.7-0.1-1.5-0.8-1.5
					c-0.8,0-1.3,1.5-1.3,2.8C89.3,23,89.5,23.4,90.1,23.4z"/>
				<path class="st1" d="M93.7,19.2c0.1-0.2,0.4-0.5,0.5-0.5h0.5c0,0,0.1-0.1,0.1-0.1c0.3-1.4,0.8-2.2,1.8-2.9
					c0.5-0.3,1.1-0.6,1.4-0.6c0.3,0,0.6,0.1,0.6,0.3c0,0.2-0.4,0.8-0.7,0.9c0,0-0.1,0.1-0.2,0C97.5,16.2,97.2,16,97,16
					c-0.2,0-0.3,0.2-0.4,0.5c-0.2,0.5-0.3,1.2-0.4,2.2c0,0.1,0,0.1,0.1,0.1c0.5,0,0.9,0,1.2-0.1c0,0.1,0,0.3-0.1,0.3
					c-0.2,0.2-0.6,0.3-0.9,0.4c-0.1,0-0.3,0-0.4,0c0,0-0.1,0.1-0.1,0.1c-0.2,1.5-0.5,3.2-0.7,4.6c-0.4,2-2.2,3.2-3.1,3.2
					c-0.5,0-0.8-0.2-0.8-0.5c0-0.3,0.1-0.7,0.3-0.9c0,0,0.1-0.1,0.2-0.1c0.4,0.5,0.8,0.8,1.2,0.8c0.4,0,0.5-0.3,0.7-1.2
					c0.3-1.9,0.8-4.7,0.9-5.7c0,0,0-0.1-0.1-0.1c-0.3,0-0.7,0-0.9,0C93.7,19.3,93.7,19.2,93.7,19.2z"/>
			</g>
		</g>
	</g>
</g>
</svg>
