<?xml version="1.0" encoding="UTF-8"?><svg id="a" xmlns="http://www.w3.org/2000/svg" width="4.87in" height=".84in" viewBox="0 0 350.45 60.52"><polygon points="13.08 59.99 55.64 59.99 34.36 23.13 13.08 59.99" fill="#82c341"/><polygon points="0 59.99 13.08 59.99 34.36 23.13 55.64 59.99 68.71 59.99 68.71 59.99 80.58 59.99 65.05 33.1 59.12 43.37 34.36 .48 0 59.99" fill="#00643c"/><polygon points="52.58 32.05 59.12 43.37 65.05 33.1 65.05 33.1 65.05 33.1 71.42 44.12 80.58 59.99 93.66 59.99 65.05 10.45 52.58 32.05" fill="#82c341"/><path d="M112.46,3.46v11.62c0,1.3.29,2.38,1.11,3.21.73.73,1.84,1.17,3.33,1.17s2.54-.44,3.21-1.11c.83-.83,1.11-1.97,1.11-3.24V3.46l-.03-2.98h5.05l-.03,2.98v11.59c0,2.38-.54,4.67-2.29,6.38-1.56,1.52-4.03,2.35-7.21,2.35-3.37,0-5.97-.89-7.53-2.38-1.87-1.81-2.19-4.22-2.19-7.08V3.46l-.03-2.98h5.52l-.03,2.98Z" fill="#636466"/><path d="M141.13,23.18l.03-2.95v-7.02c0-1.97-.76-2.92-2.22-2.92s-2.86.92-3.78,2.29v7.65l.03,2.95h-5.18l.03-2.95v-10.35l-.03-2.95h4.95v2.51h.06c1.52-1.87,3.56-2.98,6-2.98,3.21,0,5.24,1.81,5.24,5.68v8.1l.03,2.95h-5.18Z" fill="#636466"/><path d="M150.14,23.18l.03-2.95v-10.35l-.03-2.95h5.18l-.03,2.95v10.35l.03,2.95h-5.18ZM150.17,4.89V.48h5.11v4.41h-5.11Z" fill="#636466"/><path d="M157.73,6.92h5.3l3.62,10.7h.06l3.49-10.7h4.35l-5.91,16.26h-4.89l-6.03-16.26Z" fill="#636466"/><path d="M192.08,19.69c-.89,1.49-3.27,4.03-8,4.03-5.14,0-8.79-3.02-8.79-8.38s3.71-8.92,8.54-8.92c6.22,0,8.64,4.79,8.51,9.53h-12.22c.13,3.08,1.78,4.38,4.1,4.38,1.97,0,3.4-1.14,4-2l3.87,1.37ZM180.24,13.18h6.99c0-2-1.11-3.56-3.37-3.56-1.91,0-3.21,1.08-3.62,3.56Z" fill="#636466"/><path d="M195.39,20.23v-10.35l-.03-2.95h4.67v4.13h.06c1.21-3.21,3.3-4.6,5.43-4.6.29,0,.51.03.7.06v4.6c-.38-.09-.79-.16-1.17-.16-2.6,0-4.29,2.73-4.54,5.4v3.87l.03,2.95h-5.18l.03-2.95Z" fill="#636466"/><path d="M209.83,18.23c1.59,1.08,3.27,2.16,6.07,2.16,1.81,0,2.98-.44,2.98-1.59,0-1.56-2.29-1.62-4.6-2-2.99-.48-6.07-1.46-6.07-4.79,0-2.99,2.45-5.72,7.14-5.72,2.99,0,5.91,1.11,7.49,2.38l-2.03,2.95c-1.14-.83-2.76-1.91-5.21-1.91-1.71,0-2.73.54-2.73,1.52,0,1.43,2.1,1.49,4.29,1.84,3.08.48,6.38,1.49,6.38,5.02,0,3.02-2.45,5.72-7.68,5.72-3.56,0-6.41-1.24-8.07-2.64l2.03-2.95Z" fill="#636466"/><path d="M226.47,23.18l.03-2.95v-10.35l-.03-2.95h5.18l-.03,2.95v10.35l.03,2.95h-5.18ZM226.5,4.89V.48h5.11v4.41h-5.11Z" fill="#636466"/><path d="M246.25,10.38h-3.91v7.75c0,1.3.38,1.84,1.78,1.84.73,0,1.65-.22,2.22-.38v3.43c-.76.41-2.03.7-3.65.7-3.75,0-5.46-1.3-5.46-5.21v-8.13h-2.7v-3.46h2.86l.51-5.08h4.45v5.08h3.91v3.46Z" fill="#636466"/><path d="M249.11,26.04c.44.06,1.14.09,1.56.09,2.03,0,2.76-.73,3.68-3.49l-6.41-15.72h5.43l3.68,10.03h.06l3.43-10.03h4.32l-6.51,17.27c-1.33,3.56-3.62,5.65-7.49,5.65-.83,0-1.27-.1-1.75-.19v-3.62Z" fill="#636466"/><path d="M273.14,15.08c0-4.7,3.49-8.67,8.92-8.67s8.89,3.97,8.89,8.67-3.46,8.64-8.89,8.64-8.92-4-8.92-8.64ZM285.62,15.08c0-3.68-1.46-5.27-3.56-5.27s-3.59,1.59-3.59,5.27,1.46,5.24,3.59,5.24,3.56-1.59,3.56-5.24Z" fill="#636466"/><path d="M292.22,6.92h2.76v-.6c-.09-5.33,1.94-6.32,5.56-6.32,1.56,0,2.41.19,3.02.38v3.21c-.38-.13-1.08-.25-1.68-.25-1.62-.03-1.84,1.11-1.78,3.02v.57h3.46v3.46h-3.46v9.84l.03,2.95h-5.18l.03-2.95v-9.84h-2.76v-3.46Z" fill="#636466"/><path d="M104.87,37.28h6.13l5.18,16.16h.06l4.89-16.16h5.37l-7.59,22.7h-6l-8.03-22.7Z" fill="#636466"/><path d="M142.14,56.49c-.89,1.49-3.27,4.03-8,4.03-5.14,0-8.79-3.02-8.79-8.38s3.71-8.92,8.54-8.92c6.22,0,8.64,4.79,8.51,9.53h-12.22c.13,3.08,1.78,4.38,4.1,4.38,1.97,0,3.4-1.14,4-2l3.87,1.37ZM130.3,49.98h6.99c0-2-1.11-3.56-3.37-3.56-1.91,0-3.21,1.08-3.62,3.56Z" fill="#636466"/><path d="M145.51,57.03v-10.35l-.03-2.95h4.67v4.13h.06c1.21-3.21,3.3-4.6,5.43-4.6.29,0,.51.03.7.06v4.6c-.38-.09-.79-.16-1.17-.16-2.6,0-4.29,2.73-4.54,5.4v3.87l.03,2.95h-5.18l.03-2.95Z" fill="#636466"/><path d="M169.61,59.98l.03-2.95v-7.02c0-2-.73-2.92-2.25-2.92-1.24,0-2.45.95-3.27,2.32v7.62l.03,2.95h-5.18l.03-2.95v-10.35l-.03-2.95h4.95v2.45h.06c1.43-1.81,3.27-2.92,5.56-2.92s4.16.73,4.86,2.98h.06c1.46-1.84,3.4-2.98,5.75-2.98,3.21,0,5.21,1.81,5.21,5.68v8.1l.03,2.95h-5.14l.03-2.95v-7.02c0-2-.79-2.92-2.25-2.92-1.27,0-2.51.95-3.33,2.32v7.62l.03,2.95h-5.18Z" fill="#636466"/><path d="M188.08,51.88c0-4.7,3.49-8.67,8.92-8.67s8.89,3.97,8.89,8.67-3.46,8.64-8.89,8.64-8.92-4-8.92-8.64ZM200.56,51.88c0-3.68-1.46-5.27-3.56-5.27s-3.59,1.59-3.59,5.27,1.46,5.24,3.59,5.24,3.56-1.59,3.56-5.24Z" fill="#636466"/><path d="M219.9,59.98l.03-2.95v-7.02c0-1.97-.76-2.92-2.22-2.92s-2.86.92-3.78,2.29v7.65l.03,2.95h-5.18l.03-2.95v-10.35l-.03-2.95h4.95v2.51h.06c1.52-1.87,3.56-2.98,6-2.98,3.21,0,5.24,1.81,5.24,5.68v8.1l.03,2.95h-5.18Z" fill="#636466"/><path d="M239.11,47.18h-3.91v7.75c0,1.3.38,1.84,1.78,1.84.73,0,1.65-.22,2.22-.38v3.43c-.76.41-2.03.7-3.65.7-3.75,0-5.46-1.3-5.46-5.21v-8.13h-2.7v-3.46h2.86l.51-5.08h4.45v5.08h3.91v3.46Z" fill="#636466"/><path d="M264.57,59.98l.03-2.98v-6.51h-9.02v6.51l.03,2.98h-5.52l.03-2.98v-16.73l-.03-2.98h5.52l-.03,2.98v6.13h9.02v-6.13l-.03-2.98h5.52l-.03,2.98v16.73l.03,2.98h-5.52Z" fill="#00643c"/><path d="M289.75,56.49c-.89,1.49-3.27,4.03-8,4.03-5.14,0-8.79-3.02-8.79-8.38s3.71-8.92,8.54-8.92c6.22,0,8.64,4.79,8.51,9.53h-12.22c.13,3.08,1.78,4.38,4.1,4.38,1.97,0,3.4-1.14,4-2l3.87,1.37ZM277.9,49.98h6.99c0-2-1.11-3.56-3.37-3.56-1.91,0-3.21,1.08-3.62,3.56Z" fill="#00643c"/><path d="M292.7,47.28c1.24-2.92,4.13-4.06,7.84-4.06,4.32,0,7.49,1.56,7.49,6.13v7.18c0,1.4.16,2.64.29,3.46h-4.73c-.13-.7-.19-1.37-.25-1.97h-.06c-1.08,1.27-2.7,2.45-5.62,2.45-3.56,0-5.75-1.84-5.75-4.67,0-4.48,5.56-5.94,11.24-5.94v-.7c0-1.84-.95-2.79-2.92-2.79-1.65,0-2.48.67-3.37,2l-4.16-1.08ZM303.15,53.47v-1.14c-2.73.03-6,.76-6,2.95,0,1.21.83,1.94,2.22,1.94,1.68,0,3.78-1.24,3.78-3.75Z" fill="#00643c"/><path d="M316.96,57.03s.03,2.95.03,2.95h-5.18s.03-2.92.03-2.95v-16.8l-.03-2.95h5.18l-.03,2.95v16.8Z" fill="#00643c"/><path d="M331.18,47.18h-3.91v7.75c0,1.3.38,1.84,1.78,1.84.73,0,1.65-.22,2.22-.38v3.43c-.76.41-2.03.7-3.65.7-3.75,0-5.46-1.3-5.46-5.21v-8.13h-2.7v-3.46h2.86l.51-5.08h4.45v5.08h3.91v3.46Z" fill="#00643c"/><path d="M339.31,45.98h.06c1.49-1.71,3.46-2.73,5.81-2.73,3.21,0,5.24,1.81,5.24,5.68v8.1l.03,2.95h-5.18l.03-2.95v-7.02c0-1.97-.76-2.92-2.22-2.92s-2.86.92-3.78,2.29v7.65l.03,2.95h-5.18l.03-2.95v-16.8l-.03-2.95h5.18l-.03,2.95v5.75Z" fill="#00643c"/></svg>