<?xml version="1.0" encoding="utf-8"?>
<!-- Generator: Adobe Illustrator 27.8.1, SVG Export Plug-In . SVG Version: 6.00 Build 0)  -->
<!DOCTYPE svg PUBLIC "-//W3C//DTD SVG 1.1//EN" "http://www.w3.org/Graphics/SVG/1.1/DTD/svg11.dtd" [
	<!ENTITY ns_extend "http://ns.adobe.com/Extensibility/1.0/">
	<!ENTITY ns_ai "http://ns.adobe.com/AdobeIllustrator/10.0/">
	<!ENTITY ns_graphs "http://ns.adobe.com/Graphs/1.0/">
	<!ENTITY ns_vars "http://ns.adobe.com/Variables/1.0/">
	<!ENTITY ns_imrep "http://ns.adobe.com/ImageReplacement/1.0/">
	<!ENTITY ns_sfw "http://ns.adobe.com/SaveForWeb/1.0/">
	<!ENTITY ns_custom "http://ns.adobe.com/GenericCustomNamespace/1.0/">
	<!ENTITY ns_adobe_xpath "http://ns.adobe.com/XPath/1.0/">
]>
<svg version="1.1" id="Layer_1" xmlns:x="&ns_extend;" xmlns:i="&ns_ai;" xmlns:graph="&ns_graphs;"
	 xmlns="http://www.w3.org/2000/svg" xmlns:xlink="http://www.w3.org/1999/xlink" x="0px" y="0px" viewBox="0 0 791.3 265.1"
	 style="enable-background:new 0 0 791.3 265.1;" xml:space="preserve">
<style type="text/css">
	.st0{fill:#010101;}
</style>
<metadata>
	<sfw  xmlns="&ns_sfw;">
		<slices></slices>
		<sliceSourceBounds  bottomLeftOrigin="true" height="265.1" width="791.3" x="-89.9" y="-528.2"></sliceSourceBounds>
	</sfw>
</metadata>
<path class="st0" d="M388.3,154c42.9,3.5,80.5-28.3,84-71.2c1.4-16.7-2.7-33.4-11.5-47.7c-9.6-16.6-26.3-27.8-45.2-30.4
	c-0.7-0.1-1.4,0.3-1.7,0.9c-0.5,0.9-0.2,1.9,0.7,2.4l0,0c7.5,4,14.5,8.8,20.9,14.3c6.3,5.3,11.7,11.6,16,18.6
	c19,31.5,8.9,72.4-22.5,91.4c-26.6,16.1-60.9,11.6-82.4-10.9C335,109.7,328.4,94,328.1,77.6c-0.4-16.3,5.2-32.3,15.7-44.8
	c10.7-12.5,25.3-21.1,41.4-24.4c2.3-0.5,3.7-2.8,3.1-5.1C387.8,1.3,386-0.1,384,0c-19.2,1.4-37,10.5-49.4,25.2
	c-27.9,33.1-23.8,82.6,9.4,110.6C356.4,146.4,371.9,152.7,388.3,154z"/>
<path class="st0" d="M272.6,261.6c10.4-23.2,27.4-42.7,48.9-56.3c44.3-27.7,100.3-28.2,145.1-1.3c22.1,13.5,39.8,33.2,50.7,56.7
	c0.7,1.4,2.3,2,3.7,1.4c1.4-0.6,2.1-2.3,1.5-3.7c0,0,0,0,0,0c-10.7-25.1-28.8-46.4-51.9-61c-47.2-30.1-107.5-30.6-155.2-1.4
	c-23.6,14.4-42.4,35.5-53.8,60.7l0,0c-1.3,3,0,6.6,3.1,7.9C267.7,265.9,271.3,264.6,272.6,261.6L272.6,261.6z"/>
<path class="st0" d="M673.2,48.9c-3,0-5.4,2.4-5.4,5.4v15.9c-15,2.6-25.9,15.6-25.9,30.8c0,17.6,19.5,28,29.8,31
	c19.7,5.8,22,14.5,22,20.7c0,11.3-9.2,20.5-20.5,20.5c-7.6,0-14.5-4.2-18.1-10.9c-1.2-2.7-4.4-4-7.2-2.7c-2.7,1.2-4,4.4-2.7,7.2
	c0.1,0.2,0.2,0.4,0.4,0.7c4.5,8.5,12.7,14.4,22.2,16.1v16.1c0,3,2.4,5.4,5.4,5.4c3,0,5.4-2.4,5.4-5.4v-16
	c15-2.6,25.9-15.6,25.9-30.8c0-14.8-10-25.4-29.8-31.1c-8.5-2.5-22-10.3-22-20.6c0-11.3,9.1-20.5,20.4-20.5
	c8.3,0,15.7,4.9,18.9,12.5c0.8,2.9,3.8,4.6,6.7,3.8c2.9-0.8,4.6-3.8,3.8-6.7c-0.1-0.5-0.3-1-0.6-1.4c-4.1-9.8-13-16.8-23.4-18.6v-16
	C678.5,51.4,676.2,49,673.2,48.9z"/>
<path class="st0" d="M719.3,17.3C676.8-0.7,627.8,7.8,593.8,39c-22.2,20.3-35.9,48.3-38.3,78.3c-1.3,14.8,0.5,29.8,5.2,43.9
	c4.6,14,12.4,26.7,22.7,37.2l2.8-2.2c-7.1-11.8-12.5-24.6-16.1-37.9c-3.5-13.1-4.7-26.7-3.6-40.2c2.3-27.1,14.9-52.4,35.1-70.6
	c43.7-39.1,110.8-35.4,149.9,8.3c16.6,18.6,26.2,42.4,27,67.3c1,27.1-8.2,53.7-25.9,74.3C735,218,710.1,231.1,683.1,234
	c-13.5,1.3-27.1,0.2-40.1-3.4c-13.3-3.6-26.1-8.8-38.2-15.4l-1.8,2.2c10.1,10.9,22.8,18.9,37,23.3c14.3,4.4,29.3,5.9,44.1,4.5
	c45.8-4.4,84.9-34.9,100.3-78.3c5-14.1,7.3-29.1,6.8-44.1C789.9,76.6,761.9,35.4,719.3,17.3z"/>
<path class="st0" d="M25.6,147.4c0.4,0.5,1.1,0.6,1.7,0.4c0.8-0.3,1.1-1.2,0.8-2c0,0,0,0,0,0l0,0c-3.8-9.4-8.2-18.2-11-27.6
	c-3-9.1-4.9-18.4-5.6-28c-0.7-9.3,0.6-18.6,3.8-27.4c3.2-8.6,8.3-16.3,15.1-22.6c13.2-12.9,32.5-17.4,50.1-11.8
	c8.5,3.2,15.9,8.5,21.6,15.5c5.9,7.3,10.5,15.4,13.6,24.2l0,0c0.6,1.7,1.9,3.1,3.6,3.8c3.3,1.4,7.1-0.2,8.5-3.5
	c2.6-7.1,6.1-13.9,10.4-20.1c4.2-5.9,9.4-11,15.5-15.1c12.2-7.5,27.3-8.9,40.7-3.8c13.6,5.2,24.7,15.4,30.9,28.6
	c6.1,13.5,7.7,28.7,4.5,43.2c-3.3,15-9.5,29.2-18.2,41.8c-8.8,12.6-19.3,25.1-29.6,37.1c-19.5,22.8-39.8,45.2-60.2,67.3
	c-12-12.8-23.8-25.7-35.7-38.5c-6.6-7.2-13.4-14.3-20.2-21.3s-13.8-14-21-20.7c-0.6-0.8-1.8-0.9-2.6-0.3c-0.8,0.6-0.9,1.8-0.3,2.6
	c5.3,8.4,11.3,16.3,17.2,24.2c5.9,7.8,12.3,15.4,18.8,22.8c12.9,14.8,26.3,29.2,39.7,43.7l0.3,0.3c2.3,2.2,6,2.1,8.1-0.2
	c0,0,0,0,0,0l0,0c22.1-23.6,44-47.4,65.2-71.8c10.6-12.3,21.1-24.5,30.8-38.2c9.8-13.9,16.7-29.7,20.4-46.3
	c3.9-17.3,2-35.3-5.2-51.4C229.8,35.9,216,23.1,199,16.8c-8.5-3.1-17.6-4.3-26.7-3.5c-9.1,0.9-17.9,3.9-25.6,8.8
	c-10.5,7.1-19.1,16.7-24.9,28c-2.8-5.2-6.1-10.2-10-14.7c-7.3-8.6-16.7-15.1-27.3-18.8c-10.8-3.6-22.3-4-33.3-1.1
	c-10.8,2.7-20.7,8.2-28.8,16c-8,7.6-14.2,17-17.9,27.4C0.9,69.2-0.6,80.1,0.2,91C2.1,112.1,11,132,25.6,147.4z"/>
</svg>
