<?xml version="1.0" encoding="utf-8"?>
<!-- Generator: Adobe Illustrator 27.8.1, SVG Export Plug-In . SVG Version: 6.00 Build 0)  -->
<!DOCTYPE svg PUBLIC "-//W3C//DTD SVG 1.1//EN" "http://www.w3.org/Graphics/SVG/1.1/DTD/svg11.dtd" [
	<!ENTITY ns_extend "http://ns.adobe.com/Extensibility/1.0/">
	<!ENTITY ns_ai "http://ns.adobe.com/AdobeIllustrator/10.0/">
	<!ENTITY ns_graphs "http://ns.adobe.com/Graphs/1.0/">
	<!ENTITY ns_vars "http://ns.adobe.com/Variables/1.0/">
	<!ENTITY ns_imrep "http://ns.adobe.com/ImageReplacement/1.0/">
	<!ENTITY ns_sfw "http://ns.adobe.com/SaveForWeb/1.0/">
	<!ENTITY ns_custom "http://ns.adobe.com/GenericCustomNamespace/1.0/">
	<!ENTITY ns_adobe_xpath "http://ns.adobe.com/XPath/1.0/">
]>
<svg version="1.1" xmlns:x="&ns_extend;" xmlns:i="&ns_ai;" xmlns:graph="&ns_graphs;"
	 xmlns="http://www.w3.org/2000/svg" xmlns:xlink="http://www.w3.org/1999/xlink" x="0px" y="0px" viewBox="0 0 165 165"
	 style="enable-background:new 0 0 165 165;" xml:space="preserve">
<style type="text/css">
	.st0{display:none;}
	.st1{display:inline;}
	.st2{fill:none;stroke:#3D3A3B;stroke-width:0.2618;stroke-linecap:round;stroke-linejoin:round;stroke-miterlimit:10;}
	.st3{fill:#3E3B3B;}
	.st4{fill:#3D3A3B;}
	
		.st5{display:inline;fill:none;stroke:#221E1F;stroke-width:3.4912;stroke-linecap:round;stroke-linejoin:round;stroke-miterlimit:10;}
	.st6{fill:#FFFFFF;}
</style>
<metadata>
	<sfw  xmlns="&ns_sfw;">
		<slices></slices>
		<sliceSourceBounds  bottomLeftOrigin="true" height="165" width="165" x="0" y="0.5"></sliceSourceBounds>
	</sfw>
</metadata>
<g id="Layer_2" class="st0">
	<g class="st1">
		<g>
			<path class="st2" d="M124.1,55.9"/>
		</g>
	</g>
	<g class="st1">
		<g>
			<g>
				<g>
					<path class="st3" d="M73.5,74.1c-1-0.1-4.1-0.2-8.5-0.6c-1.1-0.1-2.3-0.2-3.6-0.4c-1.3-0.2-2.7-0.3-4.3-0.8
						c-0.2-0.1-0.4-0.1-0.7-0.2l-0.4-0.2c-0.1,0-0.1,0-0.2-0.1c-0.1-0.1-0.2-0.1-0.4-0.2c-0.9-0.6-1.3-1.3-1.6-2.2
						c-0.1-0.4-0.1-0.8-0.2-1.1c0-0.3,0-0.7,0.1-1l0.2-0.8l0.2-0.7c0.7-1.9,1.6-3.2,2.8-4.8c0.3-0.4,0.7-0.6,1.1-0.7
						c8.6-2.7,18.5-5.8,28-8.8l0.1,0c0.4-0.1,0.8-0.1,1.1,0c8,3,15.7,6,21.9,8.5l-0.8,0c9.3-2.7,15.6-4.4,15.8-3.9
						c0.2,0.6-5.9,3.2-14.9,6.5c-0.3,0.1-0.6,0.1-0.9,0l-0.1,0c-6.4-2-14.2-4.6-22.3-7.3l1.4,0c-9.4,3.3-19.2,6.6-27.8,9.5l1.1-0.8
						c-0.9,1.2-1.8,2.6-2,3.6c-0.1,0.2-0.1,0.4-0.1,0.5c0,0,0,0,0,0c0,0,0,0-0.1,0c-0.1,0-0.3,0.1-0.4,0.1c-0.1,0-0.1,0-0.2,0
						c0,0-0.1,0-0.1,0.1c0,0,0,0,0,0c0,0,0,0,0-0.1l0,0l0,0c0.2-0.2-1.4,1.5-0.7,0.8l0.1-0.1l0.1-0.1c0.2-0.2,0.3-0.4,0.4-0.6
						c0.1-0.1,0.1-0.2,0.1-0.3l0.1-0.2c0-0.1,0.1-0.2,0.1-0.2c0.1-0.1,0,0,0-0.1l0,0l0,0l0.1,0l0.4,0.1l0.5,0.1
						c1.3,0.3,2.7,0.4,4,0.6c1.3,0.1,2.5,0.2,3.6,0.3c4.4,0.3,7.2,0.5,7.4,0.5c1.5,0.1,6.4,0.4,13,0.6l0.1,0c0.6,0,1.1,0.3,1.5,0.6
						c8.1,7.5,19.8,18.4,30.1,28.1l-1.1-0.5c0.9,0.1,1.9,0.1,2.9,0.1c1,0,2-0.1,2.9-0.2c1.9-0.2,3.8-0.5,5.6-1
						c3.5-0.8,6.7-2,9.1-3.1c2.4-1.2,4.3-2.6,5.5-3.6c1.3-1,2-1.5,2.2-1.4c0.1,0.1-0.3,0.9-1.4,2.2c-1.1,1.2-2.7,2.9-5.3,4.6
						c-2.6,1.5-5.7,3-9.4,4.1c-1.8,0.6-3.8,1-5.9,1.4c-1,0.2-2.1,0.3-3.2,0.4c-1.1,0.1-2.1,0.1-3.4,0.1c-0.4,0-0.7-0.2-0.9-0.4
						l-0.1-0.1c-10.7-9.2-22.6-19.7-31-27.1l1.6,0.6C80.3,74.4,75.6,74.2,73.5,74.1z"/>
					<path class="st4" d="M73.8,69c-0.3,0-3-0.1-7.4-0.5c-2.2-0.2-4.8-0.4-7.5-0.9c-0.3-0.1-0.6-0.1-0.9-0.2c-0.1,0-0.1,0-0.1,0l0,0
						c0,0,0,0,0,0l-0.1,0.2l-0.1,0.2c-0.1,0.2-0.2,0.4-0.3,0.6c-0.1,0.1-0.1,0.2-0.2,0.3L57,68.9L57,68.9c-0.6,0.7,0.8-1,0.7-0.8
						l0,0c0,0,0,0,0,0c-0.1,0.1,0.1-0.1,0.2-0.1c0,0,0.3-0.1,0.4-0.1c0.1,0,0.2,0,0.2,0l0,0c0-0.1,0-0.1,0-0.2c0-0.1,0-0.2,0.1-0.3
						c0.3-1,1.1-2.5,2-3.7l-1.1,0.8c6.3-2.2,14.6-5,22.8-7.8c1.7-0.6,3.4-1.2,4.9-1.7l-1.3,0c9.6,3.2,16.8,5.6,22.3,7.3l0.1,0
						c0.3,0.1,0.6,0.1,0.9,0c12-4.5,15-6.1,14.9-6.5c0-0.1-0.7-0.1-3,0.4c-2.3,0.5-6.2,1.6-12.7,3.5l0.8,0
						c-5.3-2.1-12.4-4.9-21.9-8.5c-0.4-0.1-0.8-0.1-1.1,0l-0.1,0c-1.6,0.5-3.3,1-5,1.5c-8.1,2.5-16.3,5.1-23,7.2l0,0
						c-0.4,0.1-0.8,0.4-1.1,0.7c-1.2,1.5-2.1,2.9-2.8,4.8c-0.2,0.5-0.3,1-0.4,1.6c0,0.3-0.1,0.6,0,1c0.1,0.4,0.1,0.7,0.2,1.2
						c0.2,0.4,0.3,0.8,0.6,1.2c0.1,0.2,0.3,0.3,0.4,0.5c0.2,0.2,0.4,0.3,0.6,0.5c0.3,0.2,0.3,0.2,0.5,0.2l0.4,0.2l0.7,0.2
						c1.6,0.4,3,0.6,4.3,0.7c1.3,0.2,2.5,0.3,3.6,0.4c4.5,0.4,7.5,0.6,8.5,0.6c1.3,0.1,5.6,0.3,13.2,0.5l-1.6-0.6
						c5.6,4.9,14.9,13.1,24,21.1c2.5,2.2,4.8,4.2,7,6l0.1,0.1c0.3,0.2,0.6,0.3,0.9,0.4c1.9,0.1,3.5-0.1,5.1-0.3
						c1.6-0.2,3-0.5,4.4-0.8c2.7-0.6,5-1.4,7-2.3c2-0.9,3.6-1.6,5.1-2.5c1.4-0.9,2.5-1.7,3.3-2.5c1.7-1.5,2.6-2.6,3.1-3.3
						c0.5-0.7,0.6-1,0.5-1c-0.1-0.1-0.3,0.1-1,0.5c-0.7,0.5-1.7,1.4-3.5,2.6c-0.9,0.6-2,1.3-3.3,1.9c-1.3,0.6-3,1.3-5,1.9
						c-1.9,0.6-4.2,1.2-6.8,1.7c-1.3,0.2-2.7,0.4-4.1,0.5c-1.4,0.1-3,0.1-4.5,0l1,0.5c-2-1.9-4.3-4-6.7-6.3
						c-8.9-8.4-18-16.8-23.4-21.8c-0.4-0.4-1-0.6-1.5-0.6l-0.1,0C79.4,69.4,75,69.1,73.8,69 M73.8,69c1.3,0.1,6.2,0.4,13,0.6l0.1,0
						c0.6,0,1.1,0.3,1.5,0.6c8.1,7.5,19.8,18.3,30.1,28.1l-1.1-0.5c0.9,0.1,1.9,0.1,2.9,0.1c1,0,2-0.1,2.9-0.2
						c1.9-0.2,3.8-0.5,5.6-1c3.5-0.8,6.7-2,9.1-3.1c2.4-1.2,4.3-2.7,5.5-3.6c1.3-1,2-1.5,2.2-1.4c0.1,0.1-0.3,0.9-1.4,2.2
						c-1.1,1.2-2.8,3-5.3,4.6c-2.6,1.6-5.7,3-9.4,4.1c-1.8,0.6-3.8,1-5.9,1.4c-1,0.2-2.1,0.3-3.2,0.4c-1.1,0.1-2.1,0.1-3.4,0.1
						c-0.4,0-0.7-0.2-0.9-0.4l-0.1-0.1c-10.7-9.3-22.7-19.8-31-27.1l1.6,0.6c-6.9-0.1-11.8-0.4-13.2-0.4c-1-0.1-4-0.2-8.5-0.6
						c-1.1-0.1-2.3-0.2-3.6-0.4c-1.3-0.2-2.7-0.3-4.3-0.8c-0.5-0.2-0.8-0.2-1.7-0.7c-0.5-0.3-0.8-0.6-1.1-1
						c-0.3-0.4-0.4-0.8-0.6-1.2c-0.1-0.4-0.2-0.8-0.2-1.2c0-0.3,0-0.7,0-1c0-0.3,0.1-0.6,0.2-0.8c0.1-0.3,0.2-0.5,0.2-0.7
						c0.7-1.9,1.6-3.3,2.8-4.8c0.3-0.4,0.7-0.6,1.1-0.8c8.6-2.7,18.5-5.8,28-8.8l0.1,0c0.4-0.1,0.8-0.1,1.2,0c8,3,15.6,6,21.9,8.5
						l-0.8,0c9.3-2.7,15.7-4.4,15.9-3.9c0.2,0.6-5.9,3.2-15,6.6c-0.3,0.1-0.6,0.1-0.9,0l-0.1,0c-6.4-2-14.2-4.6-22.3-7.3l1.4,0
						c-9.4,3.3-19.2,6.6-27.8,9.5l1.2-0.8c-0.8,1.1-1.6,2.4-2,3.4l-0.1,0.3c0,0.1,0,0.2,0,0.3c0,0,0,0.1,0,0.1c0.1,0-0.1,0-0.3,0
						c-0.1,0-0.3,0.1-0.3,0.1c-0.1,0-0.1,0-0.2,0.1c0,0-0.1,0-0.1,0.1l0,0c0,0,0,0,0,0l0,0l0,0c0.6-0.7-0.9,1-0.7,0.8l0.1-0.1
						l0.1-0.1c0.1-0.2,0.3-0.3,0.4-0.5c0.1-0.2,0.2-0.4,0.3-0.6l0.1-0.2c0-0.1,0,0,0,0l0,0c0,0,0,0,0.1,0l0.3,0.1
						c1.1,0.3,2.4,0.4,3.7,0.6c1.2,0.1,2.4,0.3,3.5,0.3C69.8,68.8,72.9,68.9,73.8,69z"/>
				</g>
			</g>
		</g>
	</g>
	<g class="st1">
		<g>
			<g>
				<g>
					<path class="st3" d="M32.3,59.5c-0.1,0.3-0.7,1.8-1.3,3.9c-0.6,2.1-1.1,4.9-1.3,7.6c-0.2,2.8-0.1,5.5,0.1,7.6
						c0.1,2.1,0.3,3.5-0.2,3.7c-0.6,0.2-1.6-1.1-2.4-3.3c-0.9-2.2-1.5-5.3-1.7-8.5c-0.2-3.2,0.2-6.4,0.8-8.8
						c0.3-1.2,0.6-2.2,0.8-2.9c0.2-0.7,0.4-1.1,0.4-1.1c0.2-0.5,0.8-2.1,1.9-4.1c1.1-2,2.7-4.4,4.6-6.4c1.9-2.1,4-3.8,5.7-4.8
						c1.7-1,3-1.4,3.3-1c0.3,0.4-0.5,1.3-1.7,2.7c-1.2,1.4-2.7,3.3-4.1,5.3c-1.4,2-2.6,4.2-3.4,6.1C33,57.4,32.5,58.9,32.3,59.5z"/>
					<path class="st4" d="M27.5,57.7c0,0.1-0.7,1.8-1.2,4.2c-0.5,2.5-0.9,5.8-0.7,9c0.3,5,1.5,7.9,2.3,9.5c0.8,1.6,1.4,1.9,1.7,1.8
						c0.2-0.1,0.3-0.5,0.2-2.1c-0.1-1.6-0.5-4.4-0.2-9.2c0.2-2.7,0.7-5.5,1.3-7.6c0.6-2.1,1.2-3.6,1.3-4c0.1-0.4,0.6-1.7,1.4-3.6
						c0.8-1.8,2-4.1,3.3-6.2c1.2-1.8,2.2-3.1,3.1-4.2c0.8-1,1.4-1.8,1.9-2.4c0.9-1.1,1-1.6,0.9-1.8c-0.1-0.2-0.6-0.3-2,0.4
						c-0.7,0.3-1.6,0.8-2.8,1.7c-1.2,0.9-2.6,2.1-4.2,3.8c-1.9,2.1-3.5,4.5-4.6,6.5C28.3,55.8,27.7,57.4,27.5,57.7 M27.5,57.7
						c0.1-0.4,0.7-2,1.8-4c1.1-2,2.7-4.4,4.6-6.5c1.9-2.1,4-3.8,5.7-4.9c1.7-1.1,3.1-1.4,3.3-1c0.3,0.4-0.5,1.4-1.8,2.9
						c-1.2,1.5-2.8,3.4-4.2,5.5c-1.4,2.1-2.6,4.3-3.4,6.2c-0.8,1.8-1.2,3.2-1.4,3.5c-0.1,0.3-0.7,1.8-1.3,3.9
						c-0.3,1.1-0.6,2.3-0.8,3.6c-0.2,1.3-0.4,2.7-0.5,4.1c-0.2,2.8-0.1,5.5,0.1,7.6c0.1,2.1,0.3,3.5-0.2,3.7c-0.6,0.2-1.5-1-2.4-3.1
						c-0.9-2.1-1.5-5.1-1.7-8.2c-0.1-1.6-0.1-3.1,0.1-4.6c0.1-1.5,0.3-2.9,0.6-4.1C26.7,59.8,27.3,58.1,27.5,57.7z"/>
				</g>
			</g>
		</g>
	</g>
	<line class="st5" x1="42.6" y1="43.1" x2="66.8" y2="52.9"/>
	<g class="st1">
		<g>
			<g>
				<g>
					<path class="st3" d="M102.9,127.8c-0.4,0.4-2,2.4-5.2,3.6c-1.5,0.6-3.4,0.9-5.4,0.8c-2-0.1-4.2-0.8-6-2.1l2.3,0
						c-1.2,0.7-2.5,1.2-3.8,1.5c-1.3,0.3-2.6,0.5-3.9,0.4c-2.5-0.1-4.8-0.9-6.6-1.8c-1.8-1-3-2.2-3.6-3.2c-0.7-1-0.8-1.7-0.6-1.8
						c0.6-0.4,2.3,1.4,5.4,2.4c1.6,0.5,3.4,0.8,5.4,0.7c1,0,1.9-0.3,2.8-0.6c0.9-0.3,1.7-0.8,2.5-1.3c0.7-0.5,1.7-0.5,2.4-0.1
						l0.2,0.1c1.2,0.7,2.6,1.1,4,1c1.3,0,2.6-0.4,3.5-0.8c1-0.4,1.6-1,2.1-1.4c0.4-0.4,0.6-0.7,0.6-0.7c0.1-0.1,0.2-0.2,0.3-0.4
						c0.1-0.2,0.3-0.4,0.4-0.7l0.2-0.2c0.5-0.8,1.5-1.2,2.3-1.1c0.5,0.1,1.2,0.1,2.1,0c0.8-0.1,1.7-0.4,2.7-1c1.8-1,3.5-3,4-5.3
						l0.1-0.3c0.1-0.6,0.5-1,1-1.2c1.4-0.6,2.6-1.5,3.6-2.6c1-1.1,1.8-2.2,2.3-3.3c1.1-2.1,1.3-3.8,1.8-3.8c0.4,0,1,1.8,0.4,4.6
						c-0.3,1.4-0.9,3-2,4.5c-1.1,1.5-2.5,3-4.4,4l1-1.4c-0.3,3.6-2.6,6.8-5.3,8.6c-1.3,0.9-2.8,1.5-4.2,1.8
						c-1.4,0.3-2.7,0.3-3.7,0.3l2.5-1.3c-0.3,0.5-0.5,0.9-0.7,1.2C103.3,127.3,103.1,127.6,102.9,127.8z"/>
					<path class="st4" d="M99,124.6c-0.1,0.1-0.8,1.2-2.8,2.1c-0.9,0.4-2.2,0.8-3.5,0.8c-1.3,0.1-2.8-0.3-4-1l-0.1-0.1
						c-0.8-0.4-1.7-0.4-2.4,0.1c-0.6,0.4-1.3,0.9-2.2,1.2c-2.6,1-5.1,0.8-6.9,0.5c-1.9-0.4-3.2-1-4.2-1.6c-0.5-0.3-0.9-0.5-1.2-0.7
						c-0.3-0.2-0.6-0.3-0.8-0.5c-0.4-0.2-0.7-0.3-0.8-0.2c-0.1,0.1-0.1,0.2,0.1,0.7c0.2,0.4,0.5,1.1,1.3,2c0.8,0.9,2.2,2.1,4.4,3
						c1.1,0.5,2.5,0.9,4,1c1.6,0.2,3.4,0.1,5.4-0.4c1.2-0.3,2.4-0.9,3.3-1.4l-2.3,0c1.8,1.3,4,1.9,6,2.1c2,0.1,3.9-0.2,5.4-0.8
						c3.1-1.1,4.8-3.1,5.2-3.6c0.1-0.2,0.5-0.5,1.3-2l-2.5,1.3c1.1,0.1,3.9,0.1,6.7-1.4c1.4-0.8,2.8-1.9,3.9-3.3
						c1.1-1.4,2-3.2,2.3-5.1c0-0.3,0.1-0.6,0.1-0.8l-1,1.4c3.1-1.8,4.6-4.2,5.5-6c0.9-1.9,1-3.4,1.1-4.5c0-1.1-0.1-1.7-0.3-2.1
						c-0.1-0.4-0.3-0.5-0.4-0.5c-0.3,0-0.4,0.5-1.1,2.3c-0.3,0.9-0.8,2.1-1.8,3.4c-1,1.4-2.5,3-4.8,4c-0.5,0.2-0.8,0.6-1,1.1
						l-0.1,0.4c0,0.2-0.1,0.3-0.1,0.5c-0.7,2.4-2.7,4.3-4.6,5.1c-1.9,0.9-3.4,0.7-4,0.6c-1-0.1-1.9,0.4-2.4,1.2l-0.1,0.2
						C99.3,124.3,99.1,124.5,99,124.6 M99,124.5c0.1-0.1,0.2-0.2,0.3-0.4c0.1-0.2,0.3-0.4,0.4-0.7l0.2-0.3c0.6-0.8,1.5-1.2,2.4-1.1
						c0.5,0.1,1.2,0.1,2,0c0.8-0.1,1.7-0.4,2.6-1c1.8-1,3.5-3,4-5.2l0.1-0.3c0.1-0.6,0.5-1,1-1.3c1.4-0.6,2.6-1.5,3.6-2.6
						c1-1.1,1.8-2.2,2.3-3.3c1.1-2.1,1.3-3.8,1.8-3.8c0.4,0,1,1.8,0.5,4.6c-0.3,1.4-0.9,3-2,4.5c-1.1,1.5-2.5,3-4.4,4.1l1-1.5
						c-0.3,3.7-2.7,6.9-5.4,8.7c-1.4,0.9-2.8,1.5-4.2,1.8c-1.4,0.3-2.6,0.3-3.6,0.2l2.5-1.3c-0.3,0.5-0.5,1-0.8,1.3
						c-0.2,0.3-0.4,0.5-0.5,0.7c-0.4,0.4-2,2.4-5.2,3.6c-1.5,0.6-3.4,0.9-5.4,0.8c-2-0.1-4.2-0.8-6-2.1l2.3,0
						c-1.2,0.7-2.5,1.2-3.8,1.5c-1.3,0.3-2.6,0.5-3.9,0.4c-2.6-0.1-4.9-0.9-6.6-1.9c-1.8-1-3-2.3-3.6-3.2c-0.7-1-0.8-1.7-0.6-1.8
						c0.6-0.4,2.3,1.4,5.5,2.4c1.6,0.5,3.4,0.8,5.4,0.7c1-0.1,1.9-0.3,2.8-0.6c0.9-0.3,1.7-0.8,2.5-1.3c0.8-0.5,1.7-0.5,2.4-0.1
						l0.1,0.1c1.1,0.7,2.5,1,3.7,1c1.3,0,2.5-0.3,3.4-0.7C97.9,125.9,98.8,124.8,99,124.5z"/>
				</g>
			</g>
		</g>
	</g>
	<line class="st5" x1="77.3" y1="116.3" x2="87.3" y2="127.6"/>
	<line class="st5" x1="86.2" y1="107.1" x2="103.9" y2="124.7"/>
	<line class="st5" x1="95.4" y1="97.8" x2="113.1" y2="116.3"/>
	<path class="st5" d="M30.7,91.5c0.3,0.5,2.9,10.8,11,18.9s18.9,14.2,18.9,14.2s9.5-7.4,8.4-10.3s-7.1-6-7.1-6s1.6-4.7-1.1-7.9
		c-1.4-1.7-6.3-2.1-6.3-2.1s0.8-6.6-1.6-7.9c-2.4-1.3-6.8-0.8-6.8-0.8s-0.3-6-4.7-5.5S30.7,91.5,30.7,91.5z"/>
</g>
<g id="Layer_3">
	<circle class="st6" cx="82.5" cy="82" r="82.5"/>
</g>
<g id="Layer_4">
	<path d="M81.1,95c14.8,1.2,27.7-9.8,28.9-24.5c0.5-5.8-0.9-11.5-4-16.4c-3.3-5.7-9-9.6-15.6-10.5c-0.2,0-0.5,0.1-0.6,0.3
		c-0.2,0.3-0.1,0.7,0.2,0.8l0,0c2.6,1.4,5,3,7.2,4.9c2.2,1.8,4,4,5.5,6.4c6.5,10.8,3.1,24.9-7.8,31.5c-9.2,5.5-21,4-28.4-3.7
		c-3.9-4.1-6.2-9.5-6.3-15.1c-0.1-5.6,1.8-11.1,5.4-15.4c3.7-4.3,8.7-7.3,14.2-8.4c0.8-0.2,1.3-1,1.1-1.8c-0.2-0.7-0.8-1.1-1.5-1.1
		c-6.6,0.5-12.8,3.6-17,8.7C53,62,54.5,79,65.9,88.7C70.2,92.3,75.5,94.5,81.1,95z"/>
	<path d="M41.3,132c3.6-8,9.4-14.7,16.8-19.4c15.2-9.5,34.6-9.7,50-0.4c7.6,4.6,13.7,11.4,17.5,19.5c0.2,0.5,0.8,0.7,1.3,0.5
		c0.5-0.2,0.7-0.8,0.5-1.3c0,0,0,0,0,0c-3.7-8.7-9.9-16-17.9-21c-16.3-10.4-37-10.6-53.5-0.5c-8.1,5-14.6,12.2-18.5,20.9l0,0
		c-0.5,1,0,2.3,1.1,2.7C39.6,133.5,40.8,133,41.3,132L41.3,132z"/>
	<g>
		<path d="M126.9,76.7c0-1.5,0.5-3.1,1.5-4.7c1-1.6,2.4-2.9,4.3-3.9c1.9-1,4.1-1.6,6.7-1.6c2.4,0,4.4,0.4,6.2,1.3
			c1.8,0.9,3.2,2.1,4.2,3.6c1,1.5,1.5,3.1,1.5,4.9c0,1.4-0.3,2.6-0.8,3.6c-0.6,1-1.2,1.9-2,2.7c-0.8,0.8-2.2,2-4.2,3.8
			c-0.6,0.5-1,0.9-1.3,1.3c-0.3,0.4-0.6,0.7-0.7,1c-0.2,0.3-0.3,0.6-0.4,1s-0.2,0.9-0.4,1.7c-0.3,1.7-1.3,2.5-2.9,2.5
			c-0.8,0-1.6-0.3-2.1-0.8c-0.6-0.6-0.9-1.4-0.9-2.5c0-1.4,0.2-2.6,0.6-3.6c0.4-1,1-1.9,1.7-2.6s1.6-1.7,2.8-2.7
			c1-0.9,1.8-1.6,2.3-2.1c0.5-0.5,0.9-1,1.2-1.6c0.3-0.6,0.5-1.2,0.5-1.9c0-1.3-0.5-2.4-1.5-3.3c-1-0.9-2.2-1.3-3.7-1.3
			c-1.8,0-3.1,0.5-4,1.4c-0.8,0.9-1.6,2.2-2.1,4c-0.6,1.8-1.6,2.8-3.1,2.8c-0.9,0-1.7-0.3-2.3-1C127.2,78.1,126.9,77.4,126.9,76.7z
			 M138.8,103.4c-1,0-1.9-0.3-2.6-1c-0.7-0.6-1.1-1.5-1.1-2.7c0-1,0.4-1.9,1.1-2.6c0.7-0.7,1.6-1,2.6-1c1,0,1.9,0.4,2.6,1
			c0.7,0.7,1,1.6,1,2.6c0,1.1-0.4,2-1.1,2.7S139.7,103.4,138.8,103.4z"/>
	</g>
	<g>
		<path d="M21.1,48c0-1.5,0.5-3.1,1.5-4.7c1-1.6,2.4-2.9,4.3-3.9c1.9-1,4.1-1.6,6.7-1.6c2.4,0,4.4,0.4,6.2,1.3
			c1.8,0.9,3.2,2.1,4.2,3.6c1,1.5,1.5,3.1,1.5,4.9c0,1.4-0.3,2.6-0.8,3.6c-0.6,1-1.2,1.9-2,2.7c-0.8,0.8-2.2,2-4.2,3.8
			c-0.6,0.5-1,0.9-1.3,1.3c-0.3,0.4-0.6,0.7-0.7,1c-0.2,0.3-0.3,0.6-0.4,1s-0.2,0.9-0.4,1.7c-0.3,1.7-1.3,2.5-2.9,2.5
			c-0.8,0-1.6-0.3-2.1-0.8c-0.6-0.6-0.9-1.4-0.9-2.5c0-1.4,0.2-2.6,0.6-3.6c0.4-1,1-1.9,1.7-2.6s1.6-1.7,2.8-2.7
			c1-0.9,1.8-1.6,2.3-2.1c0.5-0.5,0.9-1,1.2-1.6c0.3-0.6,0.5-1.2,0.5-1.9c0-1.3-0.5-2.4-1.5-3.3c-1-0.9-2.2-1.3-3.7-1.3
			c-1.8,0-3.1,0.5-4,1.4c-0.8,0.9-1.6,2.2-2.1,4C27,50.1,25.9,51,24.4,51c-0.9,0-1.7-0.3-2.3-1C21.4,49.4,21.1,48.7,21.1,48z
			 M33,74.7c-1,0-1.9-0.3-2.6-1c-0.7-0.6-1.1-1.5-1.1-2.7c0-1,0.4-1.9,1.1-2.6c0.7-0.7,1.6-1,2.6-1c1,0,1.9,0.4,2.6,1
			c0.7,0.7,1,1.6,1,2.6c0,1.1-0.4,2-1.1,2.7S34,74.7,33,74.7z"/>
	</g>
</g>
</svg>
