<?xml version="1.0" encoding="utf-8"?>
<!-- Generator: Adobe Illustrator 27.7.0, SVG Export Plug-In . SVG Version: 6.00 Build 0)  -->
<!DOCTYPE svg PUBLIC "-//W3C//DTD SVG 1.1//EN" "http://www.w3.org/Graphics/SVG/1.1/DTD/svg11.dtd" [
	<!ENTITY ns_extend "http://ns.adobe.com/Extensibility/1.0/">
	<!ENTITY ns_ai "http://ns.adobe.com/AdobeIllustrator/10.0/">
	<!ENTITY ns_graphs "http://ns.adobe.com/Graphs/1.0/">
	<!ENTITY ns_vars "http://ns.adobe.com/Variables/1.0/">
	<!ENTITY ns_imrep "http://ns.adobe.com/ImageReplacement/1.0/">
	<!ENTITY ns_sfw "http://ns.adobe.com/SaveForWeb/1.0/">
	<!ENTITY ns_custom "http://ns.adobe.com/GenericCustomNamespace/1.0/">
	<!ENTITY ns_adobe_xpath "http://ns.adobe.com/XPath/1.0/">
]>
<svg version="1.1" xmlns:x="&ns_extend;" xmlns:i="&ns_ai;" xmlns:graph="&ns_graphs;"
	 xmlns="http://www.w3.org/2000/svg" xmlns:xlink="http://www.w3.org/1999/xlink" x="0px" y="0px" viewBox="0 0 613.9 488.9"
	 style="enable-background:new 0 0 613.9 488.9;" xml:space="preserve">
<style type="text/css">
	.st0{display:none;}
	.st1{display:inline;}
	.st2{fill:#221F1F;}
	
		.st3{display:inline;fill:none;stroke:#221F1F;stroke-width:13.2734;stroke-linecap:round;stroke-linejoin:round;stroke-miterlimit:10;}
	
		.st4{display:inline;fill:none;stroke:#221F1F;stroke-width:9.2914;stroke-linecap:round;stroke-linejoin:round;stroke-miterlimit:10;}
	.st5{fill:none;stroke:#221F1F;stroke-width:0.9955;stroke-linecap:round;stroke-linejoin:round;stroke-miterlimit:10;}
</style>
<metadata>
	<sfw  xmlns="&ns_sfw;">
		<slices></slices>
		<sliceSourceBounds  bottomLeftOrigin="true" height="16383" width="16383" x="-7885" y="-8588"></sliceSourceBounds>
	</sfw>
</metadata>
<g id="grad" class="st0">
	<g class="st1">
		<g>
			<g>
				<g>
					<path class="st2" d="M529.4,182.5c2.4-1.3,6.9-3.7,13.2-7c6.3-3.3,14.5-7.6,24.1-12.7c0.8-0.4,1.5-0.8,2.3-1.2
						c0.4-0.2,0.8-0.4,1.2-0.6l0.6-0.3l0.3-0.1l0.1,0c-1.2,0.6-6.2,2.5-6,9.5c0.6,4.1,1.9,4.7,2.3,5.5c0.3,0.3,0.8,0.8,1,1
						c0.2,0.2,0.6,0.5,0.7,0.5l0.3,0.2l0.2,0.1l-0.1-0.1l-0.7-0.3c-0.6-0.3-1.2-0.5-1.8-0.8c-2.5-1.1-5.3-2.2-8.2-3.3
						c-5.8-2.2-11.9-4.6-18.4-7.1c-13-4.9-27.4-10.3-42.9-16C435.7,127,357.5,98.6,282,71l4.9,0c-70.4,25.6-138.6,50.3-189.3,68.4
						c-25.3,9-46.3,16.4-61,21.4c-7.3,2.5-13.1,4.4-17,5.6c-4,1.2-6.1,1.8-6.2,1.4c-0.3-0.5,1.6-2,5.2-4c3.6-2,9.1-4.7,16.2-7.9
						c14.1-6.5,34.6-15.2,59.5-25.4c49.8-20.4,117.4-46.9,187.3-73.8c1.8-0.7,3.7-0.7,5.4-0.1l0.1,0
						c80.2,27.6,163.1,56.7,226.2,79.4c15.8,5.7,30.3,11,43.3,15.8c3.3,1.2,6.4,2.4,9.5,3.6c3.1,1.2,6,2.3,9,3.6
						c0.8,0.3,1.5,0.6,2.4,1.1l0.8,0.4l0.5,0.3c0.2,0.1,0.5,0.3,0.9,0.6c0.1,0,0.3,0.2,0.5,0.3c0.3,0.2,0.2,0.1,0.7,0.6
						c0.6,0.7,0.3,0.2,1.6,1.9c0.5-0.2,3.2,5.5-0.3,11c-3.4,4.4-11.1-11.4-5.4,0.5c2,5.3,0.7,1.8,1,2.8l-0.1,0l-0.4,0.2
						c-0.5,0.3-0.9,0.5-1.4,0.8c-0.5,0.3-1,0.5-1.5,0.8c-2.4,1.3-4.8,2.5-7,3.7c-17.7,9.5-28.3,15.2-29,15.6
						c-20.4,10.9-134.4,71.8-250.3,133.1l-0.1,0.1c-2.3,1.2-5.1,1.1-7.3,0c-65.6-35.8-131.7-72.2-181.1-100s-82.2-47.1-81.3-48.8
						c0.4-0.8,9.2,3,24.1,10.1c15,7.1,36.2,17.6,61.5,30.4c50.6,25.5,117.6,60.1,184.1,94.7l-7.2,0
						C391.8,257.5,502,197.2,529.4,182.5z"/>
					<path class="st2" d="M538.4,199.4c1.5-0.8,11.9-6.4,28.8-15.5c2.1-1.1,4.3-2.3,6.6-3.5c1-0.5,1.9-1,2.9-1.6l0.7-0.4l0.3-0.2
						l0,0c0.6,1.6-1.8-4.7-2.7-7.3c6.8,13.9,7.7,1.6,8.9-2.1c-0.6-4.5-1.8-4.7-2.4-5.8c-0.3-0.4-0.8-0.8-1.1-1.1
						c-0.2-0.1-0.3-0.3-0.5-0.4l-0.4-0.3l-0.3-0.2c-0.6-0.4-0.9-0.5-1.2-0.7l-0.7-0.4c-0.4-0.2-0.8-0.4-1.2-0.5
						c-2.9-1.3-5.7-2.3-8.6-3.5c-2.9-1.1-5.9-2.2-8.9-3.4c-12.2-4.6-25.9-9.6-40.8-15C458.5,116.3,380.4,88.8,303,62.1
						c-5.4-1.9-10.8-3.7-15.9-5.5l-0.1,0c-1.8-0.6-3.7-0.5-5.4,0.1c-111.5,43-178.7,70-217.9,86.6c-19.6,8.3-32.2,14-39.9,17.8
						c-7.6,3.8-10.3,5.8-10,6.4c0.2,0.3,2.5-0.2,9.6-2.5c7.1-2.3,19.1-6.4,38.4-13.1c38.7-13.5,106.9-38,225-81l-4.8,0
						c5.1,1.9,10.4,3.8,15.8,5.8c71.6,26.2,145.7,53.1,204.4,74.8c14.7,5.4,28.4,10.5,40.8,15.2c6.2,2.3,12.1,4.6,17.6,6.8
						c2.7,1.1,5.4,2.1,7.7,3.1l0.8,0.4l0.5,0.2c0,0,0,0-0.5-0.3l-0.3-0.2c-0.2-0.1-0.2-0.1-0.5-0.4c-0.4-0.4-0.5-0.5-1.1-1.2
						c-0.6-1.9-2.5-1.2-1.5-8.6c1-4.5,7-6.3,5.5-5.7l-0.1,0l-0.1,0.1c-0.4,0.2-0.8,0.4-1.1,0.6c-0.8,0.4-1.5,0.8-2.3,1.1
						c-0.7,0.3-1.3,0.7-2,1c-18.5,9.7-31.1,16.5-36.1,19.2c-17.8,9.5-131.9,71.8-248.6,136.4l7.1,0c-6.3-3.3-14-7.3-21.7-11.2
						c-106.8-55.5-168.5-86.8-203.6-104c-17.5-8.6-28.4-13.7-35-16.6c-6.5-2.9-8.8-3.5-8.9-3.2c-0.2,0.4,1.5,1.9,7.5,5.8
						s16.3,10.1,33.2,19.9c33.8,19.6,94.2,53.4,199.8,111.1c7.6,4.2,15.3,8.3,21.4,11.7c2.3,1.3,5,1.2,7.2,0.1l0.2-0.1
						C407.4,269.5,521.5,208.4,538.4,199.4 M538.5,199.5c-16.8,9-132.5,70.8-250.3,133.1l-0.1,0.1c-2.4,1.3-5.2,1.1-7.4,0
						C215,296.9,148.8,260.5,99.3,232.6c-49.5-27.9-82.4-47.2-81.4-49c0.4-0.8,9.2,2.9,24.3,10.1c15,7.1,36.3,17.7,61.7,30.5
						c50.7,25.6,117.8,60.2,184.2,94.8l-7.3,0c116.6-64.6,231.7-127.4,248.6-136.5c4.6-2.5,17.6-9.4,36.8-19.5
						c1.5-0.8,3.1-1.6,4.7-2.3l0.1-0.1l0.1,0c0.8,0-0.1-0.7-3.9,2.8c-3.5,3.7-1.6,11.5-0.9,10.9c1.4,2,1.1,1.4,1.6,2
						c0.5,0.4,0.5,0.4,0.7,0.6l0.4,0.3c0.6,0.4,0.5,0.3,0.5,0.3l-0.5-0.2c-0.5-0.2-1.1-0.5-1.7-0.8c-2.5-1.1-5.3-2.2-8.1-3.3
						c-5.7-2.2-11.9-4.6-18.4-7.1c-13-4.9-27.4-10.3-42.9-16c-61.8-22.8-140.1-51.3-215.9-79l5,0c-70.5,25.6-138.9,50.4-189.6,68.5
						c-25.4,9-46.4,16.4-61.1,21.4c-14.7,5-23,7.6-23.3,7.1c-0.4-0.6,1.5-2.1,5.2-4.1c3.6-2.1,9.1-4.7,16.2-8
						c14.1-6.5,34.7-15.2,59.6-25.4c49.9-20.5,117.6-47,187.6-74c1.8-0.7,3.8-0.7,5.5-0.1l0.1,0c76.3,26.2,155,53.9,217,76.1
						c15.5,5.6,30,10.8,43.1,15.7c6.6,2.4,12.8,4.7,18.7,7c3,1.1,5.8,2.2,8.7,3.4c0.7,0.3,1.5,0.6,2.3,1c0.4,0.2,0.8,0.4,1.4,0.7
						c0.3,0.2,0.6,0.3,1.5,0.9c0.1,0.1,0.3,0.2,0.5,0.4c0.2,0.2,0.3,0.2,0.8,0.7c0.6,0.7,0.3,0.1,1.7,2.2c0.7-0.6,2.7,7.3-0.9,11.1
						c-3.6,4.2-10.3-11.5-5.1,0.1c1.9,5.1,0.7,1.8,1,2.8l-0.1,0c-0.9,0.5-1.8,1-2.7,1.4C556.1,190.1,543.1,197.1,538.5,199.5z"/>
				</g>
			</g>
		</g>
	</g>
	<line class="st3" x1="577.6" y1="400.3" x2="577.6" y2="167.2"/>
	<path class="st3" d="M114.4,238.8l-1.7,94.7c0,0,55.8,73.9,172.3,73.9c119,0,178.5-71.1,178.5-71.1l-0.6-104.1"/>
	<ellipse class="st4" cx="284.2" cy="180.7" rx="18.6" ry="13.5"/>
	<g class="st1">
		<g>
			<g>
				<g>
					<path class="st2" d="M575.8,414.4c0,0-0.1,0.1-0.3,0.1c-0.1,0-0.3,0.2-0.5,0.2c-0.5,0.3-1.2,0.7-2.1,1.8c-1.8,2-3.7,6-5.2,10.3
						c-1.5,4.3-2.7,8.9-3.7,12.3c-1.1,3.4-2,5.8-3.1,5.8c-3.1,0-4.9-10.4-3.2-21.2c0.9-5.4,2.7-11.1,5.9-15.3c0.4-0.5,0.8-1,1.2-1.5
						c0.5-0.5,0.9-0.9,1.3-1.3c0.9-0.8,1.8-1.4,2.6-1.9c0.4-0.2,0.8-0.4,1.1-0.6c0.3-0.1,0.6-0.3,0.9-0.4c0.5-0.2,0.8-0.3,0.8-0.3
						c0.3-0.1,0.8-0.3,1.5-0.4c0.3-0.1,0.7-0.1,1.2-0.2c0.4-0.1,0.9-0.1,1.4-0.1c1.1-0.1,1.9,0,3,0.1c1,0.1,2.2,0.3,3.4,0.6
						c2.4,0.6,4.9,1.8,7.1,3.3c2.2,1.6,4.2,3.5,5.8,5.5c3.2,4.1,5,8.5,5.7,12c0.7,3.4,0.5,5.9-0.7,6.2c-1,0.3-2.5-1.2-4.5-3.5
						c-2-2.3-4.5-5.3-7.4-7.7c-2.9-2.4-5.9-3.7-8.3-4c-0.3,0-0.6-0.1-0.9-0.1c-0.3,0-0.5,0-0.8,0c-0.3,0-0.5,0-0.7,0
						c-0.2,0-0.5,0-0.6,0.1c-0.2,0.1-0.4,0.1-0.6,0.2C576,414.4,575.9,414.4,575.8,414.4z"/>
					<path class="st2" d="M571.7,402.4c-0.1,0-0.4,0.2-1,0.4c-0.6,0.2-1.3,0.6-2.1,1.1c-1.7,1-3.7,2.7-5.2,4.9
						c-3.2,4.4-4.9,10.2-5.7,15.7c-0.6,4.3-0.6,7.7-0.5,10.4c0.2,2.7,0.5,4.7,0.9,6.2c0.8,2.9,1.9,3.8,2.8,3.8
						c0.5,0,1.3-0.6,2.2-3.3c0.5-1.3,1-3.1,1.7-5.6c0.7-2.4,1.5-5.5,2.8-9.3c1.4-4.2,3.4-8.3,5.1-10.3c0.9-1,1.6-1.5,2.1-1.8
						c0.2-0.1,0.4-0.2,0.6-0.2c0.1,0,0.2-0.1,0.3-0.1c0,0,0.1-0.1,0.3-0.1c0.1,0,0.3-0.1,0.5-0.1c0.1,0,0.2-0.1,0.4-0.1
						c0.2,0,0.5,0,0.7,0c0.5,0,1,0,1.6,0.1c1.2,0.1,2.5,0.4,3.9,1.1c1.4,0.6,2.9,1.6,4.4,2.7c2.5,2,4.4,4.1,5.8,5.7
						c1.5,1.7,2.5,2.9,3.4,3.8c1.7,1.8,2.6,2.1,3.1,2c0.5-0.2,1.2-1,1-3.7c-0.1-1.4-0.4-3.2-1.3-5.6c-0.9-2.4-2.2-5.5-4.9-9
						c-1.6-2.1-3.6-4-5.9-5.5c-2.3-1.5-4.8-2.6-7.1-3.2c-1.2-0.3-2.3-0.5-3.3-0.6c-0.5,0-1-0.1-1.5-0.1c-0.5,0-1,0-1.5,0
						c-1,0-1.8,0.2-2.4,0.4C572.4,402.2,571.9,402.3,571.7,402.4 M571.6,402.3c0.2-0.1,0.7-0.2,1.4-0.4c0.6-0.1,1.5-0.3,2.4-0.4
						c0.5,0,1-0.1,1.5,0c0.5,0,1,0.1,1.5,0.1c1,0.1,2.2,0.3,3.3,0.6c2.4,0.6,4.9,1.7,7.2,3.2c2.3,1.5,4.3,3.5,5.9,5.5
						c3.3,4.1,5.1,8.6,5.9,12.1c0.8,3.5,0.5,6-0.7,6.4c-1.1,0.4-2.7-1.3-4.8-3.7c-2.1-2.4-4.7-5.5-7.7-7.8c-1.5-1.1-3-2.1-4.4-2.7
						c-1.4-0.6-2.7-0.9-3.9-1c-0.6-0.1-1.1-0.1-1.6-0.1c-0.2,0-0.5,0-0.7,0c-0.2,0-0.3,0.1-0.4,0.1c-0.2,0-0.4,0.1-0.5,0.1
						c-0.1,0-0.2,0-0.2,0.1c0,0-0.1,0.1-0.3,0.1c-0.1,0-0.3,0.2-0.5,0.2c-0.4,0.3-1.2,0.7-2,1.7c-1.8,2-3.7,6-5.2,10.3
						c-1.5,4.3-2.7,8.9-3.7,12.3c-1.1,3.4-2,5.8-3.2,5.8c-3.1,0-4.9-9.8-3.4-20.4c0.8-5.3,2.4-10.8,5.4-15.2c1.5-2.2,3.4-4,5-5.2
						c0.9-0.5,1.6-1,2.3-1.3C570.9,402.6,571.4,402.4,571.6,402.3z"/>
				</g>
			</g>
		</g>
	</g>
</g>
<g id="hanshake" class="st0">
	<g class="st1">
		<g>
			<path class="st5" d="M466.2,130"/>
		</g>
	</g>
	<g class="st1">
		<g>
			<g>
				<g>
					<path class="st2" d="M274.1,199c-3.8-0.2-15.4-0.9-32.5-2.5c-4.3-0.4-8.9-0.9-13.8-1.5c-2.5-0.3-5-0.7-7.7-1.1
						c-2.7-0.5-5.5-0.9-8.7-1.8c-0.8-0.2-1.7-0.5-2.6-0.8c-0.5-0.2-1-0.3-1.6-0.6l-0.4-0.2c-0.1-0.1-0.3-0.1-0.5-0.2
						c-0.4-0.2-0.7-0.4-1.1-0.6c-0.4-0.3-1-0.7-1.5-1.1c-0.3-0.2-0.4-0.3-0.5-0.5l-0.4-0.4c-0.3-0.3-0.6-0.6-0.9-0.9
						c-0.3-0.3-0.5-0.7-0.8-1c-1-1.4-1.7-3-2.2-4.5c-0.9-3.1-0.8-5.8-0.5-8c0.3-2.3,0.9-4.2,1.5-6c1.3-3.6,2.9-6.6,4.7-9.6
						c0.9-1.5,1.8-2.9,2.8-4.3c0.5-0.7,1-1.4,1.5-2.1l0.8-1l0.9-1.1l0,0c1.1-1.4,2.5-2.3,4.1-2.8c32.8-10.4,70.5-22.2,106.5-33.3
						l0.3-0.1c1.5-0.5,3-0.4,4.3,0.1c30.4,11.5,59.5,22.7,83.2,32.2l-3.1,0c35.3-10.3,59.4-16.6,60-14.9c0.8,2.4-22.3,12-56.7,24.8
						c-1.1,0.4-2.3,0.4-3.3,0.1l-0.4-0.1c-24.3-7.7-54-17.5-84.7-27.9l5.2,0.1c-35.7,12.4-73.1,25.2-105.6,36.2l4.3-3
						c-3.3,4.4-6.7,10-7.7,13.8c-0.3,0.9-0.3,1.7-0.3,1.9c0,0,0,0.1,0,0.1c0,0,0,0,0,0c-0.2,0-0.3,0-0.5,0.1
						c-0.4,0.1-0.5,0.1-0.8,0.1c-0.2,0-0.5,0.1-0.7,0.2c-0.7,0.1-1.2,0.5-1.1,0.4c0,0,0,0,0,0c0.1-0.1,0.1-0.1,0.2-0.2l0.1-0.1l0,0
						c-1.2,1.4,2.7-3.1-2.7,3.1l0.2-0.2c0.1-0.1,0.3-0.3,0.4-0.4c0.2-0.3,0.4-0.6,0.6-0.9c0.1-0.1,0.2-0.4,0.3-0.6l0.4-0.6
						c0.3-0.4,0.5-0.9,0.7-1.3l0.3-0.7c0.1-0.2,0.3-0.5,0.4-0.8l0.2-0.4c0,0,0,0,0,0l0,0l0,0l0.4,0.1c0.8,0.3,2,0.5,3.2,0.8
						c2.4,0.5,5.1,0.9,7.6,1.2c2.6,0.3,5.1,0.6,7.5,0.9c4.9,0.5,9.5,0.9,13.7,1.2c16.9,1.3,27.4,1.8,28,1.8
						c5.9,0.3,24.3,1.4,49.5,2.4l0.2,0c2.2,0.1,4.3,1,5.8,2.4C361.5,213,406,254.3,445,291.3l-4-1.7c0.7,0.1,1.7,0.1,2.6,0.2
						c0.9,0,1.9,0.1,2.8,0.1c0.9,0,1.9,0,2.8,0c0.9,0,1.9,0,2.8-0.1c1.9,0,3.8-0.2,5.6-0.3c1.9-0.2,3.7-0.3,5.5-0.5
						c7.3-0.8,14.4-2,21.1-3.6c6.7-1.6,13-3.4,18.8-5.5c1.5-0.5,2.9-1,4.3-1.5c1.4-0.6,2.8-1.1,4.1-1.6c2.7-1.1,5.2-2.1,7.5-3.2
						c4.6-2.3,8.7-4.9,12.2-7.2c3.5-2.4,6.5-4.6,8.9-6.4c4.8-3.7,7.6-5.7,8.2-5.2c0.5,0.5-1.2,3.5-5.3,8.3c-2,2.4-4.7,5.1-8,8.1
						c-3.3,3-7.3,6.2-12.1,9.3c-2.4,1.6-5.1,3-7.8,4.3c-1.4,0.7-2.7,1.4-4.1,2.1c-1.4,0.7-2.9,1.3-4.4,2c-5.9,2.7-12.5,5.1-19.5,7.3
						c-7,2.2-14.5,3.9-22.3,5.3c-3.9,0.7-8,1.2-12.1,1.5c-1,0.1-2.1,0.2-3.1,0.2c-1,0-2.1,0.1-3.2,0.1c-1.1,0-2.1,0.1-3.2,0.1
						c-1.1,0-2.1,0-3.5-0.1c-1.4-0.1-2.6-0.6-3.6-1.5l-0.3-0.2c-40.6-35-86.1-75-117.8-103l6,2.4C300,200.2,281.9,199.4,274.1,199z"
						/>
					<path class="st2" d="M275.2,179.8c-1.2-0.1-11.5-0.6-28.1-1.8c-4.1-0.3-8.7-0.7-13.5-1.2c-4.8-0.5-10.1-1.1-15-2.1
						c-1.2-0.2-2.4-0.5-3.3-0.8c-0.3-0.1-0.4-0.1-0.5-0.2c-0.1,0-0.1,0-0.1,0l0,0l0,0c0,0,0,0,0,0.1l-0.1,0.2
						c-0.1,0.3-0.3,0.6-0.4,0.8l-0.3,0.7c-0.2,0.4-0.4,0.9-0.7,1.3l-0.4,0.6c-0.1,0.2-0.3,0.4-0.4,0.6c-0.2,0.3-0.4,0.6-0.6,0.9
						c-0.1,0.1-0.2,0.3-0.4,0.4l-0.2,0.2c-0.6,0.7,5.1-5.9,2.7-3.1l0,0c0,0.1-0.1,0.1-0.2,0.2c-0.1,0.1-0.2,0.1-0.1,0.1
						c0,0-0.1,0,0.2-0.1c0.1,0,0.1-0.1,0.2-0.1c0.2-0.1,0.3-0.1,0.5-0.2c0.1,0,0.2,0,0.2-0.1l0.4-0.1c0.2-0.1,0.5-0.1,0.7-0.1
						c0.2,0,0.7-0.1,0.9-0.1c0,0,0,0,0,0c0-0.2,0-0.9,0.3-1.8c1-3.8,4.4-9.5,7.8-14l-4.3,3c24.2-8.2,55.6-18.9,86.8-29.7
						c6.5-2.3,12.8-4.4,18.8-6.5l-5.1-0.1c36.3,12.3,63.9,21.3,84.7,27.9l0.4,0.1c1.1,0.4,2.3,0.3,3.3-0.1
						c45.6-17,57.1-23,56.5-24.6c-0.2-0.5-2.8-0.4-11.5,1.7s-23.6,6-48.3,13.2l3,0c-20.1-8-47.1-18.5-83.2-32.2
						c-1.4-0.5-2.9-0.5-4.2-0.1l-0.3,0.1c-6.1,1.9-12.4,3.8-19,5.9c-30.7,9.5-62.1,19.4-87.5,27.4c-1.7,0.5-3,1.5-4,2.8l0,0
						l-0.9,1.1l-0.8,1.1c-0.5,0.7-1,1.4-1.5,2.1c-1,1.4-1.9,2.9-2.8,4.3c-1.8,3-3.4,6.1-4.7,9.7c-0.6,1.8-1.2,3.8-1.5,6.1
						c-0.3,2.3-0.3,5.1,0.7,8.2c0.2,0.8,0.6,1.5,1,2.3c0.4,0.8,0.9,1.5,1.4,2.2c0.5,0.7,1.1,1.3,1.7,1.9l0.2,0.2l0.4,0.3
						c0.2,0.2,0.5,0.4,0.8,0.6c0.6,0.4,0.9,0.5,1.2,0.8c0.8,0.5,1.3,0.6,1.9,0.9c0.5,0.2,1,0.4,1.5,0.6l1.3,0.4l1.2,0.3
						c3.1,0.8,5.9,1.3,8.6,1.7c2.7,0.4,5.2,0.8,7.7,1.1c4.9,0.6,9.5,1.1,13.8,1.5c16.9,1.6,28.4,2.2,32.3,2.4
						c4.9,0.3,21.5,1.1,50.1,1.8l-5.9-2.4c21.1,18.6,56.5,49.9,91.3,80.1c9.6,8.3,18.4,15.9,26.5,22.9l0.2,0.2
						c1,0.9,2.3,1.4,3.6,1.5c0.6,0,1,0,1.4,0.1c0.5,0,0.9,0,1.3,0c0.9,0,1.7,0,2.5,0c1.7,0,3.3-0.1,4.9-0.2c3.2-0.2,6.3-0.5,9.2-0.9
						c5.9-0.7,11.5-1.8,16.6-3c10.3-2.4,19.1-5.5,26.7-8.6c1.9-0.8,3.7-1.6,5.4-2.4c0.9-0.4,1.7-0.8,2.6-1.2
						c0.8-0.4,1.6-0.8,2.4-1.2c1.6-0.8,3.1-1.6,4.6-2.3c1.5-0.8,2.9-1.6,4.3-2.4c5.3-3.3,9.4-6.6,12.6-9.5c3.2-2.9,5.7-5.4,7.5-7.5
						c1.9-2.1,3.2-3.8,4.1-5.1c1.9-2.6,2.2-3.7,1.9-3.9c-0.3-0.3-1.3,0.2-3.8,2.1c-2.6,1.8-6.6,5.1-13.4,9.8
						c-3.4,2.3-7.6,4.9-12.7,7.4c-1.3,0.6-2.6,1.2-4,1.8c-1.5,0.6-3,1.2-4.6,1.8c-0.8,0.3-1.6,0.6-2.4,1c-0.8,0.3-1.7,0.6-2.5,0.9
						c-1.7,0.6-3.5,1.2-5.3,1.8c-7.4,2.4-15.9,4.6-25.7,6.3c-4.9,0.8-10.1,1.5-15.6,1.9c-2.7,0.2-5.6,0.3-8.5,0.4
						c-1.4,0-2.9,0-4.3,0c-0.7,0-1.5,0-2.2-0.1c-0.4,0-0.7,0-1.1-0.1l-0.9-0.1l4,1.7c-7.8-7.3-16.2-15.3-25.4-24
						c-33.8-31.8-68.3-63.7-88.9-82.8c-1.6-1.5-3.7-2.3-5.7-2.4l-0.2,0C296.3,181.1,279.8,180,275.2,179.8 M275.2,179.6
						c4.9,0.3,23.6,1.4,49.5,2.4l0.2,0c2.3,0.1,4.3,1,5.8,2.4c30.7,28.3,75.3,69.7,114.4,106.8l-4.1-1.8c0.6,0.1,1.7,0.1,2.6,0.2
						c0.9,0,1.9,0.1,2.8,0.1c0.9,0,1.9,0,2.8,0c0.9,0,1.9,0,2.8-0.1c3.8-0.1,7.5-0.4,11.2-0.8c7.3-0.8,14.4-2,21.1-3.6
						c1.7-0.4,3.3-0.9,5-1.3c1.6-0.4,3.2-0.8,4.8-1.3c1.6-0.5,3.1-0.9,4.7-1.4c1.5-0.5,3-1,4.5-1.5c1.5-0.5,2.9-1,4.3-1.5
						c1.4-0.6,2.8-1.1,4.1-1.6c1.3-0.5,2.7-1,3.9-1.6c1.2-0.5,2.4-1.1,3.6-1.7c4.6-2.3,8.7-4.9,12.2-7.3c3.5-2.4,6.5-4.6,8.9-6.4
						c4.9-3.7,7.6-5.7,8.2-5.2c0.6,0.5-1.2,3.6-5.2,8.4c-2,2.4-4.7,5.2-8,8.2c-3.3,3-7.3,6.2-12.1,9.3c-1.2,0.8-2.5,1.5-3.8,2.3
						c-1.3,0.8-2.6,1.4-4,2.1c-1.4,0.7-2.7,1.4-4.2,2.1c-1.4,0.7-2.9,1.3-4.4,2c-1.5,0.6-3,1.4-4.6,2c-1.6,0.6-3.2,1.2-4.8,1.9
						c-1.6,0.7-3.3,1.2-5,1.8c-1.7,0.6-3.4,1.2-5.2,1.7c-7,2.2-14.5,4-22.4,5.3c-3.9,0.7-8,1.2-12.1,1.5c-1,0.1-2.1,0.2-3.1,0.2
						c-1,0-2.1,0.1-3.2,0.1c-1.1,0-2.1,0.1-3.2,0.1c-1.1,0-2.1,0-3.5-0.1c-1.4-0.1-2.7-0.6-3.7-1.5l-0.3-0.2
						c-40.8-35.2-86.4-75.4-117.7-103.1l6,2.4c-26.3-0.5-45-1.4-50.1-1.7c-3.6-0.2-15.2-0.8-32.3-2.4c-4.3-0.4-8.9-0.9-13.9-1.5
						c-2.5-0.3-5.1-0.7-7.7-1.1c-2.7-0.5-5.5-0.9-8.7-1.8c-0.8-0.2-1.7-0.5-2.6-0.8l-0.7-0.3l-0.4-0.1l-0.4-0.2l-0.9-0.4
						c-0.4-0.2-0.8-0.4-1.1-0.6l-0.3-0.2c-0.1,0-0.3-0.2-0.4-0.2c-0.3-0.2-0.5-0.4-0.8-0.6c-0.6-0.4-0.8-0.7-1.1-1
						c-0.6-0.6-1.2-1.2-1.7-1.9c-0.3-0.4-0.5-0.7-0.7-1.1c-0.2-0.4-0.4-0.8-0.6-1.1c-0.4-0.8-0.7-1.5-0.9-2.3
						c-1-3.1-0.9-5.9-0.6-8.1c0.3-2.3,0.9-4.2,1.5-6.1c1.3-3.6,3-6.7,4.7-9.6c0.9-1.5,1.8-2.9,2.8-4.3c0.5-0.7,1-1.4,1.5-2.1l0.8-1
						l0.9-1.1l0,0c1.1-1.4,2.5-2.4,4.1-2.9c32.8-10.4,70.5-22.2,106.5-33.4l0.3-0.1c1.5-0.5,3-0.4,4.4,0.1
						c30.4,11.5,59.5,22.7,83.2,32.2l-3.1,0c35.4-10.3,59.7-16.7,60.3-14.9c0.8,2.4-22.4,12.1-57,25c-1.1,0.4-2.3,0.4-3.4,0.1
						l-0.4-0.1c-24.4-7.7-54-17.5-84.8-27.9l5.3,0.1c-35.7,12.4-73,25.2-105.6,36.2l4.4-3l-0.5,0.7l-0.6,0.8
						c-0.4,0.6-0.8,1.1-1.2,1.7c-0.8,1.1-1.5,2.3-2.1,3.4c-1.3,2.2-2.4,4.5-3,6.4c-0.3,0.9-0.5,1.8-0.6,2.3c0,0.1,0,0.2,0,0.3
						c0,0,0,0.1,0,0.1c0.3-0.1-0.8,0.1-1.1,0.1c-0.2,0-0.4,0.1-0.7,0.1l-0.3,0.1l-0.2,0.1c-0.1,0-0.3,0.1-0.4,0.2
						c-0.1,0-0.1,0.1-0.1,0.1l-0.1,0c-0.1,0-0.1,0.1-0.2,0.1c0,0,0,0,0,0l0,0c0,0,0,0,0,0c0.1-0.1,0.1-0.1,0.2-0.2l0.1-0.1l0,0
						c-5.4,6.2-1.5,1.7-2.6,3l0.1-0.1c0.1-0.1,0.2-0.3,0.3-0.4c0.2-0.3,0.4-0.6,0.6-0.9c0.1-0.2,0.1-0.3,0.3-0.5l0.4-0.6
						c0.5-0.8,0.9-1.6,1.2-2.5l0.4-0.8l0.2-0.4l0,0l0,0l0,0l0.1,0l0.2,0.1c0.3,0.1,0.8,0.2,1.3,0.4c2,0.5,4.4,0.9,6.8,1.3
						c2.4,0.4,4.8,0.7,7.1,0.9c4.7,0.5,9.1,0.9,13.3,1.3C260.1,178.8,271.6,179.4,275.2,179.6z"/>
				</g>
			</g>
		</g>
	</g>
	<g class="st1">
		<g>
			<g>
				<g>
					<path class="st2" d="M117.3,143.5c-0.4,1.3-2.7,6.9-4.9,14.9c-0.3,1-0.5,2-0.8,3.1c-0.3,1.1-0.5,2.2-0.8,3.3
						c-0.6,2.3-0.9,4.7-1.4,7.1c-0.8,4.9-1.4,10.2-1.8,15.5c-0.3,5.3-0.4,10.5-0.3,15.5c0.2,4.9,0.4,9.6,0.7,13.5
						c0.6,7.9,1,13.4-0.6,14c-2.2,0.8-5.9-4.1-9.2-12.5c-3.3-8.4-5.8-20.3-6.3-32.4c-0.6-12.1,0.9-24.4,3-33.4
						c0.6-2.2,1-4.3,1.5-6.2c0.5-1.8,1-3.4,1.4-4.7c0.9-2.6,1.4-4.2,1.5-4.3c0.6-1.8,3-7.9,7.2-15.5c1-1.9,2.2-3.9,3.5-6
						c1.3-2,2.6-4.1,4.1-6.2c2.9-4.2,6.3-8.4,9.8-12.3c7.1-7.8,15.1-14.3,21.6-18.3c6.5-3.9,11.4-5.4,12.5-3.9c1,1.4-2,5.1-6.4,10.4
						c-4.4,5.3-10.2,12.5-15.4,20.2c-5.2,7.8-9.7,16.2-12.9,23.2c-0.7,1.8-1.5,3.4-2.1,5c-0.6,1.6-1.2,3-1.7,4.3
						C118.4,140.5,117.6,142.4,117.3,143.5z"/>
					<path class="st2" d="M99.2,137c-0.1,0.5-2.6,6.7-4.6,16.1c-1,4.7-1.9,10.2-2.4,16.1c-0.5,5.9-0.6,12.1-0.3,18.3
						c0.6,9.6,2.1,17.1,3.7,23c0.9,2.9,1.7,5.5,2.6,7.6c0.4,1.1,0.8,2.1,1.2,3c0.4,0.9,0.8,1.7,1.2,2.5c1.5,3,2.9,4.8,4,5.8
						c1.1,1,1.9,1.2,2.5,1c0.4-0.1,0.7-0.6,0.9-1.9c0.1-0.6,0.1-1.4,0.1-2.4c0-1-0.1-2.3-0.1-3.8c-0.1-1.5-0.2-3.3-0.4-5.5
						c-0.1-1.1-0.2-2.2-0.2-3.5c-0.1-1.2-0.1-2.6-0.2-4c-0.3-5.7-0.5-12.9,0.1-21.9c0.4-5.2,1-10.3,1.8-15.2
						c0.2-1.2,0.5-2.4,0.7-3.6c0.1-0.6,0.2-1.2,0.3-1.8c0.1-0.6,0.3-1.2,0.4-1.7c0.3-1.1,0.5-2.2,0.7-3.3c0.3-1.1,0.6-2.1,0.8-3.1
						c2.1-8.1,4.5-13.7,4.9-15.1c0.5-1.3,2.2-6.6,5.2-13.6c1.5-3.5,3.4-7.3,5.5-11.3c2.2-4,4.6-8.1,7.2-12.1
						c4.5-6.8,8.5-11.9,11.7-15.9c3.2-4,5.7-6.9,7.4-9.1c0.8-1.1,1.5-2,2.1-2.8c0.5-0.8,0.9-1.4,1.1-1.9c0.5-1,0.5-1.6,0.2-2
						c-0.3-0.4-0.8-0.6-2-0.5c-0.6,0.1-1.3,0.2-2.3,0.5c-0.9,0.3-2.1,0.7-3.4,1.4c-2.6,1.3-6.2,3.2-10.7,6.5
						c-4.5,3.3-9.9,7.9-16,14.6c-3.6,4-6.9,8.2-9.9,12.4c-2.9,4.2-5.5,8.4-7.5,12.2C102,129.6,99.8,135.5,99.2,137 M99,136.9
						c0.5-1.5,2.8-7.4,6.9-15c2-3.8,4.6-8,7.5-12.2c3-4.2,6.3-8.5,9.8-12.4c7.1-7.9,15.2-14.6,21.8-18.6c6.6-4,11.6-5.5,12.7-4
						c1,1.5-2.1,5.4-6.7,10.9c-4.6,5.6-10.6,12.9-15.8,21c-2.6,4-5.1,8.1-7.3,12.1c-2.1,4-4,7.9-5.5,11.4c-3,6.9-4.7,12.2-5.1,13.4
						c-0.4,1.3-2.7,6.8-4.9,14.8c-1.1,4-2.1,8.6-3,13.6c-0.8,4.9-1.4,10.2-1.8,15.5c-0.3,5.3-0.4,10.5-0.3,15.5
						c0.2,4.9,0.4,9.6,0.7,13.5c0.6,8,1,13.5-0.7,14c-2.2,0.8-5.8-3.8-9-11.8c-1.7-4-3-8.8-4.3-14.1c-1.1-5.3-1.9-11.1-2.3-17
						c-0.3-5.9-0.2-11.9,0.2-17.6c0.5-5.7,1.3-11,2.2-15.7C96.1,144.9,98.6,138.4,99,136.9z"/>
				</g>
			</g>
		</g>
	</g>
	<line class="st3" x1="156.4" y1="81.4" x2="248.4" y2="118.4"/>
	<g class="st1">
		<g>
			<g>
				<g>
					<path class="st2" d="M385.9,403.2c-0.2,0.2-0.4,0.6-0.8,1c-0.3,0.4-0.8,0.8-1.3,1.3c-1,1-2.2,2.3-3.9,3.6
						c-3.2,2.7-7.9,5.6-13.7,7.8c-5.8,2.2-12.9,3.5-20.6,3.1c-7.6-0.5-15.9-3-22.8-7.9l8.7,0c-4.5,2.6-9.4,4.7-14.4,5.8
						c-1.2,0.3-2.5,0.5-3.7,0.7l-1.9,0.3c-0.6,0.1-1.2,0.1-1.9,0.2c-1.2,0.1-2.5,0.2-3.7,0.3c-1.2,0-2.4,0-3.7-0.1
						c-1.2,0-2.4-0.1-3.6-0.3c-1.2-0.1-2.3-0.2-3.5-0.4c-2.3-0.5-4.5-0.8-6.6-1.5c-1.1-0.3-2.1-0.6-3.1-1c-1-0.4-2-0.8-2.9-1.2
						c-0.5-0.2-1-0.4-1.4-0.6c-0.5-0.2-0.9-0.5-1.4-0.7c-0.9-0.5-1.8-0.9-2.6-1.4c-6.7-3.8-11.3-8.5-13.8-12.2
						c-1.3-1.8-2-3.5-2.4-4.6c-0.4-1.2-0.4-1.9,0-2.2c0.5-0.4,1.4-0.3,2.5,0.2c1.1,0.5,2.4,1.4,4.2,2.4c3.4,2.1,8,4.8,14,6.7
						c0.7,0.2,1.5,0.5,2.3,0.7c0.4,0.1,0.8,0.3,1.2,0.3c0.4,0.1,0.8,0.2,1.2,0.3c0.8,0.2,1.6,0.4,2.5,0.6c0.8,0.1,1.7,0.2,2.6,0.4
						c1.7,0.3,3.5,0.3,5.3,0.5c0.9,0,1.8,0,2.7,0c0.9,0,1.8,0,2.7-0.1c0.9-0.1,1.8-0.2,2.7-0.3c0.9-0.2,1.8-0.3,2.7-0.5
						c0.5-0.1,0.9-0.1,1.4-0.3l1.3-0.4c0.9-0.3,1.8-0.4,2.6-0.8c3.5-1.2,6.6-2.9,9.5-4.8c2.8-1.9,6.3-1.9,9-0.3l0.6,0.3
						c4.6,2.7,10,4,15.1,3.8c5.1-0.1,9.8-1.4,13.5-3.1c3.7-1.7,6.2-3.8,7.9-5.2c0.8-0.8,1.4-1.4,1.8-1.9c0.4-0.4,0.6-0.8,0.6-0.8
						c0.2-0.3,0.6-0.8,1.2-1.5c0.5-0.7,1-1.6,1.7-2.6l0.6-0.9c2.1-3,5.5-4.5,8.9-4.1c2.1,0.2,4.7,0.4,7.8-0.1
						c3.1-0.5,6.6-1.7,10.1-3.7c3.5-2,6.9-4.8,9.5-8.3c2.7-3.4,4.7-7.5,5.6-11.7l0.2-1c0.5-2.2,2-3.8,3.8-4.7
						c2.6-1.1,5.1-2.6,7.5-4.2c2.3-1.7,4.4-3.6,6.4-5.5c3.8-4,6.7-8.4,8.7-12.5c2-4.1,3.3-7.7,4.1-10.3c0.5-1.3,0.8-2.4,1.3-3.1
						c0.4-0.7,0.8-1.2,1.3-1.2c0.4,0,0.8,0.4,1.2,1.2c0.4,0.8,0.8,1.9,1,3.5c0.5,3,0.6,7.5-0.6,12.8c-1.1,5.3-3.6,11.3-7.5,17.2
						c-2,2.9-4.4,5.7-7.2,8.4c-2.8,2.6-6,5-9.5,7l3.9-5.5c-0.6,6.8-3.1,13.4-6.7,19c-3.6,5.6-8.3,10.3-13.4,13.8
						c-5.1,3.5-10.6,5.8-15.8,7c-5.2,1.2-10.1,1.3-14,1l9.6-5.1c-1,1.8-1.9,3.3-2.7,4.6C387.2,401.5,386.5,402.5,385.9,403.2z"/>
					<path class="st2" d="M371.1,391c0,0-0.1,0.1-0.2,0.3c-0.1,0.2-0.3,0.4-0.5,0.6c-0.5,0.4-1.1,1.1-1.9,1.9
						c-1.7,1.5-4.3,3.5-7.9,5.2c-3.6,1.7-8.3,3-13.4,3.1c-5.1,0.2-10.5-1.1-15.2-3.8l-0.4-0.2c-2.9-1.7-6.4-1.5-9.1,0.2
						c-0.6,0.4-1.1,0.7-1.8,1.1c-0.6,0.4-1.2,0.9-2,1.2c-0.7,0.4-1.5,0.7-2.2,1.1c-0.4,0.2-0.8,0.4-1.2,0.5l-1.2,0.5
						c-4.9,1.9-9.8,2.6-14.3,2.8c-1.1,0-2.2,0.1-3.3,0c-1.1-0.1-2.1-0.1-3.1-0.2c-1-0.1-2-0.3-2.9-0.4c-0.5-0.1-0.9-0.1-1.4-0.2
						c-0.5-0.1-0.9-0.2-1.3-0.3c-7.1-1.5-12.1-3.9-15.8-5.9c-0.9-0.5-1.8-0.9-2.5-1.4c-0.7-0.5-1.4-0.9-2.1-1.3
						c-0.6-0.4-1.3-0.7-1.7-1c-0.5-0.3-0.9-0.6-1.4-0.8c-1.6-0.9-2.7-1-3.2-0.6c-0.3,0.2-0.4,0.9,0.2,2.5c0.6,1.6,1.9,4.2,5.1,7.7
						c3.1,3.5,8.3,7.9,16.8,11.5c4.2,1.8,9.3,3.2,15.3,3.9c6,0.6,12.9,0.4,20.4-1.6l1.7-0.5c0.6-0.2,1.1-0.3,1.7-0.6
						c1.1-0.4,2.2-0.9,3.3-1.3c1.1-0.4,2.1-1,3.1-1.5c1-0.5,1.9-1,2.8-1.5l-8.7,0c7,4.9,15.2,7.4,22.8,7.9
						c7.6,0.4,14.7-0.9,20.5-3.1c5.8-2.2,10.5-5,13.7-7.8c1.7-1.3,2.9-2.6,3.9-3.6c0.5-0.5,0.9-0.9,1.3-1.3c0.3-0.4,0.6-0.7,0.8-1
						c0.3-0.3,0.7-0.8,1.5-1.9c0.9-1,1.8-2.8,3.5-5.5l-9.5,5c1.1,0.1,2.5,0.1,4.2,0.2c0.9,0,1.8-0.1,2.8-0.1c1-0.1,2.1-0.1,3.2-0.3
						c4.5-0.6,9.9-2.3,15.3-5.2c1.3-0.7,2.6-1.6,4-2.4c1.3-0.9,2.6-1.9,3.9-2.9c1.2-1.1,2.5-2.2,3.7-3.4c1.1-1.3,2.4-2.5,3.4-3.9
						c4.3-5.5,7.7-12.2,8.8-19.4c0.2-1.1,0.3-2.2,0.5-3.2l-3.9,5.4c5.9-3.4,10.3-7.4,13.6-11.4c3.4-4,5.7-8,7.3-11.6
						c3.3-7.2,4-13,4.1-17.1c0-1,0-1.9,0-2.8c-0.1-0.8-0.2-1.6-0.3-2.2c-0.1-0.7-0.2-1.2-0.3-1.7c-0.1-0.5-0.3-0.9-0.4-1.3
						c-0.5-1.4-1-1.8-1.4-1.8c-0.4,0-0.9,0.5-1.5,1.8c-0.1,0.3-0.3,0.7-0.4,1.2c-0.2,0.4-0.4,0.9-0.6,1.5c-0.2,0.6-0.4,1.2-0.6,1.9
						c-0.3,0.7-0.6,1.5-0.8,2.3c-1.3,3.3-3.1,7.8-6.9,13c-1.9,2.6-4.2,5.4-7.2,8c-3,2.7-6.7,5.2-11.1,7.1c-1.8,0.8-3.1,2.4-3.6,4.2
						l-0.4,1.4c-0.2,0.6-0.4,1.3-0.5,2c-0.1,0.3-0.1,0.6-0.2,0.8l-0.3,0.8l-0.6,1.6l-0.8,1.6c-0.3,0.5-0.5,1.1-0.8,1.5l-0.9,1.5
						c-0.3,0.5-0.7,0.9-1,1.4c-0.4,0.5-0.7,0.9-1.1,1.4c-0.4,0.4-0.8,0.9-1.2,1.3l-0.6,0.6l-0.6,0.6c-0.4,0.4-0.8,0.8-1.2,1.1
						c-0.8,0.7-1.8,1.4-2.6,2c-0.9,0.6-1.8,1.2-2.7,1.7c-0.9,0.4-1.8,1-2.7,1.4c-0.4,0.2-0.9,0.4-1.3,0.6c-0.4,0.2-0.9,0.4-1.3,0.5
						c-0.9,0.2-1.7,0.6-2.5,0.8c-0.8,0.2-1.6,0.3-2.3,0.5c-0.7,0.1-1.4,0.2-2.1,0.2c-0.7,0.1-1.3,0-1.8,0.1c-0.6,0-1.1,0.1-1.6,0
						c-1-0.1-1.7-0.2-2.3-0.2c-4-0.3-7.6,1.8-9.5,5l0,0.1C372.1,390,371.4,390.6,371.1,391 M370.9,390.9c0.2-0.3,0.6-0.8,1.1-1.4
						c0.5-0.7,1-1.6,1.7-2.6l0.7-1c2.1-3,5.6-4.5,9-4.2c2,0.2,4.7,0.4,7.8-0.1c3.1-0.5,6.6-1.7,10.1-3.7c3.5-1.9,6.9-4.8,9.5-8.2
						c2.7-3.4,4.7-7.5,5.6-11.7l0.2-1c0.5-2.2,2-3.9,3.9-4.8c2.6-1.1,5.1-2.6,7.4-4.2c2.3-1.7,4.4-3.6,6.4-5.5
						c3.8-4,6.7-8.4,8.7-12.5c4.1-8.1,4.8-14.6,6.8-14.6c0.4,0,0.8,0.4,1.2,1.2c0.4,0.8,0.8,2,1,3.5c0.6,3,0.6,7.5-0.5,12.9
						c-1.1,5.3-3.6,11.4-7.5,17.3c-2,2.9-4.4,5.8-7.2,8.4c-2.8,2.6-6,5-9.5,7l4-5.6c-0.6,6.9-3.2,13.6-6.9,19.3
						c-3.7,5.7-8.4,10.4-13.6,13.8c-5.2,3.5-10.7,5.7-15.8,6.9c-5.2,1.2-10,1.2-13.7,0.9l9.7-5.1c-1.1,2-2.1,3.7-2.9,4.9
						c-0.9,1.2-1.6,2.1-2,2.6c-0.2,0.2-0.4,0.5-0.7,0.9c-0.3,0.4-0.8,0.8-1.2,1.3c-1,1-2.2,2.3-3.9,3.6c-3.2,2.7-7.9,5.6-13.7,7.8
						c-5.9,2.2-13,3.6-20.7,3.2c-7.7-0.5-15.9-3-23-7.9l8.9,0c-4.5,2.6-9.4,4.7-14.4,5.9c-1.2,0.3-2.5,0.5-3.8,0.7l-1.9,0.3
						c-0.6,0.1-1.3,0.1-1.9,0.2c-1.2,0.1-2.5,0.2-3.7,0.3c-1.2,0-2.5,0-3.7-0.1c-1.2,0-2.4-0.1-3.6-0.3c-1.2-0.1-2.4-0.2-3.5-0.4
						c-2.3-0.5-4.5-0.8-6.6-1.5c-1.1-0.3-2.1-0.6-3.1-1c-1-0.4-2-0.8-2.9-1.2c-0.5-0.2-1-0.4-1.4-0.6c-0.5-0.2-0.9-0.5-1.4-0.7
						c-0.9-0.5-1.8-0.9-2.6-1.4c-6.8-3.8-11.3-8.6-13.8-12.3c-1.3-1.8-2-3.5-2.4-4.7c-0.4-1.2-0.4-1.9,0-2.2
						c0.5-0.4,1.4-0.3,2.5,0.2c1.1,0.5,2.4,1.4,4.2,2.3c3.4,2.1,8,4.8,14,6.7c0.7,0.2,1.5,0.5,2.3,0.7c0.4,0.1,0.8,0.2,1.2,0.4
						c0.4,0.1,0.8,0.2,1.2,0.3c0.8,0.2,1.6,0.4,2.5,0.6c0.8,0.2,1.7,0.2,2.6,0.4c1.7,0.3,3.5,0.3,5.3,0.5c0.9,0.1,1.8,0,2.7,0
						c0.9,0,1.8,0,2.7-0.1c0.9-0.1,1.8-0.2,2.7-0.3c0.9-0.2,1.8-0.3,2.7-0.5c0.4-0.1,0.9-0.1,1.4-0.3l1.3-0.4
						c0.9-0.3,1.8-0.4,2.6-0.8c3.5-1.2,6.6-2.9,9.5-4.8c2.9-1.9,6.4-1.9,9.2-0.3l0.5,0.3c4.3,2.5,9.3,3.8,14.2,3.8
						c4.9,0,9.4-1.1,13-2.6c3.6-1.5,6.5-3.4,8.2-5c1-0.7,1.6-1.5,2.2-2.1c0.3-0.3,0.5-0.5,0.7-0.7
						C370.7,391.2,370.9,391,370.9,390.9z"/>
				</g>
			</g>
		</g>
	</g>
	<line class="st3" x1="288.4" y1="359.4" x2="326.4" y2="402.4"/>
	<line class="st3" x1="322.4" y1="324.4" x2="389.4" y2="391.4"/>
	<line class="st3" x1="357.4" y1="289.4" x2="424.4" y2="359.4"/>
	<path class="st3" d="M111.4,265.4c1,2,11,41,42,72s72,54,72,54s36-28,32-39s-27-23-27-23s6-18-4-30c-5.3-6.3-24-8-24-8s3-25-6-30
		s-26-3-26-3s-1-23-18-21S111.4,265.4,111.4,265.4z"/>
</g>
<g id="training">
	<g>
		<g>
			<g>
				<g>
					<path class="st2" d="M553.3,123.8c0-6.3,0.1-25.7,0.2-53.9l9.4,9.4c-102.8-0.5-323.1-2-459-4.6l4.9-4.9
						c-0.7,34.2-1.4,63-2.2,83.3c-0.8,20.3-1.7,32-2.7,32c-2.6,0-4.5-47-5.9-115.3c-0.1-3.2,2.5-5.9,5.7-5.9l0.2,0
						c136.3-2.8,357.6-3.5,459-3.7c5.3,0,9.6,4.3,9.6,9.5l0,0v0c0,32.6,0.1,52.8,0.1,53.9c0,23.6-0.6,161.1-2,295.1l0,0.2
						c0,4.2-3.5,7.5-7.7,7.5c-69.7-0.7-138.4-1.7-189.7-3c-51.3-1.3-85.2-2.8-85.2-4.7c0-0.8,8.5-1.6,23.3-2.4
						c14.9-0.7,36.2-1.4,61.8-2c51.3-1.2,120-2.3,189.8-3l-7.5,7.5C554,289.1,553.3,155.7,553.3,123.8z"/>
					<path class="st2" d="M572.5,123.8c0-1.7,0-13.3,0-53.9v0c0-5.2-4.3-9.5-9.5-9.5l0,0c-34.5,0.1-155.7,0.3-275.2,1.3
						c-80.3,0.7-139.9,1.5-183.8,2.4l-0.2,0c-3.1,0.1-5.6,2.7-5.6,5.8c0.9,45.6,1.9,74.3,2.9,91.6s2,23.2,2.9,23.2
						c0.5,0,1.3-4.6,2.1-21.3s1.7-45.4,2.7-93.6l-4.7,4.7c43.5,0.8,102.9,1.7,183.8,2.5c114.4,1.2,234.7,1.9,275.2,2.1l-9.4-9.4
						c-0.1,36.6-0.1,48.9-0.1,53.9c0,20.6,0.7,159.7,2.2,295.1l7.4-7.4c-1.5,0-3.2,0-5,0.1c-117.3,1.3-184.6,2.8-222.7,4.1
						c-19,0.6-30.7,1.3-37.7,1.8s-9.1,1-9.1,1.4c0,0.4,2.2,1,9.1,1.5s18.7,1.2,37.7,1.9c38.1,1.3,105.5,2.8,222.7,4.1
						c1.8,0,3.5,0,5,0.1c4.1,0,7.5-3.3,7.6-7.4l0,0l0-0.2C572,281.9,572.5,143.5,572.5,123.8 M572.7,123.8c0,19.5-0.5,159-2,295.1
						l0,0.2c0,4.3-3.5,7.7-7.8,7.6c-69.7-0.7-138.6-1.7-190-3c-51.4-1.3-85.4-2.9-85.4-4.8c0-1.8,34-3.3,85.4-4.5s120.3-2.3,190-3
						l-7.6,7.6c-1.5-136.1-2.2-275.6-2.2-295.1c0-6.1,0.1-25.5,0.2-53.9l9.5,9.5c-102.6-0.5-322.9-1.9-459-4.6l5-5
						c-0.7,34.3-1.4,63.2-2.2,83.6s-1.7,32.2-2.7,32.2c-2.7,0-4.6-47.2-6-115.8c-0.1-3.3,2.5-6,5.8-6l0.2,0
						c136.1-2.8,356.4-3.5,459-3.7c5.3,0,9.7,4.3,9.7,9.7v0v0C572.7,98.3,572.7,117.7,572.7,123.8z"/>
				</g>
			</g>
		</g>
	</g>
	<g>
		<g>
			<g>
				<g>
					<path class="st2" d="M124.1,208.3c-1.3-0.2-4.9-0.8-10.2-0.6c-5.2,0.2-12.2,1.3-19.5,4.8c-7.3,3.5-14.7,9.4-20.2,17.5
						c-2.8,4.1-5,8.6-6.6,13.5c-1.6,4.9-2.4,10-2.6,15.2c-0.3,10.4,2.6,20.8,7.6,29.2c1.2,2.1,2.6,4.1,4.1,5.9
						c1.4,1.9,3,3.6,4.6,5.2c3.2,3.2,6.6,5.8,10,7.9c6.7,4.2,13.2,6.3,17.8,7.4c4.6,1.2,7.4,1.6,7.4,2.3c0,0.8-3,1.8-8.4,1.7
						c-2.7-0.1-6-0.4-9.7-1.3c-3.7-0.9-7.8-2.3-12-4.5c-8.4-4.2-17.3-11.7-23.6-22c-3.2-5.1-5.7-10.9-7.3-17.1
						c-1.6-6.2-2.3-12.7-2-19.2c0.3-6.5,1.6-13,3.8-19.1c1.1-3,2.4-6,3.9-8.8c1.5-2.8,3.2-5.4,5.1-7.9c7.4-9.9,17.3-16.9,26.6-20.7
						c4.7-1.9,9.2-3.1,13.2-3.8c4.1-0.7,7.7-0.9,10.7-0.9c6,0,9.5,0.8,9.8,0.7c2,0.4,6.6,1.1,12.6,3.4c6,2.3,13.4,6.3,20.2,12.8
						c6.9,6.4,13.1,15.3,16.7,25.7c1.8,5.2,3,10.8,3.4,16.4c0.4,5.6,0.1,11.4-1,16.9c-2.1,11.1-7.3,21.3-14,29.1
						c-6.7,7.8-14.8,13.1-22.2,16c-7.4,3-14,3.8-18.5,3.8c-4.5,0-7-0.8-7-1.4c0-0.7,2.4-1.1,6.3-2.1c2-0.5,4.4-1.2,7-2.1
						c2.6-1,5.6-2.2,8.6-3.8c6-3.3,12.5-8.2,17.7-15.1c5.3-6.7,9.1-15.3,10.7-24.4c0.7-4.5,0.9-9.2,0.5-13.7
						c-0.4-4.6-1.3-9-2.8-13.2c-1.5-4.2-3.4-8-5.7-11.5c-2.3-3.5-4.9-6.5-7.6-9.1c-5.5-5.2-11.4-8.5-16.3-10.4
						C130.2,209.3,126.2,208.6,124.1,208.3z"/>
					<path class="st2" d="M126.3,194c-0.6,0-4.4-0.9-10.8-0.7c-3.2,0-7,0.4-11.2,1.2c-4.2,0.8-8.9,2.2-13.6,4.4
						c-9.5,4.2-19.4,11.9-26.5,22.5c-3.6,5.3-6.4,11.2-8.3,17.6c-0.9,3.2-1.6,6.4-2.1,9.7c-0.4,3.3-0.6,6.6-0.6,9.9
						c0.2,10.3,2.8,19.4,6.5,26.8c3.7,7.4,8.3,13.2,13,17.7c2.4,2.2,4.7,4.1,7.1,5.7c2.3,1.6,4.6,2.9,6.8,4
						c4.4,2.2,8.3,3.5,11.7,4.3c6.9,1.5,11.4,1.4,14.1,1c2.7-0.4,3.7-1,3.7-1.4c0-0.3-0.7-0.7-3-1.2c-1.1-0.3-2.6-0.6-4.6-1.1
						c-1-0.2-2.1-0.6-3.3-0.9c-1.2-0.4-2.5-0.8-3.9-1.4c-2.8-1.1-6.2-2.6-9.8-4.8c-3.6-2.2-7.6-5.2-11.5-9.3
						c-3.9-4.1-7.7-9.3-10.6-15.9c-2.9-6.6-4.8-14.5-4.6-23.5c0.2-5.1,1-10.2,2.5-15c1.5-4.8,3.7-9.3,6.5-13.4
						c5.4-8.1,12.8-14.1,20.1-17.6c7.3-3.6,14.3-4.8,19.7-5c5.4-0.2,9,0.4,10.4,0.6c1.3,0.3,4.7,0.7,9.3,2.3
						c4.6,1.6,10.4,4.4,16,9.2c5.6,4.7,10.9,11.5,14.3,19.7c3.5,8.2,4.8,17.8,3.7,27.1c-1,8-3.5,14.9-6.7,20.5
						c-1.6,2.8-3.4,5.4-5.2,7.6c-1.8,2.2-3.7,4.2-5.6,5.9c-3.8,3.4-7.5,6-10.8,7.8c-3.4,1.9-6.4,3.1-9,4.1c-5.2,1.8-8.6,2.5-10.7,3
						c-2,0.5-2.7,0.9-2.7,1.1c0,0.3,0.7,0.7,2.8,1.1c2.1,0.3,5.8,0.6,11.8-0.4c3-0.5,6.5-1.4,10.5-3c4-1.6,8.5-4,13.2-7.5
						c2.3-1.8,4.7-3.8,7-6.3c2.3-2.4,4.6-5.2,6.7-8.4c4.2-6.4,7.9-14.4,9.6-23.9c1.9-11.3,0.9-23.2-3.1-33.5
						c-3.8-10.4-10.3-19.1-17.2-25.3c-6.9-6.3-14.3-10-20.1-12.2C132.3,195,128,194.4,126.3,194 M126.4,193.9
						c1.6,0.3,5.9,1,11.8,3.1c5.8,2.2,13.2,6,20.2,12.3c7,6.2,13.4,15,17.2,25.4c3.9,10.4,5,22.3,3.1,33.5c-2,11.3-7,21.7-13.8,29.6
						c-6.7,8-14.9,13.4-22.4,16.4c-7.5,3.1-14.2,3.9-18.8,3.9c-4.6-0.1-7.1-0.8-7.1-1.5c0-0.7,2.5-1.2,6.7-2.2
						c4.1-1.1,10-2.8,16.2-6.3c6.2-3.5,12.8-8.9,18-16.1c5.2-7.1,8.8-16.1,9.9-25.4c1.1-9.3-0.3-19-3.8-27.1
						c-3.4-8.2-8.8-15-14.4-19.7c-5.6-4.8-11.4-7.5-15.9-9.1c-4.6-1.6-7.9-2-9.1-2.3c-1.3-0.2-4.8-0.8-10-0.6
						c-5.2,0.2-12.2,1.3-19.5,4.8c-7.3,3.4-14.7,9.3-20.3,17.4c-2.8,4-5,8.6-6.6,13.5c-0.8,2.4-1.4,4.9-1.8,7.5
						c-0.4,2.6-0.7,5.1-0.8,7.7c-0.3,10.4,2.5,20.8,7.6,29.2c1.2,2.1,2.6,4.1,4.1,6c1.4,1.9,3,3.6,4.6,5.2c3.2,3.2,6.6,5.8,10,7.9
						c6.8,4.2,13.2,6.3,17.8,7.4c4.6,1.2,7.4,1.6,7.4,2.3c0,0.8-2.8,1.8-8,1.8c-5.1,0-12.6-1.1-20.8-5c-4.1-1.9-8.3-4.6-12.4-7.9
						c-2-1.7-4-3.5-5.9-5.6c-1.9-2-3.7-4.3-5.3-6.7c-3.3-4.8-6-10.2-7.9-16.1c-1-2.9-1.7-6-2.2-9.1c-0.5-3.1-0.8-6.3-0.9-9.4
						c0-3.2,0.1-6.4,0.5-9.5c0.4-3.2,1-6.3,1.9-9.3c0.9-3,1.9-6,3.2-8.9c1.3-2.8,2.8-5.6,4.4-8.2c6.6-10.4,15.9-18.2,25.1-22.8
						c9.3-4.7,18.3-6.3,25-6.7C120.1,192.9,124.7,193.7,126.4,193.9z"/>
				</g>
			</g>
		</g>
	</g>
	<g>
		<g>
			<g>
				<g>
					<path class="st2" d="M112.3,344.1c-0.6,0-1.6,0-3.1,0.1c-0.7,0-1.6,0-2.5,0.1c-0.9,0-2,0.2-3.1,0.3c-2.2,0.2-4.8,0.4-7.6,0.9
						c-1.4,0.3-2.9,0.5-4.4,0.8c-1.5,0.4-3.1,0.8-4.7,1.2c-6.4,1.8-13.5,4.7-20.1,9.1c-6.6,4.4-12.8,10.4-17.6,17.4
						c-4.9,7-8.6,14.8-11.3,22.4c-2.7,7.6-4.5,15.1-5.6,21.5c-2.4,12.9-2.7,21.7-4,21.8c-1.8,0.2-4-9.3-3.3-23.8
						c0.4-7.2,1.5-15.7,4-24.6c0.3-1.1,0.7-2.2,1-3.3c0.2-0.6,0.4-1.1,0.5-1.7c0.2-0.6,0.4-1.1,0.6-1.7c0.4-1.1,0.8-2.3,1.3-3.4
						c0.5-1.1,1-2.2,1.5-3.4l0.7-1.7l0.8-1.7c0.6-1.1,1.1-2.2,1.7-3.3c0.6-1.1,1.3-2.2,1.9-3.2c0.6-1.1,1.3-2.2,2-3.2
						c5.7-8.4,13.1-15.8,21.3-21.1c8.1-5.3,16.7-8.6,24.1-10.5c0.9-0.2,1.8-0.5,2.7-0.7c0.9-0.2,1.8-0.3,2.6-0.5
						c1.7-0.3,3.3-0.6,4.9-0.9c3.1-0.3,5.8-0.7,8-0.9c4.5-0.3,7.1-0.3,7.3-0.3c0.8,0,2-0.1,3.7,0c1.7,0.1,3.7,0.2,6.1,0.3
						c2.4,0.2,5.2,0.5,8.2,0.9c3,0.6,6.3,1,9.8,2c7,1.8,14.7,4.6,22.1,8.8c7.4,4.2,14.5,9.7,20.5,16.1c6.1,6.3,10.9,13.4,14.7,20.3
						c3.8,6.9,6.5,13.7,8.3,19.5c3.6,11.8,3.8,20,2.4,20.2c-1.2,0.2-3.5-7-8.4-17.2c-2.5-5.1-5.6-10.9-9.6-16.8
						c-4-5.9-8.8-11.8-14.3-17c-5.5-5.2-11.8-9.7-18.2-13c-6.4-3.4-13.1-5.7-19.2-7.1c-1.5-0.3-3-0.7-4.5-1
						c-1.5-0.2-2.9-0.4-4.2-0.6c-0.7-0.1-1.3-0.2-2-0.3c-0.7-0.1-1.3-0.1-1.9-0.1c-1.3-0.1-2.4-0.2-3.6-0.3
						c-2.2-0.1-4.2-0.1-5.9-0.2C114.5,344,113.2,344.1,112.3,344.1z"/>
					<path class="st2" d="M112,329.7c-0.2,0-1.1,0-2.4,0.1c-0.7,0-1.5,0.1-2.5,0.1c-0.9,0-2,0.1-3.2,0.2c-1.2,0.1-2.5,0.3-3.9,0.4
						c-0.7,0.1-1.4,0.2-2.2,0.2c-0.4,0-0.8,0.1-1.2,0.1c-0.4,0.1-0.8,0.1-1.2,0.2c-3.2,0.6-6.8,1.2-10.7,2.4
						c-7.7,2.1-16.4,5.7-24.6,11.5c-1,0.7-2,1.5-3,2.2c-1,0.8-1.9,1.6-2.9,2.5c-0.9,0.9-2,1.6-2.9,2.6c-0.9,0.9-1.8,1.8-2.7,2.8
						c-0.4,0.5-0.9,0.9-1.3,1.4l-1.2,1.5c-0.8,1-1.6,2-2.5,3l-2.2,3.2l-1.1,1.6c-0.3,0.5-0.7,1.1-1,1.7c-4.2,6.8-7,13.4-9,19.4
						c-2,6-3.2,11.5-4,16.4c-1.6,9.8-1.6,17.1-1.4,22.5c0.3,5.4,0.9,8.9,1.5,11c0.6,2.1,1.2,2.9,1.7,2.8c0.3,0,0.6-0.6,0.9-2.5
						c0.4-1.8,0.7-4.9,1.4-9.9c0.4-2.5,0.8-5.4,1.4-8.9c0.6-3.5,1.5-7.5,2.7-12c1.2-4.5,2.7-9.6,5-15.1c2.3-5.5,5.2-11.4,9.4-17.4
						c4.7-6.9,10.8-12.8,17.3-17.2c6.5-4.4,13.6-7.4,20-9.2c1.6-0.4,3.2-0.8,4.7-1.2c0.7-0.2,1.5-0.3,2.3-0.4
						c0.7-0.1,1.5-0.2,2.2-0.4c0.7-0.1,1.4-0.2,2.1-0.4c0.3-0.1,0.7-0.1,1-0.2c0.3,0,0.7-0.1,1-0.1c1.3-0.1,2.5-0.2,3.7-0.3
						c1.1-0.1,2.2-0.2,3.1-0.3c1,0,1.8,0,2.6-0.1c1.5,0,2.6-0.1,3.2-0.1c0.3,0,0.7,0,1.2,0c0.5,0,1.1-0.1,1.8,0
						c1.4,0,3.1,0.1,5.2,0.1c2.1,0.1,4.4,0.3,7.1,0.5c1.3,0.2,2.7,0.4,4.1,0.6c0.7,0.1,1.4,0.2,2.2,0.3c0.7,0.2,1.5,0.3,2.2,0.5
						c6,1.2,12.7,3.3,19.3,6.5c6.6,3.2,13,7.6,18.7,12.7c4.9,4.4,8.9,9,12.1,13.2c3.2,4.3,5.8,8.3,8,11.9c4.2,7.3,6.8,13,8.6,17.1
						c1.8,4.1,2.9,6.7,3.6,8.2c0.8,1.5,1.2,2,1.5,1.9c0.3-0.1,0.6-0.7,0.7-2.4c0.1-1.7-0.1-4.7-1-9.3c-0.9-4.6-2.6-10.9-6.2-19.2
						c-1.8-4.1-4.1-8.8-7.3-13.7c-3.1-5-7.1-10.4-12.3-15.8c-6.1-6.4-13.3-11.9-20.8-16c-7.5-4.2-15.2-6.9-22.1-8.5
						c-0.9-0.2-1.7-0.5-2.6-0.6c-0.8-0.2-1.7-0.3-2.5-0.5c-1.6-0.3-3.2-0.6-4.7-0.8c-3-0.3-5.7-0.7-8-0.8c-2.3-0.1-4.3-0.2-5.8-0.2
						C113.8,329.6,112.7,329.7,112,329.7 M112,329.5c0.6,0,1.7-0.1,3.3,0c1.5,0.1,3.5,0.1,5.9,0.2c2.3,0.1,5,0.5,8,0.8
						c1.5,0.2,3.1,0.5,4.7,0.8c0.8,0.1,1.6,0.3,2.5,0.5c0.8,0.2,1.7,0.4,2.6,0.6c6.9,1.7,14.7,4.4,22.2,8.5
						c7.5,4.1,14.7,9.7,20.8,16c6.2,6.3,11.2,13.5,15.1,20.4c3.9,7,6.6,13.8,8.5,19.8c3.7,12,3.8,20.3,2.4,20.5
						c-1.3,0.2-3.7-7.3-8.9-18c-2.6-5.3-5.9-11.4-10.1-17.4c-4.2-6-9.2-12-15-17.2c-5.8-5.2-12.2-9.6-18.8-12.8
						c-6.6-3.2-13.3-5.2-19.3-6.4c-0.8-0.2-1.5-0.3-2.2-0.5c-0.7-0.1-1.5-0.2-2.2-0.3c-1.4-0.2-2.8-0.4-4.1-0.6
						c-2.6-0.2-5-0.4-7-0.5c-2.1,0-3.8-0.1-5.2-0.1c-1.4-0.1-2.4,0.1-2.9,0.1c-0.6,0-1.6,0-3.1,0.1c-0.7,0-1.6,0-2.5,0.1
						c-0.9,0-1.9,0.2-3.1,0.3c-2.2,0.2-4.8,0.3-7.6,0.9c-1.4,0.2-2.9,0.5-4.4,0.8c-1.5,0.4-3.1,0.8-4.7,1.2
						c-6.4,1.8-13.5,4.7-20.1,9.1c-6.6,4.4-12.8,10.3-17.6,17.4c-4.9,7-8.7,14.8-11.3,22.4c-2.7,7.7-4.5,15.1-5.7,21.6
						c-2.4,12.9-2.7,21.8-4,21.9c-1.7,0.2-3.9-8.8-3.4-22.7c0.3-6.9,1.3-15,3.5-23.6c2.2-8.6,5.8-17.7,11-26.1
						c5.1-8.4,12.1-16,19.9-21.6c7.8-5.7,16.2-9.4,23.8-11.8c1.9-0.5,3.7-1,5.5-1.5c1.8-0.4,3.5-0.7,5.1-1c3.3-0.7,6.2-0.9,8.7-1.2
						c1.3-0.1,2.4-0.3,3.5-0.3c1.1,0,2-0.1,2.8-0.1C110.2,329.6,111.4,329.6,112,329.5z"/>
				</g>
			</g>
		</g>
	</g>
</g>
</svg>
