<?xml version="1.0" encoding="utf-8"?>
<!-- Generator: Adobe Illustrator 27.8.1, SVG Export Plug-In . SVG Version: 6.00 Build 0)  -->
<!DOCTYPE svg PUBLIC "-//W3C//DTD SVG 1.1//EN" "http://www.w3.org/Graphics/SVG/1.1/DTD/svg11.dtd" [
	<!ENTITY ns_extend "http://ns.adobe.com/Extensibility/1.0/">
	<!ENTITY ns_ai "http://ns.adobe.com/AdobeIllustrator/10.0/">
	<!ENTITY ns_graphs "http://ns.adobe.com/Graphs/1.0/">
	<!ENTITY ns_vars "http://ns.adobe.com/Variables/1.0/">
	<!ENTITY ns_imrep "http://ns.adobe.com/ImageReplacement/1.0/">
	<!ENTITY ns_sfw "http://ns.adobe.com/SaveForWeb/1.0/">
	<!ENTITY ns_custom "http://ns.adobe.com/GenericCustomNamespace/1.0/">
	<!ENTITY ns_adobe_xpath "http://ns.adobe.com/XPath/1.0/">
]>
<svg version="1.1" xmlns:x="&ns_extend;" xmlns:i="&ns_ai;" xmlns:graph="&ns_graphs;"
	 xmlns="http://www.w3.org/2000/svg" xmlns:xlink="http://www.w3.org/1999/xlink" x="0px" y="0px" viewBox="0 0 165 165"
	 style="enable-background:new 0 0 165 165;" xml:space="preserve">
<style type="text/css">
	.st0{fill:#FFFFFF;}
	.st1{fill:#202020;}
	.st2{fill:#1F1F1F;}
	.st3{stroke:#000000;stroke-width:2;stroke-miterlimit:10;}
	.st4{stroke:#000000;stroke-miterlimit:10;}
	.st5{display:none;}
	.st6{display:inline;}
</style>
<metadata>
	<sfw  xmlns="&ns_sfw;">
		<slices></slices>
		<sliceSourceBounds  bottomLeftOrigin="true" height="165" width="165" x="-385" y="16"></sliceSourceBounds>
	</sfw>
</metadata>
<g id="Artwork">
	<circle class="st0" cx="82.5" cy="82.5" r="82.5"/>
</g>
<g id="Layer_3">
	<g>
		<g>
			<g>
				<g>
					<path class="st1" d="M132.5,68.8c0-0.8,0-2.2,0-4.3l2.4,2.4c-16.5-0.1-70.7-0.3-113.1-0.8l1.6-1.6c-0.2,15.2-0.4,28.8-0.7,38.7
						s-0.6,15.9-0.9,15.9c-0.5,0-0.8-6.1-1.1-15.9c-0.3-9.9-0.5-23.5-0.7-38.7c0-1,0.8-1.8,1.8-1.8l0,0c42.7-0.5,97.4-0.6,113.1-0.6
						c1.3,0,2.4,1.1,2.4,2.4l0,0c0,2.6,0,4.2,0,4.3c0,4.7-0.1,25.5-0.2,50.5l0,0c0,1.2-1,2.1-2.2,2.1l0,0c-22.9-0.2-49.3-0.4-70-0.8
						c-10.3-0.2-19.3-0.4-25.6-0.6s-10.1-0.5-10.1-0.8c0-0.3,3.7-0.5,10-0.7c6.3-0.2,15.2-0.4,25.5-0.6c20.7-0.4,47.1-0.6,70.1-0.8
						l-2.1,2.1C132.7,95.3,132.6,75,132.5,68.8z"/>
					<path class="st2" d="M137.3,68.8c0-0.1,0-0.5,0-4.3c0-1.3-1.1-2.4-2.4-2.4h0c-4.1,0-45.3,0-85.8,0.3
						c-10.3,0.1-19.3,0.2-27.3,0.3l0,0c-1,0-1.8,0.8-1.8,1.8l0,0c0.3,22.2,0.6,35.8,0.9,43.9c0.3,8.1,0.6,10.6,0.9,10.6
						c0.1,0,0.2-0.5,0.3-1.9c0.1-1.5,0.2-3.9,0.4-7.8c0.3-7.8,0.6-21.4,0.9-44.8L21.9,66c7.9,0.1,16.9,0.2,27.3,0.3
						c37.9,0.4,78.3,0.5,85.8,0.6l-2.4-2.4c0,3.4,0,3.9,0,4.3c0,4,0.1,24.4,0.3,50.5l2.1-2.1c-9.2,0.1-20.5,0.2-31.7,0.3
						c-32.1,0.3-50.6,0.7-61,1c-5.2,0.2-8.4,0.3-10.3,0.5c-1.9,0.1-2.5,0.3-2.5,0.4c0,0.1,0.6,0.2,2.5,0.4s5.1,0.3,10.3,0.5
						c10.4,0.3,28.9,0.7,61,1c11.3,0.1,22.7,0.2,31.7,0.3c1.2,0,2.1-0.9,2.2-2.1l0,0l0,0C137.2,92.9,137.3,72.6,137.3,68.8
						 M137.4,68.8c0,3.9-0.1,25-0.2,50.5l0,0c0,1.2-1,2.2-2.2,2.2l0,0c-22.9-0.2-49.3-0.4-70.1-0.8c-10.4-0.2-19.3-0.4-25.6-0.6
						c-6.3-0.2-10.1-0.5-10.1-0.8c0-0.3,3.8-0.5,10.1-0.8s15.3-0.4,25.6-0.6c20.7-0.4,47.2-0.6,70.1-0.8l-2.2,2.2
						c-0.1-25.5-0.3-46.6-0.3-50.5c0-0.8,0-2.2,0-4.3l2.4,2.4c-16.4-0.1-70.6-0.3-113.1-0.8l1.6-1.6c-0.2,15.2-0.4,28.9-0.7,38.8
						c-0.3,9.9-0.6,16-0.9,16c-0.5,0-0.8-6.1-1.1-16c-0.3-9.9-0.5-23.6-0.7-38.8c0-1,0.8-1.8,1.8-1.8l0,0
						c42.4-0.5,96.7-0.6,113.1-0.6c1.3,0,2.4,1.1,2.4,2.4v0C137.4,66.6,137.4,68.1,137.4,68.8z"/>
				</g>
			</g>
		</g>
	</g>
	<path class="st3" d="M78.6,78c-0.6,0-1,0.5-1,1v3c-2.8,0.5-4.8,2.9-4.8,5.8c0,3.3,3.6,5.2,5.6,5.8c3.7,1.1,4.1,2.7,4.1,3.9
		c0,2.1-1.7,3.8-3.8,3.8c-1.4,0-2.7-0.8-3.4-2c-0.2-0.5-0.8-0.7-1.3-0.5c-0.5,0.2-0.7,0.8-0.5,1.3c0,0,0,0.1,0.1,0.1
		c0.8,1.6,2.4,2.7,4.1,3v3c0,0.6,0.5,1,1,1s1-0.5,1-1v-3c2.8-0.5,4.8-2.9,4.8-5.8c0-2.8-1.9-4.7-5.6-5.8c-1.6-0.5-4.1-1.9-4.1-3.8
		c0-2.1,1.7-3.8,3.8-3.8c1.5,0,2.9,0.9,3.5,2.3c0.1,0.5,0.7,0.9,1.2,0.7s0.9-0.7,0.7-1.2c0-0.1-0.1-0.2-0.1-0.3
		c-0.8-1.8-2.4-3.1-4.4-3.5v-3C79.6,78.5,79.2,78,78.6,78z"/>
	<path class="st4" d="M87.2,72.1c-7.9-3.3-17.1-1.8-23.4,4.1c-4.1,3.8-6.7,9-7.1,14.6c-0.2,2.8,0.1,5.6,1,8.2c0.9,2.6,2.3,5,4.2,6.9
		l0.5-0.4c-1.3-2.2-2.3-4.6-3-7.1c-0.7-2.4-0.9-5-0.7-7.5c0.4-5.1,2.8-9.8,6.6-13.2c8.2-7.3,20.7-6.6,28,1.5c3.1,3.5,4.9,7.9,5,12.6
		c0.2,5.1-1.5,10-4.8,13.9c-3.3,3.9-7.9,6.3-13,6.8c-2.5,0.3-5.1,0-7.5-0.6c-2.5-0.7-4.9-1.6-7.1-2.9l-0.3,0.4
		c1.9,2,4.3,3.5,6.9,4.3c2.7,0.8,5.5,1.1,8.2,0.8c8.6-0.8,15.9-6.5,18.7-14.6c0.9-2.6,1.4-5.4,1.3-8.2
		C100.4,83.2,95.2,75.5,87.2,72.1z"/>
	<g>
		<g>
			<g>
				<g>
					<path class="st1" d="M110.7,51.8c2.3,0,16.6,0.1,33.4,0.3l0.1,0c1.1,0,2,0.9,2,2.1c-0.3,22-0.8,48.3-1.5,57.3l0,0.1
						c0,0.3-0.3,0.5-0.5,0.5c-2-0.2-3.2-0.4-3.2-0.5c0-0.3,1.1-0.5,3.2-0.7l-0.7,0.7c-0.9-9-1.3-35.3-1.5-57.3l2.2,2.2
						c-9,0.1-17.2,0.1-23.3,0.1c-6.1,0-9.9,0-10.1,0c-6.3,0-66.6-0.4-81.7-1.8l0.6-0.6c-0.2,2.2-0.4,3.4-0.6,3.4
						c-0.2,0-0.4-1.2-0.6-3.4c0-0.3,0.2-0.6,0.5-0.6l0.1,0C43.9,52.4,102.1,51.8,110.7,51.8z"/>
					<path class="st2" d="M110.7,56.6c0.8,0,15.1-0.1,33.4-0.1l-2.2-2.2c0.1,4.4,0.1,10.1,0.2,15.8c0.3,25,0.9,36.6,1.4,41.5
						l0.7-0.7c-2.3,0.2-3.1,0.5-3.1,0.7c0,0.1,0.7,0.3,3.1,0.5c0.3,0,0.5-0.2,0.5-0.4l0-0.1c0.4-4.7,0.9-15.9,1.3-41.5
						c0.1-5.5,0.2-11.2,0.2-15.8c0-1.1-0.9-2.1-2-2.1l0,0l-0.1,0c-16.9-0.2-30.9-0.3-33.4-0.3c-3.1,0-24.4,0.2-44.8,0.6
						c-22.1,0.4-32.4,0.9-36.9,1.3l-0.1,0c-0.3,0-0.5,0.3-0.5,0.6c0.2,2.7,0.4,3.4,0.6,3.4c0.2,0,0.4-0.7,0.6-3.4L29,54.9
						c4.5,0.4,14.8,0.9,36.9,1.3C86.6,56.5,107.7,56.6,110.7,56.6 M110.7,56.7c-5.2,0-66.3-0.4-81.7-1.8l0.7-0.7
						c-0.2,2.2-0.4,3.5-0.7,3.5c-0.2,0-0.4-1.3-0.6-3.5c0-0.3,0.2-0.6,0.5-0.6l0.1,0c15.4-1.3,76.5-1.8,81.7-1.8
						c2.3,0,16.6,0.1,33.4,0.3l0.1,0c1.2,0,2.1,1,2.1,2.1c-0.3,22-0.8,48.2-1.6,57.3l0,0.1c0,0.3-0.3,0.5-0.6,0.5
						c-2.1-0.2-3.3-0.4-3.3-0.6c0-0.3,1.2-0.5,3.3-0.7l-0.7,0.7c-0.9-9-1.4-35.3-1.6-57.3l2.3,2.3C127.3,56.7,113,56.7,110.7,56.7z"
						/>
				</g>
			</g>
		</g>
	</g>
</g>
<g id="Layer_2" class="st5">
	<g class="st6">
		<path d="M32.5,81.6c-4,3.9-6.3,9.2-6.3,14.8v26.2c0,4.5,3.6,8.2,8.2,8.3c0,0,0,0,0,0H56c1,0,1.8-0.5,2.2-1.4l6.6-12.9
			c0.3-0.5,0.8-0.9,1.4-0.9h11.8h9h4.5h3.7h0.2c0.3,0.1,0.5,0.2,0.7,0.4c0.1,0.1,0.2,0.2,0.2,0.3l0.4,0.9l2,4l4,8.1l0,0l0,0
			c0.5,1,1.5,1.6,2.5,1.5l17.8-0.1h2.2c0.8,0,1.3,0,2.5-0.1c3.8-0.5,6.7-3.6,6.9-7.4c0-0.2,0-0.5,0-0.7v-0.6l-0.1-4.4l-0.4-17.9
			c0-1.5,0-2.9-0.2-4.5c-0.1-1.6-0.5-3.2-1-4.7c-1.1-3-2.9-5.7-5.3-7.8c-0.4-0.3-0.9-0.3-1.3,0c-0.4,0.4-0.4,1,0,1.4c0,0,0,0,0,0
			l0,0c1.8,2.1,3.2,4.5,3.9,7.2c0.3,1.3,0.5,2.7,0.5,4.1c0,1.3,0,2.9,0,4.3l-0.4,17.8l-0.1,4.4c0,0.5,0,1.1-0.2,1.6
			c-0.4,1.3-1.6,2.2-3,2.2c-0.3,0-1.2,0-1.9,0h-2.2l-16-0.3l-3.4-6.5l-2.1-4l-0.3-0.5l-0.4-0.6c-0.3-0.6-0.7-1.1-1.2-1.6
			c-0.9-0.8-2-1.4-3.3-1.7c-0.3-0.1-0.6-0.1-0.9-0.1h-1.9h-2.3h-4.5h-9H66.3c-2.5,0-4.8,1.4-6,3.6l-5.8,11.7h-20
			c-1.7,0-3.1-1.4-3.2-3.1V96.5c0-4.2,1.7-8.2,4.7-11.1l9.6-9.3c0.3-0.3,0.5-0.6,0.6-1l0.1-0.2c3.2,2.4,7.1,3.7,11.1,3.7H104
			c4.4,0,8.7-1.6,12.1-4.5l2.1-1.8h14.5c0.9,0,1.7-0.8,1.7-1.7c0-0.9-0.8-1.7-1.7-1.7h-14.1l-3-8.9c-1.9-5.7-7.1-9.5-13.1-9.5H66.3
			c0-1.7,0.1-3.2,0.2-4.8c0.1-2.1,0.3-4.2,0.5-6.3c0.7-0.1,1.5-0.2,2.3-0.3c1.2-0.2,2.5-0.3,3.8-0.4c2.6-0.2,5.1-0.3,7.7-0.3
			c2.6,0,5.1,0.1,7.6,0.4c2,0.2,4,0.5,6,1l1.4,8.5c0.1,0.4,0.5,0.6,0.9,0.6c0.3-0.1,0.5-0.3,0.6-0.6l1.7-10.6c0.1-0.9-0.3-1.7-1.1-2
			l-0.6-0.3l0,0c-2.7-0.9-5.4-1.5-8.2-1.8c-2.7-0.4-5.5-0.5-8.2-0.5c-2.7,0-5.5,0.2-8.2,0.5c-1.4,0.2-2.7,0.4-4.1,0.7
			c-1.5,0.3-2.9,0.8-4.3,1.4h-0.1c-0.7,0.3-1.2,1-1.1,1.8c0.1,2.7,0.3,5.3,0.3,8c0,1.7,0.1,3.2,0,4.9H59c-6,0-11.2,3.8-13.1,9.5
			L43,68.7H27.8c-0.9,0-1.7,0.8-1.7,1.7s0.8,1.7,1.7,1.7h14.1l-0.2,0.7L32.5,81.6z M50.7,61.4c1.2-3.6,4.5-6,8.3-6h43.5
			c3.8,0,7.1,2.4,8.3,6L114,71l0.1,0.2l-0.2,0.2c-2.8,2.4-6.3,3.7-9.9,3.7H57.5c-3.6,0-7.1-1.3-9.9-3.7l-0.1-0.1L50.7,61.4z"/>
		<path d="M40.9,96.3c0,4.1,3.3,7.4,7.4,7.4c4.1,0,7.4-3.3,7.4-7.4c0-4.1-3.3-7.4-7.4-7.4C44.2,88.9,40.9,92.2,40.9,96.3z
			 M52.3,96.3c0,2.2-1.8,4-4,4c-2.2,0-4-1.8-4-4c0-2.2,1.8-4,4-4C50.6,92.3,52.3,94.1,52.3,96.3z"/>
		<path d="M105.8,96.3c0,4.1,3.3,7.4,7.4,7.4c4.1,0,7.4-3.3,7.4-7.4c0-4.1-3.3-7.4-7.4-7.4C109.1,88.9,105.8,92.2,105.8,96.3z
			 M117.2,96.3c0,2.2-1.8,4-4,4c-2.2,0-4-1.8-4-4c0-2.2,1.8-4,4-4C115.4,92.3,117.2,94.1,117.2,96.3z"/>
	</g>
</g>
</svg>
