<?xml version="1.0" encoding="utf-8"?>
<!-- Generator: Adobe Illustrator 27.8.1, SVG Export Plug-In . SVG Version: 6.00 Build 0)  -->
<!DOCTYPE svg PUBLIC "-//W3C//DTD SVG 1.1//EN" "http://www.w3.org/Graphics/SVG/1.1/DTD/svg11.dtd" [
	<!ENTITY ns_extend "http://ns.adobe.com/Extensibility/1.0/">
	<!ENTITY ns_ai "http://ns.adobe.com/AdobeIllustrator/10.0/">
	<!ENTITY ns_graphs "http://ns.adobe.com/Graphs/1.0/">
	<!ENTITY ns_vars "http://ns.adobe.com/Variables/1.0/">
	<!ENTITY ns_imrep "http://ns.adobe.com/ImageReplacement/1.0/">
	<!ENTITY ns_sfw "http://ns.adobe.com/SaveForWeb/1.0/">
	<!ENTITY ns_custom "http://ns.adobe.com/GenericCustomNamespace/1.0/">
	<!ENTITY ns_adobe_xpath "http://ns.adobe.com/XPath/1.0/">
]>
<svg version="1.1" id="Artwork" xmlns:x="&ns_extend;" xmlns:i="&ns_ai;" xmlns:graph="&ns_graphs;"
	 xmlns="http://www.w3.org/2000/svg" xmlns:xlink="http://www.w3.org/1999/xlink" x="0px" y="0px" viewBox="0 0 165 165"
	 style="enable-background:new 0 0 165 165;" xml:space="preserve">
<style type="text/css">
	.st0{fill:#FFFFFF;}
</style>
<metadata>
	<sfw  xmlns="&ns_sfw;">
		<slices></slices>
		<sliceSourceBounds  bottomLeftOrigin="true" height="165" width="165" x="-385" y="16"></sliceSourceBounds>
	</sfw>
</metadata>
<circle class="st0" cx="82.5" cy="82.5" r="82.5"/>
<g>
	<path d="M32.5,81.6c-4,3.9-6.3,9.2-6.3,14.8v26.2c0,4.5,3.6,8.2,8.2,8.3c0,0,0,0,0,0H56c1,0,1.8-0.5,2.2-1.4l6.6-12.9
		c0.3-0.5,0.8-0.9,1.4-0.9h11.8h9h4.5h3.7h0.2c0.3,0.1,0.5,0.2,0.7,0.4c0.1,0.1,0.2,0.2,0.2,0.3l0.4,0.9l2,4l4,8.1l0,0l0,0
		c0.5,1,1.5,1.6,2.5,1.5l17.8-0.1h2.2c0.8,0,1.3,0,2.5-0.1c3.8-0.5,6.7-3.6,6.9-7.4c0-0.2,0-0.5,0-0.7v-0.6l-0.1-4.4l-0.4-17.9
		c0-1.5,0-2.9-0.2-4.5c-0.1-1.6-0.5-3.2-1-4.7c-1.1-3-2.9-5.7-5.3-7.8c-0.4-0.3-0.9-0.3-1.3,0c-0.4,0.4-0.4,1,0,1.4c0,0,0,0,0,0l0,0
		c1.8,2.1,3.2,4.5,3.9,7.2c0.3,1.3,0.5,2.7,0.5,4.1c0,1.3,0,2.9,0,4.3l-0.4,17.8l-0.1,4.4c0,0.5,0,1.1-0.2,1.6
		c-0.4,1.3-1.6,2.2-3,2.2c-0.3,0-1.2,0-1.9,0h-2.2l-16-0.3l-3.4-6.5l-2.1-4l-0.3-0.5l-0.4-0.6c-0.3-0.6-0.7-1.1-1.2-1.6
		c-0.9-0.8-2-1.4-3.3-1.7c-0.3-0.1-0.6-0.1-0.9-0.1h-1.9h-2.3h-4.5h-9H66.3c-2.5,0-4.8,1.4-6,3.6l-5.8,11.7h-20
		c-1.7,0-3.1-1.4-3.2-3.1V96.5c0-4.2,1.7-8.2,4.7-11.1l9.6-9.3c0.3-0.3,0.5-0.6,0.6-1l0.1-0.2c3.2,2.4,7.1,3.7,11.1,3.7H104
		c4.4,0,8.7-1.6,12.1-4.5l2.1-1.8h14.5c0.9,0,1.7-0.8,1.7-1.7c0-0.9-0.8-1.7-1.7-1.7h-14.1l-3-8.9c-1.9-5.7-7.1-9.5-13.1-9.5H66.3
		c0-1.7,0.1-3.2,0.2-4.8c0.1-2.1,0.3-4.2,0.5-6.3c0.7-0.1,1.5-0.2,2.3-0.3c1.2-0.2,2.5-0.3,3.8-0.4c2.6-0.2,5.1-0.3,7.7-0.3
		c2.6,0,5.1,0.1,7.6,0.4c2,0.2,4,0.5,6,1l1.4,8.5c0.1,0.4,0.5,0.6,0.9,0.6c0.3-0.1,0.5-0.3,0.6-0.6l1.7-10.6c0.1-0.9-0.3-1.7-1.1-2
		l-0.6-0.3l0,0c-2.7-0.9-5.4-1.5-8.2-1.8c-2.7-0.4-5.5-0.5-8.2-0.5c-2.7,0-5.5,0.2-8.2,0.5c-1.4,0.2-2.7,0.4-4.1,0.7
		c-1.5,0.3-2.9,0.8-4.3,1.4h-0.1c-0.7,0.3-1.2,1-1.1,1.8c0.1,2.7,0.3,5.3,0.3,8c0,1.7,0.1,3.2,0,4.9H59c-6,0-11.2,3.8-13.1,9.5
		L43,68.7H27.8c-0.9,0-1.7,0.8-1.7,1.7s0.8,1.7,1.7,1.7h14.1l-0.2,0.7L32.5,81.6z M50.7,61.4c1.2-3.6,4.5-6,8.3-6h43.5
		c3.8,0,7.1,2.4,8.3,6L114,71l0.1,0.2l-0.2,0.2c-2.8,2.4-6.3,3.7-9.9,3.7H57.5c-3.6,0-7.1-1.3-9.9-3.7l-0.1-0.1L50.7,61.4z"/>
	<path d="M40.9,96.3c0,4.1,3.3,7.4,7.4,7.4c4.1,0,7.4-3.3,7.4-7.4c0-4.1-3.3-7.4-7.4-7.4C44.2,88.9,40.9,92.2,40.9,96.3z M52.3,96.3
		c0,2.2-1.8,4-4,4c-2.2,0-4-1.8-4-4c0-2.2,1.8-4,4-4C50.6,92.3,52.3,94.1,52.3,96.3z"/>
	<path d="M105.8,96.3c0,4.1,3.3,7.4,7.4,7.4c4.1,0,7.4-3.3,7.4-7.4c0-4.1-3.3-7.4-7.4-7.4C109.1,88.9,105.8,92.2,105.8,96.3z
		 M117.2,96.3c0,2.2-1.8,4-4,4c-2.2,0-4-1.8-4-4c0-2.2,1.8-4,4-4C115.4,92.3,117.2,94.1,117.2,96.3z"/>
</g>
</svg>
