<svg width="82" height="52" viewBox="0 0 82 52" fill="none" xmlns="http://www.w3.org/2000/svg">
<mask id="mask0_405_1159" style="mask-type:luminance" maskUnits="userSpaceOnUse" x="23" y="7" width="40" height="40">
<path d="M62.1846 7.42969H23.0742V46.5337H62.1846V7.42969Z" fill="white"/>
</mask>
<g mask="url(#mask0_405_1159)">
<path d="M43.2214 21.1106C43.2214 21.1106 46.2682 7.76148 61.1455 8.90548V26.0655C61.1455 26.0655 61.5245 45.5135 41.6906 45.1346C41.6906 45.1346 34.1554 44.3695 33.3008 35.2175L33.6798 27.2095C33.6798 27.2095 42.456 27.2095 42.456 34.8386L43.2214 21.1106Z" fill="#82C341"/>
<path d="M59.7694 26.9743C59.7694 36.4308 52.0782 44.1194 42.6257 44.1194H42.6108C38.1001 44.112 34.4291 40.42 34.4291 35.9034V27.8063C38.6054 28.1851 41.89 31.7063 41.89 35.9925C41.89 36.4011 42.2244 36.7354 42.6331 36.7354C43.0418 36.7354 43.3762 36.4011 43.3762 35.9925V26.9743C43.3762 17.7703 50.6662 10.2451 59.7769 9.8514V26.9743H59.7694ZM35.685 42.656C29.6805 39.9891 25.4819 33.9645 25.4819 26.9891V9.86626C34.5926 10.2525 41.8826 17.7851 41.8826 26.9891V30.852C40.166 28.1257 37.134 26.3057 33.6785 26.3057C33.2698 26.3057 32.9354 26.64 32.9354 27.0485V35.9183C32.9354 38.5405 33.9832 40.9177 35.6775 42.6634M60.5126 7.42969C55.2884 7.42969 50.3764 9.46512 46.6831 13.1571C44.9516 14.888 43.5843 16.8863 42.6257 19.0554C41.6596 16.8863 40.2997 14.8954 38.5683 13.1645C34.875 9.47254 29.9629 7.43712 24.7462 7.43712H23.0742V26.9817C23.0742 32.1148 25.0509 36.9657 28.6402 40.628C32.2146 44.2828 36.9928 46.3628 42.1055 46.504C42.1427 46.504 42.1724 46.504 42.2095 46.504C42.321 46.504 42.4548 46.5188 42.6108 46.5188H42.6331C53.4158 46.5188 62.1846 37.7457 62.1846 26.9594V7.42969H60.5126Z" fill="#123D61"/>
</g>
</svg>
