<svg width="98" height="60" viewBox="0 0 98 60" fill="none" xmlns="http://www.w3.org/2000/svg">
<mask id="mask0_405_1139" style="mask-type:luminance" maskUnits="userSpaceOnUse" x="30" y="0" width="37" height="60">
<path d="M66.4449 0H30.0586V60H66.4449V0Z" fill="white"/>
</mask>
<g mask="url(#mask0_405_1139)">
<path d="M47.2564 25.5554C47.2564 25.5554 35.7262 22.2367 38.8661 11.5744C38.8661 11.5744 46.7288 11.3957 48.652 22.2367C48.652 22.2367 51.0942 15.4207 57.74 15.9482C57.74 15.9482 58.0889 25.0363 49.0009 25.9128L47.2564 25.5639V25.5554Z" fill="#82C341"/>
<path d="M47.427 25.3738C47.427 25.3738 36.5094 23.2805 38.4751 11.2227C38.4751 11.2227 51.1031 13.1458 47.427 25.3738Z" fill="#82C341"/>
<path d="M53.2553 19.7334C53.2128 19.7759 53.1702 19.81 53.1277 19.8525L53.0426 19.9376L49.3495 23.7158C49.6048 22.3032 50.1919 20.4482 51.5194 19.0867C53.3064 17.2571 56.0209 16.7551 57.3568 16.6189C57.2547 17.9549 56.8122 20.6694 55.0168 22.5074C53.6893 23.869 51.8427 24.4901 50.4387 24.7795L54.1573 20.9757C54.1573 20.9757 54.2679 20.8651 54.2935 20.8311C54.7785 20.2695 54.8891 19.4781 54.9146 19.1207C54.5658 19.1462 53.8084 19.2654 53.2468 19.7334M42.7547 18.9675L46.3116 24.4476C44.5842 23.7924 42.125 22.5245 40.6528 20.261C38.8148 17.4188 39.036 13.7427 39.2488 12.16C40.7805 12.611 44.2268 13.8959 46.0733 16.7466C47.537 19.0016 47.6901 21.7756 47.588 23.6222L44.0396 18.1506C43.6056 17.4784 42.7887 17.172 42.4313 17.0699C42.3802 17.4443 42.3292 18.3123 42.7632 18.9845M60.616 27.6812C59.4246 29.5022 56.625 34.1824 56.3953 38.2329V39.671C56.3953 40.8623 55.4252 41.8409 54.2254 41.8409H49.8515C49.6133 41.7728 49.2644 41.5686 49.2644 40.607V26.5324C50.7791 26.3877 53.9361 25.8261 56.106 23.6052C58.9907 20.6524 58.9141 16.0233 58.9141 15.8275L58.8971 15.0872H58.1567C57.91 15.0872 53.3149 15.1298 50.4387 18.0655C49.809 18.7122 49.3325 19.4355 48.9495 20.1759C48.7113 18.7803 48.2432 17.2997 47.3668 15.9552C44.6182 11.709 39.036 10.5517 38.8063 10.5006L38.083 10.356L37.9213 11.0793C37.8703 11.3175 36.6449 16.8742 39.4019 21.1204C41.6059 24.5242 45.6223 25.9453 47.2562 26.3963V40.6155C47.2562 41.5856 46.9073 41.7898 46.669 41.8494H42.2866C41.0868 41.8494 40.0827 40.8793 40.0827 39.6795C40.0827 39.6795 40.0742 37.9691 40.0657 37.9521C39.6998 33.6718 36.6279 28.8214 35.6408 27.3493C33.7091 24.6773 32.688 21.5289 32.688 18.2272C32.671 9.60715 39.6657 2.6124 48.2518 2.6124C56.8378 2.6124 63.8325 9.59864 63.8325 18.1932C63.8325 21.631 62.7348 24.8901 60.6585 27.6216L60.6245 27.6642L60.616 27.6812ZM54.2339 46.3168L42.2526 44.7426V44.0788H54.2339V46.3168ZM54.2339 49.6525L42.2526 48.0783V45.5169L54.2339 47.0912V49.6525ZM54.2339 52.2394C54.2339 52.4947 54.1913 52.7329 54.1488 52.9797L42.2611 51.4225V48.8611L54.2339 50.4354V52.2479V52.2394ZM53.8169 54.0945H42.6781C42.4143 53.5158 42.2611 52.8946 42.2611 52.2394V52.1883L53.9531 53.7285C53.9105 53.8562 53.8765 53.9838 53.8169 54.103M48.2432 57.4046C46.4478 57.4046 44.8565 56.7068 43.7588 55.6262H52.7277C51.63 56.7068 50.0387 57.4046 48.2432 57.4046ZM66.4364 18.2102C66.4449 8.16054 58.2844 0 48.2518 0C38.2191 0 30.0586 8.16054 30.0586 18.1932C30.0586 22.0479 31.2414 25.724 33.4709 28.8044C34.1431 29.8 37.4788 34.9482 37.4788 38.7519V39.6454C37.4788 41.2622 38.2872 42.7259 39.6487 43.6193V52.2139C39.6487 56.5026 43.512 59.9915 48.2518 59.9915C52.9915 59.9915 56.8548 56.5026 56.8548 52.2139V43.6193C58.2078 42.7259 59.0162 41.2537 59.0162 39.6454V38.318C59.2374 34.8206 61.9604 30.4042 62.7688 29.1533C65.177 25.9708 66.4449 22.1841 66.4449 18.1847" fill="#123D61"/>
</g>
</svg>
