<svg width="103" height="58" viewBox="0 0 103 58" fill="none" xmlns="http://www.w3.org/2000/svg">
<g clip-path="url(#clip0_405_1149)">
<mask id="mask0_405_1149" style="mask-type:luminance" maskUnits="userSpaceOnUse" x="0" y="0" width="103" height="47">
<path d="M102.32 0.5H0V46.93H102.32V0.5Z" fill="white"/>
</mask>
<g mask="url(#mask0_405_1149)">
<path d="M36.0897 13.5798C36.1497 13.4198 36.1097 13.2398 35.9797 13.1298L33.0597 10.4498C32.9897 10.3798 32.8897 10.3398 32.7797 10.3398H12.1797C11.2097 10.3398 10.4297 11.1198 10.4297 12.0898C10.4297 13.0598 11.2197 13.8398 12.1797 13.8398H35.7097C35.8797 13.8398 36.0297 13.7398 36.0897 13.5798Z" fill="#82C341"/>
<path d="M46.7716 23.4197C46.8316 23.2597 46.7916 23.0797 46.6616 22.9697L43.7416 20.2897C43.6716 20.2197 43.5716 20.1797 43.4616 20.1797H22.8516C21.8816 20.1797 21.1016 20.9597 21.1016 21.9297C21.1016 22.8997 21.8916 23.6797 22.8516 23.6797H46.3816C46.5516 23.6797 46.7016 23.5797 46.7616 23.4197" fill="#82C341"/>
<path d="M82.1 43.27C79.62 43.27 77.6 41.25 77.6 38.77C77.6 36.29 79.62 34.27 82.1 34.27C84.58 34.27 86.6 36.29 86.6 38.77C86.6 41.25 84.58 43.27 82.1 43.27ZM72.66 22.05L72.64 18.49H82.74L85.87 22.05H72.65H72.66ZM48.3 43.27C45.82 43.27 43.8 41.25 43.8 38.77C43.8 36.29 45.82 34.27 48.3 34.27C50.78 34.27 52.8 36.29 52.8 38.77C52.8 41.25 50.78 43.27 48.3 43.27ZM101.3 27.76C100.69 26.53 100.2 25.96 99.44 25.58C98.83 25.27 91.73 22.57 90.93 22.27L90.6 22.14L85.84 16.74C85.35 16.03 77.22 7.36 76.49 6.77C72.76 3.77 68.32 3.31 66.76 3.25V0.91C66.76 0.68 66.58 0.5 66.35 0.5H1.75C0.79 0.5 0 1.28 0 2.25C0 3.22 0.79 4 1.75 4H63.26V30.43H33.95C32.98 30.43 32.2 31.21 32.2 32.18C32.2 33.15 32.99 33.93 33.95 33.93H41.77C40.72 35.33 40.16 37.03 40.16 38.78C40.16 43.28 43.82 46.93 48.31 46.93C52.8 46.93 56.47 43.27 56.47 38.78C56.47 37.02 55.9 35.33 54.86 33.93H66.36C66.59 33.93 66.77 33.75 66.77 33.52V33.49C66.77 33.49 66.77 33.45 66.77 33.43V6.75C67.95 6.83 71.42 7.24 74.31 9.49C75.6 10.49 78.43 13.6 79.67 14.99H70.05C69.86 14.99 69.48 15.09 69.29 15.49C69.26 15.55 69.25 15.61 69.25 15.67V25.15C69.25 25.38 69.43 25.56 69.66 25.56H89.72L97.66 28.41C97.66 28.41 98.82 29.17 98.82 34.72V38.37H90.25C90.04 34.06 86.46 30.63 82.1 30.63C77.74 30.63 74.17 34.07 73.96 38.37H66.99L65.05 36.43C64.39 35.77 63.23 35.77 62.57 36.43C62.24 36.76 62.06 37.2 62.06 37.67C62.06 38.14 62.24 38.58 62.57 38.91L65.41 41.76C65.49 41.84 65.59 41.88 65.7 41.88H74.56C75.81 44.92 78.8 46.94 82.1 46.94C85.4 46.94 88.39 44.92 89.64 41.88H101.91C102.14 41.88 102.32 41.7 102.32 41.47V34.73C102.32 31.41 101.99 29.14 101.31 27.78" fill="#123D61"/>
</g>
</g>
<defs>
<clipPath id="clip0_405_1149">
<rect width="102" height="57" fill="white" transform="translate(0.125 0.5)"/>
</clipPath>
</defs>
</svg>
