<svg width="75" height="60" viewBox="0 0 75 60" fill="none" xmlns="http://www.w3.org/2000/svg">
<g clip-path="url(#clip0_405_1127)">
<mask id="mask0_405_1127" style="mask-type:luminance" maskUnits="userSpaceOnUse" x="1" y="0" width="74" height="60">
<path d="M74.9685 0H1.00037V59.9897H74.9685V0Z" fill="white"/>
</mask>
<g mask="url(#mask0_405_1127)">
<path d="M15.0193 6.45526C17.3765 4.09808 20.763 3.33637 24.8186 4.23189C27.7831 4.89067 33.5474 11.2623 36.4913 15.1326L38.0662 17.2015L39.5999 15.1017C41.4218 12.6004 47.4228 5.26123 51.0152 4.44805C56.4501 3.24373 59.4661 4.87008 61.0409 6.44496C63.1305 8.53452 64.2833 11.324 64.2833 14.2782C64.2833 17.2324 63.1305 20.0116 61.1336 22.0188L61.0924 22.06L38.025 43.3672L15.0296 22.1115C12.9401 20.0219 11.7872 17.2427 11.7872 14.2782C11.7872 11.3137 12.8783 8.68892 14.8546 6.61995L15.0193 6.44496V6.45526ZM12.271 3.72752C9.45062 6.5479 7.90662 10.305 7.90662 14.2782C7.90662 18.2514 9.49179 22.0394 12.3636 24.9215L38.0353 48.6272L63.7996 24.8289C66.6096 22.0085 68.1639 18.2617 68.1639 14.2782C68.1639 10.2947 66.6096 6.5376 63.779 3.70693C60.588 0.515988 55.7604 -0.564815 50.1814 0.660095C47.2581 1.30858 43.3158 4.45834 39.0646 9.51238L38.0044 10.7682L36.9339 9.52268C32.4666 4.30394 28.4625 1.08212 25.6627 0.454228C20.5366 -0.688335 15.9149 0.341001 12.6621 3.35696L12.271 3.72752Z" fill="#82C341"/>
<path d="M16.1003 36.5751C15.0504 34.2385 7.58771 24.9745 7.58771 24.9745C7.58771 24.9745 5.70403 22.0409 7.88622 20.2293C10.0684 18.4176 12.1786 20.3837 12.1786 20.3837C13.5784 21.9174 14.8754 25.6539 20.5368 29.2668C26.2805 32.9313 26.7848 37.3986 26.7848 37.3986V58.6029H13.9696L14.6593 47.8875C14.6593 47.8875 15.2666 45.3142 11.4168 41.4645C7.57742 37.6251 5.46728 35.062 5.46728 35.062C5.46728 35.062 2.37927 32.499 2.37927 28.1346C2.37927 23.7702 3.738 11.6446 4.10856 9.53447C4.47912 7.42433 6.3628 7.49639 6.3628 7.49639C6.3628 7.49639 8.9979 7.65079 8.92585 10.8829C8.86409 13.5901 8.92585 19.3132 8.92585 19.3132" fill="white"/>
<path d="M59.8685 36.5751C60.9184 34.2385 68.3811 24.9745 68.3811 24.9745C68.3811 24.9745 70.2648 22.0409 68.0826 20.2293C65.9004 18.4176 63.7902 20.3837 63.7902 20.3837C62.3903 21.9174 61.0934 25.6539 55.432 29.2668C49.6883 32.9313 49.184 37.3986 49.184 37.3986V58.6029H61.9992L61.3095 47.8875C61.3095 47.8875 60.7022 45.3142 64.5519 41.4645C68.3914 37.6251 70.5015 35.062 70.5015 35.062C70.5015 35.062 73.5895 32.499 73.5895 28.1346C73.5895 23.7702 72.2308 11.6446 71.8602 9.53447C71.4794 7.42433 69.606 7.49639 69.606 7.49639C69.606 7.49639 66.9709 7.65079 67.0429 10.8829C67.1047 13.5901 67.0429 19.3132 67.0429 19.3132" fill="white"/>
<path d="M15.4625 57.2217H25.4059V37.51C25.3236 37.0056 24.5619 33.4852 19.796 30.4487C15.339 27.6077 13.4245 24.6741 12.1584 22.7287C11.7981 22.1728 11.479 21.6891 11.2011 21.37C10.8717 21.092 9.86295 20.4024 8.77185 21.2979C7.67046 22.214 8.53511 23.8507 8.73068 24.1698C9.73943 25.4255 16.2963 33.6191 17.3668 35.9968C17.6859 36.6968 17.3668 37.5202 16.6772 37.8393C15.9772 38.1584 15.1537 37.8393 14.8346 37.1497C14.1141 35.5542 9.46151 29.5223 6.50731 25.8476C6.47643 25.8064 6.44555 25.7652 6.41467 25.7241C5.52944 24.3447 4.52069 21.2053 7.00139 19.1569C7.18668 19.0025 7.36166 18.879 7.54694 18.7554C7.53665 17.2217 7.50577 13.0735 7.54694 10.8501C7.58812 9.24438 6.73377 8.93558 6.31174 8.88411C5.85883 8.9047 5.58091 9.20321 5.47798 9.76934C5.11771 11.7971 3.76928 23.8095 3.76928 28.1224C3.76928 31.7457 6.26027 33.897 6.36321 33.9896C6.42497 34.0411 6.48673 34.1028 6.53819 34.1749C6.55878 34.1955 8.65863 36.7379 12.3951 40.4744C16.286 44.3653 16.1522 47.2989 16.0287 48.0401L15.4419 57.2011L15.4625 57.2217ZM26.7955 60.0009H13.9803C13.5994 60.0009 13.2289 59.8465 12.9613 59.5583C12.6936 59.2804 12.5598 58.8996 12.5907 58.5187L13.2803 47.8033C13.2803 47.7004 13.2803 47.6798 13.3112 47.5974C13.3318 47.3607 13.3936 45.3947 10.4497 42.4508C6.96022 38.9613 4.89126 36.5321 4.47952 36.038C3.86192 35.4822 1.00037 32.6618 1.00037 28.1327C1.00037 23.6036 2.36938 11.4266 2.75024 9.29585C3.21344 6.68133 5.36475 6.07403 6.43526 6.1152C8.06161 6.20784 10.4085 7.56656 10.3262 10.9222C10.285 12.8162 10.2953 16.2645 10.3159 18.0967C11.5305 18.2305 12.5598 18.8378 13.1259 19.3628C13.1568 19.3936 13.1774 19.4142 13.2083 19.4451C13.6406 19.9186 14.0318 20.5156 14.4847 21.2053C15.689 23.0478 17.3462 25.5799 21.2886 28.1018C27.5161 32.0751 28.144 37.0365 28.1748 37.2526C28.1748 37.3041 28.1748 37.3556 28.1748 37.407V58.6113C28.1748 59.3833 27.5572 60.0009 26.7852 60.0009" fill="#123D61"/>
<path d="M50.5647 57.2217H60.5081L59.9214 48.0606C59.8082 47.3195 59.6744 44.3859 63.5549 40.495C67.2914 36.7585 69.3913 34.2161 69.4119 34.1955C69.4633 34.1234 69.5354 34.0617 69.5972 34.0102C69.7001 33.9279 72.1808 31.7766 72.1808 28.1533C72.1808 23.8404 70.8324 11.8177 70.4721 9.80022C70.3692 9.23409 70.0912 8.93558 69.6383 8.91499C69.2266 8.96646 68.3722 9.27526 68.4031 10.881C68.4546 13.1044 68.4237 17.2526 68.4031 18.7863C68.5884 18.8996 68.7634 19.0334 68.9487 19.1878C71.4294 21.2361 70.4103 24.3756 69.5354 25.7549C69.5045 25.7961 69.4839 25.8373 69.4427 25.8785C66.4886 29.5429 61.836 35.5851 61.1154 37.1806C60.7963 37.8805 59.9729 38.1893 59.2729 37.8702C58.573 37.5511 58.2642 36.7277 58.5833 36.0277C59.6538 33.6499 66.2106 25.4564 67.2194 24.2006C67.4047 23.8918 68.2796 22.2449 67.1679 21.3288C66.0871 20.4333 65.0887 21.1126 64.7387 21.4008C64.4608 21.7199 64.152 22.2037 63.7917 22.7493C62.5256 24.6947 60.6008 27.618 56.154 30.4693C51.4088 33.4955 50.6368 36.9953 50.5441 37.5305V57.2423L50.5647 57.2217ZM61.9904 60.0009H49.1751C48.4134 60.0009 47.7855 59.3833 47.7855 58.6113V37.407C47.7855 37.3556 47.7855 37.3041 47.7855 37.2526C47.8061 37.0467 48.4443 32.0751 54.6718 28.1018C58.6244 25.5799 60.2714 23.0581 61.4757 21.2053C61.9286 20.5156 62.3197 19.9186 62.7521 19.4451C62.7727 19.4142 62.8035 19.3936 62.8344 19.3628C63.4005 18.8378 64.4196 18.2202 65.6445 18.0967C65.6548 16.2645 65.6754 12.8265 65.6445 10.9222C65.5622 7.55627 67.9193 6.20784 69.5148 6.1152C70.6059 6.07403 72.7572 6.68133 73.2204 9.29585C73.6013 11.4369 74.9703 23.5933 74.9703 28.143C74.9703 32.6927 72.1087 35.4925 71.4911 36.0483C71.0794 36.5424 69.0207 38.9716 65.521 42.4611C62.5771 45.405 62.6388 47.371 62.6594 47.6077C62.68 47.6901 62.68 47.7107 62.6903 47.8136L63.38 58.529C63.4005 58.9098 63.2667 59.2907 63.0094 59.5686C62.7418 59.8465 62.3815 60.0112 62.0006 60.0112" fill="#123D61"/>
</g>
</g>
<defs>
<clipPath id="clip0_405_1127">
<rect width="73.9681" height="60" fill="white" transform="translate(0.640991)"/>
</clipPath>
</defs>
</svg>
