<?xml version="1.0" encoding="utf-8"?>
<!-- Generator: Adobe Illustrator 28.2.0, SVG Export Plug-In . SVG Version: 6.00 Build 0)  -->
<svg version="1.1" id="Layer_1" xmlns="http://www.w3.org/2000/svg" xmlns:xlink="http://www.w3.org/1999/xlink" x="0px" y="0px"
	 viewBox="0 0 208.1 141" style="enable-background:new 0 0 208.1 141;" xml:space="preserve">
<style type="text/css">
	.st0{fill:#FFFFFF;}
	.st1{fill:#636569;}
	.st2{fill:#696A6D;}
	.st3{fill:#006241;}
	.st4{enable-background:new    ;}
</style>
<rect class="st0" width="208.1" height="141"/>
<g>
	<g>
		<g>
			<path class="st1" d="M95.9,19.6h-1.8v-0.5h4.3v0.6h-1.8v4.9H96L95.9,19.6L95.9,19.6z"/>
			<path class="st1" d="M100.7,19.1h0.6v2.4h3.2v-2.4h0.6v5.5h-0.6v-2.5h-3.2v2.5h-0.6V19.1z"/>
			<path class="st1" d="M107.9,19.1h4v0.6h-3.3v1.9h3v0.6h-3V24h3.4v0.6h-4L107.9,19.1L107.9,19.1z"/>
		</g>
	</g>
	<polygon class="st1" points="115.4,66.7 103.4,66.5 91.3,66.7 18.4,67.2 91.3,67.9 103.4,68.1 115.4,67.9 188.4,67.4 	"/>
	<g>
		<polygon class="st1" points="91.3,22.7 18.4,22 91.3,21.2 		"/>
		<polygon class="st1" points="115.5,22.7 188.4,22 115.5,21.2 		"/>
	</g>
	<g>
		<g>
			<g>
				<path class="st2" d="M20.4,51h1v4h5.3v-4h1v9.1h-1V56h-5.3v4.1h-1C20.4,60.1,20.4,51,20.4,51z"/>
				<path class="st2" d="M33.4,51H40v0.9h-5.6V55h5v1h-5v3.2H40v0.9h-6.6V51z"/>
				<path class="st2" d="M48.6,50.9h1l4.2,9.2h-1.1l-1.1-2.4h-5l-1.1,2.4h-1.1L48.6,50.9z M51.2,56.8l-2.1-4.7L47,56.8H51.2z"/>
				<path class="st2" d="M58.7,51h1v8.2h5.1v1h-6.2L58.7,51L58.7,51z"/>
				<path class="st2" d="M71,51.9h-3.1v-1h7.2v1H72v8.2h-1C71,60.1,71,51.9,71,51.9z"/>
				<path class="st2" d="M80.1,51h1v4h5.3v-4h1v9.1h-1V56h-5.3v4.1h-1V51z"/>
				<path class="st2" d="M100.2,51h1l5.8,7.3V51h1v9.1h-0.8l-5.9-7.5v7.5h-1L100.2,51L100.2,51z"/>
				<path class="st2" d="M113.6,51h6.6v0.9h-5.6V55h5v1h-5v3.2h5.6v0.9h-6.7L113.6,51L113.6,51z"/>
				<path class="st2" d="M127.9,51.9h-3.1v-1h7.2v1h-3.1v8.2h-1C127.9,60.1,127.9,51.9,127.9,51.9z"/>
				<path class="st2" d="M136.3,51h1.1l2.6,7.6l2.5-7.6h0.8l2.5,7.6l2.6-7.6h1.1l-3.3,9.2h-0.9l-2.5-7.4l-2.5,7.4h-0.9L136.3,51z"/>
				<path class="st2" d="M153.7,55.6L153.7,55.6c0-2.5,1.9-4.8,4.7-4.8s4.6,2.2,4.6,4.7l0,0c0,2.5-1.9,4.7-4.7,4.7
					C155.6,60.3,153.7,58.1,153.7,55.6z M162,55.6L162,55.6c0-2.1-1.5-3.8-3.6-3.8s-3.6,1.7-3.6,3.7l0,0c0,2.1,1.5,3.8,3.6,3.8
					S162,57.6,162,55.6z"/>
				<path class="st2" d="M168.3,51h3.9c1.1,0,2,0.3,2.6,0.9c0.4,0.4,0.7,1.1,0.7,1.8l0,0c0,1.5-1,2.4-2.5,2.7l2.8,3.7h-1.3l-2.7-3.6
					h-2.4v3.6h-1V51H168.3z M172.2,55.6c1.4,0,2.4-0.7,2.4-1.9l0,0c0-1.1-0.9-1.8-2.3-1.8h-2.9v3.7H172.2z"/>
				<path class="st2" d="M180.6,51h1v5.5l5.3-5.5h1.3l-3.9,4l4.1,5.1h-1.3l-3.5-4.4l-1.9,2v2.5h-1V51H180.6z"/>
			</g>
		</g>
		<g>
			<g>
				<g>
					<g>
						<path class="st3" d="M18.5,29.2c0.4,0,1.8,0.1,2.9,0.1s2.1-0.1,2.7-0.1c0.1,0.1,0.1,0.6,0,0.7C23.6,30,23.2,30,23,30.1
							c-0.5,0.2-0.7,0.4-0.7,1.3c0,2.3,0,5.6,0,6.9c0,1,0.2,1.9,0.4,2.4c0.5,1.3,1.8,2.4,3.9,2.4c1.9,0,3.7-0.6,3.9-4.4
							c0.1-1.8,0.1-4.5,0-7c0-1.2-0.3-1.5-1-1.7c-0.2,0-0.6,0-1.1-0.1c-0.1-0.1-0.1-0.6,0-0.7c0.4,0,1.4,0.1,2.7,0.1
							c1,0,2-0.1,2.4-0.1c0.1,0.1,0.1,0.6,0,0.7c-0.3,0.1-0.7,0.1-0.9,0.2c-0.7,0.2-0.8,0.6-0.8,1.8c-0.1,4.9-0.1,6.7-0.5,8.3
							c-0.7,3.2-3.1,4.2-5.5,4.2c-3.6,0-5.1-1.7-5.4-4.3c-0.2-1.5-0.1-7.6-0.2-8.8c0-0.6-0.2-1-0.6-1.2c-0.2-0.1-0.7-0.1-1.1-0.2
							C18.4,29.8,18.4,29.3,18.5,29.2z"/>
						<path class="st3" d="M33.8,43.3c0.3-0.1,0.4-0.4,0.5-0.8c0-0.7,0-2.4,0-3.9c0-0.9,0-1.6,0-1.9c-0.1-0.3-0.3-0.6-1.2-0.9
							c0-0.1,0-0.5,0.1-0.6c0.9-0.1,2.2-0.6,2.8-0.9c0,0,0.1,0.1,0.1,0.2c0,0.3,0,1,0,1.4c0,0,0.1,0.1,0.1,0c1.2-1,2.3-1.6,3.1-1.6
							c1,0,1.7,0.5,2.2,1.2c0.4,0.7,0.6,1.7,0.6,2.8c0,1.3,0,3.5,0,4.3c0,0.2,0.1,0.4,0.2,0.5c0.4,0.2,0.7,0.2,1.1,0.3
							c0.1,0.1,0,0.6-0.1,0.7c-0.3,0-1-0.1-2.2-0.1c-1,0-1.7,0-2.2,0.1c-0.1-0.1-0.1-0.6,0-0.7c0.4,0,0.8-0.1,0.9-0.2
							c0.3-0.1,0.4-0.4,0.4-1c0-1.3,0-3.8-0.1-4.7c0-0.4-0.2-1-0.6-1.4c-0.3-0.3-0.7-0.6-1.4-0.6s-1.4,0.3-1.9,0.8
							c-0.1,0.1-0.2,0.4-0.2,0.9c0,1.7,0,4,0,5.1c0,0.6,0.1,0.7,0.4,0.8c0.2,0.1,0.6,0.1,0.9,0.2c0,0.1,0,0.6-0.1,0.7
							c-0.3,0-1-0.1-2.2-0.1c-1.1,0-1.9,0.1-2.2,0.1c-0.1-0.1-0.1-0.6,0-0.7C33.3,43.4,33.5,43.3,33.8,43.3z"/>
						<path class="st3" d="M48.2,44.1c-0.4,0-1.1-0.1-2.3-0.1c-0.9,0-1.8,0.1-2.2,0.1c-0.1-0.1-0.1-0.6,0-0.7c0.4,0,0.7-0.1,1-0.2
							c0.3-0.1,0.4-0.3,0.4-0.9s0-2.2,0-3.5c0-0.9,0-1.8,0-2.3c0-0.1,0-0.3-0.2-0.5c-0.2-0.3-0.6-0.4-1.1-0.6
							c-0.1-0.1,0-0.5,0.1-0.6c0.7,0,2-0.3,2.9-0.7c0,1.1,0,2.7,0,4.2c0,1.3,0,2.9,0,4c0,0.4,0.1,0.7,0.5,0.8
							c0.3,0.1,0.4,0.1,0.9,0.2C48.4,43.5,48.3,44,48.2,44.1z M46.5,32c-0.1,0.1-0.9,0.1-1,0c-0.3-0.2-0.5-0.5-0.6-1
							c0-0.1,0-0.6,0.1-0.7c0.2-0.2,0.7-0.4,1.1-0.4c0.4,0,0.6,0.1,0.7,0.2c0.1,0.2,0.2,0.5,0.2,0.7C47,31.3,46.8,31.7,46.5,32z"/>
						<path class="st3" d="M48.5,34.5c0.4,0,1.2,0.1,2.2,0.1c0.9,0,1.7,0,2.2-0.1c0.1,0.1,0.1,0.6,0,0.7c-0.3,0-0.7,0.1-0.9,0.2
							c-0.2,0.1-0.2,0.3-0.2,0.4c0.3,0.9,1.8,5.4,2,5.8h0.1c0.5-1.2,1.4-3.9,1.8-5c0.2-0.8,0.1-1-0.2-1.1s-0.6-0.2-1-0.2
							c0-0.1,0-0.6,0.1-0.7c0.2,0,1.1,0.1,2,0.1c0.8,0,1.6,0,1.8-0.1c0.1,0.1,0.1,0.6,0,0.7c-0.3,0-0.5,0.1-0.8,0.2
							c-0.4,0.2-0.6,0.5-0.9,1.1c-0.6,1.4-1.3,3.2-2.1,5.4c-0.4,1-0.6,1.7-0.7,2.3c-0.3,0-0.8,0-1.1,0c-0.2-0.6-0.4-1.3-0.7-2.1
							c-0.6-1.8-1.4-3.9-1.8-5c-0.5-1.3-0.6-1.5-1.1-1.7c-0.3-0.1-0.6-0.1-0.9-0.2C48.4,35.1,48.5,34.6,48.5,34.5z"/>
						<path class="st3" d="M65.9,41.9c0,0.2-0.1,0.6-0.1,0.6c-1,1.2-2.5,1.8-3.6,1.8c-1.2,0-2.1-0.4-2.7-1.2c-0.9-1-1.3-2.4-1.3-3.8
							c0-2.1,0.8-3.5,2-4.3c0.7-0.5,1.7-0.8,2.4-0.8c2.2,0,3,2.1,3.2,3.4c0,0.1,0.1,0.2,0.3,0.3c0,0.1-0.1,0.5-0.2,0.6
							C65,38.8,61.9,39,60,39c-0.1,0-0.1,0.1-0.1,0.3c0,0.8,0.4,1.8,0.9,2.4c0.7,0.7,1.4,1.1,2.5,1.1c0.9,0,1.7-0.3,2.6-1
							C65.8,41.8,65.9,41.8,65.9,41.9z M59.9,37.9c0,0,0,0.2,0.1,0.2c0.7,0,3.4,0,3.8-0.1c0,0,0.1-0.1,0.1-0.2
							c-0.1-1.2-0.9-2.6-2.1-2.6C60.8,35.2,60,36.2,59.9,37.9z"/>
						<path class="st3" d="M73.5,34.8c0,0.1,0,0.3,0,0.4c0,0.3-0.5,1.2-0.7,1.5l-0.2,0.1c-0.4-0.4-0.9-0.7-1.5-0.7
							c-0.5,0-0.9,0.5-1.2,1c-0.1,0.1-0.2,0.5-0.2,0.8c0,1.6,0,4.1,0,4.6c0,0.4,0.1,0.6,0.5,0.8c0.4,0.1,0.9,0.2,1.4,0.2
							c0,0.1,0,0.6-0.1,0.7c-0.3,0-1.7-0.1-2.6-0.1c-0.7,0-1.8,0-2.3,0.1c-0.1-0.1-0.1-0.6,0-0.7c0.3,0,0.6-0.1,0.9-0.2
							c0.2-0.1,0.4-0.2,0.4-0.7c0-0.4,0.1-2.4,0.1-4c0-0.9,0-1.6,0-1.9s-0.2-0.6-1.2-1c0-0.1,0-0.5,0.1-0.5c0.8-0.1,2.1-0.5,2.7-0.9
							c0,0,0.1,0,0.1,0.1c0,0.3,0,1.4,0,1.8c0,0.1,0.1,0.1,0.1,0c0.4-0.6,0.9-1.1,1.4-1.5c0.4-0.3,0.7-0.5,1.1-0.5
							C72.9,34.2,73.3,34.4,73.5,34.8z"/>
						<path class="st3" d="M80.1,37c-0.1,0.1-0.5,0.1-0.6,0c-0.1-1-0.3-1.5-0.8-1.8C78.4,35.1,78,35,77.6,35c-0.8,0-1.4,0.5-1.4,1.4
							c0,0.8,0.4,1.3,2.1,2.2c1.9,0.9,2.3,1.7,2.3,2.9c0,1.7-1.5,2.9-3.5,2.9c-0.8,0-1.8-0.2-2.4-0.5c-0.2-0.6-0.4-2.1-0.4-2.6
							c0.1-0.1,0.5-0.3,0.7-0.2c0.3,1.2,0.7,1.9,1.3,2.2c0.3,0.2,0.8,0.3,1.1,0.3c0.9,0,1.5-0.5,1.5-1.3c0-0.9-0.4-1.3-1.8-2
							c-1.8-1-2.5-1.8-2.5-3.1c0-1.5,1.1-2.8,3.3-2.8c0.5,0,1.1,0.1,1.5,0.1c0.4,0.1,0.7,0.1,0.9,0.1C80.2,35.2,80.1,36,80.1,37z"/>
						<path class="st3" d="M85.9,44.1c-0.4,0-1.1-0.1-2.3-0.1c-0.9,0-1.8,0.1-2.2,0.1c-0.1-0.1-0.1-0.6,0-0.7c0.4,0,0.7-0.1,1-0.2
							c0.3-0.1,0.4-0.3,0.4-0.9s0-2.2,0-3.5c0-0.9,0-1.8,0-2.3c0-0.1,0-0.3-0.2-0.5c-0.2-0.3-0.6-0.4-1.1-0.6
							c-0.1-0.1,0-0.5,0.1-0.6c0.7,0,2-0.3,2.9-0.7c0,1.1,0,2.7,0,4.2c0,1.3,0,2.9,0,4c0,0.4,0.1,0.7,0.5,0.8
							c0.3,0.1,0.4,0.1,0.9,0.2C86,43.5,86,44,85.9,44.1z M84.2,32c-0.1,0.1-0.9,0.1-1,0c-0.3-0.2-0.5-0.5-0.6-1
							c0-0.1,0-0.6,0.1-0.7c0.2-0.2,0.7-0.4,1.1-0.4s0.6,0.1,0.7,0.2c0.1,0.2,0.2,0.5,0.2,0.7C84.6,31.3,84.4,31.7,84.2,32z"/>
						<path class="st3" d="M88.9,35.7L88.9,35.7c-0.1,1.2-0.1,3.3-0.1,4.5c0,1,0,1.4,0.1,1.7c0.2,0.6,0.8,0.9,1.3,0.9
							c0.6,0,0.9-0.1,1.4-0.4c0,0.1,0,0.6-0.1,0.7c-0.6,0.7-1.5,1.1-2.2,1.1c-0.9,0-1.6-0.4-2-1.2C87,42.4,87,41.8,87,40.3
							c0-1.4,0-3.5,0-4.5c0-0.1,0-0.2-0.1-0.2c-0.3,0-0.9-0.1-1.2-0.1c0-0.1,0.1-0.7,0.2-0.8c0.3,0,0.9-0.2,1.1-0.3
							c0,0,0.1-0.1,0.1-0.2c0-0.3,0-1.7,0-2c0.4-0.2,1.2-0.8,1.4-1.1c0.1,0,0.3,0,0.4,0c0,0.4-0.1,1.5-0.1,3.2c0,0,0,0.1,0.1,0.1
							c1.1,0,2.4-0.1,2.7-0.1c-0.1,0.3-0.2,1-0.2,1.3C90.9,35.8,89.8,35.7,88.9,35.7z"/>
						<path class="st3" d="M96.1,48.6c-0.3,0.5-0.5,1-0.7,1.3L95.2,50c-0.3-0.1-1-0.4-1.2-0.6c0-0.1,0-0.3,0-0.4
							c0.7-1,2.5-3.4,3.3-5.3c0,0-0.1-0.3-0.2-0.4c-0.5-1.4-1.5-4-2.2-5.8c-0.6-1.6-0.8-2-1.5-2.2c-0.2,0-0.4-0.1-0.8-0.1
							c-0.1-0.1,0-0.6,0.1-0.7c0.4,0,1.2,0.1,2.2,0.1s2-0.1,2.3-0.1c0.1,0.1,0.1,0.6,0,0.7c-0.3,0.1-0.7,0.1-0.8,0.2
							c-0.2,0.1-0.2,0.3-0.2,0.4c0.4,1.4,1.9,5.4,2,5.8h0.1c0.7-1.6,1.7-4.3,1.8-5.5c0-0.3,0-0.6-0.4-0.7c-0.2-0.1-0.6-0.1-1-0.2
							c-0.1-0.1,0-0.6,0.1-0.7c0.3,0,1.1,0.1,1.9,0.1s1.5,0,2.1-0.1c0.1,0.1,0.1,0.6,0,0.7c-0.3,0-0.6,0.1-0.8,0.2
							c-0.4,0.1-0.7,0.5-0.9,1.1"/>
					</g>
				</g>
			</g>
			<g>
				<g>
					<g>
						<path class="st3" d="M116,29.2c0.5,0,1.8,0.1,2.7,0.1c1.4,0,2.5-0.1,2.9-0.1c0.1,0,0.1,0.6,0,0.7c-0.5,0.1-0.9,0.2-1.2,0.3
							c-0.4,0.1-0.4,0.4-0.3,0.7c0.7,2.1,3.2,9.4,3.7,10.5h0.1c0.5-1.3,2.9-7.7,3.6-9.8c0.3-0.9,0.2-1.2-0.5-1.4
							c-0.3-0.1-0.7-0.1-1.2-0.2c-0.1-0.1,0-0.6,0.1-0.7c0.4,0,1.3,0.1,2.7,0.1c1.2,0,1.8-0.1,2.4-0.1c0.1,0.1,0.1,0.6,0,0.7
							c-0.4,0.1-0.7,0.1-1,0.2c-0.7,0.2-0.9,0.7-1.4,2.1c-0.7,1.7-2.2,5.7-3.3,8.7c-0.5,1.4-0.9,2.6-1.2,3.4c-0.3-0.1-1-0.1-1.4,0
							c-0.2-0.9-0.5-2-1-3.3c-1.1-3.2-2.5-7.2-3.2-9c-0.5-1.3-0.8-1.7-1.4-1.9c-0.3-0.1-0.6-0.1-1.1-0.2
							C115.8,29.8,115.9,29.3,116,29.2z"/>
						<path class="st3" d="M136.1,41.9c0,0.2-0.1,0.6-0.1,0.6c-1,1.2-2.5,1.8-3.6,1.8c-1.2,0-2.1-0.4-2.7-1.2
							c-0.9-1-1.3-2.4-1.3-3.8c0-2.1,0.8-3.5,2-4.3c0.7-0.5,1.7-0.8,2.4-0.8c2.2,0,3,2.1,3.2,3.4c0,0.1,0.1,0.2,0.3,0.3
							c0,0.1-0.1,0.5-0.2,0.6c-0.9,0.3-4,0.5-5.9,0.5c-0.1,0-0.1,0.1-0.1,0.3c0,0.8,0.4,1.8,0.9,2.4c0.7,0.7,1.4,1.1,2.5,1.1
							c0.9,0,1.7-0.3,2.6-1C136,41.8,136.1,41.8,136.1,41.9z M130.1,37.9c0,0,0,0.2,0.1,0.2c0.7,0,3.4,0,3.8-0.1
							c0,0,0.1-0.1,0.1-0.2c-0.1-1.2-0.9-2.6-2.1-2.6C131,35.2,130.2,36.2,130.1,37.9z"/>
						<path class="st3" d="M144.1,34.8c0,0.1,0,0.3,0,0.4c0,0.3-0.5,1.2-0.7,1.5l-0.2,0.1c-0.4-0.4-0.9-0.7-1.5-0.7
							c-0.5,0-0.9,0.5-1.2,1c-0.1,0.1-0.2,0.5-0.2,0.8c0,1.6,0,4.1,0,4.6c0,0.4,0.1,0.6,0.5,0.8c0.4,0.1,0.9,0.2,1.4,0.2
							c0,0.1,0,0.6-0.1,0.7c-0.3,0-1.7-0.1-2.6-0.1c-0.7,0-1.8,0-2.3,0.1c-0.1-0.1-0.1-0.6,0-0.7c0.3,0,0.6-0.1,0.9-0.2
							c0.2-0.1,0.4-0.2,0.4-0.7c0-0.4,0.1-2.4,0.1-4c0-0.9,0-1.6,0-1.9s-0.2-0.6-1.2-1c0-0.1,0-0.5,0.1-0.5c0.8-0.1,2.1-0.5,2.7-0.9
							c0,0,0.1,0,0.1,0.1c0,0.3,0,1.4,0,1.8c0,0.1,0.1,0.1,0.1,0c0.4-0.6,0.9-1.1,1.4-1.5c0.4-0.3,0.7-0.5,1.1-0.5
							C143.5,34.2,144,34.4,144.1,34.8z"/>
						<path class="st3" d="M146.1,43.2c0.4-0.1,0.4-0.4,0.5-0.9c0.1-1.3,0.1-3.8,0.1-5.4c0-0.1,0-0.5-0.2-0.7s-0.6-0.4-1.1-0.5
							c-0.1-0.1,0-0.5,0.1-0.6c1-0.1,2.2-0.5,2.8-0.9c0,0,0,0.1,0.1,0.1c0,0.2,0,1,0,1.4c0,0,0.1,0.1,0.1,0c1.3-1.1,2.4-1.5,3.1-1.5
							c1.1,0,1.8,0.7,2.3,1.6c0,0.1,0.1,0,0.2,0c1.2-1,2.3-1.6,3.2-1.6c1.7,0,2.8,1.4,2.8,3.9c0,1.3,0,3.5,0,4.5
							c0,0.2,0.1,0.4,0.2,0.5c0.3,0.2,0.6,0.2,1.2,0.3c0,0.1,0,0.6-0.1,0.7c-0.4,0-1.1-0.1-2.1-0.1c-1.1,0-1.7,0-2.3,0.1
							c-0.1-0.1-0.1-0.6,0-0.7c0.4-0.1,0.6-0.1,0.9-0.2c0.3-0.1,0.4-0.4,0.4-1.2c0-1.3,0.1-3.8-0.1-4.5c-0.1-0.8-0.6-1.8-2-1.8
							c-0.6,0-1.3,0.3-2,0.9c0,0,0,0.1,0,0.2c0.1,0.5,0.1,1,0.1,1.7c0,1.3,0,3.2,0,4.2c0,0.3,0.2,0.5,0.4,0.6c0.3,0.1,0.5,0.1,1,0.2
							c0.1,0.1,0,0.6-0.1,0.7c-0.6,0-1.3-0.1-2.3-0.1c-0.7,0-1.7,0.1-2.1,0.1c-0.1-0.1-0.1-0.6,0-0.7c0.4-0.1,0.6-0.1,0.9-0.2
							c0.3-0.1,0.4-0.3,0.4-0.8c0.1-1.1,0.1-4.3,0-5s-0.6-1.8-1.9-1.8c-0.5,0-1.2,0.2-1.8,0.7c-0.2,0.1-0.3,0.3-0.3,0.6
							c0,1.6,0,4.5,0,5.6c0,0.3,0.1,0.6,0.5,0.7c0.2,0,0.5,0.1,0.9,0.2c0.1,0.1,0,0.6,0,0.7c-0.5,0-1.3-0.1-2.2-0.1
							c-1.2,0-1.6,0.1-2.2,0.1c-0.1-0.1-0.1-0.6,0-0.7C145.6,43.3,145.8,43.3,146.1,43.2z"/>
						<path class="st3" d="M170.9,39.1c0,1.8-0.7,3.5-2.1,4.4c-0.6,0.4-1.7,0.9-2.6,0.9c-3.3,0-4.5-2.7-4.5-5.1c0-1.9,0.8-3.2,2-4
							c0.8-0.6,1.9-1,3-1C169.3,34.2,170.9,36.4,170.9,39.1z M164.7,35.5c-0.6,0.4-1.1,1.3-1.1,3.1c0,2.8,1.3,4.7,3.1,4.7
							c0.5,0,1-0.1,1.4-0.5c0.6-0.6,0.9-1.6,0.9-3c0-2.8-1.2-4.7-3.1-4.7C165.4,35.2,165,35.3,164.7,35.5z"/>
						<path class="st3" d="M172.4,43.3c0.3-0.1,0.4-0.4,0.5-0.8c0-0.7,0-2.4,0-3.9c0-0.9,0-1.6,0-1.9c-0.1-0.3-0.3-0.6-1.2-0.9
							c0-0.1,0-0.5,0.1-0.6c0.9-0.1,2.2-0.6,2.8-0.9c0,0,0.1,0.1,0.1,0.2c0,0.3,0,1,0,1.4c0,0,0.1,0.1,0.1,0c1.2-1,2.3-1.6,3.1-1.6
							c1,0,1.7,0.5,2.2,1.2c0.4,0.7,0.6,1.7,0.6,2.8c0,1.3,0,3.5,0,4.3c0,0.2,0.1,0.4,0.2,0.5c0.4,0.2,0.7,0.2,1.1,0.3
							c0.1,0.1,0,0.6-0.1,0.7c-0.3,0-1-0.1-2.2-0.1c-1,0-1.7,0-2.2,0.1c-0.1-0.1-0.1-0.6,0-0.7c0.4,0,0.8-0.1,0.9-0.2
							c0.3-0.1,0.4-0.4,0.4-1c0-1.3,0-3.8-0.1-4.7c0-0.4-0.2-1-0.6-1.4c-0.3-0.3-0.7-0.6-1.4-0.6s-1.4,0.3-1.9,0.8
							c-0.1,0.1-0.2,0.4-0.2,0.9c0,1.7,0,4,0,5.1c0,0.6,0.1,0.7,0.4,0.8c0.2,0.1,0.6,0.1,0.9,0.2c0,0.1,0,0.6-0.1,0.7
							c-0.3,0-1-0.1-2.2-0.1c-1.1,0-1.9,0.1-2.2,0.1c-0.1-0.1-0.1-0.6,0-0.7C171.9,43.4,172.1,43.3,172.4,43.3z"/>
						<path class="st3" d="M185.5,35.7l-0.1,0.1c0,1.1,0,3.2,0,4.4c0,1,0,1.4,0.1,1.7c0.2,0.6,0.8,0.9,1.3,0.9
							c0.6,0,0.9-0.1,1.4-0.4c0,0.1,0,0.6-0.1,0.7c-0.6,0.7-1.5,1.1-2.2,1.1c-0.9,0-1.6-0.4-2-1.2c-0.3-0.6-0.3-1.2-0.3-2.7
							c0-1.4,0-3.5,0-4.5c0-0.1,0-0.2-0.1-0.2c-0.3,0-0.9-0.1-1.2-0.1c0-0.1,0.1-0.7,0.2-0.8c0.3,0,0.9-0.2,1.1-0.3
							c0,0,0.1-0.1,0.1-0.2c0-0.3,0-1.7,0-2c0.4-0.2,1.2-0.8,1.4-1.1c0.1,0,0.3,0,0.4,0c0,0.4-0.1,1.5-0.1,3.2c0,0,0,0.1,0.1,0.1
							c1.1,0,2.4-0.1,2.7-0.1c-0.1,0.3-0.2,1-0.2,1.3C187.5,35.8,186.3,35.7,185.5,35.7z"/>
					</g>
				</g>
			</g>
			<g>
				<g>
					<path class="st3" d="M109.9,38.6c0,1.4-0.6,2.6-1.8,3.3c-0.5,0.3-1.2,0.5-1.7,0.5c-1,0-1.5-0.8-1.5-1.9s0.4-2.4,1.4-3
						c0.6-0.4,1.4-0.7,2-0.7C109.4,36.8,109.9,37.7,109.9,38.6z M107.2,41.7c0.8,0,1.3-1.5,1.3-2.8c0-0.7-0.1-1.5-0.8-1.5
						c-0.8,0-1.3,1.5-1.3,2.8C106.4,41.3,106.7,41.7,107.2,41.7z"/>
					<path class="st3" d="M110.8,37.5c0.1-0.2,0.4-0.5,0.5-0.5h0.5l0.1-0.1c0.3-1.4,0.8-2.2,1.8-2.9c0.5-0.3,1.1-0.6,1.4-0.6
						s0.6,0.1,0.6,0.3s-0.4,0.8-0.7,0.9c0,0-0.1,0.1-0.2,0c-0.2-0.2-0.5-0.4-0.7-0.4s-0.3,0.2-0.4,0.5c-0.2,0.5-0.3,1.2-0.4,2.2
						c0,0.1,0,0.1,0.1,0.1c0.5,0,0.9,0,1.2-0.1c0,0.1,0,0.3-0.1,0.3c-0.2,0.2-0.6,0.3-0.9,0.4c-0.1,0-0.3,0-0.4,0l-0.1,0.1
						c-0.2,1.5-0.5,3.2-0.7,4.6c-0.4,2-2.2,3.2-3.1,3.2c-0.5,0-0.8-0.2-0.8-0.5s0.1-0.7,0.3-0.9c0,0,0.1-0.1,0.2-0.1
						c0.4,0.5,0.8,0.8,1.2,0.8c0.4,0,0.5-0.3,0.7-1.2c0.3-1.9,0.8-4.7,0.9-5.7c0,0,0-0.1-0.1-0.1c-0.3,0-0.7,0-0.9,0
						C110.8,37.6,110.8,37.5,110.8,37.5z"/>
				</g>
			</g>
		</g>
	</g>
</g>
<g class="st4">
	<path class="st1" d="M66.4,103.8L66.4,103.8c0-2,1.5-3.6,3.5-3.6c1.3,0,2,0.5,2.7,1.1l-0.5,0.6c-0.6-0.6-1.2-1-2.2-1
		c-1.5,0-2.7,1.3-2.7,2.9v0c0,1.6,1.2,2.9,2.7,2.9c1,0,1.6-0.4,2.3-1l0.5,0.5c-0.7,0.7-1.5,1.2-2.8,1.2
		C67.9,107.4,66.4,105.8,66.4,103.8z"/>
	<path class="st1" d="M75.1,100.3h5.1v0.7h-4.3v2.4h3.8v0.7h-3.8v2.4h4.3v0.7h-5.1V100.3z"/>
	<path class="st1" d="M82.8,100.3h0.7l4.4,5.6v-5.6h0.8v7h-0.6l-4.5-5.7v5.7h-0.8V100.3z"/>
	<path class="st1" d="M93.5,101h-2.3v-0.7h5.5v0.7h-2.3v6.3h-0.8V101z"/>
	<path class="st1" d="M99.2,100.3h5.1v0.7h-4.3v2.4h3.8v0.7h-3.8v2.4h4.3v0.7h-5.1V100.3z"/>
	<path class="st1" d="M106.9,100.3h3c0.9,0,1.5,0.3,2,0.7c0.3,0.3,0.5,0.8,0.5,1.4v0c0,1.2-0.8,1.8-1.9,2l2.1,2.9h-1l-2-2.7h-2v2.7
		h-0.8V100.3z M109.8,103.8c1,0,1.8-0.5,1.8-1.4v0c0-0.9-0.7-1.4-1.8-1.4h-2.2v2.8H109.8z"/>
	<path class="st1" d="M119.1,100.3h5v0.7h-4.2v2.5h3.8v0.7h-3.8v3h-0.8V100.3z"/>
	<path class="st1" d="M126.2,103.8L126.2,103.8c0-1.9,1.4-3.6,3.6-3.6s3.6,1.7,3.6,3.6v0c0,1.9-1.4,3.6-3.6,3.6
		S126.2,105.7,126.2,103.8z M132.5,103.8L132.5,103.8c0-1.6-1.2-2.9-2.8-2.9c-1.6,0-2.7,1.3-2.7,2.9v0c0,1.6,1.2,2.9,2.8,2.9
		C131.4,106.6,132.5,105.4,132.5,103.8z"/>
	<path class="st1" d="M136,100.3h3c0.9,0,1.5,0.3,2,0.7c0.3,0.3,0.5,0.8,0.5,1.4v0c0,1.2-0.8,1.8-1.9,2l2.1,2.9h-1l-2-2.7h-2v2.7
		H136V100.3z M138.9,103.8c1,0,1.8-0.5,1.8-1.4v0c0-0.9-0.7-1.4-1.8-1.4h-2.2v2.8H138.9z"/>
</g>
<g class="st4">
	<path class="st1" d="M17.9,114.3h0.9l2,5.8l1.9-5.8h0.6l1.9,5.8l2-5.8H28l-2.5,7h-0.7l-1.9-5.7l-1.9,5.7h-0.7L17.9,114.3z"/>
	<path class="st1" d="M29.8,117.8L29.8,117.8c0-1.9,1.4-3.6,3.6-3.6s3.6,1.7,3.6,3.6v0c0,1.9-1.4,3.6-3.6,3.6S29.8,119.7,29.8,117.8
		z M36.1,117.8L36.1,117.8c0-1.6-1.2-2.9-2.8-2.9s-2.7,1.3-2.7,2.9v0c0,1.6,1.2,2.9,2.8,2.9S36.1,119.4,36.1,117.8z"/>
	<path class="st1" d="M39.6,114.3h3c0.9,0,1.5,0.3,2,0.7c0.3,0.3,0.5,0.8,0.5,1.4v0c0,1.2-0.8,1.8-1.9,2l2.1,2.9h-1l-2-2.7h-2v2.7
		h-0.8V114.3z M42.5,117.8c1,0,1.8-0.5,1.8-1.4v0c0-0.9-0.7-1.4-1.8-1.4h-2.2v2.8H42.5z"/>
	<path class="st1" d="M47.8,114.3h0.8v4.2l4-4.2h1l-3,3.1l3.1,3.9h-1l-2.7-3.4l-1.5,1.5v1.9h-0.8V114.3z"/>
	<path class="st1" d="M56,114.3h5v0.7h-4.2v2.5h3.8v0.7h-3.8v3H56V114.3z"/>
	<path class="st1" d="M63.1,117.8L63.1,117.8c0-1.9,1.4-3.6,3.6-3.6s3.6,1.7,3.6,3.6v0c0,1.9-1.4,3.6-3.6,3.6S63.1,119.7,63.1,117.8
		z M69.4,117.8L69.4,117.8c0-1.6-1.2-2.9-2.8-2.9s-2.7,1.3-2.7,2.9v0c0,1.6,1.2,2.9,2.8,2.9S69.4,119.4,69.4,117.8z"/>
	<path class="st1" d="M72.9,114.3h3c0.9,0,1.5,0.3,2,0.7c0.3,0.3,0.5,0.8,0.5,1.4v0c0,1.2-0.8,1.8-1.9,2l2.1,2.9h-1l-2-2.7h-2v2.7
		h-0.8V114.3z M75.9,117.8c1,0,1.8-0.5,1.8-1.4v0c0-0.9-0.7-1.4-1.8-1.4h-2.2v2.8H75.9z"/>
	<path class="st1" d="M80.9,117.8L80.9,117.8c0-2,1.5-3.6,3.5-3.6c1.3,0,2,0.5,2.7,1.1l-0.5,0.6c-0.6-0.6-1.2-1-2.2-1
		c-1.5,0-2.7,1.3-2.7,2.9v0c0,1.6,1.2,2.9,2.7,2.9c1,0,1.6-0.4,2.3-1l0.5,0.5c-0.7,0.7-1.5,1.2-2.8,1.2
		C82.3,121.4,80.9,119.8,80.9,117.8z"/>
	<path class="st1" d="M89.5,114.3h5.1v0.7h-4.3v2.4h3.8v0.7h-3.8v2.4h4.3v0.7h-5.1V114.3z"/>
	<path class="st1" d="M101.2,114.3h2.4c2.2,0,3.7,1.5,3.7,3.5v0c0,2-1.5,3.5-3.7,3.5h-2.4V114.3z M102,115v5.5h1.6
		c1.8,0,2.9-1.2,2.9-2.7v0c0-1.5-1.1-2.8-2.9-2.8H102z"/>
	<path class="st1" d="M110.1,114.3h5.1v0.7h-4.3v2.4h3.8v0.7h-3.8v2.4h4.3v0.7h-5.1V114.3z"/>
	<path class="st1" d="M117.2,114.3h0.9l2.5,6l2.5-6h0.8l-3,7h-0.7L117.2,114.3z"/>
	<path class="st1" d="M126.3,114.3h5.1v0.7h-4.3v2.4h3.8v0.7h-3.8v2.4h4.3v0.7h-5.1V114.3z"/>
	<path class="st1" d="M134,114.3h0.8v6.3h3.9v0.7H134V114.3z"/>
	<path class="st1" d="M140.5,117.8L140.5,117.8c0-1.9,1.4-3.6,3.6-3.6s3.6,1.7,3.6,3.6v0c0,1.9-1.4,3.6-3.6,3.6
		S140.5,119.7,140.5,117.8z M146.8,117.8L146.8,117.8c0-1.6-1.2-2.9-2.8-2.9c-1.6,0-2.7,1.3-2.7,2.9v0c0,1.6,1.2,2.9,2.8,2.9
		C145.6,120.6,146.8,119.4,146.8,117.8z"/>
	<path class="st1" d="M150.3,114.3h2.6c1.6,0,2.6,0.8,2.6,2.2v0c0,1.5-1.3,2.3-2.7,2.3H151v2.5h-0.8V114.3z M152.8,118.1
		c1.2,0,1.9-0.6,1.9-1.5v0c0-1-0.8-1.5-1.9-1.5H151v3.1H152.8z"/>
	<path class="st1" d="M157.9,114.3h0.8l2.5,3.8l2.5-3.8h0.8v7h-0.8v-5.7l-2.5,3.7h0l-2.5-3.7v5.7h-0.8V114.3z"/>
	<path class="st1" d="M167.6,114.3h5.1v0.7h-4.3v2.4h3.8v0.7h-3.8v2.4h4.3v0.7h-5.1V114.3z"/>
	<path class="st1" d="M175.3,114.3h0.7l4.4,5.6v-5.6h0.8v7h-0.6l-4.5-5.7v5.7h-0.8V114.3z"/>
	<path class="st1" d="M186.1,115h-2.3v-0.7h5.5v0.7h-2.3v6.3h-0.8V115z"/>
</g>
</svg>
