<?xml version="1.0" encoding="UTF-8"?>
<svg xmlns="http://www.w3.org/2000/svg" version="1.1" viewBox="0 0 168.5 41.9">
  <defs>
    <style>
      .cls-1 {
        fill: #f05123;
      }
    </style>
  </defs>
  <!-- Generator: Adobe Illustrator 28.7.1, SVG Export Plug-In . SVG Version: 1.2.0 Build 142)  -->
  <g>
    <g id="Layer_1">
      <g>
        <path class="cls-1" d="M11.1,40.1C3.5,31.1,0,13.6,0,13.4c0-.4,0-1,.9-1h4.9c.5,0,.8.2.9.8,2,9.2,5.8,18,7.6,20.5,1.8-2.5,5.6-11.3,7.6-20.5.1-.5.4-.8.9-.8h4.9c.8,0,1,.5.9,1,0,.2-3.5,17.7-11.1,26.7-.8,1-1.9,1.5-3.2,1.5s-2.3-.5-3.2-1.5ZM35.9,0c-2.2,0-4,1.8-4,4s1.8,4,4,4,4-1.8,4-4-1.8-4-4-4ZM73.5,0c-2.2,0-4,1.8-4,4s1.8,4,4,4,4-1.8,4-4-1.8-4-4-4ZM38.2,12.5h-4.5c-.7,0-1,.3-1,1v26.9c0,.7.3,1,1,1h4.5c.7,0,1-.3,1-1V13.4c0-.6-.3-.9-1-.9ZM75.8,12.5h-4.5c-.7,0-1,.3-1,1v26.9c0,.7.3,1,1,1h4.5c.7,0,1-.3,1-1V13.4c0-.6-.3-.9-1-.9ZM110.9,40.4c0,.7.3,1,1,1h4.5c.7,0,1-.3,1-1v-21.8c1.3-.9,5.6-2.3,8.6-.5,1.9,1.1,2.6,4.1,2.5,7.5v14.8c0,.7.3,1,1,1h4.5c.7,0,1-.3,1-1v-15.3c0-9-4.1-13.6-12.4-13.6s-8.4,1.5-10.7,3.5c-.8.7-1.2,1.5-1.2,2.5l.2,22.9ZM156.1,17.8c.7,0,1-.3,1-1v-3.3c0-.7-.3-1-1-1h-7v-6.8c0-.7-.3-1-1-1h-4.5c-.7,0-1,.3-1,1v6.7h-3.9c-.7,0-1,.3-1,1v3.3c0,.7.3,1,1,1h3.8v13.9c0,4.1,1.5,6.4,2.3,7.3.8.9,2.7,2.8,6.7,2.8s6.5-2,7.7-3.2c.5-.5.4-.8.1-1.1-.1,0-2.3-3-2.3-3-.3-.4-.9-.4-1.2,0-.8.7-2.5,2.1-4.8,1.2-1.7-.6-2-2.5-2-3.8v-13.9h7.1ZM100.1,29h-12c0,3.8,2.6,7.2,6.9,7.2s5-.9,7-2.7c.7-.7,1.2,0,1.2,0,0,0,2,2.9,2.3,3.3,0,0,.2.4-.3.9-2.7,2.7-6.2,4.1-10.5,4.1-8.7,0-13.2-7.1-13.2-15.2s6.2-15.2,13.3-15.2,11.4,4.7,11.4,11.1c.2,4.3-1.9,6.4-6.1,6.4ZM100.3,22.5c0-2.3-1.4-5.6-5.6-5.6s-5.7.6-6.3,6.9h10.7c.8,0,1.2-.5,1.2-1.3ZM65,41.3c.7,0,1-.3,1-1v-3.6c0-.7-.3-1-1-1h-13.6c1.3-3.3,9.7-11.4,12.6-16,1.1-1.7,1.6-3,1.6-3.9s-.5-3.2-3.9-3.2h-16c-.7,0-1,.3-1,1v3.6c0,.7.3,1,1,1h12.2c-.6,1.2-8.7,9.8-11.7,15-.8,1.4-1.9,3.5-1.9,5.1s1.2,3.1,3.7,3.1h17Z"/>
        <path class="cls-1" d="M167.9,38.8c0,1.3-1.1,2.4-2.4,2.4s-2.4-1.1-2.4-2.4,1.1-2.4,2.4-2.4,2.4,1.1,2.4,2.4ZM165.5,35.8c-1.7,0-3,1.3-3,3s1.3,3,3,3,3-1.3,3-3-1.3-3-3-3ZM166.2,40.3l-.7-1.2h-.6v1.2h-.5v-3.1h1.2c.3,0,.6,0,.7.2.2,0,.3.4.3.7h0c0,.3-.1.5-.2.6-.1,0-.2.2-.4.3l.8,1.3h-.6ZM164.9,38.7h.6c.2,0,.4,0,.5,0s.2-.2.2-.4h0c0-.3-.1-.4-.2-.5-.1,0-.2,0-.4,0h-.6v1.1h-.1Z"/>
      </g>
    </g>
  </g>
</svg>