<?xml version="1.0" encoding="utf-8"?>
<!-- Generator: Adobe Illustrator 28.0.0, SVG Export Plug-In . SVG Version: 6.00 Build 0)  -->
<svg version="1.1" id="Layer_1" xmlns="http://www.w3.org/2000/svg" xmlns:xlink="http://www.w3.org/1999/xlink" x="0px" y="0px"
	 viewBox="0 0 48 48" style="enable-background:new 0 0 48 48;" xml:space="preserve">
<style type="text/css">
	.st0{fill:#FFFFFF;fill-opacity:0;}
	.st1{fill:#231F20;}
	.st2{fill:none;}
</style>
<path shape-rendering="optimizeSpeed" class="st0" d="M0,48V0h48v48H0z"/>
<path shape-rendering="optimizeSpeed" class="st1" d="M32,24c0,0.5-0.2,0.9-0.5,1.3l-10,12c-0.7,0.9-2,1-2.8,0.3s-1-2-0.3-2.8
	l9-10.7l-8.6-10.7c-0.3-0.4-0.5-0.9-0.4-1.5c0.1-0.5,0.3-1,0.7-1.3c0.4-0.4,1-0.5,1.5-0.5c0.6,0.1,1.1,0.3,1.4,0.8l9.7,12
	C31.9,23.1,32,23.5,32,24z"/>
<path class="st2" d="M0,48V0h48v48H0z"/>
</svg>
