<?xml version="1.0" encoding="UTF-8"?>
<svg id="uuid-0b0c1789-b24d-400b-967a-4aabbe2a77df" data-name="Layer 2" xmlns="http://www.w3.org/2000/svg" width="71.68" height="61.11" viewBox="0 0 71.68 61.11">
  <g id="uuid-4e14994d-e360-4ea5-ac5f-fb5a66aa58a4" data-name="Icons">
    <g>
      <path d="m66.77,32.94l4.7-6.95c.38-.56.24-1.33-.31-1.72L37.33.23c-.43-.31-1.02-.31-1.45,0l-9.56,6.8v-1.19c0-.69-.56-1.25-1.25-1.25h-10.36c-.69,0-1.25.56-1.25,1.25v10.34L2.03,24.35c-.55.4-.69,1.16-.3,1.72l4.73,6.88c.19.28.48.46.81.52.33.06.67-.02.94-.21l3.39-2.41v3.1c.25-.01.5-.04.75-.04.59,0,1.17.04,1.75.11v-4.95l22.51-16.01,22.51,16.01v25.65h-6.17v-16.5c0-.69-.56-1.25-1.25-1.25h-11.49c-.69,0-1.25.56-1.25,1.25v16.5h-13.01c-.39.88-.86,1.72-1.4,2.5h35.82c.69,0,1.25-.56,1.25-1.25v-25.12l3.39,2.41c.57.37,1.32.34,1.76-.32Zm-16.33,21.78h-8.99v-15.25h8.99v15.25Zm14.97-24.24l-28.08-19.97c-.43-.31-1.02-.31-1.45,0L7.79,30.49l-3.31-4.82,10.96-7.83c.33-.23.52-.61.52-1.02V7.09h7.86v2.37c0,.47.26.9.68,1.11.42.21.92.18,1.3-.09l10.81-7.69,32.1,22.82-3.29,4.88Z" fill="#011520" stroke-width="0"/>
      <path d="m24.63,40.42h7.46c.69,0,1.25-.56,1.25-1.25v-10.24c0-.69-.56-1.25-1.25-1.25h-10.23c-.69,0-1.25.56-1.25,1.25v7.49c1.58,1.06,2.95,2.42,4.02,4Zm-1.52-10.24h7.73v7.74h-7.73v-7.74Z" fill="#011520" stroke-width="0"/>
      <path d="m12.35,36.41c-6.81,0-12.35,5.54-12.35,12.35s5.54,12.35,12.35,12.35,12.35-5.54,12.35-12.35-5.54-12.35-12.35-12.35Zm0,22.2c-5.43,0-9.85-4.42-9.85-9.85s4.42-9.85,9.85-9.85,9.85,4.42,9.85,9.85-4.42,9.85-9.85,9.85Z" fill="#011520" stroke-width="0"/>
      <path d="m16.74,43.98l-5.7,7.44-2.79-2.78c-.49-.49-1.28-.49-1.77,0-.49.49-.49,1.28,0,1.77l3.79,3.79c.24.24.55.37.88.37.03,0,.05,0,.08,0,.36-.02.69-.2.91-.49l6.57-8.58c.42-.55.32-1.33-.23-1.75-.55-.42-1.33-.32-1.75.23Z" fill="#011520" stroke-width="0"/>
    </g>
  </g>
</svg>