<?xml version="1.0" encoding="UTF-8"?>
<svg id="uuid-c85a3c04-c3b5-4995-9164-0dffa4ebbac6" data-name="Layer 1" xmlns="http://www.w3.org/2000/svg" width="50" height="50" viewBox="0 0 50 50">
  <path d="M25,13.12c3.8,0,4.24,.01,5.74,.08,1.39,.06,2.14,.3,2.64,.5,.66,.26,1.14,.58,1.63,1.08,.5,.51,.81,.99,1.06,1.67,.19,.51,.43,1.28,.49,2.69,.07,1.53,.08,1.99,.08,5.86s-.01,4.33-.08,5.86c-.06,1.41-.29,2.18-.49,2.69-.26,.68-.57,1.16-1.06,1.67s-.97,.82-1.63,1.08c-.5,.2-1.25,.43-2.64,.5-1.5,.07-1.95,.08-5.74,.08s-4.25-.01-5.74-.08c-1.39-.06-2.14-.3-2.64-.5-.66-.26-1.14-.58-1.63-1.08-.5-.51-.81-.99-1.06-1.67-.19-.51-.43-1.28-.49-2.69-.07-1.53-.08-1.99-.08-5.86s.01-4.33,.08-5.86c.06-1.41,.29-2.18,.49-2.69,.26-.68,.57-1.16,1.06-1.67s.97-.82,1.63-1.08c.5-.2,1.25-.43,2.64-.5,1.5-.07,1.95-.08,5.74-.08m0-2.61c-3.86,0-4.34,.02-5.86,.09-1.51,.07-2.55,.32-3.45,.67-.93,.37-1.73,.87-2.52,1.67-.79,.81-1.28,1.61-1.64,2.57-.35,.92-.59,1.98-.66,3.52-.07,1.55-.09,2.04-.09,5.97s.02,4.43,.09,5.97c.07,1.54,.31,2.6,.66,3.52,.36,.95,.85,1.76,1.64,2.57,.79,.81,1.58,1.3,2.52,1.67,.9,.36,1.94,.6,3.45,.67,1.52,.07,2,.09,5.86,.09s4.34-.02,5.86-.09c1.51-.07,2.55-.32,3.45-.67,.93-.37,1.73-.87,2.52-1.67,.79-.81,1.28-1.61,1.64-2.57,.35-.92,.59-1.98,.66-3.52,.07-1.55,.09-2.04,.09-5.97s-.02-4.43-.09-5.97c-.07-1.54-.31-2.6-.66-3.52-.36-.95-.85-1.76-1.64-2.57-.79-.81-1.58-1.3-2.52-1.67-.9-.36-1.94-.6-3.45-.67-1.52-.07-2-.09-5.86-.09h0Z"/>
  <path d="M25,17.56c-4.03,0-7.3,3.33-7.3,7.44s3.27,7.44,7.3,7.44,7.3-3.33,7.3-7.44-3.27-7.44-7.3-7.44Zm0,12.27c-2.62,0-4.74-2.16-4.74-4.83s2.12-4.83,4.74-4.83,4.74,2.16,4.74,4.83-2.12,4.83-4.74,4.83Z"/>
  <ellipse cx="32.59" cy="17.26" rx="1.71" ry="1.74"/>
</svg>