<?xml version="1.0" encoding="UTF-8"?>
<svg id="uuid-794f9bb1-2265-4064-a213-7deab0a06f75" data-name="Layer 1" xmlns="http://www.w3.org/2000/svg" width="50" height="50" viewBox="0 0 50 50">
  <path d="M32.39,19.69c-3.32,0-4.81,1.82-5.64,3.11v.06h-.04s.03-.04,.04-.06v-2.66h-6.25c.08,1.76,0,18.82,0,18.82h6.25v-10.51c0-.56,.04-1.12,.21-1.53,.45-1.12,1.48-2.29,3.21-2.29,2.27,0,3.17,1.73,3.17,4.26v10.07h6.26v-10.79c0-5.78-3.09-8.47-7.2-8.47Z"/>
  <path d="M13.94,11.05c-2.14,0-3.54,1.41-3.54,3.25s1.36,3.25,3.46,3.25h.04c2.18,0,3.54-1.45,3.54-3.25-.04-1.85-1.36-3.25-3.5-3.25Z"/>
  <rect x="10.77" y="20.13" width="6.26" height="18.82"/>
</svg>