<?xml version="1.0" encoding="UTF-8"?>
<svg id="uuid-b2960da9-7930-4d05-a705-61d61e2c4dd6" data-name="Layer 1" xmlns="http://www.w3.org/2000/svg" width="50" height="50" viewBox="0 0 50 50">
  <path d="M25.58,12.6c-6.77,0-10.18,4.85-10.18,8.89,0,2.45,.93,4.63,2.92,5.44,.33,.13,.62,0,.71-.36,.07-.25,.22-.88,.29-1.14,.1-.36,.06-.48-.2-.79-.57-.68-.94-1.55-.94-2.79,0-3.6,2.69-6.82,7.01-6.82,3.82,0,5.93,2.34,5.93,5.46,0,4.11-1.82,7.57-4.51,7.57-1.49,0-2.6-1.23-2.25-2.74,.43-1.8,1.26-3.75,1.26-5.05,0-1.17-.62-2.14-1.92-2.14-1.52,0-2.75,1.58-2.75,3.69,0,1.34,.46,2.25,.46,2.25,0,0-1.56,6.6-1.83,7.76-.54,2.3-.08,5.13-.04,5.41,.02,.17,.24,.21,.34,.08,.14-.18,1.95-2.42,2.57-4.66,.17-.63,1-3.91,1-3.91,.49,.94,1.94,1.77,3.48,1.77,4.58,0,7.68-4.17,7.68-9.76,0-4.22-3.58-8.16-9.02-8.16Z"/>
</svg>