<?xml version="1.0" encoding="UTF-8"?>
<svg id="uuid-becdd2dd-b508-4fbe-8b5a-5178aec3420a" data-name="Layer 1" xmlns="http://www.w3.org/2000/svg" width="50" height="50" viewBox="0 0 50 50">
  <path d="M39.02,16.3c-1.03,.46-2.14,.77-3.3,.91,1.19-.71,2.1-1.84,2.53-3.18-1.11,.66-2.34,1.14-3.65,1.4-1.05-1.12-2.55-1.82-4.2-1.82-3.18,0-5.75,2.58-5.75,5.75,0,.45,.05,.89,.15,1.31-4.78-.24-9.02-2.53-11.86-6.01-.49,.85-.78,1.84-.78,2.89,0,2,1.01,3.76,2.56,4.79-.94-.03-1.83-.29-2.61-.72v.07c0,2.79,1.99,5.11,4.61,5.64-.48,.13-.99,.2-1.51,.2-.37,0-.73-.04-1.08-.1,.73,2.29,2.86,3.95,5.37,4-1.97,1.54-4.45,2.46-7.14,2.46-.46,0-.92-.03-1.37-.08,2.55,1.63,5.57,2.58,8.82,2.58,10.58,0,16.37-8.77,16.37-16.37,0-.25,0-.5-.02-.74,1.12-.81,2.1-1.82,2.87-2.98Z"/>
</svg>