<?xml version="1.0" encoding="UTF-8"?>
<svg id="uuid-c2e0a151-6811-44ed-9e05-74632e2fe496" data-name="Layer 2" xmlns="http://www.w3.org/2000/svg" width="33.86" height="23.71" viewBox="0 0 33.86 23.71">
  <g id="uuid-219ab740-5808-441a-836c-edce15e28fa6" data-name="Layer 1">
    <path d="M27.77,11.42C20.27,19.16,6.96,10.71,0,23.66c-.02.04.03.08.06.04,7.73-9.31,21.8-1.1,27.77-12.23.02-.04-.03-.09-.07-.05h0Z" fill="#fff"/>
    <path d="M30.78,5.72c-7.51,7.74-20.82-.71-27.76,12.24-.02.04.03.08.06.04,7.73-9.31,21.8-1.1,27.77-12.23.02-.04-.04-.09-.07-.05h0Z" fill="#fff"/>
    <path d="M33.78.01C26.28,7.75,12.97-.7,6.02,12.25c-.02.04.03.08.06.04C13.81,2.99,27.88,11.19,33.85.06c.02-.04-.04-.09-.07-.05h0Z" fill="#fff"/>
  </g>
</svg>