<?xml version="1.0" encoding="utf-8"?>
<!-- Generator: Adobe Illustrator 27.5.0, SVG Export Plug-In . SVG Version: 6.00 Build 0)  -->
<!DOCTYPE svg PUBLIC "-//W3C//DTD SVG 1.1//EN" "http://www.w3.org/Graphics/SVG/1.1/DTD/svg11.dtd" [
	<!ENTITY ns_extend "http://ns.adobe.com/Extensibility/1.0/">
	<!ENTITY ns_ai "http://ns.adobe.com/AdobeIllustrator/10.0/">
	<!ENTITY ns_graphs "http://ns.adobe.com/Graphs/1.0/">
	<!ENTITY ns_vars "http://ns.adobe.com/Variables/1.0/">
	<!ENTITY ns_imrep "http://ns.adobe.com/ImageReplacement/1.0/">
	<!ENTITY ns_sfw "http://ns.adobe.com/SaveForWeb/1.0/">
	<!ENTITY ns_custom "http://ns.adobe.com/GenericCustomNamespace/1.0/">
	<!ENTITY ns_adobe_xpath "http://ns.adobe.com/XPath/1.0/">
]>
<svg version="1.1" xmlns:x="&ns_extend;" xmlns:i="&ns_ai;" xmlns:graph="&ns_graphs;"
	 xmlns="http://www.w3.org/2000/svg" xmlns:xlink="http://www.w3.org/1999/xlink" x="0px" y="0px" viewBox="0 0 496 496"
	 style="enable-background:new 0 0 496 496;" xml:space="preserve">
<style type="text/css">
	.st0{fill:#FFFFFF;stroke:#B9B8B8;stroke-width:11;stroke-miterlimit:10;}
	.st1{display:none;}
	.st2{display:inline;}
	.st3{fill:#710500;}
	.st4{fill-rule:evenodd;clip-rule:evenodd;fill:#710500;}
</style>
<metadata>
	<sfw  xmlns="&ns_sfw;">
		<slices></slices>
		<sliceSourceBounds  bottomLeftOrigin="true" height="496" width="496" x="-102.2" y="-111.5"></sliceSourceBounds>
	</sfw>
</metadata>
<g id="Layer_2">
	<circle class="st0" cx="248" cy="248" r="242.5"/>
</g>
<g id="Layer_1" class="st1">
	<g id="Layer_31" class="st2">
		<g>
			<path class="st3" d="M392.5,233.6C392.5,233.2,392.5,233.2,392.5,233.6c0-0.5-0.5-0.5-0.5-0.9l-26.3-44.4v-7.7
				c0-7.7-5.9-13.6-13.6-13.6h-74.3c6.3-11.8,10.9-24,10.9-31.7c0-22.7-18.1-40.8-40.8-40.8s-40.8,18.1-40.8,40.8
				c0,7.7,4.5,19.9,10.9,31.7h-74.3c-7.7,0-13.6,5.9-13.6,13.6v7.7l-26.7,44.4v0.5v0.5c-0.5,0.5-0.5,0.9-0.5,1.4l0,0v18.1l0,0
				c0,0.5,0,0.5,0,0.9s0,0.5,0.5,0.9l0,0l17.7,35.3v53.5V380c0,2.7,1.8,4.5,4.5,4.5h81.6h81.6h81.6c2.7,0,4.5-1.8,4.5-4.5v-36.2
				v-53.5l17.7-35.3l0,0c0-0.5,0-0.5,0.5-0.9c0-0.5,0-0.5,0-0.9l0,0V235l0,0C393,234.5,393,234.1,392.5,233.6z M365.8,339.2h-72.5
				v-81.6h72.5V339.2z M370.3,248.6h-81.6h-81.6h-81.6h-13.6v-9.1h271.9v9.1H370.3z M202.7,339.2h-72.5v-81.6h72.5V339.2z
				 M248,121.7c7.7,0,13.6,5.9,13.6,13.6s-5.9,13.6-13.6,13.6s-13.6-5.9-13.6-13.6S240.3,121.7,248,121.7z M352.2,176.1
				c2.7,0,4.5,1.8,4.5,4.5v4.5h-88.8c1.8-2.7,3.6-5.9,5-9.1H352.2z M139.2,180.6c0-2.7,1.8-4.5,4.5-4.5h79.3c1.8,3.2,3.6,6.3,5,9.1
				h-88.8V180.6z M114.8,257.6h6.3v12.7L114.8,257.6z M211.8,343.7v-86.1h72.5v86.1v31.7h-72.5V343.7z M374.9,257.6h6.3l-6.3,12.7
				V257.6z"/>
			<circle class="st3" cx="270.7" cy="316.5" r="4.5"/>
		</g>
	</g>
</g>
<g id="Layer_3">
	<g>
		<path class="st4" d="M118.2,258.5c21.3,0,38.6,17.3,38.6,38.6c0,0.9,0,1.8-0.1,2.6h187c0-0.9-0.1-1.7-0.1-2.6
			c0-21.3,17.3-38.6,38.6-38.6c21.3,0,38.6,17.3,38.6,38.6c0,0.9,0,1.8-0.1,2.6h11.1c7.2,0,13.2-5.9,13.2-13.2v-33.7
			c0-7.2-6-12-13.2-13.2l-98.3-15.5l-52-42.6c-5.1-4.1-14.9-13.2-23.3-13.2H148.1c-8.6,0-14.9,0.3-23,6.2l-64.9,47.4
			c-7.5,5.5-9.1,12.3-9.1,19.4v45.1c0,7.2,5.9,13.2,13.2,13.2h15.5c0-0.9-0.1-1.7-0.1-2.6C79.6,275.8,96.9,258.5,118.2,258.5
			L118.2,258.5z M295.7,225.9h-73.2c-4.9,0-5.6-4.1-6.2-8.9l-3.7-29.2c-1-7.6-0.5-9,4.4-9h40.7c5.3,0,11.3,5.7,14.9,9l32.1,29.2
			C308.3,220.3,312.3,225.9,295.7,225.9L295.7,225.9z M200.5,225.9h-75.1c-12.9,0-12.1-5.2-9-8.9l23.8-29.2c3.1-3.8,9.6-9,14.9-9
			H194c4.9,0,5.5,3.2,6.2,9l3.7,29.2C204.5,221.8,205.4,225.9,200.5,225.9L200.5,225.9z"/>
		<path class="st4" d="M351.9,299.7c1.3,15.6,14.4,27.8,30.3,27.8c15.9,0,29-12.2,30.3-27.8c0.1-0.9,0.1-1.7,0.1-2.6
			c0-16.8-13.6-30.4-30.4-30.4c-16.8,0-30.4,13.6-30.4,30.4C351.7,298,351.8,298.9,351.9,299.7L351.9,299.7z M400.4,299.7
			c-1.3,8.9-9,15.8-18.3,15.8s-17-6.9-18.3-15.8c-0.1-0.8-0.2-1.7-0.2-2.6c0-10.2,8.3-18.4,18.5-18.4c10.2,0,18.5,8.3,18.5,18.4
			C400.6,298,400.5,298.9,400.4,299.7L400.4,299.7z"/>
		<path class="st4" d="M118.2,327.5c15.9,0,29-12.2,30.3-27.8c0.1-0.9,0.1-1.7,0.1-2.6c0-16.8-13.6-30.4-30.4-30.4
			c-16.8,0-30.4,13.6-30.4,30.4c0,0.9,0,1.8,0.1,2.6C89.2,315.3,102.3,327.5,118.2,327.5L118.2,327.5z M136.4,299.7
			c-1.3,8.9-9,15.8-18.3,15.8c-9.3,0-17-6.9-18.3-15.8c-0.1-0.8-0.2-1.7-0.2-2.6c0-10.2,8.3-18.4,18.5-18.4
			c10.2,0,18.5,8.3,18.5,18.4C136.6,298,136.6,298.9,136.4,299.7L136.4,299.7z"/>
	</g>
</g>
</svg>
