<?xml version="1.0" encoding="UTF-8"?>
<svg id="uuid-b987bf56-1aea-421e-9073-0ca520cbf2c1" data-name="Layer 2" xmlns="http://www.w3.org/2000/svg" width="54.93" height="33.5" viewBox="0 0 54.93 33.5">
  <g id="uuid-1b97e58c-01ef-4892-81ad-7283aa18945f" data-name="Layer 1">
    <path d="M51.31,31.64c-.74-.36-1.16-.82-1.36-1.41,0-.09-.03-.17-.03-.27V0h-2.43L28.69,28.57V0h-2.43L7.48,28.57c-.45,.64-1.43,2.69-4.27,3.44-.79,.2-3.21,.43-3.21,.42v1.08H15.98v-1.08c-.9-.11-1.81-.2-2.7-.38-.81-.16-1.62-.37-2.38-.69-.6-.25-1.01-.55-1.12-1.23-.07-.45,.07-.87,.31-1.25,1.37-2.16,11.89-18.78,11.89-18.78v23.39h6.39l14.83-23.43V29.51c0,.89-.48,1.57-1.25,2.1-.07,.04-.13,.09-.21,.13-.69,.34-3.24,.59-4.12,.69v1.08h17.31v-1.08c-.88-.1-3.09-.49-3.63-.79Z" fill="#231f20"/>
  </g>
</svg>