<?xml version="1.0" encoding="utf-8"?>
<!-- Generator: Adobe Illustrator 28.1.0, SVG Export Plug-In . SVG Version: 6.00 Build 0)  -->
<!DOCTYPE svg PUBLIC "-//W3C//DTD SVG 1.1//EN" "http://www.w3.org/Graphics/SVG/1.1/DTD/svg11.dtd" [
	<!ENTITY ns_extend "http://ns.adobe.com/Extensibility/1.0/">
	<!ENTITY ns_ai "http://ns.adobe.com/AdobeIllustrator/10.0/">
	<!ENTITY ns_graphs "http://ns.adobe.com/Graphs/1.0/">
	<!ENTITY ns_vars "http://ns.adobe.com/Variables/1.0/">
	<!ENTITY ns_imrep "http://ns.adobe.com/ImageReplacement/1.0/">
	<!ENTITY ns_sfw "http://ns.adobe.com/SaveForWeb/1.0/">
	<!ENTITY ns_custom "http://ns.adobe.com/GenericCustomNamespace/1.0/">
	<!ENTITY ns_adobe_xpath "http://ns.adobe.com/XPath/1.0/">
]>
<svg version="1.1"
	 id="Layer_2_00000152226030202163874900000000949978277197078455_" xmlns:x="&ns_extend;" xmlns:i="&ns_ai;" xmlns:graph="&ns_graphs;"
	 xmlns="http://www.w3.org/2000/svg" xmlns:xlink="http://www.w3.org/1999/xlink" x="0px" y="0px" viewBox="0 0 317 221"
	 style="enable-background:new 0 0 317 221;" xml:space="preserve">
<style type="text/css">
	.st0{fill:#FFFFFF;}
</style>
<metadata>
	<sfw  xmlns="&ns_sfw;">
		<slices></slices>
		<sliceSourceBounds  bottomLeftOrigin="true" height="218.9" width="219" x="48.6" y="0.9"></sliceSourceBounds>
	</sfw>
</metadata>
<path class="st0" d="M158,1.2c-29.7,0-33.4,0.1-45.1,0.7C101.3,2.4,93.3,4.3,86.4,7c-7.3,2.7-14,7-19.4,12.6
	c-5.6,5.5-9.9,12.1-12.6,19.4c-2.7,6.9-4.6,14.9-5.1,26.5c-0.5,11.7-0.7,15.4-0.7,45.1s0.1,33.4,0.7,45.1
	c0.5,11.6,2.4,19.6,5.1,26.6c2.8,7.2,6.5,13.3,12.6,19.4c6.1,6.1,12.2,9.8,19.4,12.6c7,2.7,14.9,4.6,26.6,5.1s15.4,0.7,45.1,0.7
	s33.4-0.1,45.1-0.7c11.6-0.5,19.6-2.4,26.6-5.1c7.3-2.7,13.9-7.1,19.4-12.6c6.1-6.1,9.8-12.2,12.6-19.4c2.7-7,4.5-14.9,5.1-26.6
	c0.5-11.7,0.7-15.4,0.7-45.1s-0.1-33.4-0.7-45.1c-0.5-11.6-2.4-19.6-5.1-26.5c-2.7-7.3-7.1-13.9-12.6-19.4
	C243.6,14,236.9,9.7,229.6,7c-7-2.7-14.9-4.6-26.6-5.1C191.4,1.4,187.7,1.2,158,1.2L158,1.2L158,1.2z M148.2,21h9.8
	c29.2,0,32.7,0.1,44.2,0.6c10.7,0.5,16.5,2.3,20.3,3.8c5.1,2,8.8,4.4,12.6,8.2s6.2,7.5,8.2,12.6c1.5,3.8,3.3,9.6,3.8,20.3
	c0.5,11.5,0.6,15,0.6,44.2s-0.1,32.7-0.6,44.2c-0.5,10.7-2.3,16.4-3.8,20.3c-1.8,4.7-4.6,9-8.2,12.6c-3.8,3.8-7.5,6.2-12.6,8.2
	c-3.8,1.5-9.6,3.3-20.3,3.8c-11.5,0.5-15,0.6-44.2,0.6s-32.7-0.1-44.2-0.6c-10.7-0.5-16.4-2.3-20.3-3.8c-4.8-1.8-9-4.5-12.6-8.2
	c-3.6-3.5-6.4-7.8-8.2-12.6c-1.5-3.8-3.3-9.6-3.8-20.3c-0.5-11.5-0.6-15-0.6-44.2s0.1-32.6,0.6-44.2c0.5-10.7,2.3-16.5,3.8-20.3
	c2-5.1,4.4-8.8,8.2-12.6c3.8-3.8,7.5-6.2,12.6-8.2c3.9-1.5,9.6-3.3,20.3-3.8C123.9,21.1,127.8,20.9,148.2,21
	C148.2,20.9,148.2,21,148.2,21z M216.4,39.1c-7.2,0-13.1,5.9-13.1,13.1s5.9,13.1,13.1,13.1l0,0c7.2,0,13.1-5.9,13.1-13.1
	S223.6,39.1,216.4,39.1z M158,54.5c-31-0.5-56.6,24.3-57,55.3c-0.5,31,24.3,56.6,55.3,57c0.6,0,1.2,0,1.8,0c31-0.5,55.8-26,55.3-57
	C212.8,79.4,188.4,54.9,158,54.5z M158,74.2c20.1,0,36.5,16.3,36.5,36.4s-16.3,36.5-36.4,36.5l0,0c-20.1,0-36.5-16.3-36.5-36.5
	S137.9,74.2,158,74.2z"/>
</svg>
