<?xml version="1.0" encoding="UTF-8"?>
<svg id="uuid-f679d984-2abb-4d91-ac9d-269700e9ca10" data-name="Layer 2" xmlns="http://www.w3.org/2000/svg" width="26.32" height="26.34" viewBox="0 0 26.32 26.34">
  <g id="uuid-2549a454-4fcf-46e2-bf59-9fbe4e2acc8b" data-name="icons">
    <path d="M10.73,0C4.82,0,0,4.82,0,10.74s4.82,10.74,10.73,10.74c2.6,0,4.98-.93,6.84-2.47l7.04,7.04c.2.2.45.29.71.29s.51-.1.71-.29c.39-.39.39-1.02,0-1.41l-7.04-7.04c1.55-1.86,2.48-4.25,2.48-6.86C21.47,4.82,16.65,0,10.73,0ZM10.73,19.47c-4.82,0-8.73-3.92-8.73-8.74S5.92,2,10.73,2s8.74,3.92,8.74,8.74-3.92,8.74-8.74,8.74Z" fill="#262626"/>
  </g>
</svg>