<?xml version="1.0" encoding="UTF-8"?>
<svg xmlns="http://www.w3.org/2000/svg">
	<symbol id="x-the-everything-app" viewBox="0 0 100 100">
		<path d="M57.32,43.99l28.6-33.22h-6.77s-24.83,28.84-24.83,28.84l-19.81-28.86H11.64s29.96,43.63,29.96,43.63l-29.99,34.83h6.77s26.22-30.46,26.22-30.46l20.93,30.47h22.86s-31.08-45.25-31.08-45.25h0ZM48.04,54.78l-3.04-4.35L20.85,15.85h10.4s19.49,27.91,19.49,27.91l3.04,4.35,25.34,36.27h-10.4s-20.68-29.6-20.68-29.6h0Z"/>
	</symbol>
	<symbol id="linkedin" viewBox="0 0 100 100">
		 <path d="M11.9,36.7h15.65v49.79h-15.65v-49.79Z"/>
 		 <path d="M19.45,13.32c-5.66,0-9.43,3.77-9.43,8.68s3.58,8.68,9.24,8.68h.19c5.85,0,9.43-3.77,9.43-8.68-.19-5.09-3.77-8.68-9.43-8.68Z"/>
  		<path d="M69.99,36.33c-8.86,0-14.52,4.9-15.47,8.3v-7.92h-17.54c.19,4.15,0,49.79,0,49.79h17.54v-26.78c0-1.51,0-3.02.38-4.15,1.13-3.02,3.77-6.04,8.49-6.04,6.04,0,8.86,4.53,8.86,11.32v25.84h17.73v-27.72c-.19-15.47-8.86-22.63-19.99-22.63Z"/>
	</symbol>
	<symbol id="facebook" viewBox="0 0 100 100">
		<path d="M68.55,35.94h-12.64v-8.29c0-3.11,2.07-3.84,3.52-3.84h8.91v-13.68l-12.28-.05c-13.63,0-16.73,10.2-16.73,16.73v9.12h-7.88v14.09h7.88v39.89h16.58v-39.89h11.19l1.45-14.09Z"/>
	</symbol>	
	<symbol id="instagram" viewBox="0 0 100 100">
		<path d="M50,17.21c10.48,0,11.72.04,15.85.23,3.83.18,5.9.83,7.29,1.38,1.83.73,3.14,1.59,4.51,2.99,1.37,1.4,2.22,2.73,2.94,4.6.54,1.41,1.18,3.53,1.35,7.43.19,4.22.23,5.48.23,16.16s-.04,11.95-.23,16.16c-.17,3.9-.81,6.02-1.35,7.43-.71,1.87-1.56,3.2-2.94,4.6s-2.68,2.27-4.51,2.99c-1.38.55-3.46,1.2-7.29,1.38-4.14.19-5.38.23-15.85.23s-11.72-.04-15.85-.23c-3.83-.18-5.9-.83-7.29-1.38-1.83-.73-3.14-1.59-4.51-2.99-1.37-1.4-2.22-2.73-2.94-4.6-.54-1.41-1.18-3.53-1.35-7.43-.19-4.22-.23-5.48-.23-16.16s.04-11.95.23-16.16c.17-3.9.81-6.02,1.35-7.43.71-1.87,1.56-3.2,2.94-4.6,1.37-1.4,2.68-2.27,4.51-2.99,1.38-.55,3.46-1.2,7.29-1.38,4.14-.19,5.38-.23,15.85-.23M50,10c-10.66,0-11.99.05-16.18.24-4.18.19-7.03.87-9.52,1.86-2.58,1.02-4.77,2.39-6.95,4.61-2.18,2.22-3.52,4.45-4.53,7.08-.97,2.54-1.63,5.45-1.82,9.71-.19,4.27-.24,5.63-.24,16.49s.05,12.23.24,16.49c.19,4.26.85,7.17,1.82,9.71,1,2.63,2.34,4.86,4.53,7.08,2.18,2.22,4.37,3.59,6.95,4.61,2.5.99,5.35,1.67,9.52,1.86,4.18.19,5.52.24,16.18.24s11.99-.05,16.18-.24c4.18-.19,7.03-.87,9.52-1.86,2.58-1.02,4.77-2.39,6.95-4.61,2.18-2.22,3.52-4.45,4.53-7.08.97-2.54,1.63-5.45,1.82-9.71.19-4.27.24-5.63.24-16.49s-.05-12.23-.24-16.49c-.19-4.26-.85-7.17-1.82-9.71-1-2.63-2.34-4.86-4.53-7.08-2.18-2.22-4.37-3.59-6.95-4.61-2.5-.99-5.35-1.67-9.52-1.86-4.18-.19-5.52-.24-16.18-.24h0Z"/>
		<path d="M50,29.46c-11.13,0-20.15,9.2-20.15,20.54s9.02,20.54,20.15,20.54,20.15-9.2,20.15-20.54-9.02-20.54-20.15-20.54ZM50,63.33c-7.22,0-13.08-5.97-13.08-13.33s5.86-13.33,13.08-13.33,13.08,5.97,13.08,13.33-5.86,13.33-13.08,13.33Z"/>
		<ellipse cx="70.94" cy="28.65" rx="4.71" ry="4.8"/>	
	</symbol>
	<symbol id="youtube" viewBox="0 0 100 100">
		<path d="M65.53,50.04l-26.2,15.39v-30.78l26.2,15.39ZM90.01,64.31v-28.61s0-13.79-13.79-13.79H23.77s-13.78,0-13.78,13.79v28.61s0,13.79,13.78,13.79h52.44s13.79,0,13.79-13.79"/>
	</symbol>
	<symbol id="tiktok" viewBox="0 0 100 100">
		<path d="M65.63,10c1.32,11.35,7.66,18.12,18.67,18.84v12.77c-6.38.62-11.98-1.46-18.48-5.4v23.88c0,30.34-33.07,39.81-46.37,18.07-8.55-14-3.31-38.55,24.09-39.53v13.46c-2.09.33-4.32.87-6.36,1.56-6.09,2.07-9.55,5.93-8.6,12.75,1.85,13.06,25.8,16.92,23.81-8.6V10.02h13.23s0-.02,0-.02Z"/>
	</symbol>
	<symbol id="email" viewBox="0 0 100 100">
		<path d="M50.09,50.37l39.38-25.63c-1.3-2.6-4.09-4.46-7.24-4.46H17.96c-3.34,0-6.13,1.86-7.43,4.46l39.57,25.63Z"/>
		<path d="M51.76,55.94c-.56.37-1.11.56-1.67.56s-1.11-.19-1.67-.56L9.97,31.05v41.24c0,4.09,3.53,7.43,7.99,7.43h64.08c4.46,0,7.99-3.34,7.99-7.43V31.05l-38.26,24.89Z"/>
	</symbol>
</svg>