<?xml version="1.0" encoding="UTF-8"?>
<svg id="uuid-082dc441-0d9a-4e9f-ac7f-dac047b09275" data-name="Layer 2" xmlns="http://www.w3.org/2000/svg" width="538.31" height="379.76" viewBox="0 0 538.31 379.76">
  <g>
    <path d="m286.96,209.83l-154.47-8.1c4.29-81.9,72.46-146.59,154.47-146.59v154.68Z" fill="#1e325a" stroke="#fff" stroke-miterlimit="10" stroke-width="4"/>
    <path d="m286.96,209.83V55.15c85.43,0,154.68,69.25,154.68,154.68s-69.25,154.68-154.68,154.68-154.68-69.25-154.68-154.68c0-3.42.03-4.68.21-8.1l154.47,8.1Z" fill="#6693b2" stroke="#fff" stroke-miterlimit="10" stroke-width="4"/>
    <polyline points="507.53 124.58 436.7 124.58 404.19 157.1" fill="none" stroke="#000" stroke-miterlimit="10"/>
    <polyline points="113.8 91.75 166.6 91.75 199.12 124.27" fill="none" stroke="#000" stroke-miterlimit="10"/>
    <g>
      <path d="m122.72,86.31v-12.33h3.47l2.75,9.63,2.75-9.63h3.49v12.33h-2.02v-10.12h-.27l-2.92,9.61h-2.09l-2.92-9.61h-.27v10.12h-2Z"/>
      <path d="m144.45,80.09v4.1c.01.26.08.46.21.58s.32.21.58.24l-.05,1.49c-1.03,0-1.83-.22-2.39-.67-.96.44-1.93.67-2.9.67-1.79,0-2.68-.95-2.68-2.86,0-.91.24-1.57.73-1.98.49-.41,1.23-.65,2.24-.74l2.32-.2v-.65c0-.48-.11-.82-.32-1.01s-.52-.29-.93-.29c-.77,0-1.73.05-2.88.14l-.58.04-.07-1.39c1.31-.31,2.51-.47,3.61-.47s1.89.24,2.38.71.73,1.23.73,2.26Zm-4.03,2.23c-.83.07-1.24.52-1.24,1.35s.37,1.24,1.1,1.24c.6,0,1.24-.1,1.91-.29l.32-.11v-2.39l-2.09.2Z"/>
      <path d="m147.02,86.31v-12.74h1.96v12.74h-1.96Z"/>
      <path d="m157.88,84.69l.5-.05.04,1.46c-1.37.28-2.58.41-3.64.41-1.33,0-2.29-.37-2.87-1.1s-.87-1.9-.87-3.51c0-3.19,1.3-4.79,3.91-4.79s3.78,1.37,3.78,4.12l-.13,1.4h-5.58c.01.74.17,1.29.49,1.64.31.35.89.52,1.75.52s1.73-.04,2.63-.11Zm-1.08-3.56c0-.89-.14-1.51-.42-1.86s-.76-.53-1.43-.53-1.16.19-1.47.56c-.31.37-.47.98-.48,1.84h3.8Z"/>
    </g>
    <g>
      <path d="m446.25,118.61v-12.33h7.65v1.75h-5.65v4.16h4.7v1.75h-4.7v4.68h-2Z"/>
      <path d="m461.64,116.99l.5-.05.04,1.46c-1.37.28-2.58.41-3.64.41-1.33,0-2.29-.37-2.87-1.1s-.87-1.9-.87-3.51c0-3.19,1.3-4.79,3.91-4.79s3.78,1.37,3.78,4.12l-.13,1.4h-5.58c.01.74.17,1.29.49,1.64.31.35.89.52,1.75.52s1.73-.04,2.63-.11Zm-1.08-3.56c0-.89-.14-1.51-.42-1.86s-.76-.53-1.43-.53-1.16.19-1.47.56c-.31.37-.47.98-.48,1.84h3.8Z"/>
      <path d="m466.34,118.61h-1.96v-9h1.94v.56c.85-.5,1.63-.76,2.34-.76,1.04,0,1.81.29,2.29.88,1.09-.59,2.18-.88,3.26-.88s1.84.33,2.29,1,.67,1.79.67,3.38v4.82h-1.94v-4.77c0-.97-.1-1.66-.3-2.07-.2-.41-.61-.61-1.23-.61-.54,0-1.12.12-1.75.36l-.31.13c.1.24.14,1.01.14,2.3v4.66h-1.94v-4.63c0-1.07-.1-1.81-.29-2.21-.19-.41-.61-.61-1.26-.61-.6,0-1.16.12-1.67.36l-.27.11v6.98Z"/>
      <path d="m486.12,112.38v4.1c.01.26.08.46.21.58s.32.21.58.24l-.05,1.49c-1.03,0-1.83-.22-2.39-.67-.96.44-1.93.67-2.9.67-1.79,0-2.68-.95-2.68-2.86,0-.91.24-1.57.73-1.98.49-.41,1.23-.65,2.24-.74l2.32-.2v-.65c0-.48-.11-.82-.32-1.01s-.52-.29-.93-.29c-.77,0-1.73.05-2.88.14l-.58.04-.07-1.39c1.31-.31,2.51-.47,3.61-.47s1.89.24,2.38.71.73,1.23.73,2.26Zm-4.03,2.23c-.83.07-1.24.52-1.24,1.35s.37,1.24,1.1,1.24c.6,0,1.24-.1,1.91-.29l.32-.11v-2.39l-2.09.2Z"/>
      <path d="m488.69,118.61v-12.74h1.96v12.74h-1.96Z"/>
      <path d="m499.55,116.99l.5-.05.04,1.46c-1.37.28-2.58.41-3.64.41-1.33,0-2.29-.37-2.87-1.1s-.87-1.9-.87-3.51c0-3.19,1.3-4.79,3.91-4.79s3.78,1.37,3.78,4.12l-.13,1.4h-5.58c.01.74.17,1.29.49,1.64.31.35.89.52,1.75.52s1.73-.04,2.63-.11Zm-1.08-3.56c0-.89-.14-1.51-.42-1.86s-.76-.53-1.43-.53-1.16.19-1.47.56c-.31.37-.47.98-.48,1.84h3.8Z"/>
    </g>
  </g>
  <g>
    <path d="m462.59,132.39v-.78h5.7v1.23l-3.63,8.15-.83-.28,3.57-7.95v-.36h-4.82Z"/>
    <path d="m476.02,132.39c-.81-.09-1.63-.14-2.44-.14s-1.45.3-1.91.89-.69,1.44-.69,2.56l.36-.14c.79-.3,1.49-.45,2.09-.45,2.05,0,3.08.94,3.08,2.83,0,.97-.28,1.72-.83,2.25-.55.53-1.34.8-2.37.8-2.16,0-3.23-1.6-3.23-4.82,0-1.61.31-2.79.93-3.56.62-.77,1.49-1.15,2.61-1.15.63,0,1.34.06,2.11.17l.36.04-.08.71Zm-2.65,3.49c-.34,0-.71.05-1.11.15-.4.1-.72.2-.95.3l-.35.15c.03,2.48.81,3.72,2.35,3.72.75,0,1.32-.19,1.71-.58.39-.39.59-.94.59-1.66,0-1.39-.75-2.09-2.24-2.09Z"/>
    <path d="m479.11,131.46c1,0,1.5.64,1.5,1.92,0,.65-.13,1.14-.4,1.47-.27.33-.63.49-1.1.49s-.83-.16-1.1-.49c-.27-.33-.4-.82-.4-1.48,0-1.27.5-1.9,1.5-1.9Zm-.78,1.9c0,.91.26,1.36.78,1.36.29,0,.49-.11.62-.33.12-.22.18-.56.18-1.01s-.06-.78-.18-.99c-.12-.21-.32-.31-.61-.31s-.49.1-.61.31c-.12.21-.18.53-.18.97Zm1.11,7.52l2.77-9.51.59.18-2.77,9.49-.59-.17Zm2.13-1.88c0-1.27.5-1.9,1.5-1.9s1.5.64,1.5,1.92c0,.65-.14,1.14-.41,1.47-.27.33-.64.49-1.11.49s-.83-.16-1.1-.49c-.27-.33-.4-.82-.4-1.48Zm.71,0c0,.91.26,1.36.79,1.36s.79-.45.79-1.34c0-.45-.06-.78-.18-.99s-.32-.31-.61-.31-.49.1-.61.31c-.12.21-.18.53-.18.98Z"/>
  </g>
  <g>
    <path d="m135.84,106.86h-5.89v-.73l2.88-3.05c.47-.49.8-.87,1.01-1.11.21-.25.4-.55.57-.9.17-.35.26-.71.26-1.08,0-.62-.18-1.07-.53-1.33-.35-.26-.89-.39-1.62-.39-.62,0-1.3.08-2.06.25l-.38.08-.07-.74c.88-.25,1.78-.38,2.71-.38s1.63.19,2.11.58.72,1.01.72,1.85c0,.64-.15,1.2-.44,1.68s-.77,1.06-1.46,1.74l-2.69,2.77h4.84v.76Z"/>
    <path d="m141.98,106.86v-1.88h-4.62v-.67l2.72-6.69h.95l-2.73,6.59h3.68v-2.95h.87v2.95h1.25v.77h-1.25v1.88h-.87Z"/>
    <path d="m146.59,97.48c1,0,1.5.64,1.5,1.92,0,.65-.13,1.14-.4,1.47-.27.33-.63.49-1.1.49s-.83-.16-1.1-.49c-.27-.33-.4-.82-.4-1.48,0-1.27.5-1.9,1.5-1.9Zm-.79,1.9c0,.91.26,1.36.79,1.36.29,0,.49-.11.62-.33s.18-.56.18-1.01-.06-.78-.18-.99c-.12-.21-.32-.31-.61-.31s-.49.1-.61.31c-.12.21-.18.53-.18.97Zm1.11,7.52l2.77-9.51.59.18-2.77,9.49-.59-.17Zm2.13-1.88c0-1.27.5-1.9,1.51-1.9s1.5.64,1.5,1.92c0,.65-.13,1.14-.41,1.47-.27.33-.64.49-1.11.49s-.83-.16-1.1-.49c-.27-.33-.4-.82-.4-1.48Zm.71,0c0,.91.26,1.36.79,1.36s.79-.45.79-1.34c0-.45-.06-.78-.18-.99s-.32-.31-.61-.31-.49.1-.61.31c-.12.21-.18.53-.18.98Z"/>
  </g>
</svg>