<?xml version="1.0" encoding="UTF-8"?>
<svg id="uuid-69edd5ca-2fd7-47bb-a075-fa1a964b0b29" data-name="Layer 2" xmlns="http://www.w3.org/2000/svg" width="22.5" height="40.5" viewBox="0 0 22.5 40.5">
  <g id="uuid-f78072b7-3e73-40fc-a154-4fdeed42d942" data-name="Layer 1">
    <g>
      <line x1="2.5" y1="2.5" x2="20" y2="20" fill="#231f20" stroke-width="0"/>
      <path d="m20,22.5c-.64,0-1.28-.24-1.77-.73L.73,4.27C-.24,3.29-.24,1.71.73.73,1.71-.24,3.29-.24,4.27.73l17.5,17.5c.98.98.98,2.56,0,3.54-.49.49-1.13.73-1.77.73Z" fill="#fff" stroke-width="0"/>
    </g>
    <g>
      <line x1="2.5" y1="38" x2="20" y2="20.5" fill="#231f20" stroke-width="0"/>
      <path d="m2.5,40.5c-.64,0-1.28-.24-1.77-.73-.98-.98-.98-2.56,0-3.54l17.5-17.5c.98-.98,2.56-.98,3.54,0s.98,2.56,0,3.54L4.27,39.77c-.49.49-1.13.73-1.77.73Z" fill="#fff" stroke-width="0"/>
    </g>
  </g>
</svg>