<?xml version="1.0" encoding="UTF-8"?>
<svg id="uuid-0ece2551-09e7-4892-b83c-9d6e88081991" data-name="Layer 2" xmlns="http://www.w3.org/2000/svg" width="22.5" height="40.5" viewBox="0 0 22.5 40.5">
  <g id="uuid-9bf60b2a-696b-4088-b753-20a792204aab" data-name="Layer 1">
    <g>
      <line x1="20" y1="38" x2="2.5" y2="20.5" fill="#231f20" stroke-width="0"/>
      <path d="m2.5,18c.64,0,1.28.24,1.77.73l17.5,17.5c.98.98.98,2.56,0,3.54-.98.98-2.56.98-3.54,0L.73,22.27c-.98-.98-.98-2.56,0-3.54.49-.49,1.13-.73,1.77-.73Z" fill="#fff" stroke-width="0"/>
    </g>
    <g>
      <line x1="20" y1="2.5" x2="2.5" y2="20" fill="#231f20" stroke-width="0"/>
      <path d="m20,0c.64,0,1.28.24,1.77.73.98.98.98,2.56,0,3.54L4.27,21.77c-.98.98-2.56.98-3.54,0s-.98-2.56,0-3.54L18.23.73c.49-.49,1.13-.73,1.77-.73Z" fill="#fff" stroke-width="0"/>
    </g>
  </g>
</svg>