<?xml version="1.0" encoding="utf-8"?>
<!-- Generator: Adobe Illustrator 21.0.0, SVG Export Plug-In . SVG Version: 6.00 Build 0)  -->
<svg version="1.1" id="Layer_1" xmlns="http://www.w3.org/2000/svg" xmlns:xlink="http://www.w3.org/1999/xlink" x="0px" y="0px"
	 viewBox="0 0 119.4 119.4" style="enable-background:new 0 0 119.4 119.4;" xml:space="preserve">
<style type="text/css">
	.st0{fill:#1F355E;}
	.st1{fill:#FFFFFF;}
	.st2{fill:none;stroke:#FFFFFF;stroke-width:1.4267;stroke-miterlimit:10;}
</style>
<g>
	<circle class="st0" cx="59.7" cy="59.7" r="59.7"/>
	<g>
		<path class="st1" d="M13.9,38.6c0.1-0.1,0.2-0.1,0.3-0.1c0.1,0,0.2,0.1,0.2,0.2c0,0.1,0,0.2,0,0.2c0,0-0.1,0.1-0.1,0.2
			c-0.1,0.1-0.1,0.2-0.2,0.3c-0.1,0.3-0.1,0.5,0,0.9c0.1,0.3,0.3,0.6,0.5,0.9c0.2,0.3,0.5,0.5,0.8,0.6l2.5,1.1
			c0.1,0,0.2,0.1,0.2,0.2c0,0.1,0,0.2,0,0.3c0,0.1-0.1,0.2-0.2,0.2c-0.1,0-0.2,0-0.3,0l-4.6-1.9c-0.1,0-0.2-0.1-0.2-0.2
			c0-0.1,0-0.2,0-0.3c0-0.1,0.1-0.2,0.2-0.2c0.1,0,0.2,0,0.3,0l0.9,0.4c-0.3-0.3-0.5-0.7-0.7-1.1s-0.1-0.9,0.1-1.3
			C13.7,38.8,13.8,38.7,13.9,38.6z"/>
		<path class="st1" d="M14.3,35.8c-0.1,0-0.2,0-0.3,0l-0.1-0.1c-0.1-0.1-0.2-0.1-0.2-0.3c0-0.1,0-0.2,0.1-0.4
			c0.1-0.3,0.3-0.3,0.6-0.2l0.1,0.1c0.1,0.1,0.2,0.1,0.2,0.2c0,0.1,0,0.2-0.1,0.3C14.5,35.7,14.4,35.7,14.3,35.8z M20.3,38.3
			c0,0.1,0,0.2,0,0.3c0,0.1-0.1,0.1-0.2,0.2c-0.1,0-0.2,0-0.3,0l-4.5-2.4c-0.1,0-0.1-0.1-0.2-0.2c0-0.1,0-0.2,0-0.3
			c0-0.1,0.1-0.1,0.2-0.2c0.1,0,0.2,0,0.3,0l4.5,2.4C20.2,38.2,20.3,38.2,20.3,38.3z"/>
		<path class="st1" d="M20.6,35.7c-0.1-0.1-0.1-0.1-0.1-0.2c0-0.1,0-0.1,0-0.2c0.1-0.1,0.1-0.1,0.2-0.1c0.7,0,1.3-0.4,1.7-1
			c0.2-0.3,0.3-0.6,0.3-0.9c0-0.3-0.1-0.6-0.4-0.7c-0.3-0.2-0.5-0.2-0.8-0.1c-0.3,0.1-0.6,0.3-0.9,0.6c-0.5,0.4-0.9,0.7-1.3,0.9
			C19,34,18.6,34,18.2,33.7c-0.3-0.2-0.4-0.4-0.5-0.7c-0.1-0.3-0.1-0.6-0.1-0.9c0.1-0.3,0.2-0.6,0.4-0.9c0.2-0.3,0.4-0.5,0.7-0.7
			c0.3-0.2,0.6-0.3,0.9-0.4c0.1,0,0.2,0,0.2,0c0.1,0.1,0.1,0.1,0.1,0.2c0,0.1,0,0.1-0.1,0.2c0,0.1-0.1,0.1-0.2,0.1
			c-0.3,0-0.5,0.1-0.7,0.3c-0.2,0.1-0.4,0.3-0.6,0.6c-0.2,0.3-0.3,0.6-0.3,0.9c0,0.3,0.1,0.5,0.4,0.7c0.3,0.2,0.5,0.2,0.8,0
			c0.3-0.1,0.6-0.4,1-0.7c0.3-0.3,0.6-0.5,0.8-0.6c0.2-0.1,0.5-0.2,0.8-0.2c0.3,0,0.5,0.1,0.8,0.3c0.4,0.3,0.6,0.6,0.6,1.1
			c0,0.5-0.1,1-0.5,1.4c-0.5,0.8-1.2,1.2-2,1.2C20.7,35.7,20.6,35.7,20.6,35.7z"/>
		<path class="st1" d="M26.3,25.6c0,0.1,0,0.2-0.1,0.2l-2.8,3.1c0.3,0.3,0.7,0.5,1.1,0.6c0.4,0.1,0.8,0.1,1.1,0
			c0.4-0.1,0.7-0.3,1-0.7c0.2-0.3,0.4-0.5,0.5-0.9c0.1-0.3,0.1-0.6,0-0.9c0-0.1,0-0.2,0.1-0.2c0-0.1,0.1-0.1,0.2-0.1s0.2,0,0.2,0.1
			c0.1,0.1,0.1,0.1,0.1,0.2c0.1,0.4,0,0.8-0.1,1.1c-0.1,0.4-0.3,0.7-0.6,1c-0.4,0.4-0.8,0.7-1.3,0.9c-0.5,0.2-1,0.2-1.4,0.1
			c-0.5-0.1-0.9-0.4-1.4-0.8c-0.4-0.4-0.8-0.9-0.9-1.3c-0.2-0.5-0.2-1-0.1-1.4c0.1-0.5,0.3-0.9,0.6-1.2c0.3-0.3,0.7-0.6,1.1-0.7
			s0.9-0.2,1.3-0.1c0.5,0.1,0.9,0.3,1.3,0.7C26.3,25.4,26.3,25.5,26.3,25.6z M22.5,27.1c0,0.5,0.1,0.9,0.5,1.4l2.6-2.8l-0.1-0.1
			c-0.3-0.2-0.6-0.3-0.9-0.3c-0.3,0-0.6,0-0.9,0.1c-0.3,0.1-0.5,0.3-0.7,0.5C22.7,26.2,22.5,26.6,22.5,27.1z"/>
		<path class="st1" d="M34.3,16.2c0.1,0,0.2,0.1,0.2,0.2l2.7,4.2c0.1,0.1,0.1,0.2,0.1,0.3c0,0.1-0.1,0.2-0.1,0.2
			C37.1,21,37,21,36.9,21c-0.1,0-0.2-0.1-0.2-0.1l-0.4-0.6c0,0.4-0.1,0.8-0.2,1.2c-0.2,0.4-0.5,0.7-0.8,1c-0.4,0.3-0.9,0.4-1.3,0.4
			c-0.5,0-0.9-0.1-1.4-0.4c-0.4-0.3-0.8-0.6-1.1-1.1c-0.3-0.5-0.5-1-0.5-1.5c-0.1-0.5,0-1,0.2-1.4s0.5-0.8,0.9-1
			c0.4-0.2,0.8-0.4,1.2-0.4c0.4,0,0.8,0.1,1.2,0.2l-0.4-0.6c-0.1-0.1-0.1-0.2-0.1-0.3c0-0.1,0.1-0.2,0.1-0.2
			C34.1,16.2,34.2,16.2,34.3,16.2z M35.6,21c0.1-0.3,0.2-0.7,0.1-1.1c-0.1-0.4-0.2-0.8-0.4-1.2c-0.2-0.4-0.5-0.6-0.9-0.8
			c-0.3-0.2-0.7-0.3-1.1-0.3c-0.4,0-0.7,0.1-1,0.3c-0.3,0.2-0.6,0.5-0.7,0.8c-0.1,0.3-0.2,0.7-0.2,1.1s0.2,0.8,0.4,1.1
			c0.2,0.4,0.5,0.7,0.9,0.9c0.3,0.2,0.7,0.3,1.1,0.3c0.4,0,0.7-0.1,1-0.3C35.2,21.6,35.5,21.3,35.6,21z"/>
		<path class="st1" d="M41.2,13c0.5,0.1,0.9,0.3,1.3,0.6c0.4,0.3,0.7,0.7,0.9,1.3c0.2,0.5,0.3,1,0.3,1.5c0,0.5-0.2,1-0.4,1.4
			s-0.6,0.7-1.1,0.9c-0.4,0.2-0.8,0.2-1.2,0.2c-0.4,0-0.8-0.2-1.1-0.4l0.3,0.7c0,0.1,0,0.2,0,0.3c0,0.1-0.1,0.1-0.2,0.2
			c-0.1,0-0.2,0-0.3,0c-0.1,0-0.1-0.1-0.2-0.2l-3-6.9c0-0.1,0-0.2,0-0.3c0-0.1,0.1-0.1,0.2-0.2c0.1,0,0.2,0,0.3,0
			c0.1,0,0.1,0.1,0.2,0.2l1.3,3c0-0.4,0.2-0.8,0.4-1.1c0.2-0.4,0.6-0.6,1-0.8C40.3,13,40.7,12.9,41.2,13z M42.7,17.4
			c0.2-0.3,0.3-0.7,0.3-1.1c0-0.4-0.1-0.8-0.2-1.2c-0.2-0.4-0.4-0.7-0.7-1s-0.6-0.4-1-0.5c-0.4-0.1-0.7,0-1.1,0.1
			c-0.4,0.2-0.6,0.4-0.9,0.7c-0.2,0.3-0.3,0.7-0.3,1c0,0.4,0.1,0.8,0.2,1.2c0.2,0.4,0.4,0.7,0.7,1c0.3,0.3,0.6,0.4,1,0.5
			c0.4,0.1,0.7,0,1.1-0.1C42.2,17.9,42.5,17.7,42.7,17.4z"/>
		<path class="st1" d="M51.1,14.3c-0.1,0.5-0.4,0.9-0.7,1.3c-0.4,0.4-0.8,0.6-1.3,0.7c-0.5,0.1-1,0.1-1.5,0
			c-0.5-0.1-0.9-0.4-1.2-0.8s-0.6-0.8-0.7-1.4c-0.1-0.5-0.1-1.1,0-1.6c0.1-0.5,0.4-0.9,0.7-1.3c0.4-0.4,0.8-0.6,1.3-0.7
			c0.5-0.1,1-0.1,1.5,0c0.5,0.1,0.9,0.4,1.2,0.8c0.3,0.4,0.6,0.8,0.7,1.4C51.2,13.3,51.2,13.8,51.1,14.3z M49.9,11.8
			c-0.3-0.3-0.6-0.5-1-0.6c-0.4-0.1-0.7-0.1-1.1,0c-0.4,0.1-0.7,0.3-1,0.6c-0.3,0.3-0.4,0.6-0.5,1c-0.1,0.4-0.1,0.8,0,1.2
			c0.1,0.4,0.3,0.8,0.6,1.1c0.3,0.3,0.6,0.5,1,0.6c0.4,0.1,0.7,0.1,1.1,0c0.4-0.1,0.7-0.3,1-0.6c0.3-0.3,0.5-0.6,0.5-1
			s0.1-0.8,0-1.2C50.3,12.5,50.1,12.1,49.9,11.8z"/>
		<path class="st1" d="M57.9,9.2C58,9.2,58,9.3,58,9.3c0,0.1,0,0.1,0,0.2l-1.7,5.3c0,0.1-0.1,0.1-0.1,0.2c-0.1,0-0.1,0.1-0.2,0.1
			c-0.1,0-0.1,0-0.2,0c-0.1,0-0.1-0.1-0.1-0.2L53,10c0,0,0,0,0-0.1c0,0,0-0.1,0-0.1c0-0.1,0-0.2,0.1-0.2c0.1-0.1,0.1-0.1,0.2-0.1
			c0.1,0,0.1,0,0.2,0c0.1,0,0.1,0.1,0.1,0.2l2.3,4.3l1.5-4.6c0-0.1,0.1-0.1,0.1-0.2c0.1,0,0.1-0.1,0.2-0.1
			C57.7,9.1,57.8,9.1,57.9,9.2z"/>
		<path class="st1" d="M65.4,12.2c-0.1,0.1-0.2,0.1-0.2,0.1L61,12c0,0.4,0,0.8,0.2,1.2c0.2,0.4,0.4,0.7,0.7,0.9
			c0.3,0.2,0.7,0.4,1.2,0.4c0.4,0,0.7,0,1-0.2c0.3-0.1,0.5-0.3,0.7-0.5c0.1-0.1,0.2-0.1,0.2-0.1c0.1,0,0.1,0,0.2,0.1
			c0.1,0.1,0.1,0.1,0.1,0.2c0,0.1,0,0.2-0.1,0.2c-0.3,0.3-0.6,0.5-0.9,0.7c-0.4,0.2-0.8,0.2-1.2,0.2c-0.6,0-1.1-0.2-1.5-0.5
			c-0.4-0.3-0.7-0.6-1-1.1c-0.2-0.5-0.3-1-0.3-1.5c0-0.6,0.2-1.1,0.5-1.6c0.3-0.4,0.6-0.8,1-1c0.4-0.2,0.8-0.3,1.3-0.3
			c0.4,0,0.9,0.2,1.2,0.4c0.4,0.2,0.7,0.6,0.9,1c0.2,0.4,0.3,0.9,0.3,1.4C65.5,12.1,65.5,12.2,65.4,12.2z M61.8,10.2
			c-0.4,0.3-0.7,0.7-0.8,1.2l3.8,0.3l0-0.1c0-0.3-0.1-0.6-0.3-0.9c-0.2-0.3-0.4-0.5-0.7-0.6c-0.3-0.1-0.6-0.2-0.8-0.3
			C62.6,9.8,62.2,9.9,61.8,10.2z"/>
		<path class="st1" d="M73.9,11.9l-1,3.6c-0.1,0.3-0.1,0.5,0,0.6c0.1,0.1,0.2,0.2,0.4,0.3c0,0,0.1,0,0.2,0c0.1,0,0.1,0,0.2,0
			c0.1,0,0.1,0.1,0.1,0.1c0,0.1,0,0.1,0,0.2c0,0.1-0.1,0.2-0.2,0.2c-0.1,0-0.3,0-0.4,0c-0.2-0.1-0.4-0.1-0.5-0.2
			c-0.1-0.1-0.3-0.2-0.3-0.4c-0.1-0.2-0.1-0.5,0-0.9l1.1-3.6l-0.8-0.2c-0.1,0-0.2-0.1-0.2-0.1c0-0.1-0.1-0.2,0-0.2
			c0-0.1,0.1-0.1,0.2-0.2c0.1,0,0.2,0,0.2,0l0.8,0.2l0.3-1.2c0-0.1,0.1-0.2,0.2-0.2c0.1,0,0.2-0.1,0.3,0c0.1,0,0.2,0.1,0.2,0.2
			c0,0.1,0.1,0.2,0,0.3l-0.3,1.2l1.1,0.3c0.1,0,0.1,0.1,0.2,0.2c0,0.1,0.1,0.2,0,0.2c0,0.1-0.1,0.1-0.1,0.2c-0.1,0-0.2,0-0.2,0
			L73.9,11.9z"/>
		<path class="st1" d="M81.7,14.8c0.1,0.5,0.1,1.1-0.2,1.7l-1.3,2.9c0,0.1-0.1,0.1-0.2,0.2c-0.1,0-0.2,0-0.3,0s-0.1-0.1-0.2-0.2
			c0-0.1,0-0.2,0-0.3l1.3-2.9c0.2-0.4,0.2-0.8,0.2-1.2c-0.1-0.4-0.4-0.7-0.8-0.9c-0.3-0.1-0.6-0.2-0.9-0.2s-0.6,0.1-0.9,0.3
			c-0.3,0.2-0.4,0.4-0.6,0.6l-1.3,2.9c0,0.1-0.1,0.1-0.2,0.2c-0.1,0-0.2,0-0.3,0c-0.1,0-0.1-0.1-0.2-0.2c0-0.1,0-0.2,0-0.3l3.1-6.9
			c0-0.1,0.1-0.1,0.2-0.2c0.1,0,0.2,0,0.3,0s0.1,0.1,0.2,0.2c0,0.1,0,0.2,0,0.3l-1.3,3c0.3-0.2,0.7-0.3,1.1-0.4c0.4,0,0.8,0,1.1,0.2
			C81.2,13.9,81.6,14.3,81.7,14.8z"/>
		<path class="st1" d="M87.8,21c-0.1,0-0.2,0-0.2,0l-3.5-2.3c-0.2,0.4-0.4,0.8-0.4,1.2c0,0.4,0,0.8,0.2,1.1c0.2,0.4,0.5,0.7,0.8,0.9
			c0.3,0.2,0.6,0.3,0.9,0.3s0.6,0,0.9-0.1c0.1,0,0.2,0,0.2,0c0.1,0,0.1,0.1,0.1,0.2c0,0.1,0,0.2,0,0.2c0,0.1-0.1,0.1-0.2,0.1
			c-0.4,0.1-0.7,0.2-1.1,0.1c-0.4,0-0.8-0.2-1.1-0.4c-0.5-0.3-0.8-0.7-1.1-1.1c-0.2-0.4-0.3-0.9-0.3-1.4c0-0.5,0.2-1,0.5-1.5
			c0.3-0.5,0.7-0.9,1.2-1.1c0.5-0.3,0.9-0.4,1.4-0.4c0.5,0,0.9,0.1,1.3,0.4c0.4,0.2,0.7,0.6,0.9,0.9c0.2,0.4,0.3,0.8,0.3,1.3
			c0,0.5-0.2,0.9-0.5,1.4C88,21,87.9,21,87.8,21z M85.7,17.5c-0.5,0-0.9,0.3-1.3,0.7l3.2,2.1l0-0.1c0.2-0.3,0.2-0.6,0.2-0.9
			c0-0.3-0.1-0.6-0.3-0.9c-0.2-0.3-0.4-0.5-0.6-0.6C86.6,17.6,86.2,17.5,85.7,17.5z"/>
		<path class="st1" d="M97.3,25.9c0,0.1,0,0.2-0.1,0.3c-0.1,0.1-0.2,0.1-0.2,0.1c-0.1,0-0.2,0-0.2-0.1c0,0-0.1-0.1-0.1-0.2
			c0-0.1-0.1-0.2-0.2-0.3c-0.2-0.2-0.5-0.3-0.8-0.4s-0.7,0-1.1,0.1c-0.4,0.1-0.7,0.3-0.9,0.5l-2,1.9c-0.1,0.1-0.1,0.1-0.2,0.1
			c-0.1,0-0.2,0-0.2-0.1c-0.1-0.1-0.1-0.1-0.1-0.2c0-0.1,0-0.2,0.1-0.2l3.6-3.5c0.1-0.1,0.1-0.1,0.2-0.1c0.1,0,0.2,0,0.2,0.1
			c0.1,0.1,0.1,0.1,0.1,0.2c0,0.1,0,0.2-0.1,0.2l-0.7,0.7c0.4-0.2,0.9-0.2,1.3-0.2c0.4,0.1,0.8,0.2,1.2,0.6
			C97.2,25.6,97.2,25.7,97.3,25.9z"/>
		<path class="st1" d="M99.5,33.3c-0.1,0-0.2-0.1-0.2-0.1l-2.5-3.4c-0.4,0.3-0.6,0.6-0.8,0.9c-0.2,0.4-0.2,0.7-0.2,1.1
			c0,0.4,0.2,0.8,0.5,1.1c0.2,0.3,0.5,0.5,0.7,0.6c0.3,0.1,0.6,0.2,0.9,0.2c0.1,0,0.2,0.1,0.2,0.1c0,0.1,0.1,0.1,0,0.2
			c0,0.1,0,0.1-0.1,0.2c-0.1,0-0.2,0.1-0.3,0.1c-0.4,0-0.7-0.1-1.1-0.3c-0.4-0.2-0.7-0.4-0.9-0.8c-0.3-0.5-0.5-0.9-0.6-1.4
			c-0.1-0.5,0-1,0.2-1.4c0.2-0.5,0.5-0.9,1-1.2c0.5-0.4,1-0.6,1.5-0.7c0.5-0.1,1,0,1.4,0.2c0.4,0.2,0.8,0.5,1.1,0.8
			c0.3,0.4,0.4,0.8,0.5,1.2c0.1,0.4,0,0.9-0.2,1.3c-0.2,0.4-0.5,0.8-0.9,1.2C99.7,33.3,99.6,33.3,99.5,33.3z M98.8,29.3
			c-0.5-0.1-0.9-0.1-1.4,0.2l2.3,3l0.1-0.1c0.2-0.2,0.4-0.5,0.5-0.8c0.1-0.3,0.1-0.6,0-0.9c-0.1-0.3-0.2-0.6-0.4-0.8
			C99.6,29.6,99.2,29.4,98.8,29.3z"/>
		<path class="st1" d="M99.2,36.1c0.1,0,0.2,0,0.3,0c0.1,0,0.1,0.1,0.1,0.1c0,0.1,0,0.2,0,0.3c-0.3,0.7-0.3,1.3,0.1,2
			c0.2,0.3,0.4,0.5,0.7,0.7c0.3,0.2,0.5,0.2,0.8,0c0.3-0.1,0.4-0.4,0.4-0.7c0-0.3,0-0.7-0.1-1.1c-0.2-0.6-0.2-1.1-0.1-1.6
			c0.1-0.4,0.3-0.8,0.7-1c0.3-0.1,0.5-0.2,0.8-0.2s0.6,0.2,0.8,0.3c0.3,0.2,0.5,0.5,0.6,0.8c0.2,0.3,0.2,0.6,0.3,0.9
			c0,0.3,0,0.7-0.1,1c0,0.1-0.1,0.1-0.2,0.2c-0.1,0-0.2,0-0.3,0c-0.1,0-0.1-0.1-0.2-0.1c0-0.1,0-0.1,0-0.2c0.1-0.3,0.1-0.5,0.1-0.8
			c0-0.3-0.1-0.5-0.2-0.8c-0.2-0.3-0.4-0.5-0.6-0.7c-0.3-0.1-0.5-0.1-0.8,0c-0.3,0.2-0.4,0.4-0.4,0.7c0,0.3,0,0.7,0.2,1.2
			c0.1,0.4,0.2,0.7,0.2,1c0,0.3,0,0.5-0.2,0.8c-0.1,0.2-0.3,0.4-0.6,0.6c-0.4,0.2-0.9,0.2-1.3,0s-0.8-0.6-1.1-1.1
			c-0.4-0.8-0.5-1.6-0.1-2.4C99.1,36.2,99.1,36.2,99.2,36.1z"/>
		<path class="st1" d="M106.2,41.7l-3.5,1.3c-0.3,0.1-0.4,0.2-0.5,0.4c-0.1,0.1-0.1,0.3,0,0.4c0,0,0,0.1,0.1,0.1
			c0,0.1,0.1,0.1,0.1,0.1c0,0.1,0,0.1,0,0.2s-0.1,0.1-0.2,0.1c-0.1,0-0.2,0-0.3-0.1c-0.1-0.1-0.2-0.2-0.3-0.4
			c-0.1-0.2-0.1-0.4-0.1-0.5s0-0.3,0.2-0.5c0.1-0.2,0.4-0.4,0.8-0.5l3.5-1.4l-0.3-0.8c0-0.1,0-0.2,0-0.2c0-0.1,0.1-0.1,0.2-0.2
			c0.1,0,0.2,0,0.2,0c0.1,0,0.1,0.1,0.2,0.2l0.3,0.8l1.2-0.4c0.1,0,0.2,0,0.3,0c0.1,0,0.1,0.1,0.2,0.2s0,0.2,0,0.3
			c0,0.1-0.1,0.1-0.2,0.2l-1.2,0.4l0.4,1c0,0.1,0,0.2,0,0.2c0,0.1-0.1,0.1-0.2,0.2c-0.1,0-0.2,0-0.2,0c-0.1,0-0.1-0.1-0.2-0.2
			L106.2,41.7z"/>
	</g>
	<g>
		<path class="st1" d="M21.1,84c-0.2,0.5-0.6,0.9-1.2,1.2L17,86.6c-0.1,0-0.2,0.1-0.3,0c-0.1,0-0.1-0.1-0.2-0.2s-0.1-0.2,0-0.3
			c0-0.1,0.1-0.1,0.2-0.2l2.8-1.4c0.4-0.2,0.7-0.5,0.9-0.9c0.2-0.3,0.1-0.7-0.1-1.2c-0.1-0.3-0.3-0.5-0.6-0.7
			c-0.3-0.2-0.5-0.3-0.8-0.3c-0.3,0-0.6,0-0.9,0.2l-2.8,1.4c-0.1,0-0.2,0.1-0.3,0c-0.1,0-0.1-0.1-0.2-0.2c0-0.1-0.1-0.2,0-0.3
			c0-0.1,0.1-0.2,0.2-0.2l2.8-1.5c0.4-0.2,0.7-0.5,0.9-0.8s0.1-0.7-0.1-1.1c-0.1-0.3-0.3-0.5-0.6-0.7c-0.3-0.2-0.5-0.3-0.8-0.3
			c-0.3,0-0.6,0-0.8,0.2l-2.8,1.5c-0.1,0-0.2,0.1-0.3,0c-0.1,0-0.2-0.1-0.2-0.2c0-0.1-0.1-0.2,0-0.3c0-0.1,0.1-0.1,0.2-0.2l4.4-2.3
			c0.1,0,0.2-0.1,0.3,0c0.1,0,0.1,0.1,0.2,0.2s0.1,0.2,0,0.3s-0.1,0.2-0.2,0.2l-0.6,0.3c0.4,0,0.7,0.2,1,0.4
			c0.3,0.2,0.6,0.5,0.8,0.8c0.2,0.4,0.3,0.8,0.2,1.1c0,0.4-0.2,0.7-0.5,1c0.4,0,0.7,0.1,1.2,0.4c0.4,0.3,0.7,0.6,0.9,0.9
			C21.2,83,21.3,83.5,21.1,84z"/>
		<path class="st1" d="M26.4,90.1c0,0.1-0.1,0.2-0.1,0.2l-3.9,3.2c-0.1,0.1-0.2,0.1-0.2,0.1c-0.1,0-0.2,0-0.2-0.1
			c-0.1-0.1-0.1-0.2-0.1-0.2c0-0.1,0-0.2,0.1-0.2l0.6-0.5c-0.4,0.1-0.8,0-1.2-0.1c-0.4-0.1-0.8-0.4-1-0.7c-0.3-0.4-0.5-0.8-0.6-1.3
			c-0.1-0.5,0-0.9,0.2-1.4c0.2-0.5,0.5-0.9,1-1.2c0.4-0.4,0.9-0.6,1.4-0.7c0.5-0.1,1-0.1,1.4,0.1s0.8,0.4,1.1,0.8
			c0.3,0.3,0.5,0.7,0.5,1.1c0.1,0.4,0,0.8-0.1,1.2l0.5-0.4c0.1-0.1,0.2-0.1,0.2-0.1s0.2,0,0.2,0.1C26.4,89.9,26.4,90,26.4,90.1z
			 M21.8,91.9c0.4,0.1,0.7,0.1,1.1,0c0.4-0.1,0.8-0.3,1.1-0.6c0.3-0.3,0.6-0.6,0.7-1c0.2-0.4,0.2-0.7,0.2-1.1c0-0.4-0.2-0.7-0.4-1
			c-0.2-0.3-0.5-0.5-0.9-0.6c-0.4-0.1-0.7-0.1-1.1,0c-0.4,0.1-0.7,0.3-1.1,0.6c-0.3,0.3-0.6,0.6-0.8,1c-0.2,0.4-0.2,0.7-0.2,1.1
			c0,0.4,0.2,0.7,0.4,1C21.1,91.6,21.4,91.8,21.8,91.9z"/>
		<path class="st1" d="M31.3,95.1c0,0.5-0.3,1-0.7,1.5l-2.1,2.5c-0.1,0.1-0.1,0.1-0.2,0.1s-0.2,0-0.2-0.1c-0.1-0.1-0.1-0.1-0.1-0.2
			c0-0.1,0-0.2,0.1-0.2l2.1-2.4c0.3-0.4,0.5-0.7,0.5-1.1S30.4,94.3,30,94c-0.2-0.2-0.5-0.4-0.8-0.4c-0.3-0.1-0.6-0.1-0.9,0
			c-0.3,0.1-0.5,0.2-0.7,0.4l-2.1,2.4c-0.1,0.1-0.1,0.1-0.2,0.1s-0.2,0-0.2-0.1s-0.1-0.1-0.1-0.2s0-0.2,0.1-0.2l3.3-3.8
			c0.1-0.1,0.1-0.1,0.2-0.1s0.2,0,0.2,0.1s0.1,0.1,0.1,0.2c0,0.1,0,0.2-0.1,0.2l-0.4,0.5c0.4-0.1,0.8-0.1,1.2,0
			c0.4,0.1,0.8,0.3,1.1,0.5C31.1,94.1,31.3,94.6,31.3,95.1z"/>
		<path class="st1" d="M38.2,99.3c0,0.1,0,0.2,0,0.3l-2.6,4.3c-0.1,0.1-0.1,0.1-0.2,0.2c-0.1,0-0.2,0-0.3,0
			c-0.1-0.1-0.1-0.1-0.2-0.2c0-0.1,0-0.2,0-0.3l0.4-0.6c-0.3,0.2-0.7,0.3-1.2,0.3c-0.4,0-0.8-0.1-1.2-0.3c-0.4-0.3-0.7-0.6-0.9-1
			c-0.2-0.4-0.3-0.9-0.2-1.4c0-0.5,0.2-1,0.5-1.5c0.3-0.5,0.7-0.9,1.1-1.1c0.4-0.3,0.9-0.4,1.4-0.4s0.9,0.1,1.3,0.4
			c0.4,0.2,0.7,0.5,0.9,0.9c0.2,0.4,0.3,0.8,0.3,1.2l0.4-0.6c0-0.1,0.1-0.1,0.2-0.2c0.1,0,0.2,0,0.3,0
			C38.1,99.1,38.2,99.2,38.2,99.3z M34.4,102.5c0.4,0,0.7-0.1,1.1-0.3c0.3-0.2,0.6-0.5,0.9-0.9c0.2-0.4,0.4-0.7,0.4-1.1
			c0-0.4,0-0.8-0.2-1.1s-0.4-0.6-0.7-0.8c-0.3-0.2-0.7-0.3-1-0.3c-0.4,0-0.7,0.1-1,0.3s-0.6,0.5-0.8,0.9c-0.2,0.4-0.4,0.8-0.4,1.2
			c0,0.4,0,0.8,0.2,1.1c0.2,0.3,0.4,0.6,0.7,0.8C33.7,102.5,34.1,102.6,34.4,102.5z"/>
		<path class="st1" d="M45.4,102.4c0,0.1,0,0.2,0,0.3l-1.8,4.5c-0.2,0.5-0.5,1-0.9,1.2c-0.4,0.3-0.8,0.5-1.3,0.5c-0.5,0-1,0-1.5-0.2
			c-0.2-0.1-0.5-0.2-0.7-0.4s-0.4-0.3-0.6-0.5c-0.2-0.2-0.2-0.3-0.2-0.4c0-0.1,0-0.1,0-0.2c0-0.1,0.1-0.1,0.2-0.1c0,0,0.1,0,0.1,0
			c0,0,0.1,0.1,0.2,0.2l0.2,0.2c0.4,0.3,0.7,0.6,1.1,0.7c0.6,0.2,1.2,0.3,1.6,0.1c0.5-0.2,0.8-0.6,1.1-1.2l0.3-0.6
			c-0.3,0.3-0.7,0.5-1.2,0.5c-0.5,0.1-0.9,0-1.3-0.1c-0.5-0.2-0.9-0.5-1.1-0.9c-0.3-0.4-0.5-0.8-0.5-1.3s0-1,0.2-1.5
			c0.2-0.5,0.5-0.9,0.9-1.3c0.4-0.3,0.8-0.5,1.3-0.6s0.9,0,1.4,0.1c0.4,0.2,0.8,0.4,1.1,0.8c0.3,0.4,0.4,0.7,0.5,1.1l0.3-0.7
			c0-0.1,0.1-0.2,0.2-0.2c0.1,0,0.2,0,0.3,0C45.3,102.3,45.3,102.3,45.4,102.4z M42.2,106.3c0.4-0.1,0.7-0.2,1-0.5
			c0.3-0.3,0.5-0.6,0.7-1c0.2-0.4,0.2-0.8,0.2-1.2c0-0.4-0.2-0.7-0.4-1.1c-0.2-0.3-0.5-0.5-0.9-0.7c-0.4-0.1-0.7-0.2-1.1-0.1
			c-0.4,0.1-0.7,0.2-1,0.5c-0.3,0.3-0.5,0.6-0.7,1c-0.2,0.4-0.2,0.8-0.2,1.2c0,0.4,0.2,0.8,0.4,1.1s0.5,0.5,0.9,0.7
			C41.4,106.3,41.8,106.3,42.2,106.3z"/>
		<path class="st1" d="M51.9,106.7c-0.1,0-0.2,0.1-0.2,0l-4.1-0.9c-0.1,0.4-0.1,0.8,0,1.2c0.1,0.4,0.3,0.7,0.6,1s0.7,0.5,1.1,0.6
			c0.3,0.1,0.7,0.1,1,0c0.3-0.1,0.6-0.2,0.8-0.4c0.1,0,0.2-0.1,0.2,0c0.1,0,0.1,0.1,0.2,0.1c0,0.1,0.1,0.1,0,0.2
			c0,0.1-0.1,0.1-0.2,0.2c-0.3,0.2-0.6,0.4-1,0.5c-0.4,0.1-0.8,0.1-1.2,0c-0.6-0.1-1-0.3-1.4-0.7c-0.4-0.3-0.6-0.7-0.8-1.2
			c-0.1-0.5-0.2-1,0-1.6c0.1-0.6,0.4-1.1,0.7-1.5c0.3-0.4,0.7-0.7,1.2-0.8c0.4-0.2,0.9-0.2,1.3-0.1c0.4,0.1,0.8,0.3,1.2,0.6
			s0.6,0.7,0.7,1.1c0.2,0.4,0.2,0.9,0.1,1.5C52,106.6,51.9,106.7,51.9,106.7z M48.7,104.2c-0.4,0.2-0.7,0.6-1,1.1l3.7,0.8l0-0.1
			c0-0.3,0-0.6-0.1-0.9c-0.1-0.3-0.3-0.5-0.6-0.7c-0.2-0.2-0.5-0.3-0.8-0.4C49.5,103.9,49.1,104,48.7,104.2z"/>
		<path class="st1" d="M62.9,105.2c0.3,0.4,0.4,1,0.4,1.6l-0.1,3.1c0,0.1,0,0.2-0.1,0.2c-0.1,0.1-0.1,0.1-0.2,0.1s-0.2,0-0.2-0.1
			s-0.1-0.1-0.1-0.2l0.1-3.1c0-0.5-0.1-0.9-0.3-1.2c-0.2-0.3-0.6-0.5-1.1-0.5c-0.3,0-0.6,0.1-0.9,0.2c-0.3,0.1-0.5,0.3-0.7,0.6
			c-0.2,0.2-0.3,0.5-0.3,0.8l-0.1,3.1c0,0.1,0,0.2-0.1,0.2c-0.1,0.1-0.1,0.1-0.2,0.1c-0.1,0-0.2,0-0.2-0.1c-0.1-0.1-0.1-0.1-0.1-0.2
			l0.1-3.1c0-0.5-0.1-0.9-0.3-1.2c-0.2-0.3-0.6-0.5-1-0.5c-0.3,0-0.6,0.1-0.9,0.2c-0.3,0.1-0.5,0.3-0.7,0.6
			c-0.2,0.2-0.3,0.5-0.3,0.8l-0.1,3.1c0,0.1,0,0.2-0.1,0.2c-0.1,0.1-0.1,0.1-0.2,0.1c-0.1,0-0.2,0-0.2-0.1s-0.1-0.1-0.1-0.2l0.1-5
			c0-0.1,0-0.2,0.1-0.2c0.1-0.1,0.1-0.1,0.2-0.1c0.1,0,0.2,0,0.2,0.1c0.1,0.1,0.1,0.1,0.1,0.2l0,0.6c0.2-0.3,0.5-0.5,0.8-0.7
			c0.3-0.2,0.7-0.3,1.1-0.3c0.4,0,0.8,0.1,1.1,0.3s0.5,0.5,0.6,0.9c0.2-0.3,0.5-0.6,0.9-0.8s0.8-0.3,1.3-0.3
			C62.1,104.6,62.6,104.8,62.9,105.2z"/>
		<path class="st1" d="M71,106c-0.1,0.1-0.1,0.1-0.2,0.1l-4.1,0.8c0.1,0.4,0.2,0.8,0.5,1.1s0.6,0.5,0.9,0.7c0.4,0.1,0.8,0.2,1.2,0.1
			c0.4-0.1,0.7-0.2,0.9-0.4c0.2-0.2,0.4-0.4,0.6-0.7c0.1-0.1,0.1-0.1,0.2-0.1s0.1,0,0.2,0.1c0.1,0,0.1,0.1,0.1,0.2
			c0,0.1,0,0.2-0.1,0.2c-0.2,0.3-0.4,0.6-0.7,0.9c-0.3,0.2-0.7,0.4-1.1,0.5c-0.6,0.1-1.1,0.1-1.6-0.1c-0.5-0.2-0.9-0.4-1.2-0.8
			s-0.5-0.9-0.6-1.4c-0.1-0.6-0.1-1.1,0.1-1.6c0.2-0.5,0.4-0.9,0.8-1.2c0.3-0.3,0.7-0.5,1.2-0.6c0.4-0.1,0.9-0.1,1.3,0.1
			c0.4,0.1,0.8,0.4,1.1,0.7s0.5,0.8,0.6,1.3C71,105.8,71,105.9,71,106z M67,104.9c-0.3,0.4-0.5,0.8-0.5,1.4l3.7-0.7l0-0.1
			c-0.1-0.3-0.3-0.6-0.5-0.8c-0.2-0.2-0.5-0.4-0.8-0.4c-0.3-0.1-0.6-0.1-0.9,0C67.7,104.3,67.3,104.6,67,104.9z"/>
		<path class="st1" d="M76.9,101.7c0.4,0.3,0.8,0.7,1,1.3l1.1,3.1c0,0.1,0,0.2,0,0.3s-0.1,0.1-0.2,0.2c-0.1,0-0.2,0-0.3,0
			c-0.1,0-0.1-0.1-0.2-0.2l-1.1-3c-0.2-0.5-0.4-0.8-0.7-1c-0.3-0.2-0.7-0.2-1.2,0c-0.3,0.1-0.6,0.3-0.8,0.5
			c-0.2,0.2-0.4,0.5-0.4,0.8c-0.1,0.3-0.1,0.6,0,0.8l1.1,3c0,0.1,0,0.2,0,0.3c0,0.1-0.1,0.1-0.2,0.2c-0.1,0-0.2,0-0.3,0
			c-0.1,0-0.1-0.1-0.2-0.2l-1.7-4.7c0-0.1,0-0.2,0-0.3c0-0.1,0.1-0.1,0.2-0.2c0.1,0,0.2,0,0.3,0c0.1,0,0.1,0.1,0.2,0.2l0.2,0.6
			c0.1-0.4,0.3-0.7,0.5-1s0.6-0.6,1-0.7C75.9,101.4,76.4,101.4,76.9,101.7z"/>
		<path class="st1" d="M80.9,99.9l1.7,3.3c0.1,0.2,0.3,0.4,0.4,0.4c0.1,0,0.3,0,0.4-0.1c0,0,0.1-0.1,0.1-0.1c0.1,0,0.1-0.1,0.1-0.1
			c0.1,0,0.1,0,0.2,0c0.1,0,0.1,0.1,0.2,0.1c0,0.1,0,0.2,0,0.3s-0.2,0.2-0.3,0.3c-0.2,0.1-0.3,0.2-0.5,0.2s-0.3,0-0.6-0.1
			c-0.2-0.1-0.4-0.3-0.6-0.7l-1.8-3.3l-0.7,0.4c-0.1,0-0.2,0.1-0.2,0s-0.1-0.1-0.2-0.2c0-0.1,0-0.2,0-0.2c0-0.1,0.1-0.1,0.2-0.2
			l0.7-0.4l-0.6-1.1c0-0.1-0.1-0.2,0-0.3c0-0.1,0.1-0.2,0.2-0.2s0.2-0.1,0.3,0c0.1,0,0.2,0.1,0.2,0.2l0.6,1.1l1-0.5
			c0.1,0,0.2,0,0.2,0c0.1,0,0.2,0.1,0.2,0.2c0,0.1,0,0.2,0,0.2c0,0.1-0.1,0.1-0.2,0.2L80.9,99.9z"/>
		<path class="st1" d="M89.7,93c0.3-0.1,0.5-0.2,0.8-0.2c0.2,0,0.4,0,0.5,0.2C91,93,91,93.1,91,93.2c0,0.1,0,0.2-0.1,0.2
			c-0.1,0-0.1,0.1-0.2,0.1s-0.1,0-0.2,0c-0.1,0-0.3,0-0.3,0c-0.1,0-0.3,0.1-0.4,0.2c-0.2,0.1-0.3,0.2-0.5,0.3
			c-0.3,0.3-0.5,0.6-0.7,1c-0.1,0.4-0.1,0.8-0.1,1.2s0.3,0.8,0.5,1.1c0.3,0.3,0.6,0.6,1,0.7c0.4,0.2,0.7,0.2,1.1,0.1
			c0.4-0.1,0.7-0.2,1.1-0.5c0.2-0.2,0.4-0.3,0.4-0.5s0.2-0.3,0.2-0.4c0-0.1,0-0.2,0.1-0.3c0-0.1,0-0.1,0-0.2c0,0,0-0.1,0.1-0.1
			c0.1-0.1,0.1-0.1,0.2-0.1c0.1,0,0.1,0,0.2,0.1c0.1,0.1,0.1,0.3,0.1,0.5s-0.2,0.5-0.3,0.8c-0.2,0.3-0.4,0.5-0.7,0.8
			c-0.4,0.3-0.9,0.6-1.4,0.6c-0.5,0.1-1,0-1.4-0.2c-0.5-0.2-0.9-0.5-1.3-0.9c-0.3-0.4-0.6-0.9-0.7-1.4c-0.1-0.5-0.1-1,0.1-1.5
			c0.2-0.5,0.4-0.9,0.9-1.3C89.1,93.3,89.4,93.1,89.7,93z"/>
		<path class="st1" d="M98.5,89.9c0.2,0.5,0.2,1,0.1,1.5c-0.1,0.5-0.3,0.9-0.6,1.3c-0.3,0.4-0.8,0.7-1.2,0.8s-1,0.2-1.5,0.1
			c-0.5-0.1-1-0.3-1.4-0.7c-0.4-0.4-0.7-0.8-0.9-1.3c-0.2-0.5-0.2-1-0.1-1.5c0.1-0.5,0.3-0.9,0.6-1.3c0.3-0.4,0.8-0.7,1.2-0.8
			c0.5-0.2,1-0.2,1.5-0.1c0.5,0.1,1,0.3,1.4,0.7C98.1,89,98.4,89.5,98.5,89.9z M96.1,88.6c-0.4-0.1-0.8-0.1-1.1,0
			c-0.4,0.1-0.7,0.3-0.9,0.6c-0.3,0.3-0.4,0.6-0.5,1c-0.1,0.4,0,0.8,0.1,1.1c0.1,0.4,0.4,0.7,0.7,1c0.3,0.3,0.7,0.5,1.1,0.6
			s0.8,0.1,1.1,0c0.4-0.1,0.7-0.3,0.9-0.6s0.4-0.6,0.5-1c0.1-0.4,0-0.8-0.1-1.1s-0.4-0.7-0.7-1C96.9,88.9,96.5,88.7,96.1,88.6z"/>
		<path class="st1" d="M98.4,82.3c0.1-0.1,0.2-0.1,0.3,0c0.1,0.1,0.1,0.1,0.2,0.2s0,0.2,0,0.2c0,0-0.1,0.1-0.2,0.2
			c-0.1,0.1-0.2,0.1-0.2,0.2c-0.1,0.2-0.2,0.5-0.2,0.9c0,0.3,0.1,0.7,0.3,1s0.4,0.6,0.7,0.8l2.3,1.5c0.1,0.1,0.1,0.1,0.2,0.2
			c0,0.1,0,0.2-0.1,0.3c-0.1,0.1-0.1,0.1-0.2,0.1c-0.1,0-0.2,0-0.3,0l-4.2-2.7C97,85,97,85,97,84.9c0-0.1,0-0.2,0-0.3
			c0.1-0.1,0.1-0.1,0.2-0.2c0.1,0,0.2,0,0.3,0.1l0.8,0.5c-0.3-0.4-0.4-0.8-0.5-1.2c0-0.4,0.1-0.9,0.3-1.3
			C98.2,82.5,98.3,82.4,98.4,82.3z"/>
		<path class="st1" d="M101.5,76.9c0.4-0.3,0.8-0.4,1.3-0.4c0.5,0,1,0.1,1.5,0.3c0.5,0.2,0.9,0.5,1.2,0.9c0.3,0.4,0.5,0.8,0.6,1.3
			c0.1,0.5,0,0.9-0.2,1.4c-0.2,0.4-0.4,0.7-0.8,1c-0.3,0.2-0.7,0.4-1.1,0.4l2.7,1.2c0.1,0,0.1,0.1,0.2,0.2c0,0.1,0,0.2,0,0.3
			s-0.1,0.1-0.2,0.2s-0.2,0-0.3,0l-6.6-3c-0.1,0-0.1-0.1-0.2-0.2c0-0.1,0-0.2,0-0.3c0-0.1,0.1-0.1,0.2-0.2c0.1,0,0.2,0,0.3,0
			l0.7,0.3c-0.2-0.3-0.4-0.7-0.4-1.1c0-0.4,0-0.8,0.2-1.2C100.8,77.5,101.1,77.1,101.5,76.9z M105.5,79.1c-0.1-0.4-0.2-0.7-0.4-1
			c-0.2-0.3-0.6-0.5-1-0.7c-0.4-0.2-0.8-0.3-1.2-0.2c-0.4,0-0.7,0.1-1,0.3c-0.3,0.2-0.5,0.5-0.7,0.8c-0.2,0.4-0.2,0.7-0.2,1.1
			c0,0.4,0.2,0.7,0.4,1c0.2,0.3,0.6,0.5,1,0.7c0.4,0.2,0.8,0.3,1.2,0.3c0.4,0,0.7-0.1,1-0.3c0.3-0.2,0.5-0.5,0.7-0.8
			C105.5,79.8,105.5,79.4,105.5,79.1z"/>
	</g>
	<g>
		<path class="st1" d="M32.5,50.1c0.5,0,0.7-0.3,0.7-0.9c0-1.3,0-2.6,0-3.8c0-1.3,0-2.6,0-3.9c0-0.5-0.3-0.9-0.7-0.9
			c-0.4,0-0.7,0.3-0.7,0.9c0,2.6,0,5.1,0,7.7C31.7,49.8,32,50.1,32.5,50.1z"/>
		<path class="st1" d="M90.6,77.8c-0.1-0.4-0.3-0.6-0.7-0.6c-0.4,0-0.7-0.2-1-0.6c-0.5-1.1-1.1-4-1.1-6.6c0-4.1-2.3-7.1-6.8-9
			c2.2-0.6,4-1.8,5.4-3.6c1.4-1.8,2.1-4,2.1-6.7c0-2.6-1-4.9-3.1-6.9c-2-2-4.5-3-7.3-3c0,0-10.8,0-11.1,0c-0.7,0.1-1.5,0.3-2.2,0.6
			c-3,1.6-4.5,4.3-4.6,7.5c-0.2,3.8-0.1,7.6-0.1,11.4c0,1.2,1,2.2,2.2,2.2c0.2,0,0.5,0,0.7,0V65c0,3.4,0,6.8,0,10.2
			c0,1.8,1.6,3.3,3.5,3.4c0.6,0,1.3-0.1,1.9-0.4c1.9-1,1.9-2.6,1.9-4c0-4.2,0-8.4,0-12.6v-1.4c0-5.4,0-10.4,0-15.8c0,0,0,0,0,0
			c0-0.4-0.3-0.7-0.7-0.7c-0.4,0-0.7,0.3-0.7,0.7l0,0c0,5.4,0,10.4,0,15.9v1.4c0,4.5,0,8.9,0,13.4c0,0.8-0.4,1.4-0.9,1.8
			c-0.4,0.3-0.9,0.4-1.3,0.4c-0.9,0-1.7-0.6-2-1.5c-0.1-0.3-0.1-0.6-0.1-0.9c0-4.3,0-8.7,0-13v-0.5c-0.7,0-1.3,0-1.9,0
			c-0.7,0-1-0.3-1-1c0-3.4,0-6.8,0-10.3c0-2.3,0.7-4.5,2.4-6.2c0.7-0.7,1.6-1.2,2.6-1.5c0.6-0.1,0.8-0.2,1.5-0.2
			c0.1,0,10.1,0,10.1,0c2.5,0,4.6,0.9,6.4,2.7c1.8,1.8,2.6,3.9,2.6,6.4c0,2.5-0.9,4.6-2.6,6.3c-1.7,1.7-3.8,2.6-6.3,2.6h-1.6
			c0,0,0,0,0,0c-1.8,0-3.5,0.1-3.7,0.1c-0.4,0-0.7,0.3-0.7,0.7c0,0.4,0.3,0.7,0.7,0.7c0,0,2.5,0,3.3,0c0.2,0,0.4,0,0.5,0
			c3,0.3,5.3,1.1,6.8,2.5c1.9,1.7,2.9,3.7,2.9,5.9c0,2.9,0.6,6,1.3,7.2c0.5,1,1.1,1.4,1.9,1.4c0.3,0,0.5-0.1,0.7-0.2
			C90.6,78.4,90.7,78.2,90.6,77.8z"/>
		<g>
			<path class="st1" d="M35.3,50.1c0.4,0,0.7-0.2,0.8-0.7c0-0.1,0-0.3,0-0.4c0-2.3,0-4.7,0-7c0-0.2,0-0.4,0-0.5
				c-0.1-0.5-0.3-0.8-0.8-0.8c-0.4,0-0.7,0.3-0.7,0.9c0,1.3,0,2.6,0,3.8c0,1.3,0,2.7,0,4C34.6,49.8,34.9,50.1,35.3,50.1z"/>
			<path class="st1" d="M37.5,49.3c0,1.6-0.6,2.5-2.2,3c-0.6,0.2-0.7,0.3-0.7,0.9c0,2.2,0,4.4,0,6.6c0,1,0.3,1.9,1,2.7
				c0.4,0.4,0.5,0.8,0.5,1.4c0,3.6,0,7.2,0,10.8c0,0.2,0,0.4,0,0.6c-0.1,1.2-1.3,2.1-2.5,1.9c-1.2-0.2-1.8-1.1-1.8-2.3
				c0-3.7,0-7.3,0-11c0-0.5,0.1-1,0.5-1.4c0.1-0.2,0.3-0.3,0.4-0.5c0.4-0.5,0.6-1.1,0.6-1.8c0-2.3,0-4.6,0-7c0-0.7-0.1-0.8-0.7-1
				c-1.5-0.5-2.2-1.3-2.2-2.9c0-2.5,0-5,0-7.5c0-0.2,0-0.4-0.1-0.6c-0.1-0.3-0.3-0.5-0.6-0.5c-0.3,0-0.6,0.1-0.7,0.4
				c-0.1,0.2-0.1,0.3-0.1,0.5c0,2.6,0,5.2,0,7.8c0,1.8,0.9,3.2,2.6,3.9c0.3,0.1,0.4,0.3,0.4,0.5c0,1.8-0.1,3.6,0,5.4
				c0,1-0.2,1.8-0.8,2.5c-0.5,0.5-0.6,1.1-0.6,1.8c0,1.9,0,3.8,0,5.7v2.8c0,0.9,0,1.9,0,2.8c0,0.3,0,0.5,0.1,0.8c0.4,2,2,3.1,4.1,3
				c1.8-0.2,3.1-1.8,3.1-3.7c0-3.8,0-7.6,0-11.4c0-0.5-0.1-1-0.5-1.5c-0.2-0.3-0.5-0.6-0.7-1c-0.1-0.2-0.3-0.5-0.3-0.8
				c0-2.1,0-4.3,0-6.4c0-0.1,0.1-0.3,0.2-0.4c1.9-0.8,2.7-2.2,2.7-4.2c0-1.9,0-3.7,0-5.6c-0.5,0-0.9-0.1-1.5-0.3
				C37.5,45.4,37.5,47.4,37.5,49.3z"/>
			<path class="st1" d="M40.1,42.1c0-0.5,0.1-0.9,0.3-1.3c-0.5,0-0.8,0-0.8,0c-0.9,0-1.4,0-1.4,0c-0.3,0-0.5,0.1-0.6,0.4
				c-0.1,0.2-0.1,0.3-0.1,0.5c0,0.6,0,1.6,0,2.1c0.5,0.2,0.9,0.3,1.5,0.3c0-0.5,0-1.5,0-2C39.3,42.1,39.7,42.1,40.1,42.1z"/>
		</g>
		<path class="st1" d="M52.7,43.8c-2.1-2-4.5-3.1-7.4-3.1h-7.1c0,0,0,0,0,0c0,0.4,0,0.9,0,1.3h7.2c2.5,0,4.6,0.9,6.4,2.7
			c1.8,1.8,2.7,3.9,2.7,6.4c0,2.5-0.9,4.6-2.7,6.4c-1.8,1.8-3.9,2.6-6.4,2.6c0,0-5,0-5.1,0c-0.4,0-0.7,0.3-0.7,0.7
			c0,0.4,0.3,0.7,0.7,0.7c0,0,5.1,0,5.1,0c2.9,0,5.4-1,7.4-3c2-2,3.1-4.5,3.1-7.4C55.8,48.4,54.8,45.9,52.7,43.8z"/>
	</g>
	<circle class="st2" cx="59.7" cy="59.7" r="57.3"/>
</g>
</svg>
